solid OpenSCAD_Model
  facet normal -0.951058 0.309011 0
    outer loop
      vertex -6.78008 1.74083 0
      vertex -6.50844 2.57687 3
      vertex -6.50844 2.57687 0
    endloop
  endfacet
  facet normal -0.951058 0.309011 0
    outer loop
      vertex -6.50844 2.57687 3
      vertex -6.78008 1.74083 0
      vertex -6.78008 1.74083 3
    endloop
  endfacet
  facet normal 0.844326 0.535829 0
    outer loop
      vertex 6.13415 3.37228 3
      vertex 5.66312 4.1145 0
      vertex 5.66312 4.1145 3
    endloop
  endfacet
  facet normal 0.844326 0.535829 0
    outer loop
      vertex 5.66312 4.1145 0
      vertex 6.13415 3.37228 3
      vertex 6.13415 3.37228 0
    endloop
  endfacet
  facet normal 0.368131 0.929774 -0
    outer loop
      vertex 2.98045 6.33379 0
      vertex 2.16312 6.6574 3
      vertex 2.98045 6.33379 3
    endloop
  endfacet
  facet normal 0.368131 0.929774 0
    outer loop
      vertex 2.16312 6.6574 3
      vertex 2.98045 6.33379 0
      vertex 2.16312 6.6574 0
    endloop
  endfacet
  facet normal -0.368131 0.929774 0
    outer loop
      vertex -2.16312 6.6574 0
      vertex -2.98045 6.33379 3
      vertex -2.16312 6.6574 3
    endloop
  endfacet
  facet normal -0.368131 0.929774 0
    outer loop
      vertex -2.98045 6.33379 3
      vertex -2.16312 6.6574 0
      vertex -2.98045 6.33379 0
    endloop
  endfacet
  facet normal -0.904828 0.425778 0
    outer loop
      vertex -6.50844 2.57687 0
      vertex -6.13415 3.37228 3
      vertex -6.13415 3.37228 0
    endloop
  endfacet
  facet normal -0.904828 0.425778 0
    outer loop
      vertex -6.13415 3.37228 3
      vertex -6.50844 2.57687 0
      vertex -6.50844 2.57687 3
    endloop
  endfacet
  facet normal 0.998027 -0.0627939 0
    outer loop
      vertex 6.9448 -0.877332 3
      vertex 7 0 0
      vertex 7 0 3
    endloop
  endfacet
  facet normal 0.998027 -0.0627939 0
    outer loop
      vertex 7 0 0
      vertex 6.9448 -0.877332 3
      vertex 6.9448 -0.877332 0
    endloop
  endfacet
  facet normal 0.982287 0.18738 0
    outer loop
      vertex 6.9448 0.877332 3
      vertex 6.78008 1.74083 0
      vertex 6.78008 1.74083 3
    endloop
  endfacet
  facet normal 0.982287 0.18738 0
    outer loop
      vertex 6.78008 1.74083 0
      vertex 6.9448 0.877332 3
      vertex 6.9448 0.877332 0
    endloop
  endfacet
  facet normal 0.684547 0.728969 -0
    outer loop
      vertex 5.10278 4.79183 0
      vertex 4.46197 5.39359 3
      vertex 5.10278 4.79183 3
    endloop
  endfacet
  facet normal 0.684547 0.728969 0
    outer loop
      vertex 4.46197 5.39359 3
      vertex 5.10278 4.79183 0
      vertex 4.46197 5.39359 0
    endloop
  endfacet
  facet normal 0 1 -0
    outer loop
      vertex 0.439533 6.98619 0
      vertex -0.439533 6.98619 3
      vertex 0.439533 6.98619 3
    endloop
  endfacet
  facet normal 0 1 0
    outer loop
      vertex -0.439533 6.98619 3
      vertex 0.439533 6.98619 0
      vertex -0.439533 6.98619 0
    endloop
  endfacet
  facet normal 0.481755 0.876306 -0
    outer loop
      vertex 3.75079 5.91029 0
      vertex 2.98045 6.33379 3
      vertex 3.75079 5.91029 3
    endloop
  endfacet
  facet normal 0.481755 0.876306 0
    outer loop
      vertex 2.98045 6.33379 3
      vertex 3.75079 5.91029 0
      vertex 2.98045 6.33379 0
    endloop
  endfacet
  facet normal -0.982287 0.18738 0
    outer loop
      vertex -6.9448 0.877332 0
      vertex -6.78008 1.74083 3
      vertex -6.78008 1.74083 0
    endloop
  endfacet
  facet normal -0.982287 0.18738 0
    outer loop
      vertex -6.78008 1.74083 3
      vertex -6.9448 0.877332 0
      vertex -6.9448 0.877332 3
    endloop
  endfacet
  facet normal -0.770511 0.637427 0
    outer loop
      vertex -5.66312 4.1145 0
      vertex -5.10278 4.79183 3
      vertex -5.10278 4.79183 0
    endloop
  endfacet
  facet normal -0.770511 0.637427 0
    outer loop
      vertex -5.10278 4.79183 3
      vertex -5.66312 4.1145 0
      vertex -5.66312 4.1145 3
    endloop
  endfacet
  facet normal -0.248684 0.968585 0
    outer loop
      vertex -1.31167 6.87601 0
      vertex -2.16312 6.6574 3
      vertex -1.31167 6.87601 3
    endloop
  endfacet
  facet normal -0.248684 0.968585 0
    outer loop
      vertex -2.16312 6.6574 3
      vertex -1.31167 6.87601 0
      vertex -2.16312 6.6574 0
    endloop
  endfacet
  facet normal -0.684547 0.728969 0
    outer loop
      vertex -4.46197 5.39359 0
      vertex -5.10278 4.79183 3
      vertex -4.46197 5.39359 3
    endloop
  endfacet
  facet normal -0.684547 0.728969 0
    outer loop
      vertex -5.10278 4.79183 3
      vertex -4.46197 5.39359 0
      vertex -5.10278 4.79183 0
    endloop
  endfacet
  facet normal 0.904828 -0.425778 0
    outer loop
      vertex 6.13415 -3.37228 3
      vertex 6.50844 -2.57687 0
      vertex 6.50844 -2.57687 3
    endloop
  endfacet
  facet normal 0.904828 -0.425778 0
    outer loop
      vertex 6.50844 -2.57687 0
      vertex 6.13415 -3.37228 3
      vertex 6.13415 -3.37228 0
    endloop
  endfacet
  facet normal -0.684547 -0.728969 0
    outer loop
      vertex -5.10278 -4.79183 0
      vertex -4.46197 -5.39359 3
      vertex -5.10278 -4.79183 3
    endloop
  endfacet
  facet normal -0.684547 -0.728969 -0
    outer loop
      vertex -4.46197 -5.39359 3
      vertex -5.10278 -4.79183 0
      vertex -4.46197 -5.39359 0
    endloop
  endfacet
  facet normal -0.904828 -0.425778 0
    outer loop
      vertex -6.13415 -3.37228 0
      vertex -6.50844 -2.57687 3
      vertex -6.50844 -2.57687 0
    endloop
  endfacet
  facet normal -0.904828 -0.425778 0
    outer loop
      vertex -6.50844 -2.57687 3
      vertex -6.13415 -3.37228 0
      vertex -6.13415 -3.37228 3
    endloop
  endfacet
  facet normal 0.481755 -0.876306 0
    outer loop
      vertex 2.98045 -6.33379 0
      vertex 3.75079 -5.91029 3
      vertex 2.98045 -6.33379 3
    endloop
  endfacet
  facet normal 0.481755 -0.876306 0
    outer loop
      vertex 3.75079 -5.91029 3
      vertex 2.98045 -6.33379 0
      vertex 3.75079 -5.91029 0
    endloop
  endfacet
  facet normal 0.770511 0.637427 0
    outer loop
      vertex 5.66312 4.1145 3
      vertex 5.10278 4.79183 0
      vertex 5.10278 4.79183 3
    endloop
  endfacet
  facet normal 0.770511 0.637427 0
    outer loop
      vertex 5.10278 4.79183 0
      vertex 5.66312 4.1145 3
      vertex 5.66312 4.1145 0
    endloop
  endfacet
  facet normal 0.248684 0.968585 -0
    outer loop
      vertex 2.16312 6.6574 0
      vertex 1.31167 6.87601 3
      vertex 2.16312 6.6574 3
    endloop
  endfacet
  facet normal 0.248684 0.968585 0
    outer loop
      vertex 1.31167 6.87601 3
      vertex 2.16312 6.6574 0
      vertex 1.31167 6.87601 0
    endloop
  endfacet
  facet normal 0.125337 0.992114 -0
    outer loop
      vertex 1.31167 6.87601 0
      vertex 0.439533 6.98619 3
      vertex 1.31167 6.87601 3
    endloop
  endfacet
  facet normal 0.125337 0.992114 0
    outer loop
      vertex 0.439533 6.98619 3
      vertex 1.31167 6.87601 0
      vertex 0.439533 6.98619 0
    endloop
  endfacet
  facet normal 0.587783 0.809018 -0
    outer loop
      vertex 4.46197 5.39359 0
      vertex 3.75079 5.91029 3
      vertex 4.46197 5.39359 3
    endloop
  endfacet
  facet normal 0.587783 0.809018 0
    outer loop
      vertex 3.75079 5.91029 3
      vertex 4.46197 5.39359 0
      vertex 3.75079 5.91029 0
    endloop
  endfacet
  facet normal -0.998027 0.0627939 0
    outer loop
      vertex -7 0 0
      vertex -6.9448 0.877332 3
      vertex -6.9448 0.877332 0
    endloop
  endfacet
  facet normal -0.998027 0.0627939 0
    outer loop
      vertex -6.9448 0.877332 3
      vertex -7 0 0
      vertex -7 0 3
    endloop
  endfacet
  facet normal 0 0 1
    outer loop
      vertex 1.5 0 3
      vertex 7 0 3
      vertex 6.9448 0.877332 3
    endloop
  endfacet
  facet normal 0 0 1
    outer loop
      vertex 1.48817 0.188 3
      vertex 6.9448 0.877332 3
      vertex 6.78008 1.74083 3
    endloop
  endfacet
  facet normal 0 0 1
    outer loop
      vertex 7 0 3
      vertex 1.5 0 3
      vertex 6.9448 -0.877332 3
    endloop
  endfacet
  facet normal 0 0 1
    outer loop
      vertex 1.45287 0.373034 3
      vertex 6.78008 1.74083 3
      vertex 6.50844 2.57687 3
    endloop
  endfacet
  facet normal -0 0 1
    outer loop
      vertex 1.48817 -0.188 3
      vertex 6.9448 -0.877332 3
      vertex 1.5 0 3
    endloop
  endfacet
  facet normal 0 0 1
    outer loop
      vertex 1.39466 0.552186 3
      vertex 6.50844 2.57687 3
      vertex 6.13415 3.37228 3
    endloop
  endfacet
  facet normal 0 0 1
    outer loop
      vertex 6.9448 -0.877332 3
      vertex 1.48817 -0.188 3
      vertex 6.78008 -1.74083 3
    endloop
  endfacet
  facet normal 0 0 1
    outer loop
      vertex 1.31446 0.722631 3
      vertex 6.13415 3.37228 3
      vertex 5.66312 4.1145 3
    endloop
  endfacet
  facet normal -0 0 1
    outer loop
      vertex 1.45287 -0.373034 3
      vertex 6.78008 -1.74083 3
      vertex 1.48817 -0.188 3
    endloop
  endfacet
  facet normal 0 0 1
    outer loop
      vertex 1.21352 0.881678 3
      vertex 5.66312 4.1145 3
      vertex 5.10278 4.79183 3
    endloop
  endfacet
  facet normal 0 0 1
    outer loop
      vertex 6.78008 -1.74083 3
      vertex 1.45287 -0.373034 3
      vertex 6.50844 -2.57687 3
    endloop
  endfacet
  facet normal 0 0 1
    outer loop
      vertex 1.09345 1.02682 3
      vertex 5.10278 4.79183 3
      vertex 4.46197 5.39359 3
    endloop
  endfacet
  facet normal -0 0 1
    outer loop
      vertex 1.39466 -0.552186 3
      vertex 6.50844 -2.57687 3
      vertex 1.45287 -0.373034 3
    endloop
  endfacet
  facet normal 0 0 1
    outer loop
      vertex 0.956136 1.15577 3
      vertex 4.46197 5.39359 3
      vertex 3.75079 5.91029 3
    endloop
  endfacet
  facet normal 0 0 1
    outer loop
      vertex 6.50844 -2.57687 3
      vertex 1.39466 -0.552186 3
      vertex 6.13415 -3.37228 3
    endloop
  endfacet
  facet normal 0 0 1
    outer loop
      vertex 0.80374 1.26649 3
      vertex 3.75079 5.91029 3
      vertex 2.98045 6.33379 3
    endloop
  endfacet
  facet normal -0 0 1
    outer loop
      vertex 1.31446 -0.722631 3
      vertex 6.13415 -3.37228 3
      vertex 1.39466 -0.552186 3
    endloop
  endfacet
  facet normal 0 0 1
    outer loop
      vertex 0.638668 1.35724 3
      vertex 2.98045 6.33379 3
      vertex 2.16312 6.6574 3
    endloop
  endfacet
  facet normal 0 0 1
    outer loop
      vertex 6.13415 -3.37228 3
      vertex 1.31446 -0.722631 3
      vertex 5.66312 -4.1145 3
    endloop
  endfacet
  facet normal -0 0 1
    outer loop
      vertex 1.21352 -0.881678 3
      vertex 5.66312 -4.1145 3
      vertex 1.31446 -0.722631 3
    endloop
  endfacet
  facet normal 0 0 1
    outer loop
      vertex 6.9448 0.877332 3
      vertex 1.48817 0.188 3
      vertex 1.5 0 3
    endloop
  endfacet
  facet normal 0 0 1
    outer loop
      vertex 6.78008 1.74083 3
      vertex 1.45287 0.373034 3
      vertex 1.48817 0.188 3
    endloop
  endfacet
  facet normal 0 0 1
    outer loop
      vertex 6.50844 2.57687 3
      vertex 1.39466 0.552186 3
      vertex 1.45287 0.373034 3
    endloop
  endfacet
  facet normal 0 0 1
    outer loop
      vertex 6.13415 3.37228 3
      vertex 1.31446 0.722631 3
      vertex 1.39466 0.552186 3
    endloop
  endfacet
  facet normal 0 0 1
    outer loop
      vertex 0.463525 1.42658 3
      vertex 2.16312 6.6574 3
      vertex 1.31167 6.87601 3
    endloop
  endfacet
  facet normal 0 0 1
    outer loop
      vertex 5.66312 4.1145 3
      vertex 1.21352 0.881678 3
      vertex 1.31446 0.722631 3
    endloop
  endfacet
  facet normal 0 0 1
    outer loop
      vertex 5.10278 4.79183 3
      vertex 1.09345 1.02682 3
      vertex 1.21352 0.881678 3
    endloop
  endfacet
  facet normal 0 0 1
    outer loop
      vertex 4.46197 5.39359 3
      vertex 0.956136 1.15577 3
      vertex 1.09345 1.02682 3
    endloop
  endfacet
  facet normal 0 0 1
    outer loop
      vertex 3.75079 5.91029 3
      vertex 0.80374 1.26649 3
      vertex 0.956136 1.15577 3
    endloop
  endfacet
  facet normal 0 0 1
    outer loop
      vertex 2.98045 6.33379 3
      vertex 0.638668 1.35724 3
      vertex 0.80374 1.26649 3
    endloop
  endfacet
  facet normal 0 0 1
    outer loop
      vertex 2.16312 6.6574 3
      vertex 0.463525 1.42658 3
      vertex 0.638668 1.35724 3
    endloop
  endfacet
  facet normal 0 0 1
    outer loop
      vertex 0.281072 1.47343 3
      vertex 1.31167 6.87601 3
      vertex 0.439533 6.98619 3
    endloop
  endfacet
  facet normal 0 0 1
    outer loop
      vertex 1.31167 6.87601 3
      vertex 0.281072 1.47343 3
      vertex 0.463525 1.42658 3
    endloop
  endfacet
  facet normal 0 0 1
    outer loop
      vertex 0.439533 6.98619 3
      vertex 0.0941849 1.49704 3
      vertex 0.281072 1.47343 3
    endloop
  endfacet
  facet normal 0 0 1
    outer loop
      vertex 0.439533 6.98619 3
      vertex -0.0941849 1.49704 3
      vertex 0.0941849 1.49704 3
    endloop
  endfacet
  facet normal -0 0 1
    outer loop
      vertex -0.439533 6.98619 3
      vertex -0.0941849 1.49704 3
      vertex 0.439533 6.98619 3
    endloop
  endfacet
  facet normal 0 0 1
    outer loop
      vertex -0.0941849 1.49704 3
      vertex -0.439533 6.98619 3
      vertex -0.281072 1.47343 3
    endloop
  endfacet
  facet normal -0 0 1
    outer loop
      vertex -1.31167 6.87601 3
      vertex -0.281072 1.47343 3
      vertex -0.439533 6.98619 3
    endloop
  endfacet
  facet normal 0 0 1
    outer loop
      vertex -0.281072 1.47343 3
      vertex -1.31167 6.87601 3
      vertex -0.463525 1.42658 3
    endloop
  endfacet
  facet normal -0 0 1
    outer loop
      vertex -2.16312 6.6574 3
      vertex -0.463525 1.42658 3
      vertex -1.31167 6.87601 3
    endloop
  endfacet
  facet normal 0 0 1
    outer loop
      vertex -0.463525 1.42658 3
      vertex -2.16312 6.6574 3
      vertex -0.638668 1.35724 3
    endloop
  endfacet
  facet normal -0 0 1
    outer loop
      vertex -2.98045 6.33379 3
      vertex -0.638668 1.35724 3
      vertex -2.16312 6.6574 3
    endloop
  endfacet
  facet normal 0 0 1
    outer loop
      vertex -0.638668 1.35724 3
      vertex -2.98045 6.33379 3
      vertex -0.80374 1.26649 3
    endloop
  endfacet
  facet normal -0 0 1
    outer loop
      vertex -3.75079 5.91029 3
      vertex -0.80374 1.26649 3
      vertex -2.98045 6.33379 3
    endloop
  endfacet
  facet normal 0 0 1
    outer loop
      vertex -0.80374 1.26649 3
      vertex -3.75079 5.91029 3
      vertex -0.956136 1.15577 3
    endloop
  endfacet
  facet normal -0 0 1
    outer loop
      vertex -4.46197 5.39359 3
      vertex -0.956136 1.15577 3
      vertex -3.75079 5.91029 3
    endloop
  endfacet
  facet normal 0 0 1
    outer loop
      vertex -0.956136 1.15577 3
      vertex -4.46197 5.39359 3
      vertex -1.09345 1.02682 3
    endloop
  endfacet
  facet normal -0 0 1
    outer loop
      vertex -5.10278 4.79183 3
      vertex -1.09345 1.02682 3
      vertex -4.46197 5.39359 3
    endloop
  endfacet
  facet normal 0 0 1
    outer loop
      vertex -1.09345 1.02682 3
      vertex -5.10278 4.79183 3
      vertex -1.21352 0.881678 3
    endloop
  endfacet
  facet normal -0 0 1
    outer loop
      vertex -5.66312 4.1145 3
      vertex -1.21352 0.881678 3
      vertex -5.10278 4.79183 3
    endloop
  endfacet
  facet normal 0 0 1
    outer loop
      vertex 5.66312 -4.1145 3
      vertex 1.21352 -0.881678 3
      vertex 5.10278 -4.79183 3
    endloop
  endfacet
  facet normal -0 0 1
    outer loop
      vertex 1.09345 -1.02682 3
      vertex 5.10278 -4.79183 3
      vertex 1.21352 -0.881678 3
    endloop
  endfacet
  facet normal 0 0 1
    outer loop
      vertex 5.10278 -4.79183 3
      vertex 1.09345 -1.02682 3
      vertex 4.46197 -5.39359 3
    endloop
  endfacet
  facet normal -0 0 1
    outer loop
      vertex 0.956136 -1.15577 3
      vertex 4.46197 -5.39359 3
      vertex 1.09345 -1.02682 3
    endloop
  endfacet
  facet normal 0 0 1
    outer loop
      vertex 4.46197 -5.39359 3
      vertex 0.956136 -1.15577 3
      vertex 3.75079 -5.91029 3
    endloop
  endfacet
  facet normal -0 0 1
    outer loop
      vertex 0.80374 -1.26649 3
      vertex 3.75079 -5.91029 3
      vertex 0.956136 -1.15577 3
    endloop
  endfacet
  facet normal 0 0 1
    outer loop
      vertex 3.75079 -5.91029 3
      vertex 0.80374 -1.26649 3
      vertex 2.98045 -6.33379 3
    endloop
  endfacet
  facet normal -0 0 1
    outer loop
      vertex 0.638668 -1.35724 3
      vertex 2.98045 -6.33379 3
      vertex 0.80374 -1.26649 3
    endloop
  endfacet
  facet normal 0 0 1
    outer loop
      vertex 2.98045 -6.33379 3
      vertex 0.638668 -1.35724 3
      vertex 2.16312 -6.6574 3
    endloop
  endfacet
  facet normal -0 0 1
    outer loop
      vertex 0.463525 -1.42658 3
      vertex 2.16312 -6.6574 3
      vertex 0.638668 -1.35724 3
    endloop
  endfacet
  facet normal 0 0 1
    outer loop
      vertex 2.16312 -6.6574 3
      vertex 0.463525 -1.42658 3
      vertex 1.31167 -6.87601 3
    endloop
  endfacet
  facet normal -0 0 1
    outer loop
      vertex 0.281072 -1.47343 3
      vertex 1.31167 -6.87601 3
      vertex 0.463525 -1.42658 3
    endloop
  endfacet
  facet normal 0 0 1
    outer loop
      vertex 1.31167 -6.87601 3
      vertex 0.281072 -1.47343 3
      vertex 0.439533 -6.98619 3
    endloop
  endfacet
  facet normal -0 0 1
    outer loop
      vertex 0.0941849 -1.49704 3
      vertex 0.439533 -6.98619 3
      vertex 0.281072 -1.47343 3
    endloop
  endfacet
  facet normal -0 0 1
    outer loop
      vertex -0.0941849 -1.49704 3
      vertex 0.439533 -6.98619 3
      vertex 0.0941849 -1.49704 3
    endloop
  endfacet
  facet normal 0 0 1
    outer loop
      vertex -0.439533 -6.98619 3
      vertex -0.0941849 -1.49704 3
      vertex -0.281072 -1.47343 3
    endloop
  endfacet
  facet normal 0 0 1
    outer loop
      vertex -0.0941849 -1.49704 3
      vertex -0.439533 -6.98619 3
      vertex 0.439533 -6.98619 3
    endloop
  endfacet
  facet normal 0 0 1
    outer loop
      vertex -1.31167 -6.87601 3
      vertex -0.281072 -1.47343 3
      vertex -0.463525 -1.42658 3
    endloop
  endfacet
  facet normal 0 0 1
    outer loop
      vertex -2.16312 -6.6574 3
      vertex -0.463525 -1.42658 3
      vertex -0.638668 -1.35724 3
    endloop
  endfacet
  facet normal 0 0 1
    outer loop
      vertex -2.98045 -6.33379 3
      vertex -0.638668 -1.35724 3
      vertex -0.80374 -1.26649 3
    endloop
  endfacet
  facet normal 0 0 1
    outer loop
      vertex -3.75079 -5.91029 3
      vertex -0.80374 -1.26649 3
      vertex -0.956136 -1.15577 3
    endloop
  endfacet
  facet normal 0 0 1
    outer loop
      vertex -4.46197 -5.39359 3
      vertex -0.956136 -1.15577 3
      vertex -1.09345 -1.02682 3
    endloop
  endfacet
  facet normal 0 0 1
    outer loop
      vertex -5.10278 -4.79183 3
      vertex -1.09345 -1.02682 3
      vertex -1.21352 -0.881678 3
    endloop
  endfacet
  facet normal 0 0 1
    outer loop
      vertex -0.281072 -1.47343 3
      vertex -1.31167 -6.87601 3
      vertex -0.439533 -6.98619 3
    endloop
  endfacet
  facet normal 0 0 1
    outer loop
      vertex -5.66312 -4.1145 3
      vertex -1.21352 -0.881678 3
      vertex -1.31446 -0.722631 3
    endloop
  endfacet
  facet normal 0 0 1
    outer loop
      vertex -6.13415 -3.37228 3
      vertex -1.31446 -0.722631 3
      vertex -1.39466 -0.552186 3
    endloop
  endfacet
  facet normal 0 0 1
    outer loop
      vertex -6.50844 -2.57687 3
      vertex -1.39466 -0.552186 3
      vertex -1.45287 -0.373034 3
    endloop
  endfacet
  facet normal 0 0 1
    outer loop
      vertex -6.78008 -1.74083 3
      vertex -1.45287 -0.373034 3
      vertex -1.48817 -0.188 3
    endloop
  endfacet
  facet normal 0 0 1
    outer loop
      vertex -6.9448 -0.877332 3
      vertex -1.48817 -0.188 3
      vertex -1.5 0 3
    endloop
  endfacet
  facet normal 0 0 1
    outer loop
      vertex -1.21352 0.881678 3
      vertex -5.66312 4.1145 3
      vertex -1.31446 0.722631 3
    endloop
  endfacet
  facet normal 0 0 1
    outer loop
      vertex -0.463525 -1.42658 3
      vertex -2.16312 -6.6574 3
      vertex -1.31167 -6.87601 3
    endloop
  endfacet
  facet normal -0 0 1
    outer loop
      vertex -6.13415 3.37228 3
      vertex -1.31446 0.722631 3
      vertex -5.66312 4.1145 3
    endloop
  endfacet
  facet normal 0 0 1
    outer loop
      vertex -0.638668 -1.35724 3
      vertex -2.98045 -6.33379 3
      vertex -2.16312 -6.6574 3
    endloop
  endfacet
  facet normal 0 0 1
    outer loop
      vertex -1.31446 0.722631 3
      vertex -6.13415 3.37228 3
      vertex -1.39466 0.552186 3
    endloop
  endfacet
  facet normal 0 0 1
    outer loop
      vertex -0.80374 -1.26649 3
      vertex -3.75079 -5.91029 3
      vertex -2.98045 -6.33379 3
    endloop
  endfacet
  facet normal -0 0 1
    outer loop
      vertex -6.50844 2.57687 3
      vertex -1.39466 0.552186 3
      vertex -6.13415 3.37228 3
    endloop
  endfacet
  facet normal 0 0 1
    outer loop
      vertex -0.956136 -1.15577 3
      vertex -4.46197 -5.39359 3
      vertex -3.75079 -5.91029 3
    endloop
  endfacet
  facet normal 0 0 1
    outer loop
      vertex -1.39466 0.552186 3
      vertex -6.50844 2.57687 3
      vertex -1.45287 0.373034 3
    endloop
  endfacet
  facet normal 0 0 1
    outer loop
      vertex -1.09345 -1.02682 3
      vertex -5.10278 -4.79183 3
      vertex -4.46197 -5.39359 3
    endloop
  endfacet
  facet normal -0 0 1
    outer loop
      vertex -6.78008 1.74083 3
      vertex -1.45287 0.373034 3
      vertex -6.50844 2.57687 3
    endloop
  endfacet
  facet normal 0 0 1
    outer loop
      vertex -1.21352 -0.881678 3
      vertex -5.66312 -4.1145 3
      vertex -5.10278 -4.79183 3
    endloop
  endfacet
  facet normal 0 0 1
    outer loop
      vertex -1.45287 0.373034 3
      vertex -6.78008 1.74083 3
      vertex -1.48817 0.188 3
    endloop
  endfacet
  facet normal 0 0 1
    outer loop
      vertex -1.31446 -0.722631 3
      vertex -6.13415 -3.37228 3
      vertex -5.66312 -4.1145 3
    endloop
  endfacet
  facet normal -0 0 1
    outer loop
      vertex -6.9448 0.877332 3
      vertex -1.48817 0.188 3
      vertex -6.78008 1.74083 3
    endloop
  endfacet
  facet normal 0 0 1
    outer loop
      vertex -1.39466 -0.552186 3
      vertex -6.50844 -2.57687 3
      vertex -6.13415 -3.37228 3
    endloop
  endfacet
  facet normal 0 0 1
    outer loop
      vertex -1.48817 0.188 3
      vertex -6.9448 0.877332 3
      vertex -1.5 0 3
    endloop
  endfacet
  facet normal 0 0 1
    outer loop
      vertex -1.45287 -0.373034 3
      vertex -6.78008 -1.74083 3
      vertex -6.50844 -2.57687 3
    endloop
  endfacet
  facet normal 0 0 1
    outer loop
      vertex -7 0 3
      vertex -1.5 0 3
      vertex -6.9448 0.877332 3
    endloop
  endfacet
  facet normal 0 0 1
    outer loop
      vertex -1.48817 -0.188 3
      vertex -6.9448 -0.877332 3
      vertex -6.78008 -1.74083 3
    endloop
  endfacet
  facet normal 0 0 1
    outer loop
      vertex -1.5 0 3
      vertex -7 0 3
      vertex -6.9448 -0.877332 3
    endloop
  endfacet
  facet normal -0.844326 0.535829 0
    outer loop
      vertex -6.13415 3.37228 0
      vertex -5.66312 4.1145 3
      vertex -5.66312 4.1145 0
    endloop
  endfacet
  facet normal -0.844326 0.535829 0
    outer loop
      vertex -5.66312 4.1145 3
      vertex -6.13415 3.37228 0
      vertex -6.13415 3.37228 3
    endloop
  endfacet
  facet normal -0.125337 0.992114 0
    outer loop
      vertex -0.439533 6.98619 0
      vertex -1.31167 6.87601 3
      vertex -0.439533 6.98619 3
    endloop
  endfacet
  facet normal -0.125337 0.992114 0
    outer loop
      vertex -1.31167 6.87601 3
      vertex -0.439533 6.98619 0
      vertex -1.31167 6.87601 0
    endloop
  endfacet
  facet normal -0.587783 0.809018 0
    outer loop
      vertex -3.75079 5.91029 0
      vertex -4.46197 5.39359 3
      vertex -3.75079 5.91029 3
    endloop
  endfacet
  facet normal -0.587783 0.809018 0
    outer loop
      vertex -4.46197 5.39359 3
      vertex -3.75079 5.91029 0
      vertex -4.46197 5.39359 0
    endloop
  endfacet
  facet normal -0.481755 0.876306 0
    outer loop
      vertex -2.98045 6.33379 0
      vertex -3.75079 5.91029 3
      vertex -2.98045 6.33379 3
    endloop
  endfacet
  facet normal -0.481755 0.876306 0
    outer loop
      vertex -3.75079 5.91029 3
      vertex -2.98045 6.33379 0
      vertex -3.75079 5.91029 0
    endloop
  endfacet
  facet normal 0.998027 0.0627939 0
    outer loop
      vertex 7 0 3
      vertex 6.9448 0.877332 0
      vertex 6.9448 0.877332 3
    endloop
  endfacet
  facet normal 0.998027 0.0627939 0
    outer loop
      vertex 6.9448 0.877332 0
      vertex 7 0 3
      vertex 7 0 0
    endloop
  endfacet
  facet normal 0.770511 -0.637427 0
    outer loop
      vertex 5.10278 -4.79183 3
      vertex 5.66312 -4.1145 0
      vertex 5.66312 -4.1145 3
    endloop
  endfacet
  facet normal 0.770511 -0.637427 0
    outer loop
      vertex 5.66312 -4.1145 0
      vertex 5.10278 -4.79183 3
      vertex 5.10278 -4.79183 0
    endloop
  endfacet
  facet normal 0 -1 0
    outer loop
      vertex -0.439533 -6.98619 0
      vertex 0.439533 -6.98619 3
      vertex -0.439533 -6.98619 3
    endloop
  endfacet
  facet normal 0 -1 -0
    outer loop
      vertex 0.439533 -6.98619 3
      vertex -0.439533 -6.98619 0
      vertex 0.439533 -6.98619 0
    endloop
  endfacet
  facet normal -0.951058 -0.309011 0
    outer loop
      vertex -6.50844 -2.57687 0
      vertex -6.78008 -1.74083 3
      vertex -6.78008 -1.74083 0
    endloop
  endfacet
  facet normal -0.951058 -0.309011 0
    outer loop
      vertex -6.78008 -1.74083 3
      vertex -6.50844 -2.57687 0
      vertex -6.50844 -2.57687 3
    endloop
  endfacet
  facet normal -0.844326 -0.535829 0
    outer loop
      vertex -5.66312 -4.1145 0
      vertex -6.13415 -3.37228 3
      vertex -6.13415 -3.37228 0
    endloop
  endfacet
  facet normal -0.844326 -0.535829 0
    outer loop
      vertex -6.13415 -3.37228 3
      vertex -5.66312 -4.1145 0
      vertex -5.66312 -4.1145 3
    endloop
  endfacet
  facet normal 0.125337 -0.992114 0
    outer loop
      vertex 0.439533 -6.98619 0
      vertex 1.31167 -6.87601 3
      vertex 0.439533 -6.98619 3
    endloop
  endfacet
  facet normal 0.125337 -0.992114 0
    outer loop
      vertex 1.31167 -6.87601 3
      vertex 0.439533 -6.98619 0
      vertex 1.31167 -6.87601 0
    endloop
  endfacet
  facet normal 0.904828 0.425778 0
    outer loop
      vertex 6.50844 2.57687 3
      vertex 6.13415 3.37228 0
      vertex 6.13415 3.37228 3
    endloop
  endfacet
  facet normal 0.904828 0.425778 0
    outer loop
      vertex 6.13415 3.37228 0
      vertex 6.50844 2.57687 3
      vertex 6.50844 2.57687 0
    endloop
  endfacet
  facet normal 0.951058 0.309011 0
    outer loop
      vertex 6.78008 1.74083 3
      vertex 6.50844 2.57687 0
      vertex 6.50844 2.57687 3
    endloop
  endfacet
  facet normal 0.951058 0.309011 0
    outer loop
      vertex 6.50844 2.57687 0
      vertex 6.78008 1.74083 3
      vertex 6.78008 1.74083 0
    endloop
  endfacet
  facet normal 0.982287 -0.18738 0
    outer loop
      vertex 6.78008 -1.74083 3
      vertex 6.9448 -0.877332 0
      vertex 6.9448 -0.877332 3
    endloop
  endfacet
  facet normal 0.982287 -0.18738 0
    outer loop
      vertex 6.9448 -0.877332 0
      vertex 6.78008 -1.74083 3
      vertex 6.78008 -1.74083 0
    endloop
  endfacet
  facet normal -0.248684 -0.968585 0
    outer loop
      vertex -2.16312 -6.6574 0
      vertex -1.31167 -6.87601 3
      vertex -2.16312 -6.6574 3
    endloop
  endfacet
  facet normal -0.248684 -0.968585 -0
    outer loop
      vertex -1.31167 -6.87601 3
      vertex -2.16312 -6.6574 0
      vertex -1.31167 -6.87601 0
    endloop
  endfacet
  facet normal 0 0 -1
    outer loop
      vertex 1.5 0 0
      vertex 7 0 0
      vertex 6.9448 -0.877332 0
    endloop
  endfacet
  facet normal 0 0 -1
    outer loop
      vertex 1.48817 -0.188 0
      vertex 6.9448 -0.877332 0
      vertex 6.78008 -1.74083 0
    endloop
  endfacet
  facet normal 0 0 -1
    outer loop
      vertex 7 0 0
      vertex 1.5 0 0
      vertex 6.9448 0.877332 0
    endloop
  endfacet
  facet normal 0 0 -1
    outer loop
      vertex 1.45287 -0.373034 0
      vertex 6.78008 -1.74083 0
      vertex 6.50844 -2.57687 0
    endloop
  endfacet
  facet normal 0 0 -1
    outer loop
      vertex 1.48817 0.188 0
      vertex 6.9448 0.877332 0
      vertex 1.5 0 0
    endloop
  endfacet
  facet normal 0 0 -1
    outer loop
      vertex 1.39466 -0.552186 0
      vertex 6.50844 -2.57687 0
      vertex 6.13415 -3.37228 0
    endloop
  endfacet
  facet normal -0 0 -1
    outer loop
      vertex 6.9448 0.877332 0
      vertex 1.48817 0.188 0
      vertex 6.78008 1.74083 0
    endloop
  endfacet
  facet normal 0 0 -1
    outer loop
      vertex 1.31446 -0.722631 0
      vertex 6.13415 -3.37228 0
      vertex 5.66312 -4.1145 0
    endloop
  endfacet
  facet normal 0 0 -1
    outer loop
      vertex 1.45287 0.373034 0
      vertex 6.78008 1.74083 0
      vertex 1.48817 0.188 0
    endloop
  endfacet
  facet normal 0 0 -1
    outer loop
      vertex 1.21352 -0.881678 0
      vertex 5.66312 -4.1145 0
      vertex 5.10278 -4.79183 0
    endloop
  endfacet
  facet normal -0 0 -1
    outer loop
      vertex 6.78008 1.74083 0
      vertex 1.45287 0.373034 0
      vertex 6.50844 2.57687 0
    endloop
  endfacet
  facet normal 0 0 -1
    outer loop
      vertex 1.09345 -1.02682 0
      vertex 5.10278 -4.79183 0
      vertex 4.46197 -5.39359 0
    endloop
  endfacet
  facet normal 0 0 -1
    outer loop
      vertex 1.39466 0.552186 0
      vertex 6.50844 2.57687 0
      vertex 1.45287 0.373034 0
    endloop
  endfacet
  facet normal 0 0 -1
    outer loop
      vertex 0.956136 -1.15577 0
      vertex 4.46197 -5.39359 0
      vertex 3.75079 -5.91029 0
    endloop
  endfacet
  facet normal -0 0 -1
    outer loop
      vertex 6.50844 2.57687 0
      vertex 1.39466 0.552186 0
      vertex 6.13415 3.37228 0
    endloop
  endfacet
  facet normal 0 0 -1
    outer loop
      vertex 0.80374 -1.26649 0
      vertex 3.75079 -5.91029 0
      vertex 2.98045 -6.33379 0
    endloop
  endfacet
  facet normal 0 0 -1
    outer loop
      vertex 1.31446 0.722631 0
      vertex 6.13415 3.37228 0
      vertex 1.39466 0.552186 0
    endloop
  endfacet
  facet normal 0 0 -1
    outer loop
      vertex 0.638668 -1.35724 0
      vertex 2.98045 -6.33379 0
      vertex 2.16312 -6.6574 0
    endloop
  endfacet
  facet normal -0 0 -1
    outer loop
      vertex 6.13415 3.37228 0
      vertex 1.31446 0.722631 0
      vertex 5.66312 4.1145 0
    endloop
  endfacet
  facet normal 0 0 -1
    outer loop
      vertex 1.21352 0.881678 0
      vertex 5.66312 4.1145 0
      vertex 1.31446 0.722631 0
    endloop
  endfacet
  facet normal 0 0 -1
    outer loop
      vertex 6.9448 -0.877332 0
      vertex 1.48817 -0.188 0
      vertex 1.5 0 0
    endloop
  endfacet
  facet normal 0 0 -1
    outer loop
      vertex 6.78008 -1.74083 0
      vertex 1.45287 -0.373034 0
      vertex 1.48817 -0.188 0
    endloop
  endfacet
  facet normal 0 0 -1
    outer loop
      vertex 6.50844 -2.57687 0
      vertex 1.39466 -0.552186 0
      vertex 1.45287 -0.373034 0
    endloop
  endfacet
  facet normal 0 0 -1
    outer loop
      vertex 6.13415 -3.37228 0
      vertex 1.31446 -0.722631 0
      vertex 1.39466 -0.552186 0
    endloop
  endfacet
  facet normal 0 0 -1
    outer loop
      vertex 0.463525 -1.42658 0
      vertex 2.16312 -6.6574 0
      vertex 1.31167 -6.87601 0
    endloop
  endfacet
  facet normal 0 0 -1
    outer loop
      vertex 5.66312 -4.1145 0
      vertex 1.21352 -0.881678 0
      vertex 1.31446 -0.722631 0
    endloop
  endfacet
  facet normal 0 0 -1
    outer loop
      vertex 5.10278 -4.79183 0
      vertex 1.09345 -1.02682 0
      vertex 1.21352 -0.881678 0
    endloop
  endfacet
  facet normal 0 0 -1
    outer loop
      vertex 4.46197 -5.39359 0
      vertex 0.956136 -1.15577 0
      vertex 1.09345 -1.02682 0
    endloop
  endfacet
  facet normal 0 0 -1
    outer loop
      vertex 3.75079 -5.91029 0
      vertex 0.80374 -1.26649 0
      vertex 0.956136 -1.15577 0
    endloop
  endfacet
  facet normal 0 0 -1
    outer loop
      vertex 2.98045 -6.33379 0
      vertex 0.638668 -1.35724 0
      vertex 0.80374 -1.26649 0
    endloop
  endfacet
  facet normal 0 0 -1
    outer loop
      vertex 2.16312 -6.6574 0
      vertex 0.463525 -1.42658 0
      vertex 0.638668 -1.35724 0
    endloop
  endfacet
  facet normal 0 0 -1
    outer loop
      vertex 0.281072 -1.47343 0
      vertex 1.31167 -6.87601 0
      vertex 0.439533 -6.98619 0
    endloop
  endfacet
  facet normal 0 0 -1
    outer loop
      vertex 1.31167 -6.87601 0
      vertex 0.281072 -1.47343 0
      vertex 0.463525 -1.42658 0
    endloop
  endfacet
  facet normal 0 0 -1
    outer loop
      vertex 0.439533 -6.98619 0
      vertex 0.0941849 -1.49704 0
      vertex 0.281072 -1.47343 0
    endloop
  endfacet
  facet normal 0 0 -1
    outer loop
      vertex 0.439533 -6.98619 0
      vertex -0.0941849 -1.49704 0
      vertex 0.0941849 -1.49704 0
    endloop
  endfacet
  facet normal 0 0 -1
    outer loop
      vertex -0.439533 -6.98619 0
      vertex -0.0941849 -1.49704 0
      vertex 0.439533 -6.98619 0
    endloop
  endfacet
  facet normal -0 0 -1
    outer loop
      vertex -0.0941849 -1.49704 0
      vertex -0.439533 -6.98619 0
      vertex -0.281072 -1.47343 0
    endloop
  endfacet
  facet normal 0 0 -1
    outer loop
      vertex -1.31167 -6.87601 0
      vertex -0.281072 -1.47343 0
      vertex -0.439533 -6.98619 0
    endloop
  endfacet
  facet normal -0 0 -1
    outer loop
      vertex -0.281072 -1.47343 0
      vertex -1.31167 -6.87601 0
      vertex -0.463525 -1.42658 0
    endloop
  endfacet
  facet normal 0 0 -1
    outer loop
      vertex -2.16312 -6.6574 0
      vertex -0.463525 -1.42658 0
      vertex -1.31167 -6.87601 0
    endloop
  endfacet
  facet normal -0 0 -1
    outer loop
      vertex -0.463525 -1.42658 0
      vertex -2.16312 -6.6574 0
      vertex -0.638668 -1.35724 0
    endloop
  endfacet
  facet normal 0 0 -1
    outer loop
      vertex -2.98045 -6.33379 0
      vertex -0.638668 -1.35724 0
      vertex -2.16312 -6.6574 0
    endloop
  endfacet
  facet normal -0 0 -1
    outer loop
      vertex -0.638668 -1.35724 0
      vertex -2.98045 -6.33379 0
      vertex -0.80374 -1.26649 0
    endloop
  endfacet
  facet normal 0 0 -1
    outer loop
      vertex -3.75079 -5.91029 0
      vertex -0.80374 -1.26649 0
      vertex -2.98045 -6.33379 0
    endloop
  endfacet
  facet normal -0 0 -1
    outer loop
      vertex -0.80374 -1.26649 0
      vertex -3.75079 -5.91029 0
      vertex -0.956136 -1.15577 0
    endloop
  endfacet
  facet normal 0 0 -1
    outer loop
      vertex -4.46197 -5.39359 0
      vertex -0.956136 -1.15577 0
      vertex -3.75079 -5.91029 0
    endloop
  endfacet
  facet normal -0 0 -1
    outer loop
      vertex -0.956136 -1.15577 0
      vertex -4.46197 -5.39359 0
      vertex -1.09345 -1.02682 0
    endloop
  endfacet
  facet normal 0 0 -1
    outer loop
      vertex -5.10278 -4.79183 0
      vertex -1.09345 -1.02682 0
      vertex -4.46197 -5.39359 0
    endloop
  endfacet
  facet normal -0 0 -1
    outer loop
      vertex -1.09345 -1.02682 0
      vertex -5.10278 -4.79183 0
      vertex -1.21352 -0.881678 0
    endloop
  endfacet
  facet normal 0 0 -1
    outer loop
      vertex -5.66312 -4.1145 0
      vertex -1.21352 -0.881678 0
      vertex -5.10278 -4.79183 0
    endloop
  endfacet
  facet normal -0 0 -1
    outer loop
      vertex 5.66312 4.1145 0
      vertex 1.21352 0.881678 0
      vertex 5.10278 4.79183 0
    endloop
  endfacet
  facet normal 0 0 -1
    outer loop
      vertex 1.09345 1.02682 0
      vertex 5.10278 4.79183 0
      vertex 1.21352 0.881678 0
    endloop
  endfacet
  facet normal -0 0 -1
    outer loop
      vertex 5.10278 4.79183 0
      vertex 1.09345 1.02682 0
      vertex 4.46197 5.39359 0
    endloop
  endfacet
  facet normal 0 0 -1
    outer loop
      vertex 0.956136 1.15577 0
      vertex 4.46197 5.39359 0
      vertex 1.09345 1.02682 0
    endloop
  endfacet
  facet normal -0 0 -1
    outer loop
      vertex 4.46197 5.39359 0
      vertex 0.956136 1.15577 0
      vertex 3.75079 5.91029 0
    endloop
  endfacet
  facet normal 0 0 -1
    outer loop
      vertex 0.80374 1.26649 0
      vertex 3.75079 5.91029 0
      vertex 0.956136 1.15577 0
    endloop
  endfacet
  facet normal -0 0 -1
    outer loop
      vertex 3.75079 5.91029 0
      vertex 0.80374 1.26649 0
      vertex 2.98045 6.33379 0
    endloop
  endfacet
  facet normal 0 0 -1
    outer loop
      vertex 0.638668 1.35724 0
      vertex 2.98045 6.33379 0
      vertex 0.80374 1.26649 0
    endloop
  endfacet
  facet normal -0 0 -1
    outer loop
      vertex 2.98045 6.33379 0
      vertex 0.638668 1.35724 0
      vertex 2.16312 6.6574 0
    endloop
  endfacet
  facet normal 0 0 -1
    outer loop
      vertex 0.463525 1.42658 0
      vertex 2.16312 6.6574 0
      vertex 0.638668 1.35724 0
    endloop
  endfacet
  facet normal -0 0 -1
    outer loop
      vertex 2.16312 6.6574 0
      vertex 0.463525 1.42658 0
      vertex 1.31167 6.87601 0
    endloop
  endfacet
  facet normal 0 0 -1
    outer loop
      vertex 0.281072 1.47343 0
      vertex 1.31167 6.87601 0
      vertex 0.463525 1.42658 0
    endloop
  endfacet
  facet normal -0 0 -1
    outer loop
      vertex 1.31167 6.87601 0
      vertex 0.281072 1.47343 0
      vertex 0.439533 6.98619 0
    endloop
  endfacet
  facet normal 0 0 -1
    outer loop
      vertex 0.0941849 1.49704 0
      vertex 0.439533 6.98619 0
      vertex 0.281072 1.47343 0
    endloop
  endfacet
  facet normal 0 0 -1
    outer loop
      vertex -0.0941849 1.49704 0
      vertex 0.439533 6.98619 0
      vertex 0.0941849 1.49704 0
    endloop
  endfacet
  facet normal 0 0 -1
    outer loop
      vertex -0.439533 6.98619 0
      vertex -0.0941849 1.49704 0
      vertex -0.281072 1.47343 0
    endloop
  endfacet
  facet normal 0 0 -1
    outer loop
      vertex -0.0941849 1.49704 0
      vertex -0.439533 6.98619 0
      vertex 0.439533 6.98619 0
    endloop
  endfacet
  facet normal 0 0 -1
    outer loop
      vertex -1.31167 6.87601 0
      vertex -0.281072 1.47343 0
      vertex -0.463525 1.42658 0
    endloop
  endfacet
  facet normal 0 0 -1
    outer loop
      vertex -2.16312 6.6574 0
      vertex -0.463525 1.42658 0
      vertex -0.638668 1.35724 0
    endloop
  endfacet
  facet normal 0 0 -1
    outer loop
      vertex -2.98045 6.33379 0
      vertex -0.638668 1.35724 0
      vertex -0.80374 1.26649 0
    endloop
  endfacet
  facet normal 0 0 -1
    outer loop
      vertex -3.75079 5.91029 0
      vertex -0.80374 1.26649 0
      vertex -0.956136 1.15577 0
    endloop
  endfacet
  facet normal 0 0 -1
    outer loop
      vertex -4.46197 5.39359 0
      vertex -0.956136 1.15577 0
      vertex -1.09345 1.02682 0
    endloop
  endfacet
  facet normal 0 0 -1
    outer loop
      vertex -5.10278 4.79183 0
      vertex -1.09345 1.02682 0
      vertex -1.21352 0.881678 0
    endloop
  endfacet
  facet normal 0 0 -1
    outer loop
      vertex -0.281072 1.47343 0
      vertex -1.31167 6.87601 0
      vertex -0.439533 6.98619 0
    endloop
  endfacet
  facet normal 0 0 -1
    outer loop
      vertex -5.66312 4.1145 0
      vertex -1.21352 0.881678 0
      vertex -1.31446 0.722631 0
    endloop
  endfacet
  facet normal 0 0 -1
    outer loop
      vertex -6.13415 3.37228 0
      vertex -1.31446 0.722631 0
      vertex -1.39466 0.552186 0
    endloop
  endfacet
  facet normal 0 0 -1
    outer loop
      vertex -6.50844 2.57687 0
      vertex -1.39466 0.552186 0
      vertex -1.45287 0.373034 0
    endloop
  endfacet
  facet normal 0 0 -1
    outer loop
      vertex -6.78008 1.74083 0
      vertex -1.45287 0.373034 0
      vertex -1.48817 0.188 0
    endloop
  endfacet
  facet normal 0 0 -1
    outer loop
      vertex -6.9448 0.877332 0
      vertex -1.48817 0.188 0
      vertex -1.5 0 0
    endloop
  endfacet
  facet normal -0 0 -1
    outer loop
      vertex -1.21352 -0.881678 0
      vertex -5.66312 -4.1145 0
      vertex -1.31446 -0.722631 0
    endloop
  endfacet
  facet normal 0 0 -1
    outer loop
      vertex -0.463525 1.42658 0
      vertex -2.16312 6.6574 0
      vertex -1.31167 6.87601 0
    endloop
  endfacet
  facet normal 0 0 -1
    outer loop
      vertex -6.13415 -3.37228 0
      vertex -1.31446 -0.722631 0
      vertex -5.66312 -4.1145 0
    endloop
  endfacet
  facet normal 0 0 -1
    outer loop
      vertex -0.638668 1.35724 0
      vertex -2.98045 6.33379 0
      vertex -2.16312 6.6574 0
    endloop
  endfacet
  facet normal -0 0 -1
    outer loop
      vertex -1.31446 -0.722631 0
      vertex -6.13415 -3.37228 0
      vertex -1.39466 -0.552186 0
    endloop
  endfacet
  facet normal 0 0 -1
    outer loop
      vertex -0.80374 1.26649 0
      vertex -3.75079 5.91029 0
      vertex -2.98045 6.33379 0
    endloop
  endfacet
  facet normal 0 0 -1
    outer loop
      vertex -6.50844 -2.57687 0
      vertex -1.39466 -0.552186 0
      vertex -6.13415 -3.37228 0
    endloop
  endfacet
  facet normal 0 0 -1
    outer loop
      vertex -0.956136 1.15577 0
      vertex -4.46197 5.39359 0
      vertex -3.75079 5.91029 0
    endloop
  endfacet
  facet normal -0 0 -1
    outer loop
      vertex -1.39466 -0.552186 0
      vertex -6.50844 -2.57687 0
      vertex -1.45287 -0.373034 0
    endloop
  endfacet
  facet normal 0 0 -1
    outer loop
      vertex -1.09345 1.02682 0
      vertex -5.10278 4.79183 0
      vertex -4.46197 5.39359 0
    endloop
  endfacet
  facet normal 0 0 -1
    outer loop
      vertex -6.78008 -1.74083 0
      vertex -1.45287 -0.373034 0
      vertex -6.50844 -2.57687 0
    endloop
  endfacet
  facet normal 0 0 -1
    outer loop
      vertex -1.21352 0.881678 0
      vertex -5.66312 4.1145 0
      vertex -5.10278 4.79183 0
    endloop
  endfacet
  facet normal -0 0 -1
    outer loop
      vertex -1.45287 -0.373034 0
      vertex -6.78008 -1.74083 0
      vertex -1.48817 -0.188 0
    endloop
  endfacet
  facet normal 0 0 -1
    outer loop
      vertex -1.31446 0.722631 0
      vertex -6.13415 3.37228 0
      vertex -5.66312 4.1145 0
    endloop
  endfacet
  facet normal 0 0 -1
    outer loop
      vertex -6.9448 -0.877332 0
      vertex -1.48817 -0.188 0
      vertex -6.78008 -1.74083 0
    endloop
  endfacet
  facet normal 0 0 -1
    outer loop
      vertex -1.39466 0.552186 0
      vertex -6.50844 2.57687 0
      vertex -6.13415 3.37228 0
    endloop
  endfacet
  facet normal -0 0 -1
    outer loop
      vertex -1.48817 -0.188 0
      vertex -6.9448 -0.877332 0
      vertex -1.5 0 0
    endloop
  endfacet
  facet normal 0 0 -1
    outer loop
      vertex -1.45287 0.373034 0
      vertex -6.78008 1.74083 0
      vertex -6.50844 2.57687 0
    endloop
  endfacet
  facet normal 0 0 -1
    outer loop
      vertex -7 0 0
      vertex -1.5 0 0
      vertex -6.9448 -0.877332 0
    endloop
  endfacet
  facet normal 0 0 -1
    outer loop
      vertex -1.48817 0.188 0
      vertex -6.9448 0.877332 0
      vertex -6.78008 1.74083 0
    endloop
  endfacet
  facet normal 0 0 -1
    outer loop
      vertex -1.5 0 0
      vertex -7 0 0
      vertex -6.9448 0.877332 0
    endloop
  endfacet
  facet normal -0.770511 -0.637427 0
    outer loop
      vertex -5.10278 -4.79183 0
      vertex -5.66312 -4.1145 3
      vertex -5.66312 -4.1145 0
    endloop
  endfacet
  facet normal -0.770511 -0.637427 0
    outer loop
      vertex -5.66312 -4.1145 3
      vertex -5.10278 -4.79183 0
      vertex -5.10278 -4.79183 3
    endloop
  endfacet
  facet normal 0.368131 -0.929774 0
    outer loop
      vertex 2.16312 -6.6574 0
      vertex 2.98045 -6.33379 3
      vertex 2.16312 -6.6574 3
    endloop
  endfacet
  facet normal 0.368131 -0.929774 0
    outer loop
      vertex 2.98045 -6.33379 3
      vertex 2.16312 -6.6574 0
      vertex 2.98045 -6.33379 0
    endloop
  endfacet
  facet normal 0.248684 -0.968585 0
    outer loop
      vertex 1.31167 -6.87601 0
      vertex 2.16312 -6.6574 3
      vertex 1.31167 -6.87601 3
    endloop
  endfacet
  facet normal 0.248684 -0.968585 0
    outer loop
      vertex 2.16312 -6.6574 3
      vertex 1.31167 -6.87601 0
      vertex 2.16312 -6.6574 0
    endloop
  endfacet
  facet normal 0.684547 -0.728969 0
    outer loop
      vertex 4.46197 -5.39359 0
      vertex 5.10278 -4.79183 3
      vertex 4.46197 -5.39359 3
    endloop
  endfacet
  facet normal 0.684547 -0.728969 0
    outer loop
      vertex 5.10278 -4.79183 3
      vertex 4.46197 -5.39359 0
      vertex 5.10278 -4.79183 0
    endloop
  endfacet
  facet normal 0.951058 -0.309011 0
    outer loop
      vertex 6.50844 -2.57687 3
      vertex 6.78008 -1.74083 0
      vertex 6.78008 -1.74083 3
    endloop
  endfacet
  facet normal 0.951058 -0.309011 0
    outer loop
      vertex 6.78008 -1.74083 0
      vertex 6.50844 -2.57687 3
      vertex 6.50844 -2.57687 0
    endloop
  endfacet
  facet normal 0.844326 -0.535829 0
    outer loop
      vertex 5.66312 -4.1145 3
      vertex 6.13415 -3.37228 0
      vertex 6.13415 -3.37228 3
    endloop
  endfacet
  facet normal 0.844326 -0.535829 0
    outer loop
      vertex 6.13415 -3.37228 0
      vertex 5.66312 -4.1145 3
      vertex 5.66312 -4.1145 0
    endloop
  endfacet
  facet normal -0.125337 -0.992114 0
    outer loop
      vertex -1.31167 -6.87601 0
      vertex -0.439533 -6.98619 3
      vertex -1.31167 -6.87601 3
    endloop
  endfacet
  facet normal -0.125337 -0.992114 -0
    outer loop
      vertex -0.439533 -6.98619 3
      vertex -1.31167 -6.87601 0
      vertex -0.439533 -6.98619 0
    endloop
  endfacet
  facet normal -0.481755 -0.876306 0
    outer loop
      vertex -3.75079 -5.91029 0
      vertex -2.98045 -6.33379 3
      vertex -3.75079 -5.91029 3
    endloop
  endfacet
  facet normal -0.481755 -0.876306 -0
    outer loop
      vertex -2.98045 -6.33379 3
      vertex -3.75079 -5.91029 0
      vertex -2.98045 -6.33379 0
    endloop
  endfacet
  facet normal -0.982287 -0.18738 0
    outer loop
      vertex -6.78008 -1.74083 0
      vertex -6.9448 -0.877332 3
      vertex -6.9448 -0.877332 0
    endloop
  endfacet
  facet normal -0.982287 -0.18738 0
    outer loop
      vertex -6.9448 -0.877332 3
      vertex -6.78008 -1.74083 0
      vertex -6.78008 -1.74083 3
    endloop
  endfacet
  facet normal -0.998027 -0.0627939 0
    outer loop
      vertex -6.9448 -0.877332 0
      vertex -7 0 3
      vertex -7 0 0
    endloop
  endfacet
  facet normal -0.998027 -0.0627939 0
    outer loop
      vertex -7 0 3
      vertex -6.9448 -0.877332 0
      vertex -6.9448 -0.877332 3
    endloop
  endfacet
  facet normal 0.587783 -0.809018 0
    outer loop
      vertex 3.75079 -5.91029 0
      vertex 4.46197 -5.39359 3
      vertex 3.75079 -5.91029 3
    endloop
  endfacet
  facet normal 0.587783 -0.809018 0
    outer loop
      vertex 4.46197 -5.39359 3
      vertex 3.75079 -5.91029 0
      vertex 4.46197 -5.39359 0
    endloop
  endfacet
  facet normal -0.587783 -0.809018 0
    outer loop
      vertex -4.46197 -5.39359 0
      vertex -3.75079 -5.91029 3
      vertex -4.46197 -5.39359 3
    endloop
  endfacet
  facet normal -0.587783 -0.809018 -0
    outer loop
      vertex -3.75079 -5.91029 3
      vertex -4.46197 -5.39359 0
      vertex -3.75079 -5.91029 0
    endloop
  endfacet
  facet normal -0.368131 -0.929774 0
    outer loop
      vertex -2.98045 -6.33379 0
      vertex -2.16312 -6.6574 3
      vertex -2.98045 -6.33379 3
    endloop
  endfacet
  facet normal -0.368131 -0.929774 -0
    outer loop
      vertex -2.16312 -6.6574 3
      vertex -2.98045 -6.33379 0
      vertex -2.16312 -6.6574 0
    endloop
  endfacet
  facet normal 0.951057 -0.309017 0
    outer loop
      vertex -1.45287 0.373034 3
      vertex -1.39466 0.552186 0
      vertex -1.39466 0.552186 3
    endloop
  endfacet
  facet normal 0.951057 -0.309017 0
    outer loop
      vertex -1.39466 0.552186 0
      vertex -1.45287 0.373034 3
      vertex -1.45287 0.373034 0
    endloop
  endfacet
  facet normal -0.844314 -0.535848 0
    outer loop
      vertex 1.31446 0.722631 0
      vertex 1.21352 0.881678 3
      vertex 1.21352 0.881678 0
    endloop
  endfacet
  facet normal -0.844314 -0.535848 0
    outer loop
      vertex 1.21352 0.881678 3
      vertex 1.31446 0.722631 0
      vertex 1.31446 0.722631 3
    endloop
  endfacet
  facet normal -0.24871 -0.968578 0
    outer loop
      vertex 0.281072 1.47343 0
      vertex 0.463525 1.42658 3
      vertex 0.281072 1.47343 3
    endloop
  endfacet
  facet normal -0.24871 -0.968578 -0
    outer loop
      vertex 0.463525 1.42658 3
      vertex 0.281072 1.47343 0
      vertex 0.463525 1.42658 0
    endloop
  endfacet
  facet normal -0.368106 -0.929784 0
    outer loop
      vertex 0.463525 1.42658 0
      vertex 0.638668 1.35724 3
      vertex 0.463525 1.42658 3
    endloop
  endfacet
  facet normal -0.368106 -0.929784 -0
    outer loop
      vertex 0.638668 1.35724 3
      vertex 0.463525 1.42658 0
      vertex 0.638668 1.35724 0
    endloop
  endfacet
  facet normal 0.368106 -0.929784 0
    outer loop
      vertex -0.638668 1.35724 0
      vertex -0.463525 1.42658 3
      vertex -0.638668 1.35724 3
    endloop
  endfacet
  facet normal 0.368106 -0.929784 0
    outer loop
      vertex -0.463525 1.42658 3
      vertex -0.638668 1.35724 0
      vertex -0.463525 1.42658 0
    endloop
  endfacet
  facet normal 0.904838 -0.425756 0
    outer loop
      vertex -1.39466 0.552186 3
      vertex -1.31446 0.722631 0
      vertex -1.31446 0.722631 3
    endloop
  endfacet
  facet normal 0.904838 -0.425756 0
    outer loop
      vertex -1.31446 0.722631 0
      vertex -1.39466 0.552186 3
      vertex -1.39466 0.552186 0
    endloop
  endfacet
  facet normal -0.982284 0.187396 0
    outer loop
      vertex 1.45287 -0.373034 0
      vertex 1.48817 -0.188 3
      vertex 1.48817 -0.188 0
    endloop
  endfacet
  facet normal -0.982284 0.187396 0
    outer loop
      vertex 1.48817 -0.188 3
      vertex 1.45287 -0.373034 0
      vertex 1.45287 -0.373034 3
    endloop
  endfacet
  facet normal -0.982284 -0.187396 0
    outer loop
      vertex 1.48817 0.188 0
      vertex 1.45287 0.373034 3
      vertex 1.45287 0.373034 0
    endloop
  endfacet
  facet normal -0.982284 -0.187396 0
    outer loop
      vertex 1.45287 0.373034 3
      vertex 1.48817 0.188 0
      vertex 1.48817 0.188 3
    endloop
  endfacet
  facet normal -0.684557 -0.728959 0
    outer loop
      vertex 0.956136 1.15577 0
      vertex 1.09345 1.02682 3
      vertex 0.956136 1.15577 3
    endloop
  endfacet
  facet normal -0.684557 -0.728959 -0
    outer loop
      vertex 1.09345 1.02682 3
      vertex 0.956136 1.15577 0
      vertex 1.09345 1.02682 0
    endloop
  endfacet
  facet normal -0.481757 -0.876305 0
    outer loop
      vertex 0.638668 1.35724 0
      vertex 0.80374 1.26649 3
      vertex 0.638668 1.35724 3
    endloop
  endfacet
  facet normal -0.481757 -0.876305 -0
    outer loop
      vertex 0.80374 1.26649 3
      vertex 0.638668 1.35724 0
      vertex 0.80374 1.26649 0
    endloop
  endfacet
  facet normal 0.770518 -0.637418 0
    outer loop
      vertex -1.21352 0.881678 3
      vertex -1.09345 1.02682 0
      vertex -1.09345 1.02682 3
    endloop
  endfacet
  facet normal 0.770518 -0.637418 0
    outer loop
      vertex -1.09345 1.02682 0
      vertex -1.21352 0.881678 3
      vertex -1.21352 0.881678 0
    endloop
  endfacet
  facet normal 0.125337 -0.992114 0
    outer loop
      vertex -0.281072 1.47343 0
      vertex -0.0941849 1.49704 3
      vertex -0.281072 1.47343 3
    endloop
  endfacet
  facet normal 0.125337 -0.992114 0
    outer loop
      vertex -0.0941849 1.49704 3
      vertex -0.281072 1.47343 0
      vertex -0.0941849 1.49704 0
    endloop
  endfacet
  facet normal 0.684557 -0.728959 0
    outer loop
      vertex -1.09345 1.02682 0
      vertex -0.956136 1.15577 3
      vertex -1.09345 1.02682 3
    endloop
  endfacet
  facet normal 0.684557 -0.728959 0
    outer loop
      vertex -0.956136 1.15577 3
      vertex -1.09345 1.02682 0
      vertex -0.956136 1.15577 0
    endloop
  endfacet
  facet normal -0.998026 -0.0628013 0
    outer loop
      vertex 1.5 0 0
      vertex 1.48817 0.188 3
      vertex 1.48817 0.188 0
    endloop
  endfacet
  facet normal -0.998026 -0.0628013 0
    outer loop
      vertex 1.48817 0.188 3
      vertex 1.5 0 0
      vertex 1.5 0 3
    endloop
  endfacet
  facet normal -0.770518 -0.637418 0
    outer loop
      vertex 1.21352 0.881678 0
      vertex 1.09345 1.02682 3
      vertex 1.09345 1.02682 0
    endloop
  endfacet
  facet normal -0.770518 -0.637418 0
    outer loop
      vertex 1.09345 1.02682 3
      vertex 1.21352 0.881678 0
      vertex 1.21352 0.881678 3
    endloop
  endfacet
  facet normal 0 -1 0
    outer loop
      vertex -0.0941849 1.49704 0
      vertex 0.0941849 1.49704 3
      vertex -0.0941849 1.49704 3
    endloop
  endfacet
  facet normal 0 -1 -0
    outer loop
      vertex 0.0941849 1.49704 3
      vertex -0.0941849 1.49704 0
      vertex 0.0941849 1.49704 0
    endloop
  endfacet
  facet normal -0.587778 -0.809022 0
    outer loop
      vertex 0.80374 1.26649 0
      vertex 0.956136 1.15577 3
      vertex 0.80374 1.26649 3
    endloop
  endfacet
  facet normal -0.587778 -0.809022 -0
    outer loop
      vertex 0.956136 1.15577 3
      vertex 0.80374 1.26649 0
      vertex 0.956136 1.15577 0
    endloop
  endfacet
  facet normal 0.998026 -0.0628013 0
    outer loop
      vertex -1.5 0 3
      vertex -1.48817 0.188 0
      vertex -1.48817 0.188 3
    endloop
  endfacet
  facet normal 0.998026 -0.0628013 0
    outer loop
      vertex -1.48817 0.188 0
      vertex -1.5 0 3
      vertex -1.5 0 0
    endloop
  endfacet
  facet normal 0.844314 -0.535848 0
    outer loop
      vertex -1.31446 0.722631 3
      vertex -1.21352 0.881678 0
      vertex -1.21352 0.881678 3
    endloop
  endfacet
  facet normal 0.844314 -0.535848 0
    outer loop
      vertex -1.21352 0.881678 0
      vertex -1.31446 0.722631 3
      vertex -1.31446 0.722631 0
    endloop
  endfacet
  facet normal 0.24871 -0.968578 0
    outer loop
      vertex -0.463525 1.42658 0
      vertex -0.281072 1.47343 3
      vertex -0.463525 1.42658 3
    endloop
  endfacet
  facet normal 0.24871 -0.968578 0
    outer loop
      vertex -0.281072 1.47343 3
      vertex -0.463525 1.42658 0
      vertex -0.281072 1.47343 0
    endloop
  endfacet
  facet normal 0.587778 -0.809022 0
    outer loop
      vertex -0.956136 1.15577 0
      vertex -0.80374 1.26649 3
      vertex -0.956136 1.15577 3
    endloop
  endfacet
  facet normal 0.587778 -0.809022 0
    outer loop
      vertex -0.80374 1.26649 3
      vertex -0.956136 1.15577 0
      vertex -0.80374 1.26649 0
    endloop
  endfacet
  facet normal 0.481757 -0.876305 0
    outer loop
      vertex -0.80374 1.26649 0
      vertex -0.638668 1.35724 3
      vertex -0.80374 1.26649 3
    endloop
  endfacet
  facet normal 0.481757 -0.876305 0
    outer loop
      vertex -0.638668 1.35724 3
      vertex -0.80374 1.26649 0
      vertex -0.638668 1.35724 0
    endloop
  endfacet
  facet normal -0.998026 0.0628013 0
    outer loop
      vertex 1.48817 -0.188 0
      vertex 1.5 0 3
      vertex 1.5 0 0
    endloop
  endfacet
  facet normal -0.998026 0.0628013 0
    outer loop
      vertex 1.5 0 3
      vertex 1.48817 -0.188 0
      vertex 1.48817 -0.188 3
    endloop
  endfacet
  facet normal -0.125337 0.992114 0
    outer loop
      vertex 0.281072 -1.47343 0
      vertex 0.0941849 -1.49704 3
      vertex 0.281072 -1.47343 3
    endloop
  endfacet
  facet normal -0.125337 0.992114 0
    outer loop
      vertex 0.0941849 -1.49704 3
      vertex 0.281072 -1.47343 0
      vertex 0.0941849 -1.49704 0
    endloop
  endfacet
  facet normal -0.904838 -0.425756 0
    outer loop
      vertex 1.39466 0.552186 0
      vertex 1.31446 0.722631 3
      vertex 1.31446 0.722631 0
    endloop
  endfacet
  facet normal -0.904838 -0.425756 0
    outer loop
      vertex 1.31446 0.722631 3
      vertex 1.39466 0.552186 0
      vertex 1.39466 0.552186 3
    endloop
  endfacet
  facet normal -0.951057 -0.309017 0
    outer loop
      vertex 1.45287 0.373034 0
      vertex 1.39466 0.552186 3
      vertex 1.39466 0.552186 0
    endloop
  endfacet
  facet normal -0.951057 -0.309017 0
    outer loop
      vertex 1.39466 0.552186 3
      vertex 1.45287 0.373034 0
      vertex 1.45287 0.373034 3
    endloop
  endfacet
  facet normal -0.125337 -0.992114 0
    outer loop
      vertex 0.0941849 1.49704 0
      vertex 0.281072 1.47343 3
      vertex 0.0941849 1.49704 3
    endloop
  endfacet
  facet normal -0.125337 -0.992114 -0
    outer loop
      vertex 0.281072 1.47343 3
      vertex 0.0941849 1.49704 0
      vertex 0.281072 1.47343 0
    endloop
  endfacet
  facet normal 0.982284 -0.187396 0
    outer loop
      vertex -1.48817 0.188 3
      vertex -1.45287 0.373034 0
      vertex -1.45287 0.373034 3
    endloop
  endfacet
  facet normal 0.982284 -0.187396 0
    outer loop
      vertex -1.45287 0.373034 0
      vertex -1.48817 0.188 3
      vertex -1.48817 0.188 0
    endloop
  endfacet
  facet normal -0.904838 0.425756 0
    outer loop
      vertex 1.31446 -0.722631 0
      vertex 1.39466 -0.552186 3
      vertex 1.39466 -0.552186 0
    endloop
  endfacet
  facet normal -0.904838 0.425756 0
    outer loop
      vertex 1.39466 -0.552186 3
      vertex 1.31446 -0.722631 0
      vertex 1.31446 -0.722631 3
    endloop
  endfacet
  facet normal -0.951057 0.309017 0
    outer loop
      vertex 1.39466 -0.552186 0
      vertex 1.45287 -0.373034 3
      vertex 1.45287 -0.373034 0
    endloop
  endfacet
  facet normal -0.951057 0.309017 0
    outer loop
      vertex 1.45287 -0.373034 3
      vertex 1.39466 -0.552186 0
      vertex 1.39466 -0.552186 3
    endloop
  endfacet
  facet normal -0.684557 0.728959 0
    outer loop
      vertex 1.09345 -1.02682 0
      vertex 0.956136 -1.15577 3
      vertex 1.09345 -1.02682 3
    endloop
  endfacet
  facet normal -0.684557 0.728959 0
    outer loop
      vertex 0.956136 -1.15577 3
      vertex 1.09345 -1.02682 0
      vertex 0.956136 -1.15577 0
    endloop
  endfacet
  facet normal -0.770518 0.637418 0
    outer loop
      vertex 1.09345 -1.02682 0
      vertex 1.21352 -0.881678 3
      vertex 1.21352 -0.881678 0
    endloop
  endfacet
  facet normal -0.770518 0.637418 0
    outer loop
      vertex 1.21352 -0.881678 3
      vertex 1.09345 -1.02682 0
      vertex 1.09345 -1.02682 3
    endloop
  endfacet
  facet normal 0.998026 0.0628013 0
    outer loop
      vertex -1.48817 -0.188 3
      vertex -1.5 0 0
      vertex -1.5 0 3
    endloop
  endfacet
  facet normal 0.998026 0.0628013 0
    outer loop
      vertex -1.5 0 0
      vertex -1.48817 -0.188 3
      vertex -1.48817 -0.188 0
    endloop
  endfacet
  facet normal 0.982284 0.187396 0
    outer loop
      vertex -1.45287 -0.373034 3
      vertex -1.48817 -0.188 0
      vertex -1.48817 -0.188 3
    endloop
  endfacet
  facet normal 0.982284 0.187396 0
    outer loop
      vertex -1.48817 -0.188 0
      vertex -1.45287 -0.373034 3
      vertex -1.45287 -0.373034 0
    endloop
  endfacet
  facet normal 0.904838 0.425756 0
    outer loop
      vertex -1.31446 -0.722631 3
      vertex -1.39466 -0.552186 0
      vertex -1.39466 -0.552186 3
    endloop
  endfacet
  facet normal 0.904838 0.425756 0
    outer loop
      vertex -1.39466 -0.552186 0
      vertex -1.31446 -0.722631 3
      vertex -1.31446 -0.722631 0
    endloop
  endfacet
  facet normal 0.684557 0.728959 -0
    outer loop
      vertex -0.956136 -1.15577 0
      vertex -1.09345 -1.02682 3
      vertex -0.956136 -1.15577 3
    endloop
  endfacet
  facet normal 0.684557 0.728959 0
    outer loop
      vertex -1.09345 -1.02682 3
      vertex -0.956136 -1.15577 0
      vertex -1.09345 -1.02682 0
    endloop
  endfacet
  facet normal -0.368106 0.929784 0
    outer loop
      vertex 0.638668 -1.35724 0
      vertex 0.463525 -1.42658 3
      vertex 0.638668 -1.35724 3
    endloop
  endfacet
  facet normal -0.368106 0.929784 0
    outer loop
      vertex 0.463525 -1.42658 3
      vertex 0.638668 -1.35724 0
      vertex 0.463525 -1.42658 0
    endloop
  endfacet
  facet normal -0.24871 0.968578 0
    outer loop
      vertex 0.463525 -1.42658 0
      vertex 0.281072 -1.47343 3
      vertex 0.463525 -1.42658 3
    endloop
  endfacet
  facet normal -0.24871 0.968578 0
    outer loop
      vertex 0.281072 -1.47343 3
      vertex 0.463525 -1.42658 0
      vertex 0.281072 -1.47343 0
    endloop
  endfacet
  facet normal -0.587778 0.809022 0
    outer loop
      vertex 0.956136 -1.15577 0
      vertex 0.80374 -1.26649 3
      vertex 0.956136 -1.15577 3
    endloop
  endfacet
  facet normal -0.587778 0.809022 0
    outer loop
      vertex 0.80374 -1.26649 3
      vertex 0.956136 -1.15577 0
      vertex 0.80374 -1.26649 0
    endloop
  endfacet
  facet normal -0.481757 0.876305 0
    outer loop
      vertex 0.80374 -1.26649 0
      vertex 0.638668 -1.35724 3
      vertex 0.80374 -1.26649 3
    endloop
  endfacet
  facet normal -0.481757 0.876305 0
    outer loop
      vertex 0.638668 -1.35724 3
      vertex 0.80374 -1.26649 0
      vertex 0.638668 -1.35724 0
    endloop
  endfacet
  facet normal -0.844314 0.535848 0
    outer loop
      vertex 1.21352 -0.881678 0
      vertex 1.31446 -0.722631 3
      vertex 1.31446 -0.722631 0
    endloop
  endfacet
  facet normal -0.844314 0.535848 0
    outer loop
      vertex 1.31446 -0.722631 3
      vertex 1.21352 -0.881678 0
      vertex 1.21352 -0.881678 3
    endloop
  endfacet
  facet normal 0.368106 0.929784 -0
    outer loop
      vertex -0.463525 -1.42658 0
      vertex -0.638668 -1.35724 3
      vertex -0.463525 -1.42658 3
    endloop
  endfacet
  facet normal 0.368106 0.929784 0
    outer loop
      vertex -0.638668 -1.35724 3
      vertex -0.463525 -1.42658 0
      vertex -0.638668 -1.35724 0
    endloop
  endfacet
  facet normal 0 1 -0
    outer loop
      vertex 0.0941849 -1.49704 0
      vertex -0.0941849 -1.49704 3
      vertex 0.0941849 -1.49704 3
    endloop
  endfacet
  facet normal 0 1 0
    outer loop
      vertex -0.0941849 -1.49704 3
      vertex 0.0941849 -1.49704 0
      vertex -0.0941849 -1.49704 0
    endloop
  endfacet
  facet normal 0.125337 0.992114 -0
    outer loop
      vertex -0.0941849 -1.49704 0
      vertex -0.281072 -1.47343 3
      vertex -0.0941849 -1.49704 3
    endloop
  endfacet
  facet normal 0.125337 0.992114 0
    outer loop
      vertex -0.281072 -1.47343 3
      vertex -0.0941849 -1.49704 0
      vertex -0.281072 -1.47343 0
    endloop
  endfacet
  facet normal 0.24871 0.968578 -0
    outer loop
      vertex -0.281072 -1.47343 0
      vertex -0.463525 -1.42658 3
      vertex -0.281072 -1.47343 3
    endloop
  endfacet
  facet normal 0.24871 0.968578 0
    outer loop
      vertex -0.463525 -1.42658 3
      vertex -0.281072 -1.47343 0
      vertex -0.463525 -1.42658 0
    endloop
  endfacet
  facet normal 0.587778 0.809022 -0
    outer loop
      vertex -0.80374 -1.26649 0
      vertex -0.956136 -1.15577 3
      vertex -0.80374 -1.26649 3
    endloop
  endfacet
  facet normal 0.587778 0.809022 0
    outer loop
      vertex -0.956136 -1.15577 3
      vertex -0.80374 -1.26649 0
      vertex -0.956136 -1.15577 0
    endloop
  endfacet
  facet normal 0.951057 0.309017 0
    outer loop
      vertex -1.39466 -0.552186 3
      vertex -1.45287 -0.373034 0
      vertex -1.45287 -0.373034 3
    endloop
  endfacet
  facet normal 0.951057 0.309017 0
    outer loop
      vertex -1.45287 -0.373034 0
      vertex -1.39466 -0.552186 3
      vertex -1.39466 -0.552186 0
    endloop
  endfacet
  facet normal 0.770518 0.637418 0
    outer loop
      vertex -1.09345 -1.02682 3
      vertex -1.21352 -0.881678 0
      vertex -1.21352 -0.881678 3
    endloop
  endfacet
  facet normal 0.770518 0.637418 0
    outer loop
      vertex -1.21352 -0.881678 0
      vertex -1.09345 -1.02682 3
      vertex -1.09345 -1.02682 0
    endloop
  endfacet
  facet normal 0.844314 0.535848 0
    outer loop
      vertex -1.21352 -0.881678 3
      vertex -1.31446 -0.722631 0
      vertex -1.31446 -0.722631 3
    endloop
  endfacet
  facet normal 0.844314 0.535848 0
    outer loop
      vertex -1.31446 -0.722631 0
      vertex -1.21352 -0.881678 3
      vertex -1.21352 -0.881678 0
    endloop
  endfacet
  facet normal 0.481757 0.876305 -0
    outer loop
      vertex -0.638668 -1.35724 0
      vertex -0.80374 -1.26649 3
      vertex -0.638668 -1.35724 3
    endloop
  endfacet
  facet normal 0.481757 0.876305 0
    outer loop
      vertex -0.80374 -1.26649 3
      vertex -0.638668 -1.35724 0
      vertex -0.80374 -1.26649 0
    endloop
  endfacet
endsolid OpenSCAD_Model
