<?xml version="1.0" standalone="no"?>
<!DOCTYPE svg PUBLIC "-//W3C//DTD SVG 1.1//EN" "http://www.w3.org/Graphics/SVG/1.1/DTD/svg11.dtd">
<svg width="14mm" height="108mm" viewBox="-7 -171 14 108" xmlns="http://www.w3.org/2000/svg" version="1.1">
<title>OpenSCAD Model</title>
<path d="
M 2.9369,-141.589 L 3.54507,-141.745 L 4.12889,-141.976 L 4.67912,-142.278 L 5.18712,-142.647 L 5.64484,-143.077
 L 6.04507,-143.561 L 6.38153,-144.091 L 6.64888,-144.659 L 6.84291,-145.257 L 6.96057,-145.873 L 7,-146.5
 L 7,-165.5 L 6.96057,-166.127 L 6.84291,-166.743 L 6.64888,-167.341 L 6.38153,-167.909 L 6.04507,-168.439
 L 5.64484,-168.923 L 5.18712,-169.353 L 4.67912,-169.722 L 4.12889,-170.024 L 3.54507,-170.255 L 2.9369,-170.411
 L 2.31395,-170.49 L -2.31395,-170.49 L -2.9369,-170.411 L -3.54507,-170.255 L -4.12889,-170.024 L -4.67912,-169.722
 L -5.18712,-169.353 L -5.64484,-168.923 L -6.04507,-168.439 L -6.38153,-167.909 L -6.64888,-167.341 L -6.84291,-166.743
 L -6.96057,-166.127 L -7,-165.5 L -7,-146.5 L -6.96057,-145.873 L -6.84291,-145.257 L -6.64888,-144.659
 L -6.38153,-144.091 L -6.04507,-143.561 L -5.64484,-143.077 L -5.18712,-142.647 L -4.67912,-142.278 L -4.12889,-141.976
 L -3.54507,-141.745 L -2.9369,-141.589 L -2.31395,-141.51 L 2.31395,-141.51 z
M -2.04825,-142.009 L -2.64006,-142.084 L -3.21782,-142.232 L -3.77245,-142.452 L -4.29517,-142.739 L -4.77776,-143.09
 L -5.2126,-143.498 L -5.59282,-143.958 L -5.91245,-144.462 L -6.16643,-145.001 L -6.35077,-145.569 L -6.46254,-146.155
 L -6.5,-146.75 L -6.5,-165.25 L -6.46254,-165.845 L -6.35077,-166.431 L -6.16643,-166.999 L -5.91245,-167.538
 L -5.59282,-168.042 L -5.2126,-168.502 L -4.77776,-168.91 L -4.29517,-169.261 L -3.77245,-169.548 L -3.21782,-169.768
 L -2.64006,-169.916 L -2.04825,-169.991 L 2.04825,-169.991 L 2.64006,-169.916 L 3.21782,-169.768 L 3.77245,-169.548
 L 4.29517,-169.261 L 4.77776,-168.91 L 5.2126,-168.502 L 5.59282,-168.042 L 5.91245,-167.538 L 6.16643,-166.999
 L 6.35077,-166.431 L 6.46254,-165.845 L 6.5,-165.25 L 6.5,-146.75 L 6.46254,-146.155 L 6.35077,-145.569
 L 6.16643,-145.001 L 5.91245,-144.462 L 5.59282,-143.958 L 5.2126,-143.498 L 4.77776,-143.09 L 4.29517,-142.739
 L 3.77245,-142.452 L 3.21782,-142.232 L 2.64006,-142.084 L 2.04825,-142.009 z
M 2.9369,-102.589 L 3.54507,-102.745 L 4.12889,-102.976 L 4.67912,-103.278 L 5.18712,-103.647 L 5.64484,-104.077
 L 6.04507,-104.561 L 6.38153,-105.091 L 6.64888,-105.659 L 6.84291,-106.257 L 6.96057,-106.873 L 7,-107.5
 L 7,-126.5 L 6.96057,-127.127 L 6.84291,-127.743 L 6.64888,-128.341 L 6.38153,-128.909 L 6.04507,-129.439
 L 5.64484,-129.923 L 5.18712,-130.353 L 4.67912,-130.722 L 4.12889,-131.024 L 3.54507,-131.255 L 2.9369,-131.411
 L 2.31395,-131.49 L -2.31395,-131.49 L -2.9369,-131.411 L -3.54507,-131.255 L -4.12889,-131.024 L -4.67912,-130.722
 L -5.18712,-130.353 L -5.64484,-129.923 L -6.04507,-129.439 L -6.38153,-128.909 L -6.64888,-128.341 L -6.84291,-127.743
 L -6.96057,-127.127 L -7,-126.5 L -7,-107.5 L -6.96057,-106.873 L -6.84291,-106.257 L -6.64888,-105.659
 L -6.38153,-105.091 L -6.04507,-104.561 L -5.64484,-104.077 L -5.18712,-103.647 L -4.67912,-103.278 L -4.12889,-102.976
 L -3.54507,-102.745 L -2.9369,-102.589 L -2.31395,-102.51 L 2.31395,-102.51 z
M -1.99297,-103.888 L -2.47505,-103.949 L -2.94572,-104.07 L -3.39754,-104.249 L -3.82336,-104.483 L -4.21649,-104.769
 L -4.57071,-105.101 L -4.88046,-105.476 L -5.14084,-105.886 L -5.34773,-106.326 L -5.49789,-106.788 L -5.58896,-107.265
 L -5.61946,-107.75 L -5.61946,-126.25 L -5.58896,-126.735 L -5.49789,-127.212 L -5.34773,-127.674 L -5.14084,-128.114
 L -4.88046,-128.524 L -4.57071,-128.899 L -4.21649,-129.231 L -3.82336,-129.517 L -3.39754,-129.751 L -2.94572,-129.93
 L -2.47505,-130.051 L -1.99297,-130.112 L 1.99297,-130.112 L 2.47505,-130.051 L 2.94572,-129.93 L 3.39754,-129.751
 L 3.82336,-129.517 L 4.21649,-129.231 L 4.57071,-128.899 L 4.88046,-128.524 L 5.14084,-128.114 L 5.34773,-127.674
 L 5.49789,-127.212 L 5.58896,-126.735 L 5.61946,-126.25 L 5.61946,-107.75 L 5.58896,-107.265 L 5.49789,-106.788
 L 5.34773,-106.326 L 5.14084,-105.886 L 4.88046,-105.476 L 4.57071,-105.101 L 4.21649,-104.769 L 3.82336,-104.483
 L 3.39754,-104.249 L 2.94572,-104.07 L 2.47505,-103.949 L 1.99297,-103.888 z
M 2.9369,-63.5886 L 3.54507,-63.7447 L 4.12889,-63.9759 L 4.67912,-64.2784 L 5.18712,-64.6474 L 5.64484,-65.0773
 L 6.04507,-65.5611 L 6.38153,-66.0912 L 6.64888,-66.6594 L 6.84291,-67.2566 L 6.96057,-67.8733 L 7,-68.5
 L 7,-87.5 L 6.96057,-88.1267 L 6.84291,-88.7434 L 6.64888,-89.3406 L 6.38153,-89.9088 L 6.04507,-90.4389
 L 5.64484,-90.9227 L 5.18712,-91.3526 L 4.67912,-91.7216 L 4.12889,-92.0241 L 3.54507,-92.2553 L 2.9369,-92.4114
 L 2.31395,-92.4901 L -2.31395,-92.4901 L -2.9369,-92.4114 L -3.54507,-92.2553 L -4.12889,-92.0241 L -4.67912,-91.7216
 L -5.18712,-91.3526 L -5.64484,-90.9227 L -6.04507,-90.4389 L -6.38153,-89.9088 L -6.64888,-89.3406 L -6.84291,-88.7434
 L -6.96057,-88.1267 L -7,-87.5 L -7,-68.5 L -6.96057,-67.8733 L -6.84291,-67.2566 L -6.64888,-66.6594
 L -6.38153,-66.0912 L -6.04507,-65.5611 L -5.64484,-65.0773 L -5.18712,-64.6474 L -4.67912,-64.2784 L -4.12889,-63.9759
 L -3.54507,-63.7447 L -2.9369,-63.5886 L -2.31395,-63.5099 L 2.31395,-63.5099 z
M -0.0941772,-84.0029 L -0.281067,-84.0266 L -0.463516,-84.0734 L -0.638657,-84.1427 L -0.803726,-84.2335 L -0.956131,-84.3442
 L -1.09344,-84.4732 L -1.21352,-84.6183 L -1.31445,-84.7774 L -1.39465,-84.9478 L -1.45287,-85.127 L -1.48816,-85.312
 L -1.5,-85.5 L -1.48816,-85.688 L -1.45287,-85.873 L -1.39465,-86.0522 L -1.31445,-86.2226 L -1.21352,-86.3817
 L -1.09344,-86.5268 L -0.956131,-86.6558 L -0.803726,-86.7665 L -0.638657,-86.8572 L -0.463516,-86.9266 L -0.281067,-86.9734
 L -0.0941772,-86.997 L 0.0941772,-86.997 L 0.281067,-86.9734 L 0.463516,-86.9266 L 0.638657,-86.8572 L 0.803726,-86.7665
 L 0.956131,-86.6558 L 1.09344,-86.5268 L 1.21352,-86.3817 L 1.31445,-86.2226 L 1.39465,-86.0522 L 1.45287,-85.873
 L 1.48816,-85.688 L 1.5,-85.5 L 1.48816,-85.312 L 1.45287,-85.127 L 1.39465,-84.9478 L 1.31445,-84.7774
 L 1.21352,-84.6183 L 1.09344,-84.4732 L 0.956131,-84.3442 L 0.803726,-84.2335 L 0.638657,-84.1427 L 0.463516,-84.0734
 L 0.281067,-84.0266 L 0.0941772,-84.0029 z
M -0.0941772,-69.003 L -0.281067,-69.0266 L -0.463516,-69.0734 L -0.638657,-69.1428 L -0.803726,-69.2335 L -0.956131,-69.3442
 L -1.09344,-69.4732 L -1.21352,-69.6183 L -1.31445,-69.7774 L -1.39465,-69.9478 L -1.45287,-70.127 L -1.48816,-70.312
 L -1.5,-70.5 L -1.48816,-70.688 L -1.45287,-70.873 L -1.39465,-71.0522 L -1.31445,-71.2226 L -1.21352,-71.3817
 L -1.09344,-71.5268 L -0.956131,-71.6558 L -0.803726,-71.7665 L -0.638657,-71.8573 L -0.463516,-71.9266 L -0.281067,-71.9734
 L -0.0941772,-71.9971 L 0.0941772,-71.9971 L 0.281067,-71.9734 L 0.463516,-71.9266 L 0.638657,-71.8573 L 0.803726,-71.7665
 L 0.956131,-71.6558 L 1.09344,-71.5268 L 1.21352,-71.3817 L 1.31445,-71.2226 L 1.39465,-71.0522 L 1.45287,-70.873
 L 1.48816,-70.688 L 1.5,-70.5 L 1.48816,-70.312 L 1.45287,-70.127 L 1.39465,-69.9478 L 1.31445,-69.7774
 L 1.21352,-69.6183 L 1.09344,-69.4732 L 0.956131,-69.3442 L 0.803726,-69.2335 L 0.638657,-69.1428 L 0.463516,-69.0734
 L 0.281067,-69.0266 L 0.0941772,-69.003 z
" stroke="black" fill="lightgray" stroke-width="0.5"/>
</svg>
