  0
SECTION
  2
BLOCKS
  0
ENDSEC
  0
SECTION
  2
ENTITIES
  0
LINE
  8
0
 10
0.543396
 20
437.151
 11
0.896149
 21
437.242
  0
LINE
  8
0
 10
0.896149
 20
437.242
 11
1.23476
 21
437.376
  0
LINE
  8
0
 10
1.23476
 20
437.376
 11
1.55389
 21
437.551
  0
LINE
  8
0
 10
1.55389
 20
437.551
 11
1.84853
 21
437.766
  0
LINE
  8
0
 10
1.84853
 20
437.766
 11
2.114
 21
438.015
  0
LINE
  8
0
 10
2.114
 20
438.015
 11
2.34615
 21
438.295
  0
LINE
  8
0
 10
2.34615
 20
438.295
 11
2.54128
 21
438.603
  0
LINE
  8
0
 10
2.54128
 20
438.603
 11
2.69635
 21
438.932
  0
LINE
  8
0
 10
2.69635
 20
438.932
 11
2.80888
 21
439.279
  0
LINE
  8
0
 10
2.80888
 20
439.279
 11
2.87712
 21
439.637
  0
LINE
  8
0
 10
2.87712
 20
439.637
 11
2.89999
 21
440
  0
LINE
  8
0
 10
2.89999
 20
440
 11
2.87712
 21
440.363
  0
LINE
  8
0
 10
2.87712
 20
440.363
 11
2.80888
 21
440.721
  0
LINE
  8
0
 10
2.80888
 20
440.721
 11
2.69635
 21
441.068
  0
LINE
  8
0
 10
2.69635
 20
441.068
 11
2.54128
 21
441.397
  0
LINE
  8
0
 10
2.54128
 20
441.397
 11
2.34615
 21
441.705
  0
LINE
  8
0
 10
2.34615
 20
441.705
 11
2.114
 21
441.985
  0
LINE
  8
0
 10
2.114
 20
441.985
 11
1.84853
 21
442.234
  0
LINE
  8
0
 10
1.84853
 20
442.234
 11
1.55389
 21
442.449
  0
LINE
  8
0
 10
1.55389
 20
442.449
 11
1.23476
 21
442.624
  0
LINE
  8
0
 10
1.23476
 20
442.624
 11
0.896149
 21
442.758
  0
LINE
  8
0
 10
0.896149
 20
442.758
 11
0.543396
 21
442.849
  0
LINE
  8
0
 10
0.543396
 20
442.849
 11
0.182083
 21
442.894
  0
LINE
  8
0
 10
0.182083
 20
442.894
 11
-0.182083
 21
442.894
  0
LINE
  8
0
 10
-0.182083
 20
442.894
 11
-0.543396
 21
442.849
  0
LINE
  8
0
 10
-0.543396
 20
442.849
 11
-0.896149
 21
442.758
  0
LINE
  8
0
 10
-0.896149
 20
442.758
 11
-1.23476
 21
442.624
  0
LINE
  8
0
 10
-1.23476
 20
442.624
 11
-1.55389
 21
442.449
  0
LINE
  8
0
 10
-1.55389
 20
442.449
 11
-1.84853
 21
442.234
  0
LINE
  8
0
 10
-1.84853
 20
442.234
 11
-2.114
 21
441.985
  0
LINE
  8
0
 10
-2.114
 20
441.985
 11
-2.34615
 21
441.705
  0
LINE
  8
0
 10
-2.34615
 20
441.705
 11
-2.54128
 21
441.397
  0
LINE
  8
0
 10
-2.54128
 20
441.397
 11
-2.69635
 21
441.068
  0
LINE
  8
0
 10
-2.69635
 20
441.068
 11
-2.80888
 21
440.721
  0
LINE
  8
0
 10
-2.80888
 20
440.721
 11
-2.87712
 21
440.363
  0
LINE
  8
0
 10
-2.87712
 20
440.363
 11
-2.89999
 21
440
  0
LINE
  8
0
 10
-2.89999
 20
440
 11
-2.87712
 21
439.637
  0
LINE
  8
0
 10
-2.87712
 20
439.637
 11
-2.80888
 21
439.279
  0
LINE
  8
0
 10
-2.80888
 20
439.279
 11
-2.69635
 21
438.932
  0
LINE
  8
0
 10
-2.69635
 20
438.932
 11
-2.54128
 21
438.603
  0
LINE
  8
0
 10
-2.54128
 20
438.603
 11
-2.34615
 21
438.295
  0
LINE
  8
0
 10
-2.34615
 20
438.295
 11
-2.114
 21
438.015
  0
LINE
  8
0
 10
-2.114
 20
438.015
 11
-1.84853
 21
437.766
  0
LINE
  8
0
 10
-1.84853
 20
437.766
 11
-1.55389
 21
437.551
  0
LINE
  8
0
 10
-1.55389
 20
437.551
 11
-1.23476
 21
437.376
  0
LINE
  8
0
 10
-1.23476
 20
437.376
 11
-0.896149
 21
437.242
  0
LINE
  8
0
 10
-0.896149
 20
437.242
 11
-0.543396
 21
437.151
  0
LINE
  8
0
 10
-0.543396
 20
437.151
 11
-0.182083
 21
437.106
  0
LINE
  8
0
 10
-0.182083
 20
437.106
 11
0.182083
 21
437.106
  0
LINE
  8
0
 10
0.182083
 20
437.106
 11
0.543396
 21
437.151
  0
LINE
  8
0
 10
0.281067
 20
328.527
 11
0.463516
 21
328.573
  0
LINE
  8
0
 10
0.463516
 20
328.573
 11
0.638657
 21
328.643
  0
LINE
  8
0
 10
0.638657
 20
328.643
 11
0.803726
 21
328.734
  0
LINE
  8
0
 10
0.803726
 20
328.734
 11
0.956131
 21
328.844
  0
LINE
  8
0
 10
0.956131
 20
328.844
 11
1.09344
 21
328.973
  0
LINE
  8
0
 10
1.09344
 20
328.973
 11
1.21352
 21
329.118
  0
LINE
  8
0
 10
1.21352
 20
329.118
 11
1.31445
 21
329.277
  0
LINE
  8
0
 10
1.31445
 20
329.277
 11
1.39465
 21
329.448
  0
LINE
  8
0
 10
1.39465
 20
329.448
 11
1.45287
 21
329.627
  0
LINE
  8
0
 10
1.45287
 20
329.627
 11
1.48816
 21
329.812
  0
LINE
  8
0
 10
1.48816
 20
329.812
 11
1.5
 21
330
  0
LINE
  8
0
 10
1.5
 20
330
 11
1.48816
 21
330.188
  0
LINE
  8
0
 10
1.48816
 20
330.188
 11
1.45287
 21
330.373
  0
LINE
  8
0
 10
1.45287
 20
330.373
 11
1.39465
 21
330.552
  0
LINE
  8
0
 10
1.39465
 20
330.552
 11
1.31445
 21
330.723
  0
LINE
  8
0
 10
1.31445
 20
330.723
 11
1.21352
 21
330.882
  0
LINE
  8
0
 10
1.21352
 20
330.882
 11
1.09344
 21
331.027
  0
LINE
  8
0
 10
1.09344
 20
331.027
 11
0.956131
 21
331.156
  0
LINE
  8
0
 10
0.956131
 20
331.156
 11
0.803726
 21
331.266
  0
LINE
  8
0
 10
0.803726
 20
331.266
 11
0.638657
 21
331.357
  0
LINE
  8
0
 10
0.638657
 20
331.357
 11
0.463516
 21
331.427
  0
LINE
  8
0
 10
0.463516
 20
331.427
 11
0.281067
 21
331.473
  0
LINE
  8
0
 10
0.281067
 20
331.473
 11
0.0941772
 21
331.497
  0
LINE
  8
0
 10
0.0941772
 20
331.497
 11
-0.0941772
 21
331.497
  0
LINE
  8
0
 10
-0.0941772
 20
331.497
 11
-0.281067
 21
331.473
  0
LINE
  8
0
 10
-0.281067
 20
331.473
 11
-0.463516
 21
331.427
  0
LINE
  8
0
 10
-0.463516
 20
331.427
 11
-0.638657
 21
331.357
  0
LINE
  8
0
 10
-0.638657
 20
331.357
 11
-0.803726
 21
331.266
  0
LINE
  8
0
 10
-0.803726
 20
331.266
 11
-0.956131
 21
331.156
  0
LINE
  8
0
 10
-0.956131
 20
331.156
 11
-1.09344
 21
331.027
  0
LINE
  8
0
 10
-1.09344
 20
331.027
 11
-1.21352
 21
330.882
  0
LINE
  8
0
 10
-1.21352
 20
330.882
 11
-1.31445
 21
330.723
  0
LINE
  8
0
 10
-1.31445
 20
330.723
 11
-1.39465
 21
330.552
  0
LINE
  8
0
 10
-1.39465
 20
330.552
 11
-1.45287
 21
330.373
  0
LINE
  8
0
 10
-1.45287
 20
330.373
 11
-1.48816
 21
330.188
  0
LINE
  8
0
 10
-1.48816
 20
330.188
 11
-1.5
 21
330
  0
LINE
  8
0
 10
-1.5
 20
330
 11
-1.48816
 21
329.812
  0
LINE
  8
0
 10
-1.48816
 20
329.812
 11
-1.45287
 21
329.627
  0
LINE
  8
0
 10
-1.45287
 20
329.627
 11
-1.39465
 21
329.448
  0
LINE
  8
0
 10
-1.39465
 20
329.448
 11
-1.31445
 21
329.277
  0
LINE
  8
0
 10
-1.31445
 20
329.277
 11
-1.21352
 21
329.118
  0
LINE
  8
0
 10
-1.21352
 20
329.118
 11
-1.09344
 21
328.973
  0
LINE
  8
0
 10
-1.09344
 20
328.973
 11
-0.956131
 21
328.844
  0
LINE
  8
0
 10
-0.956131
 20
328.844
 11
-0.803726
 21
328.734
  0
LINE
  8
0
 10
-0.803726
 20
328.734
 11
-0.638657
 21
328.643
  0
LINE
  8
0
 10
-0.638657
 20
328.643
 11
-0.463516
 21
328.573
  0
LINE
  8
0
 10
-0.463516
 20
328.573
 11
-0.281067
 21
328.527
  0
LINE
  8
0
 10
-0.281067
 20
328.527
 11
-0.0941772
 21
328.503
  0
LINE
  8
0
 10
-0.0941772
 20
328.503
 11
0.0941772
 21
328.503
  0
LINE
  8
0
 10
0.0941772
 20
328.503
 11
0.281067
 21
328.527
  0
LINE
  8
0
 10
0.281067
 20
218.527
 11
0.463516
 21
218.573
  0
LINE
  8
0
 10
0.463516
 20
218.573
 11
0.638657
 21
218.643
  0
LINE
  8
0
 10
0.638657
 20
218.643
 11
0.803726
 21
218.734
  0
LINE
  8
0
 10
0.803726
 20
218.734
 11
0.956131
 21
218.844
  0
LINE
  8
0
 10
0.956131
 20
218.844
 11
1.09344
 21
218.973
  0
LINE
  8
0
 10
1.09344
 20
218.973
 11
1.21352
 21
219.118
  0
LINE
  8
0
 10
1.21352
 20
219.118
 11
1.31445
 21
219.277
  0
LINE
  8
0
 10
1.31445
 20
219.277
 11
1.39465
 21
219.448
  0
LINE
  8
0
 10
1.39465
 20
219.448
 11
1.45287
 21
219.627
  0
LINE
  8
0
 10
1.45287
 20
219.627
 11
1.48816
 21
219.812
  0
LINE
  8
0
 10
1.48816
 20
219.812
 11
1.5
 21
220
  0
LINE
  8
0
 10
1.5
 20
220
 11
1.48816
 21
220.188
  0
LINE
  8
0
 10
1.48816
 20
220.188
 11
1.45287
 21
220.373
  0
LINE
  8
0
 10
1.45287
 20
220.373
 11
1.39465
 21
220.552
  0
LINE
  8
0
 10
1.39465
 20
220.552
 11
1.31445
 21
220.723
  0
LINE
  8
0
 10
1.31445
 20
220.723
 11
1.21352
 21
220.882
  0
LINE
  8
0
 10
1.21352
 20
220.882
 11
1.09344
 21
221.027
  0
LINE
  8
0
 10
1.09344
 20
221.027
 11
0.956131
 21
221.156
  0
LINE
  8
0
 10
0.956131
 20
221.156
 11
0.803726
 21
221.266
  0
LINE
  8
0
 10
0.803726
 20
221.266
 11
0.638657
 21
221.357
  0
LINE
  8
0
 10
0.638657
 20
221.357
 11
0.463516
 21
221.427
  0
LINE
  8
0
 10
0.463516
 20
221.427
 11
0.281067
 21
221.473
  0
LINE
  8
0
 10
0.281067
 20
221.473
 11
0.0941772
 21
221.497
  0
LINE
  8
0
 10
0.0941772
 20
221.497
 11
-0.0941772
 21
221.497
  0
LINE
  8
0
 10
-0.0941772
 20
221.497
 11
-0.281067
 21
221.473
  0
LINE
  8
0
 10
-0.281067
 20
221.473
 11
-0.463516
 21
221.427
  0
LINE
  8
0
 10
-0.463516
 20
221.427
 11
-0.638657
 21
221.357
  0
LINE
  8
0
 10
-0.638657
 20
221.357
 11
-0.803726
 21
221.266
  0
LINE
  8
0
 10
-0.803726
 20
221.266
 11
-0.956131
 21
221.156
  0
LINE
  8
0
 10
-0.956131
 20
221.156
 11
-1.09344
 21
221.027
  0
LINE
  8
0
 10
-1.09344
 20
221.027
 11
-1.21352
 21
220.882
  0
LINE
  8
0
 10
-1.21352
 20
220.882
 11
-1.31445
 21
220.723
  0
LINE
  8
0
 10
-1.31445
 20
220.723
 11
-1.39465
 21
220.552
  0
LINE
  8
0
 10
-1.39465
 20
220.552
 11
-1.45287
 21
220.373
  0
LINE
  8
0
 10
-1.45287
 20
220.373
 11
-1.48816
 21
220.188
  0
LINE
  8
0
 10
-1.48816
 20
220.188
 11
-1.5
 21
220
  0
LINE
  8
0
 10
-1.5
 20
220
 11
-1.48816
 21
219.812
  0
LINE
  8
0
 10
-1.48816
 20
219.812
 11
-1.45287
 21
219.627
  0
LINE
  8
0
 10
-1.45287
 20
219.627
 11
-1.39465
 21
219.448
  0
LINE
  8
0
 10
-1.39465
 20
219.448
 11
-1.31445
 21
219.277
  0
LINE
  8
0
 10
-1.31445
 20
219.277
 11
-1.21352
 21
219.118
  0
LINE
  8
0
 10
-1.21352
 20
219.118
 11
-1.09344
 21
218.973
  0
LINE
  8
0
 10
-1.09344
 20
218.973
 11
-0.956131
 21
218.844
  0
LINE
  8
0
 10
-0.956131
 20
218.844
 11
-0.803726
 21
218.734
  0
LINE
  8
0
 10
-0.803726
 20
218.734
 11
-0.638657
 21
218.643
  0
LINE
  8
0
 10
-0.638657
 20
218.643
 11
-0.463516
 21
218.573
  0
LINE
  8
0
 10
-0.463516
 20
218.573
 11
-0.281067
 21
218.527
  0
LINE
  8
0
 10
-0.281067
 20
218.527
 11
-0.0941772
 21
218.503
  0
LINE
  8
0
 10
-0.0941772
 20
218.503
 11
0.0941772
 21
218.503
  0
LINE
  8
0
 10
0.0941772
 20
218.503
 11
0.281067
 21
218.527
  0
LINE
  8
0
 10
0.281067
 20
108.527
 11
0.463516
 21
108.573
  0
LINE
  8
0
 10
0.463516
 20
108.573
 11
0.638657
 21
108.643
  0
LINE
  8
0
 10
0.638657
 20
108.643
 11
0.803726
 21
108.734
  0
LINE
  8
0
 10
0.803726
 20
108.734
 11
0.956131
 21
108.844
  0
LINE
  8
0
 10
0.956131
 20
108.844
 11
1.09344
 21
108.973
  0
LINE
  8
0
 10
1.09344
 20
108.973
 11
1.21352
 21
109.118
  0
LINE
  8
0
 10
1.21352
 20
109.118
 11
1.31445
 21
109.277
  0
LINE
  8
0
 10
1.31445
 20
109.277
 11
1.39465
 21
109.448
  0
LINE
  8
0
 10
1.39465
 20
109.448
 11
1.45287
 21
109.627
  0
LINE
  8
0
 10
1.45287
 20
109.627
 11
1.48816
 21
109.812
  0
LINE
  8
0
 10
1.48816
 20
109.812
 11
1.5
 21
110
  0
LINE
  8
0
 10
1.5
 20
110
 11
1.48816
 21
110.188
  0
LINE
  8
0
 10
1.48816
 20
110.188
 11
1.45287
 21
110.373
  0
LINE
  8
0
 10
1.45287
 20
110.373
 11
1.39465
 21
110.552
  0
LINE
  8
0
 10
1.39465
 20
110.552
 11
1.31445
 21
110.723
  0
LINE
  8
0
 10
1.31445
 20
110.723
 11
1.21352
 21
110.882
  0
LINE
  8
0
 10
1.21352
 20
110.882
 11
1.09344
 21
111.027
  0
LINE
  8
0
 10
1.09344
 20
111.027
 11
0.956131
 21
111.156
  0
LINE
  8
0
 10
0.956131
 20
111.156
 11
0.803726
 21
111.266
  0
LINE
  8
0
 10
0.803726
 20
111.266
 11
0.638657
 21
111.357
  0
LINE
  8
0
 10
0.638657
 20
111.357
 11
0.463516
 21
111.427
  0
LINE
  8
0
 10
0.463516
 20
111.427
 11
0.281067
 21
111.473
  0
LINE
  8
0
 10
0.281067
 20
111.473
 11
0.0941772
 21
111.497
  0
LINE
  8
0
 10
0.0941772
 20
111.497
 11
-0.0941772
 21
111.497
  0
LINE
  8
0
 10
-0.0941772
 20
111.497
 11
-0.281067
 21
111.473
  0
LINE
  8
0
 10
-0.281067
 20
111.473
 11
-0.463516
 21
111.427
  0
LINE
  8
0
 10
-0.463516
 20
111.427
 11
-0.638657
 21
111.357
  0
LINE
  8
0
 10
-0.638657
 20
111.357
 11
-0.803726
 21
111.266
  0
LINE
  8
0
 10
-0.803726
 20
111.266
 11
-0.956131
 21
111.156
  0
LINE
  8
0
 10
-0.956131
 20
111.156
 11
-1.09344
 21
111.027
  0
LINE
  8
0
 10
-1.09344
 20
111.027
 11
-1.21352
 21
110.882
  0
LINE
  8
0
 10
-1.21352
 20
110.882
 11
-1.31445
 21
110.723
  0
LINE
  8
0
 10
-1.31445
 20
110.723
 11
-1.39465
 21
110.552
  0
LINE
  8
0
 10
-1.39465
 20
110.552
 11
-1.45287
 21
110.373
  0
LINE
  8
0
 10
-1.45287
 20
110.373
 11
-1.48816
 21
110.188
  0
LINE
  8
0
 10
-1.48816
 20
110.188
 11
-1.5
 21
110
  0
LINE
  8
0
 10
-1.5
 20
110
 11
-1.48816
 21
109.812
  0
LINE
  8
0
 10
-1.48816
 20
109.812
 11
-1.45287
 21
109.627
  0
LINE
  8
0
 10
-1.45287
 20
109.627
 11
-1.39465
 21
109.448
  0
LINE
  8
0
 10
-1.39465
 20
109.448
 11
-1.31445
 21
109.277
  0
LINE
  8
0
 10
-1.31445
 20
109.277
 11
-1.21352
 21
109.118
  0
LINE
  8
0
 10
-1.21352
 20
109.118
 11
-1.09344
 21
108.973
  0
LINE
  8
0
 10
-1.09344
 20
108.973
 11
-0.956131
 21
108.844
  0
LINE
  8
0
 10
-0.956131
 20
108.844
 11
-0.803726
 21
108.734
  0
LINE
  8
0
 10
-0.803726
 20
108.734
 11
-0.638657
 21
108.643
  0
LINE
  8
0
 10
-0.638657
 20
108.643
 11
-0.463516
 21
108.573
  0
LINE
  8
0
 10
-0.463516
 20
108.573
 11
-0.281067
 21
108.527
  0
LINE
  8
0
 10
-0.281067
 20
108.527
 11
-0.0941772
 21
108.503
  0
LINE
  8
0
 10
-0.0941772
 20
108.503
 11
0.0941772
 21
108.503
  0
LINE
  8
0
 10
0.0941772
 20
108.503
 11
0.281067
 21
108.527
  0
LINE
  8
0
 10
0.281067
 20
-1.47342
 11
0.463516
 21
-1.42657
  0
LINE
  8
0
 10
0.463516
 20
-1.42657
 11
0.638657
 21
-1.35724
  0
LINE
  8
0
 10
0.638657
 20
-1.35724
 11
0.803726
 21
-1.26648
  0
LINE
  8
0
 10
0.803726
 20
-1.26648
 11
0.956131
 21
-1.15576
  0
LINE
  8
0
 10
0.956131
 20
-1.15576
 11
1.09344
 21
-1.02681
  0
LINE
  8
0
 10
1.09344
 20
-1.02681
 11
1.21352
 21
-0.881668
  0
LINE
  8
0
 10
1.21352
 20
-0.881668
 11
1.31445
 21
-0.722626
  0
LINE
  8
0
 10
1.31445
 20
-0.722626
 11
1.39465
 21
-0.552185
  0
LINE
  8
0
 10
1.39465
 20
-0.552185
 11
1.45287
 21
-0.373032
  0
LINE
  8
0
 10
1.45287
 20
-0.373032
 11
1.48816
 21
-0.187988
  0
LINE
  8
0
 10
1.48816
 20
-0.187988
 11
1.5
 21
0
  0
LINE
  8
0
 10
1.5
 20
0
 11
1.48816
 21
0.187988
  0
LINE
  8
0
 10
1.48816
 20
0.187988
 11
1.45287
 21
0.373032
  0
LINE
  8
0
 10
1.45287
 20
0.373032
 11
1.39465
 21
0.552185
  0
LINE
  8
0
 10
1.39465
 20
0.552185
 11
1.31445
 21
0.722626
  0
LINE
  8
0
 10
1.31445
 20
0.722626
 11
1.21352
 21
0.881668
  0
LINE
  8
0
 10
1.21352
 20
0.881668
 11
1.09344
 21
1.02681
  0
LINE
  8
0
 10
1.09344
 20
1.02681
 11
0.956131
 21
1.15576
  0
LINE
  8
0
 10
0.956131
 20
1.15576
 11
0.803726
 21
1.26648
  0
LINE
  8
0
 10
0.803726
 20
1.26648
 11
0.638657
 21
1.35724
  0
LINE
  8
0
 10
0.638657
 20
1.35724
 11
0.463516
 21
1.42657
  0
LINE
  8
0
 10
0.463516
 20
1.42657
 11
0.281067
 21
1.47342
  0
LINE
  8
0
 10
0.281067
 20
1.47342
 11
0.0941772
 21
1.49704
  0
LINE
  8
0
 10
0.0941772
 20
1.49704
 11
-0.0941772
 21
1.49704
  0
LINE
  8
0
 10
-0.0941772
 20
1.49704
 11
-0.281067
 21
1.47342
  0
LINE
  8
0
 10
-0.281067
 20
1.47342
 11
-0.463516
 21
1.42657
  0
LINE
  8
0
 10
-0.463516
 20
1.42657
 11
-0.638657
 21
1.35724
  0
LINE
  8
0
 10
-0.638657
 20
1.35724
 11
-0.803726
 21
1.26648
  0
LINE
  8
0
 10
-0.803726
 20
1.26648
 11
-0.956131
 21
1.15576
  0
LINE
  8
0
 10
-0.956131
 20
1.15576
 11
-1.09344
 21
1.02681
  0
LINE
  8
0
 10
-1.09344
 20
1.02681
 11
-1.21352
 21
0.881668
  0
LINE
  8
0
 10
-1.21352
 20
0.881668
 11
-1.31445
 21
0.722626
  0
LINE
  8
0
 10
-1.31445
 20
0.722626
 11
-1.39465
 21
0.552185
  0
LINE
  8
0
 10
-1.39465
 20
0.552185
 11
-1.45287
 21
0.373032
  0
LINE
  8
0
 10
-1.45287
 20
0.373032
 11
-1.48816
 21
0.187988
  0
LINE
  8
0
 10
-1.48816
 20
0.187988
 11
-1.5
 21
0
  0
LINE
  8
0
 10
-1.5
 20
0
 11
-1.48816
 21
-0.187988
  0
LINE
  8
0
 10
-1.48816
 20
-0.187988
 11
-1.45287
 21
-0.373032
  0
LINE
  8
0
 10
-1.45287
 20
-0.373032
 11
-1.39465
 21
-0.552185
  0
LINE
  8
0
 10
-1.39465
 20
-0.552185
 11
-1.31445
 21
-0.722626
  0
LINE
  8
0
 10
-1.31445
 20
-0.722626
 11
-1.21352
 21
-0.881668
  0
LINE
  8
0
 10
-1.21352
 20
-0.881668
 11
-1.09344
 21
-1.02681
  0
LINE
  8
0
 10
-1.09344
 20
-1.02681
 11
-0.956131
 21
-1.15576
  0
LINE
  8
0
 10
-0.956131
 20
-1.15576
 11
-0.803726
 21
-1.26648
  0
LINE
  8
0
 10
-0.803726
 20
-1.26648
 11
-0.638657
 21
-1.35724
  0
LINE
  8
0
 10
-0.638657
 20
-1.35724
 11
-0.463516
 21
-1.42657
  0
LINE
  8
0
 10
-0.463516
 20
-1.42657
 11
-0.281067
 21
-1.47342
  0
LINE
  8
0
 10
-0.281067
 20
-1.47342
 11
-0.0941772
 21
-1.49704
  0
LINE
  8
0
 10
-0.0941772
 20
-1.49704
 11
0.0941772
 21
-1.49704
  0
LINE
  8
0
 10
0.0941772
 20
-1.49704
 11
0.281067
 21
-1.47342
  0
ENDSEC
  0
SECTION
  2
OBJECTS
  0
DICTIONARY
  0
ENDSEC
  0
EOF
