<?xml version="1.0" standalone="no"?>
<!DOCTYPE svg PUBLIC "-//W3C//DTD SVG 1.1//EN" "http://www.w3.org/Graphics/SVG/1.1/DTD/svg11.dtd">
<svg width="30mm" height="336mm" viewBox="-15 -582 30 336" xmlns="http://www.w3.org/2000/svg" version="1.1">
<title>OpenSCAD Model</title>
<path d="
M 10.9369,-522.089 L 11.5451,-522.245 L 12.1289,-522.476 L 12.6791,-522.778 L 13.1871,-523.147 L 13.6448,-523.577
 L 14.0451,-524.061 L 14.3815,-524.591 L 14.6489,-525.159 L 14.8429,-525.757 L 14.9606,-526.373 L 15,-527
 L 15,-577 L 14.9606,-577.627 L 14.8429,-578.243 L 14.6489,-578.841 L 14.3815,-579.409 L 14.0451,-579.939
 L 13.6448,-580.423 L 13.1871,-580.853 L 12.6791,-581.222 L 12.1289,-581.524 L 11.5451,-581.755 L 10.9369,-581.911
 L 10.3139,-581.99 L -10.3139,-581.99 L -10.9369,-581.911 L -11.5451,-581.755 L -12.1289,-581.524 L -12.6791,-581.222
 L -13.1871,-580.853 L -13.6448,-580.423 L -14.0451,-579.939 L -14.3815,-579.409 L -14.6489,-578.841 L -14.8429,-578.243
 L -14.9606,-577.627 L -15,-577 L -15,-527 L -14.9606,-526.373 L -14.8429,-525.757 L -14.6489,-525.159
 L -14.3815,-524.591 L -14.0451,-524.061 L -13.6448,-523.577 L -13.1871,-523.147 L -12.6791,-522.778 L -12.1289,-522.476
 L -11.5451,-522.245 L -10.9369,-522.089 L -10.3139,-522.01 L 10.3139,-522.01 z
M -4.81104,-522.509 L -4.32086,-522.778 L -3.81287,-523.147 L -3.35515,-523.577 L -2.95491,-524.061 L -2.61845,-524.591
 L -2.3511,-525.159 L -2.15707,-525.757 L -2.03941,-526.373 L -2,-527 L -2,-530 L -2.03941,-530.627
 L -2.15707,-531.243 L -2.3511,-531.841 L -2.61845,-532.409 L -2.95491,-532.939 L -3.35515,-533.423 L -3.81287,-533.853
 L -4.32086,-534.222 L -4.87109,-534.524 L -5.45491,-534.755 L -6.06308,-534.911 L -6.68604,-534.99 L -10.3139,-534.99
 L -10.9369,-534.911 L -11.5451,-534.755 L -12.1289,-534.524 L -12.6791,-534.222 L -13.1871,-533.853 L -13.6448,-533.423
 L -14.0451,-532.939 L -14.3815,-532.409 L -14.5,-532.157 L -14.5,-577 L -14.4645,-577.564 L -14.3586,-578.119
 L -14.184,-578.657 L -13.9434,-579.168 L -13.6406,-579.645 L -13.2803,-580.08 L -12.8684,-580.467 L -12.4112,-580.799
 L -11.916,-581.072 L -11.3906,-581.28 L -10.8432,-581.42 L -10.2825,-581.491 L 10.2825,-581.491 L 10.8432,-581.42
 L 11.3906,-581.28 L 11.916,-581.072 L 12.4112,-580.799 L 12.8684,-580.467 L 13.2803,-580.08 L 13.6406,-579.645
 L 13.9434,-579.168 L 14.184,-578.657 L 14.3586,-578.119 L 14.4645,-577.564 L 14.5,-577 L 14.5,-527
 L 14.4645,-526.436 L 14.3586,-525.881 L 14.184,-525.343 L 13.9434,-524.832 L 13.6406,-524.355 L 13.2803,-523.92
 L 12.8684,-523.533 L 12.4112,-523.201 L 11.916,-522.928 L 11.3906,-522.72 L 10.8432,-522.58 L 10.2825,-522.509
 z
M 7.96844,-572.044 L 8.27254,-572.122 L 8.56444,-572.238 L 8.83955,-572.389 L 9.09355,-572.574 L 9.32242,-572.789
 L 9.52254,-573.031 L 9.69077,-573.296 L 9.82443,-573.58 L 9.92145,-573.878 L 9.98029,-574.187 L 10,-574.5
 L 9.98029,-574.813 L 9.92145,-575.122 L 9.82443,-575.42 L 9.69077,-575.704 L 9.52254,-575.969 L 9.32242,-576.211
 L 9.09355,-576.426 L 8.83955,-576.611 L 8.56444,-576.762 L 8.27254,-576.878 L 7.96844,-576.956 L 7.65697,-576.995
 L 7.34302,-576.995 L 7.03154,-576.956 L 6.72745,-576.878 L 6.43555,-576.762 L 6.16043,-576.611 L 5.90643,-576.426
 L 5.67757,-576.211 L 5.47745,-575.969 L 5.30922,-575.704 L 5.17555,-575.42 L 5.07854,-575.122 L 5.0197,-574.813
 L 5,-574.5 L 5.0197,-574.187 L 5.07854,-573.878 L 5.17555,-573.58 L 5.30922,-573.296 L 5.47745,-573.031
 L 5.67757,-572.789 L 5.90643,-572.574 L 6.16043,-572.389 L 6.43555,-572.238 L 6.72745,-572.122 L 7.03154,-572.044
 L 7.34302,-572.005 L 7.65697,-572.005 z
M 7.40581,-573.003 L 7.21892,-573.027 L 7.03647,-573.073 L 6.86133,-573.143 L 6.69626,-573.234 L 6.54385,-573.344
 L 6.40654,-573.473 L 6.28647,-573.618 L 6.18553,-573.777 L 6.10533,-573.948 L 6.04712,-574.127 L 6.01183,-574.312
 L 6,-574.5 L 6.01183,-574.688 L 6.04712,-574.873 L 6.10533,-575.052 L 6.18553,-575.223 L 6.28647,-575.382
 L 6.40654,-575.527 L 6.54385,-575.656 L 6.69626,-575.766 L 6.86133,-575.857 L 7.03647,-575.927 L 7.21892,-575.973
 L 7.40581,-575.997 L 7.59418,-575.997 L 7.78107,-575.973 L 7.96352,-575.927 L 8.13866,-575.857 L 8.30373,-575.766
 L 8.45613,-575.656 L 8.59344,-575.527 L 8.71352,-575.382 L 8.81445,-575.223 L 8.89465,-575.052 L 8.95287,-574.873
 L 8.98816,-574.688 L 9,-574.5 L 8.98816,-574.312 L 8.95287,-574.127 L 8.89465,-573.948 L 8.81445,-573.777
 L 8.71352,-573.618 L 8.59344,-573.473 L 8.45613,-573.344 L 8.30373,-573.234 L 8.13866,-573.143 L 7.96352,-573.073
 L 7.78107,-573.027 L 7.59418,-573.003 z
M -7.59418,-528.003 L -7.78107,-528.027 L -7.96352,-528.073 L -8.13866,-528.143 L -8.30373,-528.234 L -8.45613,-528.344
 L -8.59344,-528.473 L -8.71352,-528.618 L -8.81445,-528.777 L -8.89465,-528.948 L -8.95287,-529.127 L -8.98816,-529.312
 L -9,-529.5 L -8.98816,-529.688 L -8.95287,-529.873 L -8.89465,-530.052 L -8.81445,-530.223 L -8.71352,-530.382
 L -8.59344,-530.527 L -8.45613,-530.656 L -8.30373,-530.766 L -8.13866,-530.857 L -7.96352,-530.927 L -7.78107,-530.973
 L -7.59418,-530.997 L -7.40581,-530.997 L -7.21892,-530.973 L -7.03647,-530.927 L -6.86133,-530.857 L -6.69626,-530.766
 L -6.54385,-530.656 L -6.40654,-530.527 L -6.28647,-530.382 L -6.18553,-530.223 L -6.10533,-530.052 L -6.04712,-529.873
 L -6.01183,-529.688 L -6,-529.5 L -6.01183,-529.312 L -6.04712,-529.127 L -6.10533,-528.948 L -6.18553,-528.777
 L -6.28647,-528.618 L -6.40654,-528.473 L -6.54385,-528.344 L -6.69626,-528.234 L -6.86133,-528.143 L -7.03647,-528.073
 L -7.21892,-528.027 L -7.40581,-528.003 z
M 10.9369,-453.089 L 11.5451,-453.245 L 12.1289,-453.476 L 12.6791,-453.778 L 13.1871,-454.147 L 13.6448,-454.577
 L 14.0451,-455.061 L 14.3815,-455.591 L 14.6489,-456.159 L 14.8429,-456.757 L 14.9606,-457.373 L 15,-458
 L 15,-508 L 14.9606,-508.627 L 14.8429,-509.243 L 14.6489,-509.841 L 14.3815,-510.409 L 14.0451,-510.939
 L 13.6448,-511.423 L 13.1871,-511.853 L 12.6791,-512.222 L 12.1289,-512.524 L 11.5451,-512.755 L 10.9369,-512.911
 L 10.3139,-512.99 L -10.3139,-512.99 L -10.9369,-512.911 L -11.5451,-512.755 L -12.1289,-512.524 L -12.6791,-512.222
 L -13.1871,-511.853 L -13.6448,-511.423 L -14.0451,-510.939 L -14.3815,-510.409 L -14.6489,-509.841 L -14.8429,-509.243
 L -14.9606,-508.627 L -15,-508 L -15,-458 L -14.9606,-457.373 L -14.8429,-456.757 L -14.6489,-456.159
 L -14.3815,-455.591 L -14.0451,-455.061 L -13.6448,-454.577 L -13.1871,-454.147 L -12.6791,-453.778 L -12.1289,-453.476
 L -11.5451,-453.245 L -10.9369,-453.089 L -10.3139,-453.01 L 10.3139,-453.01 z
M -4.81104,-453.509 L -4.32086,-453.778 L -3.81287,-454.147 L -3.35515,-454.577 L -2.95491,-455.061 L -2.61845,-455.591
 L -2.3511,-456.159 L -2.15707,-456.757 L -2.03941,-457.373 L -2,-458 L -2,-461 L -2.03941,-461.627
 L -2.15707,-462.243 L -2.3511,-462.841 L -2.61845,-463.409 L -2.95491,-463.939 L -3.35515,-464.423 L -3.81287,-464.853
 L -4.32086,-465.222 L -4.87109,-465.524 L -5.45491,-465.755 L -6.06308,-465.911 L -6.68604,-465.99 L -10.3139,-465.99
 L -10.9369,-465.911 L -11.5451,-465.755 L -12.1289,-465.524 L -12.6791,-465.222 L -13.1871,-464.853 L -13.6448,-464.423
 L -14.0451,-463.939 L -14.3815,-463.409 L -14.5,-463.157 L -14.5,-508 L -14.4645,-508.564 L -14.3586,-509.119
 L -14.184,-509.657 L -13.9434,-510.168 L -13.6406,-510.645 L -13.2803,-511.08 L -12.8684,-511.467 L -12.4112,-511.799
 L -11.916,-512.072 L -11.3906,-512.28 L -10.8432,-512.42 L -10.2825,-512.491 L 10.2825,-512.491 L 10.8432,-512.42
 L 11.3906,-512.28 L 11.916,-512.072 L 12.4112,-511.799 L 12.8684,-511.467 L 13.2803,-511.08 L 13.6406,-510.645
 L 13.9434,-510.168 L 14.184,-509.657 L 14.3586,-509.119 L 14.4645,-508.564 L 14.5,-508 L 14.5,-458
 L 14.4645,-457.436 L 14.3586,-456.881 L 14.184,-456.343 L 13.9434,-455.832 L 13.6406,-455.355 L 13.2803,-454.92
 L 12.8684,-454.533 L 12.4112,-454.201 L 11.916,-453.928 L 11.3906,-453.72 L 10.8432,-453.58 L 10.2825,-453.509
 z
M 7.96844,-503.044 L 8.27254,-503.122 L 8.56444,-503.238 L 8.83955,-503.389 L 9.09355,-503.574 L 9.32242,-503.789
 L 9.52254,-504.031 L 9.69077,-504.296 L 9.82443,-504.58 L 9.92145,-504.878 L 9.98029,-505.187 L 10,-505.5
 L 9.98029,-505.813 L 9.92145,-506.122 L 9.82443,-506.42 L 9.69077,-506.704 L 9.52254,-506.969 L 9.32242,-507.211
 L 9.09355,-507.426 L 8.83955,-507.611 L 8.56444,-507.762 L 8.27254,-507.878 L 7.96844,-507.956 L 7.65697,-507.995
 L 7.34302,-507.995 L 7.03154,-507.956 L 6.72745,-507.878 L 6.43555,-507.762 L 6.16043,-507.611 L 5.90643,-507.426
 L 5.67757,-507.211 L 5.47745,-506.969 L 5.30922,-506.704 L 5.17555,-506.42 L 5.07854,-506.122 L 5.0197,-505.813
 L 5,-505.5 L 5.0197,-505.187 L 5.07854,-504.878 L 5.17555,-504.58 L 5.30922,-504.296 L 5.47745,-504.031
 L 5.67757,-503.789 L 5.90643,-503.574 L 6.16043,-503.389 L 6.43555,-503.238 L 6.72745,-503.122 L 7.03154,-503.044
 L 7.34302,-503.005 L 7.65697,-503.005 z
M 7.40581,-504.003 L 7.21892,-504.027 L 7.03647,-504.073 L 6.86133,-504.143 L 6.69626,-504.234 L 6.54385,-504.344
 L 6.40654,-504.473 L 6.28647,-504.618 L 6.18553,-504.777 L 6.10533,-504.948 L 6.04712,-505.127 L 6.01183,-505.312
 L 6,-505.5 L 6.01183,-505.688 L 6.04712,-505.873 L 6.10533,-506.052 L 6.18553,-506.223 L 6.28647,-506.382
 L 6.40654,-506.527 L 6.54385,-506.656 L 6.69626,-506.766 L 6.86133,-506.857 L 7.03647,-506.927 L 7.21892,-506.973
 L 7.40581,-506.997 L 7.59418,-506.997 L 7.78107,-506.973 L 7.96352,-506.927 L 8.13866,-506.857 L 8.30373,-506.766
 L 8.45613,-506.656 L 8.59344,-506.527 L 8.71352,-506.382 L 8.81445,-506.223 L 8.89465,-506.052 L 8.95287,-505.873
 L 8.98816,-505.688 L 9,-505.5 L 8.98816,-505.312 L 8.95287,-505.127 L 8.89465,-504.948 L 8.81445,-504.777
 L 8.71352,-504.618 L 8.59344,-504.473 L 8.45613,-504.344 L 8.30373,-504.234 L 8.13866,-504.143 L 7.96352,-504.073
 L 7.78107,-504.027 L 7.59418,-504.003 z
M -7.59418,-459.003 L -7.78107,-459.027 L -7.96352,-459.073 L -8.13866,-459.143 L -8.30373,-459.234 L -8.45613,-459.344
 L -8.59344,-459.473 L -8.71352,-459.618 L -8.81445,-459.777 L -8.89465,-459.948 L -8.95287,-460.127 L -8.98816,-460.312
 L -9,-460.5 L -8.98816,-460.688 L -8.95287,-460.873 L -8.89465,-461.052 L -8.81445,-461.223 L -8.71352,-461.382
 L -8.59344,-461.527 L -8.45613,-461.656 L -8.30373,-461.766 L -8.13866,-461.857 L -7.96352,-461.927 L -7.78107,-461.973
 L -7.59418,-461.997 L -7.40581,-461.997 L -7.21892,-461.973 L -7.03647,-461.927 L -6.86133,-461.857 L -6.69626,-461.766
 L -6.54385,-461.656 L -6.40654,-461.527 L -6.28647,-461.382 L -6.18553,-461.223 L -6.10533,-461.052 L -6.04712,-460.873
 L -6.01183,-460.688 L -6,-460.5 L -6.01183,-460.312 L -6.04712,-460.127 L -6.10533,-459.948 L -6.18553,-459.777
 L -6.28647,-459.618 L -6.40654,-459.473 L -6.54385,-459.344 L -6.69626,-459.234 L -6.86133,-459.143 L -7.03647,-459.073
 L -7.21892,-459.027 L -7.40581,-459.003 z
M 10.9369,-384.089 L 11.5451,-384.245 L 12.1289,-384.476 L 12.6791,-384.778 L 13.1871,-385.147 L 13.6448,-385.577
 L 14.0451,-386.061 L 14.3815,-386.591 L 14.6489,-387.159 L 14.8429,-387.757 L 14.9606,-388.373 L 15,-389
 L 15,-439 L 14.9606,-439.627 L 14.8429,-440.243 L 14.6489,-440.841 L 14.3815,-441.409 L 14.0451,-441.939
 L 13.6448,-442.423 L 13.1871,-442.853 L 12.6791,-443.222 L 12.1289,-443.524 L 11.5451,-443.755 L 10.9369,-443.911
 L 10.3139,-443.99 L -10.3139,-443.99 L -10.9369,-443.911 L -11.5451,-443.755 L -12.1289,-443.524 L -12.6791,-443.222
 L -13.1871,-442.853 L -13.6448,-442.423 L -14.0451,-441.939 L -14.3815,-441.409 L -14.6489,-440.841 L -14.8429,-440.243
 L -14.9606,-439.627 L -15,-439 L -15,-389 L -14.9606,-388.373 L -14.8429,-387.757 L -14.6489,-387.159
 L -14.3815,-386.591 L -14.0451,-386.061 L -13.6448,-385.577 L -13.1871,-385.147 L -12.6791,-384.778 L -12.1289,-384.476
 L -11.5451,-384.245 L -10.9369,-384.089 L -10.3139,-384.01 L 10.3139,-384.01 z
M -4.81104,-384.509 L -4.32086,-384.778 L -3.81287,-385.147 L -3.35515,-385.577 L -2.95491,-386.061 L -2.61845,-386.591
 L -2.3511,-387.159 L -2.15707,-387.757 L -2.03941,-388.373 L -2,-389 L -2,-392 L -2.03941,-392.627
 L -2.15707,-393.243 L -2.3511,-393.841 L -2.61845,-394.409 L -2.95491,-394.939 L -3.35515,-395.423 L -3.81287,-395.853
 L -4.32086,-396.222 L -4.87109,-396.524 L -5.45491,-396.755 L -6.06308,-396.911 L -6.68604,-396.99 L -10.3139,-396.99
 L -10.9369,-396.911 L -11.5451,-396.755 L -12.1289,-396.524 L -12.6791,-396.222 L -13.1871,-395.853 L -13.6448,-395.423
 L -14.0451,-394.939 L -14.3815,-394.409 L -14.5,-394.157 L -14.5,-439 L -14.4645,-439.564 L -14.3586,-440.119
 L -14.184,-440.657 L -13.9434,-441.168 L -13.6406,-441.645 L -13.2803,-442.08 L -12.8684,-442.467 L -12.4112,-442.799
 L -11.916,-443.072 L -11.3906,-443.28 L -10.8432,-443.42 L -10.2825,-443.491 L 10.2825,-443.491 L 10.8432,-443.42
 L 11.3906,-443.28 L 11.916,-443.072 L 12.4112,-442.799 L 12.8684,-442.467 L 13.2803,-442.08 L 13.6406,-441.645
 L 13.9434,-441.168 L 14.184,-440.657 L 14.3586,-440.119 L 14.4645,-439.564 L 14.5,-439 L 14.5,-389
 L 14.4645,-388.436 L 14.3586,-387.881 L 14.184,-387.343 L 13.9434,-386.832 L 13.6406,-386.355 L 13.2803,-385.92
 L 12.8684,-385.533 L 12.4112,-385.201 L 11.916,-384.928 L 11.3906,-384.72 L 10.8432,-384.58 L 10.2825,-384.509
 z
M 7.96844,-434.044 L 8.27254,-434.122 L 8.56444,-434.238 L 8.83955,-434.389 L 9.09355,-434.574 L 9.32242,-434.789
 L 9.52254,-435.031 L 9.69077,-435.296 L 9.82443,-435.58 L 9.92145,-435.878 L 9.98029,-436.187 L 10,-436.5
 L 9.98029,-436.813 L 9.92145,-437.122 L 9.82443,-437.42 L 9.69077,-437.704 L 9.52254,-437.969 L 9.32242,-438.211
 L 9.09355,-438.426 L 8.83955,-438.611 L 8.56444,-438.762 L 8.27254,-438.878 L 7.96844,-438.956 L 7.65697,-438.995
 L 7.34302,-438.995 L 7.03154,-438.956 L 6.72745,-438.878 L 6.43555,-438.762 L 6.16043,-438.611 L 5.90643,-438.426
 L 5.67757,-438.211 L 5.47745,-437.969 L 5.30922,-437.704 L 5.17555,-437.42 L 5.07854,-437.122 L 5.0197,-436.813
 L 5,-436.5 L 5.0197,-436.187 L 5.07854,-435.878 L 5.17555,-435.58 L 5.30922,-435.296 L 5.47745,-435.031
 L 5.67757,-434.789 L 5.90643,-434.574 L 6.16043,-434.389 L 6.43555,-434.238 L 6.72745,-434.122 L 7.03154,-434.044
 L 7.34302,-434.005 L 7.65697,-434.005 z
M 7.40581,-435.003 L 7.21892,-435.027 L 7.03647,-435.073 L 6.86133,-435.143 L 6.69626,-435.234 L 6.54385,-435.344
 L 6.40654,-435.473 L 6.28647,-435.618 L 6.18553,-435.777 L 6.10533,-435.948 L 6.04712,-436.127 L 6.01183,-436.312
 L 6,-436.5 L 6.01183,-436.688 L 6.04712,-436.873 L 6.10533,-437.052 L 6.18553,-437.223 L 6.28647,-437.382
 L 6.40654,-437.527 L 6.54385,-437.656 L 6.69626,-437.766 L 6.86133,-437.857 L 7.03647,-437.927 L 7.21892,-437.973
 L 7.40581,-437.997 L 7.59418,-437.997 L 7.78107,-437.973 L 7.96352,-437.927 L 8.13866,-437.857 L 8.30373,-437.766
 L 8.45613,-437.656 L 8.59344,-437.527 L 8.71352,-437.382 L 8.81445,-437.223 L 8.89465,-437.052 L 8.95287,-436.873
 L 8.98816,-436.688 L 9,-436.5 L 8.98816,-436.312 L 8.95287,-436.127 L 8.89465,-435.948 L 8.81445,-435.777
 L 8.71352,-435.618 L 8.59344,-435.473 L 8.45613,-435.344 L 8.30373,-435.234 L 8.13866,-435.143 L 7.96352,-435.073
 L 7.78107,-435.027 L 7.59418,-435.003 z
M -7.59418,-390.003 L -7.78107,-390.027 L -7.96352,-390.073 L -8.13866,-390.143 L -8.30373,-390.234 L -8.45613,-390.344
 L -8.59344,-390.473 L -8.71352,-390.618 L -8.81445,-390.777 L -8.89465,-390.948 L -8.95287,-391.127 L -8.98816,-391.312
 L -9,-391.5 L -8.98816,-391.688 L -8.95287,-391.873 L -8.89465,-392.052 L -8.81445,-392.223 L -8.71352,-392.382
 L -8.59344,-392.527 L -8.45613,-392.656 L -8.30373,-392.766 L -8.13866,-392.857 L -7.96352,-392.927 L -7.78107,-392.973
 L -7.59418,-392.997 L -7.40581,-392.997 L -7.21892,-392.973 L -7.03647,-392.927 L -6.86133,-392.857 L -6.69626,-392.766
 L -6.54385,-392.656 L -6.40654,-392.527 L -6.28647,-392.382 L -6.18553,-392.223 L -6.10533,-392.052 L -6.04712,-391.873
 L -6.01183,-391.688 L -6,-391.5 L -6.01183,-391.312 L -6.04712,-391.127 L -6.10533,-390.948 L -6.18553,-390.777
 L -6.28647,-390.618 L -6.40654,-390.473 L -6.54385,-390.344 L -6.69626,-390.234 L -6.86133,-390.143 L -7.03647,-390.073
 L -7.21892,-390.027 L -7.40581,-390.003 z
M 10.9369,-315.089 L 11.5451,-315.245 L 12.1289,-315.476 L 12.6791,-315.778 L 13.1871,-316.147 L 13.6448,-316.577
 L 14.0451,-317.061 L 14.3815,-317.591 L 14.6489,-318.159 L 14.8429,-318.757 L 14.9606,-319.373 L 15,-320
 L 15,-370 L 14.9606,-370.627 L 14.8429,-371.243 L 14.6489,-371.841 L 14.3815,-372.409 L 14.0451,-372.939
 L 13.6448,-373.423 L 13.1871,-373.853 L 12.6791,-374.222 L 12.1289,-374.524 L 11.5451,-374.755 L 10.9369,-374.911
 L 10.3139,-374.99 L -10.3139,-374.99 L -10.9369,-374.911 L -11.5451,-374.755 L -12.1289,-374.524 L -12.6791,-374.222
 L -13.1871,-373.853 L -13.6448,-373.423 L -14.0451,-372.939 L -14.3815,-372.409 L -14.6489,-371.841 L -14.8429,-371.243
 L -14.9606,-370.627 L -15,-370 L -15,-320 L -14.9606,-319.373 L -14.8429,-318.757 L -14.6489,-318.159
 L -14.3815,-317.591 L -14.0451,-317.061 L -13.6448,-316.577 L -13.1871,-316.147 L -12.6791,-315.778 L -12.1289,-315.476
 L -11.5451,-315.245 L -10.9369,-315.089 L -10.3139,-315.01 L 10.3139,-315.01 z
M -4.03568,-315.986 L -3.81287,-316.147 L -3.35515,-316.577 L -2.95491,-317.061 L -2.61845,-317.591 L -2.3511,-318.159
 L -2.15707,-318.757 L -2.03941,-319.373 L -2,-320 L -2,-323 L -2.03941,-323.627 L -2.15707,-324.243
 L -2.3511,-324.841 L -2.61845,-325.409 L -2.95491,-325.939 L -3.35515,-326.423 L -3.81287,-326.853 L -4.32086,-327.222
 L -4.87109,-327.524 L -5.45491,-327.755 L -6.06308,-327.911 L -6.68604,-327.99 L -10.3139,-327.99 L -10.9369,-327.911
 L -11.5451,-327.755 L -12.1289,-327.524 L -12.6791,-327.222 L -13.1871,-326.853 L -13.6448,-326.423 L -14.0224,-325.966
 L -14.0224,-370 L -13.9907,-370.504 L -13.896,-371 L -13.7399,-371.481 L -13.5248,-371.938 L -13.2542,-372.364
 L -12.9322,-372.754 L -12.5639,-373.099 L -12.1553,-373.396 L -11.7126,-373.64 L -11.243,-373.826 L -10.7537,-373.951
 L -10.2526,-374.014 L 4.03568,-374.014 L 3.81287,-373.853 L 3.35515,-373.423 L 2.95491,-372.939 L 2.61845,-372.409
 L 2.3511,-371.841 L 2.15707,-371.243 L 2.03941,-370.627 L 2,-370 L 2,-367 L 2.03941,-366.373
 L 2.15707,-365.757 L 2.3511,-365.159 L 2.61845,-364.591 L 2.95491,-364.061 L 3.35515,-363.577 L 3.81287,-363.147
 L 4.32086,-362.778 L 4.87109,-362.476 L 5.45491,-362.245 L 6.06308,-362.089 L 6.68604,-362.01 L 10.3139,-362.01
 L 10.9369,-362.089 L 11.5451,-362.245 L 12.1289,-362.476 L 12.6791,-362.778 L 13.1871,-363.147 L 13.6448,-363.577
 L 14.0224,-364.034 L 14.0224,-320 L 13.9907,-319.496 L 13.896,-319 L 13.7399,-318.519 L 13.5248,-318.062
 L 13.2542,-317.636 L 12.9322,-317.246 L 12.5639,-316.901 L 12.1553,-316.604 L 11.7126,-316.36 L 11.243,-316.174
 L 10.7537,-316.049 L 10.2526,-315.986 z
M 7.40581,-366.003 L 7.21892,-366.027 L 7.03647,-366.073 L 6.86133,-366.143 L 6.69626,-366.234 L 6.54385,-366.344
 L 6.40654,-366.473 L 6.28647,-366.618 L 6.18553,-366.777 L 6.10533,-366.948 L 6.04712,-367.127 L 6.01183,-367.312
 L 6,-367.5 L 6.01183,-367.688 L 6.04712,-367.873 L 6.10533,-368.052 L 6.18553,-368.223 L 6.28647,-368.382
 L 6.40654,-368.527 L 6.54385,-368.656 L 6.69626,-368.766 L 6.86133,-368.857 L 7.03647,-368.927 L 7.21892,-368.973
 L 7.40581,-368.997 L 7.59418,-368.997 L 7.78107,-368.973 L 7.96352,-368.927 L 8.13866,-368.857 L 8.30373,-368.766
 L 8.45613,-368.656 L 8.59344,-368.527 L 8.71352,-368.382 L 8.81445,-368.223 L 8.89465,-368.052 L 8.95287,-367.873
 L 8.98816,-367.688 L 9,-367.5 L 8.98816,-367.312 L 8.95287,-367.127 L 8.89465,-366.948 L 8.81445,-366.777
 L 8.71352,-366.618 L 8.59344,-366.473 L 8.45613,-366.344 L 8.30373,-366.234 L 8.13866,-366.143 L 7.96352,-366.073
 L 7.78107,-366.027 L 7.59418,-366.003 z
M -7.59418,-321.003 L -7.78107,-321.027 L -7.96352,-321.073 L -8.13866,-321.143 L -8.30373,-321.234 L -8.45613,-321.344
 L -8.59344,-321.473 L -8.71352,-321.618 L -8.81445,-321.777 L -8.89465,-321.948 L -8.95287,-322.127 L -8.98816,-322.312
 L -9,-322.5 L -8.98816,-322.688 L -8.95287,-322.873 L -8.89465,-323.052 L -8.81445,-323.223 L -8.71352,-323.382
 L -8.59344,-323.527 L -8.45613,-323.656 L -8.30373,-323.766 L -8.13866,-323.857 L -7.96352,-323.927 L -7.78107,-323.973
 L -7.59418,-323.997 L -7.40581,-323.997 L -7.21892,-323.973 L -7.03647,-323.927 L -6.86133,-323.857 L -6.69626,-323.766
 L -6.54385,-323.656 L -6.40654,-323.527 L -6.28647,-323.382 L -6.18553,-323.223 L -6.10533,-323.052 L -6.04712,-322.873
 L -6.01183,-322.688 L -6,-322.5 L -6.01183,-322.312 L -6.04712,-322.127 L -6.10533,-321.948 L -6.18553,-321.777
 L -6.28647,-321.618 L -6.40654,-321.473 L -6.54385,-321.344 L -6.69626,-321.234 L -6.86133,-321.143 L -7.03647,-321.073
 L -7.21892,-321.027 L -7.40581,-321.003 z
M 10.9369,-246.089 L 11.5451,-246.245 L 12.1289,-246.476 L 12.6791,-246.778 L 13.1871,-247.147 L 13.6448,-247.577
 L 14.0451,-248.061 L 14.3815,-248.591 L 14.6489,-249.159 L 14.8429,-249.757 L 14.9606,-250.373 L 15,-251
 L 15,-301 L 14.9606,-301.627 L 14.8429,-302.243 L 14.6489,-302.841 L 14.3815,-303.409 L 14.0451,-303.939
 L 13.6448,-304.423 L 13.1871,-304.853 L 12.6791,-305.222 L 12.1289,-305.524 L 11.5451,-305.755 L 10.9369,-305.911
 L 10.3139,-305.99 L -10.3139,-305.99 L -10.9369,-305.911 L -11.5451,-305.755 L -12.1289,-305.524 L -12.6791,-305.222
 L -13.1871,-304.853 L -13.6448,-304.423 L -14.0451,-303.939 L -14.3815,-303.409 L -14.6489,-302.841 L -14.8429,-302.243
 L -14.9606,-301.627 L -15,-301 L -15,-251 L -14.9606,-250.373 L -14.8429,-249.757 L -14.6489,-249.159
 L -14.3815,-248.591 L -14.0451,-248.061 L -13.6448,-247.577 L -13.1871,-247.147 L -12.6791,-246.778 L -12.1289,-246.476
 L -11.5451,-246.245 L -10.9369,-246.089 L -10.3139,-246.01 L 10.3139,-246.01 z
M 7.34929,-296.105 L 7.05028,-296.143 L 6.75835,-296.217 L 6.47812,-296.328 L 6.214,-296.474 L 5.97017,-296.651
 L 5.75047,-296.857 L 5.55835,-297.089 L 5.39685,-297.344 L 5.26852,-297.617 L 5.1754,-297.903 L 5.11891,-298.199
 L 5.09999,-298.5 L 5.11891,-298.801 L 5.1754,-299.097 L 5.26852,-299.383 L 5.39685,-299.656 L 5.55835,-299.911
 L 5.75047,-300.143 L 5.97017,-300.349 L 6.214,-300.526 L 6.47812,-300.672 L 6.75835,-300.783 L 7.05028,-300.857
 L 7.34929,-300.895 L 7.6507,-300.895 L 7.94971,-300.857 L 8.24164,-300.783 L 8.52187,-300.672 L 8.78598,-300.526
 L 9.02982,-300.349 L 9.24951,-300.143 L 9.44164,-299.911 L 9.60313,-299.656 L 9.73146,-299.383 L 9.82458,-299.097
 L 9.88107,-298.801 L 9.89999,-298.5 L 9.88107,-298.199 L 9.82458,-297.903 L 9.73146,-297.617 L 9.60313,-297.344
 L 9.44164,-297.089 L 9.24951,-296.857 L 9.02982,-296.651 L 8.78598,-296.474 L 8.52187,-296.328 L 8.24164,-296.217
 L 7.94971,-296.143 L 7.6507,-296.105 z
M -7.59418,-297.003 L -7.78107,-297.027 L -7.96352,-297.073 L -8.13866,-297.143 L -8.30373,-297.234 L -8.45613,-297.344
 L -8.59344,-297.473 L -8.71352,-297.618 L -8.81445,-297.777 L -8.89465,-297.948 L -8.95287,-298.127 L -8.98816,-298.312
 L -9,-298.5 L -8.98816,-298.688 L -8.95287,-298.873 L -8.89465,-299.052 L -8.81445,-299.223 L -8.71352,-299.382
 L -8.59344,-299.527 L -8.45613,-299.656 L -8.30373,-299.766 L -8.13866,-299.857 L -7.96352,-299.927 L -7.78107,-299.973
 L -7.59418,-299.997 L -7.40581,-299.997 L -7.21892,-299.973 L -7.03647,-299.927 L -6.86133,-299.857 L -6.69626,-299.766
 L -6.54385,-299.656 L -6.40654,-299.527 L -6.28647,-299.382 L -6.18553,-299.223 L -6.10533,-299.052 L -6.04712,-298.873
 L -6.01183,-298.688 L -6,-298.5 L -6.01183,-298.312 L -6.04712,-298.127 L -6.10533,-297.948 L -6.18553,-297.777
 L -6.28647,-297.618 L -6.40654,-297.473 L -6.54385,-297.344 L -6.69626,-297.234 L -6.86133,-297.143 L -7.03647,-297.073
 L -7.21892,-297.027 L -7.40581,-297.003 z
M -7.6507,-251.105 L -7.94971,-251.143 L -8.24164,-251.217 L -8.52187,-251.328 L -8.78598,-251.474 L -9.02982,-251.651
 L -9.24951,-251.857 L -9.44164,-252.089 L -9.60313,-252.344 L -9.73146,-252.617 L -9.82458,-252.903 L -9.88107,-253.199
 L -9.89999,-253.5 L -9.88107,-253.801 L -9.82458,-254.097 L -9.73146,-254.383 L -9.60313,-254.656 L -9.44164,-254.911
 L -9.24951,-255.143 L -9.02982,-255.349 L -8.78598,-255.526 L -8.52187,-255.672 L -8.24164,-255.783 L -7.94971,-255.857
 L -7.6507,-255.895 L -7.34929,-255.895 L -7.05028,-255.857 L -6.75835,-255.783 L -6.47812,-255.672 L -6.214,-255.526
 L -5.97017,-255.349 L -5.75047,-255.143 L -5.55835,-254.911 L -5.39685,-254.656 L -5.26852,-254.383 L -5.1754,-254.097
 L -5.11891,-253.801 L -5.09999,-253.5 L -5.11891,-253.199 L -5.1754,-252.903 L -5.26852,-252.617 L -5.39685,-252.344
 L -5.55835,-252.089 L -5.75047,-251.857 L -5.97017,-251.651 L -6.214,-251.474 L -6.47812,-251.328 L -6.75835,-251.217
 L -7.05028,-251.143 L -7.34929,-251.105 z
M 7.40581,-252.003 L 7.21892,-252.027 L 7.03647,-252.073 L 6.86133,-252.143 L 6.69626,-252.234 L 6.54385,-252.344
 L 6.40654,-252.473 L 6.28647,-252.618 L 6.18553,-252.777 L 6.10533,-252.948 L 6.04712,-253.127 L 6.01183,-253.312
 L 6,-253.5 L 6.01183,-253.688 L 6.04712,-253.873 L 6.10533,-254.052 L 6.18553,-254.223 L 6.28647,-254.382
 L 6.40654,-254.527 L 6.54385,-254.656 L 6.69626,-254.766 L 6.86133,-254.857 L 7.03647,-254.927 L 7.21892,-254.973
 L 7.40581,-254.997 L 7.59418,-254.997 L 7.78107,-254.973 L 7.96352,-254.927 L 8.13866,-254.857 L 8.30373,-254.766
 L 8.45613,-254.656 L 8.59344,-254.527 L 8.71352,-254.382 L 8.81445,-254.223 L 8.89465,-254.052 L 8.95287,-253.873
 L 8.98816,-253.688 L 9,-253.5 L 8.98816,-253.312 L 8.95287,-253.127 L 8.89465,-252.948 L 8.81445,-252.777
 L 8.71352,-252.618 L 8.59344,-252.473 L 8.45613,-252.344 L 8.30373,-252.234 L 8.13866,-252.143 L 7.96352,-252.073
 L 7.78107,-252.027 L 7.59418,-252.003 z
" stroke="black" fill="lightgray" stroke-width="0.5"/>
</svg>
