<?xml version="1.0" standalone="no"?>
<!DOCTYPE svg PUBLIC "-//W3C//DTD SVG 1.1//EN" "http://www.w3.org/Graphics/SVG/1.1/DTD/svg11.dtd">
<svg width="45mm" height="44mm" viewBox="0 -76 45 44" xmlns="http://www.w3.org/2000/svg" version="1.1">
<title>OpenSCAD Model</title>
<path d="
M 40.4369,-32.0886 L 41.0451,-32.2447 L 41.6289,-32.4759 L 42.1791,-32.7784 L 42.6871,-33.1474 L 43.1448,-33.5773
 L 43.5451,-34.0611 L 43.8815,-34.5912 L 44.1489,-35.1594 L 44.3429,-35.7566 L 44.4606,-36.3733 L 44.5,-37
 L 44.5,-71 L 44.4606,-71.6267 L 44.3429,-72.2434 L 44.1489,-72.8406 L 43.8815,-73.4088 L 43.5451,-73.9389
 L 43.1448,-74.4227 L 42.6871,-74.8526 L 42.1791,-75.2216 L 41.6289,-75.5241 L 41.0451,-75.7553 L 40.4369,-75.9114
 L 39.8139,-75.9901 L 5.18604,-75.9901 L 4.56308,-75.9114 L 3.95491,-75.7553 L 3.37109,-75.5241 L 2.82086,-75.2216
 L 2.31287,-74.8526 L 1.85515,-74.4227 L 1.45491,-73.9389 L 1.11845,-73.4088 L 0.851105,-72.8406 L 0.657074,-72.2434
 L 0.539413,-71.6267 L 0.5,-71 L 0.5,-59.08 L 6.35399,-59.08 L 6.35399,-48.92 L 0.5,-48.92
 L 0.5,-46.4971 L 0.594177,-46.4971 L 0.781067,-46.4734 L 0.963516,-46.4266 L 1.13866,-46.3573 L 1.30373,-46.2665
 L 1.45613,-46.1558 L 1.59344,-46.0268 L 1.71352,-45.8817 L 1.81445,-45.7226 L 1.89465,-45.5522 L 1.95287,-45.373
 L 1.98816,-45.188 L 2,-45 L 1.98816,-44.812 L 1.95287,-44.627 L 1.89465,-44.4478 L 1.81445,-44.2774
 L 1.71352,-44.1183 L 1.59344,-43.9732 L 1.45613,-43.8442 L 1.30373,-43.7335 L 1.13866,-43.6428 L 0.963516,-43.5734
 L 0.781067,-43.5266 L 0.594177,-43.503 L 0.5,-43.503 L 0.5,-37 L 0.539413,-36.3733 L 0.657074,-35.7566
 L 0.851105,-35.1594 L 1.11845,-34.5912 L 1.45491,-34.0611 L 1.85515,-33.5773 L 2.31287,-33.1474 L 2.82086,-32.7784
 L 3.37109,-32.4759 L 3.95491,-32.2447 L 4.56308,-32.0886 L 5.18604,-32.0099 L 39.8139,-32.0099 z
M 37.3116,-66.0059 L 36.9379,-66.0531 L 36.5729,-66.1468 L 36.2227,-66.2855 L 35.8925,-66.467 L 35.5877,-66.6884
 L 35.3131,-66.9464 L 35.0729,-67.2366 L 34.8711,-67.5547 L 34.7107,-67.8956 L 34.5942,-68.2539 L 34.5237,-68.624
 L 34.5,-69 L 34.5237,-69.376 L 34.5942,-69.7461 L 34.7107,-70.1044 L 34.8711,-70.4453 L 35.0729,-70.7634
 L 35.3131,-71.0536 L 35.5877,-71.3115 L 35.8925,-71.533 L 36.2227,-71.7145 L 36.5729,-71.8532 L 36.9379,-71.9469
 L 37.3116,-71.9941 L 37.6884,-71.9941 L 38.0621,-71.9469 L 38.427,-71.8532 L 38.7773,-71.7145 L 39.1075,-71.533
 L 39.4123,-71.3115 L 39.6869,-71.0536 L 39.927,-70.7634 L 40.1289,-70.4453 L 40.2893,-70.1044 L 40.4057,-69.7461
 L 40.4763,-69.376 L 40.5,-69 L 40.4763,-68.624 L 40.4057,-68.2539 L 40.2893,-67.8956 L 40.1289,-67.5547
 L 39.927,-67.2366 L 39.6869,-66.9464 L 39.4123,-66.6884 L 39.1075,-66.467 L 38.7773,-66.2855 L 38.427,-66.1468
 L 38.0621,-66.0531 L 37.6884,-66.0059 z
M 7.31161,-66.0059 L 6.93785,-66.0531 L 6.57294,-66.1468 L 6.22266,-66.2855 L 5.89252,-66.467 L 5.58772,-66.6884
 L 5.31308,-66.9464 L 5.07294,-67.2366 L 4.87108,-67.5547 L 4.71066,-67.8956 L 4.59424,-68.2539 L 4.52365,-68.624
 L 4.5,-69 L 4.52365,-69.376 L 4.59424,-69.7461 L 4.71066,-70.1044 L 4.87108,-70.4453 L 5.07294,-70.7634
 L 5.31308,-71.0536 L 5.58772,-71.3115 L 5.89252,-71.533 L 6.22266,-71.7145 L 6.57294,-71.8532 L 6.93785,-71.9469
 L 7.31161,-71.9941 L 7.68837,-71.9941 L 8.06213,-71.9469 L 8.42705,-71.8532 L 8.77733,-71.7145 L 9.10747,-71.533
 L 9.41226,-71.3115 L 9.6869,-71.0536 L 9.92705,-70.7634 L 10.1289,-70.4453 L 10.2893,-70.1044 L 10.4057,-69.7461
 L 10.4763,-69.376 L 10.5,-69 L 10.4763,-68.624 L 10.4057,-68.2539 L 10.2893,-67.8956 L 10.1289,-67.5547
 L 9.92705,-67.2366 L 9.6869,-66.9464 L 9.41226,-66.6884 L 9.10747,-66.467 L 8.77733,-66.2855 L 8.42705,-66.1468
 L 8.06213,-66.0531 L 7.68837,-66.0059 z
M 20.8267,-66.1018 L 19.1534,-69 L 20.8267,-71.8982 L 24.1733,-71.8982 L 25.8466,-69 L 24.1733,-66.1018
 z
M 29.9058,-67.5029 L 29.7189,-67.5266 L 29.5365,-67.5734 L 29.3613,-67.6427 L 29.1963,-67.7335 L 29.0439,-67.8442
 L 28.9065,-67.9732 L 28.7865,-68.1183 L 28.6855,-68.2774 L 28.6053,-68.4478 L 28.5471,-68.627 L 28.5118,-68.812
 L 28.5,-69 L 28.5118,-69.188 L 28.5471,-69.373 L 28.6053,-69.5522 L 28.6855,-69.7226 L 28.7865,-69.8817
 L 28.9065,-70.0268 L 29.0439,-70.1558 L 29.1963,-70.2665 L 29.3613,-70.3572 L 29.5365,-70.4266 L 29.7189,-70.4734
 L 29.9058,-70.497 L 30.0942,-70.497 L 30.2811,-70.4734 L 30.4635,-70.4266 L 30.6387,-70.3572 L 30.8037,-70.2665
 L 30.9561,-70.1558 L 31.0934,-70.0268 L 31.2135,-69.8817 L 31.3145,-69.7226 L 31.3947,-69.5522 L 31.4529,-69.373
 L 31.4882,-69.188 L 31.5,-69 L 31.4882,-68.812 L 31.4529,-68.627 L 31.3947,-68.4478 L 31.3145,-68.2774
 L 31.2135,-68.1183 L 31.0934,-67.9732 L 30.9561,-67.8442 L 30.8037,-67.7335 L 30.6387,-67.6427 L 30.4635,-67.5734
 L 30.2811,-67.5266 L 30.0942,-67.5029 z
M 14.9058,-67.5029 L 14.7189,-67.5266 L 14.5365,-67.5734 L 14.3613,-67.6427 L 14.1963,-67.7335 L 14.0439,-67.8442
 L 13.9065,-67.9732 L 13.7865,-68.1183 L 13.6855,-68.2774 L 13.6053,-68.4478 L 13.5471,-68.627 L 13.5118,-68.812
 L 13.5,-69 L 13.5118,-69.188 L 13.5471,-69.373 L 13.6053,-69.5522 L 13.6855,-69.7226 L 13.7865,-69.8817
 L 13.9065,-70.0268 L 14.0439,-70.1558 L 14.1963,-70.2665 L 14.3613,-70.3572 L 14.5365,-70.4266 L 14.7189,-70.4734
 L 14.9058,-70.497 L 15.0942,-70.497 L 15.2811,-70.4734 L 15.4635,-70.4266 L 15.6387,-70.3572 L 15.8037,-70.2665
 L 15.9561,-70.1558 L 16.0934,-70.0268 L 16.2135,-69.8817 L 16.3145,-69.7226 L 16.3947,-69.5522 L 16.4529,-69.373
 L 16.4882,-69.188 L 16.5,-69 L 16.4882,-68.812 L 16.4529,-68.627 L 16.3947,-68.4478 L 16.3145,-68.2774
 L 16.2135,-68.1183 L 16.0934,-67.9732 L 15.9561,-67.8442 L 15.8037,-67.7335 L 15.6387,-67.6427 L 15.4635,-67.5734
 L 15.2811,-67.5266 L 15.0942,-67.5029 z
M 14.9058,-60.0029 L 14.7189,-60.0266 L 14.5365,-60.0734 L 14.3613,-60.1427 L 14.1963,-60.2335 L 14.0439,-60.3442
 L 13.9065,-60.4732 L 13.7865,-60.6183 L 13.6855,-60.7774 L 13.6053,-60.9478 L 13.5471,-61.127 L 13.5118,-61.312
 L 13.5,-61.5 L 13.5118,-61.688 L 13.5471,-61.873 L 13.6053,-62.0522 L 13.6855,-62.2226 L 13.7865,-62.3817
 L 13.9065,-62.5268 L 14.0439,-62.6558 L 14.1963,-62.7665 L 14.3613,-62.8572 L 14.5365,-62.9266 L 14.7189,-62.9734
 L 14.9058,-62.997 L 15.0942,-62.997 L 15.2811,-62.9734 L 15.4635,-62.9266 L 15.6387,-62.8572 L 15.8037,-62.7665
 L 15.9561,-62.6558 L 16.0934,-62.5268 L 16.2135,-62.3817 L 16.3145,-62.2226 L 16.3947,-62.0522 L 16.4529,-61.873
 L 16.4882,-61.688 L 16.5,-61.5 L 16.4882,-61.312 L 16.4529,-61.127 L 16.3947,-60.9478 L 16.3145,-60.7774
 L 16.2135,-60.6183 L 16.0934,-60.4732 L 15.9561,-60.3442 L 15.8037,-60.2335 L 15.6387,-60.1427 L 15.4635,-60.0734
 L 15.2811,-60.0266 L 15.0942,-60.0029 z
M 37.4058,-60.0029 L 37.2189,-60.0266 L 37.0365,-60.0734 L 36.8613,-60.1427 L 36.6963,-60.2335 L 36.5439,-60.3442
 L 36.4065,-60.4732 L 36.2865,-60.6183 L 36.1855,-60.7774 L 36.1053,-60.9478 L 36.0471,-61.127 L 36.0118,-61.312
 L 36,-61.5 L 36.0118,-61.688 L 36.0471,-61.873 L 36.1053,-62.0522 L 36.1855,-62.2226 L 36.2865,-62.3817
 L 36.4065,-62.5268 L 36.5439,-62.6558 L 36.6963,-62.7665 L 36.8613,-62.8572 L 37.0365,-62.9266 L 37.2189,-62.9734
 L 37.4058,-62.997 L 37.5942,-62.997 L 37.7811,-62.9734 L 37.9635,-62.9266 L 38.1387,-62.8572 L 38.3037,-62.7665
 L 38.4561,-62.6558 L 38.5934,-62.5268 L 38.7135,-62.3817 L 38.8145,-62.2226 L 38.8947,-62.0522 L 38.9529,-61.873
 L 38.9882,-61.688 L 39,-61.5 L 38.9882,-61.312 L 38.9529,-61.127 L 38.8947,-60.9478 L 38.8145,-60.7774
 L 38.7135,-60.6183 L 38.5934,-60.4732 L 38.4561,-60.3442 L 38.3037,-60.2335 L 38.1387,-60.1427 L 37.9635,-60.0734
 L 37.7811,-60.0266 L 37.5942,-60.0029 z
M 6.5,-46.38 L 6.5,-61.62 L 9.03999,-61.62 L 9.03999,-59.08 L 23.038,-59.08 L 23.038,-51.46
 L 9.03999,-51.46 L 9.03999,-46.38 z
M 25.044,-49 L 25.044,-52.46 L 23.067,-52.46 L 23.067,-58.08 L 25.044,-58.08 L 25.044,-59
 L 32.044,-59 L 32.044,-49 z
M 37.3116,-51.0059 L 36.9379,-51.0531 L 36.5729,-51.1468 L 36.2227,-51.2855 L 35.8925,-51.467 L 35.5877,-51.6885
 L 35.3131,-51.9464 L 35.0729,-52.2366 L 34.8711,-52.5547 L 34.7107,-52.8956 L 34.5942,-53.2539 L 34.5237,-53.624
 L 34.5,-54 L 34.5237,-54.376 L 34.5942,-54.7461 L 34.7107,-55.1044 L 34.8711,-55.4453 L 35.0729,-55.7634
 L 35.3131,-56.0536 L 35.5877,-56.3115 L 35.8925,-56.533 L 36.2227,-56.7145 L 36.5729,-56.8532 L 36.9379,-56.9469
 L 37.3116,-56.9941 L 37.6884,-56.9941 L 38.0621,-56.9469 L 38.427,-56.8532 L 38.7773,-56.7145 L 39.1075,-56.533
 L 39.4123,-56.3115 L 39.6869,-56.0536 L 39.927,-55.7634 L 40.1289,-55.4453 L 40.2893,-55.1044 L 40.4057,-54.7461
 L 40.4763,-54.376 L 40.5,-54 L 40.4763,-53.624 L 40.4057,-53.2539 L 40.2893,-52.8956 L 40.1289,-52.5547
 L 39.927,-52.2366 L 39.6869,-51.9464 L 39.4123,-51.6885 L 39.1075,-51.467 L 38.7773,-51.2855 L 38.427,-51.1468
 L 38.0621,-51.0531 L 37.6884,-51.0059 z
M 14.9058,-45.003 L 14.7189,-45.0266 L 14.5365,-45.0734 L 14.3613,-45.1428 L 14.1963,-45.2335 L 14.0439,-45.3442
 L 13.9065,-45.4732 L 13.7865,-45.6183 L 13.6855,-45.7774 L 13.6053,-45.9478 L 13.5471,-46.127 L 13.5118,-46.312
 L 13.5,-46.5 L 13.5118,-46.688 L 13.5471,-46.873 L 13.6053,-47.0522 L 13.6855,-47.2226 L 13.7865,-47.3817
 L 13.9065,-47.5268 L 14.0439,-47.6558 L 14.1963,-47.7665 L 14.3613,-47.8573 L 14.5365,-47.9266 L 14.7189,-47.9734
 L 14.9058,-47.9971 L 15.0942,-47.9971 L 15.2811,-47.9734 L 15.4635,-47.9266 L 15.6387,-47.8573 L 15.8037,-47.7665
 L 15.9561,-47.6558 L 16.0934,-47.5268 L 16.2135,-47.3817 L 16.3145,-47.2226 L 16.3947,-47.0522 L 16.4529,-46.873
 L 16.4882,-46.688 L 16.5,-46.5 L 16.4882,-46.312 L 16.4529,-46.127 L 16.3947,-45.9478 L 16.3145,-45.7774
 L 16.2135,-45.6183 L 16.0934,-45.4732 L 15.9561,-45.3442 L 15.8037,-45.2335 L 15.6387,-45.1428 L 15.4635,-45.0734
 L 15.2811,-45.0266 L 15.0942,-45.003 z
M 37.4058,-45.003 L 37.2189,-45.0266 L 37.0365,-45.0734 L 36.8613,-45.1428 L 36.6963,-45.2335 L 36.5439,-45.3442
 L 36.4065,-45.4732 L 36.2865,-45.6183 L 36.1855,-45.7774 L 36.1053,-45.9478 L 36.0471,-46.127 L 36.0118,-46.312
 L 36,-46.5 L 36.0118,-46.688 L 36.0471,-46.873 L 36.1053,-47.0522 L 36.1855,-47.2226 L 36.2865,-47.3817
 L 36.4065,-47.5268 L 36.5439,-47.6558 L 36.6963,-47.7665 L 36.8613,-47.8573 L 37.0365,-47.9266 L 37.2189,-47.9734
 L 37.4058,-47.9971 L 37.5942,-47.9971 L 37.7811,-47.9734 L 37.9635,-47.9266 L 38.1387,-47.8573 L 38.3037,-47.7665
 L 38.4561,-47.6558 L 38.5934,-47.5268 L 38.7135,-47.3817 L 38.8145,-47.2226 L 38.8947,-47.0522 L 38.9529,-46.873
 L 38.9882,-46.688 L 39,-46.5 L 38.9882,-46.312 L 38.9529,-46.127 L 38.8947,-45.9478 L 38.8145,-45.7774
 L 38.7135,-45.6183 L 38.5934,-45.4732 L 38.4561,-45.3442 L 38.3037,-45.2335 L 38.1387,-45.1428 L 37.9635,-45.0734
 L 37.7811,-45.0266 L 37.5942,-45.003 z
M 37.3116,-36.0059 L 36.9379,-36.0531 L 36.5729,-36.1468 L 36.2227,-36.2855 L 35.8925,-36.467 L 35.5877,-36.6885
 L 35.3131,-36.9464 L 35.0729,-37.2366 L 34.8711,-37.5547 L 34.7107,-37.8956 L 34.5942,-38.2539 L 34.5237,-38.624
 L 34.5,-39 L 34.5237,-39.376 L 34.5942,-39.7461 L 34.7107,-40.1044 L 34.8711,-40.4453 L 35.0729,-40.7634
 L 35.3131,-41.0536 L 35.5877,-41.3116 L 35.8925,-41.533 L 36.2227,-41.7145 L 36.5729,-41.8532 L 36.9379,-41.9469
 L 37.3116,-41.9941 L 37.6884,-41.9941 L 38.0621,-41.9469 L 38.427,-41.8532 L 38.7773,-41.7145 L 39.1075,-41.533
 L 39.4123,-41.3116 L 39.6869,-41.0536 L 39.927,-40.7634 L 40.1289,-40.4453 L 40.2893,-40.1044 L 40.4057,-39.7461
 L 40.4763,-39.376 L 40.5,-39 L 40.4763,-38.624 L 40.4057,-38.2539 L 40.2893,-37.8956 L 40.1289,-37.5547
 L 39.927,-37.2366 L 39.6869,-36.9464 L 39.4123,-36.6885 L 39.1075,-36.467 L 38.7773,-36.2855 L 38.427,-36.1468
 L 38.0621,-36.0531 L 37.6884,-36.0059 z
M 7.31161,-36.0059 L 6.93785,-36.0531 L 6.57294,-36.1468 L 6.22266,-36.2855 L 5.89252,-36.467 L 5.58772,-36.6885
 L 5.31308,-36.9464 L 5.07294,-37.2366 L 4.87108,-37.5547 L 4.71066,-37.8956 L 4.59424,-38.2539 L 4.52365,-38.624
 L 4.5,-39 L 4.52365,-39.376 L 4.59424,-39.7461 L 4.71066,-40.1044 L 4.87108,-40.4453 L 5.07294,-40.7634
 L 5.31308,-41.0536 L 5.58772,-41.3116 L 5.89252,-41.533 L 6.22266,-41.7145 L 6.57294,-41.8532 L 6.93785,-41.9469
 L 7.31161,-41.9941 L 7.68837,-41.9941 L 8.06213,-41.9469 L 8.42705,-41.8532 L 8.77733,-41.7145 L 9.10747,-41.533
 L 9.41226,-41.3116 L 9.6869,-41.0536 L 9.92705,-40.7634 L 10.1289,-40.4453 L 10.2893,-40.1044 L 10.4057,-39.7461
 L 10.4763,-39.376 L 10.5,-39 L 10.4763,-38.624 L 10.4057,-38.2539 L 10.2893,-37.8956 L 10.1289,-37.5547
 L 9.92705,-37.2366 L 9.6869,-36.9464 L 9.41226,-36.6885 L 9.10747,-36.467 L 8.77733,-36.2855 L 8.42705,-36.1468
 L 8.06213,-36.0531 L 7.68837,-36.0059 z
M 20.8267,-36.1018 L 19.1534,-39 L 20.8267,-41.8982 L 24.1733,-41.8982 L 25.8466,-39 L 24.1733,-36.1018
 z
M 14.9058,-37.503 L 14.7189,-37.5266 L 14.5365,-37.5734 L 14.3613,-37.6428 L 14.1963,-37.7335 L 14.0439,-37.8442
 L 13.9065,-37.9732 L 13.7865,-38.1183 L 13.6855,-38.2774 L 13.6053,-38.4478 L 13.5471,-38.627 L 13.5118,-38.812
 L 13.5,-39 L 13.5118,-39.188 L 13.5471,-39.373 L 13.6053,-39.5522 L 13.6855,-39.7226 L 13.7865,-39.8817
 L 13.9065,-40.0268 L 14.0439,-40.1558 L 14.1963,-40.2665 L 14.3613,-40.3573 L 14.5365,-40.4266 L 14.7189,-40.4734
 L 14.9058,-40.4971 L 15.0942,-40.4971 L 15.2811,-40.4734 L 15.4635,-40.4266 L 15.6387,-40.3573 L 15.8037,-40.2665
 L 15.9561,-40.1558 L 16.0934,-40.0268 L 16.2135,-39.8817 L 16.3145,-39.7226 L 16.3947,-39.5522 L 16.4529,-39.373
 L 16.4882,-39.188 L 16.5,-39 L 16.4882,-38.812 L 16.4529,-38.627 L 16.3947,-38.4478 L 16.3145,-38.2774
 L 16.2135,-38.1183 L 16.0934,-37.9732 L 15.9561,-37.8442 L 15.8037,-37.7335 L 15.6387,-37.6428 L 15.4635,-37.5734
 L 15.2811,-37.5266 L 15.0942,-37.503 z
M 29.9058,-37.503 L 29.7189,-37.5266 L 29.5365,-37.5734 L 29.3613,-37.6428 L 29.1963,-37.7335 L 29.0439,-37.8442
 L 28.9065,-37.9732 L 28.7865,-38.1183 L 28.6855,-38.2774 L 28.6053,-38.4478 L 28.5471,-38.627 L 28.5118,-38.812
 L 28.5,-39 L 28.5118,-39.188 L 28.5471,-39.373 L 28.6053,-39.5522 L 28.6855,-39.7226 L 28.7865,-39.8817
 L 28.9065,-40.0268 L 29.0439,-40.1558 L 29.1963,-40.2665 L 29.3613,-40.3573 L 29.5365,-40.4266 L 29.7189,-40.4734
 L 29.9058,-40.4971 L 30.0942,-40.4971 L 30.2811,-40.4734 L 30.4635,-40.4266 L 30.6387,-40.3573 L 30.8037,-40.2665
 L 30.9561,-40.1558 L 31.0934,-40.0268 L 31.2135,-39.8817 L 31.3145,-39.7226 L 31.3947,-39.5522 L 31.4529,-39.373
 L 31.4882,-39.188 L 31.5,-39 L 31.4882,-38.812 L 31.4529,-38.627 L 31.3947,-38.4478 L 31.3145,-38.2774
 L 31.2135,-38.1183 L 31.0934,-37.9732 L 30.9561,-37.8442 L 30.8037,-37.7335 L 30.6387,-37.6428 L 30.4635,-37.5734
 L 30.2811,-37.5266 L 30.0942,-37.503 z
" stroke="black" fill="lightgray" stroke-width="0.5"/>
</svg>
