<?xml version="1.0" standalone="no"?>
<!DOCTYPE svg PUBLIC "-//W3C//DTD SVG 1.1//EN" "http://www.w3.org/Graphics/SVG/1.1/DTD/svg11.dtd">
<svg width="104mm" height="93mm" viewBox="-52 -93 104 93" xmlns="http://www.w3.org/2000/svg" version="1.1">
<title>OpenSCAD Model</title>
<path d="
M 52,-87.5 L 51.9606,-88.1267 L 51.8429,-88.7434 L 51.6489,-89.3406 L 51.3815,-89.9088 L 51.0451,-90.4389
 L 50.6448,-90.9227 L 50.1871,-91.3526 L 49.6791,-91.7216 L 49.1289,-92.0241 L 48.5451,-92.2553 L 47.9369,-92.4114
 L 47.3139,-92.4901 L -47.3139,-92.4901 L -47.9369,-92.4114 L -48.5451,-92.2553 L -49.1289,-92.0241 L -49.6791,-91.7216
 L -50.1871,-91.3526 L -50.6448,-90.9227 L -51.0451,-90.4389 L -51.3815,-89.9088 L -51.6489,-89.3406 L -51.8429,-88.7434
 L -51.9606,-88.1267 L -52,-87.5 L -52,-72 L 52,-72 z
M -30.1884,-82.5059 L -30.5621,-82.5531 L -30.927,-82.6468 L -31.2773,-82.7855 L -31.6075,-82.967 L -31.9123,-83.1884
 L -32.1869,-83.4464 L -32.427,-83.7366 L -32.6289,-84.0547 L -32.7893,-84.3956 L -32.9057,-84.7539 L -32.9763,-85.124
 L -33,-85.5 L -32.9763,-85.876 L -32.9057,-86.2461 L -32.7893,-86.6044 L -32.6289,-86.9453 L -32.427,-87.2634
 L -32.1869,-87.5536 L -31.9123,-87.8115 L -31.6075,-88.033 L -31.2773,-88.2145 L -30.927,-88.3532 L -30.5621,-88.4469
 L -30.1884,-88.4941 L -29.8116,-88.4941 L -29.4379,-88.4469 L -29.0729,-88.3532 L -28.7227,-88.2145 L -28.3925,-88.033
 L -28.0877,-87.8115 L -27.8131,-87.5536 L -27.5729,-87.2634 L -27.3711,-86.9453 L -27.2107,-86.6044 L -27.0942,-86.2461
 L -27.0237,-85.876 L -27,-85.5 L -27.0237,-85.124 L -27.0942,-84.7539 L -27.2107,-84.3956 L -27.3711,-84.0547
 L -27.5729,-83.7366 L -27.8131,-83.4464 L -28.0877,-83.1884 L -28.3925,-82.967 L -28.7227,-82.7855 L -29.0729,-82.6468
 L -29.4379,-82.5531 L -29.8116,-82.5059 z
M 14.8116,-82.5059 L 14.4379,-82.5531 L 14.0729,-82.6468 L 13.7227,-82.7855 L 13.3925,-82.967 L 13.0877,-83.1884
 L 12.8131,-83.4464 L 12.5729,-83.7366 L 12.3711,-84.0547 L 12.2107,-84.3956 L 12.0942,-84.7539 L 12.0237,-85.124
 L 12,-85.5 L 12.0237,-85.876 L 12.0942,-86.2461 L 12.2107,-86.6044 L 12.3711,-86.9453 L 12.5729,-87.2634
 L 12.8131,-87.5536 L 13.0877,-87.8115 L 13.3925,-88.033 L 13.7227,-88.2145 L 14.0729,-88.3532 L 14.4379,-88.4469
 L 14.8116,-88.4941 L 15.1884,-88.4941 L 15.5621,-88.4469 L 15.927,-88.3532 L 16.2773,-88.2145 L 16.6075,-88.033
 L 16.9123,-87.8115 L 17.1869,-87.5536 L 17.427,-87.2634 L 17.6289,-86.9453 L 17.7893,-86.6044 L 17.9057,-86.2461
 L 17.9763,-85.876 L 18,-85.5 L 17.9763,-85.124 L 17.9057,-84.7539 L 17.7893,-84.3956 L 17.6289,-84.0547
 L 17.427,-83.7366 L 17.1869,-83.4464 L 16.9123,-83.1884 L 16.6075,-82.967 L 16.2773,-82.7855 L 15.927,-82.6468
 L 15.5621,-82.5531 L 15.1884,-82.5059 z
M 29.8116,-82.5059 L 29.4379,-82.5531 L 29.0729,-82.6468 L 28.7227,-82.7855 L 28.3925,-82.967 L 28.0877,-83.1884
 L 27.8131,-83.4464 L 27.5729,-83.7366 L 27.3711,-84.0547 L 27.2107,-84.3956 L 27.0942,-84.7539 L 27.0237,-85.124
 L 27,-85.5 L 27.0237,-85.876 L 27.0942,-86.2461 L 27.2107,-86.6044 L 27.3711,-86.9453 L 27.5729,-87.2634
 L 27.8131,-87.5536 L 28.0877,-87.8115 L 28.3925,-88.033 L 28.7227,-88.2145 L 29.0729,-88.3532 L 29.4379,-88.4469
 L 29.8116,-88.4941 L 30.1884,-88.4941 L 30.5621,-88.4469 L 30.927,-88.3532 L 31.2773,-88.2145 L 31.6075,-88.033
 L 31.9123,-87.8115 L 32.1869,-87.5536 L 32.427,-87.2634 L 32.6289,-86.9453 L 32.7893,-86.6044 L 32.9057,-86.2461
 L 32.9763,-85.876 L 33,-85.5 L 32.9763,-85.124 L 32.9057,-84.7539 L 32.7893,-84.3956 L 32.6289,-84.0547
 L 32.427,-83.7366 L 32.1869,-83.4464 L 31.9123,-83.1884 L 31.6075,-82.967 L 31.2773,-82.7855 L 30.927,-82.6468
 L 30.5621,-82.5531 L 30.1884,-82.5059 z
M -15.1884,-82.5059 L -15.5621,-82.5531 L -15.927,-82.6468 L -16.2773,-82.7855 L -16.6075,-82.967 L -16.9123,-83.1884
 L -17.1869,-83.4464 L -17.427,-83.7366 L -17.6289,-84.0547 L -17.7893,-84.3956 L -17.9057,-84.7539 L -17.9763,-85.124
 L -18,-85.5 L -17.9763,-85.876 L -17.9057,-86.2461 L -17.7893,-86.6044 L -17.6289,-86.9453 L -17.427,-87.2634
 L -17.1869,-87.5536 L -16.9123,-87.8115 L -16.6075,-88.033 L -16.2773,-88.2145 L -15.927,-88.3532 L -15.5621,-88.4469
 L -15.1884,-88.4941 L -14.8116,-88.4941 L -14.4379,-88.4469 L -14.0729,-88.3532 L -13.7227,-88.2145 L -13.3925,-88.033
 L -13.0877,-87.8115 L -12.8131,-87.5536 L -12.5729,-87.2634 L -12.3711,-86.9453 L -12.2107,-86.6044 L -12.0942,-86.2461
 L -12.0237,-85.876 L -12,-85.5 L -12.0237,-85.124 L -12.0942,-84.7539 L -12.2107,-84.3956 L -12.3711,-84.0547
 L -12.5729,-83.7366 L -12.8131,-83.4464 L -13.0877,-83.1884 L -13.3925,-82.967 L -13.7227,-82.7855 L -14.0729,-82.6468
 L -14.4379,-82.5531 L -14.8116,-82.5059 z
M 44.8116,-82.5059 L 44.4379,-82.5531 L 44.0729,-82.6468 L 43.7227,-82.7855 L 43.3925,-82.967 L 43.0877,-83.1884
 L 42.8131,-83.4464 L 42.5729,-83.7366 L 42.3711,-84.0547 L 42.2107,-84.3956 L 42.0942,-84.7539 L 42.0237,-85.124
 L 42,-85.5 L 42.0237,-85.876 L 42.0942,-86.2461 L 42.2107,-86.6044 L 42.3711,-86.9453 L 42.5729,-87.2634
 L 42.8131,-87.5536 L 43.0877,-87.8115 L 43.3925,-88.033 L 43.7227,-88.2145 L 44.0729,-88.3532 L 44.4379,-88.4469
 L 44.8116,-88.4941 L 45.1884,-88.4941 L 45.5621,-88.4469 L 45.927,-88.3532 L 46.2773,-88.2145 L 46.6075,-88.033
 L 46.9123,-87.8115 L 47.1869,-87.5536 L 47.427,-87.2634 L 47.6289,-86.9453 L 47.7893,-86.6044 L 47.9057,-86.2461
 L 47.9763,-85.876 L 48,-85.5 L 47.9763,-85.124 L 47.9057,-84.7539 L 47.7893,-84.3956 L 47.6289,-84.0547
 L 47.427,-83.7366 L 47.1869,-83.4464 L 46.9123,-83.1884 L 46.6075,-82.967 L 46.2773,-82.7855 L 45.927,-82.6468
 L 45.5621,-82.5531 L 45.1884,-82.5059 z
M -45.1884,-82.5059 L -45.5621,-82.5531 L -45.927,-82.6468 L -46.2773,-82.7855 L -46.6075,-82.967 L -46.9123,-83.1884
 L -47.1869,-83.4464 L -47.427,-83.7366 L -47.6289,-84.0547 L -47.7893,-84.3956 L -47.9057,-84.7539 L -47.9763,-85.124
 L -48,-85.5 L -47.9763,-85.876 L -47.9057,-86.2461 L -47.7893,-86.6044 L -47.6289,-86.9453 L -47.427,-87.2634
 L -47.1869,-87.5536 L -46.9123,-87.8115 L -46.6075,-88.033 L -46.2773,-88.2145 L -45.927,-88.3532 L -45.5621,-88.4469
 L -45.1884,-88.4941 L -44.8116,-88.4941 L -44.4379,-88.4469 L -44.0729,-88.3532 L -43.7227,-88.2145 L -43.3925,-88.033
 L -43.0877,-87.8115 L -42.8131,-87.5536 L -42.5729,-87.2634 L -42.3711,-86.9453 L -42.2107,-86.6044 L -42.0942,-86.2461
 L -42.0237,-85.876 L -42,-85.5 L -42.0237,-85.124 L -42.0942,-84.7539 L -42.2107,-84.3956 L -42.3711,-84.0547
 L -42.5729,-83.7366 L -42.8131,-83.4464 L -43.0877,-83.1884 L -43.3925,-82.967 L -43.7227,-82.7855 L -44.0729,-82.6468
 L -44.4379,-82.5531 L -44.8116,-82.5059 z
M -0.18837,-82.5059 L -0.562134,-82.5531 L -0.927048,-82.6468 L -1.27733,-82.7855 L -1.60747,-82.967 L -1.91226,-83.1884
 L -2.1869,-83.4464 L -2.42705,-83.7366 L -2.62891,-84.0547 L -2.78932,-84.3956 L -2.90575,-84.7539 L -2.97633,-85.124
 L -3,-85.5 L -2.97633,-85.876 L -2.90575,-86.2461 L -2.78932,-86.6044 L -2.62891,-86.9453 L -2.42705,-87.2634
 L -2.1869,-87.5536 L -1.91226,-87.8115 L -1.60747,-88.033 L -1.27733,-88.2145 L -0.927048,-88.3532 L -0.562134,-88.4469
 L -0.18837,-88.4941 L 0.18837,-88.4941 L 0.562134,-88.4469 L 0.927048,-88.3532 L 1.27733,-88.2145 L 1.60747,-88.033
 L 1.91226,-87.8115 L 2.1869,-87.5536 L 2.42705,-87.2634 L 2.62891,-86.9453 L 2.78932,-86.6044 L 2.90575,-86.2461
 L 2.97633,-85.876 L 3,-85.5 L 2.97633,-85.124 L 2.90575,-84.7539 L 2.78932,-84.3956 L 2.62891,-84.0547
 L 2.42705,-83.7366 L 2.1869,-83.4464 L 1.91226,-83.1884 L 1.60747,-82.967 L 1.27733,-82.7855 L 0.927048,-82.6468
 L 0.562134,-82.5531 L 0.18837,-82.5059 z
M -7.6507,-83.1047 L -7.94971,-83.1425 L -8.24164,-83.2175 L -8.52187,-83.3284 L -8.78598,-83.4736 L -9.02982,-83.6508
 L -9.24951,-83.8571 L -9.44164,-84.0893 L -9.60313,-84.3438 L -9.73146,-84.6165 L -9.82458,-84.9031 L -9.88107,-85.1992
 L -9.89999,-85.5 L -9.88107,-85.8008 L -9.82458,-86.0968 L -9.73146,-86.3835 L -9.60313,-86.6562 L -9.44164,-86.9107
 L -9.24951,-87.1429 L -9.02982,-87.3492 L -8.78598,-87.5264 L -8.52187,-87.6716 L -8.24164,-87.7825 L -7.94971,-87.8575
 L -7.6507,-87.8953 L -7.34929,-87.8953 L -7.05028,-87.8575 L -6.75835,-87.7825 L -6.47812,-87.6716 L -6.214,-87.5264
 L -5.97017,-87.3492 L -5.75047,-87.1429 L -5.55835,-86.9107 L -5.39685,-86.6562 L -5.26852,-86.3835 L -5.1754,-86.0968
 L -5.11891,-85.8008 L -5.09999,-85.5 L -5.11891,-85.1992 L -5.1754,-84.9031 L -5.26852,-84.6165 L -5.39685,-84.3438
 L -5.55835,-84.0893 L -5.75047,-83.8571 L -5.97017,-83.6508 L -6.214,-83.4736 L -6.47812,-83.3284 L -6.75835,-83.2175
 L -7.05028,-83.1425 L -7.34929,-83.1047 z
M -37.6507,-83.1047 L -37.9497,-83.1425 L -38.2416,-83.2175 L -38.5219,-83.3284 L -38.786,-83.4736 L -39.0298,-83.6508
 L -39.2495,-83.8571 L -39.4416,-84.0893 L -39.6031,-84.3438 L -39.7315,-84.6165 L -39.8246,-84.9031 L -39.8811,-85.1992
 L -39.9,-85.5 L -39.8811,-85.8008 L -39.8246,-86.0968 L -39.7315,-86.3835 L -39.6031,-86.6562 L -39.4416,-86.9107
 L -39.2495,-87.1429 L -39.0298,-87.3492 L -38.786,-87.5264 L -38.5219,-87.6716 L -38.2416,-87.7825 L -37.9497,-87.8575
 L -37.6507,-87.8953 L -37.3493,-87.8953 L -37.0503,-87.8575 L -36.7583,-87.7825 L -36.4781,-87.6716 L -36.214,-87.5264
 L -35.9702,-87.3492 L -35.7505,-87.1429 L -35.5583,-86.9107 L -35.3969,-86.6562 L -35.2685,-86.3835 L -35.1754,-86.0968
 L -35.1189,-85.8008 L -35.1,-85.5 L -35.1189,-85.1992 L -35.1754,-84.9031 L -35.2685,-84.6165 L -35.3969,-84.3438
 L -35.5583,-84.0893 L -35.7505,-83.8571 L -35.9702,-83.6508 L -36.214,-83.4736 L -36.4781,-83.3284 L -36.7583,-83.2175
 L -37.0503,-83.1425 L -37.3493,-83.1047 z
M -22.6507,-83.1047 L -22.9497,-83.1425 L -23.2416,-83.2175 L -23.5219,-83.3284 L -23.786,-83.4736 L -24.0298,-83.6508
 L -24.2495,-83.8571 L -24.4416,-84.0893 L -24.6031,-84.3438 L -24.7315,-84.6165 L -24.8246,-84.9031 L -24.8811,-85.1992
 L -24.9,-85.5 L -24.8811,-85.8008 L -24.8246,-86.0968 L -24.7315,-86.3835 L -24.6031,-86.6562 L -24.4416,-86.9107
 L -24.2495,-87.1429 L -24.0298,-87.3492 L -23.786,-87.5264 L -23.5219,-87.6716 L -23.2416,-87.7825 L -22.9497,-87.8575
 L -22.6507,-87.8953 L -22.3493,-87.8953 L -22.0503,-87.8575 L -21.7583,-87.7825 L -21.4781,-87.6716 L -21.214,-87.5264
 L -20.9702,-87.3492 L -20.7505,-87.1429 L -20.5583,-86.9107 L -20.3969,-86.6562 L -20.2685,-86.3835 L -20.1754,-86.0968
 L -20.1189,-85.8008 L -20.1,-85.5 L -20.1189,-85.1992 L -20.1754,-84.9031 L -20.2685,-84.6165 L -20.3969,-84.3438
 L -20.5583,-84.0893 L -20.7505,-83.8571 L -20.9702,-83.6508 L -21.214,-83.4736 L -21.4781,-83.3284 L -21.7583,-83.2175
 L -22.0503,-83.1425 L -22.3493,-83.1047 z
M 22.3493,-83.1047 L 22.0503,-83.1425 L 21.7583,-83.2175 L 21.4781,-83.3284 L 21.214,-83.4736 L 20.9702,-83.6508
 L 20.7505,-83.8571 L 20.5583,-84.0893 L 20.3969,-84.3438 L 20.2685,-84.6165 L 20.1754,-84.9031 L 20.1189,-85.1992
 L 20.1,-85.5 L 20.1189,-85.8008 L 20.1754,-86.0968 L 20.2685,-86.3835 L 20.3969,-86.6562 L 20.5583,-86.9107
 L 20.7505,-87.1429 L 20.9702,-87.3492 L 21.214,-87.5264 L 21.4781,-87.6716 L 21.7583,-87.7825 L 22.0503,-87.8575
 L 22.3493,-87.8953 L 22.6507,-87.8953 L 22.9497,-87.8575 L 23.2416,-87.7825 L 23.5219,-87.6716 L 23.786,-87.5264
 L 24.0298,-87.3492 L 24.2495,-87.1429 L 24.4416,-86.9107 L 24.6031,-86.6562 L 24.7315,-86.3835 L 24.8246,-86.0968
 L 24.8811,-85.8008 L 24.9,-85.5 L 24.8811,-85.1992 L 24.8246,-84.9031 L 24.7315,-84.6165 L 24.6031,-84.3438
 L 24.4416,-84.0893 L 24.2495,-83.8571 L 24.0298,-83.6508 L 23.786,-83.4736 L 23.5219,-83.3284 L 23.2416,-83.2175
 L 22.9497,-83.1425 L 22.6507,-83.1047 z
M -47.5307,-59.9 L -47.6289,-60.0547 L -47.7893,-60.3956 L -47.9057,-60.7539 L -47.9763,-61.124 L -48,-61.5
 L -47.9763,-61.876 L -47.9057,-62.2461 L -47.7893,-62.6044 L -47.6289,-62.9453 L -47.427,-63.2634 L -47.1869,-63.5536
 L -46.9123,-63.8115 L -46.6075,-64.033 L -46.2773,-64.2145 L -45.927,-64.3532 L -45.5621,-64.4469 L -45.1884,-64.4941
 L -44.8116,-64.4941 L -44.4379,-64.4469 L -44.0729,-64.3532 L -43.7227,-64.2145 L -43.3925,-64.033 L -43.0877,-63.8115
 L -42.8131,-63.5536 L -42.5729,-63.2634 L -42.3711,-62.9453 L -42.2107,-62.6044 L -42.0942,-62.2461 L -42.0237,-61.876
 L -42,-61.5 L -42.0237,-61.124 L -42.0942,-60.7539 L -42.2107,-60.3956 L -42.3711,-60.0547 L -42.4693,-59.9
 L -42.4693,-48 L -32.5307,-48 L -32.5307,-59.9 L -32.6289,-60.0547 L -32.7893,-60.3956 L -32.9057,-60.7539
 L -32.9763,-61.124 L -33,-61.5 L -32.9763,-61.876 L -32.9057,-62.2461 L -32.7893,-62.6044 L -32.6289,-62.9453
 L -32.427,-63.2634 L -32.1869,-63.5536 L -31.9123,-63.8115 L -31.6075,-64.033 L -31.2773,-64.2145 L -30.927,-64.3532
 L -30.5621,-64.4469 L -30.1884,-64.4941 L -29.8116,-64.4941 L -29.4379,-64.4469 L -29.0729,-64.3532 L -28.7227,-64.2145
 L -28.3925,-64.033 L -28.0877,-63.8115 L -27.8131,-63.5536 L -27.5729,-63.2634 L -27.3711,-62.9453 L -27.2107,-62.6044
 L -27.0942,-62.2461 L -27.0237,-61.876 L -27,-61.5 L -27.0237,-61.124 L -27.0942,-60.7539 L -27.2107,-60.3956
 L -27.3711,-60.0547 L -27.4693,-59.9 L -27.4693,-48 L -17.5307,-48 L -17.5307,-59.9 L -17.6289,-60.0547
 L -17.7893,-60.3956 L -17.9057,-60.7539 L -17.9763,-61.124 L -18,-61.5 L -17.9763,-61.876 L -17.9057,-62.2461
 L -17.7893,-62.6044 L -17.6289,-62.9453 L -17.427,-63.2634 L -17.1869,-63.5536 L -16.9123,-63.8115 L -16.6075,-64.033
 L -16.2773,-64.2145 L -15.927,-64.3532 L -15.5621,-64.4469 L -15.1884,-64.4941 L -14.8116,-64.4941 L -14.4379,-64.4469
 L -14.0729,-64.3532 L -13.7227,-64.2145 L -13.3925,-64.033 L -13.0877,-63.8115 L -12.8131,-63.5536 L -12.5729,-63.2634
 L -12.3711,-62.9453 L -12.2107,-62.6044 L -12.0942,-62.2461 L -12.0237,-61.876 L -12,-61.5 L -12.0237,-61.124
 L -12.0942,-60.7539 L -12.2107,-60.3956 L -12.3711,-60.0547 L -12.4693,-59.9 L -12.4693,-48 L -2.53072,-48
 L -2.53072,-59.9 L -2.62891,-60.0547 L -2.78932,-60.3956 L -2.90575,-60.7539 L -2.97633,-61.124 L -3,-61.5
 L -2.97633,-61.876 L -2.90575,-62.2461 L -2.78932,-62.6044 L -2.62891,-62.9453 L -2.42705,-63.2634 L -2.1869,-63.5536
 L -1.91226,-63.8115 L -1.60747,-64.033 L -1.27733,-64.2145 L -0.927048,-64.3532 L -0.562134,-64.4469 L -0.18837,-64.4941
 L 0.18837,-64.4941 L 0.562134,-64.4469 L 0.927048,-64.3532 L 1.27733,-64.2145 L 1.60747,-64.033 L 1.91226,-63.8115
 L 2.1869,-63.5536 L 2.42705,-63.2634 L 2.62891,-62.9453 L 2.78932,-62.6044 L 2.90575,-62.2461 L 2.97633,-61.876
 L 3,-61.5 L 2.97633,-61.124 L 2.90575,-60.7539 L 2.78932,-60.3956 L 2.62891,-60.0547 L 2.53072,-59.9
 L 2.53072,-48 L 12.4693,-48 L 12.4693,-59.9 L 12.3711,-60.0547 L 12.2107,-60.3956 L 12.0942,-60.7539
 L 12.0237,-61.124 L 12,-61.5 L 12.0237,-61.876 L 12.0942,-62.2461 L 12.2107,-62.6044 L 12.3711,-62.9453
 L 12.5729,-63.2634 L 12.8131,-63.5536 L 13.0877,-63.8115 L 13.3925,-64.033 L 13.7227,-64.2145 L 14.0729,-64.3532
 L 14.4379,-64.4469 L 14.8116,-64.4941 L 15.1884,-64.4941 L 15.5621,-64.4469 L 15.927,-64.3532 L 16.2773,-64.2145
 L 16.6075,-64.033 L 16.9123,-63.8115 L 17.1869,-63.5536 L 17.427,-63.2634 L 17.6289,-62.9453 L 17.7893,-62.6044
 L 17.9057,-62.2461 L 17.9763,-61.876 L 18,-61.5 L 17.9763,-61.124 L 17.9057,-60.7539 L 17.7893,-60.3956
 L 17.6289,-60.0547 L 17.5307,-59.9 L 17.5307,-48 L 27.4693,-48 L 27.4693,-59.9 L 27.3711,-60.0547
 L 27.2107,-60.3956 L 27.0942,-60.7539 L 27.0237,-61.124 L 27,-61.5 L 27.0237,-61.876 L 27.0942,-62.2461
 L 27.2107,-62.6044 L 27.3711,-62.9453 L 27.5729,-63.2634 L 27.8131,-63.5536 L 28.0877,-63.8115 L 28.3925,-64.033
 L 28.7227,-64.2145 L 29.0729,-64.3532 L 29.4379,-64.4469 L 29.8116,-64.4941 L 30.1884,-64.4941 L 30.5621,-64.4469
 L 30.927,-64.3532 L 31.2773,-64.2145 L 31.6075,-64.033 L 31.9123,-63.8115 L 32.1869,-63.5536 L 32.427,-63.2634
 L 32.6289,-62.9453 L 32.7893,-62.6044 L 32.9057,-62.2461 L 32.9763,-61.876 L 33,-61.5 L 32.9763,-61.124
 L 32.9057,-60.7539 L 32.7893,-60.3956 L 32.6289,-60.0547 L 32.5307,-59.9 L 32.5307,-48 L 42.4693,-48
 L 42.4693,-59.9 L 42.3711,-60.0547 L 42.2107,-60.3956 L 42.0942,-60.7539 L 42.0237,-61.124 L 42,-61.5
 L 42.0237,-61.876 L 42.0942,-62.2461 L 42.2107,-62.6044 L 42.3711,-62.9453 L 42.5729,-63.2634 L 42.8131,-63.5536
 L 43.0877,-63.8115 L 43.3925,-64.033 L 43.7227,-64.2145 L 44.0729,-64.3532 L 44.4379,-64.4469 L 44.8116,-64.4941
 L 45.1884,-64.4941 L 45.5621,-64.4469 L 45.927,-64.3532 L 46.2773,-64.2145 L 46.6075,-64.033 L 46.9123,-63.8115
 L 47.1869,-63.5536 L 47.427,-63.2634 L 47.6289,-62.9453 L 47.7893,-62.6044 L 47.9057,-62.2461 L 47.9763,-61.876
 L 48,-61.5 L 47.9763,-61.124 L 47.9057,-60.7539 L 47.7893,-60.3956 L 47.6289,-60.0547 L 47.5307,-59.9
 L 47.5307,-48 L 52,-48 L 52,-63.5 L 51.9606,-64.1267 L 51.8429,-64.7434 L 51.6489,-65.3406
 L 51.3815,-65.9088 L 51.0451,-66.4389 L 50.6448,-66.9227 L 50.1871,-67.3526 L 49.6791,-67.7216 L 49.1289,-68.0241
 L 48.5451,-68.2553 L 47.9369,-68.4114 L 47.3139,-68.4901 L -47.3139,-68.4901 L -47.9369,-68.4114 L -48.5451,-68.2553
 L -49.1289,-68.0241 L -49.6791,-67.7216 L -50.1871,-67.3526 L -50.6448,-66.9227 L -51.0451,-66.4389 L -51.3815,-65.9088
 L -51.6489,-65.3406 L -51.8429,-64.7434 L -51.9606,-64.1267 L -52,-63.5 L -52,-48 L -47.5307,-48
 z
M 5.82671,-58.6018 L 4.15341,-61.5 L 5.82671,-64.3982 L 9.17329,-64.3982 L 10.8466,-61.5 L 9.17329,-58.6018
 z
M 35.8267,-58.6018 L 34.1534,-61.5 L 35.8267,-64.3982 L 39.1733,-64.3982 L 40.8466,-61.5 L 39.1733,-58.6018
 z
M 20.8267,-58.6018 L 19.1534,-61.5 L 20.8267,-64.3982 L 24.1733,-64.3982 L 25.8466,-61.5 L 24.1733,-58.6018
 z
M -39.1733,-58.6018 L -40.8466,-61.5 L -39.1733,-64.3982 L -35.8267,-64.3982 L -34.1534,-61.5 L -35.8267,-58.6018
 z
M -9.17329,-58.6018 L -10.8466,-61.5 L -9.17329,-64.3982 L -5.82671,-64.3982 L -4.15341,-61.5 L -5.82671,-58.6018
 z
M -22.5942,-60.0029 L -22.7811,-60.0266 L -22.9635,-60.0734 L -23.1387,-60.1427 L -23.3037,-60.2335 L -23.4561,-60.3442
 L -23.5934,-60.4732 L -23.7135,-60.6183 L -23.8145,-60.7774 L -23.8947,-60.9478 L -23.9529,-61.127 L -23.9882,-61.312
 L -24,-61.5 L -23.9882,-61.688 L -23.9529,-61.873 L -23.8947,-62.0522 L -23.8145,-62.2226 L -23.7135,-62.3817
 L -23.5934,-62.5268 L -23.4561,-62.6558 L -23.3037,-62.7665 L -23.1387,-62.8572 L -22.9635,-62.9266 L -22.7811,-62.9734
 L -22.5942,-62.997 L -22.4058,-62.997 L -22.2189,-62.9734 L -22.0365,-62.9266 L -21.8613,-62.8572 L -21.6963,-62.7665
 L -21.5439,-62.6558 L -21.4065,-62.5268 L -21.2865,-62.3817 L -21.1855,-62.2226 L -21.1053,-62.0522 L -21.0471,-61.873
 L -21.0118,-61.688 L -21,-61.5 L -21.0118,-61.312 L -21.0471,-61.127 L -21.1053,-60.9478 L -21.1855,-60.7774
 L -21.2865,-60.6183 L -21.4065,-60.4732 L -21.5439,-60.3442 L -21.6963,-60.2335 L -21.8613,-60.1427 L -22.0365,-60.0734
 L -22.2189,-60.0266 L -22.4058,-60.0029 z
M -47.5942,-27.6566 L -48.085,-27.6566 L -51.17,-33 L -48.085,-38.3434 L -47.8741,-38.3434 L -47.7893,-38.6044
 L -47.6289,-38.9453 L -47.427,-39.2634 L -47.1869,-39.5536 L -46.9123,-39.8115 L -46.6075,-40.033 L -46.2773,-40.2145
 L -45.927,-40.3532 L -45.5621,-40.4469 L -45.1884,-40.4941 L -44.8116,-40.4941 L -44.4379,-40.4469 L -44.0729,-40.3532
 L -43.7227,-40.2145 L -43.3925,-40.033 L -43.0877,-39.8115 L -42.8131,-39.5536 L -42.5729,-39.2634 L -42.3711,-38.9453
 L -42.2107,-38.6044 L -42.1259,-38.3434 L -41.915,-38.3434 L -38.83,-33 L -41.915,-27.6566 L -42.4058,-27.6566
 L -42.4058,-24 L -32.5942,-24 L -32.5942,-27.6566 L -33.085,-27.6566 L -36.17,-33 L -33.085,-38.3434
 L -32.8741,-38.3434 L -32.7893,-38.6044 L -32.6289,-38.9453 L -32.427,-39.2634 L -32.1869,-39.5536 L -31.9123,-39.8115
 L -31.6075,-40.033 L -31.2773,-40.2145 L -30.927,-40.3532 L -30.5621,-40.4469 L -30.1884,-40.4941 L -29.8116,-40.4941
 L -29.4379,-40.4469 L -29.0729,-40.3532 L -28.7227,-40.2145 L -28.3925,-40.033 L -28.0877,-39.8115 L -27.8131,-39.5536
 L -27.5729,-39.2634 L -27.3711,-38.9453 L -27.2107,-38.6044 L -27.1259,-38.3434 L -26.915,-38.3434 L -23.83,-33
 L -26.915,-27.6566 L -27.4058,-27.6566 L -27.4058,-24 L -17.5942,-24 L -17.5942,-27.6566 L -18.085,-27.6566
 L -21.17,-33 L -18.085,-38.3434 L -17.8741,-38.3434 L -17.7893,-38.6044 L -17.6289,-38.9453 L -17.427,-39.2634
 L -17.1869,-39.5536 L -16.9123,-39.8115 L -16.6075,-40.033 L -16.2773,-40.2145 L -15.927,-40.3532 L -15.5621,-40.4469
 L -15.1884,-40.4941 L -14.8116,-40.4941 L -14.4379,-40.4469 L -14.0729,-40.3532 L -13.7227,-40.2145 L -13.3925,-40.033
 L -13.0877,-39.8115 L -12.8131,-39.5536 L -12.5729,-39.2634 L -12.3711,-38.9453 L -12.2107,-38.6044 L -12.1259,-38.3434
 L -11.915,-38.3434 L -8.83,-33 L -11.915,-27.6566 L -12.4058,-27.6566 L -12.4058,-24 L -2.59418,-24
 L -2.59418,-27.6566 L -3.08499,-27.6566 L -6.17,-33 L -3.08499,-38.3434 L -2.87413,-38.3434 L -2.78932,-38.6044
 L -2.62891,-38.9453 L -2.42705,-39.2634 L -2.1869,-39.5536 L -1.91226,-39.8115 L -1.60747,-40.033 L -1.27733,-40.2145
 L -0.927048,-40.3532 L -0.562134,-40.4469 L -0.18837,-40.4941 L 0.18837,-40.4941 L 0.562134,-40.4469 L 0.927048,-40.3532
 L 1.27733,-40.2145 L 1.60747,-40.033 L 1.91226,-39.8115 L 2.1869,-39.5536 L 2.42705,-39.2634 L 2.62891,-38.9453
 L 2.78932,-38.6044 L 2.87413,-38.3434 L 3.08499,-38.3434 L 6.17,-33 L 3.08499,-27.6566 L 2.59418,-27.6566
 L 2.59418,-24 L 12.4058,-24 L 12.4058,-27.6566 L 11.915,-27.6566 L 8.83,-33 L 11.915,-38.3434
 L 12.1259,-38.3434 L 12.2107,-38.6044 L 12.3711,-38.9453 L 12.5729,-39.2634 L 12.8131,-39.5536 L 13.0877,-39.8115
 L 13.3925,-40.033 L 13.7227,-40.2145 L 14.0729,-40.3532 L 14.4379,-40.4469 L 14.8116,-40.4941 L 15.1884,-40.4941
 L 15.5621,-40.4469 L 15.927,-40.3532 L 16.2773,-40.2145 L 16.6075,-40.033 L 16.9123,-39.8115 L 17.1869,-39.5536
 L 17.427,-39.2634 L 17.6289,-38.9453 L 17.7893,-38.6044 L 17.8741,-38.3434 L 18.085,-38.3434 L 21.17,-33
 L 18.085,-27.6566 L 17.5942,-27.6566 L 17.5942,-24 L 27.4058,-24 L 27.4058,-27.6566 L 26.915,-27.6566
 L 23.83,-33 L 26.915,-38.3434 L 27.1259,-38.3434 L 27.2107,-38.6044 L 27.3711,-38.9453 L 27.5729,-39.2634
 L 27.8131,-39.5536 L 28.0877,-39.8115 L 28.3925,-40.033 L 28.7227,-40.2145 L 29.0729,-40.3532 L 29.4379,-40.4469
 L 29.8116,-40.4941 L 30.1884,-40.4941 L 30.5621,-40.4469 L 30.927,-40.3532 L 31.2773,-40.2145 L 31.6075,-40.033
 L 31.9123,-39.8115 L 32.1869,-39.5536 L 32.427,-39.2634 L 32.6289,-38.9453 L 32.7893,-38.6044 L 32.8741,-38.3434
 L 33.085,-38.3434 L 36.17,-33 L 33.085,-27.6566 L 32.5942,-27.6566 L 32.5942,-24 L 42.4058,-24
 L 42.4058,-27.6566 L 41.915,-27.6566 L 38.83,-33 L 41.915,-38.3434 L 42.1259,-38.3434 L 42.2107,-38.6044
 L 42.3711,-38.9453 L 42.5729,-39.2634 L 42.8131,-39.5536 L 43.0877,-39.8115 L 43.3925,-40.033 L 43.7227,-40.2145
 L 44.0729,-40.3532 L 44.4379,-40.4469 L 44.8116,-40.4941 L 45.1884,-40.4941 L 45.5621,-40.4469 L 45.927,-40.3532
 L 46.2773,-40.2145 L 46.6075,-40.033 L 46.9123,-39.8115 L 47.1869,-39.5536 L 47.427,-39.2634 L 47.6289,-38.9453
 L 47.7893,-38.6044 L 47.8741,-38.3434 L 48.085,-38.3434 L 51.17,-33 L 48.085,-27.6566 L 47.5942,-27.6566
 L 47.5942,-24 L 52,-24 L 52,-39.5 L 51.9606,-40.1267 L 51.8429,-40.7434 L 51.6489,-41.3406
 L 51.3815,-41.9088 L 51.0451,-42.4389 L 50.6448,-42.9227 L 50.1871,-43.3526 L 49.6791,-43.7216 L 49.1289,-44.0241
 L 48.5451,-44.2553 L 47.9369,-44.4114 L 47.3139,-44.4901 L -47.3139,-44.4901 L -47.9369,-44.4114 L -48.5451,-44.2553
 L -49.1289,-44.0241 L -49.6791,-43.7216 L -50.1871,-43.3526 L -50.6448,-42.9227 L -51.0451,-42.4389 L -51.3815,-41.9088
 L -51.6489,-41.3406 L -51.8429,-40.7434 L -51.9606,-40.1267 L -52,-39.5 L -52,-24 L -47.5942,-24
 z
M 20.8267,-34.6018 L 19.1534,-37.5 L 20.8267,-40.3982 L 24.1733,-40.3982 L 25.8466,-37.5 L 24.1733,-34.6018
 z
M -39.1733,-34.6018 L -40.8466,-37.5 L -39.1733,-40.3982 L -35.8267,-40.3982 L -34.1534,-37.5 L -35.8267,-34.6018
 z
M -9.17329,-34.6018 L -10.8466,-37.5 L -9.17329,-40.3982 L -5.82671,-40.3982 L -4.15341,-37.5 L -5.82671,-34.6018
 z
M 5.82671,-34.6018 L 4.15341,-37.5 L 5.82671,-40.3982 L 9.17329,-40.3982 L 10.8466,-37.5 L 9.17329,-34.6018
 z
M 35.8267,-34.6018 L 34.1534,-37.5 L 35.8267,-40.3982 L 39.1733,-40.3982 L 40.8466,-37.5 L 39.1733,-34.6018
 z
M -22.5942,-36.0029 L -22.7811,-36.0266 L -22.9635,-36.0734 L -23.1387,-36.1427 L -23.3037,-36.2335 L -23.4561,-36.3442
 L -23.5934,-36.4732 L -23.7135,-36.6183 L -23.8145,-36.7774 L -23.8947,-36.9478 L -23.9529,-37.127 L -23.9882,-37.312
 L -24,-37.5 L -23.9882,-37.688 L -23.9529,-37.873 L -23.8947,-38.0522 L -23.8145,-38.2226 L -23.7135,-38.3817
 L -23.5934,-38.5268 L -23.4561,-38.6558 L -23.3037,-38.7665 L -23.1387,-38.8572 L -22.9635,-38.9266 L -22.7811,-38.9734
 L -22.5942,-38.997 L -22.4058,-38.997 L -22.2189,-38.9734 L -22.0365,-38.9266 L -21.8613,-38.8572 L -21.6963,-38.7665
 L -21.5439,-38.6558 L -21.4065,-38.5268 L -21.2865,-38.3817 L -21.1855,-38.2226 L -21.1053,-38.0522 L -21.0471,-37.873
 L -21.0118,-37.688 L -21,-37.5 L -21.0118,-37.312 L -21.0471,-37.127 L -21.1053,-36.9478 L -21.1855,-36.7774
 L -21.2865,-36.6183 L -21.4065,-36.4732 L -21.5439,-36.3442 L -21.6963,-36.2335 L -21.8613,-36.1427 L -22.0365,-36.0734
 L -22.2189,-36.0266 L -22.4058,-36.0029 z
M 52,-15.5 L 51.9606,-16.1267 L 51.8429,-16.7434 L 51.6489,-17.3406 L 51.3815,-17.9088 L 51.0451,-18.4389
 L 50.6448,-18.9227 L 50.1871,-19.3526 L 49.6791,-19.7216 L 49.1289,-20.0241 L 48.5451,-20.2553 L 47.9369,-20.4114
 L 47.3139,-20.4901 L -47.3139,-20.4901 L -47.9369,-20.4114 L -48.5451,-20.2553 L -49.1289,-20.0241 L -49.6791,-19.7216
 L -50.1871,-19.3526 L -50.6448,-18.9227 L -51.0451,-18.4389 L -51.3815,-17.9088 L -51.6489,-17.3406 L -51.8429,-16.7434
 L -51.9606,-16.1267 L -52,-15.5 L -52,-0 L 52,-0 z
M -48.085,-3.65663 L -51.17,-9 L -48.085,-14.3434 L -47.8741,-14.3434 L -47.7893,-14.6044 L -47.6289,-14.9453
 L -47.427,-15.2634 L -47.1869,-15.5536 L -46.9123,-15.8115 L -46.6075,-16.033 L -46.2773,-16.2145 L -45.927,-16.3532
 L -45.5621,-16.4469 L -45.1884,-16.4941 L -44.8116,-16.4941 L -44.4379,-16.4469 L -44.0729,-16.3532 L -43.7227,-16.2145
 L -43.3925,-16.033 L -43.0877,-15.8115 L -42.8131,-15.5536 L -42.5729,-15.2634 L -42.3711,-14.9453 L -42.2107,-14.6044
 L -42.1259,-14.3434 L -41.915,-14.3434 L -38.83,-9 L -41.915,-3.65663 z
M -3.08499,-3.65663 L -6.17,-9 L -3.08499,-14.3434 L -2.87413,-14.3434 L -2.78932,-14.6044 L -2.62891,-14.9453
 L -2.42705,-15.2634 L -2.1869,-15.5536 L -1.91226,-15.8115 L -1.60747,-16.033 L -1.27733,-16.2145 L -0.927048,-16.3532
 L -0.562134,-16.4469 L -0.18837,-16.4941 L 0.18837,-16.4941 L 0.562134,-16.4469 L 0.927048,-16.3532 L 1.27733,-16.2145
 L 1.60747,-16.033 L 1.91226,-15.8115 L 2.1869,-15.5536 L 2.42705,-15.2634 L 2.62891,-14.9453 L 2.78932,-14.6044
 L 2.87413,-14.3434 L 3.08499,-14.3434 L 6.17,-9 L 3.08499,-3.65663 z
M 11.915,-3.65663 L 8.83,-9 L 11.915,-14.3434 L 12.1259,-14.3434 L 12.2107,-14.6044 L 12.3711,-14.9453
 L 12.5729,-15.2634 L 12.8131,-15.5536 L 13.0877,-15.8115 L 13.3925,-16.033 L 13.7227,-16.2145 L 14.0729,-16.3532
 L 14.4379,-16.4469 L 14.8116,-16.4941 L 15.1884,-16.4941 L 15.5621,-16.4469 L 15.927,-16.3532 L 16.2773,-16.2145
 L 16.6075,-16.033 L 16.9123,-15.8115 L 17.1869,-15.5536 L 17.427,-15.2634 L 17.6289,-14.9453 L 17.7893,-14.6044
 L 17.8741,-14.3434 L 18.085,-14.3434 L 21.17,-9 L 18.085,-3.65663 z
M 26.915,-3.65663 L 23.83,-9 L 26.915,-14.3434 L 27.1259,-14.3434 L 27.2107,-14.6044 L 27.3711,-14.9453
 L 27.5729,-15.2634 L 27.8131,-15.5536 L 28.0877,-15.8115 L 28.3925,-16.033 L 28.7227,-16.2145 L 29.0729,-16.3532
 L 29.4379,-16.4469 L 29.8116,-16.4941 L 30.1884,-16.4941 L 30.5621,-16.4469 L 30.927,-16.3532 L 31.2773,-16.2145
 L 31.6075,-16.033 L 31.9123,-15.8115 L 32.1869,-15.5536 L 32.427,-15.2634 L 32.6289,-14.9453 L 32.7893,-14.6044
 L 32.8741,-14.3434 L 33.085,-14.3434 L 36.17,-9 L 33.085,-3.65663 z
M -33.085,-3.65663 L -36.17,-9 L -33.085,-14.3434 L -32.8741,-14.3434 L -32.7893,-14.6044 L -32.6289,-14.9453
 L -32.427,-15.2634 L -32.1869,-15.5536 L -31.9123,-15.8115 L -31.6075,-16.033 L -31.2773,-16.2145 L -30.927,-16.3532
 L -30.5621,-16.4469 L -30.1884,-16.4941 L -29.8116,-16.4941 L -29.4379,-16.4469 L -29.0729,-16.3532 L -28.7227,-16.2145
 L -28.3925,-16.033 L -28.0877,-15.8115 L -27.8131,-15.5536 L -27.5729,-15.2634 L -27.3711,-14.9453 L -27.2107,-14.6044
 L -27.1259,-14.3434 L -26.915,-14.3434 L -23.83,-9 L -26.915,-3.65663 z
M -18.085,-3.65663 L -21.17,-9 L -18.085,-14.3434 L -17.8741,-14.3434 L -17.7893,-14.6044 L -17.6289,-14.9453
 L -17.427,-15.2634 L -17.1869,-15.5536 L -16.9123,-15.8115 L -16.6075,-16.033 L -16.2773,-16.2145 L -15.927,-16.3532
 L -15.5621,-16.4469 L -15.1884,-16.4941 L -14.8116,-16.4941 L -14.4379,-16.4469 L -14.0729,-16.3532 L -13.7227,-16.2145
 L -13.3925,-16.033 L -13.0877,-15.8115 L -12.8131,-15.5536 L -12.5729,-15.2634 L -12.3711,-14.9453 L -12.2107,-14.6044
 L -12.1259,-14.3434 L -11.915,-14.3434 L -8.83,-9 L -11.915,-3.65663 z
M 41.915,-3.65663 L 38.83,-9 L 41.915,-14.3434 L 42.1259,-14.3434 L 42.2107,-14.6044 L 42.3711,-14.9453
 L 42.5729,-15.2634 L 42.8131,-15.5536 L 43.0877,-15.8115 L 43.3925,-16.033 L 43.7227,-16.2145 L 44.0729,-16.3532
 L 44.4379,-16.4469 L 44.8116,-16.4941 L 45.1884,-16.4941 L 45.5621,-16.4469 L 45.927,-16.3532 L 46.2773,-16.2145
 L 46.6075,-16.033 L 46.9123,-15.8115 L 47.1869,-15.5536 L 47.427,-15.2634 L 47.6289,-14.9453 L 47.7893,-14.6044
 L 47.8741,-14.3434 L 48.085,-14.3434 L 51.17,-9 L 48.085,-3.65663 z
M -7.6507,-11.1047 L -7.94971,-11.1425 L -8.24164,-11.2175 L -8.52187,-11.3284 L -8.78598,-11.4736 L -9.02982,-11.6508
 L -9.24951,-11.8571 L -9.44164,-12.0893 L -9.60313,-12.3438 L -9.73146,-12.6165 L -9.82458,-12.9031 L -9.88107,-13.1992
 L -9.89999,-13.5 L -9.88107,-13.8008 L -9.82458,-14.0968 L -9.73146,-14.3835 L -9.60313,-14.6562 L -9.44164,-14.9107
 L -9.24951,-15.1429 L -9.02982,-15.3492 L -8.78598,-15.5264 L -8.52187,-15.6716 L -8.24164,-15.7825 L -7.94971,-15.8575
 L -7.6507,-15.8953 L -7.34929,-15.8953 L -7.05028,-15.8575 L -6.75835,-15.7825 L -6.47812,-15.6716 L -6.214,-15.5264
 L -5.97017,-15.3492 L -5.75047,-15.1429 L -5.55835,-14.9107 L -5.39685,-14.6562 L -5.26852,-14.3835 L -5.1754,-14.0968
 L -5.11891,-13.8008 L -5.09999,-13.5 L -5.11891,-13.1992 L -5.1754,-12.9031 L -5.26852,-12.6165 L -5.39685,-12.3438
 L -5.55835,-12.0893 L -5.75047,-11.8571 L -5.97017,-11.6508 L -6.214,-11.4736 L -6.47812,-11.3284 L -6.75835,-11.2175
 L -7.05028,-11.1425 L -7.34929,-11.1047 z
M -22.6507,-11.1047 L -22.9497,-11.1425 L -23.2416,-11.2175 L -23.5219,-11.3284 L -23.786,-11.4736 L -24.0298,-11.6508
 L -24.2495,-11.8571 L -24.4416,-12.0893 L -24.6031,-12.3438 L -24.7315,-12.6165 L -24.8246,-12.9031 L -24.8811,-13.1992
 L -24.9,-13.5 L -24.8811,-13.8008 L -24.8246,-14.0968 L -24.7315,-14.3835 L -24.6031,-14.6562 L -24.4416,-14.9107
 L -24.2495,-15.1429 L -24.0298,-15.3492 L -23.786,-15.5264 L -23.5219,-15.6716 L -23.2416,-15.7825 L -22.9497,-15.8575
 L -22.6507,-15.8953 L -22.3493,-15.8953 L -22.0503,-15.8575 L -21.7583,-15.7825 L -21.4781,-15.6716 L -21.214,-15.5264
 L -20.9702,-15.3492 L -20.7505,-15.1429 L -20.5583,-14.9107 L -20.3969,-14.6562 L -20.2685,-14.3835 L -20.1754,-14.0968
 L -20.1189,-13.8008 L -20.1,-13.5 L -20.1189,-13.1992 L -20.1754,-12.9031 L -20.2685,-12.6165 L -20.3969,-12.3438
 L -20.5583,-12.0893 L -20.7505,-11.8571 L -20.9702,-11.6508 L -21.214,-11.4736 L -21.4781,-11.3284 L -21.7583,-11.2175
 L -22.0503,-11.1425 L -22.3493,-11.1047 z
M -37.6507,-11.1047 L -37.9497,-11.1425 L -38.2416,-11.2175 L -38.5219,-11.3284 L -38.786,-11.4736 L -39.0298,-11.6508
 L -39.2495,-11.8571 L -39.4416,-12.0893 L -39.6031,-12.3438 L -39.7315,-12.6165 L -39.8246,-12.9031 L -39.8811,-13.1992
 L -39.9,-13.5 L -39.8811,-13.8008 L -39.8246,-14.0968 L -39.7315,-14.3835 L -39.6031,-14.6562 L -39.4416,-14.9107
 L -39.2495,-15.1429 L -39.0298,-15.3492 L -38.786,-15.5264 L -38.5219,-15.6716 L -38.2416,-15.7825 L -37.9497,-15.8575
 L -37.6507,-15.8953 L -37.3493,-15.8953 L -37.0503,-15.8575 L -36.7583,-15.7825 L -36.4781,-15.6716 L -36.214,-15.5264
 L -35.9702,-15.3492 L -35.7505,-15.1429 L -35.5583,-14.9107 L -35.3969,-14.6562 L -35.2685,-14.3835 L -35.1754,-14.0968
 L -35.1189,-13.8008 L -35.1,-13.5 L -35.1189,-13.1992 L -35.1754,-12.9031 L -35.2685,-12.6165 L -35.3969,-12.3438
 L -35.5583,-12.0893 L -35.7505,-11.8571 L -35.9702,-11.6508 L -36.214,-11.4736 L -36.4781,-11.3284 L -36.7583,-11.2175
 L -37.0503,-11.1425 L -37.3493,-11.1047 z
M 22.3493,-11.1047 L 22.0503,-11.1425 L 21.7583,-11.2175 L 21.4781,-11.3284 L 21.214,-11.4736 L 20.9702,-11.6508
 L 20.7505,-11.8571 L 20.5583,-12.0893 L 20.3969,-12.3438 L 20.2685,-12.6165 L 20.1754,-12.9031 L 20.1189,-13.1992
 L 20.1,-13.5 L 20.1189,-13.8008 L 20.1754,-14.0968 L 20.2685,-14.3835 L 20.3969,-14.6562 L 20.5583,-14.9107
 L 20.7505,-15.1429 L 20.9702,-15.3492 L 21.214,-15.5264 L 21.4781,-15.6716 L 21.7583,-15.7825 L 22.0503,-15.8575
 L 22.3493,-15.8953 L 22.6507,-15.8953 L 22.9497,-15.8575 L 23.2416,-15.7825 L 23.5219,-15.6716 L 23.786,-15.5264
 L 24.0298,-15.3492 L 24.2495,-15.1429 L 24.4416,-14.9107 L 24.6031,-14.6562 L 24.7315,-14.3835 L 24.8246,-14.0968
 L 24.8811,-13.8008 L 24.9,-13.5 L 24.8811,-13.1992 L 24.8246,-12.9031 L 24.7315,-12.6165 L 24.6031,-12.3438
 L 24.4416,-12.0893 L 24.2495,-11.8571 L 24.0298,-11.6508 L 23.786,-11.4736 L 23.5219,-11.3284 L 23.2416,-11.2175
 L 22.9497,-11.1425 L 22.6507,-11.1047 z
M 7.40581,-12.0029 L 7.21892,-12.0266 L 7.03647,-12.0734 L 6.86133,-12.1427 L 6.69626,-12.2335 L 6.54385,-12.3442
 L 6.40654,-12.4732 L 6.28647,-12.6183 L 6.18553,-12.7774 L 6.10533,-12.9478 L 6.04712,-13.127 L 6.01183,-13.312
 L 6,-13.5 L 6.01183,-13.688 L 6.04712,-13.873 L 6.10533,-14.0522 L 6.18553,-14.2226 L 6.28647,-14.3817
 L 6.40654,-14.5268 L 6.54385,-14.6558 L 6.69626,-14.7665 L 6.86133,-14.8572 L 7.03647,-14.9266 L 7.21892,-14.9734
 L 7.40581,-14.997 L 7.59418,-14.997 L 7.78107,-14.9734 L 7.96352,-14.9266 L 8.13866,-14.8572 L 8.30373,-14.7665
 L 8.45613,-14.6558 L 8.59344,-14.5268 L 8.71352,-14.3817 L 8.81445,-14.2226 L 8.89465,-14.0522 L 8.95287,-13.873
 L 8.98816,-13.688 L 9,-13.5 L 8.98816,-13.312 L 8.95287,-13.127 L 8.89465,-12.9478 L 8.81445,-12.7774
 L 8.71352,-12.6183 L 8.59344,-12.4732 L 8.45613,-12.3442 L 8.30373,-12.2335 L 8.13866,-12.1427 L 7.96352,-12.0734
 L 7.78107,-12.0266 L 7.59418,-12.0029 z
M 37.4058,-12.0029 L 37.2189,-12.0266 L 37.0365,-12.0734 L 36.8613,-12.1427 L 36.6963,-12.2335 L 36.5439,-12.3442
 L 36.4065,-12.4732 L 36.2865,-12.6183 L 36.1855,-12.7774 L 36.1053,-12.9478 L 36.0471,-13.127 L 36.0118,-13.312
 L 36,-13.5 L 36.0118,-13.688 L 36.0471,-13.873 L 36.1053,-14.0522 L 36.1855,-14.2226 L 36.2865,-14.3817
 L 36.4065,-14.5268 L 36.5439,-14.6558 L 36.6963,-14.7665 L 36.8613,-14.8572 L 37.0365,-14.9266 L 37.2189,-14.9734
 L 37.4058,-14.997 L 37.5942,-14.997 L 37.7811,-14.9734 L 37.9635,-14.9266 L 38.1387,-14.8572 L 38.3037,-14.7665
 L 38.4561,-14.6558 L 38.5934,-14.5268 L 38.7135,-14.3817 L 38.8145,-14.2226 L 38.8947,-14.0522 L 38.9529,-13.873
 L 38.9882,-13.688 L 39,-13.5 L 38.9882,-13.312 L 38.9529,-13.127 L 38.8947,-12.9478 L 38.8145,-12.7774
 L 38.7135,-12.6183 L 38.5934,-12.4732 L 38.4561,-12.3442 L 38.3037,-12.2335 L 38.1387,-12.1427 L 37.9635,-12.0734
 L 37.7811,-12.0266 L 37.5942,-12.0029 z
" stroke="black" fill="lightgray" stroke-width="0.5"/>
</svg>
