<?xml version="1.0" standalone="no"?>
<!DOCTYPE svg PUBLIC "-//W3C//DTD SVG 1.1//EN" "http://www.w3.org/Graphics/SVG/1.1/DTD/svg11.dtd">
<svg width="82mm" height="32mm" viewBox="-41 -76 82 32" xmlns="http://www.w3.org/2000/svg" version="1.1">
<title>OpenSCAD Model</title>
<path d="
M 38.9684,-68.5443 L 39.2725,-68.6224 L 39.5644,-68.7379 L 39.8396,-68.8892 L 40.0936,-69.0737 L 40.3224,-69.2886
 L 40.5225,-69.5305 L 40.6908,-69.7956 L 40.8244,-70.0797 L 40.9214,-70.3783 L 40.9803,-70.6867 L 41,-71
 L 41,-73 L 40.9803,-73.3133 L 40.9214,-73.6217 L 40.8244,-73.9203 L 40.6908,-74.2044 L 40.5225,-74.4695
 L 40.3224,-74.7114 L 40.0936,-74.9263 L 39.8396,-75.1108 L 39.5644,-75.2621 L 39.2725,-75.3776 L 38.9684,-75.4557
 L 38.657,-75.4951 L -38.657,-75.4951 L -38.9684,-75.4557 L -39.2725,-75.3776 L -39.5644,-75.2621 L -39.8396,-75.1108
 L -40.0936,-74.9263 L -40.3224,-74.7114 L -40.5225,-74.4695 L -40.6908,-74.2044 L -40.8244,-73.9203 L -40.9214,-73.6217
 L -40.9803,-73.3133 L -41,-73 L -41,-71 L -40.9803,-70.6867 L -40.9214,-70.3783 L -40.8244,-70.0797
 L -40.6908,-69.7956 L -40.5225,-69.5305 L -40.3224,-69.2886 L -40.0936,-69.0737 L -39.8396,-68.8892 L -39.5644,-68.7379
 L -39.2725,-68.6224 L -38.9684,-68.5443 L -38.657,-68.5049 L 38.657,-68.5049 z
M -30.0942,-70.503 L -30.2811,-70.5266 L -30.4635,-70.5734 L -30.6387,-70.6428 L -30.8037,-70.7335 L -30.9561,-70.8442
 L -31.0934,-70.9732 L -31.2135,-71.1183 L -31.3145,-71.2774 L -31.3947,-71.4478 L -31.4529,-71.627 L -31.4882,-71.812
 L -31.5,-72 L -31.4882,-72.188 L -31.4529,-72.373 L -31.3947,-72.5522 L -31.3145,-72.7226 L -31.2135,-72.8817
 L -31.0934,-73.0268 L -30.9561,-73.1558 L -30.8037,-73.2665 L -30.6387,-73.3572 L -30.4635,-73.4266 L -30.2811,-73.4734
 L -30.0942,-73.497 L -29.9058,-73.497 L -29.7189,-73.4734 L -29.5365,-73.4266 L -29.3613,-73.3572 L -29.1963,-73.2665
 L -29.0439,-73.1558 L -28.9065,-73.0268 L -28.7865,-72.8817 L -28.6855,-72.7226 L -28.6053,-72.5522 L -28.5471,-72.373
 L -28.5118,-72.188 L -28.5,-72 L -28.5118,-71.812 L -28.5471,-71.627 L -28.6053,-71.4478 L -28.6855,-71.2774
 L -28.7865,-71.1183 L -28.9065,-70.9732 L -29.0439,-70.8442 L -29.1963,-70.7335 L -29.3613,-70.6428 L -29.5365,-70.5734
 L -29.7189,-70.5266 L -29.9058,-70.503 z
M -15.0942,-70.503 L -15.2811,-70.5266 L -15.4635,-70.5734 L -15.6387,-70.6428 L -15.8037,-70.7335 L -15.9561,-70.8442
 L -16.0934,-70.9732 L -16.2135,-71.1183 L -16.3145,-71.2774 L -16.3947,-71.4478 L -16.4529,-71.627 L -16.4882,-71.812
 L -16.5,-72 L -16.4882,-72.188 L -16.4529,-72.373 L -16.3947,-72.5522 L -16.3145,-72.7226 L -16.2135,-72.8817
 L -16.0934,-73.0268 L -15.9561,-73.1558 L -15.8037,-73.2665 L -15.6387,-73.3572 L -15.4635,-73.4266 L -15.2811,-73.4734
 L -15.0942,-73.497 L -14.9058,-73.497 L -14.7189,-73.4734 L -14.5365,-73.4266 L -14.3613,-73.3572 L -14.1963,-73.2665
 L -14.0439,-73.1558 L -13.9065,-73.0268 L -13.7865,-72.8817 L -13.6855,-72.7226 L -13.6053,-72.5522 L -13.5471,-72.373
 L -13.5118,-72.188 L -13.5,-72 L -13.5118,-71.812 L -13.5471,-71.627 L -13.6053,-71.4478 L -13.6855,-71.2774
 L -13.7865,-71.1183 L -13.9065,-70.9732 L -14.0439,-70.8442 L -14.1963,-70.7335 L -14.3613,-70.6428 L -14.5365,-70.5734
 L -14.7189,-70.5266 L -14.9058,-70.503 z
M -22.5942,-70.503 L -22.7811,-70.5266 L -22.9635,-70.5734 L -23.1387,-70.6428 L -23.3037,-70.7335 L -23.4561,-70.8442
 L -23.5934,-70.9732 L -23.7135,-71.1183 L -23.8145,-71.2774 L -23.8947,-71.4478 L -23.9529,-71.627 L -23.9882,-71.812
 L -24,-72 L -23.9882,-72.188 L -23.9529,-72.373 L -23.8947,-72.5522 L -23.8145,-72.7226 L -23.7135,-72.8817
 L -23.5934,-73.0268 L -23.4561,-73.1558 L -23.3037,-73.2665 L -23.1387,-73.3572 L -22.9635,-73.4266 L -22.7811,-73.4734
 L -22.5942,-73.497 L -22.4058,-73.497 L -22.2189,-73.4734 L -22.0365,-73.4266 L -21.8613,-73.3572 L -21.6963,-73.2665
 L -21.5439,-73.1558 L -21.4065,-73.0268 L -21.2865,-72.8817 L -21.1855,-72.7226 L -21.1053,-72.5522 L -21.0471,-72.373
 L -21.0118,-72.188 L -21,-72 L -21.0118,-71.812 L -21.0471,-71.627 L -21.1053,-71.4478 L -21.1855,-71.2774
 L -21.2865,-71.1183 L -21.4065,-70.9732 L -21.5439,-70.8442 L -21.6963,-70.7335 L -21.8613,-70.6428 L -22.0365,-70.5734
 L -22.2189,-70.5266 L -22.4058,-70.503 z
M -7.59418,-70.503 L -7.78107,-70.5266 L -7.96352,-70.5734 L -8.13866,-70.6428 L -8.30373,-70.7335 L -8.45613,-70.8442
 L -8.59344,-70.9732 L -8.71352,-71.1183 L -8.81445,-71.2774 L -8.89465,-71.4478 L -8.95287,-71.627 L -8.98816,-71.812
 L -9,-72 L -8.98816,-72.188 L -8.95287,-72.373 L -8.89465,-72.5522 L -8.81445,-72.7226 L -8.71352,-72.8817
 L -8.59344,-73.0268 L -8.45613,-73.1558 L -8.30373,-73.2665 L -8.13866,-73.3572 L -7.96352,-73.4266 L -7.78107,-73.4734
 L -7.59418,-73.497 L -7.40581,-73.497 L -7.21892,-73.4734 L -7.03647,-73.4266 L -6.86133,-73.3572 L -6.69626,-73.2665
 L -6.54385,-73.1558 L -6.40654,-73.0268 L -6.28647,-72.8817 L -6.18553,-72.7226 L -6.10533,-72.5522 L -6.04712,-72.373
 L -6.01183,-72.188 L -6,-72 L -6.01183,-71.812 L -6.04712,-71.627 L -6.10533,-71.4478 L -6.18553,-71.2774
 L -6.28647,-71.1183 L -6.40654,-70.9732 L -6.54385,-70.8442 L -6.69626,-70.7335 L -6.86133,-70.6428 L -7.03647,-70.5734
 L -7.21892,-70.5266 L -7.40581,-70.503 z
M 37.4058,-70.503 L 37.2189,-70.5266 L 37.0365,-70.5734 L 36.8613,-70.6428 L 36.6963,-70.7335 L 36.5439,-70.8442
 L 36.4065,-70.9732 L 36.2865,-71.1183 L 36.1855,-71.2774 L 36.1053,-71.4478 L 36.0471,-71.627 L 36.0118,-71.812
 L 36,-72 L 36.0118,-72.188 L 36.0471,-72.373 L 36.1053,-72.5522 L 36.1855,-72.7226 L 36.2865,-72.8817
 L 36.4065,-73.0268 L 36.5439,-73.1558 L 36.6963,-73.2665 L 36.8613,-73.3572 L 37.0365,-73.4266 L 37.2189,-73.4734
 L 37.4058,-73.497 L 37.5942,-73.497 L 37.7811,-73.4734 L 37.9635,-73.4266 L 38.1387,-73.3572 L 38.3037,-73.2665
 L 38.4561,-73.1558 L 38.5934,-73.0268 L 38.7135,-72.8817 L 38.8145,-72.7226 L 38.8947,-72.5522 L 38.9529,-72.373
 L 38.9882,-72.188 L 39,-72 L 38.9882,-71.812 L 38.9529,-71.627 L 38.8947,-71.4478 L 38.8145,-71.2774
 L 38.7135,-71.1183 L 38.5934,-70.9732 L 38.4561,-70.8442 L 38.3037,-70.7335 L 38.1387,-70.6428 L 37.9635,-70.5734
 L 37.7811,-70.5266 L 37.5942,-70.503 z
M 22.4058,-70.503 L 22.2189,-70.5266 L 22.0365,-70.5734 L 21.8613,-70.6428 L 21.6963,-70.7335 L 21.5439,-70.8442
 L 21.4065,-70.9732 L 21.2865,-71.1183 L 21.1855,-71.2774 L 21.1053,-71.4478 L 21.0471,-71.627 L 21.0118,-71.812
 L 21,-72 L 21.0118,-72.188 L 21.0471,-72.373 L 21.1053,-72.5522 L 21.1855,-72.7226 L 21.2865,-72.8817
 L 21.4065,-73.0268 L 21.5439,-73.1558 L 21.6963,-73.2665 L 21.8613,-73.3572 L 22.0365,-73.4266 L 22.2189,-73.4734
 L 22.4058,-73.497 L 22.5942,-73.497 L 22.7811,-73.4734 L 22.9635,-73.4266 L 23.1387,-73.3572 L 23.3037,-73.2665
 L 23.4561,-73.1558 L 23.5934,-73.0268 L 23.7135,-72.8817 L 23.8145,-72.7226 L 23.8947,-72.5522 L 23.9529,-72.373
 L 23.9882,-72.188 L 24,-72 L 23.9882,-71.812 L 23.9529,-71.627 L 23.8947,-71.4478 L 23.8145,-71.2774
 L 23.7135,-71.1183 L 23.5934,-70.9732 L 23.4561,-70.8442 L 23.3037,-70.7335 L 23.1387,-70.6428 L 22.9635,-70.5734
 L 22.7811,-70.5266 L 22.5942,-70.503 z
M 7.40581,-70.503 L 7.21892,-70.5266 L 7.03647,-70.5734 L 6.86133,-70.6428 L 6.69626,-70.7335 L 6.54385,-70.8442
 L 6.40654,-70.9732 L 6.28647,-71.1183 L 6.18553,-71.2774 L 6.10533,-71.4478 L 6.04712,-71.627 L 6.01183,-71.812
 L 6,-72 L 6.01183,-72.188 L 6.04712,-72.373 L 6.10533,-72.5522 L 6.18553,-72.7226 L 6.28647,-72.8817
 L 6.40654,-73.0268 L 6.54385,-73.1558 L 6.69626,-73.2665 L 6.86133,-73.3572 L 7.03647,-73.4266 L 7.21892,-73.4734
 L 7.40581,-73.497 L 7.59418,-73.497 L 7.78107,-73.4734 L 7.96352,-73.4266 L 8.13866,-73.3572 L 8.30373,-73.2665
 L 8.45613,-73.1558 L 8.59344,-73.0268 L 8.71352,-72.8817 L 8.81445,-72.7226 L 8.89465,-72.5522 L 8.95287,-72.373
 L 8.98816,-72.188 L 9,-72 L 8.98816,-71.812 L 8.95287,-71.627 L 8.89465,-71.4478 L 8.81445,-71.2774
 L 8.71352,-71.1183 L 8.59344,-70.9732 L 8.45613,-70.8442 L 8.30373,-70.7335 L 8.13866,-70.6428 L 7.96352,-70.5734
 L 7.78107,-70.5266 L 7.59418,-70.503 z
M 14.9058,-70.503 L 14.7189,-70.5266 L 14.5365,-70.5734 L 14.3613,-70.6428 L 14.1963,-70.7335 L 14.0439,-70.8442
 L 13.9065,-70.9732 L 13.7865,-71.1183 L 13.6855,-71.2774 L 13.6053,-71.4478 L 13.5471,-71.627 L 13.5118,-71.812
 L 13.5,-72 L 13.5118,-72.188 L 13.5471,-72.373 L 13.6053,-72.5522 L 13.6855,-72.7226 L 13.7865,-72.8817
 L 13.9065,-73.0268 L 14.0439,-73.1558 L 14.1963,-73.2665 L 14.3613,-73.3572 L 14.5365,-73.4266 L 14.7189,-73.4734
 L 14.9058,-73.497 L 15.0942,-73.497 L 15.2811,-73.4734 L 15.4635,-73.4266 L 15.6387,-73.3572 L 15.8037,-73.2665
 L 15.9561,-73.1558 L 16.0934,-73.0268 L 16.2135,-72.8817 L 16.3145,-72.7226 L 16.3947,-72.5522 L 16.4529,-72.373
 L 16.4882,-72.188 L 16.5,-72 L 16.4882,-71.812 L 16.4529,-71.627 L 16.3947,-71.4478 L 16.3145,-71.2774
 L 16.2135,-71.1183 L 16.0934,-70.9732 L 15.9561,-70.8442 L 15.8037,-70.7335 L 15.6387,-70.6428 L 15.4635,-70.5734
 L 15.2811,-70.5266 L 15.0942,-70.503 z
M -37.5942,-70.503 L -37.7811,-70.5266 L -37.9635,-70.5734 L -38.1387,-70.6428 L -38.3037,-70.7335 L -38.4561,-70.8442
 L -38.5934,-70.9732 L -38.7135,-71.1183 L -38.8145,-71.2774 L -38.8947,-71.4478 L -38.9529,-71.627 L -38.9882,-71.812
 L -39,-72 L -38.9882,-72.188 L -38.9529,-72.373 L -38.8947,-72.5522 L -38.8145,-72.7226 L -38.7135,-72.8817
 L -38.5934,-73.0268 L -38.4561,-73.1558 L -38.3037,-73.2665 L -38.1387,-73.3572 L -37.9635,-73.4266 L -37.7811,-73.4734
 L -37.5942,-73.497 L -37.4058,-73.497 L -37.2189,-73.4734 L -37.0365,-73.4266 L -36.8613,-73.3572 L -36.6963,-73.2665
 L -36.5439,-73.1558 L -36.4065,-73.0268 L -36.2865,-72.8817 L -36.1855,-72.7226 L -36.1053,-72.5522 L -36.0471,-72.373
 L -36.0118,-72.188 L -36,-72 L -36.0118,-71.812 L -36.0471,-71.627 L -36.1053,-71.4478 L -36.1855,-71.2774
 L -36.2865,-71.1183 L -36.4065,-70.9732 L -36.5439,-70.8442 L -36.6963,-70.7335 L -36.8613,-70.6428 L -37.0365,-70.5734
 L -37.2189,-70.5266 L -37.4058,-70.503 z
M -0.0941772,-70.503 L -0.281067,-70.5266 L -0.463516,-70.5734 L -0.638657,-70.6428 L -0.803726,-70.7335 L -0.956131,-70.8442
 L -1.09344,-70.9732 L -1.21352,-71.1183 L -1.31445,-71.2774 L -1.39465,-71.4478 L -1.45287,-71.627 L -1.48816,-71.812
 L -1.5,-72 L -1.48816,-72.188 L -1.45287,-72.373 L -1.39465,-72.5522 L -1.31445,-72.7226 L -1.21352,-72.8817
 L -1.09344,-73.0268 L -0.956131,-73.1558 L -0.803726,-73.2665 L -0.638657,-73.3572 L -0.463516,-73.4266 L -0.281067,-73.4734
 L -0.0941772,-73.497 L 0.0941772,-73.497 L 0.281067,-73.4734 L 0.463516,-73.4266 L 0.638657,-73.3572 L 0.803726,-73.2665
 L 0.956131,-73.1558 L 1.09344,-73.0268 L 1.21352,-72.8817 L 1.31445,-72.7226 L 1.39465,-72.5522 L 1.45287,-72.373
 L 1.48816,-72.188 L 1.5,-72 L 1.48816,-71.812 L 1.45287,-71.627 L 1.39465,-71.4478 L 1.31445,-71.2774
 L 1.21352,-71.1183 L 1.09344,-70.9732 L 0.956131,-70.8442 L 0.803726,-70.7335 L 0.638657,-70.6428 L 0.463516,-70.5734
 L 0.281067,-70.5266 L 0.0941772,-70.503 z
M 29.9058,-70.503 L 29.7189,-70.5266 L 29.5365,-70.5734 L 29.3613,-70.6428 L 29.1963,-70.7335 L 29.0439,-70.8442
 L 28.9065,-70.9732 L 28.7865,-71.1183 L 28.6855,-71.2774 L 28.6053,-71.4478 L 28.5471,-71.627 L 28.5118,-71.812
 L 28.5,-72 L 28.5118,-72.188 L 28.5471,-72.373 L 28.6053,-72.5522 L 28.6855,-72.7226 L 28.7865,-72.8817
 L 28.9065,-73.0268 L 29.0439,-73.1558 L 29.1963,-73.2665 L 29.3613,-73.3572 L 29.5365,-73.4266 L 29.7189,-73.4734
 L 29.9058,-73.497 L 30.0942,-73.497 L 30.2811,-73.4734 L 30.4635,-73.4266 L 30.6387,-73.3572 L 30.8037,-73.2665
 L 30.9561,-73.1558 L 31.0934,-73.0268 L 31.2135,-72.8817 L 31.3145,-72.7226 L 31.3947,-72.5522 L 31.4529,-72.373
 L 31.4882,-72.188 L 31.5,-72 L 31.4882,-71.812 L 31.4529,-71.627 L 31.3947,-71.4478 L 31.3145,-71.2774
 L 31.2135,-71.1183 L 31.0934,-70.9732 L 30.9561,-70.8442 L 30.8037,-70.7335 L 30.6387,-70.6428 L 30.4635,-70.5734
 L 30.2811,-70.5266 L 30.0942,-70.503 z
M 38.9684,-44.5443 L 39.2725,-44.6224 L 39.5644,-44.7379 L 39.8396,-44.8892 L 40.0936,-45.0737 L 40.3224,-45.2886
 L 40.5225,-45.5305 L 40.6908,-45.7956 L 40.8244,-46.0797 L 40.9214,-46.3783 L 40.9803,-46.6867 L 41,-47
 L 41,-49 L 40.9803,-49.3133 L 40.9214,-49.6217 L 40.8244,-49.9203 L 40.6908,-50.2044 L 40.5225,-50.4695
 L 40.3224,-50.7114 L 40.0936,-50.9263 L 39.8396,-51.1108 L 39.5644,-51.2621 L 39.2725,-51.3776 L 38.9684,-51.4557
 L 38.657,-51.4951 L -38.657,-51.4951 L -38.9684,-51.4557 L -39.2725,-51.3776 L -39.5644,-51.2621 L -39.8396,-51.1108
 L -40.0936,-50.9263 L -40.3224,-50.7114 L -40.5225,-50.4695 L -40.6908,-50.2044 L -40.8244,-49.9203 L -40.9214,-49.6217
 L -40.9803,-49.3133 L -41,-49 L -41,-47 L -40.9803,-46.6867 L -40.9214,-46.3783 L -40.8244,-46.0797
 L -40.6908,-45.7956 L -40.5225,-45.5305 L -40.3224,-45.2886 L -40.0936,-45.0737 L -39.8396,-44.8892 L -39.5644,-44.7379
 L -39.2725,-44.6224 L -38.9684,-44.5443 L -38.657,-44.5049 L 38.657,-44.5049 z
M -30.0942,-46.503 L -30.2811,-46.5266 L -30.4635,-46.5734 L -30.6387,-46.6428 L -30.8037,-46.7335 L -30.9561,-46.8442
 L -31.0934,-46.9732 L -31.2135,-47.1183 L -31.3145,-47.2774 L -31.3947,-47.4478 L -31.4529,-47.627 L -31.4882,-47.812
 L -31.5,-48 L -31.4882,-48.188 L -31.4529,-48.373 L -31.3947,-48.5522 L -31.3145,-48.7226 L -31.2135,-48.8817
 L -31.0934,-49.0268 L -30.9561,-49.1558 L -30.8037,-49.2665 L -30.6387,-49.3572 L -30.4635,-49.4266 L -30.2811,-49.4734
 L -30.0942,-49.497 L -29.9058,-49.497 L -29.7189,-49.4734 L -29.5365,-49.4266 L -29.3613,-49.3572 L -29.1963,-49.2665
 L -29.0439,-49.1558 L -28.9065,-49.0268 L -28.7865,-48.8817 L -28.6855,-48.7226 L -28.6053,-48.5522 L -28.5471,-48.373
 L -28.5118,-48.188 L -28.5,-48 L -28.5118,-47.812 L -28.5471,-47.627 L -28.6053,-47.4478 L -28.6855,-47.2774
 L -28.7865,-47.1183 L -28.9065,-46.9732 L -29.0439,-46.8442 L -29.1963,-46.7335 L -29.3613,-46.6428 L -29.5365,-46.5734
 L -29.7189,-46.5266 L -29.9058,-46.503 z
M -15.0942,-46.503 L -15.2811,-46.5266 L -15.4635,-46.5734 L -15.6387,-46.6428 L -15.8037,-46.7335 L -15.9561,-46.8442
 L -16.0934,-46.9732 L -16.2135,-47.1183 L -16.3145,-47.2774 L -16.3947,-47.4478 L -16.4529,-47.627 L -16.4882,-47.812
 L -16.5,-48 L -16.4882,-48.188 L -16.4529,-48.373 L -16.3947,-48.5522 L -16.3145,-48.7226 L -16.2135,-48.8817
 L -16.0934,-49.0268 L -15.9561,-49.1558 L -15.8037,-49.2665 L -15.6387,-49.3572 L -15.4635,-49.4266 L -15.2811,-49.4734
 L -15.0942,-49.497 L -14.9058,-49.497 L -14.7189,-49.4734 L -14.5365,-49.4266 L -14.3613,-49.3572 L -14.1963,-49.2665
 L -14.0439,-49.1558 L -13.9065,-49.0268 L -13.7865,-48.8817 L -13.6855,-48.7226 L -13.6053,-48.5522 L -13.5471,-48.373
 L -13.5118,-48.188 L -13.5,-48 L -13.5118,-47.812 L -13.5471,-47.627 L -13.6053,-47.4478 L -13.6855,-47.2774
 L -13.7865,-47.1183 L -13.9065,-46.9732 L -14.0439,-46.8442 L -14.1963,-46.7335 L -14.3613,-46.6428 L -14.5365,-46.5734
 L -14.7189,-46.5266 L -14.9058,-46.503 z
M -22.5942,-46.503 L -22.7811,-46.5266 L -22.9635,-46.5734 L -23.1387,-46.6428 L -23.3037,-46.7335 L -23.4561,-46.8442
 L -23.5934,-46.9732 L -23.7135,-47.1183 L -23.8145,-47.2774 L -23.8947,-47.4478 L -23.9529,-47.627 L -23.9882,-47.812
 L -24,-48 L -23.9882,-48.188 L -23.9529,-48.373 L -23.8947,-48.5522 L -23.8145,-48.7226 L -23.7135,-48.8817
 L -23.5934,-49.0268 L -23.4561,-49.1558 L -23.3037,-49.2665 L -23.1387,-49.3572 L -22.9635,-49.4266 L -22.7811,-49.4734
 L -22.5942,-49.497 L -22.4058,-49.497 L -22.2189,-49.4734 L -22.0365,-49.4266 L -21.8613,-49.3572 L -21.6963,-49.2665
 L -21.5439,-49.1558 L -21.4065,-49.0268 L -21.2865,-48.8817 L -21.1855,-48.7226 L -21.1053,-48.5522 L -21.0471,-48.373
 L -21.0118,-48.188 L -21,-48 L -21.0118,-47.812 L -21.0471,-47.627 L -21.1053,-47.4478 L -21.1855,-47.2774
 L -21.2865,-47.1183 L -21.4065,-46.9732 L -21.5439,-46.8442 L -21.6963,-46.7335 L -21.8613,-46.6428 L -22.0365,-46.5734
 L -22.2189,-46.5266 L -22.4058,-46.503 z
M -7.59418,-46.503 L -7.78107,-46.5266 L -7.96352,-46.5734 L -8.13866,-46.6428 L -8.30373,-46.7335 L -8.45613,-46.8442
 L -8.59344,-46.9732 L -8.71352,-47.1183 L -8.81445,-47.2774 L -8.89465,-47.4478 L -8.95287,-47.627 L -8.98816,-47.812
 L -9,-48 L -8.98816,-48.188 L -8.95287,-48.373 L -8.89465,-48.5522 L -8.81445,-48.7226 L -8.71352,-48.8817
 L -8.59344,-49.0268 L -8.45613,-49.1558 L -8.30373,-49.2665 L -8.13866,-49.3572 L -7.96352,-49.4266 L -7.78107,-49.4734
 L -7.59418,-49.497 L -7.40581,-49.497 L -7.21892,-49.4734 L -7.03647,-49.4266 L -6.86133,-49.3572 L -6.69626,-49.2665
 L -6.54385,-49.1558 L -6.40654,-49.0268 L -6.28647,-48.8817 L -6.18553,-48.7226 L -6.10533,-48.5522 L -6.04712,-48.373
 L -6.01183,-48.188 L -6,-48 L -6.01183,-47.812 L -6.04712,-47.627 L -6.10533,-47.4478 L -6.18553,-47.2774
 L -6.28647,-47.1183 L -6.40654,-46.9732 L -6.54385,-46.8442 L -6.69626,-46.7335 L -6.86133,-46.6428 L -7.03647,-46.5734
 L -7.21892,-46.5266 L -7.40581,-46.503 z
M 37.4058,-46.503 L 37.2189,-46.5266 L 37.0365,-46.5734 L 36.8613,-46.6428 L 36.6963,-46.7335 L 36.5439,-46.8442
 L 36.4065,-46.9732 L 36.2865,-47.1183 L 36.1855,-47.2774 L 36.1053,-47.4478 L 36.0471,-47.627 L 36.0118,-47.812
 L 36,-48 L 36.0118,-48.188 L 36.0471,-48.373 L 36.1053,-48.5522 L 36.1855,-48.7226 L 36.2865,-48.8817
 L 36.4065,-49.0268 L 36.5439,-49.1558 L 36.6963,-49.2665 L 36.8613,-49.3572 L 37.0365,-49.4266 L 37.2189,-49.4734
 L 37.4058,-49.497 L 37.5942,-49.497 L 37.7811,-49.4734 L 37.9635,-49.4266 L 38.1387,-49.3572 L 38.3037,-49.2665
 L 38.4561,-49.1558 L 38.5934,-49.0268 L 38.7135,-48.8817 L 38.8145,-48.7226 L 38.8947,-48.5522 L 38.9529,-48.373
 L 38.9882,-48.188 L 39,-48 L 38.9882,-47.812 L 38.9529,-47.627 L 38.8947,-47.4478 L 38.8145,-47.2774
 L 38.7135,-47.1183 L 38.5934,-46.9732 L 38.4561,-46.8442 L 38.3037,-46.7335 L 38.1387,-46.6428 L 37.9635,-46.5734
 L 37.7811,-46.5266 L 37.5942,-46.503 z
M 22.4058,-46.503 L 22.2189,-46.5266 L 22.0365,-46.5734 L 21.8613,-46.6428 L 21.6963,-46.7335 L 21.5439,-46.8442
 L 21.4065,-46.9732 L 21.2865,-47.1183 L 21.1855,-47.2774 L 21.1053,-47.4478 L 21.0471,-47.627 L 21.0118,-47.812
 L 21,-48 L 21.0118,-48.188 L 21.0471,-48.373 L 21.1053,-48.5522 L 21.1855,-48.7226 L 21.2865,-48.8817
 L 21.4065,-49.0268 L 21.5439,-49.1558 L 21.6963,-49.2665 L 21.8613,-49.3572 L 22.0365,-49.4266 L 22.2189,-49.4734
 L 22.4058,-49.497 L 22.5942,-49.497 L 22.7811,-49.4734 L 22.9635,-49.4266 L 23.1387,-49.3572 L 23.3037,-49.2665
 L 23.4561,-49.1558 L 23.5934,-49.0268 L 23.7135,-48.8817 L 23.8145,-48.7226 L 23.8947,-48.5522 L 23.9529,-48.373
 L 23.9882,-48.188 L 24,-48 L 23.9882,-47.812 L 23.9529,-47.627 L 23.8947,-47.4478 L 23.8145,-47.2774
 L 23.7135,-47.1183 L 23.5934,-46.9732 L 23.4561,-46.8442 L 23.3037,-46.7335 L 23.1387,-46.6428 L 22.9635,-46.5734
 L 22.7811,-46.5266 L 22.5942,-46.503 z
M 7.40581,-46.503 L 7.21892,-46.5266 L 7.03647,-46.5734 L 6.86133,-46.6428 L 6.69626,-46.7335 L 6.54385,-46.8442
 L 6.40654,-46.9732 L 6.28647,-47.1183 L 6.18553,-47.2774 L 6.10533,-47.4478 L 6.04712,-47.627 L 6.01183,-47.812
 L 6,-48 L 6.01183,-48.188 L 6.04712,-48.373 L 6.10533,-48.5522 L 6.18553,-48.7226 L 6.28647,-48.8817
 L 6.40654,-49.0268 L 6.54385,-49.1558 L 6.69626,-49.2665 L 6.86133,-49.3572 L 7.03647,-49.4266 L 7.21892,-49.4734
 L 7.40581,-49.497 L 7.59418,-49.497 L 7.78107,-49.4734 L 7.96352,-49.4266 L 8.13866,-49.3572 L 8.30373,-49.2665
 L 8.45613,-49.1558 L 8.59344,-49.0268 L 8.71352,-48.8817 L 8.81445,-48.7226 L 8.89465,-48.5522 L 8.95287,-48.373
 L 8.98816,-48.188 L 9,-48 L 8.98816,-47.812 L 8.95287,-47.627 L 8.89465,-47.4478 L 8.81445,-47.2774
 L 8.71352,-47.1183 L 8.59344,-46.9732 L 8.45613,-46.8442 L 8.30373,-46.7335 L 8.13866,-46.6428 L 7.96352,-46.5734
 L 7.78107,-46.5266 L 7.59418,-46.503 z
M 14.9058,-46.503 L 14.7189,-46.5266 L 14.5365,-46.5734 L 14.3613,-46.6428 L 14.1963,-46.7335 L 14.0439,-46.8442
 L 13.9065,-46.9732 L 13.7865,-47.1183 L 13.6855,-47.2774 L 13.6053,-47.4478 L 13.5471,-47.627 L 13.5118,-47.812
 L 13.5,-48 L 13.5118,-48.188 L 13.5471,-48.373 L 13.6053,-48.5522 L 13.6855,-48.7226 L 13.7865,-48.8817
 L 13.9065,-49.0268 L 14.0439,-49.1558 L 14.1963,-49.2665 L 14.3613,-49.3572 L 14.5365,-49.4266 L 14.7189,-49.4734
 L 14.9058,-49.497 L 15.0942,-49.497 L 15.2811,-49.4734 L 15.4635,-49.4266 L 15.6387,-49.3572 L 15.8037,-49.2665
 L 15.9561,-49.1558 L 16.0934,-49.0268 L 16.2135,-48.8817 L 16.3145,-48.7226 L 16.3947,-48.5522 L 16.4529,-48.373
 L 16.4882,-48.188 L 16.5,-48 L 16.4882,-47.812 L 16.4529,-47.627 L 16.3947,-47.4478 L 16.3145,-47.2774
 L 16.2135,-47.1183 L 16.0934,-46.9732 L 15.9561,-46.8442 L 15.8037,-46.7335 L 15.6387,-46.6428 L 15.4635,-46.5734
 L 15.2811,-46.5266 L 15.0942,-46.503 z
M -37.5942,-46.503 L -37.7811,-46.5266 L -37.9635,-46.5734 L -38.1387,-46.6428 L -38.3037,-46.7335 L -38.4561,-46.8442
 L -38.5934,-46.9732 L -38.7135,-47.1183 L -38.8145,-47.2774 L -38.8947,-47.4478 L -38.9529,-47.627 L -38.9882,-47.812
 L -39,-48 L -38.9882,-48.188 L -38.9529,-48.373 L -38.8947,-48.5522 L -38.8145,-48.7226 L -38.7135,-48.8817
 L -38.5934,-49.0268 L -38.4561,-49.1558 L -38.3037,-49.2665 L -38.1387,-49.3572 L -37.9635,-49.4266 L -37.7811,-49.4734
 L -37.5942,-49.497 L -37.4058,-49.497 L -37.2189,-49.4734 L -37.0365,-49.4266 L -36.8613,-49.3572 L -36.6963,-49.2665
 L -36.5439,-49.1558 L -36.4065,-49.0268 L -36.2865,-48.8817 L -36.1855,-48.7226 L -36.1053,-48.5522 L -36.0471,-48.373
 L -36.0118,-48.188 L -36,-48 L -36.0118,-47.812 L -36.0471,-47.627 L -36.1053,-47.4478 L -36.1855,-47.2774
 L -36.2865,-47.1183 L -36.4065,-46.9732 L -36.5439,-46.8442 L -36.6963,-46.7335 L -36.8613,-46.6428 L -37.0365,-46.5734
 L -37.2189,-46.5266 L -37.4058,-46.503 z
M -0.0941772,-46.503 L -0.281067,-46.5266 L -0.463516,-46.5734 L -0.638657,-46.6428 L -0.803726,-46.7335 L -0.956131,-46.8442
 L -1.09344,-46.9732 L -1.21352,-47.1183 L -1.31445,-47.2774 L -1.39465,-47.4478 L -1.45287,-47.627 L -1.48816,-47.812
 L -1.5,-48 L -1.48816,-48.188 L -1.45287,-48.373 L -1.39465,-48.5522 L -1.31445,-48.7226 L -1.21352,-48.8817
 L -1.09344,-49.0268 L -0.956131,-49.1558 L -0.803726,-49.2665 L -0.638657,-49.3572 L -0.463516,-49.4266 L -0.281067,-49.4734
 L -0.0941772,-49.497 L 0.0941772,-49.497 L 0.281067,-49.4734 L 0.463516,-49.4266 L 0.638657,-49.3572 L 0.803726,-49.2665
 L 0.956131,-49.1558 L 1.09344,-49.0268 L 1.21352,-48.8817 L 1.31445,-48.7226 L 1.39465,-48.5522 L 1.45287,-48.373
 L 1.48816,-48.188 L 1.5,-48 L 1.48816,-47.812 L 1.45287,-47.627 L 1.39465,-47.4478 L 1.31445,-47.2774
 L 1.21352,-47.1183 L 1.09344,-46.9732 L 0.956131,-46.8442 L 0.803726,-46.7335 L 0.638657,-46.6428 L 0.463516,-46.5734
 L 0.281067,-46.5266 L 0.0941772,-46.503 z
M 29.9058,-46.503 L 29.7189,-46.5266 L 29.5365,-46.5734 L 29.3613,-46.6428 L 29.1963,-46.7335 L 29.0439,-46.8442
 L 28.9065,-46.9732 L 28.7865,-47.1183 L 28.6855,-47.2774 L 28.6053,-47.4478 L 28.5471,-47.627 L 28.5118,-47.812
 L 28.5,-48 L 28.5118,-48.188 L 28.5471,-48.373 L 28.6053,-48.5522 L 28.6855,-48.7226 L 28.7865,-48.8817
 L 28.9065,-49.0268 L 29.0439,-49.1558 L 29.1963,-49.2665 L 29.3613,-49.3572 L 29.5365,-49.4266 L 29.7189,-49.4734
 L 29.9058,-49.497 L 30.0942,-49.497 L 30.2811,-49.4734 L 30.4635,-49.4266 L 30.6387,-49.3572 L 30.8037,-49.2665
 L 30.9561,-49.1558 L 31.0934,-49.0268 L 31.2135,-48.8817 L 31.3145,-48.7226 L 31.3947,-48.5522 L 31.4529,-48.373
 L 31.4882,-48.188 L 31.5,-48 L 31.4882,-47.812 L 31.4529,-47.627 L 31.3947,-47.4478 L 31.3145,-47.2774
 L 31.2135,-47.1183 L 31.0934,-46.9732 L 30.9561,-46.8442 L 30.8037,-46.7335 L 30.6387,-46.6428 L 30.4635,-46.5734
 L 30.2811,-46.5266 L 30.0942,-46.503 z
" stroke="black" fill="lightgray" stroke-width="0.5"/>
</svg>
