<?xml version="1.0" standalone="no"?>
<!DOCTYPE svg PUBLIC "-//W3C//DTD SVG 1.1//EN" "http://www.w3.org/Graphics/SVG/1.1/DTD/svg11.dtd">
<svg width="150mm" height="38mm" viewBox="-75 -19 150 38" xmlns="http://www.w3.org/2000/svg" version="1.1">
<title>OpenSCAD Model</title>
<path d="
M 72.7184,18.4557 L 73.0225,18.3776 L 73.3144,18.2621 L 73.5896,18.1108 L 73.8436,17.9263 L 74.0724,17.7114
 L 74.2725,17.4695 L 74.4408,17.2044 L 74.5744,16.9203 L 74.6714,16.6217 L 74.7303,16.3133 L 74.75,16
 L 74.75,-16 L 74.7303,-16.3133 L 74.6714,-16.6217 L 74.5744,-16.9203 L 74.4408,-17.2044 L 74.2725,-17.4695
 L 74.0724,-17.7114 L 73.8436,-17.9263 L 73.5896,-18.1108 L 73.3144,-18.2621 L 73.0225,-18.3776 L 72.7184,-18.4557
 L 72.407,-18.4951 L -72.407,-18.4951 L -72.7184,-18.4557 L -73.0225,-18.3776 L -73.3144,-18.2621 L -73.5896,-18.1108
 L -73.8436,-17.9263 L -74.0724,-17.7114 L -74.2725,-17.4695 L -74.4408,-17.2044 L -74.5744,-16.9203 L -74.6714,-16.6217
 L -74.7303,-16.3133 L -74.75,-16 L -74.75,16 L -74.7303,16.3133 L -74.6714,16.6217 L -74.5744,16.9203
 L -74.4408,17.2044 L -74.2725,17.4695 L -74.0724,17.7114 L -73.8436,17.9263 L -73.5896,18.1108 L -73.3144,18.2621
 L -73.0225,18.3776 L -72.7184,18.4557 L -72.407,18.4951 L 72.407,18.4951 z
M 33.6558,-13.5029 L 33.4689,-13.5266 L 33.2865,-13.5734 L 33.1113,-13.6427 L 32.9463,-13.7335 L 32.7939,-13.8442
 L 32.6565,-13.9732 L 32.5365,-14.1183 L 32.4355,-14.2774 L 32.3553,-14.4478 L 32.2971,-14.627 L 32.2618,-14.812
 L 32.25,-15 L 32.2618,-15.188 L 32.2971,-15.373 L 32.3553,-15.5522 L 32.4355,-15.7226 L 32.5365,-15.8817
 L 32.6565,-16.0268 L 32.7939,-16.1558 L 32.9463,-16.2665 L 33.1113,-16.3572 L 33.2865,-16.4266 L 33.4689,-16.4734
 L 33.6558,-16.497 L 33.8442,-16.497 L 34.0311,-16.4734 L 34.2135,-16.4266 L 34.3887,-16.3572 L 34.5537,-16.2665
 L 34.7061,-16.1558 L 34.8434,-16.0268 L 34.9635,-15.8817 L 35.0645,-15.7226 L 35.1447,-15.5522 L 35.2029,-15.373
 L 35.2382,-15.188 L 35.25,-15 L 35.2382,-14.812 L 35.2029,-14.627 L 35.1447,-14.4478 L 35.0645,-14.2774
 L 34.9635,-14.1183 L 34.8434,-13.9732 L 34.7061,-13.8442 L 34.5537,-13.7335 L 34.3887,-13.6427 L 34.2135,-13.5734
 L 34.0311,-13.5266 L 33.8442,-13.5029 z
M -71.3442,-13.5029 L -71.5311,-13.5266 L -71.7135,-13.5734 L -71.8887,-13.6427 L -72.0537,-13.7335 L -72.2061,-13.8442
 L -72.3434,-13.9732 L -72.4635,-14.1183 L -72.5645,-14.2774 L -72.6447,-14.4478 L -72.7029,-14.627 L -72.7382,-14.812
 L -72.75,-15 L -72.7382,-15.188 L -72.7029,-15.373 L -72.6447,-15.5522 L -72.5645,-15.7226 L -72.4635,-15.8817
 L -72.3434,-16.0268 L -72.2061,-16.1558 L -72.0537,-16.2665 L -71.8887,-16.3572 L -71.7135,-16.4266 L -71.5311,-16.4734
 L -71.3442,-16.497 L -71.1558,-16.497 L -70.9689,-16.4734 L -70.7865,-16.4266 L -70.6113,-16.3572 L -70.4463,-16.2665
 L -70.2939,-16.1558 L -70.1565,-16.0268 L -70.0365,-15.8817 L -69.9355,-15.7226 L -69.8553,-15.5522 L -69.7971,-15.373
 L -69.7618,-15.188 L -69.75,-15 L -69.7618,-14.812 L -69.7971,-14.627 L -69.8553,-14.4478 L -69.9355,-14.2774
 L -70.0365,-14.1183 L -70.1565,-13.9732 L -70.2939,-13.8442 L -70.4463,-13.7335 L -70.6113,-13.6427 L -70.7865,-13.5734
 L -70.9689,-13.5266 L -71.1558,-13.5029 z
M 56.1558,-13.5029 L 55.9689,-13.5266 L 55.7865,-13.5734 L 55.6113,-13.6427 L 55.4463,-13.7335 L 55.2939,-13.8442
 L 55.1565,-13.9732 L 55.0365,-14.1183 L 54.9355,-14.2774 L 54.8553,-14.4478 L 54.7971,-14.627 L 54.7618,-14.812
 L 54.75,-15 L 54.7618,-15.188 L 54.7971,-15.373 L 54.8553,-15.5522 L 54.9355,-15.7226 L 55.0365,-15.8817
 L 55.1565,-16.0268 L 55.2939,-16.1558 L 55.4463,-16.2665 L 55.6113,-16.3572 L 55.7865,-16.4266 L 55.9689,-16.4734
 L 56.1558,-16.497 L 56.3442,-16.497 L 56.5311,-16.4734 L 56.7135,-16.4266 L 56.8887,-16.3572 L 57.0537,-16.2665
 L 57.2061,-16.1558 L 57.3434,-16.0268 L 57.4635,-15.8817 L 57.5645,-15.7226 L 57.6447,-15.5522 L 57.7029,-15.373
 L 57.7382,-15.188 L 57.75,-15 L 57.7382,-14.812 L 57.7029,-14.627 L 57.6447,-14.4478 L 57.5645,-14.2774
 L 57.4635,-14.1183 L 57.3434,-13.9732 L 57.2061,-13.8442 L 57.0537,-13.7335 L 56.8887,-13.6427 L 56.7135,-13.5734
 L 56.5311,-13.5266 L 56.3442,-13.5029 z
M 3.65581,-13.5029 L 3.46892,-13.5266 L 3.28647,-13.5734 L 3.11133,-13.6427 L 2.94626,-13.7335 L 2.79385,-13.8442
 L 2.65654,-13.9732 L 2.53647,-14.1183 L 2.43553,-14.2774 L 2.35533,-14.4478 L 2.29712,-14.627 L 2.26183,-14.812
 L 2.25,-15 L 2.26183,-15.188 L 2.29712,-15.373 L 2.35533,-15.5522 L 2.43553,-15.7226 L 2.53647,-15.8817
 L 2.65654,-16.0268 L 2.79385,-16.1558 L 2.94626,-16.2665 L 3.11133,-16.3572 L 3.28647,-16.4266 L 3.46892,-16.4734
 L 3.65581,-16.497 L 3.84418,-16.497 L 4.03107,-16.4734 L 4.21352,-16.4266 L 4.38866,-16.3572 L 4.55373,-16.2665
 L 4.70613,-16.1558 L 4.84344,-16.0268 L 4.96352,-15.8817 L 5.06445,-15.7226 L 5.14465,-15.5522 L 5.20287,-15.373
 L 5.23816,-15.188 L 5.25,-15 L 5.23816,-14.812 L 5.20287,-14.627 L 5.14465,-14.4478 L 5.06445,-14.2774
 L 4.96352,-14.1183 L 4.84344,-13.9732 L 4.70613,-13.8442 L 4.55373,-13.7335 L 4.38866,-13.6427 L 4.21352,-13.5734
 L 4.03107,-13.5266 L 3.84418,-13.5029 z
M -41.3442,-13.5029 L -41.5311,-13.5266 L -41.7135,-13.5734 L -41.8887,-13.6427 L -42.0537,-13.7335 L -42.2061,-13.8442
 L -42.3434,-13.9732 L -42.4635,-14.1183 L -42.5645,-14.2774 L -42.6447,-14.4478 L -42.7029,-14.627 L -42.7382,-14.812
 L -42.75,-15 L -42.7382,-15.188 L -42.7029,-15.373 L -42.6447,-15.5522 L -42.5645,-15.7226 L -42.4635,-15.8817
 L -42.3434,-16.0268 L -42.2061,-16.1558 L -42.0537,-16.2665 L -41.8887,-16.3572 L -41.7135,-16.4266 L -41.5311,-16.4734
 L -41.3442,-16.497 L -41.1558,-16.497 L -40.9689,-16.4734 L -40.7865,-16.4266 L -40.6113,-16.3572 L -40.4463,-16.2665
 L -40.2939,-16.1558 L -40.1565,-16.0268 L -40.0365,-15.8817 L -39.9355,-15.7226 L -39.8553,-15.5522 L -39.7971,-15.373
 L -39.7618,-15.188 L -39.75,-15 L -39.7618,-14.812 L -39.7971,-14.627 L -39.8553,-14.4478 L -39.9355,-14.2774
 L -40.0365,-14.1183 L -40.1565,-13.9732 L -40.2939,-13.8442 L -40.4463,-13.7335 L -40.6113,-13.6427 L -40.7865,-13.5734
 L -40.9689,-13.5266 L -41.1558,-13.5029 z
M -11.3442,-13.5029 L -11.5311,-13.5266 L -11.7135,-13.5734 L -11.8887,-13.6427 L -12.0537,-13.7335 L -12.2061,-13.8442
 L -12.3434,-13.9732 L -12.4635,-14.1183 L -12.5645,-14.2774 L -12.6447,-14.4478 L -12.7029,-14.627 L -12.7382,-14.812
 L -12.75,-15 L -12.7382,-15.188 L -12.7029,-15.373 L -12.6447,-15.5522 L -12.5645,-15.7226 L -12.4635,-15.8817
 L -12.3434,-16.0268 L -12.2061,-16.1558 L -12.0537,-16.2665 L -11.8887,-16.3572 L -11.7135,-16.4266 L -11.5311,-16.4734
 L -11.3442,-16.497 L -11.1558,-16.497 L -10.9689,-16.4734 L -10.7865,-16.4266 L -10.6113,-16.3572 L -10.4463,-16.2665
 L -10.2939,-16.1558 L -10.1565,-16.0268 L -10.0365,-15.8817 L -9.93553,-15.7226 L -9.85533,-15.5522 L -9.79712,-15.373
 L -9.76183,-15.188 L -9.75,-15 L -9.76183,-14.812 L -9.79712,-14.627 L -9.85533,-14.4478 L -9.93553,-14.2774
 L -10.0365,-14.1183 L -10.1565,-13.9732 L -10.2939,-13.8442 L -10.4463,-13.7335 L -10.6113,-13.6427 L -10.7865,-13.5734
 L -10.9689,-13.5266 L -11.1558,-13.5029 z
M 11.1558,-13.5029 L 10.9689,-13.5266 L 10.7865,-13.5734 L 10.6113,-13.6427 L 10.4463,-13.7335 L 10.2939,-13.8442
 L 10.1565,-13.9732 L 10.0365,-14.1183 L 9.93553,-14.2774 L 9.85533,-14.4478 L 9.79712,-14.627 L 9.76183,-14.812
 L 9.75,-15 L 9.76183,-15.188 L 9.79712,-15.373 L 9.85533,-15.5522 L 9.93553,-15.7226 L 10.0365,-15.8817
 L 10.1565,-16.0268 L 10.2939,-16.1558 L 10.4463,-16.2665 L 10.6113,-16.3572 L 10.7865,-16.4266 L 10.9689,-16.4734
 L 11.1558,-16.497 L 11.3442,-16.497 L 11.5311,-16.4734 L 11.7135,-16.4266 L 11.8887,-16.3572 L 12.0537,-16.2665
 L 12.2061,-16.1558 L 12.3434,-16.0268 L 12.4635,-15.8817 L 12.5645,-15.7226 L 12.6447,-15.5522 L 12.7029,-15.373
 L 12.7382,-15.188 L 12.75,-15 L 12.7382,-14.812 L 12.7029,-14.627 L 12.6447,-14.4478 L 12.5645,-14.2774
 L 12.4635,-14.1183 L 12.3434,-13.9732 L 12.2061,-13.8442 L 12.0537,-13.7335 L 11.8887,-13.6427 L 11.7135,-13.5734
 L 11.5311,-13.5266 L 11.3442,-13.5029 z
M -63.8442,-13.5029 L -64.0311,-13.5266 L -64.2135,-13.5734 L -64.3887,-13.6427 L -64.5537,-13.7335 L -64.7061,-13.8442
 L -64.8434,-13.9732 L -64.9635,-14.1183 L -65.0645,-14.2774 L -65.1447,-14.4478 L -65.2029,-14.627 L -65.2382,-14.812
 L -65.25,-15 L -65.2382,-15.188 L -65.2029,-15.373 L -65.1447,-15.5522 L -65.0645,-15.7226 L -64.9635,-15.8817
 L -64.8434,-16.0268 L -64.7061,-16.1558 L -64.5537,-16.2665 L -64.3887,-16.3572 L -64.2135,-16.4266 L -64.0311,-16.4734
 L -63.8442,-16.497 L -63.6558,-16.497 L -63.4689,-16.4734 L -63.2865,-16.4266 L -63.1113,-16.3572 L -62.9463,-16.2665
 L -62.7939,-16.1558 L -62.6565,-16.0268 L -62.5365,-15.8817 L -62.4355,-15.7226 L -62.3553,-15.5522 L -62.2971,-15.373
 L -62.2618,-15.188 L -62.25,-15 L -62.2618,-14.812 L -62.2971,-14.627 L -62.3553,-14.4478 L -62.4355,-14.2774
 L -62.5365,-14.1183 L -62.6565,-13.9732 L -62.7939,-13.8442 L -62.9463,-13.7335 L -63.1113,-13.6427 L -63.2865,-13.5734
 L -63.4689,-13.5266 L -63.6558,-13.5029 z
M 48.6558,-13.5029 L 48.4689,-13.5266 L 48.2865,-13.5734 L 48.1113,-13.6427 L 47.9463,-13.7335 L 47.7939,-13.8442
 L 47.6565,-13.9732 L 47.5365,-14.1183 L 47.4355,-14.2774 L 47.3553,-14.4478 L 47.2971,-14.627 L 47.2618,-14.812
 L 47.25,-15 L 47.2618,-15.188 L 47.2971,-15.373 L 47.3553,-15.5522 L 47.4355,-15.7226 L 47.5365,-15.8817
 L 47.6565,-16.0268 L 47.7939,-16.1558 L 47.9463,-16.2665 L 48.1113,-16.3572 L 48.2865,-16.4266 L 48.4689,-16.4734
 L 48.6558,-16.497 L 48.8442,-16.497 L 49.0311,-16.4734 L 49.2135,-16.4266 L 49.3887,-16.3572 L 49.5537,-16.2665
 L 49.7061,-16.1558 L 49.8434,-16.0268 L 49.9635,-15.8817 L 50.0645,-15.7226 L 50.1447,-15.5522 L 50.2029,-15.373
 L 50.2382,-15.188 L 50.25,-15 L 50.2382,-14.812 L 50.2029,-14.627 L 50.1447,-14.4478 L 50.0645,-14.2774
 L 49.9635,-14.1183 L 49.8434,-13.9732 L 49.7061,-13.8442 L 49.5537,-13.7335 L 49.3887,-13.6427 L 49.2135,-13.5734
 L 49.0311,-13.5266 L 48.8442,-13.5029 z
M -48.8442,-13.5029 L -49.0311,-13.5266 L -49.2135,-13.5734 L -49.3887,-13.6427 L -49.5537,-13.7335 L -49.7061,-13.8442
 L -49.8434,-13.9732 L -49.9635,-14.1183 L -50.0645,-14.2774 L -50.1447,-14.4478 L -50.2029,-14.627 L -50.2382,-14.812
 L -50.25,-15 L -50.2382,-15.188 L -50.2029,-15.373 L -50.1447,-15.5522 L -50.0645,-15.7226 L -49.9635,-15.8817
 L -49.8434,-16.0268 L -49.7061,-16.1558 L -49.5537,-16.2665 L -49.3887,-16.3572 L -49.2135,-16.4266 L -49.0311,-16.4734
 L -48.8442,-16.497 L -48.6558,-16.497 L -48.4689,-16.4734 L -48.2865,-16.4266 L -48.1113,-16.3572 L -47.9463,-16.2665
 L -47.7939,-16.1558 L -47.6565,-16.0268 L -47.5365,-15.8817 L -47.4355,-15.7226 L -47.3553,-15.5522 L -47.2971,-15.373
 L -47.2618,-15.188 L -47.25,-15 L -47.2618,-14.812 L -47.2971,-14.627 L -47.3553,-14.4478 L -47.4355,-14.2774
 L -47.5365,-14.1183 L -47.6565,-13.9732 L -47.7939,-13.8442 L -47.9463,-13.7335 L -48.1113,-13.6427 L -48.2865,-13.5734
 L -48.4689,-13.5266 L -48.6558,-13.5029 z
M -56.3442,-13.5029 L -56.5311,-13.5266 L -56.7135,-13.5734 L -56.8887,-13.6427 L -57.0537,-13.7335 L -57.2061,-13.8442
 L -57.3434,-13.9732 L -57.4635,-14.1183 L -57.5645,-14.2774 L -57.6447,-14.4478 L -57.7029,-14.627 L -57.7382,-14.812
 L -57.75,-15 L -57.7382,-15.188 L -57.7029,-15.373 L -57.6447,-15.5522 L -57.5645,-15.7226 L -57.4635,-15.8817
 L -57.3434,-16.0268 L -57.2061,-16.1558 L -57.0537,-16.2665 L -56.8887,-16.3572 L -56.7135,-16.4266 L -56.5311,-16.4734
 L -56.3442,-16.497 L -56.1558,-16.497 L -55.9689,-16.4734 L -55.7865,-16.4266 L -55.6113,-16.3572 L -55.4463,-16.2665
 L -55.2939,-16.1558 L -55.1565,-16.0268 L -55.0365,-15.8817 L -54.9355,-15.7226 L -54.8553,-15.5522 L -54.7971,-15.373
 L -54.7618,-15.188 L -54.75,-15 L -54.7618,-14.812 L -54.7971,-14.627 L -54.8553,-14.4478 L -54.9355,-14.2774
 L -55.0365,-14.1183 L -55.1565,-13.9732 L -55.2939,-13.8442 L -55.4463,-13.7335 L -55.6113,-13.6427 L -55.7865,-13.5734
 L -55.9689,-13.5266 L -56.1558,-13.5029 z
M 18.6558,-13.5029 L 18.4689,-13.5266 L 18.2865,-13.5734 L 18.1113,-13.6427 L 17.9463,-13.7335 L 17.7939,-13.8442
 L 17.6565,-13.9732 L 17.5365,-14.1183 L 17.4355,-14.2774 L 17.3553,-14.4478 L 17.2971,-14.627 L 17.2618,-14.812
 L 17.25,-15 L 17.2618,-15.188 L 17.2971,-15.373 L 17.3553,-15.5522 L 17.4355,-15.7226 L 17.5365,-15.8817
 L 17.6565,-16.0268 L 17.7939,-16.1558 L 17.9463,-16.2665 L 18.1113,-16.3572 L 18.2865,-16.4266 L 18.4689,-16.4734
 L 18.6558,-16.497 L 18.8442,-16.497 L 19.0311,-16.4734 L 19.2135,-16.4266 L 19.3887,-16.3572 L 19.5537,-16.2665
 L 19.7061,-16.1558 L 19.8434,-16.0268 L 19.9635,-15.8817 L 20.0645,-15.7226 L 20.1447,-15.5522 L 20.2029,-15.373
 L 20.2382,-15.188 L 20.25,-15 L 20.2382,-14.812 L 20.2029,-14.627 L 20.1447,-14.4478 L 20.0645,-14.2774
 L 19.9635,-14.1183 L 19.8434,-13.9732 L 19.7061,-13.8442 L 19.5537,-13.7335 L 19.3887,-13.6427 L 19.2135,-13.5734
 L 19.0311,-13.5266 L 18.8442,-13.5029 z
M 71.1558,-13.5029 L 70.9689,-13.5266 L 70.7865,-13.5734 L 70.6113,-13.6427 L 70.4463,-13.7335 L 70.2939,-13.8442
 L 70.1565,-13.9732 L 70.0365,-14.1183 L 69.9355,-14.2774 L 69.8553,-14.4478 L 69.7971,-14.627 L 69.7618,-14.812
 L 69.75,-15 L 69.7618,-15.188 L 69.7971,-15.373 L 69.8553,-15.5522 L 69.9355,-15.7226 L 70.0365,-15.8817
 L 70.1565,-16.0268 L 70.2939,-16.1558 L 70.4463,-16.2665 L 70.6113,-16.3572 L 70.7865,-16.4266 L 70.9689,-16.4734
 L 71.1558,-16.497 L 71.3442,-16.497 L 71.5311,-16.4734 L 71.7135,-16.4266 L 71.8887,-16.3572 L 72.0537,-16.2665
 L 72.2061,-16.1558 L 72.3434,-16.0268 L 72.4635,-15.8817 L 72.5645,-15.7226 L 72.6447,-15.5522 L 72.7029,-15.373
 L 72.7382,-15.188 L 72.75,-15 L 72.7382,-14.812 L 72.7029,-14.627 L 72.6447,-14.4478 L 72.5645,-14.2774
 L 72.4635,-14.1183 L 72.3434,-13.9732 L 72.2061,-13.8442 L 72.0537,-13.7335 L 71.8887,-13.6427 L 71.7135,-13.5734
 L 71.5311,-13.5266 L 71.3442,-13.5029 z
M -26.3442,-13.5029 L -26.5311,-13.5266 L -26.7135,-13.5734 L -26.8887,-13.6427 L -27.0537,-13.7335 L -27.2061,-13.8442
 L -27.3434,-13.9732 L -27.4635,-14.1183 L -27.5645,-14.2774 L -27.6447,-14.4478 L -27.7029,-14.627 L -27.7382,-14.812
 L -27.75,-15 L -27.7382,-15.188 L -27.7029,-15.373 L -27.6447,-15.5522 L -27.5645,-15.7226 L -27.4635,-15.8817
 L -27.3434,-16.0268 L -27.2061,-16.1558 L -27.0537,-16.2665 L -26.8887,-16.3572 L -26.7135,-16.4266 L -26.5311,-16.4734
 L -26.3442,-16.497 L -26.1558,-16.497 L -25.9689,-16.4734 L -25.7865,-16.4266 L -25.6113,-16.3572 L -25.4463,-16.2665
 L -25.2939,-16.1558 L -25.1565,-16.0268 L -25.0365,-15.8817 L -24.9355,-15.7226 L -24.8553,-15.5522 L -24.7971,-15.373
 L -24.7618,-15.188 L -24.75,-15 L -24.7618,-14.812 L -24.7971,-14.627 L -24.8553,-14.4478 L -24.9355,-14.2774
 L -25.0365,-14.1183 L -25.1565,-13.9732 L -25.2939,-13.8442 L -25.4463,-13.7335 L -25.6113,-13.6427 L -25.7865,-13.5734
 L -25.9689,-13.5266 L -26.1558,-13.5029 z
M 26.1558,-13.5029 L 25.9689,-13.5266 L 25.7865,-13.5734 L 25.6113,-13.6427 L 25.4463,-13.7335 L 25.2939,-13.8442
 L 25.1565,-13.9732 L 25.0365,-14.1183 L 24.9355,-14.2774 L 24.8553,-14.4478 L 24.7971,-14.627 L 24.7618,-14.812
 L 24.75,-15 L 24.7618,-15.188 L 24.7971,-15.373 L 24.8553,-15.5522 L 24.9355,-15.7226 L 25.0365,-15.8817
 L 25.1565,-16.0268 L 25.2939,-16.1558 L 25.4463,-16.2665 L 25.6113,-16.3572 L 25.7865,-16.4266 L 25.9689,-16.4734
 L 26.1558,-16.497 L 26.3442,-16.497 L 26.5311,-16.4734 L 26.7135,-16.4266 L 26.8887,-16.3572 L 27.0537,-16.2665
 L 27.2061,-16.1558 L 27.3434,-16.0268 L 27.4635,-15.8817 L 27.5645,-15.7226 L 27.6447,-15.5522 L 27.7029,-15.373
 L 27.7382,-15.188 L 27.75,-15 L 27.7382,-14.812 L 27.7029,-14.627 L 27.6447,-14.4478 L 27.5645,-14.2774
 L 27.4635,-14.1183 L 27.3434,-13.9732 L 27.2061,-13.8442 L 27.0537,-13.7335 L 26.8887,-13.6427 L 26.7135,-13.5734
 L 26.5311,-13.5266 L 26.3442,-13.5029 z
M 63.6558,-13.5029 L 63.4689,-13.5266 L 63.2865,-13.5734 L 63.1113,-13.6427 L 62.9463,-13.7335 L 62.7939,-13.8442
 L 62.6565,-13.9732 L 62.5365,-14.1183 L 62.4355,-14.2774 L 62.3553,-14.4478 L 62.2971,-14.627 L 62.2618,-14.812
 L 62.25,-15 L 62.2618,-15.188 L 62.2971,-15.373 L 62.3553,-15.5522 L 62.4355,-15.7226 L 62.5365,-15.8817
 L 62.6565,-16.0268 L 62.7939,-16.1558 L 62.9463,-16.2665 L 63.1113,-16.3572 L 63.2865,-16.4266 L 63.4689,-16.4734
 L 63.6558,-16.497 L 63.8442,-16.497 L 64.0311,-16.4734 L 64.2135,-16.4266 L 64.3887,-16.3572 L 64.5537,-16.2665
 L 64.7061,-16.1558 L 64.8434,-16.0268 L 64.9635,-15.8817 L 65.0645,-15.7226 L 65.1447,-15.5522 L 65.2029,-15.373
 L 65.2382,-15.188 L 65.25,-15 L 65.2382,-14.812 L 65.2029,-14.627 L 65.1447,-14.4478 L 65.0645,-14.2774
 L 64.9635,-14.1183 L 64.8434,-13.9732 L 64.7061,-13.8442 L 64.5537,-13.7335 L 64.3887,-13.6427 L 64.2135,-13.5734
 L 64.0311,-13.5266 L 63.8442,-13.5029 z
M -18.8442,-13.5029 L -19.0311,-13.5266 L -19.2135,-13.5734 L -19.3887,-13.6427 L -19.5537,-13.7335 L -19.7061,-13.8442
 L -19.8434,-13.9732 L -19.9635,-14.1183 L -20.0645,-14.2774 L -20.1447,-14.4478 L -20.2029,-14.627 L -20.2382,-14.812
 L -20.25,-15 L -20.2382,-15.188 L -20.2029,-15.373 L -20.1447,-15.5522 L -20.0645,-15.7226 L -19.9635,-15.8817
 L -19.8434,-16.0268 L -19.7061,-16.1558 L -19.5537,-16.2665 L -19.3887,-16.3572 L -19.2135,-16.4266 L -19.0311,-16.4734
 L -18.8442,-16.497 L -18.6558,-16.497 L -18.4689,-16.4734 L -18.2865,-16.4266 L -18.1113,-16.3572 L -17.9463,-16.2665
 L -17.7939,-16.1558 L -17.6565,-16.0268 L -17.5365,-15.8817 L -17.4355,-15.7226 L -17.3553,-15.5522 L -17.2971,-15.373
 L -17.2618,-15.188 L -17.25,-15 L -17.2618,-14.812 L -17.2971,-14.627 L -17.3553,-14.4478 L -17.4355,-14.2774
 L -17.5365,-14.1183 L -17.6565,-13.9732 L -17.7939,-13.8442 L -17.9463,-13.7335 L -18.1113,-13.6427 L -18.2865,-13.5734
 L -18.4689,-13.5266 L -18.6558,-13.5029 z
M 41.1558,-13.5029 L 40.9689,-13.5266 L 40.7865,-13.5734 L 40.6113,-13.6427 L 40.4463,-13.7335 L 40.2939,-13.8442
 L 40.1565,-13.9732 L 40.0365,-14.1183 L 39.9355,-14.2774 L 39.8553,-14.4478 L 39.7971,-14.627 L 39.7618,-14.812
 L 39.75,-15 L 39.7618,-15.188 L 39.7971,-15.373 L 39.8553,-15.5522 L 39.9355,-15.7226 L 40.0365,-15.8817
 L 40.1565,-16.0268 L 40.2939,-16.1558 L 40.4463,-16.2665 L 40.6113,-16.3572 L 40.7865,-16.4266 L 40.9689,-16.4734
 L 41.1558,-16.497 L 41.3442,-16.497 L 41.5311,-16.4734 L 41.7135,-16.4266 L 41.8887,-16.3572 L 42.0537,-16.2665
 L 42.2061,-16.1558 L 42.3434,-16.0268 L 42.4635,-15.8817 L 42.5645,-15.7226 L 42.6447,-15.5522 L 42.7029,-15.373
 L 42.7382,-15.188 L 42.75,-15 L 42.7382,-14.812 L 42.7029,-14.627 L 42.6447,-14.4478 L 42.5645,-14.2774
 L 42.4635,-14.1183 L 42.3434,-13.9732 L 42.2061,-13.8442 L 42.0537,-13.7335 L 41.8887,-13.6427 L 41.7135,-13.5734
 L 41.5311,-13.5266 L 41.3442,-13.5029 z
M -3.84418,-13.5029 L -4.03107,-13.5266 L -4.21352,-13.5734 L -4.38866,-13.6427 L -4.55373,-13.7335 L -4.70613,-13.8442
 L -4.84344,-13.9732 L -4.96352,-14.1183 L -5.06445,-14.2774 L -5.14465,-14.4478 L -5.20287,-14.627 L -5.23816,-14.812
 L -5.25,-15 L -5.23816,-15.188 L -5.20287,-15.373 L -5.14465,-15.5522 L -5.06445,-15.7226 L -4.96352,-15.8817
 L -4.84344,-16.0268 L -4.70613,-16.1558 L -4.55373,-16.2665 L -4.38866,-16.3572 L -4.21352,-16.4266 L -4.03107,-16.4734
 L -3.84418,-16.497 L -3.65581,-16.497 L -3.46892,-16.4734 L -3.28647,-16.4266 L -3.11133,-16.3572 L -2.94626,-16.2665
 L -2.79385,-16.1558 L -2.65654,-16.0268 L -2.53647,-15.8817 L -2.43553,-15.7226 L -2.35533,-15.5522 L -2.29712,-15.373
 L -2.26183,-15.188 L -2.25,-15 L -2.26183,-14.812 L -2.29712,-14.627 L -2.35533,-14.4478 L -2.43553,-14.2774
 L -2.53647,-14.1183 L -2.65654,-13.9732 L -2.79385,-13.8442 L -2.94626,-13.7335 L -3.11133,-13.6427 L -3.28647,-13.5734
 L -3.46892,-13.5266 L -3.65581,-13.5029 z
M -33.8442,-13.5029 L -34.0311,-13.5266 L -34.2135,-13.5734 L -34.3887,-13.6427 L -34.5537,-13.7335 L -34.7061,-13.8442
 L -34.8434,-13.9732 L -34.9635,-14.1183 L -35.0645,-14.2774 L -35.1447,-14.4478 L -35.2029,-14.627 L -35.2382,-14.812
 L -35.25,-15 L -35.2382,-15.188 L -35.2029,-15.373 L -35.1447,-15.5522 L -35.0645,-15.7226 L -34.9635,-15.8817
 L -34.8434,-16.0268 L -34.7061,-16.1558 L -34.5537,-16.2665 L -34.3887,-16.3572 L -34.2135,-16.4266 L -34.0311,-16.4734
 L -33.8442,-16.497 L -33.6558,-16.497 L -33.4689,-16.4734 L -33.2865,-16.4266 L -33.1113,-16.3572 L -32.9463,-16.2665
 L -32.7939,-16.1558 L -32.6565,-16.0268 L -32.5365,-15.8817 L -32.4355,-15.7226 L -32.3553,-15.5522 L -32.2971,-15.373
 L -32.2618,-15.188 L -32.25,-15 L -32.2618,-14.812 L -32.2971,-14.627 L -32.3553,-14.4478 L -32.4355,-14.2774
 L -32.5365,-14.1183 L -32.6565,-13.9732 L -32.7939,-13.8442 L -32.9463,-13.7335 L -33.1113,-13.6427 L -33.2865,-13.5734
 L -33.4689,-13.5266 L -33.6558,-13.5029 z
M -3.84418,-6.00294 L -4.03107,-6.02657 L -4.21352,-6.07341 L -4.38866,-6.14275 L -4.55373,-6.23351 L -4.70613,-6.34422
 L -4.84344,-6.47318 L -4.96352,-6.61832 L -5.06445,-6.77736 L -5.14465,-6.9478 L -5.20287,-7.12695 L -5.23816,-7.312
 L -5.25,-7.5 L -5.23816,-7.68799 L -5.20287,-7.87303 L -5.14465,-8.05219 L -5.06445,-8.22263 L -4.96352,-8.38167
 L -4.84344,-8.52681 L -4.70613,-8.65576 L -4.55373,-8.76648 L -4.38866,-8.85724 L -4.21352,-8.92657 L -4.03107,-8.97342
 L -3.84418,-8.99704 L -3.65581,-8.99704 L -3.46892,-8.97342 L -3.28647,-8.92657 L -3.11133,-8.85724 L -2.94626,-8.76648
 L -2.79385,-8.65576 L -2.65654,-8.52681 L -2.53647,-8.38167 L -2.43553,-8.22263 L -2.35533,-8.05219 L -2.29712,-7.87303
 L -2.26183,-7.68799 L -2.25,-7.5 L -2.26183,-7.312 L -2.29712,-7.12695 L -2.35533,-6.9478 L -2.43553,-6.77736
 L -2.53647,-6.61832 L -2.65654,-6.47318 L -2.79385,-6.34422 L -2.94626,-6.23351 L -3.11133,-6.14275 L -3.28647,-6.07341
 L -3.46892,-6.02657 L -3.65581,-6.00294 z
M 71.1558,-6.00294 L 70.9689,-6.02657 L 70.7865,-6.07341 L 70.6113,-6.14275 L 70.4463,-6.23351 L 70.2939,-6.34422
 L 70.1565,-6.47318 L 70.0365,-6.61832 L 69.9355,-6.77736 L 69.8553,-6.9478 L 69.7971,-7.12695 L 69.7618,-7.312
 L 69.75,-7.5 L 69.7618,-7.68799 L 69.7971,-7.87303 L 69.8553,-8.05219 L 69.9355,-8.22263 L 70.0365,-8.38167
 L 70.1565,-8.52681 L 70.2939,-8.65576 L 70.4463,-8.76648 L 70.6113,-8.85724 L 70.7865,-8.92657 L 70.9689,-8.97342
 L 71.1558,-8.99704 L 71.3442,-8.99704 L 71.5311,-8.97342 L 71.7135,-8.92657 L 71.8887,-8.85724 L 72.0537,-8.76648
 L 72.2061,-8.65576 L 72.3434,-8.52681 L 72.4635,-8.38167 L 72.5645,-8.22263 L 72.6447,-8.05219 L 72.7029,-7.87303
 L 72.7382,-7.68799 L 72.75,-7.5 L 72.7382,-7.312 L 72.7029,-7.12695 L 72.6447,-6.9478 L 72.5645,-6.77736
 L 72.4635,-6.61832 L 72.3434,-6.47318 L 72.2061,-6.34422 L 72.0537,-6.23351 L 71.8887,-6.14275 L 71.7135,-6.07341
 L 71.5311,-6.02657 L 71.3442,-6.00294 z
M -48.8442,-6.00294 L -49.0311,-6.02657 L -49.2135,-6.07341 L -49.3887,-6.14275 L -49.5537,-6.23351 L -49.7061,-6.34422
 L -49.8434,-6.47318 L -49.9635,-6.61832 L -50.0645,-6.77736 L -50.1447,-6.9478 L -50.2029,-7.12695 L -50.2382,-7.312
 L -50.25,-7.5 L -50.2382,-7.68799 L -50.2029,-7.87303 L -50.1447,-8.05219 L -50.0645,-8.22263 L -49.9635,-8.38167
 L -49.8434,-8.52681 L -49.7061,-8.65576 L -49.5537,-8.76648 L -49.3887,-8.85724 L -49.2135,-8.92657 L -49.0311,-8.97342
 L -48.8442,-8.99704 L -48.6558,-8.99704 L -48.4689,-8.97342 L -48.2865,-8.92657 L -48.1113,-8.85724 L -47.9463,-8.76648
 L -47.7939,-8.65576 L -47.6565,-8.52681 L -47.5365,-8.38167 L -47.4355,-8.22263 L -47.3553,-8.05219 L -47.2971,-7.87303
 L -47.2618,-7.68799 L -47.25,-7.5 L -47.2618,-7.312 L -47.2971,-7.12695 L -47.3553,-6.9478 L -47.4355,-6.77736
 L -47.5365,-6.61832 L -47.6565,-6.47318 L -47.7939,-6.34422 L -47.9463,-6.23351 L -48.1113,-6.14275 L -48.2865,-6.07341
 L -48.4689,-6.02657 L -48.6558,-6.00294 z
M -11.3442,-6.00294 L -11.5311,-6.02657 L -11.7135,-6.07341 L -11.8887,-6.14275 L -12.0537,-6.23351 L -12.2061,-6.34422
 L -12.3434,-6.47318 L -12.4635,-6.61832 L -12.5645,-6.77736 L -12.6447,-6.9478 L -12.7029,-7.12695 L -12.7382,-7.312
 L -12.75,-7.5 L -12.7382,-7.68799 L -12.7029,-7.87303 L -12.6447,-8.05219 L -12.5645,-8.22263 L -12.4635,-8.38167
 L -12.3434,-8.52681 L -12.2061,-8.65576 L -12.0537,-8.76648 L -11.8887,-8.85724 L -11.7135,-8.92657 L -11.5311,-8.97342
 L -11.3442,-8.99704 L -11.1558,-8.99704 L -10.9689,-8.97342 L -10.7865,-8.92657 L -10.6113,-8.85724 L -10.4463,-8.76648
 L -10.2939,-8.65576 L -10.1565,-8.52681 L -10.0365,-8.38167 L -9.93553,-8.22263 L -9.85533,-8.05219 L -9.79712,-7.87303
 L -9.76183,-7.68799 L -9.75,-7.5 L -9.76183,-7.312 L -9.79712,-7.12695 L -9.85533,-6.9478 L -9.93553,-6.77736
 L -10.0365,-6.61832 L -10.1565,-6.47318 L -10.2939,-6.34422 L -10.4463,-6.23351 L -10.6113,-6.14275 L -10.7865,-6.07341
 L -10.9689,-6.02657 L -11.1558,-6.00294 z
M -63.8442,-6.00294 L -64.0311,-6.02657 L -64.2135,-6.07341 L -64.3887,-6.14275 L -64.5537,-6.23351 L -64.7061,-6.34422
 L -64.8434,-6.47318 L -64.9635,-6.61832 L -65.0645,-6.77736 L -65.1447,-6.9478 L -65.2029,-7.12695 L -65.2382,-7.312
 L -65.25,-7.5 L -65.2382,-7.68799 L -65.2029,-7.87303 L -65.1447,-8.05219 L -65.0645,-8.22263 L -64.9635,-8.38167
 L -64.8434,-8.52681 L -64.7061,-8.65576 L -64.5537,-8.76648 L -64.3887,-8.85724 L -64.2135,-8.92657 L -64.0311,-8.97342
 L -63.8442,-8.99704 L -63.6558,-8.99704 L -63.4689,-8.97342 L -63.2865,-8.92657 L -63.1113,-8.85724 L -62.9463,-8.76648
 L -62.7939,-8.65576 L -62.6565,-8.52681 L -62.5365,-8.38167 L -62.4355,-8.22263 L -62.3553,-8.05219 L -62.2971,-7.87303
 L -62.2618,-7.68799 L -62.25,-7.5 L -62.2618,-7.312 L -62.2971,-7.12695 L -62.3553,-6.9478 L -62.4355,-6.77736
 L -62.5365,-6.61832 L -62.6565,-6.47318 L -62.7939,-6.34422 L -62.9463,-6.23351 L -63.1113,-6.14275 L -63.2865,-6.07341
 L -63.4689,-6.02657 L -63.6558,-6.00294 z
M -71.3442,-6.00294 L -71.5311,-6.02657 L -71.7135,-6.07341 L -71.8887,-6.14275 L -72.0537,-6.23351 L -72.2061,-6.34422
 L -72.3434,-6.47318 L -72.4635,-6.61832 L -72.5645,-6.77736 L -72.6447,-6.9478 L -72.7029,-7.12695 L -72.7382,-7.312
 L -72.75,-7.5 L -72.7382,-7.68799 L -72.7029,-7.87303 L -72.6447,-8.05219 L -72.5645,-8.22263 L -72.4635,-8.38167
 L -72.3434,-8.52681 L -72.2061,-8.65576 L -72.0537,-8.76648 L -71.8887,-8.85724 L -71.7135,-8.92657 L -71.5311,-8.97342
 L -71.3442,-8.99704 L -71.1558,-8.99704 L -70.9689,-8.97342 L -70.7865,-8.92657 L -70.6113,-8.85724 L -70.4463,-8.76648
 L -70.2939,-8.65576 L -70.1565,-8.52681 L -70.0365,-8.38167 L -69.9355,-8.22263 L -69.8553,-8.05219 L -69.7971,-7.87303
 L -69.7618,-7.68799 L -69.75,-7.5 L -69.7618,-7.312 L -69.7971,-7.12695 L -69.8553,-6.9478 L -69.9355,-6.77736
 L -70.0365,-6.61832 L -70.1565,-6.47318 L -70.2939,-6.34422 L -70.4463,-6.23351 L -70.6113,-6.14275 L -70.7865,-6.07341
 L -70.9689,-6.02657 L -71.1558,-6.00294 z
M 41.1558,-6.00294 L 40.9689,-6.02657 L 40.7865,-6.07341 L 40.6113,-6.14275 L 40.4463,-6.23351 L 40.2939,-6.34422
 L 40.1565,-6.47318 L 40.0365,-6.61832 L 39.9355,-6.77736 L 39.8553,-6.9478 L 39.7971,-7.12695 L 39.7618,-7.312
 L 39.75,-7.5 L 39.7618,-7.68799 L 39.7971,-7.87303 L 39.8553,-8.05219 L 39.9355,-8.22263 L 40.0365,-8.38167
 L 40.1565,-8.52681 L 40.2939,-8.65576 L 40.4463,-8.76648 L 40.6113,-8.85724 L 40.7865,-8.92657 L 40.9689,-8.97342
 L 41.1558,-8.99704 L 41.3442,-8.99704 L 41.5311,-8.97342 L 41.7135,-8.92657 L 41.8887,-8.85724 L 42.0537,-8.76648
 L 42.2061,-8.65576 L 42.3434,-8.52681 L 42.4635,-8.38167 L 42.5645,-8.22263 L 42.6447,-8.05219 L 42.7029,-7.87303
 L 42.7382,-7.68799 L 42.75,-7.5 L 42.7382,-7.312 L 42.7029,-7.12695 L 42.6447,-6.9478 L 42.5645,-6.77736
 L 42.4635,-6.61832 L 42.3434,-6.47318 L 42.2061,-6.34422 L 42.0537,-6.23351 L 41.8887,-6.14275 L 41.7135,-6.07341
 L 41.5311,-6.02657 L 41.3442,-6.00294 z
M 62.4355,-6.77736 L 62.3553,-6.9478 L 62.2971,-7.12695 L 62.2618,-7.312 L 62.25,-7.5 L 62.2618,-7.68799
 L 62.2971,-7.87303 L 62.3553,-8.05219 L 62.4355,-8.22263 L 62.5365,-8.38167 L 62.6565,-8.52681 L 62.7939,-8.65576
 L 62.9463,-8.76648 L 63.1113,-8.85724 L 63.2865,-8.92657 L 63.4689,-8.97342 L 63.6558,-8.99704 L 63.8442,-8.99704
 L 64.0311,-8.97342 L 64.2135,-8.92657 L 64.3887,-8.85724 L 64.5537,-8.76648 L 64.7061,-8.65576 L 64.8434,-8.52681
 L 64.9635,-8.38167 L 65.0645,-8.22263 L 65.1447,-8.05219 L 65.2029,-7.87303 L 65.2382,-7.68799 L 65.25,-7.5
 L 65.2382,-7.312 L 65.2029,-7.12695 L 65.1447,-6.9478 L 65.0645,-6.77736 L 64.9635,-6.61832 L 64.8434,-6.47318
 L 64.7061,-6.34422 L 64.5537,-6.23351 L 64.3887,-6.14275 L 64.2135,-6.07341 L 64.0311,-6.02657 L 63.8442,-6.00294
 L 63.6558,-6.00294 L 63.4689,-6.02657 L 63.2865,-6.07341 L 63.1113,-6.14275 L 62.9463,-6.23351 L 62.7939,-6.34422
 L 62.6565,-6.47318 L 62.5365,-6.61832 z
M -18.8442,-6.00294 L -19.0311,-6.02657 L -19.2135,-6.07341 L -19.3887,-6.14275 L -19.5537,-6.23351 L -19.7061,-6.34422
 L -19.8434,-6.47318 L -19.9635,-6.61832 L -20.0645,-6.77736 L -20.1447,-6.9478 L -20.2029,-7.12695 L -20.2382,-7.312
 L -20.25,-7.5 L -20.2382,-7.68799 L -20.2029,-7.87303 L -20.1447,-8.05219 L -20.0645,-8.22263 L -19.9635,-8.38167
 L -19.8434,-8.52681 L -19.7061,-8.65576 L -19.5537,-8.76648 L -19.3887,-8.85724 L -19.2135,-8.92657 L -19.0311,-8.97342
 L -18.8442,-8.99704 L -18.6558,-8.99704 L -18.4689,-8.97342 L -18.2865,-8.92657 L -18.1113,-8.85724 L -17.9463,-8.76648
 L -17.7939,-8.65576 L -17.6565,-8.52681 L -17.5365,-8.38167 L -17.4355,-8.22263 L -17.3553,-8.05219 L -17.2971,-7.87303
 L -17.2618,-7.68799 L -17.25,-7.5 L -17.2618,-7.312 L -17.2971,-7.12695 L -17.3553,-6.9478 L -17.4355,-6.77736
 L -17.5365,-6.61832 L -17.6565,-6.47318 L -17.7939,-6.34422 L -17.9463,-6.23351 L -18.1113,-6.14275 L -18.2865,-6.07341
 L -18.4689,-6.02657 L -18.6558,-6.00294 z
M 3.65581,-6.00294 L 3.46892,-6.02657 L 3.28647,-6.07341 L 3.11133,-6.14275 L 2.94626,-6.23351 L 2.79385,-6.34422
 L 2.65654,-6.47318 L 2.53647,-6.61832 L 2.43553,-6.77736 L 2.35533,-6.9478 L 2.29712,-7.12695 L 2.26183,-7.312
 L 2.25,-7.5 L 2.26183,-7.68799 L 2.29712,-7.87303 L 2.35533,-8.05219 L 2.43553,-8.22263 L 2.53647,-8.38167
 L 2.65654,-8.52681 L 2.79385,-8.65576 L 2.94626,-8.76648 L 3.11133,-8.85724 L 3.28647,-8.92657 L 3.46892,-8.97342
 L 3.65581,-8.99704 L 3.84418,-8.99704 L 4.03107,-8.97342 L 4.21352,-8.92657 L 4.38866,-8.85724 L 4.55373,-8.76648
 L 4.70613,-8.65576 L 4.84344,-8.52681 L 4.96352,-8.38167 L 5.06445,-8.22263 L 5.14465,-8.05219 L 5.20287,-7.87303
 L 5.23816,-7.68799 L 5.25,-7.5 L 5.23816,-7.312 L 5.20287,-7.12695 L 5.14465,-6.9478 L 5.06445,-6.77736
 L 4.96352,-6.61832 L 4.84344,-6.47318 L 4.70613,-6.34422 L 4.55373,-6.23351 L 4.38866,-6.14275 L 4.21352,-6.07341
 L 4.03107,-6.02657 L 3.84418,-6.00294 z
M 33.6558,-6.00294 L 33.4689,-6.02657 L 33.2865,-6.07341 L 33.1113,-6.14275 L 32.9463,-6.23351 L 32.7939,-6.34422
 L 32.6565,-6.47318 L 32.5365,-6.61832 L 32.4355,-6.77736 L 32.3553,-6.9478 L 32.2971,-7.12695 L 32.2618,-7.312
 L 32.25,-7.5 L 32.2618,-7.68799 L 32.2971,-7.87303 L 32.3553,-8.05219 L 32.4355,-8.22263 L 32.5365,-8.38167
 L 32.6565,-8.52681 L 32.7939,-8.65576 L 32.9463,-8.76648 L 33.1113,-8.85724 L 33.2865,-8.92657 L 33.4689,-8.97342
 L 33.6558,-8.99704 L 33.8442,-8.99704 L 34.0311,-8.97342 L 34.2135,-8.92657 L 34.3887,-8.85724 L 34.5537,-8.76648
 L 34.7061,-8.65576 L 34.8434,-8.52681 L 34.9635,-8.38167 L 35.0645,-8.22263 L 35.1447,-8.05219 L 35.2029,-7.87303
 L 35.2382,-7.68799 L 35.25,-7.5 L 35.2382,-7.312 L 35.2029,-7.12695 L 35.1447,-6.9478 L 35.0645,-6.77736
 L 34.9635,-6.61832 L 34.8434,-6.47318 L 34.7061,-6.34422 L 34.5537,-6.23351 L 34.3887,-6.14275 L 34.2135,-6.07341
 L 34.0311,-6.02657 L 33.8442,-6.00294 z
M -56.3442,-6.00294 L -56.5311,-6.02657 L -56.7135,-6.07341 L -56.8887,-6.14275 L -57.0537,-6.23351 L -57.2061,-6.34422
 L -57.3434,-6.47318 L -57.4635,-6.61832 L -57.5645,-6.77736 L -57.6447,-6.9478 L -57.7029,-7.12695 L -57.7382,-7.312
 L -57.75,-7.5 L -57.7382,-7.68799 L -57.7029,-7.87303 L -57.6447,-8.05219 L -57.5645,-8.22263 L -57.4635,-8.38167
 L -57.3434,-8.52681 L -57.2061,-8.65576 L -57.0537,-8.76648 L -56.8887,-8.85724 L -56.7135,-8.92657 L -56.5311,-8.97342
 L -56.3442,-8.99704 L -56.1558,-8.99704 L -55.9689,-8.97342 L -55.7865,-8.92657 L -55.6113,-8.85724 L -55.4463,-8.76648
 L -55.2939,-8.65576 L -55.1565,-8.52681 L -55.0365,-8.38167 L -54.9355,-8.22263 L -54.8553,-8.05219 L -54.7971,-7.87303
 L -54.7618,-7.68799 L -54.75,-7.5 L -54.7618,-7.312 L -54.7971,-7.12695 L -54.8553,-6.9478 L -54.9355,-6.77736
 L -55.0365,-6.61832 L -55.1565,-6.47318 L -55.2939,-6.34422 L -55.4463,-6.23351 L -55.6113,-6.14275 L -55.7865,-6.07341
 L -55.9689,-6.02657 L -56.1558,-6.00294 z
M -26.3442,-6.00294 L -26.5311,-6.02657 L -26.7135,-6.07341 L -26.8887,-6.14275 L -27.0537,-6.23351 L -27.2061,-6.34422
 L -27.3434,-6.47318 L -27.4635,-6.61832 L -27.5645,-6.77736 L -27.6447,-6.9478 L -27.7029,-7.12695 L -27.7382,-7.312
 L -27.75,-7.5 L -27.7382,-7.68799 L -27.7029,-7.87303 L -27.6447,-8.05219 L -27.5645,-8.22263 L -27.4635,-8.38167
 L -27.3434,-8.52681 L -27.2061,-8.65576 L -27.0537,-8.76648 L -26.8887,-8.85724 L -26.7135,-8.92657 L -26.5311,-8.97342
 L -26.3442,-8.99704 L -26.1558,-8.99704 L -25.9689,-8.97342 L -25.7865,-8.92657 L -25.6113,-8.85724 L -25.4463,-8.76648
 L -25.2939,-8.65576 L -25.1565,-8.52681 L -25.0365,-8.38167 L -24.9355,-8.22263 L -24.8553,-8.05219 L -24.7971,-7.87303
 L -24.7618,-7.68799 L -24.75,-7.5 L -24.7618,-7.312 L -24.7971,-7.12695 L -24.8553,-6.9478 L -24.9355,-6.77736
 L -25.0365,-6.61832 L -25.1565,-6.47318 L -25.2939,-6.34422 L -25.4463,-6.23351 L -25.6113,-6.14275 L -25.7865,-6.07341
 L -25.9689,-6.02657 L -26.1558,-6.00294 z
M -35.0645,-6.77736 L -35.1447,-6.9478 L -35.2029,-7.12695 L -35.2382,-7.312 L -35.25,-7.5 L -35.2382,-7.68799
 L -35.2029,-7.87303 L -35.1447,-8.05219 L -35.0645,-8.22263 L -34.9635,-8.38167 L -34.8434,-8.52681 L -34.7061,-8.65576
 L -34.5537,-8.76648 L -34.3887,-8.85724 L -34.2135,-8.92657 L -34.0311,-8.97342 L -33.8442,-8.99704 L -33.6558,-8.99704
 L -33.4689,-8.97342 L -33.2865,-8.92657 L -33.1113,-8.85724 L -32.9463,-8.76648 L -32.7939,-8.65576 L -32.6565,-8.52681
 L -32.5365,-8.38167 L -32.4355,-8.22263 L -32.3553,-8.05219 L -32.2971,-7.87303 L -32.2618,-7.68799 L -32.25,-7.5
 L -32.2618,-7.312 L -32.2971,-7.12695 L -32.3553,-6.9478 L -32.4355,-6.77736 L -32.5365,-6.61832 L -32.6565,-6.47318
 L -32.7939,-6.34422 L -32.9463,-6.23351 L -33.1113,-6.14275 L -33.2865,-6.07341 L -33.4689,-6.02657 L -33.6558,-6.00294
 L -33.8442,-6.00294 L -34.0311,-6.02657 L -34.2135,-6.07341 L -34.3887,-6.14275 L -34.5537,-6.23351 L -34.7061,-6.34422
 L -34.8434,-6.47318 L -34.9635,-6.61832 z
M 11.1558,-6.00294 L 10.9689,-6.02657 L 10.7865,-6.07341 L 10.6113,-6.14275 L 10.4463,-6.23351 L 10.2939,-6.34422
 L 10.1565,-6.47318 L 10.0365,-6.61832 L 9.93553,-6.77736 L 9.85533,-6.9478 L 9.79712,-7.12695 L 9.76183,-7.312
 L 9.75,-7.5 L 9.76183,-7.68799 L 9.79712,-7.87303 L 9.85533,-8.05219 L 9.93553,-8.22263 L 10.0365,-8.38167
 L 10.1565,-8.52681 L 10.2939,-8.65576 L 10.4463,-8.76648 L 10.6113,-8.85724 L 10.7865,-8.92657 L 10.9689,-8.97342
 L 11.1558,-8.99704 L 11.3442,-8.99704 L 11.5311,-8.97342 L 11.7135,-8.92657 L 11.8887,-8.85724 L 12.0537,-8.76648
 L 12.2061,-8.65576 L 12.3434,-8.52681 L 12.4635,-8.38167 L 12.5645,-8.22263 L 12.6447,-8.05219 L 12.7029,-7.87303
 L 12.7382,-7.68799 L 12.75,-7.5 L 12.7382,-7.312 L 12.7029,-7.12695 L 12.6447,-6.9478 L 12.5645,-6.77736
 L 12.4635,-6.61832 L 12.3434,-6.47318 L 12.2061,-6.34422 L 12.0537,-6.23351 L 11.8887,-6.14275 L 11.7135,-6.07341
 L 11.5311,-6.02657 L 11.3442,-6.00294 z
M 48.6558,-6.00294 L 48.4689,-6.02657 L 48.2865,-6.07341 L 48.1113,-6.14275 L 47.9463,-6.23351 L 47.7939,-6.34422
 L 47.6565,-6.47318 L 47.5365,-6.61832 L 47.4355,-6.77736 L 47.3553,-6.9478 L 47.2971,-7.12695 L 47.2618,-7.312
 L 47.25,-7.5 L 47.2618,-7.68799 L 47.2971,-7.87303 L 47.3553,-8.05219 L 47.4355,-8.22263 L 47.5365,-8.38167
 L 47.6565,-8.52681 L 47.7939,-8.65576 L 47.9463,-8.76648 L 48.1113,-8.85724 L 48.2865,-8.92657 L 48.4689,-8.97342
 L 48.6558,-8.99704 L 48.8442,-8.99704 L 49.0311,-8.97342 L 49.2135,-8.92657 L 49.3887,-8.85724 L 49.5537,-8.76648
 L 49.7061,-8.65576 L 49.8434,-8.52681 L 49.9635,-8.38167 L 50.0645,-8.22263 L 50.1447,-8.05219 L 50.2029,-7.87303
 L 50.2382,-7.68799 L 50.25,-7.5 L 50.2382,-7.312 L 50.2029,-7.12695 L 50.1447,-6.9478 L 50.0645,-6.77736
 L 49.9635,-6.61832 L 49.8434,-6.47318 L 49.7061,-6.34422 L 49.5537,-6.23351 L 49.3887,-6.14275 L 49.2135,-6.07341
 L 49.0311,-6.02657 L 48.8442,-6.00294 z
M 18.6558,-6.00294 L 18.4689,-6.02657 L 18.2865,-6.07341 L 18.1113,-6.14275 L 17.9463,-6.23351 L 17.7939,-6.34422
 L 17.6565,-6.47318 L 17.5365,-6.61832 L 17.4355,-6.77736 L 17.3553,-6.9478 L 17.2971,-7.12695 L 17.2618,-7.312
 L 17.25,-7.5 L 17.2618,-7.68799 L 17.2971,-7.87303 L 17.3553,-8.05219 L 17.4355,-8.22263 L 17.5365,-8.38167
 L 17.6565,-8.52681 L 17.7939,-8.65576 L 17.9463,-8.76648 L 18.1113,-8.85724 L 18.2865,-8.92657 L 18.4689,-8.97342
 L 18.6558,-8.99704 L 18.8442,-8.99704 L 19.0311,-8.97342 L 19.2135,-8.92657 L 19.3887,-8.85724 L 19.5537,-8.76648
 L 19.7061,-8.65576 L 19.8434,-8.52681 L 19.9635,-8.38167 L 20.0645,-8.22263 L 20.1447,-8.05219 L 20.2029,-7.87303
 L 20.2382,-7.68799 L 20.25,-7.5 L 20.2382,-7.312 L 20.2029,-7.12695 L 20.1447,-6.9478 L 20.0645,-6.77736
 L 19.9635,-6.61832 L 19.8434,-6.47318 L 19.7061,-6.34422 L 19.5537,-6.23351 L 19.3887,-6.14275 L 19.2135,-6.07341
 L 19.0311,-6.02657 L 18.8442,-6.00294 z
M 26.1558,-6.00294 L 25.9689,-6.02657 L 25.7865,-6.07341 L 25.6113,-6.14275 L 25.4463,-6.23351 L 25.2939,-6.34422
 L 25.1565,-6.47318 L 25.0365,-6.61832 L 24.9355,-6.77736 L 24.8553,-6.9478 L 24.7971,-7.12695 L 24.7618,-7.312
 L 24.75,-7.5 L 24.7618,-7.68799 L 24.7971,-7.87303 L 24.8553,-8.05219 L 24.9355,-8.22263 L 25.0365,-8.38167
 L 25.1565,-8.52681 L 25.2939,-8.65576 L 25.4463,-8.76648 L 25.6113,-8.85724 L 25.7865,-8.92657 L 25.9689,-8.97342
 L 26.1558,-8.99704 L 26.3442,-8.99704 L 26.5311,-8.97342 L 26.7135,-8.92657 L 26.8887,-8.85724 L 27.0537,-8.76648
 L 27.2061,-8.65576 L 27.3434,-8.52681 L 27.4635,-8.38167 L 27.5645,-8.22263 L 27.6447,-8.05219 L 27.7029,-7.87303
 L 27.7382,-7.68799 L 27.75,-7.5 L 27.7382,-7.312 L 27.7029,-7.12695 L 27.6447,-6.9478 L 27.5645,-6.77736
 L 27.4635,-6.61832 L 27.3434,-6.47318 L 27.2061,-6.34422 L 27.0537,-6.23351 L 26.8887,-6.14275 L 26.7135,-6.07341
 L 26.5311,-6.02657 L 26.3442,-6.00294 z
M -41.3442,1.49704 L -41.5311,1.47342 L -41.7135,1.42657 L -41.8887,1.35724 L -42.0537,1.26648 L -42.2061,1.15576
 L -42.3434,1.02681 L -42.4635,0.881668 L -42.5645,0.722626 L -42.6447,0.552185 L -42.7029,0.373032 L -42.7382,0.187988
 L -42.75,-0 L -42.7382,-0.187988 L -42.7029,-0.373032 L -42.6447,-0.552185 L -42.5645,-0.722626 L -42.4635,-0.881668
 L -42.3434,-1.02681 L -42.2061,-1.15576 L -42.0537,-1.26648 L -41.8887,-1.35724 L -41.7135,-1.42657 L -41.5311,-1.47342
 L -41.3442,-1.49704 L -41.1558,-1.49704 L -40.9689,-1.47342 L -40.7865,-1.42657 L -40.6113,-1.35724 L -40.4463,-1.26648
 L -40.2939,-1.15576 L -40.1565,-1.02681 L -40.0365,-0.881668 L -39.9355,-0.722626 L -39.8553,-0.552185 L -39.7971,-0.373032
 L -39.7618,-0.187988 L -39.75,-0 L -39.7618,0.187988 L -39.7971,0.373032 L -39.8553,0.552185 L -39.9355,0.722626
 L -40.0365,0.881668 L -40.1565,1.02681 L -40.2939,1.15576 L -40.4463,1.26648 L -40.6113,1.35724 L -40.7865,1.42657
 L -40.9689,1.47342 L -41.1558,1.49704 z
M -11.3442,1.49704 L -11.5311,1.47342 L -11.7135,1.42657 L -11.8887,1.35724 L -12.0537,1.26648 L -12.2061,1.15576
 L -12.3434,1.02681 L -12.4635,0.881668 L -12.5645,0.722626 L -12.6447,0.552185 L -12.7029,0.373032 L -12.7382,0.187988
 L -12.75,-0 L -12.7382,-0.187988 L -12.7029,-0.373032 L -12.6447,-0.552185 L -12.5645,-0.722626 L -12.4635,-0.881668
 L -12.3434,-1.02681 L -12.2061,-1.15576 L -12.0537,-1.26648 L -11.8887,-1.35724 L -11.7135,-1.42657 L -11.5311,-1.47342
 L -11.3442,-1.49704 L -11.1558,-1.49704 L -10.9689,-1.47342 L -10.7865,-1.42657 L -10.6113,-1.35724 L -10.4463,-1.26648
 L -10.2939,-1.15576 L -10.1565,-1.02681 L -10.0365,-0.881668 L -9.93553,-0.722626 L -9.85533,-0.552185 L -9.79712,-0.373032
 L -9.76183,-0.187988 L -9.75,-0 L -9.76183,0.187988 L -9.79712,0.373032 L -9.85533,0.552185 L -9.93553,0.722626
 L -10.0365,0.881668 L -10.1565,1.02681 L -10.2939,1.15576 L -10.4463,1.26648 L -10.6113,1.35724 L -10.7865,1.42657
 L -10.9689,1.47342 L -11.1558,1.49704 z
M 56.1558,1.49704 L 55.9689,1.47342 L 55.7865,1.42657 L 55.6113,1.35724 L 55.4463,1.26648 L 55.2939,1.15576
 L 55.1565,1.02681 L 55.0365,0.881668 L 54.9355,0.722626 L 54.8553,0.552185 L 54.7971,0.373032 L 54.7618,0.187988
 L 54.75,-0 L 54.7618,-0.187988 L 54.7971,-0.373032 L 54.8553,-0.552185 L 54.9355,-0.722626 L 55.0365,-0.881668
 L 55.1565,-1.02681 L 55.2939,-1.15576 L 55.4463,-1.26648 L 55.6113,-1.35724 L 55.7865,-1.42657 L 55.9689,-1.47342
 L 56.1558,-1.49704 L 56.3442,-1.49704 L 56.5311,-1.47342 L 56.7135,-1.42657 L 56.8887,-1.35724 L 57.0537,-1.26648
 L 57.2061,-1.15576 L 57.3434,-1.02681 L 57.4635,-0.881668 L 57.5645,-0.722626 L 57.6447,-0.552185 L 57.7029,-0.373032
 L 57.7382,-0.187988 L 57.75,-0 L 57.7382,0.187988 L 57.7029,0.373032 L 57.6447,0.552185 L 57.5645,0.722626
 L 57.4635,0.881668 L 57.3434,1.02681 L 57.2061,1.15576 L 57.0537,1.26648 L 56.8887,1.35724 L 56.7135,1.42657
 L 56.5311,1.47342 L 56.3442,1.49704 z
M 32.4355,0.722626 L 32.3553,0.552185 L 32.2971,0.373032 L 32.2618,0.187988 L 32.25,-0 L 32.2618,-0.187988
 L 32.2971,-0.373032 L 32.3553,-0.552185 L 32.4355,-0.722626 L 32.5365,-0.881668 L 32.6565,-1.02681 L 32.7939,-1.15576
 L 32.9463,-1.26648 L 33.1113,-1.35724 L 33.2865,-1.42657 L 33.4689,-1.47342 L 33.6558,-1.49704 L 33.8442,-1.49704
 L 34.0311,-1.47342 L 34.2135,-1.42657 L 34.3887,-1.35724 L 34.5537,-1.26648 L 34.7061,-1.15576 L 34.8434,-1.02681
 L 34.9635,-0.881668 L 35.0645,-0.722626 L 35.1447,-0.552185 L 35.2029,-0.373032 L 35.2382,-0.187988 L 35.25,-0
 L 35.2382,0.187988 L 35.2029,0.373032 L 35.1447,0.552185 L 35.0645,0.722626 L 34.9635,0.881668 L 34.8434,1.02681
 L 34.7061,1.15576 L 34.5537,1.26648 L 34.3887,1.35724 L 34.2135,1.42657 L 34.0311,1.47342 L 33.8442,1.49704
 L 33.6558,1.49704 L 33.4689,1.47342 L 33.2865,1.42657 L 33.1113,1.35724 L 32.9463,1.26648 L 32.7939,1.15576
 L 32.6565,1.02681 L 32.5365,0.881668 z
M -71.3442,1.49704 L -71.5311,1.47342 L -71.7135,1.42657 L -71.8887,1.35724 L -72.0537,1.26648 L -72.2061,1.15576
 L -72.3434,1.02681 L -72.4635,0.881668 L -72.5645,0.722626 L -72.6447,0.552185 L -72.7029,0.373032 L -72.7382,0.187988
 L -72.75,-0 L -72.7382,-0.187988 L -72.7029,-0.373032 L -72.6447,-0.552185 L -72.5645,-0.722626 L -72.4635,-0.881668
 L -72.3434,-1.02681 L -72.2061,-1.15576 L -72.0537,-1.26648 L -71.8887,-1.35724 L -71.7135,-1.42657 L -71.5311,-1.47342
 L -71.3442,-1.49704 L -71.1558,-1.49704 L -70.9689,-1.47342 L -70.7865,-1.42657 L -70.6113,-1.35724 L -70.4463,-1.26648
 L -70.2939,-1.15576 L -70.1565,-1.02681 L -70.0365,-0.881668 L -69.9355,-0.722626 L -69.8553,-0.552185 L -69.7971,-0.373032
 L -69.7618,-0.187988 L -69.75,-0 L -69.7618,0.187988 L -69.7971,0.373032 L -69.8553,0.552185 L -69.9355,0.722626
 L -70.0365,0.881668 L -70.1565,1.02681 L -70.2939,1.15576 L -70.4463,1.26648 L -70.6113,1.35724 L -70.7865,1.42657
 L -70.9689,1.47342 L -71.1558,1.49704 z
M -18.8442,1.49704 L -19.0311,1.47342 L -19.2135,1.42657 L -19.3887,1.35724 L -19.5537,1.26648 L -19.7061,1.15576
 L -19.8434,1.02681 L -19.9635,0.881668 L -20.0645,0.722626 L -20.1447,0.552185 L -20.2029,0.373032 L -20.2382,0.187988
 L -20.25,-0 L -20.2382,-0.187988 L -20.2029,-0.373032 L -20.1447,-0.552185 L -20.0645,-0.722626 L -19.9635,-0.881668
 L -19.8434,-1.02681 L -19.7061,-1.15576 L -19.5537,-1.26648 L -19.3887,-1.35724 L -19.2135,-1.42657 L -19.0311,-1.47342
 L -18.8442,-1.49704 L -18.6558,-1.49704 L -18.4689,-1.47342 L -18.2865,-1.42657 L -18.1113,-1.35724 L -17.9463,-1.26648
 L -17.7939,-1.15576 L -17.6565,-1.02681 L -17.5365,-0.881668 L -17.4355,-0.722626 L -17.3553,-0.552185 L -17.2971,-0.373032
 L -17.2618,-0.187988 L -17.25,-0 L -17.2618,0.187988 L -17.2971,0.373032 L -17.3553,0.552185 L -17.4355,0.722626
 L -17.5365,0.881668 L -17.6565,1.02681 L -17.7939,1.15576 L -17.9463,1.26648 L -18.1113,1.35724 L -18.2865,1.42657
 L -18.4689,1.47342 L -18.6558,1.49704 z
M -33.8442,1.49704 L -34.0311,1.47342 L -34.2135,1.42657 L -34.3887,1.35724 L -34.5537,1.26648 L -34.7061,1.15576
 L -34.8434,1.02681 L -34.9635,0.881668 L -35.0645,0.722626 L -35.1447,0.552185 L -35.2029,0.373032 L -35.2382,0.187988
 L -35.25,-0 L -35.2382,-0.187988 L -35.2029,-0.373032 L -35.1447,-0.552185 L -35.0645,-0.722626 L -34.9635,-0.881668
 L -34.8434,-1.02681 L -34.7061,-1.15576 L -34.5537,-1.26648 L -34.3887,-1.35724 L -34.2135,-1.42657 L -34.0311,-1.47342
 L -33.8442,-1.49704 L -33.6558,-1.49704 L -33.4689,-1.47342 L -33.2865,-1.42657 L -33.1113,-1.35724 L -32.9463,-1.26648
 L -32.7939,-1.15576 L -32.6565,-1.02681 L -32.5365,-0.881668 L -32.4355,-0.722626 L -32.3553,-0.552185 L -32.2971,-0.373032
 L -32.2618,-0.187988 L -32.25,-0 L -32.2618,0.187988 L -32.2971,0.373032 L -32.3553,0.552185 L -32.4355,0.722626
 L -32.5365,0.881668 L -32.6565,1.02681 L -32.7939,1.15576 L -32.9463,1.26648 L -33.1113,1.35724 L -33.2865,1.42657
 L -33.4689,1.47342 L -33.6558,1.49704 z
M 3.65581,1.49704 L 3.46892,1.47342 L 3.28647,1.42657 L 3.11133,1.35724 L 2.94626,1.26648 L 2.79385,1.15576
 L 2.65654,1.02681 L 2.53647,0.881668 L 2.43553,0.722626 L 2.35533,0.552185 L 2.29712,0.373032 L 2.26183,0.187988
 L 2.25,-0 L 2.26183,-0.187988 L 2.29712,-0.373032 L 2.35533,-0.552185 L 2.43553,-0.722626 L 2.53647,-0.881668
 L 2.65654,-1.02681 L 2.79385,-1.15576 L 2.94626,-1.26648 L 3.11133,-1.35724 L 3.28647,-1.42657 L 3.46892,-1.47342
 L 3.65581,-1.49704 L 3.84418,-1.49704 L 4.03107,-1.47342 L 4.21352,-1.42657 L 4.38866,-1.35724 L 4.55373,-1.26648
 L 4.70613,-1.15576 L 4.84344,-1.02681 L 4.96352,-0.881668 L 5.06445,-0.722626 L 5.14465,-0.552185 L 5.20287,-0.373032
 L 5.23816,-0.187988 L 5.25,-0 L 5.23816,0.187988 L 5.20287,0.373032 L 5.14465,0.552185 L 5.06445,0.722626
 L 4.96352,0.881668 L 4.84344,1.02681 L 4.70613,1.15576 L 4.55373,1.26648 L 4.38866,1.35724 L 4.21352,1.42657
 L 4.03107,1.47342 L 3.84418,1.49704 z
M -56.3442,1.49704 L -56.5311,1.47342 L -56.7135,1.42657 L -56.8887,1.35724 L -57.0537,1.26648 L -57.2061,1.15576
 L -57.3434,1.02681 L -57.4635,0.881668 L -57.5645,0.722626 L -57.6447,0.552185 L -57.7029,0.373032 L -57.7382,0.187988
 L -57.75,-0 L -57.7382,-0.187988 L -57.7029,-0.373032 L -57.6447,-0.552185 L -57.5645,-0.722626 L -57.4635,-0.881668
 L -57.3434,-1.02681 L -57.2061,-1.15576 L -57.0537,-1.26648 L -56.8887,-1.35724 L -56.7135,-1.42657 L -56.5311,-1.47342
 L -56.3442,-1.49704 L -56.1558,-1.49704 L -55.9689,-1.47342 L -55.7865,-1.42657 L -55.6113,-1.35724 L -55.4463,-1.26648
 L -55.2939,-1.15576 L -55.1565,-1.02681 L -55.0365,-0.881668 L -54.9355,-0.722626 L -54.8553,-0.552185 L -54.7971,-0.373032
 L -54.7618,-0.187988 L -54.75,-0 L -54.7618,0.187988 L -54.7971,0.373032 L -54.8553,0.552185 L -54.9355,0.722626
 L -55.0365,0.881668 L -55.1565,1.02681 L -55.2939,1.15576 L -55.4463,1.26648 L -55.6113,1.35724 L -55.7865,1.42657
 L -55.9689,1.47342 L -56.1558,1.49704 z
M 48.6558,1.49704 L 48.4689,1.47342 L 48.2865,1.42657 L 48.1113,1.35724 L 47.9463,1.26648 L 47.7939,1.15576
 L 47.6565,1.02681 L 47.5365,0.881668 L 47.4355,0.722626 L 47.3553,0.552185 L 47.2971,0.373032 L 47.2618,0.187988
 L 47.25,-0 L 47.2618,-0.187988 L 47.2971,-0.373032 L 47.3553,-0.552185 L 47.4355,-0.722626 L 47.5365,-0.881668
 L 47.6565,-1.02681 L 47.7939,-1.15576 L 47.9463,-1.26648 L 48.1113,-1.35724 L 48.2865,-1.42657 L 48.4689,-1.47342
 L 48.6558,-1.49704 L 48.8442,-1.49704 L 49.0311,-1.47342 L 49.2135,-1.42657 L 49.3887,-1.35724 L 49.5537,-1.26648
 L 49.7061,-1.15576 L 49.8434,-1.02681 L 49.9635,-0.881668 L 50.0645,-0.722626 L 50.1447,-0.552185 L 50.2029,-0.373032
 L 50.2382,-0.187988 L 50.25,-0 L 50.2382,0.187988 L 50.2029,0.373032 L 50.1447,0.552185 L 50.0645,0.722626
 L 49.9635,0.881668 L 49.8434,1.02681 L 49.7061,1.15576 L 49.5537,1.26648 L 49.3887,1.35724 L 49.2135,1.42657
 L 49.0311,1.47342 L 48.8442,1.49704 z
M 71.1558,1.49704 L 70.9689,1.47342 L 70.7865,1.42657 L 70.6113,1.35724 L 70.4463,1.26648 L 70.2939,1.15576
 L 70.1565,1.02681 L 70.0365,0.881668 L 69.9355,0.722626 L 69.8553,0.552185 L 69.7971,0.373032 L 69.7618,0.187988
 L 69.75,-0 L 69.7618,-0.187988 L 69.7971,-0.373032 L 69.8553,-0.552185 L 69.9355,-0.722626 L 70.0365,-0.881668
 L 70.1565,-1.02681 L 70.2939,-1.15576 L 70.4463,-1.26648 L 70.6113,-1.35724 L 70.7865,-1.42657 L 70.9689,-1.47342
 L 71.1558,-1.49704 L 71.3442,-1.49704 L 71.5311,-1.47342 L 71.7135,-1.42657 L 71.8887,-1.35724 L 72.0537,-1.26648
 L 72.2061,-1.15576 L 72.3434,-1.02681 L 72.4635,-0.881668 L 72.5645,-0.722626 L 72.6447,-0.552185 L 72.7029,-0.373032
 L 72.7382,-0.187988 L 72.75,-0 L 72.7382,0.187988 L 72.7029,0.373032 L 72.6447,0.552185 L 72.5645,0.722626
 L 72.4635,0.881668 L 72.3434,1.02681 L 72.2061,1.15576 L 72.0537,1.26648 L 71.8887,1.35724 L 71.7135,1.42657
 L 71.5311,1.47342 L 71.3442,1.49704 z
M 18.6558,1.49704 L 18.4689,1.47342 L 18.2865,1.42657 L 18.1113,1.35724 L 17.9463,1.26648 L 17.7939,1.15576
 L 17.6565,1.02681 L 17.5365,0.881668 L 17.4355,0.722626 L 17.3553,0.552185 L 17.2971,0.373032 L 17.2618,0.187988
 L 17.25,-0 L 17.2618,-0.187988 L 17.2971,-0.373032 L 17.3553,-0.552185 L 17.4355,-0.722626 L 17.5365,-0.881668
 L 17.6565,-1.02681 L 17.7939,-1.15576 L 17.9463,-1.26648 L 18.1113,-1.35724 L 18.2865,-1.42657 L 18.4689,-1.47342
 L 18.6558,-1.49704 L 18.8442,-1.49704 L 19.0311,-1.47342 L 19.2135,-1.42657 L 19.3887,-1.35724 L 19.5537,-1.26648
 L 19.7061,-1.15576 L 19.8434,-1.02681 L 19.9635,-0.881668 L 20.0645,-0.722626 L 20.1447,-0.552185 L 20.2029,-0.373032
 L 20.2382,-0.187988 L 20.25,-0 L 20.2382,0.187988 L 20.2029,0.373032 L 20.1447,0.552185 L 20.0645,0.722626
 L 19.9635,0.881668 L 19.8434,1.02681 L 19.7061,1.15576 L 19.5537,1.26648 L 19.3887,1.35724 L 19.2135,1.42657
 L 19.0311,1.47342 L 18.8442,1.49704 z
M 63.6558,1.49704 L 63.4689,1.47342 L 63.2865,1.42657 L 63.1113,1.35724 L 62.9463,1.26648 L 62.7939,1.15576
 L 62.6565,1.02681 L 62.5365,0.881668 L 62.4355,0.722626 L 62.3553,0.552185 L 62.2971,0.373032 L 62.2618,0.187988
 L 62.25,-0 L 62.2618,-0.187988 L 62.2971,-0.373032 L 62.3553,-0.552185 L 62.4355,-0.722626 L 62.5365,-0.881668
 L 62.6565,-1.02681 L 62.7939,-1.15576 L 62.9463,-1.26648 L 63.1113,-1.35724 L 63.2865,-1.42657 L 63.4689,-1.47342
 L 63.6558,-1.49704 L 63.8442,-1.49704 L 64.0311,-1.47342 L 64.2135,-1.42657 L 64.3887,-1.35724 L 64.5537,-1.26648
 L 64.7061,-1.15576 L 64.8434,-1.02681 L 64.9635,-0.881668 L 65.0645,-0.722626 L 65.1447,-0.552185 L 65.2029,-0.373032
 L 65.2382,-0.187988 L 65.25,-0 L 65.2382,0.187988 L 65.2029,0.373032 L 65.1447,0.552185 L 65.0645,0.722626
 L 64.9635,0.881668 L 64.8434,1.02681 L 64.7061,1.15576 L 64.5537,1.26648 L 64.3887,1.35724 L 64.2135,1.42657
 L 64.0311,1.47342 L 63.8442,1.49704 z
M -48.8442,1.49704 L -49.0311,1.47342 L -49.2135,1.42657 L -49.3887,1.35724 L -49.5537,1.26648 L -49.7061,1.15576
 L -49.8434,1.02681 L -49.9635,0.881668 L -50.0645,0.722626 L -50.1447,0.552185 L -50.2029,0.373032 L -50.2382,0.187988
 L -50.25,-0 L -50.2382,-0.187988 L -50.2029,-0.373032 L -50.1447,-0.552185 L -50.0645,-0.722626 L -49.9635,-0.881668
 L -49.8434,-1.02681 L -49.7061,-1.15576 L -49.5537,-1.26648 L -49.3887,-1.35724 L -49.2135,-1.42657 L -49.0311,-1.47342
 L -48.8442,-1.49704 L -48.6558,-1.49704 L -48.4689,-1.47342 L -48.2865,-1.42657 L -48.1113,-1.35724 L -47.9463,-1.26648
 L -47.7939,-1.15576 L -47.6565,-1.02681 L -47.5365,-0.881668 L -47.4355,-0.722626 L -47.3553,-0.552185 L -47.2971,-0.373032
 L -47.2618,-0.187988 L -47.25,-0 L -47.2618,0.187988 L -47.2971,0.373032 L -47.3553,0.552185 L -47.4355,0.722626
 L -47.5365,0.881668 L -47.6565,1.02681 L -47.7939,1.15576 L -47.9463,1.26648 L -48.1113,1.35724 L -48.2865,1.42657
 L -48.4689,1.47342 L -48.6558,1.49704 z
M 11.1558,1.49704 L 10.9689,1.47342 L 10.7865,1.42657 L 10.6113,1.35724 L 10.4463,1.26648 L 10.2939,1.15576
 L 10.1565,1.02681 L 10.0365,0.881668 L 9.93553,0.722626 L 9.85533,0.552185 L 9.79712,0.373032 L 9.76183,0.187988
 L 9.75,-0 L 9.76183,-0.187988 L 9.79712,-0.373032 L 9.85533,-0.552185 L 9.93553,-0.722626 L 10.0365,-0.881668
 L 10.1565,-1.02681 L 10.2939,-1.15576 L 10.4463,-1.26648 L 10.6113,-1.35724 L 10.7865,-1.42657 L 10.9689,-1.47342
 L 11.1558,-1.49704 L 11.3442,-1.49704 L 11.5311,-1.47342 L 11.7135,-1.42657 L 11.8887,-1.35724 L 12.0537,-1.26648
 L 12.2061,-1.15576 L 12.3434,-1.02681 L 12.4635,-0.881668 L 12.5645,-0.722626 L 12.6447,-0.552185 L 12.7029,-0.373032
 L 12.7382,-0.187988 L 12.75,-0 L 12.7382,0.187988 L 12.7029,0.373032 L 12.6447,0.552185 L 12.5645,0.722626
 L 12.4635,0.881668 L 12.3434,1.02681 L 12.2061,1.15576 L 12.0537,1.26648 L 11.8887,1.35724 L 11.7135,1.42657
 L 11.5311,1.47342 L 11.3442,1.49704 z
M 41.1558,1.49704 L 40.9689,1.47342 L 40.7865,1.42657 L 40.6113,1.35724 L 40.4463,1.26648 L 40.2939,1.15576
 L 40.1565,1.02681 L 40.0365,0.881668 L 39.9355,0.722626 L 39.8553,0.552185 L 39.7971,0.373032 L 39.7618,0.187988
 L 39.75,-0 L 39.7618,-0.187988 L 39.7971,-0.373032 L 39.8553,-0.552185 L 39.9355,-0.722626 L 40.0365,-0.881668
 L 40.1565,-1.02681 L 40.2939,-1.15576 L 40.4463,-1.26648 L 40.6113,-1.35724 L 40.7865,-1.42657 L 40.9689,-1.47342
 L 41.1558,-1.49704 L 41.3442,-1.49704 L 41.5311,-1.47342 L 41.7135,-1.42657 L 41.8887,-1.35724 L 42.0537,-1.26648
 L 42.2061,-1.15576 L 42.3434,-1.02681 L 42.4635,-0.881668 L 42.5645,-0.722626 L 42.6447,-0.552185 L 42.7029,-0.373032
 L 42.7382,-0.187988 L 42.75,-0 L 42.7382,0.187988 L 42.7029,0.373032 L 42.6447,0.552185 L 42.5645,0.722626
 L 42.4635,0.881668 L 42.3434,1.02681 L 42.2061,1.15576 L 42.0537,1.26648 L 41.8887,1.35724 L 41.7135,1.42657
 L 41.5311,1.47342 L 41.3442,1.49704 z
M -63.8442,1.49704 L -64.0311,1.47342 L -64.2135,1.42657 L -64.3887,1.35724 L -64.5537,1.26648 L -64.7061,1.15576
 L -64.8434,1.02681 L -64.9635,0.881668 L -65.0645,0.722626 L -65.1447,0.552185 L -65.2029,0.373032 L -65.2382,0.187988
 L -65.25,-0 L -65.2382,-0.187988 L -65.2029,-0.373032 L -65.1447,-0.552185 L -65.0645,-0.722626 L -64.9635,-0.881668
 L -64.8434,-1.02681 L -64.7061,-1.15576 L -64.5537,-1.26648 L -64.3887,-1.35724 L -64.2135,-1.42657 L -64.0311,-1.47342
 L -63.8442,-1.49704 L -63.6558,-1.49704 L -63.4689,-1.47342 L -63.2865,-1.42657 L -63.1113,-1.35724 L -62.9463,-1.26648
 L -62.7939,-1.15576 L -62.6565,-1.02681 L -62.5365,-0.881668 L -62.4355,-0.722626 L -62.3553,-0.552185 L -62.2971,-0.373032
 L -62.2618,-0.187988 L -62.25,-0 L -62.2618,0.187988 L -62.2971,0.373032 L -62.3553,0.552185 L -62.4355,0.722626
 L -62.5365,0.881668 L -62.6565,1.02681 L -62.7939,1.15576 L -62.9463,1.26648 L -63.1113,1.35724 L -63.2865,1.42657
 L -63.4689,1.47342 L -63.6558,1.49704 z
M -26.3442,1.49704 L -26.5311,1.47342 L -26.7135,1.42657 L -26.8887,1.35724 L -27.0537,1.26648 L -27.2061,1.15576
 L -27.3434,1.02681 L -27.4635,0.881668 L -27.5645,0.722626 L -27.6447,0.552185 L -27.7029,0.373032 L -27.7382,0.187988
 L -27.75,-0 L -27.7382,-0.187988 L -27.7029,-0.373032 L -27.6447,-0.552185 L -27.5645,-0.722626 L -27.4635,-0.881668
 L -27.3434,-1.02681 L -27.2061,-1.15576 L -27.0537,-1.26648 L -26.8887,-1.35724 L -26.7135,-1.42657 L -26.5311,-1.47342
 L -26.3442,-1.49704 L -26.1558,-1.49704 L -25.9689,-1.47342 L -25.7865,-1.42657 L -25.6113,-1.35724 L -25.4463,-1.26648
 L -25.2939,-1.15576 L -25.1565,-1.02681 L -25.0365,-0.881668 L -24.9355,-0.722626 L -24.8553,-0.552185 L -24.7971,-0.373032
 L -24.7618,-0.187988 L -24.75,-0 L -24.7618,0.187988 L -24.7971,0.373032 L -24.8553,0.552185 L -24.9355,0.722626
 L -25.0365,0.881668 L -25.1565,1.02681 L -25.2939,1.15576 L -25.4463,1.26648 L -25.6113,1.35724 L -25.7865,1.42657
 L -25.9689,1.47342 L -26.1558,1.49704 z
M -3.84418,1.49704 L -4.03107,1.47342 L -4.21352,1.42657 L -4.38866,1.35724 L -4.55373,1.26648 L -4.70613,1.15576
 L -4.84344,1.02681 L -4.96352,0.881668 L -5.06445,0.722626 L -5.14465,0.552185 L -5.20287,0.373032 L -5.23816,0.187988
 L -5.25,-0 L -5.23816,-0.187988 L -5.20287,-0.373032 L -5.14465,-0.552185 L -5.06445,-0.722626 L -4.96352,-0.881668
 L -4.84344,-1.02681 L -4.70613,-1.15576 L -4.55373,-1.26648 L -4.38866,-1.35724 L -4.21352,-1.42657 L -4.03107,-1.47342
 L -3.84418,-1.49704 L -3.65581,-1.49704 L -3.46892,-1.47342 L -3.28647,-1.42657 L -3.11133,-1.35724 L -2.94626,-1.26648
 L -2.79385,-1.15576 L -2.65654,-1.02681 L -2.53647,-0.881668 L -2.43553,-0.722626 L -2.35533,-0.552185 L -2.29712,-0.373032
 L -2.26183,-0.187988 L -2.25,-0 L -2.26183,0.187988 L -2.29712,0.373032 L -2.35533,0.552185 L -2.43553,0.722626
 L -2.53647,0.881668 L -2.65654,1.02681 L -2.79385,1.15576 L -2.94626,1.26648 L -3.11133,1.35724 L -3.28647,1.42657
 L -3.46892,1.47342 L -3.65581,1.49704 z
M 63.6558,8.99704 L 63.4689,8.97342 L 63.2865,8.92657 L 63.1113,8.85724 L 62.9463,8.76648 L 62.7939,8.65576
 L 62.6565,8.52681 L 62.5365,8.38167 L 62.4355,8.22263 L 62.3553,8.05219 L 62.2971,7.87303 L 62.2618,7.68799
 L 62.25,7.5 L 62.2618,7.312 L 62.2971,7.12695 L 62.3553,6.9478 L 62.4355,6.77736 L 62.5365,6.61832
 L 62.6565,6.47318 L 62.7939,6.34422 L 62.9463,6.23351 L 63.1113,6.14275 L 63.2865,6.07341 L 63.4689,6.02657
 L 63.6558,6.00294 L 63.8442,6.00294 L 64.0311,6.02657 L 64.2135,6.07341 L 64.3887,6.14275 L 64.5537,6.23351
 L 64.7061,6.34422 L 64.8434,6.47318 L 64.9635,6.61832 L 65.0645,6.77736 L 65.1447,6.9478 L 65.2029,7.12695
 L 65.2382,7.312 L 65.25,7.5 L 65.2382,7.68799 L 65.2029,7.87303 L 65.1447,8.05219 L 65.0645,8.22263
 L 64.9635,8.38167 L 64.8434,8.52681 L 64.7061,8.65576 L 64.5537,8.76648 L 64.3887,8.85724 L 64.2135,8.92657
 L 64.0311,8.97342 L 63.8442,8.99704 z
M -33.8442,8.99704 L -34.0311,8.97342 L -34.2135,8.92657 L -34.3887,8.85724 L -34.5537,8.76648 L -34.7061,8.65576
 L -34.8434,8.52681 L -34.9635,8.38167 L -35.0645,8.22263 L -35.1447,8.05219 L -35.2029,7.87303 L -35.2382,7.68799
 L -35.25,7.5 L -35.2382,7.312 L -35.2029,7.12695 L -35.1447,6.9478 L -35.0645,6.77736 L -34.9635,6.61832
 L -34.8434,6.47318 L -34.7061,6.34422 L -34.5537,6.23351 L -34.3887,6.14275 L -34.2135,6.07341 L -34.0311,6.02657
 L -33.8442,6.00294 L -33.6558,6.00294 L -33.4689,6.02657 L -33.2865,6.07341 L -33.1113,6.14275 L -32.9463,6.23351
 L -32.7939,6.34422 L -32.6565,6.47318 L -32.5365,6.61832 L -32.4355,6.77736 L -32.3553,6.9478 L -32.2971,7.12695
 L -32.2618,7.312 L -32.25,7.5 L -32.2618,7.68799 L -32.2971,7.87303 L -32.3553,8.05219 L -32.4355,8.22263
 L -32.5365,8.38167 L -32.6565,8.52681 L -32.7939,8.65576 L -32.9463,8.76648 L -33.1113,8.85724 L -33.2865,8.92657
 L -33.4689,8.97342 L -33.6558,8.99704 z
M -56.3442,8.99704 L -56.5311,8.97342 L -56.7135,8.92657 L -56.8887,8.85724 L -57.0537,8.76648 L -57.2061,8.65576
 L -57.3434,8.52681 L -57.4635,8.38167 L -57.5645,8.22263 L -57.6447,8.05219 L -57.7029,7.87303 L -57.7382,7.68799
 L -57.75,7.5 L -57.7382,7.312 L -57.7029,7.12695 L -57.6447,6.9478 L -57.5645,6.77736 L -57.4635,6.61832
 L -57.3434,6.47318 L -57.2061,6.34422 L -57.0537,6.23351 L -56.8887,6.14275 L -56.7135,6.07341 L -56.5311,6.02657
 L -56.3442,6.00294 L -56.1558,6.00294 L -55.9689,6.02657 L -55.7865,6.07341 L -55.6113,6.14275 L -55.4463,6.23351
 L -55.2939,6.34422 L -55.1565,6.47318 L -55.0365,6.61832 L -54.9355,6.77736 L -54.8553,6.9478 L -54.7971,7.12695
 L -54.7618,7.312 L -54.75,7.5 L -54.7618,7.68799 L -54.7971,7.87303 L -54.8553,8.05219 L -54.9355,8.22263
 L -55.0365,8.38167 L -55.1565,8.52681 L -55.2939,8.65576 L -55.4463,8.76648 L -55.6113,8.85724 L -55.7865,8.92657
 L -55.9689,8.97342 L -56.1558,8.99704 z
M 26.1558,8.99704 L 25.9689,8.97342 L 25.7865,8.92657 L 25.6113,8.85724 L 25.4463,8.76648 L 25.2939,8.65576
 L 25.1565,8.52681 L 25.0365,8.38167 L 24.9355,8.22263 L 24.8553,8.05219 L 24.7971,7.87303 L 24.7618,7.68799
 L 24.75,7.5 L 24.7618,7.312 L 24.7971,7.12695 L 24.8553,6.9478 L 24.9355,6.77736 L 25.0365,6.61832
 L 25.1565,6.47318 L 25.2939,6.34422 L 25.4463,6.23351 L 25.6113,6.14275 L 25.7865,6.07341 L 25.9689,6.02657
 L 26.1558,6.00294 L 26.3442,6.00294 L 26.5311,6.02657 L 26.7135,6.07341 L 26.8887,6.14275 L 27.0537,6.23351
 L 27.2061,6.34422 L 27.3434,6.47318 L 27.4635,6.61832 L 27.5645,6.77736 L 27.6447,6.9478 L 27.7029,7.12695
 L 27.7382,7.312 L 27.75,7.5 L 27.7382,7.68799 L 27.7029,7.87303 L 27.6447,8.05219 L 27.5645,8.22263
 L 27.4635,8.38167 L 27.3434,8.52681 L 27.2061,8.65576 L 27.0537,8.76648 L 26.8887,8.85724 L 26.7135,8.92657
 L 26.5311,8.97342 L 26.3442,8.99704 z
M -41.3442,8.99704 L -41.5311,8.97342 L -41.7135,8.92657 L -41.8887,8.85724 L -42.0537,8.76648 L -42.2061,8.65576
 L -42.3434,8.52681 L -42.4635,8.38167 L -42.5645,8.22263 L -42.6447,8.05219 L -42.7029,7.87303 L -42.7382,7.68799
 L -42.75,7.5 L -42.7382,7.312 L -42.7029,7.12695 L -42.6447,6.9478 L -42.5645,6.77736 L -42.4635,6.61832
 L -42.3434,6.47318 L -42.2061,6.34422 L -42.0537,6.23351 L -41.8887,6.14275 L -41.7135,6.07341 L -41.5311,6.02657
 L -41.3442,6.00294 L -41.1558,6.00294 L -40.9689,6.02657 L -40.7865,6.07341 L -40.6113,6.14275 L -40.4463,6.23351
 L -40.2939,6.34422 L -40.1565,6.47318 L -40.0365,6.61832 L -39.9355,6.77736 L -39.8553,6.9478 L -39.7971,7.12695
 L -39.7618,7.312 L -39.75,7.5 L -39.7618,7.68799 L -39.7971,7.87303 L -39.8553,8.05219 L -39.9355,8.22263
 L -40.0365,8.38167 L -40.1565,8.52681 L -40.2939,8.65576 L -40.4463,8.76648 L -40.6113,8.85724 L -40.7865,8.92657
 L -40.9689,8.97342 L -41.1558,8.99704 z
M -26.3442,8.99704 L -26.5311,8.97342 L -26.7135,8.92657 L -26.8887,8.85724 L -27.0537,8.76648 L -27.2061,8.65576
 L -27.3434,8.52681 L -27.4635,8.38167 L -27.5645,8.22263 L -27.6447,8.05219 L -27.7029,7.87303 L -27.7382,7.68799
 L -27.75,7.5 L -27.7382,7.312 L -27.7029,7.12695 L -27.6447,6.9478 L -27.5645,6.77736 L -27.4635,6.61832
 L -27.3434,6.47318 L -27.2061,6.34422 L -27.0537,6.23351 L -26.8887,6.14275 L -26.7135,6.07341 L -26.5311,6.02657
 L -26.3442,6.00294 L -26.1558,6.00294 L -25.9689,6.02657 L -25.7865,6.07341 L -25.6113,6.14275 L -25.4463,6.23351
 L -25.2939,6.34422 L -25.1565,6.47318 L -25.0365,6.61832 L -24.9355,6.77736 L -24.8553,6.9478 L -24.7971,7.12695
 L -24.7618,7.312 L -24.75,7.5 L -24.7618,7.68799 L -24.7971,7.87303 L -24.8553,8.05219 L -24.9355,8.22263
 L -25.0365,8.38167 L -25.1565,8.52681 L -25.2939,8.65576 L -25.4463,8.76648 L -25.6113,8.85724 L -25.7865,8.92657
 L -25.9689,8.97342 L -26.1558,8.99704 z
M -71.3442,8.99704 L -71.5311,8.97342 L -71.7135,8.92657 L -71.8887,8.85724 L -72.0537,8.76648 L -72.2061,8.65576
 L -72.3434,8.52681 L -72.4635,8.38167 L -72.5645,8.22263 L -72.6447,8.05219 L -72.7029,7.87303 L -72.7382,7.68799
 L -72.75,7.5 L -72.7382,7.312 L -72.7029,7.12695 L -72.6447,6.9478 L -72.5645,6.77736 L -72.4635,6.61832
 L -72.3434,6.47318 L -72.2061,6.34422 L -72.0537,6.23351 L -71.8887,6.14275 L -71.7135,6.07341 L -71.5311,6.02657
 L -71.3442,6.00294 L -71.1558,6.00294 L -70.9689,6.02657 L -70.7865,6.07341 L -70.6113,6.14275 L -70.4463,6.23351
 L -70.2939,6.34422 L -70.1565,6.47318 L -70.0365,6.61832 L -69.9355,6.77736 L -69.8553,6.9478 L -69.7971,7.12695
 L -69.7618,7.312 L -69.75,7.5 L -69.7618,7.68799 L -69.7971,7.87303 L -69.8553,8.05219 L -69.9355,8.22263
 L -70.0365,8.38167 L -70.1565,8.52681 L -70.2939,8.65576 L -70.4463,8.76648 L -70.6113,8.85724 L -70.7865,8.92657
 L -70.9689,8.97342 L -71.1558,8.99704 z
M -11.3442,8.99704 L -11.5311,8.97342 L -11.7135,8.92657 L -11.8887,8.85724 L -12.0537,8.76648 L -12.2061,8.65576
 L -12.3434,8.52681 L -12.4635,8.38167 L -12.5645,8.22263 L -12.6447,8.05219 L -12.7029,7.87303 L -12.7382,7.68799
 L -12.75,7.5 L -12.7382,7.312 L -12.7029,7.12695 L -12.6447,6.9478 L -12.5645,6.77736 L -12.4635,6.61832
 L -12.3434,6.47318 L -12.2061,6.34422 L -12.0537,6.23351 L -11.8887,6.14275 L -11.7135,6.07341 L -11.5311,6.02657
 L -11.3442,6.00294 L -11.1558,6.00294 L -10.9689,6.02657 L -10.7865,6.07341 L -10.6113,6.14275 L -10.4463,6.23351
 L -10.2939,6.34422 L -10.1565,6.47318 L -10.0365,6.61832 L -9.93553,6.77736 L -9.85533,6.9478 L -9.79712,7.12695
 L -9.76183,7.312 L -9.75,7.5 L -9.76183,7.68799 L -9.79712,7.87303 L -9.85533,8.05219 L -9.93553,8.22263
 L -10.0365,8.38167 L -10.1565,8.52681 L -10.2939,8.65576 L -10.4463,8.76648 L -10.6113,8.85724 L -10.7865,8.92657
 L -10.9689,8.97342 L -11.1558,8.99704 z
M 18.6558,8.99704 L 18.4689,8.97342 L 18.2865,8.92657 L 18.1113,8.85724 L 17.9463,8.76648 L 17.7939,8.65576
 L 17.6565,8.52681 L 17.5365,8.38167 L 17.4355,8.22263 L 17.3553,8.05219 L 17.2971,7.87303 L 17.2618,7.68799
 L 17.25,7.5 L 17.2618,7.312 L 17.2971,7.12695 L 17.3553,6.9478 L 17.4355,6.77736 L 17.5365,6.61832
 L 17.6565,6.47318 L 17.7939,6.34422 L 17.9463,6.23351 L 18.1113,6.14275 L 18.2865,6.07341 L 18.4689,6.02657
 L 18.6558,6.00294 L 18.8442,6.00294 L 19.0311,6.02657 L 19.2135,6.07341 L 19.3887,6.14275 L 19.5537,6.23351
 L 19.7061,6.34422 L 19.8434,6.47318 L 19.9635,6.61832 L 20.0645,6.77736 L 20.1447,6.9478 L 20.2029,7.12695
 L 20.2382,7.312 L 20.25,7.5 L 20.2382,7.68799 L 20.2029,7.87303 L 20.1447,8.05219 L 20.0645,8.22263
 L 19.9635,8.38167 L 19.8434,8.52681 L 19.7061,8.65576 L 19.5537,8.76648 L 19.3887,8.85724 L 19.2135,8.92657
 L 19.0311,8.97342 L 18.8442,8.99704 z
M 11.1558,8.99704 L 10.9689,8.97342 L 10.7865,8.92657 L 10.6113,8.85724 L 10.4463,8.76648 L 10.2939,8.65576
 L 10.1565,8.52681 L 10.0365,8.38167 L 9.93553,8.22263 L 9.85533,8.05219 L 9.79712,7.87303 L 9.76183,7.68799
 L 9.75,7.5 L 9.76183,7.312 L 9.79712,7.12695 L 9.85533,6.9478 L 9.93553,6.77736 L 10.0365,6.61832
 L 10.1565,6.47318 L 10.2939,6.34422 L 10.4463,6.23351 L 10.6113,6.14275 L 10.7865,6.07341 L 10.9689,6.02657
 L 11.1558,6.00294 L 11.3442,6.00294 L 11.5311,6.02657 L 11.7135,6.07341 L 11.8887,6.14275 L 12.0537,6.23351
 L 12.2061,6.34422 L 12.3434,6.47318 L 12.4635,6.61832 L 12.5645,6.77736 L 12.6447,6.9478 L 12.7029,7.12695
 L 12.7382,7.312 L 12.75,7.5 L 12.7382,7.68799 L 12.7029,7.87303 L 12.6447,8.05219 L 12.5645,8.22263
 L 12.4635,8.38167 L 12.3434,8.52681 L 12.2061,8.65576 L 12.0537,8.76648 L 11.8887,8.85724 L 11.7135,8.92657
 L 11.5311,8.97342 L 11.3442,8.99704 z
M 3.65581,8.99704 L 3.46892,8.97342 L 3.28647,8.92657 L 3.11133,8.85724 L 2.94626,8.76648 L 2.79385,8.65576
 L 2.65654,8.52681 L 2.53647,8.38167 L 2.43553,8.22263 L 2.35533,8.05219 L 2.29712,7.87303 L 2.26183,7.68799
 L 2.25,7.5 L 2.26183,7.312 L 2.29712,7.12695 L 2.35533,6.9478 L 2.43553,6.77736 L 2.53647,6.61832
 L 2.65654,6.47318 L 2.79385,6.34422 L 2.94626,6.23351 L 3.11133,6.14275 L 3.28647,6.07341 L 3.46892,6.02657
 L 3.65581,6.00294 L 3.84418,6.00294 L 4.03107,6.02657 L 4.21352,6.07341 L 4.38866,6.14275 L 4.55373,6.23351
 L 4.70613,6.34422 L 4.84344,6.47318 L 4.96352,6.61832 L 5.06445,6.77736 L 5.14465,6.9478 L 5.20287,7.12695
 L 5.23816,7.312 L 5.25,7.5 L 5.23816,7.68799 L 5.20287,7.87303 L 5.14465,8.05219 L 5.06445,8.22263
 L 4.96352,8.38167 L 4.84344,8.52681 L 4.70613,8.65576 L 4.55373,8.76648 L 4.38866,8.85724 L 4.21352,8.92657
 L 4.03107,8.97342 L 3.84418,8.99704 z
M 56.1558,8.99704 L 55.9689,8.97342 L 55.7865,8.92657 L 55.6113,8.85724 L 55.4463,8.76648 L 55.2939,8.65576
 L 55.1565,8.52681 L 55.0365,8.38167 L 54.9355,8.22263 L 54.8553,8.05219 L 54.7971,7.87303 L 54.7618,7.68799
 L 54.75,7.5 L 54.7618,7.312 L 54.7971,7.12695 L 54.8553,6.9478 L 54.9355,6.77736 L 55.0365,6.61832
 L 55.1565,6.47318 L 55.2939,6.34422 L 55.4463,6.23351 L 55.6113,6.14275 L 55.7865,6.07341 L 55.9689,6.02657
 L 56.1558,6.00294 L 56.3442,6.00294 L 56.5311,6.02657 L 56.7135,6.07341 L 56.8887,6.14275 L 57.0537,6.23351
 L 57.2061,6.34422 L 57.3434,6.47318 L 57.4635,6.61832 L 57.5645,6.77736 L 57.6447,6.9478 L 57.7029,7.12695
 L 57.7382,7.312 L 57.75,7.5 L 57.7382,7.68799 L 57.7029,7.87303 L 57.6447,8.05219 L 57.5645,8.22263
 L 57.4635,8.38167 L 57.3434,8.52681 L 57.2061,8.65576 L 57.0537,8.76648 L 56.8887,8.85724 L 56.7135,8.92657
 L 56.5311,8.97342 L 56.3442,8.99704 z
M -18.8442,8.99704 L -19.0311,8.97342 L -19.2135,8.92657 L -19.3887,8.85724 L -19.5537,8.76648 L -19.7061,8.65576
 L -19.8434,8.52681 L -19.9635,8.38167 L -20.0645,8.22263 L -20.1447,8.05219 L -20.2029,7.87303 L -20.2382,7.68799
 L -20.25,7.5 L -20.2382,7.312 L -20.2029,7.12695 L -20.1447,6.9478 L -20.0645,6.77736 L -19.9635,6.61832
 L -19.8434,6.47318 L -19.7061,6.34422 L -19.5537,6.23351 L -19.3887,6.14275 L -19.2135,6.07341 L -19.0311,6.02657
 L -18.8442,6.00294 L -18.6558,6.00294 L -18.4689,6.02657 L -18.2865,6.07341 L -18.1113,6.14275 L -17.9463,6.23351
 L -17.7939,6.34422 L -17.6565,6.47318 L -17.5365,6.61832 L -17.4355,6.77736 L -17.3553,6.9478 L -17.2971,7.12695
 L -17.2618,7.312 L -17.25,7.5 L -17.2618,7.68799 L -17.2971,7.87303 L -17.3553,8.05219 L -17.4355,8.22263
 L -17.5365,8.38167 L -17.6565,8.52681 L -17.7939,8.65576 L -17.9463,8.76648 L -18.1113,8.85724 L -18.2865,8.92657
 L -18.4689,8.97342 L -18.6558,8.99704 z
M -63.8442,8.99704 L -64.0311,8.97342 L -64.2135,8.92657 L -64.3887,8.85724 L -64.5537,8.76648 L -64.7061,8.65576
 L -64.8434,8.52681 L -64.9635,8.38167 L -65.0645,8.22263 L -65.1447,8.05219 L -65.2029,7.87303 L -65.2382,7.68799
 L -65.25,7.5 L -65.2382,7.312 L -65.2029,7.12695 L -65.1447,6.9478 L -65.0645,6.77736 L -64.9635,6.61832
 L -64.8434,6.47318 L -64.7061,6.34422 L -64.5537,6.23351 L -64.3887,6.14275 L -64.2135,6.07341 L -64.0311,6.02657
 L -63.8442,6.00294 L -63.6558,6.00294 L -63.4689,6.02657 L -63.2865,6.07341 L -63.1113,6.14275 L -62.9463,6.23351
 L -62.7939,6.34422 L -62.6565,6.47318 L -62.5365,6.61832 L -62.4355,6.77736 L -62.3553,6.9478 L -62.2971,7.12695
 L -62.2618,7.312 L -62.25,7.5 L -62.2618,7.68799 L -62.2971,7.87303 L -62.3553,8.05219 L -62.4355,8.22263
 L -62.5365,8.38167 L -62.6565,8.52681 L -62.7939,8.65576 L -62.9463,8.76648 L -63.1113,8.85724 L -63.2865,8.92657
 L -63.4689,8.97342 L -63.6558,8.99704 z
M -48.8442,8.99704 L -49.0311,8.97342 L -49.2135,8.92657 L -49.3887,8.85724 L -49.5537,8.76648 L -49.7061,8.65576
 L -49.8434,8.52681 L -49.9635,8.38167 L -50.0645,8.22263 L -50.1447,8.05219 L -50.2029,7.87303 L -50.2382,7.68799
 L -50.25,7.5 L -50.2382,7.312 L -50.2029,7.12695 L -50.1447,6.9478 L -50.0645,6.77736 L -49.9635,6.61832
 L -49.8434,6.47318 L -49.7061,6.34422 L -49.5537,6.23351 L -49.3887,6.14275 L -49.2135,6.07341 L -49.0311,6.02657
 L -48.8442,6.00294 L -48.6558,6.00294 L -48.4689,6.02657 L -48.2865,6.07341 L -48.1113,6.14275 L -47.9463,6.23351
 L -47.7939,6.34422 L -47.6565,6.47318 L -47.5365,6.61832 L -47.4355,6.77736 L -47.3553,6.9478 L -47.2971,7.12695
 L -47.2618,7.312 L -47.25,7.5 L -47.2618,7.68799 L -47.2971,7.87303 L -47.3553,8.05219 L -47.4355,8.22263
 L -47.5365,8.38167 L -47.6565,8.52681 L -47.7939,8.65576 L -47.9463,8.76648 L -48.1113,8.85724 L -48.2865,8.92657
 L -48.4689,8.97342 L -48.6558,8.99704 z
M 48.6558,8.99704 L 48.4689,8.97342 L 48.2865,8.92657 L 48.1113,8.85724 L 47.9463,8.76648 L 47.7939,8.65576
 L 47.6565,8.52681 L 47.5365,8.38167 L 47.4355,8.22263 L 47.3553,8.05219 L 47.2971,7.87303 L 47.2618,7.68799
 L 47.25,7.5 L 47.2618,7.312 L 47.2971,7.12695 L 47.3553,6.9478 L 47.4355,6.77736 L 47.5365,6.61832
 L 47.6565,6.47318 L 47.7939,6.34422 L 47.9463,6.23351 L 48.1113,6.14275 L 48.2865,6.07341 L 48.4689,6.02657
 L 48.6558,6.00294 L 48.8442,6.00294 L 49.0311,6.02657 L 49.2135,6.07341 L 49.3887,6.14275 L 49.5537,6.23351
 L 49.7061,6.34422 L 49.8434,6.47318 L 49.9635,6.61832 L 50.0645,6.77736 L 50.1447,6.9478 L 50.2029,7.12695
 L 50.2382,7.312 L 50.25,7.5 L 50.2382,7.68799 L 50.2029,7.87303 L 50.1447,8.05219 L 50.0645,8.22263
 L 49.9635,8.38167 L 49.8434,8.52681 L 49.7061,8.65576 L 49.5537,8.76648 L 49.3887,8.85724 L 49.2135,8.92657
 L 49.0311,8.97342 L 48.8442,8.99704 z
M 41.1558,8.99704 L 40.9689,8.97342 L 40.7865,8.92657 L 40.6113,8.85724 L 40.4463,8.76648 L 40.2939,8.65576
 L 40.1565,8.52681 L 40.0365,8.38167 L 39.9355,8.22263 L 39.8553,8.05219 L 39.7971,7.87303 L 39.7618,7.68799
 L 39.75,7.5 L 39.7618,7.312 L 39.7971,7.12695 L 39.8553,6.9478 L 39.9355,6.77736 L 40.0365,6.61832
 L 40.1565,6.47318 L 40.2939,6.34422 L 40.4463,6.23351 L 40.6113,6.14275 L 40.7865,6.07341 L 40.9689,6.02657
 L 41.1558,6.00294 L 41.3442,6.00294 L 41.5311,6.02657 L 41.7135,6.07341 L 41.8887,6.14275 L 42.0537,6.23351
 L 42.2061,6.34422 L 42.3434,6.47318 L 42.4635,6.61832 L 42.5645,6.77736 L 42.6447,6.9478 L 42.7029,7.12695
 L 42.7382,7.312 L 42.75,7.5 L 42.7382,7.68799 L 42.7029,7.87303 L 42.6447,8.05219 L 42.5645,8.22263
 L 42.4635,8.38167 L 42.3434,8.52681 L 42.2061,8.65576 L 42.0537,8.76648 L 41.8887,8.85724 L 41.7135,8.92657
 L 41.5311,8.97342 L 41.3442,8.99704 z
M 71.1558,8.99704 L 70.9689,8.97342 L 70.7865,8.92657 L 70.6113,8.85724 L 70.4463,8.76648 L 70.2939,8.65576
 L 70.1565,8.52681 L 70.0365,8.38167 L 69.9355,8.22263 L 69.8553,8.05219 L 69.7971,7.87303 L 69.7618,7.68799
 L 69.75,7.5 L 69.7618,7.312 L 69.7971,7.12695 L 69.8553,6.9478 L 69.9355,6.77736 L 70.0365,6.61832
 L 70.1565,6.47318 L 70.2939,6.34422 L 70.4463,6.23351 L 70.6113,6.14275 L 70.7865,6.07341 L 70.9689,6.02657
 L 71.1558,6.00294 L 71.3442,6.00294 L 71.5311,6.02657 L 71.7135,6.07341 L 71.8887,6.14275 L 72.0537,6.23351
 L 72.2061,6.34422 L 72.3434,6.47318 L 72.4635,6.61832 L 72.5645,6.77736 L 72.6447,6.9478 L 72.7029,7.12695
 L 72.7382,7.312 L 72.75,7.5 L 72.7382,7.68799 L 72.7029,7.87303 L 72.6447,8.05219 L 72.5645,8.22263
 L 72.4635,8.38167 L 72.3434,8.52681 L 72.2061,8.65576 L 72.0537,8.76648 L 71.8887,8.85724 L 71.7135,8.92657
 L 71.5311,8.97342 L 71.3442,8.99704 z
M -3.84418,8.99704 L -4.03107,8.97342 L -4.21352,8.92657 L -4.38866,8.85724 L -4.55373,8.76648 L -4.70613,8.65576
 L -4.84344,8.52681 L -4.96352,8.38167 L -5.06445,8.22263 L -5.14465,8.05219 L -5.20287,7.87303 L -5.23816,7.68799
 L -5.25,7.5 L -5.23816,7.312 L -5.20287,7.12695 L -5.14465,6.9478 L -5.06445,6.77736 L -4.96352,6.61832
 L -4.84344,6.47318 L -4.70613,6.34422 L -4.55373,6.23351 L -4.38866,6.14275 L -4.21352,6.07341 L -4.03107,6.02657
 L -3.84418,6.00294 L -3.65581,6.00294 L -3.46892,6.02657 L -3.28647,6.07341 L -3.11133,6.14275 L -2.94626,6.23351
 L -2.79385,6.34422 L -2.65654,6.47318 L -2.53647,6.61832 L -2.43553,6.77736 L -2.35533,6.9478 L -2.29712,7.12695
 L -2.26183,7.312 L -2.25,7.5 L -2.26183,7.68799 L -2.29712,7.87303 L -2.35533,8.05219 L -2.43553,8.22263
 L -2.53647,8.38167 L -2.65654,8.52681 L -2.79385,8.65576 L -2.94626,8.76648 L -3.11133,8.85724 L -3.28647,8.92657
 L -3.46892,8.97342 L -3.65581,8.99704 z
M 33.6558,8.99704 L 33.4689,8.97342 L 33.2865,8.92657 L 33.1113,8.85724 L 32.9463,8.76648 L 32.7939,8.65576
 L 32.6565,8.52681 L 32.5365,8.38167 L 32.4355,8.22263 L 32.3553,8.05219 L 32.2971,7.87303 L 32.2618,7.68799
 L 32.25,7.5 L 32.2618,7.312 L 32.2971,7.12695 L 32.3553,6.9478 L 32.4355,6.77736 L 32.5365,6.61832
 L 32.6565,6.47318 L 32.7939,6.34422 L 32.9463,6.23351 L 33.1113,6.14275 L 33.2865,6.07341 L 33.4689,6.02657
 L 33.6558,6.00294 L 33.8442,6.00294 L 34.0311,6.02657 L 34.2135,6.07341 L 34.3887,6.14275 L 34.5537,6.23351
 L 34.7061,6.34422 L 34.8434,6.47318 L 34.9635,6.61832 L 35.0645,6.77736 L 35.1447,6.9478 L 35.2029,7.12695
 L 35.2382,7.312 L 35.25,7.5 L 35.2382,7.68799 L 35.2029,7.87303 L 35.1447,8.05219 L 35.0645,8.22263
 L 34.9635,8.38167 L 34.8434,8.52681 L 34.7061,8.65576 L 34.5537,8.76648 L 34.3887,8.85724 L 34.2135,8.92657
 L 34.0311,8.97342 L 33.8442,8.99704 z
M -63.8442,16.497 L -64.0311,16.4734 L -64.2135,16.4266 L -64.3887,16.3572 L -64.5537,16.2665 L -64.7061,16.1558
 L -64.8434,16.0268 L -64.9635,15.8817 L -65.0645,15.7226 L -65.1447,15.5522 L -65.2029,15.373 L -65.2382,15.188
 L -65.25,15 L -65.2382,14.812 L -65.2029,14.627 L -65.1447,14.4478 L -65.0645,14.2774 L -64.9635,14.1183
 L -64.8434,13.9732 L -64.7061,13.8442 L -64.5537,13.7335 L -64.3887,13.6427 L -64.2135,13.5734 L -64.0311,13.5266
 L -63.8442,13.5029 L -63.6558,13.5029 L -63.4689,13.5266 L -63.2865,13.5734 L -63.1113,13.6427 L -62.9463,13.7335
 L -62.7939,13.8442 L -62.6565,13.9732 L -62.5365,14.1183 L -62.4355,14.2774 L -62.3553,14.4478 L -62.2971,14.627
 L -62.2618,14.812 L -62.25,15 L -62.2618,15.188 L -62.2971,15.373 L -62.3553,15.5522 L -62.4355,15.7226
 L -62.5365,15.8817 L -62.6565,16.0268 L -62.7939,16.1558 L -62.9463,16.2665 L -63.1113,16.3572 L -63.2865,16.4266
 L -63.4689,16.4734 L -63.6558,16.497 z
M -33.8442,16.497 L -34.0311,16.4734 L -34.2135,16.4266 L -34.3887,16.3572 L -34.5537,16.2665 L -34.7061,16.1558
 L -34.8434,16.0268 L -34.9635,15.8817 L -35.0645,15.7226 L -35.1447,15.5522 L -35.2029,15.373 L -35.2382,15.188
 L -35.25,15 L -35.2382,14.812 L -35.2029,14.627 L -35.1447,14.4478 L -35.0645,14.2774 L -34.9635,14.1183
 L -34.8434,13.9732 L -34.7061,13.8442 L -34.5537,13.7335 L -34.3887,13.6427 L -34.2135,13.5734 L -34.0311,13.5266
 L -33.8442,13.5029 L -33.6558,13.5029 L -33.4689,13.5266 L -33.2865,13.5734 L -33.1113,13.6427 L -32.9463,13.7335
 L -32.7939,13.8442 L -32.6565,13.9732 L -32.5365,14.1183 L -32.4355,14.2774 L -32.3553,14.4478 L -32.2971,14.627
 L -32.2618,14.812 L -32.25,15 L -32.2618,15.188 L -32.2971,15.373 L -32.3553,15.5522 L -32.4355,15.7226
 L -32.5365,15.8817 L -32.6565,16.0268 L -32.7939,16.1558 L -32.9463,16.2665 L -33.1113,16.3572 L -33.2865,16.4266
 L -33.4689,16.4734 L -33.6558,16.497 z
M 56.1558,16.497 L 55.9689,16.4734 L 55.7865,16.4266 L 55.6113,16.3572 L 55.4463,16.2665 L 55.2939,16.1558
 L 55.1565,16.0268 L 55.0365,15.8817 L 54.9355,15.7226 L 54.8553,15.5522 L 54.7971,15.373 L 54.7618,15.188
 L 54.75,15 L 54.7618,14.812 L 54.7971,14.627 L 54.8553,14.4478 L 54.9355,14.2774 L 55.0365,14.1183
 L 55.1565,13.9732 L 55.2939,13.8442 L 55.4463,13.7335 L 55.6113,13.6427 L 55.7865,13.5734 L 55.9689,13.5266
 L 56.1558,13.5029 L 56.3442,13.5029 L 56.5311,13.5266 L 56.7135,13.5734 L 56.8887,13.6427 L 57.0537,13.7335
 L 57.2061,13.8442 L 57.3434,13.9732 L 57.4635,14.1183 L 57.5645,14.2774 L 57.6447,14.4478 L 57.7029,14.627
 L 57.7382,14.812 L 57.75,15 L 57.7382,15.188 L 57.7029,15.373 L 57.6447,15.5522 L 57.5645,15.7226
 L 57.4635,15.8817 L 57.3434,16.0268 L 57.2061,16.1558 L 57.0537,16.2665 L 56.8887,16.3572 L 56.7135,16.4266
 L 56.5311,16.4734 L 56.3442,16.497 z
M -26.3442,16.497 L -26.5311,16.4734 L -26.7135,16.4266 L -26.8887,16.3572 L -27.0537,16.2665 L -27.2061,16.1558
 L -27.3434,16.0268 L -27.4635,15.8817 L -27.5645,15.7226 L -27.6447,15.5522 L -27.7029,15.373 L -27.7382,15.188
 L -27.75,15 L -27.7382,14.812 L -27.7029,14.627 L -27.6447,14.4478 L -27.5645,14.2774 L -27.4635,14.1183
 L -27.3434,13.9732 L -27.2061,13.8442 L -27.0537,13.7335 L -26.8887,13.6427 L -26.7135,13.5734 L -26.5311,13.5266
 L -26.3442,13.5029 L -26.1558,13.5029 L -25.9689,13.5266 L -25.7865,13.5734 L -25.6113,13.6427 L -25.4463,13.7335
 L -25.2939,13.8442 L -25.1565,13.9732 L -25.0365,14.1183 L -24.9355,14.2774 L -24.8553,14.4478 L -24.7971,14.627
 L -24.7618,14.812 L -24.75,15 L -24.7618,15.188 L -24.7971,15.373 L -24.8553,15.5522 L -24.9355,15.7226
 L -25.0365,15.8817 L -25.1565,16.0268 L -25.2939,16.1558 L -25.4463,16.2665 L -25.6113,16.3572 L -25.7865,16.4266
 L -25.9689,16.4734 L -26.1558,16.497 z
M 41.1558,16.497 L 40.9689,16.4734 L 40.7865,16.4266 L 40.6113,16.3572 L 40.4463,16.2665 L 40.2939,16.1558
 L 40.1565,16.0268 L 40.0365,15.8817 L 39.9355,15.7226 L 39.8553,15.5522 L 39.7971,15.373 L 39.7618,15.188
 L 39.75,15 L 39.7618,14.812 L 39.7971,14.627 L 39.8553,14.4478 L 39.9355,14.2774 L 40.0365,14.1183
 L 40.1565,13.9732 L 40.2939,13.8442 L 40.4463,13.7335 L 40.6113,13.6427 L 40.7865,13.5734 L 40.9689,13.5266
 L 41.1558,13.5029 L 41.3442,13.5029 L 41.5311,13.5266 L 41.7135,13.5734 L 41.8887,13.6427 L 42.0537,13.7335
 L 42.2061,13.8442 L 42.3434,13.9732 L 42.4635,14.1183 L 42.5645,14.2774 L 42.6447,14.4478 L 42.7029,14.627
 L 42.7382,14.812 L 42.75,15 L 42.7382,15.188 L 42.7029,15.373 L 42.6447,15.5522 L 42.5645,15.7226
 L 42.4635,15.8817 L 42.3434,16.0268 L 42.2061,16.1558 L 42.0537,16.2665 L 41.8887,16.3572 L 41.7135,16.4266
 L 41.5311,16.4734 L 41.3442,16.497 z
M 48.6558,16.497 L 48.4689,16.4734 L 48.2865,16.4266 L 48.1113,16.3572 L 47.9463,16.2665 L 47.7939,16.1558
 L 47.6565,16.0268 L 47.5365,15.8817 L 47.4355,15.7226 L 47.3553,15.5522 L 47.2971,15.373 L 47.2618,15.188
 L 47.25,15 L 47.2618,14.812 L 47.2971,14.627 L 47.3553,14.4478 L 47.4355,14.2774 L 47.5365,14.1183
 L 47.6565,13.9732 L 47.7939,13.8442 L 47.9463,13.7335 L 48.1113,13.6427 L 48.2865,13.5734 L 48.4689,13.5266
 L 48.6558,13.5029 L 48.8442,13.5029 L 49.0311,13.5266 L 49.2135,13.5734 L 49.3887,13.6427 L 49.5537,13.7335
 L 49.7061,13.8442 L 49.8434,13.9732 L 49.9635,14.1183 L 50.0645,14.2774 L 50.1447,14.4478 L 50.2029,14.627
 L 50.2382,14.812 L 50.25,15 L 50.2382,15.188 L 50.2029,15.373 L 50.1447,15.5522 L 50.0645,15.7226
 L 49.9635,15.8817 L 49.8434,16.0268 L 49.7061,16.1558 L 49.5537,16.2665 L 49.3887,16.3572 L 49.2135,16.4266
 L 49.0311,16.4734 L 48.8442,16.497 z
M 26.1558,16.497 L 25.9689,16.4734 L 25.7865,16.4266 L 25.6113,16.3572 L 25.4463,16.2665 L 25.2939,16.1558
 L 25.1565,16.0268 L 25.0365,15.8817 L 24.9355,15.7226 L 24.8553,15.5522 L 24.7971,15.373 L 24.7618,15.188
 L 24.75,15 L 24.7618,14.812 L 24.7971,14.627 L 24.8553,14.4478 L 24.9355,14.2774 L 25.0365,14.1183
 L 25.1565,13.9732 L 25.2939,13.8442 L 25.4463,13.7335 L 25.6113,13.6427 L 25.7865,13.5734 L 25.9689,13.5266
 L 26.1558,13.5029 L 26.3442,13.5029 L 26.5311,13.5266 L 26.7135,13.5734 L 26.8887,13.6427 L 27.0537,13.7335
 L 27.2061,13.8442 L 27.3434,13.9732 L 27.4635,14.1183 L 27.5645,14.2774 L 27.6447,14.4478 L 27.7029,14.627
 L 27.7382,14.812 L 27.75,15 L 27.7382,15.188 L 27.7029,15.373 L 27.6447,15.5522 L 27.5645,15.7226
 L 27.4635,15.8817 L 27.3434,16.0268 L 27.2061,16.1558 L 27.0537,16.2665 L 26.8887,16.3572 L 26.7135,16.4266
 L 26.5311,16.4734 L 26.3442,16.497 z
M 11.1558,16.497 L 10.9689,16.4734 L 10.7865,16.4266 L 10.6113,16.3572 L 10.4463,16.2665 L 10.2939,16.1558
 L 10.1565,16.0268 L 10.0365,15.8817 L 9.93553,15.7226 L 9.85533,15.5522 L 9.79712,15.373 L 9.76183,15.188
 L 9.75,15 L 9.76183,14.812 L 9.79712,14.627 L 9.85533,14.4478 L 9.93553,14.2774 L 10.0365,14.1183
 L 10.1565,13.9732 L 10.2939,13.8442 L 10.4463,13.7335 L 10.6113,13.6427 L 10.7865,13.5734 L 10.9689,13.5266
 L 11.1558,13.5029 L 11.3442,13.5029 L 11.5311,13.5266 L 11.7135,13.5734 L 11.8887,13.6427 L 12.0537,13.7335
 L 12.2061,13.8442 L 12.3434,13.9732 L 12.4635,14.1183 L 12.5645,14.2774 L 12.6447,14.4478 L 12.7029,14.627
 L 12.7382,14.812 L 12.75,15 L 12.7382,15.188 L 12.7029,15.373 L 12.6447,15.5522 L 12.5645,15.7226
 L 12.4635,15.8817 L 12.3434,16.0268 L 12.2061,16.1558 L 12.0537,16.2665 L 11.8887,16.3572 L 11.7135,16.4266
 L 11.5311,16.4734 L 11.3442,16.497 z
M -56.3442,16.497 L -56.5311,16.4734 L -56.7135,16.4266 L -56.8887,16.3572 L -57.0537,16.2665 L -57.2061,16.1558
 L -57.3434,16.0268 L -57.4635,15.8817 L -57.5645,15.7226 L -57.6447,15.5522 L -57.7029,15.373 L -57.7382,15.188
 L -57.75,15 L -57.7382,14.812 L -57.7029,14.627 L -57.6447,14.4478 L -57.5645,14.2774 L -57.4635,14.1183
 L -57.3434,13.9732 L -57.2061,13.8442 L -57.0537,13.7335 L -56.8887,13.6427 L -56.7135,13.5734 L -56.5311,13.5266
 L -56.3442,13.5029 L -56.1558,13.5029 L -55.9689,13.5266 L -55.7865,13.5734 L -55.6113,13.6427 L -55.4463,13.7335
 L -55.2939,13.8442 L -55.1565,13.9732 L -55.0365,14.1183 L -54.9355,14.2774 L -54.8553,14.4478 L -54.7971,14.627
 L -54.7618,14.812 L -54.75,15 L -54.7618,15.188 L -54.7971,15.373 L -54.8553,15.5522 L -54.9355,15.7226
 L -55.0365,15.8817 L -55.1565,16.0268 L -55.2939,16.1558 L -55.4463,16.2665 L -55.6113,16.3572 L -55.7865,16.4266
 L -55.9689,16.4734 L -56.1558,16.497 z
M 71.1558,16.497 L 70.9689,16.4734 L 70.7865,16.4266 L 70.6113,16.3572 L 70.4463,16.2665 L 70.2939,16.1558
 L 70.1565,16.0268 L 70.0365,15.8817 L 69.9355,15.7226 L 69.8553,15.5522 L 69.7971,15.373 L 69.7618,15.188
 L 69.75,15 L 69.7618,14.812 L 69.7971,14.627 L 69.8553,14.4478 L 69.9355,14.2774 L 70.0365,14.1183
 L 70.1565,13.9732 L 70.2939,13.8442 L 70.4463,13.7335 L 70.6113,13.6427 L 70.7865,13.5734 L 70.9689,13.5266
 L 71.1558,13.5029 L 71.3442,13.5029 L 71.5311,13.5266 L 71.7135,13.5734 L 71.8887,13.6427 L 72.0537,13.7335
 L 72.2061,13.8442 L 72.3434,13.9732 L 72.4635,14.1183 L 72.5645,14.2774 L 72.6447,14.4478 L 72.7029,14.627
 L 72.7382,14.812 L 72.75,15 L 72.7382,15.188 L 72.7029,15.373 L 72.6447,15.5522 L 72.5645,15.7226
 L 72.4635,15.8817 L 72.3434,16.0268 L 72.2061,16.1558 L 72.0537,16.2665 L 71.8887,16.3572 L 71.7135,16.4266
 L 71.5311,16.4734 L 71.3442,16.497 z
M -18.8442,16.497 L -19.0311,16.4734 L -19.2135,16.4266 L -19.3887,16.3572 L -19.5537,16.2665 L -19.7061,16.1558
 L -19.8434,16.0268 L -19.9635,15.8817 L -20.0645,15.7226 L -20.1447,15.5522 L -20.2029,15.373 L -20.2382,15.188
 L -20.25,15 L -20.2382,14.812 L -20.2029,14.627 L -20.1447,14.4478 L -20.0645,14.2774 L -19.9635,14.1183
 L -19.8434,13.9732 L -19.7061,13.8442 L -19.5537,13.7335 L -19.3887,13.6427 L -19.2135,13.5734 L -19.0311,13.5266
 L -18.8442,13.5029 L -18.6558,13.5029 L -18.4689,13.5266 L -18.2865,13.5734 L -18.1113,13.6427 L -17.9463,13.7335
 L -17.7939,13.8442 L -17.6565,13.9732 L -17.5365,14.1183 L -17.4355,14.2774 L -17.3553,14.4478 L -17.2971,14.627
 L -17.2618,14.812 L -17.25,15 L -17.2618,15.188 L -17.2971,15.373 L -17.3553,15.5522 L -17.4355,15.7226
 L -17.5365,15.8817 L -17.6565,16.0268 L -17.7939,16.1558 L -17.9463,16.2665 L -18.1113,16.3572 L -18.2865,16.4266
 L -18.4689,16.4734 L -18.6558,16.497 z
M 33.6558,16.497 L 33.4689,16.4734 L 33.2865,16.4266 L 33.1113,16.3572 L 32.9463,16.2665 L 32.7939,16.1558
 L 32.6565,16.0268 L 32.5365,15.8817 L 32.4355,15.7226 L 32.3553,15.5522 L 32.2971,15.373 L 32.2618,15.188
 L 32.25,15 L 32.2618,14.812 L 32.2971,14.627 L 32.3553,14.4478 L 32.4355,14.2774 L 32.5365,14.1183
 L 32.6565,13.9732 L 32.7939,13.8442 L 32.9463,13.7335 L 33.1113,13.6427 L 33.2865,13.5734 L 33.4689,13.5266
 L 33.6558,13.5029 L 33.8442,13.5029 L 34.0311,13.5266 L 34.2135,13.5734 L 34.3887,13.6427 L 34.5537,13.7335
 L 34.7061,13.8442 L 34.8434,13.9732 L 34.9635,14.1183 L 35.0645,14.2774 L 35.1447,14.4478 L 35.2029,14.627
 L 35.2382,14.812 L 35.25,15 L 35.2382,15.188 L 35.2029,15.373 L 35.1447,15.5522 L 35.0645,15.7226
 L 34.9635,15.8817 L 34.8434,16.0268 L 34.7061,16.1558 L 34.5537,16.2665 L 34.3887,16.3572 L 34.2135,16.4266
 L 34.0311,16.4734 L 33.8442,16.497 z
M -11.3442,16.497 L -11.5311,16.4734 L -11.7135,16.4266 L -11.8887,16.3572 L -12.0537,16.2665 L -12.2061,16.1558
 L -12.3434,16.0268 L -12.4635,15.8817 L -12.5645,15.7226 L -12.6447,15.5522 L -12.7029,15.373 L -12.7382,15.188
 L -12.75,15 L -12.7382,14.812 L -12.7029,14.627 L -12.6447,14.4478 L -12.5645,14.2774 L -12.4635,14.1183
 L -12.3434,13.9732 L -12.2061,13.8442 L -12.0537,13.7335 L -11.8887,13.6427 L -11.7135,13.5734 L -11.5311,13.5266
 L -11.3442,13.5029 L -11.1558,13.5029 L -10.9689,13.5266 L -10.7865,13.5734 L -10.6113,13.6427 L -10.4463,13.7335
 L -10.2939,13.8442 L -10.1565,13.9732 L -10.0365,14.1183 L -9.93553,14.2774 L -9.85533,14.4478 L -9.79712,14.627
 L -9.76183,14.812 L -9.75,15 L -9.76183,15.188 L -9.79712,15.373 L -9.85533,15.5522 L -9.93553,15.7226
 L -10.0365,15.8817 L -10.1565,16.0268 L -10.2939,16.1558 L -10.4463,16.2665 L -10.6113,16.3572 L -10.7865,16.4266
 L -10.9689,16.4734 L -11.1558,16.497 z
M 3.65581,16.497 L 3.46892,16.4734 L 3.28647,16.4266 L 3.11133,16.3572 L 2.94626,16.2665 L 2.79385,16.1558
 L 2.65654,16.0268 L 2.53647,15.8817 L 2.43553,15.7226 L 2.35533,15.5522 L 2.29712,15.373 L 2.26183,15.188
 L 2.25,15 L 2.26183,14.812 L 2.29712,14.627 L 2.35533,14.4478 L 2.43553,14.2774 L 2.53647,14.1183
 L 2.65654,13.9732 L 2.79385,13.8442 L 2.94626,13.7335 L 3.11133,13.6427 L 3.28647,13.5734 L 3.46892,13.5266
 L 3.65581,13.5029 L 3.84418,13.5029 L 4.03107,13.5266 L 4.21352,13.5734 L 4.38866,13.6427 L 4.55373,13.7335
 L 4.70613,13.8442 L 4.84344,13.9732 L 4.96352,14.1183 L 5.06445,14.2774 L 5.14465,14.4478 L 5.20287,14.627
 L 5.23816,14.812 L 5.25,15 L 5.23816,15.188 L 5.20287,15.373 L 5.14465,15.5522 L 5.06445,15.7226
 L 4.96352,15.8817 L 4.84344,16.0268 L 4.70613,16.1558 L 4.55373,16.2665 L 4.38866,16.3572 L 4.21352,16.4266
 L 4.03107,16.4734 L 3.84418,16.497 z
M -48.8442,16.497 L -49.0311,16.4734 L -49.2135,16.4266 L -49.3887,16.3572 L -49.5537,16.2665 L -49.7061,16.1558
 L -49.8434,16.0268 L -49.9635,15.8817 L -50.0645,15.7226 L -50.1447,15.5522 L -50.2029,15.373 L -50.2382,15.188
 L -50.25,15 L -50.2382,14.812 L -50.2029,14.627 L -50.1447,14.4478 L -50.0645,14.2774 L -49.9635,14.1183
 L -49.8434,13.9732 L -49.7061,13.8442 L -49.5537,13.7335 L -49.3887,13.6427 L -49.2135,13.5734 L -49.0311,13.5266
 L -48.8442,13.5029 L -48.6558,13.5029 L -48.4689,13.5266 L -48.2865,13.5734 L -48.1113,13.6427 L -47.9463,13.7335
 L -47.7939,13.8442 L -47.6565,13.9732 L -47.5365,14.1183 L -47.4355,14.2774 L -47.3553,14.4478 L -47.2971,14.627
 L -47.2618,14.812 L -47.25,15 L -47.2618,15.188 L -47.2971,15.373 L -47.3553,15.5522 L -47.4355,15.7226
 L -47.5365,15.8817 L -47.6565,16.0268 L -47.7939,16.1558 L -47.9463,16.2665 L -48.1113,16.3572 L -48.2865,16.4266
 L -48.4689,16.4734 L -48.6558,16.497 z
M -3.84418,16.497 L -4.03107,16.4734 L -4.21352,16.4266 L -4.38866,16.3572 L -4.55373,16.2665 L -4.70613,16.1558
 L -4.84344,16.0268 L -4.96352,15.8817 L -5.06445,15.7226 L -5.14465,15.5522 L -5.20287,15.373 L -5.23816,15.188
 L -5.25,15 L -5.23816,14.812 L -5.20287,14.627 L -5.14465,14.4478 L -5.06445,14.2774 L -4.96352,14.1183
 L -4.84344,13.9732 L -4.70613,13.8442 L -4.55373,13.7335 L -4.38866,13.6427 L -4.21352,13.5734 L -4.03107,13.5266
 L -3.84418,13.5029 L -3.65581,13.5029 L -3.46892,13.5266 L -3.28647,13.5734 L -3.11133,13.6427 L -2.94626,13.7335
 L -2.79385,13.8442 L -2.65654,13.9732 L -2.53647,14.1183 L -2.43553,14.2774 L -2.35533,14.4478 L -2.29712,14.627
 L -2.26183,14.812 L -2.25,15 L -2.26183,15.188 L -2.29712,15.373 L -2.35533,15.5522 L -2.43553,15.7226
 L -2.53647,15.8817 L -2.65654,16.0268 L -2.79385,16.1558 L -2.94626,16.2665 L -3.11133,16.3572 L -3.28647,16.4266
 L -3.46892,16.4734 L -3.65581,16.497 z
M -41.3442,16.497 L -41.5311,16.4734 L -41.7135,16.4266 L -41.8887,16.3572 L -42.0537,16.2665 L -42.2061,16.1558
 L -42.3434,16.0268 L -42.4635,15.8817 L -42.5645,15.7226 L -42.6447,15.5522 L -42.7029,15.373 L -42.7382,15.188
 L -42.75,15 L -42.7382,14.812 L -42.7029,14.627 L -42.6447,14.4478 L -42.5645,14.2774 L -42.4635,14.1183
 L -42.3434,13.9732 L -42.2061,13.8442 L -42.0537,13.7335 L -41.8887,13.6427 L -41.7135,13.5734 L -41.5311,13.5266
 L -41.3442,13.5029 L -41.1558,13.5029 L -40.9689,13.5266 L -40.7865,13.5734 L -40.6113,13.6427 L -40.4463,13.7335
 L -40.2939,13.8442 L -40.1565,13.9732 L -40.0365,14.1183 L -39.9355,14.2774 L -39.8553,14.4478 L -39.7971,14.627
 L -39.7618,14.812 L -39.75,15 L -39.7618,15.188 L -39.7971,15.373 L -39.8553,15.5522 L -39.9355,15.7226
 L -40.0365,15.8817 L -40.1565,16.0268 L -40.2939,16.1558 L -40.4463,16.2665 L -40.6113,16.3572 L -40.7865,16.4266
 L -40.9689,16.4734 L -41.1558,16.497 z
M 18.6558,16.497 L 18.4689,16.4734 L 18.2865,16.4266 L 18.1113,16.3572 L 17.9463,16.2665 L 17.7939,16.1558
 L 17.6565,16.0268 L 17.5365,15.8817 L 17.4355,15.7226 L 17.3553,15.5522 L 17.2971,15.373 L 17.2618,15.188
 L 17.25,15 L 17.2618,14.812 L 17.2971,14.627 L 17.3553,14.4478 L 17.4355,14.2774 L 17.5365,14.1183
 L 17.6565,13.9732 L 17.7939,13.8442 L 17.9463,13.7335 L 18.1113,13.6427 L 18.2865,13.5734 L 18.4689,13.5266
 L 18.6558,13.5029 L 18.8442,13.5029 L 19.0311,13.5266 L 19.2135,13.5734 L 19.3887,13.6427 L 19.5537,13.7335
 L 19.7061,13.8442 L 19.8434,13.9732 L 19.9635,14.1183 L 20.0645,14.2774 L 20.1447,14.4478 L 20.2029,14.627
 L 20.2382,14.812 L 20.25,15 L 20.2382,15.188 L 20.2029,15.373 L 20.1447,15.5522 L 20.0645,15.7226
 L 19.9635,15.8817 L 19.8434,16.0268 L 19.7061,16.1558 L 19.5537,16.2665 L 19.3887,16.3572 L 19.2135,16.4266
 L 19.0311,16.4734 L 18.8442,16.497 z
M -71.3442,16.497 L -71.5311,16.4734 L -71.7135,16.4266 L -71.8887,16.3572 L -72.0537,16.2665 L -72.2061,16.1558
 L -72.3434,16.0268 L -72.4635,15.8817 L -72.5645,15.7226 L -72.6447,15.5522 L -72.7029,15.373 L -72.7382,15.188
 L -72.75,15 L -72.7382,14.812 L -72.7029,14.627 L -72.6447,14.4478 L -72.5645,14.2774 L -72.4635,14.1183
 L -72.3434,13.9732 L -72.2061,13.8442 L -72.0537,13.7335 L -71.8887,13.6427 L -71.7135,13.5734 L -71.5311,13.5266
 L -71.3442,13.5029 L -71.1558,13.5029 L -70.9689,13.5266 L -70.7865,13.5734 L -70.6113,13.6427 L -70.4463,13.7335
 L -70.2939,13.8442 L -70.1565,13.9732 L -70.0365,14.1183 L -69.9355,14.2774 L -69.8553,14.4478 L -69.7971,14.627
 L -69.7618,14.812 L -69.75,15 L -69.7618,15.188 L -69.7971,15.373 L -69.8553,15.5522 L -69.9355,15.7226
 L -70.0365,15.8817 L -70.1565,16.0268 L -70.2939,16.1558 L -70.4463,16.2665 L -70.6113,16.3572 L -70.7865,16.4266
 L -70.9689,16.4734 L -71.1558,16.497 z
M 63.6558,16.497 L 63.4689,16.4734 L 63.2865,16.4266 L 63.1113,16.3572 L 62.9463,16.2665 L 62.7939,16.1558
 L 62.6565,16.0268 L 62.5365,15.8817 L 62.4355,15.7226 L 62.3553,15.5522 L 62.2971,15.373 L 62.2618,15.188
 L 62.25,15 L 62.2618,14.812 L 62.2971,14.627 L 62.3553,14.4478 L 62.4355,14.2774 L 62.5365,14.1183
 L 62.6565,13.9732 L 62.7939,13.8442 L 62.9463,13.7335 L 63.1113,13.6427 L 63.2865,13.5734 L 63.4689,13.5266
 L 63.6558,13.5029 L 63.8442,13.5029 L 64.0311,13.5266 L 64.2135,13.5734 L 64.3887,13.6427 L 64.5537,13.7335
 L 64.7061,13.8442 L 64.8434,13.9732 L 64.9635,14.1183 L 65.0645,14.2774 L 65.1447,14.4478 L 65.2029,14.627
 L 65.2382,14.812 L 65.25,15 L 65.2382,15.188 L 65.2029,15.373 L 65.1447,15.5522 L 65.0645,15.7226
 L 64.9635,15.8817 L 64.8434,16.0268 L 64.7061,16.1558 L 64.5537,16.2665 L 64.3887,16.3572 L 64.2135,16.4266
 L 64.0311,16.4734 L 63.8442,16.497 z
M -40.4463,-6.23351 L -40.6113,-6.14275 L -40.7865,-6.07341 L -40.9689,-6.02657 L -41.1558,-6.00294 L -41.3442,-6.00294
 L -41.5311,-6.02657 L -41.7135,-6.07341 L -41.8887,-6.14275 L -42.0537,-6.23351 L -42.2061,-6.34422 L -42.3434,-6.47318
 L -42.4635,-6.61832 L -42.5645,-6.77736 L -42.6447,-6.9478 L -42.7029,-7.12695 L -42.7382,-7.312 L -42.75,-7.5
 L -42.7382,-7.68799 L -42.7029,-7.87303 L -42.6447,-8.05219 L -42.5645,-8.22263 L -42.4635,-8.38167 L -42.3434,-8.52681
 L -42.2061,-8.65576 L -42.0537,-8.76648 L -41.8887,-8.85724 L -41.7135,-8.92657 L -41.5311,-8.97342 L -41.3442,-8.99704
 L -41.1558,-8.99704 L -40.9689,-8.97342 L -40.7865,-8.92657 L -40.6113,-8.85724 L -40.4463,-8.76648 L -40.2939,-8.65576
 L -40.1565,-8.52681 L -40.0365,-8.38167 L -39.9355,-8.22263 L -39.8553,-8.05219 L -39.7971,-7.87303 L -39.7618,-7.68799
 L -39.75,-7.5 L -39.7618,-7.312 L -39.7971,-7.12695 L -39.8553,-6.9478 L -39.9355,-6.77736 L -40.0365,-6.61832
 L -40.1565,-6.47318 L -40.2939,-6.34422 z
M 57.0537,-6.23351 L 56.8887,-6.14275 L 56.7135,-6.07341 L 56.5311,-6.02657 L 56.3442,-6.00294 L 56.1558,-6.00294
 L 55.9689,-6.02657 L 55.7865,-6.07341 L 55.6113,-6.14275 L 55.4463,-6.23351 L 55.2939,-6.34422 L 55.1565,-6.47318
 L 55.0365,-6.61832 L 54.9355,-6.77736 L 54.8553,-6.9478 L 54.7971,-7.12695 L 54.7618,-7.312 L 54.75,-7.5
 L 54.7618,-7.68799 L 54.7971,-7.87303 L 54.8553,-8.05219 L 54.9355,-8.22263 L 55.0365,-8.38167 L 55.1565,-8.52681
 L 55.2939,-8.65576 L 55.4463,-8.76648 L 55.6113,-8.85724 L 55.7865,-8.92657 L 55.9689,-8.97342 L 56.1558,-8.99704
 L 56.3442,-8.99704 L 56.5311,-8.97342 L 56.7135,-8.92657 L 56.8887,-8.85724 L 57.0537,-8.76648 L 57.2061,-8.65576
 L 57.3434,-8.52681 L 57.4635,-8.38167 L 57.5645,-8.22263 L 57.6447,-8.05219 L 57.7029,-7.87303 L 57.7382,-7.68799
 L 57.75,-7.5 L 57.7382,-7.312 L 57.7029,-7.12695 L 57.6447,-6.9478 L 57.5645,-6.77736 L 57.4635,-6.61832
 L 57.3434,-6.47318 L 57.2061,-6.34422 z
M 27.0537,1.26648 L 26.8887,1.35724 L 26.7135,1.42657 L 26.5311,1.47342 L 26.3442,1.49704 L 26.1558,1.49704
 L 25.9689,1.47342 L 25.7865,1.42657 L 25.6113,1.35724 L 25.4463,1.26648 L 25.2939,1.15576 L 25.1565,1.02681
 L 25.0365,0.881668 L 24.9355,0.722626 L 24.8553,0.552185 L 24.7971,0.373032 L 24.7618,0.187988 L 24.75,-0
 L 24.7618,-0.187988 L 24.7971,-0.373032 L 24.8553,-0.552185 L 24.9355,-0.722626 L 25.0365,-0.881668 L 25.1565,-1.02681
 L 25.2939,-1.15576 L 25.4463,-1.26648 L 25.6113,-1.35724 L 25.7865,-1.42657 L 25.9689,-1.47342 L 26.1558,-1.49704
 L 26.3442,-1.49704 L 26.5311,-1.47342 L 26.7135,-1.42657 L 26.8887,-1.35724 L 27.0537,-1.26648 L 27.2061,-1.15576
 L 27.3434,-1.02681 L 27.4635,-0.881668 L 27.5645,-0.722626 L 27.6447,-0.552185 L 27.7029,-0.373032 L 27.7382,-0.187988
 L 27.75,-0 L 27.7382,0.187988 L 27.7029,0.373032 L 27.6447,0.552185 L 27.5645,0.722626 L 27.4635,0.881668
 L 27.3434,1.02681 L 27.2061,1.15576 z
" stroke="black" fill="lightgray" stroke-width="0.5"/>
</svg>
