<?xml version="1.0" standalone="no"?>
<!DOCTYPE svg PUBLIC "-//W3C//DTD SVG 1.1//EN" "http://www.w3.org/Graphics/SVG/1.1/DTD/svg11.dtd">
<svg width="210mm" height="74mm" viewBox="-105 -37 210 74" xmlns="http://www.w3.org/2000/svg" version="1.1">
<title>OpenSCAD Model</title>
<path d="
M 100.437,36.9114 L 101.045,36.7553 L 101.629,36.5241 L 102.179,36.2216 L 102.687,35.8526 L 103.145,35.4227
 L 103.545,34.9389 L 103.882,34.4088 L 104.149,33.8406 L 104.343,33.2434 L 104.461,32.6267 L 104.5,32
 L 104.5,-32 L 104.461,-32.6267 L 104.343,-33.2434 L 104.149,-33.8406 L 103.882,-34.4088 L 103.545,-34.9389
 L 103.145,-35.4227 L 102.687,-35.8526 L 102.179,-36.2216 L 101.629,-36.5241 L 101.045,-36.7553 L 100.437,-36.9114
 L 99.8139,-36.9901 L -99.8139,-36.9901 L -100.437,-36.9114 L -101.045,-36.7553 L -101.629,-36.5241 L -102.179,-36.2216
 L -102.687,-35.8526 L -103.145,-35.4227 L -103.545,-34.9389 L -103.882,-34.4088 L -104.149,-33.8406 L -104.343,-33.2434
 L -104.461,-32.6267 L -104.5,-32 L -104.5,32 L -104.461,32.6267 L -104.343,33.2434 L -104.149,33.8406
 L -103.882,34.4088 L -103.545,34.9389 L -103.145,35.4227 L -102.687,35.8526 L -102.179,36.2216 L -101.629,36.5241
 L -101.045,36.7553 L -100.437,36.9114 L -99.8139,36.9901 L 99.8139,36.9901 z
M 37.3116,-27.0059 L 36.9379,-27.0531 L 36.5729,-27.1468 L 36.2227,-27.2855 L 35.8925,-27.467 L 35.5877,-27.6884
 L 35.3131,-27.9464 L 35.0729,-28.2366 L 34.8711,-28.5547 L 34.7107,-28.8956 L 34.5942,-29.2539 L 34.5237,-29.624
 L 34.5,-30 L 34.5237,-30.376 L 34.5942,-30.7461 L 34.7107,-31.1044 L 34.8711,-31.4453 L 35.0729,-31.7634
 L 35.3131,-32.0536 L 35.5877,-32.3115 L 35.8925,-32.533 L 36.2227,-32.7145 L 36.5729,-32.8532 L 36.9379,-32.9469
 L 37.3116,-32.9941 L 37.6884,-32.9941 L 38.0621,-32.9469 L 38.427,-32.8532 L 38.7773,-32.7145 L 39.1075,-32.533
 L 39.4123,-32.3115 L 39.6869,-32.0536 L 39.927,-31.7634 L 40.1289,-31.4453 L 40.2893,-31.1044 L 40.4057,-30.7461
 L 40.4763,-30.376 L 40.5,-30 L 40.4763,-29.624 L 40.4057,-29.2539 L 40.2893,-28.8956 L 40.1289,-28.5547
 L 39.927,-28.2366 L 39.6869,-27.9464 L 39.4123,-27.6884 L 39.1075,-27.467 L 38.7773,-27.2855 L 38.427,-27.1468
 L 38.0621,-27.0531 L 37.6884,-27.0059 z
M -82.6884,-27.0059 L -83.0621,-27.0531 L -83.427,-27.1468 L -83.7773,-27.2855 L -84.1075,-27.467 L -84.4123,-27.6884
 L -84.6869,-27.9464 L -84.927,-28.2366 L -85.1289,-28.5547 L -85.2893,-28.8956 L -85.4057,-29.2539 L -85.4763,-29.624
 L -85.5,-30 L -85.4763,-30.376 L -85.4057,-30.7461 L -85.2893,-31.1044 L -85.1289,-31.4453 L -84.927,-31.7634
 L -84.6869,-32.0536 L -84.4123,-32.3115 L -84.1075,-32.533 L -83.7773,-32.7145 L -83.427,-32.8532 L -83.0621,-32.9469
 L -82.6884,-32.9941 L -82.3116,-32.9941 L -81.9379,-32.9469 L -81.573,-32.8532 L -81.2227,-32.7145 L -80.8925,-32.533
 L -80.5877,-32.3115 L -80.3131,-32.0536 L -80.073,-31.7634 L -79.8711,-31.4453 L -79.7107,-31.1044 L -79.5943,-30.7461
 L -79.5237,-30.376 L -79.5,-30 L -79.5237,-29.624 L -79.5943,-29.2539 L -79.7107,-28.8956 L -79.8711,-28.5547
 L -80.073,-28.2366 L -80.3131,-27.9464 L -80.5877,-27.6884 L -80.8925,-27.467 L -81.2227,-27.2855 L -81.573,-27.1468
 L -81.9379,-27.0531 L -82.3116,-27.0059 z
M 22.3116,-27.0059 L 21.9379,-27.0531 L 21.5729,-27.1468 L 21.2227,-27.2855 L 20.8925,-27.467 L 20.5877,-27.6884
 L 20.3131,-27.9464 L 20.0729,-28.2366 L 19.8711,-28.5547 L 19.7107,-28.8956 L 19.5942,-29.2539 L 19.5237,-29.624
 L 19.5,-30 L 19.5237,-30.376 L 19.5942,-30.7461 L 19.7107,-31.1044 L 19.8711,-31.4453 L 20.0729,-31.7634
 L 20.3131,-32.0536 L 20.5877,-32.3115 L 20.8925,-32.533 L 21.2227,-32.7145 L 21.5729,-32.8532 L 21.9379,-32.9469
 L 22.3116,-32.9941 L 22.6884,-32.9941 L 23.0621,-32.9469 L 23.427,-32.8532 L 23.7773,-32.7145 L 24.1075,-32.533
 L 24.4123,-32.3115 L 24.6869,-32.0536 L 24.927,-31.7634 L 25.1289,-31.4453 L 25.2893,-31.1044 L 25.4057,-30.7461
 L 25.4763,-30.376 L 25.5,-30 L 25.4763,-29.624 L 25.4057,-29.2539 L 25.2893,-28.8956 L 25.1289,-28.5547
 L 24.927,-28.2366 L 24.6869,-27.9464 L 24.4123,-27.6884 L 24.1075,-27.467 L 23.7773,-27.2855 L 23.427,-27.1468
 L 23.0621,-27.0531 L 22.6884,-27.0059 z
M -97.6884,-27.0059 L -98.0621,-27.0531 L -98.427,-27.1468 L -98.7773,-27.2855 L -99.1075,-27.467 L -99.4123,-27.6884
 L -99.6869,-27.9464 L -99.927,-28.2366 L -100.129,-28.5547 L -100.289,-28.8956 L -100.406,-29.2539 L -100.476,-29.624
 L -100.5,-30 L -100.476,-30.376 L -100.406,-30.7461 L -100.289,-31.1044 L -100.129,-31.4453 L -99.927,-31.7634
 L -99.6869,-32.0536 L -99.4123,-32.3115 L -99.1075,-32.533 L -98.7773,-32.7145 L -98.427,-32.8532 L -98.0621,-32.9469
 L -97.6884,-32.9941 L -97.3116,-32.9941 L -96.9379,-32.9469 L -96.573,-32.8532 L -96.2227,-32.7145 L -95.8925,-32.533
 L -95.5877,-32.3115 L -95.3131,-32.0536 L -95.073,-31.7634 L -94.8711,-31.4453 L -94.7107,-31.1044 L -94.5943,-30.7461
 L -94.5237,-30.376 L -94.5,-30 L -94.5237,-29.624 L -94.5943,-29.2539 L -94.7107,-28.8956 L -94.8711,-28.5547
 L -95.073,-28.2366 L -95.3131,-27.9464 L -95.5877,-27.6884 L -95.8925,-27.467 L -96.2227,-27.2855 L -96.573,-27.1468
 L -96.9379,-27.0531 L -97.3116,-27.0059 z
M 97.3116,-27.0059 L 96.9379,-27.0531 L 96.573,-27.1468 L 96.2227,-27.2855 L 95.8925,-27.467 L 95.5877,-27.6884
 L 95.3131,-27.9464 L 95.073,-28.2366 L 94.8711,-28.5547 L 94.7107,-28.8956 L 94.5943,-29.2539 L 94.5237,-29.624
 L 94.5,-30 L 94.5237,-30.376 L 94.5943,-30.7461 L 94.7107,-31.1044 L 94.8711,-31.4453 L 95.073,-31.7634
 L 95.3131,-32.0536 L 95.5877,-32.3115 L 95.8925,-32.533 L 96.2227,-32.7145 L 96.573,-32.8532 L 96.9379,-32.9469
 L 97.3116,-32.9941 L 97.6884,-32.9941 L 98.0621,-32.9469 L 98.427,-32.8532 L 98.7773,-32.7145 L 99.1075,-32.533
 L 99.4123,-32.3115 L 99.6869,-32.0536 L 99.927,-31.7634 L 100.129,-31.4453 L 100.289,-31.1044 L 100.406,-30.7461
 L 100.476,-30.376 L 100.5,-30 L 100.476,-29.624 L 100.406,-29.2539 L 100.289,-28.8956 L 100.129,-28.5547
 L 99.927,-28.2366 L 99.6869,-27.9464 L 99.4123,-27.6884 L 99.1075,-27.467 L 98.7773,-27.2855 L 98.427,-27.1468
 L 98.0621,-27.0531 L 97.6884,-27.0059 z
M 82.3116,-27.0059 L 81.9379,-27.0531 L 81.573,-27.1468 L 81.2227,-27.2855 L 80.8925,-27.467 L 80.5877,-27.6884
 L 80.3131,-27.9464 L 80.073,-28.2366 L 79.8711,-28.5547 L 79.7107,-28.8956 L 79.5943,-29.2539 L 79.5237,-29.624
 L 79.5,-30 L 79.5237,-30.376 L 79.5943,-30.7461 L 79.7107,-31.1044 L 79.8711,-31.4453 L 80.073,-31.7634
 L 80.3131,-32.0536 L 80.5877,-32.3115 L 80.8925,-32.533 L 81.2227,-32.7145 L 81.573,-32.8532 L 81.9379,-32.9469
 L 82.3116,-32.9941 L 82.6884,-32.9941 L 83.0621,-32.9469 L 83.427,-32.8532 L 83.7773,-32.7145 L 84.1075,-32.533
 L 84.4123,-32.3115 L 84.6869,-32.0536 L 84.927,-31.7634 L 85.1289,-31.4453 L 85.2893,-31.1044 L 85.4057,-30.7461
 L 85.4763,-30.376 L 85.5,-30 L 85.4763,-29.624 L 85.4057,-29.2539 L 85.2893,-28.8956 L 85.1289,-28.5547
 L 84.927,-28.2366 L 84.6869,-27.9464 L 84.4123,-27.6884 L 84.1075,-27.467 L 83.7773,-27.2855 L 83.427,-27.1468
 L 83.0621,-27.0531 L 82.6884,-27.0059 z
M -52.6884,-27.0059 L -53.0621,-27.0531 L -53.427,-27.1468 L -53.7773,-27.2855 L -54.1075,-27.467 L -54.4123,-27.6884
 L -54.6869,-27.9464 L -54.927,-28.2366 L -55.1289,-28.5547 L -55.2893,-28.8956 L -55.4057,-29.2539 L -55.4763,-29.624
 L -55.5,-30 L -55.4763,-30.376 L -55.4057,-30.7461 L -55.2893,-31.1044 L -55.1289,-31.4453 L -54.927,-31.7634
 L -54.6869,-32.0536 L -54.4123,-32.3115 L -54.1075,-32.533 L -53.7773,-32.7145 L -53.427,-32.8532 L -53.0621,-32.9469
 L -52.6884,-32.9941 L -52.3116,-32.9941 L -51.9379,-32.9469 L -51.5729,-32.8532 L -51.2227,-32.7145 L -50.8925,-32.533
 L -50.5877,-32.3115 L -50.3131,-32.0536 L -50.0729,-31.7634 L -49.8711,-31.4453 L -49.7107,-31.1044 L -49.5942,-30.7461
 L -49.5237,-30.376 L -49.5,-30 L -49.5237,-29.624 L -49.5942,-29.2539 L -49.7107,-28.8956 L -49.8711,-28.5547
 L -50.0729,-28.2366 L -50.3131,-27.9464 L -50.5877,-27.6884 L -50.8925,-27.467 L -51.2227,-27.2855 L -51.5729,-27.1468
 L -51.9379,-27.0531 L -52.3116,-27.0059 z
M 7.31161,-27.0059 L 6.93785,-27.0531 L 6.57294,-27.1468 L 6.22266,-27.2855 L 5.89252,-27.467 L 5.58772,-27.6884
 L 5.31308,-27.9464 L 5.07294,-28.2366 L 4.87108,-28.5547 L 4.71066,-28.8956 L 4.59424,-29.2539 L 4.52365,-29.624
 L 4.5,-30 L 4.52365,-30.376 L 4.59424,-30.7461 L 4.71066,-31.1044 L 4.87108,-31.4453 L 5.07294,-31.7634
 L 5.31308,-32.0536 L 5.58772,-32.3115 L 5.89252,-32.533 L 6.22266,-32.7145 L 6.57294,-32.8532 L 6.93785,-32.9469
 L 7.31161,-32.9941 L 7.68837,-32.9941 L 8.06213,-32.9469 L 8.42705,-32.8532 L 8.77733,-32.7145 L 9.10747,-32.533
 L 9.41226,-32.3115 L 9.6869,-32.0536 L 9.92705,-31.7634 L 10.1289,-31.4453 L 10.2893,-31.1044 L 10.4057,-30.7461
 L 10.4763,-30.376 L 10.5,-30 L 10.4763,-29.624 L 10.4057,-29.2539 L 10.2893,-28.8956 L 10.1289,-28.5547
 L 9.92705,-28.2366 L 9.6869,-27.9464 L 9.41226,-27.6884 L 9.10747,-27.467 L 8.77733,-27.2855 L 8.42705,-27.1468
 L 8.06213,-27.0531 L 7.68837,-27.0059 z
M -37.6884,-27.0059 L -38.0621,-27.0531 L -38.427,-27.1468 L -38.7773,-27.2855 L -39.1075,-27.467 L -39.4123,-27.6884
 L -39.6869,-27.9464 L -39.927,-28.2366 L -40.1289,-28.5547 L -40.2893,-28.8956 L -40.4057,-29.2539 L -40.4763,-29.624
 L -40.5,-30 L -40.4763,-30.376 L -40.4057,-30.7461 L -40.2893,-31.1044 L -40.1289,-31.4453 L -39.927,-31.7634
 L -39.6869,-32.0536 L -39.4123,-32.3115 L -39.1075,-32.533 L -38.7773,-32.7145 L -38.427,-32.8532 L -38.0621,-32.9469
 L -37.6884,-32.9941 L -37.3116,-32.9941 L -36.9379,-32.9469 L -36.5729,-32.8532 L -36.2227,-32.7145 L -35.8925,-32.533
 L -35.5877,-32.3115 L -35.3131,-32.0536 L -35.0729,-31.7634 L -34.8711,-31.4453 L -34.7107,-31.1044 L -34.5942,-30.7461
 L -34.5237,-30.376 L -34.5,-30 L -34.5237,-29.624 L -34.5942,-29.2539 L -34.7107,-28.8956 L -34.8711,-28.5547
 L -35.0729,-28.2366 L -35.3131,-27.9464 L -35.5877,-27.6884 L -35.8925,-27.467 L -36.2227,-27.2855 L -36.5729,-27.1468
 L -36.9379,-27.0531 L -37.3116,-27.0059 z
M -67.6884,-27.0059 L -68.0621,-27.0531 L -68.427,-27.1468 L -68.7773,-27.2855 L -69.1075,-27.467 L -69.4123,-27.6884
 L -69.6869,-27.9464 L -69.927,-28.2366 L -70.1289,-28.5547 L -70.2893,-28.8956 L -70.4057,-29.2539 L -70.4763,-29.624
 L -70.5,-30 L -70.4763,-30.376 L -70.4057,-30.7461 L -70.2893,-31.1044 L -70.1289,-31.4453 L -69.927,-31.7634
 L -69.6869,-32.0536 L -69.4123,-32.3115 L -69.1075,-32.533 L -68.7773,-32.7145 L -68.427,-32.8532 L -68.0621,-32.9469
 L -67.6884,-32.9941 L -67.3116,-32.9941 L -66.9379,-32.9469 L -66.573,-32.8532 L -66.2227,-32.7145 L -65.8925,-32.533
 L -65.5877,-32.3115 L -65.3131,-32.0536 L -65.073,-31.7634 L -64.8711,-31.4453 L -64.7107,-31.1044 L -64.5943,-30.7461
 L -64.5237,-30.376 L -64.5,-30 L -64.5237,-29.624 L -64.5943,-29.2539 L -64.7107,-28.8956 L -64.8711,-28.5547
 L -65.073,-28.2366 L -65.3131,-27.9464 L -65.5877,-27.6884 L -65.8925,-27.467 L -66.2227,-27.2855 L -66.573,-27.1468
 L -66.9379,-27.0531 L -67.3116,-27.0059 z
M 67.3116,-27.0059 L 66.9379,-27.0531 L 66.573,-27.1468 L 66.2227,-27.2855 L 65.8925,-27.467 L 65.5877,-27.6884
 L 65.3131,-27.9464 L 65.073,-28.2366 L 64.8711,-28.5547 L 64.7107,-28.8956 L 64.5943,-29.2539 L 64.5237,-29.624
 L 64.5,-30 L 64.5237,-30.376 L 64.5943,-30.7461 L 64.7107,-31.1044 L 64.8711,-31.4453 L 65.073,-31.7634
 L 65.3131,-32.0536 L 65.5877,-32.3115 L 65.8925,-32.533 L 66.2227,-32.7145 L 66.573,-32.8532 L 66.9379,-32.9469
 L 67.3116,-32.9941 L 67.6884,-32.9941 L 68.0621,-32.9469 L 68.427,-32.8532 L 68.7773,-32.7145 L 69.1075,-32.533
 L 69.4123,-32.3115 L 69.6869,-32.0536 L 69.927,-31.7634 L 70.1289,-31.4453 L 70.2893,-31.1044 L 70.4057,-30.7461
 L 70.4763,-30.376 L 70.5,-30 L 70.4763,-29.624 L 70.4057,-29.2539 L 70.2893,-28.8956 L 70.1289,-28.5547
 L 69.927,-28.2366 L 69.6869,-27.9464 L 69.4123,-27.6884 L 69.1075,-27.467 L 68.7773,-27.2855 L 68.427,-27.1468
 L 68.0621,-27.0531 L 67.6884,-27.0059 z
M 52.3116,-27.0059 L 51.9379,-27.0531 L 51.5729,-27.1468 L 51.2227,-27.2855 L 50.8925,-27.467 L 50.5877,-27.6884
 L 50.3131,-27.9464 L 50.0729,-28.2366 L 49.8711,-28.5547 L 49.7107,-28.8956 L 49.5942,-29.2539 L 49.5237,-29.624
 L 49.5,-30 L 49.5237,-30.376 L 49.5942,-30.7461 L 49.7107,-31.1044 L 49.8711,-31.4453 L 50.0729,-31.7634
 L 50.3131,-32.0536 L 50.5877,-32.3115 L 50.8925,-32.533 L 51.2227,-32.7145 L 51.5729,-32.8532 L 51.9379,-32.9469
 L 52.3116,-32.9941 L 52.6884,-32.9941 L 53.0621,-32.9469 L 53.427,-32.8532 L 53.7773,-32.7145 L 54.1075,-32.533
 L 54.4123,-32.3115 L 54.6869,-32.0536 L 54.927,-31.7634 L 55.1289,-31.4453 L 55.2893,-31.1044 L 55.4057,-30.7461
 L 55.4763,-30.376 L 55.5,-30 L 55.4763,-29.624 L 55.4057,-29.2539 L 55.2893,-28.8956 L 55.1289,-28.5547
 L 54.927,-28.2366 L 54.6869,-27.9464 L 54.4123,-27.6884 L 54.1075,-27.467 L 53.7773,-27.2855 L 53.427,-27.1468
 L 53.0621,-27.0531 L 52.6884,-27.0059 z
M -7.68837,-27.0059 L -8.06213,-27.0531 L -8.42705,-27.1468 L -8.77733,-27.2855 L -9.10747,-27.467 L -9.41226,-27.6884
 L -9.6869,-27.9464 L -9.92705,-28.2366 L -10.1289,-28.5547 L -10.2893,-28.8956 L -10.4057,-29.2539 L -10.4763,-29.624
 L -10.5,-30 L -10.4763,-30.376 L -10.4057,-30.7461 L -10.2893,-31.1044 L -10.1289,-31.4453 L -9.92705,-31.7634
 L -9.6869,-32.0536 L -9.41226,-32.3115 L -9.10747,-32.533 L -8.77733,-32.7145 L -8.42705,-32.8532 L -8.06213,-32.9469
 L -7.68837,-32.9941 L -7.31161,-32.9941 L -6.93785,-32.9469 L -6.57294,-32.8532 L -6.22266,-32.7145 L -5.89252,-32.533
 L -5.58772,-32.3115 L -5.31308,-32.0536 L -5.07294,-31.7634 L -4.87108,-31.4453 L -4.71066,-31.1044 L -4.59424,-30.7461
 L -4.52365,-30.376 L -4.5,-30 L -4.52365,-29.624 L -4.59424,-29.2539 L -4.71066,-28.8956 L -4.87108,-28.5547
 L -5.07294,-28.2366 L -5.31308,-27.9464 L -5.58772,-27.6884 L -5.89252,-27.467 L -6.22266,-27.2855 L -6.57294,-27.1468
 L -6.93785,-27.0531 L -7.31161,-27.0059 z
M -22.6884,-27.0059 L -23.0621,-27.0531 L -23.427,-27.1468 L -23.7773,-27.2855 L -24.1075,-27.467 L -24.4123,-27.6884
 L -24.6869,-27.9464 L -24.927,-28.2366 L -25.1289,-28.5547 L -25.2893,-28.8956 L -25.4057,-29.2539 L -25.4763,-29.624
 L -25.5,-30 L -25.4763,-30.376 L -25.4057,-30.7461 L -25.2893,-31.1044 L -25.1289,-31.4453 L -24.927,-31.7634
 L -24.6869,-32.0536 L -24.4123,-32.3115 L -24.1075,-32.533 L -23.7773,-32.7145 L -23.427,-32.8532 L -23.0621,-32.9469
 L -22.6884,-32.9941 L -22.3116,-32.9941 L -21.9379,-32.9469 L -21.5729,-32.8532 L -21.2227,-32.7145 L -20.8925,-32.533
 L -20.5877,-32.3115 L -20.3131,-32.0536 L -20.0729,-31.7634 L -19.8711,-31.4453 L -19.7107,-31.1044 L -19.5942,-30.7461
 L -19.5237,-30.376 L -19.5,-30 L -19.5237,-29.624 L -19.5942,-29.2539 L -19.7107,-28.8956 L -19.8711,-28.5547
 L -20.0729,-28.2366 L -20.3131,-27.9464 L -20.5877,-27.6884 L -20.8925,-27.467 L -21.2227,-27.2855 L -21.5729,-27.1468
 L -21.9379,-27.0531 L -22.3116,-27.0059 z
M 97.3116,-12.0059 L 96.9379,-12.0531 L 96.573,-12.1468 L 96.2227,-12.2855 L 95.8925,-12.467 L 95.5877,-12.6884
 L 95.3131,-12.9464 L 95.073,-13.2366 L 94.8711,-13.5547 L 94.7107,-13.8956 L 94.5943,-14.2539 L 94.5237,-14.624
 L 94.5,-15 L 94.5237,-15.376 L 94.5943,-15.7461 L 94.7107,-16.1044 L 94.8711,-16.4453 L 95.073,-16.7634
 L 95.3131,-17.0536 L 95.5877,-17.3115 L 95.8925,-17.533 L 96.2227,-17.7145 L 96.573,-17.8532 L 96.9379,-17.9469
 L 97.3116,-17.9941 L 97.6884,-17.9941 L 98.0621,-17.9469 L 98.427,-17.8532 L 98.7773,-17.7145 L 99.1075,-17.533
 L 99.4123,-17.3115 L 99.6869,-17.0536 L 99.927,-16.7634 L 100.129,-16.4453 L 100.289,-16.1044 L 100.406,-15.7461
 L 100.476,-15.376 L 100.5,-15 L 100.476,-14.624 L 100.406,-14.2539 L 100.289,-13.8956 L 100.129,-13.5547
 L 99.927,-13.2366 L 99.6869,-12.9464 L 99.4123,-12.6884 L 99.1075,-12.467 L 98.7773,-12.2855 L 98.427,-12.1468
 L 98.0621,-12.0531 L 97.6884,-12.0059 z
M 52.3116,-12.0059 L 51.9379,-12.0531 L 51.5729,-12.1468 L 51.2227,-12.2855 L 50.8925,-12.467 L 50.5877,-12.6884
 L 50.3131,-12.9464 L 50.0729,-13.2366 L 49.8711,-13.5547 L 49.7107,-13.8956 L 49.5942,-14.2539 L 49.5237,-14.624
 L 49.5,-15 L 49.5237,-15.376 L 49.5942,-15.7461 L 49.7107,-16.1044 L 49.8711,-16.4453 L 50.0729,-16.7634
 L 50.3131,-17.0536 L 50.5877,-17.3115 L 50.8925,-17.533 L 51.2227,-17.7145 L 51.5729,-17.8532 L 51.9379,-17.9469
 L 52.3116,-17.9941 L 52.6884,-17.9941 L 53.0621,-17.9469 L 53.427,-17.8532 L 53.7773,-17.7145 L 54.1075,-17.533
 L 54.4123,-17.3115 L 54.6869,-17.0536 L 54.927,-16.7634 L 55.1289,-16.4453 L 55.2893,-16.1044 L 55.4057,-15.7461
 L 55.4763,-15.376 L 55.5,-15 L 55.4763,-14.624 L 55.4057,-14.2539 L 55.2893,-13.8956 L 55.1289,-13.5547
 L 54.927,-13.2366 L 54.6869,-12.9464 L 54.4123,-12.6884 L 54.1075,-12.467 L 53.7773,-12.2855 L 53.427,-12.1468
 L 53.0621,-12.0531 L 52.6884,-12.0059 z
M -7.68837,-12.0059 L -8.06213,-12.0531 L -8.42705,-12.1468 L -8.77733,-12.2855 L -9.10747,-12.467 L -9.41226,-12.6884
 L -9.6869,-12.9464 L -9.92705,-13.2366 L -10.1289,-13.5547 L -10.2893,-13.8956 L -10.4057,-14.2539 L -10.4763,-14.624
 L -10.5,-15 L -10.4763,-15.376 L -10.4057,-15.7461 L -10.2893,-16.1044 L -10.1289,-16.4453 L -9.92705,-16.7634
 L -9.6869,-17.0536 L -9.41226,-17.3115 L -9.10747,-17.533 L -8.77733,-17.7145 L -8.42705,-17.8532 L -8.06213,-17.9469
 L -7.68837,-17.9941 L -7.31161,-17.9941 L -6.93785,-17.9469 L -6.57294,-17.8532 L -6.22266,-17.7145 L -5.89252,-17.533
 L -5.58772,-17.3115 L -5.31308,-17.0536 L -5.07294,-16.7634 L -4.87108,-16.4453 L -4.71066,-16.1044 L -4.59424,-15.7461
 L -4.52365,-15.376 L -4.5,-15 L -4.52365,-14.624 L -4.59424,-14.2539 L -4.71066,-13.8956 L -4.87108,-13.5547
 L -5.07294,-13.2366 L -5.31308,-12.9464 L -5.58772,-12.6884 L -5.89252,-12.467 L -6.22266,-12.2855 L -6.57294,-12.1468
 L -6.93785,-12.0531 L -7.31161,-12.0059 z
M -82.6884,-12.0059 L -83.0621,-12.0531 L -83.427,-12.1468 L -83.7773,-12.2855 L -84.1075,-12.467 L -84.4123,-12.6884
 L -84.6869,-12.9464 L -84.927,-13.2366 L -85.1289,-13.5547 L -85.2893,-13.8956 L -85.4057,-14.2539 L -85.4763,-14.624
 L -85.5,-15 L -85.4763,-15.376 L -85.4057,-15.7461 L -85.2893,-16.1044 L -85.1289,-16.4453 L -84.927,-16.7634
 L -84.6869,-17.0536 L -84.4123,-17.3115 L -84.1075,-17.533 L -83.7773,-17.7145 L -83.427,-17.8532 L -83.0621,-17.9469
 L -82.6884,-17.9941 L -82.3116,-17.9941 L -81.9379,-17.9469 L -81.573,-17.8532 L -81.2227,-17.7145 L -80.8925,-17.533
 L -80.5877,-17.3115 L -80.3131,-17.0536 L -80.073,-16.7634 L -79.8711,-16.4453 L -79.7107,-16.1044 L -79.5943,-15.7461
 L -79.5237,-15.376 L -79.5,-15 L -79.5237,-14.624 L -79.5943,-14.2539 L -79.7107,-13.8956 L -79.8711,-13.5547
 L -80.073,-13.2366 L -80.3131,-12.9464 L -80.5877,-12.6884 L -80.8925,-12.467 L -81.2227,-12.2855 L -81.573,-12.1468
 L -81.9379,-12.0531 L -82.3116,-12.0059 z
M -52.6884,-12.0059 L -53.0621,-12.0531 L -53.427,-12.1468 L -53.7773,-12.2855 L -54.1075,-12.467 L -54.4123,-12.6884
 L -54.6869,-12.9464 L -54.927,-13.2366 L -55.1289,-13.5547 L -55.2893,-13.8956 L -55.4057,-14.2539 L -55.4763,-14.624
 L -55.5,-15 L -55.4763,-15.376 L -55.4057,-15.7461 L -55.2893,-16.1044 L -55.1289,-16.4453 L -54.927,-16.7634
 L -54.6869,-17.0536 L -54.4123,-17.3115 L -54.1075,-17.533 L -53.7773,-17.7145 L -53.427,-17.8532 L -53.0621,-17.9469
 L -52.6884,-17.9941 L -52.3116,-17.9941 L -51.9379,-17.9469 L -51.5729,-17.8532 L -51.2227,-17.7145 L -50.8925,-17.533
 L -50.5877,-17.3115 L -50.3131,-17.0536 L -50.0729,-16.7634 L -49.8711,-16.4453 L -49.7107,-16.1044 L -49.5942,-15.7461
 L -49.5237,-15.376 L -49.5,-15 L -49.5237,-14.624 L -49.5942,-14.2539 L -49.7107,-13.8956 L -49.8711,-13.5547
 L -50.0729,-13.2366 L -50.3131,-12.9464 L -50.5877,-12.6884 L -50.8925,-12.467 L -51.2227,-12.2855 L -51.5729,-12.1468
 L -51.9379,-12.0531 L -52.3116,-12.0059 z
M 22.3116,-12.0059 L 21.9379,-12.0531 L 21.5729,-12.1468 L 21.2227,-12.2855 L 20.8925,-12.467 L 20.5877,-12.6884
 L 20.3131,-12.9464 L 20.0729,-13.2366 L 19.8711,-13.5547 L 19.7107,-13.8956 L 19.5942,-14.2539 L 19.5237,-14.624
 L 19.5,-15 L 19.5237,-15.376 L 19.5942,-15.7461 L 19.7107,-16.1044 L 19.8711,-16.4453 L 20.0729,-16.7634
 L 20.3131,-17.0536 L 20.5877,-17.3115 L 20.8925,-17.533 L 21.2227,-17.7145 L 21.5729,-17.8532 L 21.9379,-17.9469
 L 22.3116,-17.9941 L 22.6884,-17.9941 L 23.0621,-17.9469 L 23.427,-17.8532 L 23.7773,-17.7145 L 24.1075,-17.533
 L 24.4123,-17.3115 L 24.6869,-17.0536 L 24.927,-16.7634 L 25.1289,-16.4453 L 25.2893,-16.1044 L 25.4057,-15.7461
 L 25.4763,-15.376 L 25.5,-15 L 25.4763,-14.624 L 25.4057,-14.2539 L 25.2893,-13.8956 L 25.1289,-13.5547
 L 24.927,-13.2366 L 24.6869,-12.9464 L 24.4123,-12.6884 L 24.1075,-12.467 L 23.7773,-12.2855 L 23.427,-12.1468
 L 23.0621,-12.0531 L 22.6884,-12.0059 z
M 67.3116,-12.0059 L 66.9379,-12.0531 L 66.573,-12.1468 L 66.2227,-12.2855 L 65.8925,-12.467 L 65.5877,-12.6884
 L 65.3131,-12.9464 L 65.073,-13.2366 L 64.8711,-13.5547 L 64.7107,-13.8956 L 64.5943,-14.2539 L 64.5237,-14.624
 L 64.5,-15 L 64.5237,-15.376 L 64.5943,-15.7461 L 64.7107,-16.1044 L 64.8711,-16.4453 L 65.073,-16.7634
 L 65.3131,-17.0536 L 65.5877,-17.3115 L 65.8925,-17.533 L 66.2227,-17.7145 L 66.573,-17.8532 L 66.9379,-17.9469
 L 67.3116,-17.9941 L 67.6884,-17.9941 L 68.0621,-17.9469 L 68.427,-17.8532 L 68.7773,-17.7145 L 69.1075,-17.533
 L 69.4123,-17.3115 L 69.6869,-17.0536 L 69.927,-16.7634 L 70.1289,-16.4453 L 70.2893,-16.1044 L 70.4057,-15.7461
 L 70.4763,-15.376 L 70.5,-15 L 70.4763,-14.624 L 70.4057,-14.2539 L 70.2893,-13.8956 L 70.1289,-13.5547
 L 69.927,-13.2366 L 69.6869,-12.9464 L 69.4123,-12.6884 L 69.1075,-12.467 L 68.7773,-12.2855 L 68.427,-12.1468
 L 68.0621,-12.0531 L 67.6884,-12.0059 z
M 37.3116,-12.0059 L 36.9379,-12.0531 L 36.5729,-12.1468 L 36.2227,-12.2855 L 35.8925,-12.467 L 35.5877,-12.6884
 L 35.3131,-12.9464 L 35.0729,-13.2366 L 34.8711,-13.5547 L 34.7107,-13.8956 L 34.5942,-14.2539 L 34.5237,-14.624
 L 34.5,-15 L 34.5237,-15.376 L 34.5942,-15.7461 L 34.7107,-16.1044 L 34.8711,-16.4453 L 35.0729,-16.7634
 L 35.3131,-17.0536 L 35.5877,-17.3115 L 35.8925,-17.533 L 36.2227,-17.7145 L 36.5729,-17.8532 L 36.9379,-17.9469
 L 37.3116,-17.9941 L 37.6884,-17.9941 L 38.0621,-17.9469 L 38.427,-17.8532 L 38.7773,-17.7145 L 39.1075,-17.533
 L 39.4123,-17.3115 L 39.6869,-17.0536 L 39.927,-16.7634 L 40.1289,-16.4453 L 40.2893,-16.1044 L 40.4057,-15.7461
 L 40.4763,-15.376 L 40.5,-15 L 40.4763,-14.624 L 40.4057,-14.2539 L 40.2893,-13.8956 L 40.1289,-13.5547
 L 39.927,-13.2366 L 39.6869,-12.9464 L 39.4123,-12.6884 L 39.1075,-12.467 L 38.7773,-12.2855 L 38.427,-12.1468
 L 38.0621,-12.0531 L 37.6884,-12.0059 z
M -67.6884,-12.0059 L -68.0621,-12.0531 L -68.427,-12.1468 L -68.7773,-12.2855 L -69.1075,-12.467 L -69.4123,-12.6884
 L -69.6869,-12.9464 L -69.927,-13.2366 L -70.1289,-13.5547 L -70.2893,-13.8956 L -70.4057,-14.2539 L -70.4763,-14.624
 L -70.5,-15 L -70.4763,-15.376 L -70.4057,-15.7461 L -70.2893,-16.1044 L -70.1289,-16.4453 L -69.927,-16.7634
 L -69.6869,-17.0536 L -69.4123,-17.3115 L -69.1075,-17.533 L -68.7773,-17.7145 L -68.427,-17.8532 L -68.0621,-17.9469
 L -67.6884,-17.9941 L -67.3116,-17.9941 L -66.9379,-17.9469 L -66.573,-17.8532 L -66.2227,-17.7145 L -65.8925,-17.533
 L -65.5877,-17.3115 L -65.3131,-17.0536 L -65.073,-16.7634 L -64.8711,-16.4453 L -64.7107,-16.1044 L -64.5943,-15.7461
 L -64.5237,-15.376 L -64.5,-15 L -64.5237,-14.624 L -64.5943,-14.2539 L -64.7107,-13.8956 L -64.8711,-13.5547
 L -65.073,-13.2366 L -65.3131,-12.9464 L -65.5877,-12.6884 L -65.8925,-12.467 L -66.2227,-12.2855 L -66.573,-12.1468
 L -66.9379,-12.0531 L -67.3116,-12.0059 z
M -97.6884,-12.0059 L -98.0621,-12.0531 L -98.427,-12.1468 L -98.7773,-12.2855 L -99.1075,-12.467 L -99.4123,-12.6884
 L -99.6869,-12.9464 L -99.927,-13.2366 L -100.129,-13.5547 L -100.289,-13.8956 L -100.406,-14.2539 L -100.476,-14.624
 L -100.5,-15 L -100.476,-15.376 L -100.406,-15.7461 L -100.289,-16.1044 L -100.129,-16.4453 L -99.927,-16.7634
 L -99.6869,-17.0536 L -99.4123,-17.3115 L -99.1075,-17.533 L -98.7773,-17.7145 L -98.427,-17.8532 L -98.0621,-17.9469
 L -97.6884,-17.9941 L -97.3116,-17.9941 L -96.9379,-17.9469 L -96.573,-17.8532 L -96.2227,-17.7145 L -95.8925,-17.533
 L -95.5877,-17.3115 L -95.3131,-17.0536 L -95.073,-16.7634 L -94.8711,-16.4453 L -94.7107,-16.1044 L -94.5943,-15.7461
 L -94.5237,-15.376 L -94.5,-15 L -94.5237,-14.624 L -94.5943,-14.2539 L -94.7107,-13.8956 L -94.8711,-13.5547
 L -95.073,-13.2366 L -95.3131,-12.9464 L -95.5877,-12.6884 L -95.8925,-12.467 L -96.2227,-12.2855 L -96.573,-12.1468
 L -96.9379,-12.0531 L -97.3116,-12.0059 z
M -22.6884,-12.0059 L -23.0621,-12.0531 L -23.427,-12.1468 L -23.7773,-12.2855 L -24.1075,-12.467 L -24.4123,-12.6884
 L -24.6869,-12.9464 L -24.927,-13.2366 L -25.1289,-13.5547 L -25.2893,-13.8956 L -25.4057,-14.2539 L -25.4763,-14.624
 L -25.5,-15 L -25.4763,-15.376 L -25.4057,-15.7461 L -25.2893,-16.1044 L -25.1289,-16.4453 L -24.927,-16.7634
 L -24.6869,-17.0536 L -24.4123,-17.3115 L -24.1075,-17.533 L -23.7773,-17.7145 L -23.427,-17.8532 L -23.0621,-17.9469
 L -22.6884,-17.9941 L -22.3116,-17.9941 L -21.9379,-17.9469 L -21.5729,-17.8532 L -21.2227,-17.7145 L -20.8925,-17.533
 L -20.5877,-17.3115 L -20.3131,-17.0536 L -20.0729,-16.7634 L -19.8711,-16.4453 L -19.7107,-16.1044 L -19.5942,-15.7461
 L -19.5237,-15.376 L -19.5,-15 L -19.5237,-14.624 L -19.5942,-14.2539 L -19.7107,-13.8956 L -19.8711,-13.5547
 L -20.0729,-13.2366 L -20.3131,-12.9464 L -20.5877,-12.6884 L -20.8925,-12.467 L -21.2227,-12.2855 L -21.5729,-12.1468
 L -21.9379,-12.0531 L -22.3116,-12.0059 z
M -37.6884,-12.0059 L -38.0621,-12.0531 L -38.427,-12.1468 L -38.7773,-12.2855 L -39.1075,-12.467 L -39.4123,-12.6884
 L -39.6869,-12.9464 L -39.927,-13.2366 L -40.1289,-13.5547 L -40.2893,-13.8956 L -40.4057,-14.2539 L -40.4763,-14.624
 L -40.5,-15 L -40.4763,-15.376 L -40.4057,-15.7461 L -40.2893,-16.1044 L -40.1289,-16.4453 L -39.927,-16.7634
 L -39.6869,-17.0536 L -39.4123,-17.3115 L -39.1075,-17.533 L -38.7773,-17.7145 L -38.427,-17.8532 L -38.0621,-17.9469
 L -37.6884,-17.9941 L -37.3116,-17.9941 L -36.9379,-17.9469 L -36.5729,-17.8532 L -36.2227,-17.7145 L -35.8925,-17.533
 L -35.5877,-17.3115 L -35.3131,-17.0536 L -35.0729,-16.7634 L -34.8711,-16.4453 L -34.7107,-16.1044 L -34.5942,-15.7461
 L -34.5237,-15.376 L -34.5,-15 L -34.5237,-14.624 L -34.5942,-14.2539 L -34.7107,-13.8956 L -34.8711,-13.5547
 L -35.0729,-13.2366 L -35.3131,-12.9464 L -35.5877,-12.6884 L -35.8925,-12.467 L -36.2227,-12.2855 L -36.5729,-12.1468
 L -36.9379,-12.0531 L -37.3116,-12.0059 z
M 7.31161,-12.0059 L 6.93785,-12.0531 L 6.57294,-12.1468 L 6.22266,-12.2855 L 5.89252,-12.467 L 5.58772,-12.6884
 L 5.31308,-12.9464 L 5.07294,-13.2366 L 4.87108,-13.5547 L 4.71066,-13.8956 L 4.59424,-14.2539 L 4.52365,-14.624
 L 4.5,-15 L 4.52365,-15.376 L 4.59424,-15.7461 L 4.71066,-16.1044 L 4.87108,-16.4453 L 5.07294,-16.7634
 L 5.31308,-17.0536 L 5.58772,-17.3115 L 5.89252,-17.533 L 6.22266,-17.7145 L 6.57294,-17.8532 L 6.93785,-17.9469
 L 7.31161,-17.9941 L 7.68837,-17.9941 L 8.06213,-17.9469 L 8.42705,-17.8532 L 8.77733,-17.7145 L 9.10747,-17.533
 L 9.41226,-17.3115 L 9.6869,-17.0536 L 9.92705,-16.7634 L 10.1289,-16.4453 L 10.2893,-16.1044 L 10.4057,-15.7461
 L 10.4763,-15.376 L 10.5,-15 L 10.4763,-14.624 L 10.4057,-14.2539 L 10.2893,-13.8956 L 10.1289,-13.5547
 L 9.92705,-13.2366 L 9.6869,-12.9464 L 9.41226,-12.6884 L 9.10747,-12.467 L 8.77733,-12.2855 L 8.42705,-12.1468
 L 8.06213,-12.0531 L 7.68837,-12.0059 z
M 82.3116,-12.0059 L 81.9379,-12.0531 L 81.573,-12.1468 L 81.2227,-12.2855 L 80.8925,-12.467 L 80.5877,-12.6884
 L 80.3131,-12.9464 L 80.073,-13.2366 L 79.8711,-13.5547 L 79.7107,-13.8956 L 79.5943,-14.2539 L 79.5237,-14.624
 L 79.5,-15 L 79.5237,-15.376 L 79.5943,-15.7461 L 79.7107,-16.1044 L 79.8711,-16.4453 L 80.073,-16.7634
 L 80.3131,-17.0536 L 80.5877,-17.3115 L 80.8925,-17.533 L 81.2227,-17.7145 L 81.573,-17.8532 L 81.9379,-17.9469
 L 82.3116,-17.9941 L 82.6884,-17.9941 L 83.0621,-17.9469 L 83.427,-17.8532 L 83.7773,-17.7145 L 84.1075,-17.533
 L 84.4123,-17.3115 L 84.6869,-17.0536 L 84.927,-16.7634 L 85.1289,-16.4453 L 85.2893,-16.1044 L 85.4057,-15.7461
 L 85.4763,-15.376 L 85.5,-15 L 85.4763,-14.624 L 85.4057,-14.2539 L 85.2893,-13.8956 L 85.1289,-13.5547
 L 84.927,-13.2366 L 84.6869,-12.9464 L 84.4123,-12.6884 L 84.1075,-12.467 L 83.7773,-12.2855 L 83.427,-12.1468
 L 83.0621,-12.0531 L 82.6884,-12.0059 z
M 97.3116,2.99408 L 96.9379,2.94685 L 96.573,2.85316 L 96.2227,2.71448 L 95.8925,2.53297 L 95.5877,2.31154
 L 95.3131,2.05363 L 95.073,1.76335 L 94.8711,1.44525 L 94.7107,1.10437 L 94.5943,0.746063 L 94.5237,0.375992
 L 94.5,-0 L 94.5237,-0.375992 L 94.5943,-0.746063 L 94.7107,-1.10437 L 94.8711,-1.44525 L 95.073,-1.76335
 L 95.3131,-2.05363 L 95.5877,-2.31154 L 95.8925,-2.53297 L 96.2227,-2.71448 L 96.573,-2.85316 L 96.9379,-2.94685
 L 97.3116,-2.99408 L 97.6884,-2.99408 L 98.0621,-2.94685 L 98.427,-2.85316 L 98.7773,-2.71448 L 99.1075,-2.53297
 L 99.4123,-2.31154 L 99.6869,-2.05363 L 99.927,-1.76335 L 100.129,-1.44525 L 100.289,-1.10437 L 100.406,-0.746063
 L 100.476,-0.375992 L 100.5,-0 L 100.476,0.375992 L 100.406,0.746063 L 100.289,1.10437 L 100.129,1.44525
 L 99.927,1.76335 L 99.6869,2.05363 L 99.4123,2.31154 L 99.1075,2.53297 L 98.7773,2.71448 L 98.427,2.85316
 L 98.0621,2.94685 L 97.6884,2.99408 z
M -52.6884,2.99408 L -53.0621,2.94685 L -53.427,2.85316 L -53.7773,2.71448 L -54.1075,2.53297 L -54.4123,2.31154
 L -54.6869,2.05363 L -54.927,1.76335 L -55.1289,1.44525 L -55.2893,1.10437 L -55.4057,0.746063 L -55.4763,0.375992
 L -55.5,-0 L -55.4763,-0.375992 L -55.4057,-0.746063 L -55.2893,-1.10437 L -55.1289,-1.44525 L -54.927,-1.76335
 L -54.6869,-2.05363 L -54.4123,-2.31154 L -54.1075,-2.53297 L -53.7773,-2.71448 L -53.427,-2.85316 L -53.0621,-2.94685
 L -52.6884,-2.99408 L -52.3116,-2.99408 L -51.9379,-2.94685 L -51.5729,-2.85316 L -51.2227,-2.71448 L -50.8925,-2.53297
 L -50.5877,-2.31154 L -50.3131,-2.05363 L -50.0729,-1.76335 L -49.8711,-1.44525 L -49.7107,-1.10437 L -49.5942,-0.746063
 L -49.5237,-0.375992 L -49.5,-0 L -49.5237,0.375992 L -49.5942,0.746063 L -49.7107,1.10437 L -49.8711,1.44525
 L -50.0729,1.76335 L -50.3131,2.05363 L -50.5877,2.31154 L -50.8925,2.53297 L -51.2227,2.71448 L -51.5729,2.85316
 L -51.9379,2.94685 L -52.3116,2.99408 z
M -67.6884,2.99408 L -68.0621,2.94685 L -68.427,2.85316 L -68.7773,2.71448 L -69.1075,2.53297 L -69.4123,2.31154
 L -69.6869,2.05363 L -69.927,1.76335 L -70.1289,1.44525 L -70.2893,1.10437 L -70.4057,0.746063 L -70.4763,0.375992
 L -70.5,-0 L -70.4763,-0.375992 L -70.4057,-0.746063 L -70.2893,-1.10437 L -70.1289,-1.44525 L -69.927,-1.76335
 L -69.6869,-2.05363 L -69.4123,-2.31154 L -69.1075,-2.53297 L -68.7773,-2.71448 L -68.427,-2.85316 L -68.0621,-2.94685
 L -67.6884,-2.99408 L -67.3116,-2.99408 L -66.9379,-2.94685 L -66.573,-2.85316 L -66.2227,-2.71448 L -65.8925,-2.53297
 L -65.5877,-2.31154 L -65.3131,-2.05363 L -65.073,-1.76335 L -64.8711,-1.44525 L -64.7107,-1.10437 L -64.5943,-0.746063
 L -64.5237,-0.375992 L -64.5,-0 L -64.5237,0.375992 L -64.5943,0.746063 L -64.7107,1.10437 L -64.8711,1.44525
 L -65.073,1.76335 L -65.3131,2.05363 L -65.5877,2.31154 L -65.8925,2.53297 L -66.2227,2.71448 L -66.573,2.85316
 L -66.9379,2.94685 L -67.3116,2.99408 z
M 52.3116,2.99408 L 51.9379,2.94685 L 51.5729,2.85316 L 51.2227,2.71448 L 50.8925,2.53297 L 50.5877,2.31154
 L 50.3131,2.05363 L 50.0729,1.76335 L 49.8711,1.44525 L 49.7107,1.10437 L 49.5942,0.746063 L 49.5237,0.375992
 L 49.5,-0 L 49.5237,-0.375992 L 49.5942,-0.746063 L 49.7107,-1.10437 L 49.8711,-1.44525 L 50.0729,-1.76335
 L 50.3131,-2.05363 L 50.5877,-2.31154 L 50.8925,-2.53297 L 51.2227,-2.71448 L 51.5729,-2.85316 L 51.9379,-2.94685
 L 52.3116,-2.99408 L 52.6884,-2.99408 L 53.0621,-2.94685 L 53.427,-2.85316 L 53.7773,-2.71448 L 54.1075,-2.53297
 L 54.4123,-2.31154 L 54.6869,-2.05363 L 54.927,-1.76335 L 55.1289,-1.44525 L 55.2893,-1.10437 L 55.4057,-0.746063
 L 55.4763,-0.375992 L 55.5,-0 L 55.4763,0.375992 L 55.4057,0.746063 L 55.2893,1.10437 L 55.1289,1.44525
 L 54.927,1.76335 L 54.6869,2.05363 L 54.4123,2.31154 L 54.1075,2.53297 L 53.7773,2.71448 L 53.427,2.85316
 L 53.0621,2.94685 L 52.6884,2.99408 z
M 67.3116,2.99408 L 66.9379,2.94685 L 66.573,2.85316 L 66.2227,2.71448 L 65.8925,2.53297 L 65.5877,2.31154
 L 65.3131,2.05363 L 65.073,1.76335 L 64.8711,1.44525 L 64.7107,1.10437 L 64.5943,0.746063 L 64.5237,0.375992
 L 64.5,-0 L 64.5237,-0.375992 L 64.5943,-0.746063 L 64.7107,-1.10437 L 64.8711,-1.44525 L 65.073,-1.76335
 L 65.3131,-2.05363 L 65.5877,-2.31154 L 65.8925,-2.53297 L 66.2227,-2.71448 L 66.573,-2.85316 L 66.9379,-2.94685
 L 67.3116,-2.99408 L 67.6884,-2.99408 L 68.0621,-2.94685 L 68.427,-2.85316 L 68.7773,-2.71448 L 69.1075,-2.53297
 L 69.4123,-2.31154 L 69.6869,-2.05363 L 69.927,-1.76335 L 70.1289,-1.44525 L 70.2893,-1.10437 L 70.4057,-0.746063
 L 70.4763,-0.375992 L 70.5,-0 L 70.4763,0.375992 L 70.4057,0.746063 L 70.2893,1.10437 L 70.1289,1.44525
 L 69.927,1.76335 L 69.6869,2.05363 L 69.4123,2.31154 L 69.1075,2.53297 L 68.7773,2.71448 L 68.427,2.85316
 L 68.0621,2.94685 L 67.6884,2.99408 z
M -37.6884,2.99408 L -38.0621,2.94685 L -38.427,2.85316 L -38.7773,2.71448 L -39.1075,2.53297 L -39.4123,2.31154
 L -39.6869,2.05363 L -39.927,1.76335 L -40.1289,1.44525 L -40.2893,1.10437 L -40.4057,0.746063 L -40.4763,0.375992
 L -40.5,-0 L -40.4763,-0.375992 L -40.4057,-0.746063 L -40.2893,-1.10437 L -40.1289,-1.44525 L -39.927,-1.76335
 L -39.6869,-2.05363 L -39.4123,-2.31154 L -39.1075,-2.53297 L -38.7773,-2.71448 L -38.427,-2.85316 L -38.0621,-2.94685
 L -37.6884,-2.99408 L -37.3116,-2.99408 L -36.9379,-2.94685 L -36.5729,-2.85316 L -36.2227,-2.71448 L -35.8925,-2.53297
 L -35.5877,-2.31154 L -35.3131,-2.05363 L -35.0729,-1.76335 L -34.8711,-1.44525 L -34.7107,-1.10437 L -34.5942,-0.746063
 L -34.5237,-0.375992 L -34.5,-0 L -34.5237,0.375992 L -34.5942,0.746063 L -34.7107,1.10437 L -34.8711,1.44525
 L -35.0729,1.76335 L -35.3131,2.05363 L -35.5877,2.31154 L -35.8925,2.53297 L -36.2227,2.71448 L -36.5729,2.85316
 L -36.9379,2.94685 L -37.3116,2.99408 z
M 22.3116,2.99408 L 21.9379,2.94685 L 21.5729,2.85316 L 21.2227,2.71448 L 20.8925,2.53297 L 20.5877,2.31154
 L 20.3131,2.05363 L 20.0729,1.76335 L 19.8711,1.44525 L 19.7107,1.10437 L 19.5942,0.746063 L 19.5237,0.375992
 L 19.5,-0 L 19.5237,-0.375992 L 19.5942,-0.746063 L 19.7107,-1.10437 L 19.8711,-1.44525 L 20.0729,-1.76335
 L 20.3131,-2.05363 L 20.5877,-2.31154 L 20.8925,-2.53297 L 21.2227,-2.71448 L 21.5729,-2.85316 L 21.9379,-2.94685
 L 22.3116,-2.99408 L 22.6884,-2.99408 L 23.0621,-2.94685 L 23.427,-2.85316 L 23.7773,-2.71448 L 24.1075,-2.53297
 L 24.4123,-2.31154 L 24.6869,-2.05363 L 24.927,-1.76335 L 25.1289,-1.44525 L 25.2893,-1.10437 L 25.4057,-0.746063
 L 25.4763,-0.375992 L 25.5,-0 L 25.4763,0.375992 L 25.4057,0.746063 L 25.2893,1.10437 L 25.1289,1.44525
 L 24.927,1.76335 L 24.6869,2.05363 L 24.4123,2.31154 L 24.1075,2.53297 L 23.7773,2.71448 L 23.427,2.85316
 L 23.0621,2.94685 L 22.6884,2.99408 z
M 37.3116,2.99408 L 36.9379,2.94685 L 36.5729,2.85316 L 36.2227,2.71448 L 35.8925,2.53297 L 35.5877,2.31154
 L 35.3131,2.05363 L 35.0729,1.76335 L 34.8711,1.44525 L 34.7107,1.10437 L 34.5942,0.746063 L 34.5237,0.375992
 L 34.5,-0 L 34.5237,-0.375992 L 34.5942,-0.746063 L 34.7107,-1.10437 L 34.8711,-1.44525 L 35.0729,-1.76335
 L 35.3131,-2.05363 L 35.5877,-2.31154 L 35.8925,-2.53297 L 36.2227,-2.71448 L 36.5729,-2.85316 L 36.9379,-2.94685
 L 37.3116,-2.99408 L 37.6884,-2.99408 L 38.0621,-2.94685 L 38.427,-2.85316 L 38.7773,-2.71448 L 39.1075,-2.53297
 L 39.4123,-2.31154 L 39.6869,-2.05363 L 39.927,-1.76335 L 40.1289,-1.44525 L 40.2893,-1.10437 L 40.4057,-0.746063
 L 40.4763,-0.375992 L 40.5,-0 L 40.4763,0.375992 L 40.4057,0.746063 L 40.2893,1.10437 L 40.1289,1.44525
 L 39.927,1.76335 L 39.6869,2.05363 L 39.4123,2.31154 L 39.1075,2.53297 L 38.7773,2.71448 L 38.427,2.85316
 L 38.0621,2.94685 L 37.6884,2.99408 z
M 82.3116,2.99408 L 81.9379,2.94685 L 81.573,2.85316 L 81.2227,2.71448 L 80.8925,2.53297 L 80.5877,2.31154
 L 80.3131,2.05363 L 80.073,1.76335 L 79.8711,1.44525 L 79.7107,1.10437 L 79.5943,0.746063 L 79.5237,0.375992
 L 79.5,-0 L 79.5237,-0.375992 L 79.5943,-0.746063 L 79.7107,-1.10437 L 79.8711,-1.44525 L 80.073,-1.76335
 L 80.3131,-2.05363 L 80.5877,-2.31154 L 80.8925,-2.53297 L 81.2227,-2.71448 L 81.573,-2.85316 L 81.9379,-2.94685
 L 82.3116,-2.99408 L 82.6884,-2.99408 L 83.0621,-2.94685 L 83.427,-2.85316 L 83.7773,-2.71448 L 84.1075,-2.53297
 L 84.4123,-2.31154 L 84.6869,-2.05363 L 84.927,-1.76335 L 85.1289,-1.44525 L 85.2893,-1.10437 L 85.4057,-0.746063
 L 85.4763,-0.375992 L 85.5,-0 L 85.4763,0.375992 L 85.4057,0.746063 L 85.2893,1.10437 L 85.1289,1.44525
 L 84.927,1.76335 L 84.6869,2.05363 L 84.4123,2.31154 L 84.1075,2.53297 L 83.7773,2.71448 L 83.427,2.85316
 L 83.0621,2.94685 L 82.6884,2.99408 z
M -82.6884,2.99408 L -83.0621,2.94685 L -83.427,2.85316 L -83.7773,2.71448 L -84.1075,2.53297 L -84.4123,2.31154
 L -84.6869,2.05363 L -84.927,1.76335 L -85.1289,1.44525 L -85.2893,1.10437 L -85.4057,0.746063 L -85.4763,0.375992
 L -85.5,-0 L -85.4763,-0.375992 L -85.4057,-0.746063 L -85.2893,-1.10437 L -85.1289,-1.44525 L -84.927,-1.76335
 L -84.6869,-2.05363 L -84.4123,-2.31154 L -84.1075,-2.53297 L -83.7773,-2.71448 L -83.427,-2.85316 L -83.0621,-2.94685
 L -82.6884,-2.99408 L -82.3116,-2.99408 L -81.9379,-2.94685 L -81.573,-2.85316 L -81.2227,-2.71448 L -80.8925,-2.53297
 L -80.5877,-2.31154 L -80.3131,-2.05363 L -80.073,-1.76335 L -79.8711,-1.44525 L -79.7107,-1.10437 L -79.5943,-0.746063
 L -79.5237,-0.375992 L -79.5,-0 L -79.5237,0.375992 L -79.5943,0.746063 L -79.7107,1.10437 L -79.8711,1.44525
 L -80.073,1.76335 L -80.3131,2.05363 L -80.5877,2.31154 L -80.8925,2.53297 L -81.2227,2.71448 L -81.573,2.85316
 L -81.9379,2.94685 L -82.3116,2.99408 z
M -97.6884,2.99408 L -98.0621,2.94685 L -98.427,2.85316 L -98.7773,2.71448 L -99.1075,2.53297 L -99.4123,2.31154
 L -99.6869,2.05363 L -99.927,1.76335 L -100.129,1.44525 L -100.289,1.10437 L -100.406,0.746063 L -100.476,0.375992
 L -100.5,-0 L -100.476,-0.375992 L -100.406,-0.746063 L -100.289,-1.10437 L -100.129,-1.44525 L -99.927,-1.76335
 L -99.6869,-2.05363 L -99.4123,-2.31154 L -99.1075,-2.53297 L -98.7773,-2.71448 L -98.427,-2.85316 L -98.0621,-2.94685
 L -97.6884,-2.99408 L -97.3116,-2.99408 L -96.9379,-2.94685 L -96.573,-2.85316 L -96.2227,-2.71448 L -95.8925,-2.53297
 L -95.5877,-2.31154 L -95.3131,-2.05363 L -95.073,-1.76335 L -94.8711,-1.44525 L -94.7107,-1.10437 L -94.5943,-0.746063
 L -94.5237,-0.375992 L -94.5,-0 L -94.5237,0.375992 L -94.5943,0.746063 L -94.7107,1.10437 L -94.8711,1.44525
 L -95.073,1.76335 L -95.3131,2.05363 L -95.5877,2.31154 L -95.8925,2.53297 L -96.2227,2.71448 L -96.573,2.85316
 L -96.9379,2.94685 L -97.3116,2.99408 z
M -22.6884,2.99408 L -23.0621,2.94685 L -23.427,2.85316 L -23.7773,2.71448 L -24.1075,2.53297 L -24.4123,2.31154
 L -24.6869,2.05363 L -24.927,1.76335 L -25.1289,1.44525 L -25.2893,1.10437 L -25.4057,0.746063 L -25.4763,0.375992
 L -25.5,-0 L -25.4763,-0.375992 L -25.4057,-0.746063 L -25.2893,-1.10437 L -25.1289,-1.44525 L -24.927,-1.76335
 L -24.6869,-2.05363 L -24.4123,-2.31154 L -24.1075,-2.53297 L -23.7773,-2.71448 L -23.427,-2.85316 L -23.0621,-2.94685
 L -22.6884,-2.99408 L -22.3116,-2.99408 L -21.9379,-2.94685 L -21.5729,-2.85316 L -21.2227,-2.71448 L -20.8925,-2.53297
 L -20.5877,-2.31154 L -20.3131,-2.05363 L -20.0729,-1.76335 L -19.8711,-1.44525 L -19.7107,-1.10437 L -19.5942,-0.746063
 L -19.5237,-0.375992 L -19.5,-0 L -19.5237,0.375992 L -19.5942,0.746063 L -19.7107,1.10437 L -19.8711,1.44525
 L -20.0729,1.76335 L -20.3131,2.05363 L -20.5877,2.31154 L -20.8925,2.53297 L -21.2227,2.71448 L -21.5729,2.85316
 L -21.9379,2.94685 L -22.3116,2.99408 z
M -7.68837,2.99408 L -8.06213,2.94685 L -8.42705,2.85316 L -8.77733,2.71448 L -9.10747,2.53297 L -9.41226,2.31154
 L -9.6869,2.05363 L -9.92705,1.76335 L -10.1289,1.44525 L -10.2893,1.10437 L -10.4057,0.746063 L -10.4763,0.375992
 L -10.5,-0 L -10.4763,-0.375992 L -10.4057,-0.746063 L -10.2893,-1.10437 L -10.1289,-1.44525 L -9.92705,-1.76335
 L -9.6869,-2.05363 L -9.41226,-2.31154 L -9.10747,-2.53297 L -8.77733,-2.71448 L -8.42705,-2.85316 L -8.06213,-2.94685
 L -7.68837,-2.99408 L -7.31161,-2.99408 L -6.93785,-2.94685 L -6.57294,-2.85316 L -6.22266,-2.71448 L -5.89252,-2.53297
 L -5.58772,-2.31154 L -5.31308,-2.05363 L -5.07294,-1.76335 L -4.87108,-1.44525 L -4.71066,-1.10437 L -4.59424,-0.746063
 L -4.52365,-0.375992 L -4.5,-0 L -4.52365,0.375992 L -4.59424,0.746063 L -4.71066,1.10437 L -4.87108,1.44525
 L -5.07294,1.76335 L -5.31308,2.05363 L -5.58772,2.31154 L -5.89252,2.53297 L -6.22266,2.71448 L -6.57294,2.85316
 L -6.93785,2.94685 L -7.31161,2.99408 z
M 7.31161,2.99408 L 6.93785,2.94685 L 6.57294,2.85316 L 6.22266,2.71448 L 5.89252,2.53297 L 5.58772,2.31154
 L 5.31308,2.05363 L 5.07294,1.76335 L 4.87108,1.44525 L 4.71066,1.10437 L 4.59424,0.746063 L 4.52365,0.375992
 L 4.5,-0 L 4.52365,-0.375992 L 4.59424,-0.746063 L 4.71066,-1.10437 L 4.87108,-1.44525 L 5.07294,-1.76335
 L 5.31308,-2.05363 L 5.58772,-2.31154 L 5.89252,-2.53297 L 6.22266,-2.71448 L 6.57294,-2.85316 L 6.93785,-2.94685
 L 7.31161,-2.99408 L 7.68837,-2.99408 L 8.06213,-2.94685 L 8.42705,-2.85316 L 8.77733,-2.71448 L 9.10747,-2.53297
 L 9.41226,-2.31154 L 9.6869,-2.05363 L 9.92705,-1.76335 L 10.1289,-1.44525 L 10.2893,-1.10437 L 10.4057,-0.746063
 L 10.4763,-0.375992 L 10.5,-0 L 10.4763,0.375992 L 10.4057,0.746063 L 10.2893,1.10437 L 10.1289,1.44525
 L 9.92705,1.76335 L 9.6869,2.05363 L 9.41226,2.31154 L 9.10747,2.53297 L 8.77733,2.71448 L 8.42705,2.85316
 L 8.06213,2.94685 L 7.68837,2.99408 z
M -67.6884,17.9941 L -68.0621,17.9469 L -68.427,17.8532 L -68.7773,17.7145 L -69.1075,17.533 L -69.4123,17.3115
 L -69.6869,17.0536 L -69.927,16.7634 L -70.1289,16.4453 L -70.2893,16.1044 L -70.4057,15.7461 L -70.4763,15.376
 L -70.5,15 L -70.4763,14.624 L -70.4057,14.2539 L -70.2893,13.8956 L -70.1289,13.5547 L -69.927,13.2366
 L -69.6869,12.9464 L -69.4123,12.6884 L -69.1075,12.467 L -68.7773,12.2855 L -68.427,12.1468 L -68.0621,12.0531
 L -67.6884,12.0059 L -67.3116,12.0059 L -66.9379,12.0531 L -66.573,12.1468 L -66.2227,12.2855 L -65.8925,12.467
 L -65.5877,12.6884 L -65.3131,12.9464 L -65.073,13.2366 L -64.8711,13.5547 L -64.7107,13.8956 L -64.5943,14.2539
 L -64.5237,14.624 L -64.5,15 L -64.5237,15.376 L -64.5943,15.7461 L -64.7107,16.1044 L -64.8711,16.4453
 L -65.073,16.7634 L -65.3131,17.0536 L -65.5877,17.3115 L -65.8925,17.533 L -66.2227,17.7145 L -66.573,17.8532
 L -66.9379,17.9469 L -67.3116,17.9941 z
M -52.6884,17.9941 L -53.0621,17.9469 L -53.427,17.8532 L -53.7773,17.7145 L -54.1075,17.533 L -54.4123,17.3115
 L -54.6869,17.0536 L -54.927,16.7634 L -55.1289,16.4453 L -55.2893,16.1044 L -55.4057,15.7461 L -55.4763,15.376
 L -55.5,15 L -55.4763,14.624 L -55.4057,14.2539 L -55.2893,13.8956 L -55.1289,13.5547 L -54.927,13.2366
 L -54.6869,12.9464 L -54.4123,12.6884 L -54.1075,12.467 L -53.7773,12.2855 L -53.427,12.1468 L -53.0621,12.0531
 L -52.6884,12.0059 L -52.3116,12.0059 L -51.9379,12.0531 L -51.5729,12.1468 L -51.2227,12.2855 L -50.8925,12.467
 L -50.5877,12.6884 L -50.3131,12.9464 L -50.0729,13.2366 L -49.8711,13.5547 L -49.7107,13.8956 L -49.5942,14.2539
 L -49.5237,14.624 L -49.5,15 L -49.5237,15.376 L -49.5942,15.7461 L -49.7107,16.1044 L -49.8711,16.4453
 L -50.0729,16.7634 L -50.3131,17.0536 L -50.5877,17.3115 L -50.8925,17.533 L -51.2227,17.7145 L -51.5729,17.8532
 L -51.9379,17.9469 L -52.3116,17.9941 z
M -37.6884,17.9941 L -38.0621,17.9469 L -38.427,17.8532 L -38.7773,17.7145 L -39.1075,17.533 L -39.4123,17.3115
 L -39.6869,17.0536 L -39.927,16.7634 L -40.1289,16.4453 L -40.2893,16.1044 L -40.4057,15.7461 L -40.4763,15.376
 L -40.5,15 L -40.4763,14.624 L -40.4057,14.2539 L -40.2893,13.8956 L -40.1289,13.5547 L -39.927,13.2366
 L -39.6869,12.9464 L -39.4123,12.6884 L -39.1075,12.467 L -38.7773,12.2855 L -38.427,12.1468 L -38.0621,12.0531
 L -37.6884,12.0059 L -37.3116,12.0059 L -36.9379,12.0531 L -36.5729,12.1468 L -36.2227,12.2855 L -35.8925,12.467
 L -35.5877,12.6884 L -35.3131,12.9464 L -35.0729,13.2366 L -34.8711,13.5547 L -34.7107,13.8956 L -34.5942,14.2539
 L -34.5237,14.624 L -34.5,15 L -34.5237,15.376 L -34.5942,15.7461 L -34.7107,16.1044 L -34.8711,16.4453
 L -35.0729,16.7634 L -35.3131,17.0536 L -35.5877,17.3115 L -35.8925,17.533 L -36.2227,17.7145 L -36.5729,17.8532
 L -36.9379,17.9469 L -37.3116,17.9941 z
M 37.3116,17.9941 L 36.9379,17.9469 L 36.5729,17.8532 L 36.2227,17.7145 L 35.8925,17.533 L 35.5877,17.3115
 L 35.3131,17.0536 L 35.0729,16.7634 L 34.8711,16.4453 L 34.7107,16.1044 L 34.5942,15.7461 L 34.5237,15.376
 L 34.5,15 L 34.5237,14.624 L 34.5942,14.2539 L 34.7107,13.8956 L 34.8711,13.5547 L 35.0729,13.2366
 L 35.3131,12.9464 L 35.5877,12.6884 L 35.8925,12.467 L 36.2227,12.2855 L 36.5729,12.1468 L 36.9379,12.0531
 L 37.3116,12.0059 L 37.6884,12.0059 L 38.0621,12.0531 L 38.427,12.1468 L 38.7773,12.2855 L 39.1075,12.467
 L 39.4123,12.6884 L 39.6869,12.9464 L 39.927,13.2366 L 40.1289,13.5547 L 40.2893,13.8956 L 40.4057,14.2539
 L 40.4763,14.624 L 40.5,15 L 40.4763,15.376 L 40.4057,15.7461 L 40.2893,16.1044 L 40.1289,16.4453
 L 39.927,16.7634 L 39.6869,17.0536 L 39.4123,17.3115 L 39.1075,17.533 L 38.7773,17.7145 L 38.427,17.8532
 L 38.0621,17.9469 L 37.6884,17.9941 z
M -97.6884,17.9941 L -98.0621,17.9469 L -98.427,17.8532 L -98.7773,17.7145 L -99.1075,17.533 L -99.4123,17.3115
 L -99.6869,17.0536 L -99.927,16.7634 L -100.129,16.4453 L -100.289,16.1044 L -100.406,15.7461 L -100.476,15.376
 L -100.5,15 L -100.476,14.624 L -100.406,14.2539 L -100.289,13.8956 L -100.129,13.5547 L -99.927,13.2366
 L -99.6869,12.9464 L -99.4123,12.6884 L -99.1075,12.467 L -98.7773,12.2855 L -98.427,12.1468 L -98.0621,12.0531
 L -97.6884,12.0059 L -97.3116,12.0059 L -96.9379,12.0531 L -96.573,12.1468 L -96.2227,12.2855 L -95.8925,12.467
 L -95.5877,12.6884 L -95.3131,12.9464 L -95.073,13.2366 L -94.8711,13.5547 L -94.7107,13.8956 L -94.5943,14.2539
 L -94.5237,14.624 L -94.5,15 L -94.5237,15.376 L -94.5943,15.7461 L -94.7107,16.1044 L -94.8711,16.4453
 L -95.073,16.7634 L -95.3131,17.0536 L -95.5877,17.3115 L -95.8925,17.533 L -96.2227,17.7145 L -96.573,17.8532
 L -96.9379,17.9469 L -97.3116,17.9941 z
M 22.3116,17.9941 L 21.9379,17.9469 L 21.5729,17.8532 L 21.2227,17.7145 L 20.8925,17.533 L 20.5877,17.3115
 L 20.3131,17.0536 L 20.0729,16.7634 L 19.8711,16.4453 L 19.7107,16.1044 L 19.5942,15.7461 L 19.5237,15.376
 L 19.5,15 L 19.5237,14.624 L 19.5942,14.2539 L 19.7107,13.8956 L 19.8711,13.5547 L 20.0729,13.2366
 L 20.3131,12.9464 L 20.5877,12.6884 L 20.8925,12.467 L 21.2227,12.2855 L 21.5729,12.1468 L 21.9379,12.0531
 L 22.3116,12.0059 L 22.6884,12.0059 L 23.0621,12.0531 L 23.427,12.1468 L 23.7773,12.2855 L 24.1075,12.467
 L 24.4123,12.6884 L 24.6869,12.9464 L 24.927,13.2366 L 25.1289,13.5547 L 25.2893,13.8956 L 25.4057,14.2539
 L 25.4763,14.624 L 25.5,15 L 25.4763,15.376 L 25.4057,15.7461 L 25.2893,16.1044 L 25.1289,16.4453
 L 24.927,16.7634 L 24.6869,17.0536 L 24.4123,17.3115 L 24.1075,17.533 L 23.7773,17.7145 L 23.427,17.8532
 L 23.0621,17.9469 L 22.6884,17.9941 z
M 97.3116,17.9941 L 96.9379,17.9469 L 96.573,17.8532 L 96.2227,17.7145 L 95.8925,17.533 L 95.5877,17.3115
 L 95.3131,17.0536 L 95.073,16.7634 L 94.8711,16.4453 L 94.7107,16.1044 L 94.5943,15.7461 L 94.5237,15.376
 L 94.5,15 L 94.5237,14.624 L 94.5943,14.2539 L 94.7107,13.8956 L 94.8711,13.5547 L 95.073,13.2366
 L 95.3131,12.9464 L 95.5877,12.6884 L 95.8925,12.467 L 96.2227,12.2855 L 96.573,12.1468 L 96.9379,12.0531
 L 97.3116,12.0059 L 97.6884,12.0059 L 98.0621,12.0531 L 98.427,12.1468 L 98.7773,12.2855 L 99.1075,12.467
 L 99.4123,12.6884 L 99.6869,12.9464 L 99.927,13.2366 L 100.129,13.5547 L 100.289,13.8956 L 100.406,14.2539
 L 100.476,14.624 L 100.5,15 L 100.476,15.376 L 100.406,15.7461 L 100.289,16.1044 L 100.129,16.4453
 L 99.927,16.7634 L 99.6869,17.0536 L 99.4123,17.3115 L 99.1075,17.533 L 98.7773,17.7145 L 98.427,17.8532
 L 98.0621,17.9469 L 97.6884,17.9941 z
M 67.3116,17.9941 L 66.9379,17.9469 L 66.573,17.8532 L 66.2227,17.7145 L 65.8925,17.533 L 65.5877,17.3115
 L 65.3131,17.0536 L 65.073,16.7634 L 64.8711,16.4453 L 64.7107,16.1044 L 64.5943,15.7461 L 64.5237,15.376
 L 64.5,15 L 64.5237,14.624 L 64.5943,14.2539 L 64.7107,13.8956 L 64.8711,13.5547 L 65.073,13.2366
 L 65.3131,12.9464 L 65.5877,12.6884 L 65.8925,12.467 L 66.2227,12.2855 L 66.573,12.1468 L 66.9379,12.0531
 L 67.3116,12.0059 L 67.6884,12.0059 L 68.0621,12.0531 L 68.427,12.1468 L 68.7773,12.2855 L 69.1075,12.467
 L 69.4123,12.6884 L 69.6869,12.9464 L 69.927,13.2366 L 70.1289,13.5547 L 70.2893,13.8956 L 70.4057,14.2539
 L 70.4763,14.624 L 70.5,15 L 70.4763,15.376 L 70.4057,15.7461 L 70.2893,16.1044 L 70.1289,16.4453
 L 69.927,16.7634 L 69.6869,17.0536 L 69.4123,17.3115 L 69.1075,17.533 L 68.7773,17.7145 L 68.427,17.8532
 L 68.0621,17.9469 L 67.6884,17.9941 z
M 7.31161,17.9941 L 6.93785,17.9469 L 6.57294,17.8532 L 6.22266,17.7145 L 5.89252,17.533 L 5.58772,17.3115
 L 5.31308,17.0536 L 5.07294,16.7634 L 4.87108,16.4453 L 4.71066,16.1044 L 4.59424,15.7461 L 4.52365,15.376
 L 4.5,15 L 4.52365,14.624 L 4.59424,14.2539 L 4.71066,13.8956 L 4.87108,13.5547 L 5.07294,13.2366
 L 5.31308,12.9464 L 5.58772,12.6884 L 5.89252,12.467 L 6.22266,12.2855 L 6.57294,12.1468 L 6.93785,12.0531
 L 7.31161,12.0059 L 7.68837,12.0059 L 8.06213,12.0531 L 8.42705,12.1468 L 8.77733,12.2855 L 9.10747,12.467
 L 9.41226,12.6884 L 9.6869,12.9464 L 9.92705,13.2366 L 10.1289,13.5547 L 10.2893,13.8956 L 10.4057,14.2539
 L 10.4763,14.624 L 10.5,15 L 10.4763,15.376 L 10.4057,15.7461 L 10.2893,16.1044 L 10.1289,16.4453
 L 9.92705,16.7634 L 9.6869,17.0536 L 9.41226,17.3115 L 9.10747,17.533 L 8.77733,17.7145 L 8.42705,17.8532
 L 8.06213,17.9469 L 7.68837,17.9941 z
M 82.3116,17.9941 L 81.9379,17.9469 L 81.573,17.8532 L 81.2227,17.7145 L 80.8925,17.533 L 80.5877,17.3115
 L 80.3131,17.0536 L 80.073,16.7634 L 79.8711,16.4453 L 79.7107,16.1044 L 79.5943,15.7461 L 79.5237,15.376
 L 79.5,15 L 79.5237,14.624 L 79.5943,14.2539 L 79.7107,13.8956 L 79.8711,13.5547 L 80.073,13.2366
 L 80.3131,12.9464 L 80.5877,12.6884 L 80.8925,12.467 L 81.2227,12.2855 L 81.573,12.1468 L 81.9379,12.0531
 L 82.3116,12.0059 L 82.6884,12.0059 L 83.0621,12.0531 L 83.427,12.1468 L 83.7773,12.2855 L 84.1075,12.467
 L 84.4123,12.6884 L 84.6869,12.9464 L 84.927,13.2366 L 85.1289,13.5547 L 85.2893,13.8956 L 85.4057,14.2539
 L 85.4763,14.624 L 85.5,15 L 85.4763,15.376 L 85.4057,15.7461 L 85.2893,16.1044 L 85.1289,16.4453
 L 84.927,16.7634 L 84.6869,17.0536 L 84.4123,17.3115 L 84.1075,17.533 L 83.7773,17.7145 L 83.427,17.8532
 L 83.0621,17.9469 L 82.6884,17.9941 z
M -7.68837,17.9941 L -8.06213,17.9469 L -8.42705,17.8532 L -8.77733,17.7145 L -9.10747,17.533 L -9.41226,17.3115
 L -9.6869,17.0536 L -9.92705,16.7634 L -10.1289,16.4453 L -10.2893,16.1044 L -10.4057,15.7461 L -10.4763,15.376
 L -10.5,15 L -10.4763,14.624 L -10.4057,14.2539 L -10.2893,13.8956 L -10.1289,13.5547 L -9.92705,13.2366
 L -9.6869,12.9464 L -9.41226,12.6884 L -9.10747,12.467 L -8.77733,12.2855 L -8.42705,12.1468 L -8.06213,12.0531
 L -7.68837,12.0059 L -7.31161,12.0059 L -6.93785,12.0531 L -6.57294,12.1468 L -6.22266,12.2855 L -5.89252,12.467
 L -5.58772,12.6884 L -5.31308,12.9464 L -5.07294,13.2366 L -4.87108,13.5547 L -4.71066,13.8956 L -4.59424,14.2539
 L -4.52365,14.624 L -4.5,15 L -4.52365,15.376 L -4.59424,15.7461 L -4.71066,16.1044 L -4.87108,16.4453
 L -5.07294,16.7634 L -5.31308,17.0536 L -5.58772,17.3115 L -5.89252,17.533 L -6.22266,17.7145 L -6.57294,17.8532
 L -6.93785,17.9469 L -7.31161,17.9941 z
M 52.3116,17.9941 L 51.9379,17.9469 L 51.5729,17.8532 L 51.2227,17.7145 L 50.8925,17.533 L 50.5877,17.3115
 L 50.3131,17.0536 L 50.0729,16.7634 L 49.8711,16.4453 L 49.7107,16.1044 L 49.5942,15.7461 L 49.5237,15.376
 L 49.5,15 L 49.5237,14.624 L 49.5942,14.2539 L 49.7107,13.8956 L 49.8711,13.5547 L 50.0729,13.2366
 L 50.3131,12.9464 L 50.5877,12.6884 L 50.8925,12.467 L 51.2227,12.2855 L 51.5729,12.1468 L 51.9379,12.0531
 L 52.3116,12.0059 L 52.6884,12.0059 L 53.0621,12.0531 L 53.427,12.1468 L 53.7773,12.2855 L 54.1075,12.467
 L 54.4123,12.6884 L 54.6869,12.9464 L 54.927,13.2366 L 55.1289,13.5547 L 55.2893,13.8956 L 55.4057,14.2539
 L 55.4763,14.624 L 55.5,15 L 55.4763,15.376 L 55.4057,15.7461 L 55.2893,16.1044 L 55.1289,16.4453
 L 54.927,16.7634 L 54.6869,17.0536 L 54.4123,17.3115 L 54.1075,17.533 L 53.7773,17.7145 L 53.427,17.8532
 L 53.0621,17.9469 L 52.6884,17.9941 z
M -82.6884,17.9941 L -83.0621,17.9469 L -83.427,17.8532 L -83.7773,17.7145 L -84.1075,17.533 L -84.4123,17.3115
 L -84.6869,17.0536 L -84.927,16.7634 L -85.1289,16.4453 L -85.2893,16.1044 L -85.4057,15.7461 L -85.4763,15.376
 L -85.5,15 L -85.4763,14.624 L -85.4057,14.2539 L -85.2893,13.8956 L -85.1289,13.5547 L -84.927,13.2366
 L -84.6869,12.9464 L -84.4123,12.6884 L -84.1075,12.467 L -83.7773,12.2855 L -83.427,12.1468 L -83.0621,12.0531
 L -82.6884,12.0059 L -82.3116,12.0059 L -81.9379,12.0531 L -81.573,12.1468 L -81.2227,12.2855 L -80.8925,12.467
 L -80.5877,12.6884 L -80.3131,12.9464 L -80.073,13.2366 L -79.8711,13.5547 L -79.7107,13.8956 L -79.5943,14.2539
 L -79.5237,14.624 L -79.5,15 L -79.5237,15.376 L -79.5943,15.7461 L -79.7107,16.1044 L -79.8711,16.4453
 L -80.073,16.7634 L -80.3131,17.0536 L -80.5877,17.3115 L -80.8925,17.533 L -81.2227,17.7145 L -81.573,17.8532
 L -81.9379,17.9469 L -82.3116,17.9941 z
M -22.6884,17.9941 L -23.0621,17.9469 L -23.427,17.8532 L -23.7773,17.7145 L -24.1075,17.533 L -24.4123,17.3115
 L -24.6869,17.0536 L -24.927,16.7634 L -25.1289,16.4453 L -25.2893,16.1044 L -25.4057,15.7461 L -25.4763,15.376
 L -25.5,15 L -25.4763,14.624 L -25.4057,14.2539 L -25.2893,13.8956 L -25.1289,13.5547 L -24.927,13.2366
 L -24.6869,12.9464 L -24.4123,12.6884 L -24.1075,12.467 L -23.7773,12.2855 L -23.427,12.1468 L -23.0621,12.0531
 L -22.6884,12.0059 L -22.3116,12.0059 L -21.9379,12.0531 L -21.5729,12.1468 L -21.2227,12.2855 L -20.8925,12.467
 L -20.5877,12.6884 L -20.3131,12.9464 L -20.0729,13.2366 L -19.8711,13.5547 L -19.7107,13.8956 L -19.5942,14.2539
 L -19.5237,14.624 L -19.5,15 L -19.5237,15.376 L -19.5942,15.7461 L -19.7107,16.1044 L -19.8711,16.4453
 L -20.0729,16.7634 L -20.3131,17.0536 L -20.5877,17.3115 L -20.8925,17.533 L -21.2227,17.7145 L -21.5729,17.8532
 L -21.9379,17.9469 L -22.3116,17.9941 z
M 82.3116,32.9941 L 81.9379,32.9469 L 81.573,32.8532 L 81.2227,32.7145 L 80.8925,32.533 L 80.5877,32.3115
 L 80.3131,32.0536 L 80.073,31.7634 L 79.8711,31.4453 L 79.7107,31.1044 L 79.5943,30.7461 L 79.5237,30.376
 L 79.5,30 L 79.5237,29.624 L 79.5943,29.2539 L 79.7107,28.8956 L 79.8711,28.5547 L 80.073,28.2366
 L 80.3131,27.9464 L 80.5877,27.6884 L 80.8925,27.467 L 81.2227,27.2855 L 81.573,27.1468 L 81.9379,27.0531
 L 82.3116,27.0059 L 82.6884,27.0059 L 83.0621,27.0531 L 83.427,27.1468 L 83.7773,27.2855 L 84.1075,27.467
 L 84.4123,27.6884 L 84.6869,27.9464 L 84.927,28.2366 L 85.1289,28.5547 L 85.2893,28.8956 L 85.4057,29.2539
 L 85.4763,29.624 L 85.5,30 L 85.4763,30.376 L 85.4057,30.7461 L 85.2893,31.1044 L 85.1289,31.4453
 L 84.927,31.7634 L 84.6869,32.0536 L 84.4123,32.3115 L 84.1075,32.533 L 83.7773,32.7145 L 83.427,32.8532
 L 83.0621,32.9469 L 82.6884,32.9941 z
M -22.6884,32.9941 L -23.0621,32.9469 L -23.427,32.8532 L -23.7773,32.7145 L -24.1075,32.533 L -24.4123,32.3115
 L -24.6869,32.0536 L -24.927,31.7634 L -25.1289,31.4453 L -25.2893,31.1044 L -25.4057,30.7461 L -25.4763,30.376
 L -25.5,30 L -25.4763,29.624 L -25.4057,29.2539 L -25.2893,28.8956 L -25.1289,28.5547 L -24.927,28.2366
 L -24.6869,27.9464 L -24.4123,27.6884 L -24.1075,27.467 L -23.7773,27.2855 L -23.427,27.1468 L -23.0621,27.0531
 L -22.6884,27.0059 L -22.3116,27.0059 L -21.9379,27.0531 L -21.5729,27.1468 L -21.2227,27.2855 L -20.8925,27.467
 L -20.5877,27.6884 L -20.3131,27.9464 L -20.0729,28.2366 L -19.8711,28.5547 L -19.7107,28.8956 L -19.5942,29.2539
 L -19.5237,29.624 L -19.5,30 L -19.5237,30.376 L -19.5942,30.7461 L -19.7107,31.1044 L -19.8711,31.4453
 L -20.0729,31.7634 L -20.3131,32.0536 L -20.5877,32.3115 L -20.8925,32.533 L -21.2227,32.7145 L -21.5729,32.8532
 L -21.9379,32.9469 L -22.3116,32.9941 z
M 7.31161,32.9941 L 6.93785,32.9469 L 6.57294,32.8532 L 6.22266,32.7145 L 5.89252,32.533 L 5.58772,32.3115
 L 5.31308,32.0536 L 5.07294,31.7634 L 4.87108,31.4453 L 4.71066,31.1044 L 4.59424,30.7461 L 4.52365,30.376
 L 4.5,30 L 4.52365,29.624 L 4.59424,29.2539 L 4.71066,28.8956 L 4.87108,28.5547 L 5.07294,28.2366
 L 5.31308,27.9464 L 5.58772,27.6884 L 5.89252,27.467 L 6.22266,27.2855 L 6.57294,27.1468 L 6.93785,27.0531
 L 7.31161,27.0059 L 7.68837,27.0059 L 8.06213,27.0531 L 8.42705,27.1468 L 8.77733,27.2855 L 9.10747,27.467
 L 9.41226,27.6884 L 9.6869,27.9464 L 9.92705,28.2366 L 10.1289,28.5547 L 10.2893,28.8956 L 10.4057,29.2539
 L 10.4763,29.624 L 10.5,30 L 10.4763,30.376 L 10.4057,30.7461 L 10.2893,31.1044 L 10.1289,31.4453
 L 9.92705,31.7634 L 9.6869,32.0536 L 9.41226,32.3115 L 9.10747,32.533 L 8.77733,32.7145 L 8.42705,32.8532
 L 8.06213,32.9469 L 7.68837,32.9941 z
M -7.68837,32.9941 L -8.06213,32.9469 L -8.42705,32.8532 L -8.77733,32.7145 L -9.10747,32.533 L -9.41226,32.3115
 L -9.6869,32.0536 L -9.92705,31.7634 L -10.1289,31.4453 L -10.2893,31.1044 L -10.4057,30.7461 L -10.4763,30.376
 L -10.5,30 L -10.4763,29.624 L -10.4057,29.2539 L -10.2893,28.8956 L -10.1289,28.5547 L -9.92705,28.2366
 L -9.6869,27.9464 L -9.41226,27.6884 L -9.10747,27.467 L -8.77733,27.2855 L -8.42705,27.1468 L -8.06213,27.0531
 L -7.68837,27.0059 L -7.31161,27.0059 L -6.93785,27.0531 L -6.57294,27.1468 L -6.22266,27.2855 L -5.89252,27.467
 L -5.58772,27.6884 L -5.31308,27.9464 L -5.07294,28.2366 L -4.87108,28.5547 L -4.71066,28.8956 L -4.59424,29.2539
 L -4.52365,29.624 L -4.5,30 L -4.52365,30.376 L -4.59424,30.7461 L -4.71066,31.1044 L -4.87108,31.4453
 L -5.07294,31.7634 L -5.31308,32.0536 L -5.58772,32.3115 L -5.89252,32.533 L -6.22266,32.7145 L -6.57294,32.8532
 L -6.93785,32.9469 L -7.31161,32.9941 z
M 97.3116,32.9941 L 96.9379,32.9469 L 96.573,32.8532 L 96.2227,32.7145 L 95.8925,32.533 L 95.5877,32.3115
 L 95.3131,32.0536 L 95.073,31.7634 L 94.8711,31.4453 L 94.7107,31.1044 L 94.5943,30.7461 L 94.5237,30.376
 L 94.5,30 L 94.5237,29.624 L 94.5943,29.2539 L 94.7107,28.8956 L 94.8711,28.5547 L 95.073,28.2366
 L 95.3131,27.9464 L 95.5877,27.6884 L 95.8925,27.467 L 96.2227,27.2855 L 96.573,27.1468 L 96.9379,27.0531
 L 97.3116,27.0059 L 97.6884,27.0059 L 98.0621,27.0531 L 98.427,27.1468 L 98.7773,27.2855 L 99.1075,27.467
 L 99.4123,27.6884 L 99.6869,27.9464 L 99.927,28.2366 L 100.129,28.5547 L 100.289,28.8956 L 100.406,29.2539
 L 100.476,29.624 L 100.5,30 L 100.476,30.376 L 100.406,30.7461 L 100.289,31.1044 L 100.129,31.4453
 L 99.927,31.7634 L 99.6869,32.0536 L 99.4123,32.3115 L 99.1075,32.533 L 98.7773,32.7145 L 98.427,32.8532
 L 98.0621,32.9469 L 97.6884,32.9941 z
M -97.6884,32.9941 L -98.0621,32.9469 L -98.427,32.8532 L -98.7773,32.7145 L -99.1075,32.533 L -99.4123,32.3115
 L -99.6869,32.0536 L -99.927,31.7634 L -100.129,31.4453 L -100.289,31.1044 L -100.406,30.7461 L -100.476,30.376
 L -100.5,30 L -100.476,29.624 L -100.406,29.2539 L -100.289,28.8956 L -100.129,28.5547 L -99.927,28.2366
 L -99.6869,27.9464 L -99.4123,27.6884 L -99.1075,27.467 L -98.7773,27.2855 L -98.427,27.1468 L -98.0621,27.0531
 L -97.6884,27.0059 L -97.3116,27.0059 L -96.9379,27.0531 L -96.573,27.1468 L -96.2227,27.2855 L -95.8925,27.467
 L -95.5877,27.6884 L -95.3131,27.9464 L -95.073,28.2366 L -94.8711,28.5547 L -94.7107,28.8956 L -94.5943,29.2539
 L -94.5237,29.624 L -94.5,30 L -94.5237,30.376 L -94.5943,30.7461 L -94.7107,31.1044 L -94.8711,31.4453
 L -95.073,31.7634 L -95.3131,32.0536 L -95.5877,32.3115 L -95.8925,32.533 L -96.2227,32.7145 L -96.573,32.8532
 L -96.9379,32.9469 L -97.3116,32.9941 z
M -37.6884,32.9941 L -38.0621,32.9469 L -38.427,32.8532 L -38.7773,32.7145 L -39.1075,32.533 L -39.4123,32.3115
 L -39.6869,32.0536 L -39.927,31.7634 L -40.1289,31.4453 L -40.2893,31.1044 L -40.4057,30.7461 L -40.4763,30.376
 L -40.5,30 L -40.4763,29.624 L -40.4057,29.2539 L -40.2893,28.8956 L -40.1289,28.5547 L -39.927,28.2366
 L -39.6869,27.9464 L -39.4123,27.6884 L -39.1075,27.467 L -38.7773,27.2855 L -38.427,27.1468 L -38.0621,27.0531
 L -37.6884,27.0059 L -37.3116,27.0059 L -36.9379,27.0531 L -36.5729,27.1468 L -36.2227,27.2855 L -35.8925,27.467
 L -35.5877,27.6884 L -35.3131,27.9464 L -35.0729,28.2366 L -34.8711,28.5547 L -34.7107,28.8956 L -34.5942,29.2539
 L -34.5237,29.624 L -34.5,30 L -34.5237,30.376 L -34.5942,30.7461 L -34.7107,31.1044 L -34.8711,31.4453
 L -35.0729,31.7634 L -35.3131,32.0536 L -35.5877,32.3115 L -35.8925,32.533 L -36.2227,32.7145 L -36.5729,32.8532
 L -36.9379,32.9469 L -37.3116,32.9941 z
M 37.3116,32.9941 L 36.9379,32.9469 L 36.5729,32.8532 L 36.2227,32.7145 L 35.8925,32.533 L 35.5877,32.3115
 L 35.3131,32.0536 L 35.0729,31.7634 L 34.8711,31.4453 L 34.7107,31.1044 L 34.5942,30.7461 L 34.5237,30.376
 L 34.5,30 L 34.5237,29.624 L 34.5942,29.2539 L 34.7107,28.8956 L 34.8711,28.5547 L 35.0729,28.2366
 L 35.3131,27.9464 L 35.5877,27.6884 L 35.8925,27.467 L 36.2227,27.2855 L 36.5729,27.1468 L 36.9379,27.0531
 L 37.3116,27.0059 L 37.6884,27.0059 L 38.0621,27.0531 L 38.427,27.1468 L 38.7773,27.2855 L 39.1075,27.467
 L 39.4123,27.6884 L 39.6869,27.9464 L 39.927,28.2366 L 40.1289,28.5547 L 40.2893,28.8956 L 40.4057,29.2539
 L 40.4763,29.624 L 40.5,30 L 40.4763,30.376 L 40.4057,30.7461 L 40.2893,31.1044 L 40.1289,31.4453
 L 39.927,31.7634 L 39.6869,32.0536 L 39.4123,32.3115 L 39.1075,32.533 L 38.7773,32.7145 L 38.427,32.8532
 L 38.0621,32.9469 L 37.6884,32.9941 z
M -52.6884,32.9941 L -53.0621,32.9469 L -53.427,32.8532 L -53.7773,32.7145 L -54.1075,32.533 L -54.4123,32.3115
 L -54.6869,32.0536 L -54.927,31.7634 L -55.1289,31.4453 L -55.2893,31.1044 L -55.4057,30.7461 L -55.4763,30.376
 L -55.5,30 L -55.4763,29.624 L -55.4057,29.2539 L -55.2893,28.8956 L -55.1289,28.5547 L -54.927,28.2366
 L -54.6869,27.9464 L -54.4123,27.6884 L -54.1075,27.467 L -53.7773,27.2855 L -53.427,27.1468 L -53.0621,27.0531
 L -52.6884,27.0059 L -52.3116,27.0059 L -51.9379,27.0531 L -51.5729,27.1468 L -51.2227,27.2855 L -50.8925,27.467
 L -50.5877,27.6884 L -50.3131,27.9464 L -50.0729,28.2366 L -49.8711,28.5547 L -49.7107,28.8956 L -49.5942,29.2539
 L -49.5237,29.624 L -49.5,30 L -49.5237,30.376 L -49.5942,30.7461 L -49.7107,31.1044 L -49.8711,31.4453
 L -50.0729,31.7634 L -50.3131,32.0536 L -50.5877,32.3115 L -50.8925,32.533 L -51.2227,32.7145 L -51.5729,32.8532
 L -51.9379,32.9469 L -52.3116,32.9941 z
M 67.3116,32.9941 L 66.9379,32.9469 L 66.573,32.8532 L 66.2227,32.7145 L 65.8925,32.533 L 65.5877,32.3115
 L 65.3131,32.0536 L 65.073,31.7634 L 64.8711,31.4453 L 64.7107,31.1044 L 64.5943,30.7461 L 64.5237,30.376
 L 64.5,30 L 64.5237,29.624 L 64.5943,29.2539 L 64.7107,28.8956 L 64.8711,28.5547 L 65.073,28.2366
 L 65.3131,27.9464 L 65.5877,27.6884 L 65.8925,27.467 L 66.2227,27.2855 L 66.573,27.1468 L 66.9379,27.0531
 L 67.3116,27.0059 L 67.6884,27.0059 L 68.0621,27.0531 L 68.427,27.1468 L 68.7773,27.2855 L 69.1075,27.467
 L 69.4123,27.6884 L 69.6869,27.9464 L 69.927,28.2366 L 70.1289,28.5547 L 70.2893,28.8956 L 70.4057,29.2539
 L 70.4763,29.624 L 70.5,30 L 70.4763,30.376 L 70.4057,30.7461 L 70.2893,31.1044 L 70.1289,31.4453
 L 69.927,31.7634 L 69.6869,32.0536 L 69.4123,32.3115 L 69.1075,32.533 L 68.7773,32.7145 L 68.427,32.8532
 L 68.0621,32.9469 L 67.6884,32.9941 z
M -67.6884,32.9941 L -68.0621,32.9469 L -68.427,32.8532 L -68.7773,32.7145 L -69.1075,32.533 L -69.4123,32.3115
 L -69.6869,32.0536 L -69.927,31.7634 L -70.1289,31.4453 L -70.2893,31.1044 L -70.4057,30.7461 L -70.4763,30.376
 L -70.5,30 L -70.4763,29.624 L -70.4057,29.2539 L -70.2893,28.8956 L -70.1289,28.5547 L -69.927,28.2366
 L -69.6869,27.9464 L -69.4123,27.6884 L -69.1075,27.467 L -68.7773,27.2855 L -68.427,27.1468 L -68.0621,27.0531
 L -67.6884,27.0059 L -67.3116,27.0059 L -66.9379,27.0531 L -66.573,27.1468 L -66.2227,27.2855 L -65.8925,27.467
 L -65.5877,27.6884 L -65.3131,27.9464 L -65.073,28.2366 L -64.8711,28.5547 L -64.7107,28.8956 L -64.5943,29.2539
 L -64.5237,29.624 L -64.5,30 L -64.5237,30.376 L -64.5943,30.7461 L -64.7107,31.1044 L -64.8711,31.4453
 L -65.073,31.7634 L -65.3131,32.0536 L -65.5877,32.3115 L -65.8925,32.533 L -66.2227,32.7145 L -66.573,32.8532
 L -66.9379,32.9469 L -67.3116,32.9941 z
M -82.6884,32.9941 L -83.0621,32.9469 L -83.427,32.8532 L -83.7773,32.7145 L -84.1075,32.533 L -84.4123,32.3115
 L -84.6869,32.0536 L -84.927,31.7634 L -85.1289,31.4453 L -85.2893,31.1044 L -85.4057,30.7461 L -85.4763,30.376
 L -85.5,30 L -85.4763,29.624 L -85.4057,29.2539 L -85.2893,28.8956 L -85.1289,28.5547 L -84.927,28.2366
 L -84.6869,27.9464 L -84.4123,27.6884 L -84.1075,27.467 L -83.7773,27.2855 L -83.427,27.1468 L -83.0621,27.0531
 L -82.6884,27.0059 L -82.3116,27.0059 L -81.9379,27.0531 L -81.573,27.1468 L -81.2227,27.2855 L -80.8925,27.467
 L -80.5877,27.6884 L -80.3131,27.9464 L -80.073,28.2366 L -79.8711,28.5547 L -79.7107,28.8956 L -79.5943,29.2539
 L -79.5237,29.624 L -79.5,30 L -79.5237,30.376 L -79.5943,30.7461 L -79.7107,31.1044 L -79.8711,31.4453
 L -80.073,31.7634 L -80.3131,32.0536 L -80.5877,32.3115 L -80.8925,32.533 L -81.2227,32.7145 L -81.573,32.8532
 L -81.9379,32.9469 L -82.3116,32.9941 z
M 22.3116,32.9941 L 21.9379,32.9469 L 21.5729,32.8532 L 21.2227,32.7145 L 20.8925,32.533 L 20.5877,32.3115
 L 20.3131,32.0536 L 20.0729,31.7634 L 19.8711,31.4453 L 19.7107,31.1044 L 19.5942,30.7461 L 19.5237,30.376
 L 19.5,30 L 19.5237,29.624 L 19.5942,29.2539 L 19.7107,28.8956 L 19.8711,28.5547 L 20.0729,28.2366
 L 20.3131,27.9464 L 20.5877,27.6884 L 20.8925,27.467 L 21.2227,27.2855 L 21.5729,27.1468 L 21.9379,27.0531
 L 22.3116,27.0059 L 22.6884,27.0059 L 23.0621,27.0531 L 23.427,27.1468 L 23.7773,27.2855 L 24.1075,27.467
 L 24.4123,27.6884 L 24.6869,27.9464 L 24.927,28.2366 L 25.1289,28.5547 L 25.2893,28.8956 L 25.4057,29.2539
 L 25.4763,29.624 L 25.5,30 L 25.4763,30.376 L 25.4057,30.7461 L 25.2893,31.1044 L 25.1289,31.4453
 L 24.927,31.7634 L 24.6869,32.0536 L 24.4123,32.3115 L 24.1075,32.533 L 23.7773,32.7145 L 23.427,32.8532
 L 23.0621,32.9469 L 22.6884,32.9941 z
M 52.3116,32.9941 L 51.9379,32.9469 L 51.5729,32.8532 L 51.2227,32.7145 L 50.8925,32.533 L 50.5877,32.3115
 L 50.3131,32.0536 L 50.0729,31.7634 L 49.8711,31.4453 L 49.7107,31.1044 L 49.5942,30.7461 L 49.5237,30.376
 L 49.5,30 L 49.5237,29.624 L 49.5942,29.2539 L 49.7107,28.8956 L 49.8711,28.5547 L 50.0729,28.2366
 L 50.3131,27.9464 L 50.5877,27.6884 L 50.8925,27.467 L 51.2227,27.2855 L 51.5729,27.1468 L 51.9379,27.0531
 L 52.3116,27.0059 L 52.6884,27.0059 L 53.0621,27.0531 L 53.427,27.1468 L 53.7773,27.2855 L 54.1075,27.467
 L 54.4123,27.6884 L 54.6869,27.9464 L 54.927,28.2366 L 55.1289,28.5547 L 55.2893,28.8956 L 55.4057,29.2539
 L 55.4763,29.624 L 55.5,30 L 55.4763,30.376 L 55.4057,30.7461 L 55.2893,31.1044 L 55.1289,31.4453
 L 54.927,31.7634 L 54.6869,32.0536 L 54.4123,32.3115 L 54.1075,32.533 L 53.7773,32.7145 L 53.427,32.8532
 L 53.0621,32.9469 L 52.6884,32.9941 z
" stroke="black" fill="lightgray" stroke-width="0.5"/>
</svg>
