<?xml version="1.0" standalone="no"?>
<!DOCTYPE svg PUBLIC "-//W3C//DTD SVG 1.1//EN" "http://www.w3.org/Graphics/SVG/1.1/DTD/svg11.dtd">
<svg width="16mm" height="69mm" viewBox="-9 -132 16 69" xmlns="http://www.w3.org/2000/svg" version="1.1">
<title>OpenSCAD Model</title>
<path d="
M -6,-104.507 L -5.64484,-104.077 L -5.18712,-103.647 L -4.67912,-103.278 L -4.12889,-102.976 L -3.54507,-102.745
 L -2.9369,-102.589 L -2.31395,-102.51 L 2.31395,-102.51 L 2.9369,-102.589 L 3.54507,-102.745 L 4.12889,-102.976
 L 4.67912,-103.278 L 5.18712,-103.647 L 5.64484,-104.077 L 6.04507,-104.561 L 6.38153,-105.091 L 6.64888,-105.659
 L 6.84291,-106.257 L 6.96057,-106.873 L 7,-107.5 L 7,-126.5 L 6.96057,-127.127 L 6.84291,-127.743
 L 6.64888,-128.341 L 6.38153,-128.909 L 6.04507,-129.439 L 5.64484,-129.923 L 5.18712,-130.353 L 4.67912,-130.722
 L 4.12889,-131.024 L 3.54507,-131.255 L 2.9369,-131.411 L 2.31395,-131.49 L -2.31395,-131.49 L -2.9369,-131.411
 L -3.54507,-131.255 L -4.12889,-131.024 L -4.67912,-130.722 L -5.18712,-130.353 L -5.64484,-129.923 L -6,-129.493
 L -6,-131.979 L -9,-131.979 L -9,-102.021 L -6,-102.021 z
M -2.19545,-104.393 L -2.5833,-104.442 L -2.96194,-104.539 L -3.32541,-104.683 L -3.66798,-104.872 L -3.98424,-105.101
 L -4.26921,-105.369 L -4.5184,-105.67 L -4.72786,-106 L -4.89432,-106.354 L -5.01512,-106.726 L -5.08836,-107.11
 L -5.11292,-107.5 L -5.11292,-126.5 L -5.08836,-126.89 L -5.01512,-127.274 L -4.89432,-127.646 L -4.72786,-128
 L -4.5184,-128.33 L -4.26921,-128.631 L -3.98424,-128.899 L -3.66798,-129.128 L -3.32541,-129.317 L -2.96194,-129.461
 L -2.5833,-129.558 L -2.19545,-129.607 L 2.19545,-129.607 L 2.5833,-129.558 L 2.96194,-129.461 L 3.32541,-129.317
 L 3.66798,-129.128 L 3.98424,-128.899 L 4.26921,-128.631 L 4.5184,-128.33 L 4.72786,-128 L 4.89432,-127.646
 L 5.01512,-127.274 L 5.08836,-126.89 L 5.11292,-126.5 L 5.11292,-107.5 L 5.08836,-107.11 L 5.01512,-106.726
 L 4.89432,-106.354 L 4.72786,-106 L 4.5184,-105.67 L 4.26921,-105.369 L 3.98424,-105.101 L 3.66798,-104.872
 L 3.32541,-104.683 L 2.96194,-104.539 L 2.5833,-104.442 L 2.19545,-104.393 z
M 2.9369,-63.5886 L 3.54507,-63.7447 L 4.12889,-63.9759 L 4.67912,-64.2784 L 5.18712,-64.6474 L 5.64484,-65.0773
 L 6.04507,-65.5611 L 6.38153,-66.0912 L 6.64888,-66.6594 L 6.84291,-67.2566 L 6.96057,-67.8733 L 7,-68.5
 L 7,-87.5 L 6.96057,-88.1267 L 6.84291,-88.7434 L 6.64888,-89.3406 L 6.38153,-89.9088 L 6.04507,-90.4389
 L 5.64484,-90.9227 L 5.18712,-91.3526 L 4.67912,-91.7216 L 4.12889,-92.0241 L 3.54507,-92.2553 L 2.9369,-92.4114
 L 2.31395,-92.4901 L -2.31395,-92.4901 L -2.9369,-92.4114 L -3.54507,-92.2553 L -4.12889,-92.0241 L -4.67912,-91.7216
 L -5.18712,-91.3526 L -5.64484,-90.9227 L -6,-90.4934 L -6,-91.6526 L -9,-91.6526 L -9,-64.3474
 L -6,-64.3474 L -6,-65.5066 L -5.64484,-65.0773 L -5.18712,-64.6474 L -4.67912,-64.2784 L -4.12889,-63.9759
 L -3.54507,-63.7447 L -2.9369,-63.5886 L -2.31395,-63.5099 L 2.31395,-63.5099 z
M -0.150696,-83.1047 L -0.449707,-83.1425 L -0.741638,-83.2175 L -1.02187,-83.3284 L -1.28598,-83.4736 L -1.52982,-83.6508
 L -1.74951,-83.8571 L -1.94164,-84.0893 L -2.10313,-84.3438 L -2.23146,-84.6165 L -2.32458,-84.9031 L -2.38107,-85.1992
 L -2.39999,-85.5 L -2.38107,-85.8008 L -2.32458,-86.0968 L -2.23146,-86.3835 L -2.10313,-86.6562 L -1.94164,-86.9107
 L -1.74951,-87.1429 L -1.52982,-87.3492 L -1.28598,-87.5264 L -1.02187,-87.6716 L -0.741638,-87.7825 L -0.449707,-87.8575
 L -0.150696,-87.8953 L 0.150696,-87.8953 L 0.449707,-87.8575 L 0.741638,-87.7825 L 1.02187,-87.6716 L 1.28598,-87.5264
 L 1.52982,-87.3492 L 1.74951,-87.1429 L 1.94164,-86.9107 L 2.10313,-86.6562 L 2.23146,-86.3835 L 2.32458,-86.0968
 L 2.38107,-85.8008 L 2.39999,-85.5 L 2.38107,-85.1992 L 2.32458,-84.9031 L 2.23146,-84.6165 L 2.10313,-84.3438
 L 1.94164,-84.0893 L 1.74951,-83.8571 L 1.52982,-83.6508 L 1.28598,-83.4736 L 1.02187,-83.3284 L 0.741638,-83.2175
 L 0.449707,-83.1425 L 0.150696,-83.1047 z
M -0.150696,-68.1047 L -0.449707,-68.1425 L -0.741638,-68.2175 L -1.02187,-68.3284 L -1.28598,-68.4736 L -1.52982,-68.6508
 L -1.74951,-68.8571 L -1.94164,-69.0893 L -2.10313,-69.3438 L -2.23146,-69.6165 L -2.32458,-69.9032 L -2.38107,-70.1992
 L -2.39999,-70.5 L -2.38107,-70.8008 L -2.32458,-71.0969 L -2.23146,-71.3835 L -2.10313,-71.6562 L -1.94164,-71.9107
 L -1.74951,-72.1429 L -1.52982,-72.3492 L -1.28598,-72.5264 L -1.02187,-72.6716 L -0.741638,-72.7825 L -0.449707,-72.8575
 L -0.150696,-72.8953 L 0.150696,-72.8953 L 0.449707,-72.8575 L 0.741638,-72.7825 L 1.02187,-72.6716 L 1.28598,-72.5264
 L 1.52982,-72.3492 L 1.74951,-72.1429 L 1.94164,-71.9107 L 2.10313,-71.6562 L 2.23146,-71.3835 L 2.32458,-71.0969
 L 2.38107,-70.8008 L 2.39999,-70.5 L 2.38107,-70.1992 L 2.32458,-69.9032 L 2.23146,-69.6165 L 2.10313,-69.3438
 L 1.94164,-69.0893 L 1.74951,-68.8571 L 1.52982,-68.6508 L 1.28598,-68.4736 L 1.02187,-68.3284 L 0.741638,-68.2175
 L 0.449707,-68.1425 L 0.150696,-68.1047 z
" stroke="black" fill="lightgray" stroke-width="0.5"/>
</svg>
