<?xml version="1.0" standalone="no"?>
<!DOCTYPE svg PUBLIC "-//W3C//DTD SVG 1.1//EN" "http://www.w3.org/Graphics/SVG/1.1/DTD/svg11.dtd">
<svg width="22mm" height="22mm" viewBox="-11 -11 22 22" xmlns="http://www.w3.org/2000/svg" version="1.1">
<title>OpenSCAD Model</title>
<path d="
M 1.92065,10.0684 L 3.16742,9.74832 L 4.36423,9.27448 L 5.49222,8.65436 L 6.53358,7.89775 L 7.47192,7.0166
 L 8.29242,6.0248 L 8.98213,4.93797 L 9.5302,3.77327 L 9.92796,2.54906 L 10.1692,1.28465 L 10.25,-0
 L 10.1692,-1.28465 L 9.92796,-2.54906 L 9.5302,-3.77327 L 8.98213,-4.93797 L 8.29242,-6.0248 L 7.47192,-7.0166
 L 6.53358,-7.89775 L 5.49222,-8.65436 L 4.36423,-9.27448 L 3.16742,-9.74832 L 1.92065,-10.0684 L 0.6436,-10.2298
 L -0.6436,-10.2298 L -1.92065,-10.0684 L -3.16742,-9.74832 L -4.36423,-9.27448 L -5.49222,-8.65436 L -6.53358,-7.89775
 L -7.47192,-7.0166 L -8.29242,-6.0248 L -8.98213,-4.93797 L -9.5302,-3.77327 L -9.92796,-2.54906 L -10.1692,-1.28465
 L -10.25,-0 L -10.1692,1.28465 L -9.92796,2.54906 L -9.5302,3.77327 L -8.98213,4.93797 L -8.29242,6.0248
 L -7.47192,7.0166 L -6.53358,7.89775 L -5.49222,8.65436 L -4.36423,9.27448 L -3.16742,9.74832 L -1.92065,10.0684
 L -0.6436,10.2298 L 0.6436,10.2298 z
M -0.0941772,-6.00294 L -0.281067,-6.02657 L -0.463516,-6.07341 L -0.638657,-6.14275 L -0.803726,-6.23351 L -0.956131,-6.34422
 L -1.09344,-6.47318 L -1.21352,-6.61832 L -1.31445,-6.77736 L -1.39465,-6.9478 L -1.45287,-7.12695 L -1.48816,-7.312
 L -1.5,-7.5 L -1.48816,-7.68799 L -1.45287,-7.87303 L -1.39465,-8.05219 L -1.31445,-8.22263 L -1.21352,-8.38167
 L -1.09344,-8.52681 L -0.956131,-8.65576 L -0.803726,-8.76648 L -0.638657,-8.85724 L -0.463516,-8.92657 L -0.281067,-8.97342
 L -0.0941772,-8.99704 L 0.0941772,-8.99704 L 0.281067,-8.97342 L 0.463516,-8.92657 L 0.638657,-8.85724 L 0.803726,-8.76648
 L 0.956131,-8.65576 L 1.09344,-8.52681 L 1.21352,-8.38167 L 1.31445,-8.22263 L 1.39465,-8.05219 L 1.45287,-7.87303
 L 1.48816,-7.68799 L 1.5,-7.5 L 1.48816,-7.312 L 1.45287,-7.12695 L 1.39465,-6.9478 L 1.31445,-6.77736
 L 1.21352,-6.61832 L 1.09344,-6.47318 L 0.956131,-6.34422 L 0.803726,-6.23351 L 0.638657,-6.14275 L 0.463516,-6.07341
 L 0.281067,-6.02657 L 0.0941772,-6.00294 z
M -0.18837,2.99408 L -0.562134,2.94685 L -0.927048,2.85316 L -1.27733,2.71448 L -1.60747,2.53297 L -1.91226,2.31154
 L -2.1869,2.05363 L -2.42705,1.76335 L -2.62891,1.44525 L -2.78932,1.10437 L -2.90575,0.746063 L -2.97633,0.375992
 L -3,-0 L -2.97633,-0.375992 L -2.90575,-0.746063 L -2.78932,-1.10437 L -2.62891,-1.44525 L -2.42705,-1.76335
 L -2.1869,-2.05363 L -1.91226,-2.31154 L -1.60747,-2.53297 L -1.27733,-2.71448 L -0.927048,-2.85316 L -0.562134,-2.94685
 L -0.18837,-2.99408 L 0.18837,-2.99408 L 0.562134,-2.94685 L 0.927048,-2.85316 L 1.27733,-2.71448 L 1.60747,-2.53297
 L 1.91226,-2.31154 L 2.1869,-2.05363 L 2.42705,-1.76335 L 2.62891,-1.44525 L 2.78932,-1.10437 L 2.90575,-0.746063
 L 2.97633,-0.375992 L 3,-0 L 2.97633,0.375992 L 2.90575,0.746063 L 2.78932,1.10437 L 2.62891,1.44525
 L 2.42705,1.76335 L 2.1869,2.05363 L 1.91226,2.31154 L 1.60747,2.53297 L 1.27733,2.71448 L 0.927048,2.85316
 L 0.562134,2.94685 L 0.18837,2.99408 z
M -8.09418,1.49704 L -8.28107,1.47342 L -8.46352,1.42657 L -8.63866,1.35724 L -8.80373,1.26648 L -8.95613,1.15576
 L -9.09344,1.02681 L -9.21352,0.881668 L -9.31445,0.722626 L -9.39465,0.552185 L -9.45287,0.373032 L -9.48816,0.187988
 L -9.5,-0 L -9.48816,-0.187988 L -9.45287,-0.373032 L -9.39465,-0.552185 L -9.31445,-0.722626 L -9.21352,-0.881668
 L -9.09344,-1.02681 L -8.95613,-1.15576 L -8.80373,-1.26648 L -8.63866,-1.35724 L -8.46352,-1.42657 L -8.28107,-1.47342
 L -8.09418,-1.49704 L -7.40581,-1.49704 L -7.21892,-1.47342 L -7.03647,-1.42657 L -6.86133,-1.35724 L -6.69626,-1.26648
 L -6.54385,-1.15576 L -6.40654,-1.02681 L -6.28647,-0.881668 L -6.18553,-0.722626 L -6.10533,-0.552185 L -6.04712,-0.373032
 L -6.01183,-0.187988 L -6,-0 L -6.01183,0.187988 L -6.04712,0.373032 L -6.10533,0.552185 L -6.18553,0.722626
 L -6.28647,0.881668 L -6.40654,1.02681 L -6.54385,1.15576 L -6.69626,1.26648 L -6.86133,1.35724 L -7.03647,1.42657
 L -7.21892,1.47342 L -7.40581,1.49704 z
M 7.40581,1.49704 L 7.21892,1.47342 L 7.03647,1.42657 L 6.86133,1.35724 L 6.69626,1.26648 L 6.54385,1.15576
 L 6.40654,1.02681 L 6.28647,0.881668 L 6.18553,0.722626 L 6.10533,0.552185 L 6.04712,0.373032 L 6.01183,0.187988
 L 6,-0 L 6.01183,-0.187988 L 6.04712,-0.373032 L 6.10533,-0.552185 L 6.18553,-0.722626 L 6.28647,-0.881668
 L 6.40654,-1.02681 L 6.54385,-1.15576 L 6.69626,-1.26648 L 6.86133,-1.35724 L 7.03647,-1.42657 L 7.21892,-1.47342
 L 7.40581,-1.49704 L 8.09418,-1.49704 L 8.28107,-1.47342 L 8.46352,-1.42657 L 8.63866,-1.35724 L 8.80373,-1.26648
 L 8.95613,-1.15576 L 9.09344,-1.02681 L 9.21352,-0.881668 L 9.31445,-0.722626 L 9.39465,-0.552185 L 9.45287,-0.373032
 L 9.48816,-0.187988 L 9.5,-0 L 9.48816,0.187988 L 9.45287,0.373032 L 9.39465,0.552185 L 9.31445,0.722626
 L 9.21352,0.881668 L 9.09344,1.02681 L 8.95613,1.15576 L 8.80373,1.26648 L 8.63866,1.35724 L 8.46352,1.42657
 L 8.28107,1.47342 L 8.09418,1.49704 z
M -0.0941772,8.99704 L -0.281067,8.97342 L -0.463516,8.92657 L -0.638657,8.85724 L -0.803726,8.76648 L -0.956131,8.65576
 L -1.09344,8.52681 L -1.21352,8.38167 L -1.31445,8.22263 L -1.39465,8.05219 L -1.45287,7.87303 L -1.48816,7.68799
 L -1.5,7.5 L -1.48816,7.312 L -1.45287,7.12695 L -1.39465,6.9478 L -1.31445,6.77736 L -1.21352,6.61832
 L -1.09344,6.47318 L -0.956131,6.34422 L -0.803726,6.23351 L -0.638657,6.14275 L -0.463516,6.07341 L -0.281067,6.02657
 L -0.0941772,6.00294 L 0.0941772,6.00294 L 0.281067,6.02657 L 0.463516,6.07341 L 0.638657,6.14275 L 0.803726,6.23351
 L 0.956131,6.34422 L 1.09344,6.47318 L 1.21352,6.61832 L 1.31445,6.77736 L 1.39465,6.9478 L 1.45287,7.12695
 L 1.48816,7.312 L 1.5,7.5 L 1.48816,7.68799 L 1.45287,7.87303 L 1.39465,8.05219 L 1.31445,8.22263
 L 1.21352,8.38167 L 1.09344,8.52681 L 0.956131,8.65576 L 0.803726,8.76648 L 0.638657,8.85724 L 0.463516,8.92657
 L 0.281067,8.97342 L 0.0941772,8.99704 z
" stroke="black" fill="lightgray" stroke-width="0.5"/>
</svg>
