<?xml version="1.0" standalone="no"?>
<!DOCTYPE svg PUBLIC "-//W3C//DTD SVG 1.1//EN" "http://www.w3.org/Graphics/SVG/1.1/DTD/svg11.dtd">
<svg width="60mm" height="260mm" viewBox="-30 -508 60 260" xmlns="http://www.w3.org/2000/svg" version="1.1">
<title>OpenSCAD Model</title>
<path d="
M 25.4369,-464.089 L 26.0451,-464.245 L 26.6289,-464.476 L 27.1791,-464.778 L 27.6871,-465.147 L 28.1448,-465.577
 L 28.5451,-466.061 L 28.8815,-466.591 L 29.1489,-467.159 L 29.3429,-467.757 L 29.4606,-468.373 L 29.5,-469
 L 29.5,-503 L 29.4606,-503.627 L 29.3429,-504.243 L 29.1489,-504.841 L 28.8815,-505.409 L 28.5451,-505.939
 L 28.1448,-506.423 L 27.6871,-506.853 L 27.1791,-507.222 L 26.6289,-507.524 L 26.0451,-507.755 L 25.4369,-507.911
 L 24.8139,-507.99 L -24.8139,-507.99 L -25.4369,-507.911 L -26.0451,-507.755 L -26.6289,-507.524 L -27.1791,-507.222
 L -27.6871,-506.853 L -28.1448,-506.423 L -28.5451,-505.939 L -28.8815,-505.409 L -29.1489,-504.841 L -29.3429,-504.243
 L -29.4606,-503.627 L -29.5,-503 L -29.5,-469 L -29.4606,-468.373 L -29.3429,-467.757 L -29.1489,-467.159
 L -28.8815,-466.591 L -28.5451,-466.061 L -28.1448,-465.577 L -27.6871,-465.147 L -27.1791,-464.778 L -26.6289,-464.476
 L -26.0451,-464.245 L -25.4369,-464.089 L -24.8139,-464.01 L 24.8139,-464.01 z
M -24.7512,-465.008 L -25.2495,-465.071 L -25.7361,-465.196 L -26.2031,-465.381 L -26.6433,-465.623 L -27.0497,-465.918
 L -27.4159,-466.262 L -27.7361,-466.649 L -28.0052,-467.073 L -28.2191,-467.528 L -28.3743,-468.005 L -28.4684,-468.499
 L -28.5,-469 L -28.5,-503 L -28.4684,-503.501 L -28.3743,-503.995 L -28.2191,-504.472 L -28.0052,-504.927
 L -27.7361,-505.351 L -27.4159,-505.738 L -27.0497,-506.082 L -26.6433,-506.377 L -26.2031,-506.619 L -25.7361,-506.804
 L -25.2495,-506.929 L -24.7512,-506.992 L 24.7512,-506.992 L 25.2495,-506.929 L 25.7361,-506.804 L 26.2031,-506.619
 L 26.6433,-506.377 L 27.0497,-506.082 L 27.4159,-505.738 L 27.7361,-505.351 L 28.0052,-504.927 L 28.2191,-504.472
 L 28.3743,-503.995 L 28.4684,-503.501 L 28.5,-503 L 28.5,-469 L 28.4684,-468.499 L 28.3743,-468.005
 L 28.2191,-467.528 L 28.0052,-467.073 L 27.7361,-466.649 L 27.4159,-466.262 L 27.0497,-465.918 L 26.6433,-465.623
 L 26.2031,-465.381 L 25.7361,-465.196 L 25.2495,-465.071 L 24.7512,-465.008 z
M 25.4369,-410.089 L 26.0451,-410.245 L 26.6289,-410.476 L 27.1791,-410.778 L 27.6871,-411.147 L 28.1448,-411.577
 L 28.5451,-412.061 L 28.8815,-412.591 L 29.1489,-413.159 L 29.3429,-413.757 L 29.4606,-414.373 L 29.5,-415
 L 29.5,-449 L 29.4606,-449.627 L 29.3429,-450.243 L 29.1489,-450.841 L 28.8815,-451.409 L 28.5451,-451.939
 L 28.1448,-452.423 L 27.6871,-452.853 L 27.1791,-453.222 L 26.6289,-453.524 L 26.0451,-453.755 L 25.4369,-453.911
 L 24.8139,-453.99 L -24.8139,-453.99 L -25.4369,-453.911 L -26.0451,-453.755 L -26.6289,-453.524 L -27.1791,-453.222
 L -27.6871,-452.853 L -28.1448,-452.423 L -28.5451,-451.939 L -28.8815,-451.409 L -29.1489,-450.841 L -29.3429,-450.243
 L -29.4606,-449.627 L -29.5,-449 L -29.5,-415 L -29.4606,-414.373 L -29.3429,-413.757 L -29.1489,-413.159
 L -28.8815,-412.591 L -28.5451,-412.061 L -28.1448,-411.577 L -27.6871,-411.147 L -27.1791,-410.778 L -26.6289,-410.476
 L -26.0451,-410.245 L -25.4369,-410.089 L -24.8139,-410.01 L 24.8139,-410.01 z
M -24.7512,-411.008 L -25.2495,-411.071 L -25.7361,-411.196 L -26.2031,-411.381 L -26.6433,-411.623 L -27.0497,-411.918
 L -27.4159,-412.262 L -27.7361,-412.649 L -28.0052,-413.073 L -28.2191,-413.528 L -28.3743,-414.005 L -28.4684,-414.499
 L -28.5,-415 L -28.5,-449 L -28.4684,-449.501 L -28.3743,-449.995 L -28.2191,-450.472 L -28.0052,-450.927
 L -27.7361,-451.351 L -27.4159,-451.738 L -27.0497,-452.082 L -26.6433,-452.377 L -26.2031,-452.619 L -25.7361,-452.804
 L -25.2495,-452.929 L -24.7512,-452.992 L 24.7512,-452.992 L 25.2495,-452.929 L 25.7361,-452.804 L 26.2031,-452.619
 L 26.6433,-452.377 L 27.0497,-452.082 L 27.4159,-451.738 L 27.7361,-451.351 L 28.0052,-450.927 L 28.2191,-450.472
 L 28.3743,-449.995 L 28.4684,-449.501 L 28.5,-449 L 28.5,-415 L 28.4684,-414.499 L 28.3743,-414.005
 L 28.2191,-413.528 L 28.0052,-413.073 L 27.7361,-412.649 L 27.4159,-412.262 L 27.0497,-411.918 L 26.6433,-411.623
 L 26.2031,-411.381 L 25.7361,-411.196 L 25.2495,-411.071 L 24.7512,-411.008 z
M 25.4369,-356.089 L 26.0451,-356.245 L 26.6289,-356.476 L 27.1791,-356.778 L 27.6871,-357.147 L 28.1448,-357.577
 L 28.5451,-358.061 L 28.8815,-358.591 L 29.1489,-359.159 L 29.3429,-359.757 L 29.4606,-360.373 L 29.5,-361
 L 29.5,-395 L 29.4606,-395.627 L 29.3429,-396.243 L 29.1489,-396.841 L 28.8815,-397.409 L 28.5451,-397.939
 L 28.1448,-398.423 L 27.6871,-398.853 L 27.1791,-399.222 L 26.6289,-399.524 L 26.0451,-399.755 L 25.4369,-399.911
 L 24.8139,-399.99 L -24.8139,-399.99 L -25.4369,-399.911 L -26.0451,-399.755 L -26.6289,-399.524 L -27.1791,-399.222
 L -27.6871,-398.853 L -28.1448,-398.423 L -28.5451,-397.939 L -28.8815,-397.409 L -29.1489,-396.841 L -29.3429,-396.243
 L -29.4606,-395.627 L -29.5,-395 L -29.5,-361 L -29.4606,-360.373 L -29.3429,-359.757 L -29.1489,-359.159
 L -28.8815,-358.591 L -28.5451,-358.061 L -28.1448,-357.577 L -27.6871,-357.147 L -27.1791,-356.778 L -26.6289,-356.476
 L -26.0451,-356.245 L -25.4369,-356.089 L -24.8139,-356.01 L 24.8139,-356.01 z
M -24.7512,-357.008 L -25.2495,-357.071 L -25.7361,-357.196 L -26.2031,-357.381 L -26.6433,-357.623 L -27.0497,-357.918
 L -27.4159,-358.262 L -27.7361,-358.649 L -28.0052,-359.073 L -28.2191,-359.528 L -28.3743,-360.005 L -28.4684,-360.499
 L -28.5,-361 L -28.5,-395 L -28.4684,-395.501 L -28.3743,-395.995 L -28.2191,-396.472 L -28.0052,-396.927
 L -27.7361,-397.351 L -27.4159,-397.738 L -27.0497,-398.082 L -26.6433,-398.377 L -26.2031,-398.619 L -25.7361,-398.804
 L -25.2495,-398.929 L -24.7512,-398.992 L 24.7512,-398.992 L 25.2495,-398.929 L 25.7361,-398.804 L 26.2031,-398.619
 L 26.6433,-398.377 L 27.0497,-398.082 L 27.4159,-397.738 L 27.7361,-397.351 L 28.0052,-396.927 L 28.2191,-396.472
 L 28.3743,-395.995 L 28.4684,-395.501 L 28.5,-395 L 28.5,-361 L 28.4684,-360.499 L 28.3743,-360.005
 L 28.2191,-359.528 L 28.0052,-359.073 L 27.7361,-358.649 L 27.4159,-358.262 L 27.0497,-357.918 L 26.6433,-357.623
 L 26.2031,-357.381 L 25.7361,-357.196 L 25.2495,-357.071 L 24.7512,-357.008 z
M 25.4369,-302.089 L 26.0451,-302.245 L 26.6289,-302.476 L 27.1791,-302.778 L 27.6871,-303.147 L 28.1448,-303.577
 L 28.5451,-304.061 L 28.8815,-304.591 L 29.1489,-305.159 L 29.3429,-305.757 L 29.4606,-306.373 L 29.5,-307
 L 29.5,-341 L 29.4606,-341.627 L 29.3429,-342.243 L 29.1489,-342.841 L 28.8815,-343.409 L 28.5451,-343.939
 L 28.1448,-344.423 L 27.6871,-344.853 L 27.1791,-345.222 L 26.6289,-345.524 L 26.0451,-345.755 L 25.4369,-345.911
 L 24.8139,-345.99 L -24.8139,-345.99 L -25.4369,-345.911 L -26.0451,-345.755 L -26.6289,-345.524 L -27.1791,-345.222
 L -27.6871,-344.853 L -28.1448,-344.423 L -28.5451,-343.939 L -28.8815,-343.409 L -29.1489,-342.841 L -29.3429,-342.243
 L -29.4606,-341.627 L -29.5,-341 L -29.5,-307 L -29.4606,-306.373 L -29.3429,-305.757 L -29.1489,-305.159
 L -28.8815,-304.591 L -28.5451,-304.061 L -28.1448,-303.577 L -27.6871,-303.147 L -27.1791,-302.778 L -26.6289,-302.476
 L -26.0451,-302.245 L -25.4369,-302.089 L -24.8139,-302.01 L 24.8139,-302.01 z
M -24.6954,-303.893 L -25.0833,-303.942 L -25.4619,-304.039 L -25.8254,-304.183 L -26.168,-304.372 L -26.4842,-304.601
 L -26.7692,-304.869 L -27.0184,-305.17 L -27.2279,-305.5 L -27.3943,-305.854 L -27.5151,-306.226 L -27.5884,-306.61
 L -27.6129,-307 L -27.6129,-341 L -27.5884,-341.39 L -27.5151,-341.774 L -27.3943,-342.146 L -27.2279,-342.5
 L -27.0184,-342.83 L -26.7692,-343.131 L -26.4842,-343.399 L -26.168,-343.628 L -25.8254,-343.817 L -25.4619,-343.961
 L -25.0833,-344.058 L -24.6954,-344.107 L 24.6954,-344.107 L 25.0833,-344.058 L 25.4619,-343.961 L 25.8254,-343.817
 L 26.168,-343.628 L 26.4842,-343.399 L 26.7692,-343.131 L 27.0184,-342.83 L 27.2279,-342.5 L 27.3943,-342.146
 L 27.5151,-341.774 L 27.5884,-341.39 L 27.6129,-341 L 27.6129,-307 L 27.5884,-306.61 L 27.5151,-306.226
 L 27.3943,-305.854 L 27.2279,-305.5 L 27.0184,-305.17 L 26.7692,-304.869 L 26.4842,-304.601 L 26.168,-304.372
 L 25.8254,-304.183 L 25.4619,-304.039 L 25.0833,-303.942 L 24.6954,-303.893 z
M 25.4369,-248.089 L 26.0451,-248.245 L 26.6289,-248.476 L 27.1791,-248.778 L 27.6871,-249.147 L 28.1448,-249.577
 L 28.5451,-250.061 L 28.8815,-250.591 L 29.1489,-251.159 L 29.3429,-251.757 L 29.4606,-252.373 L 29.5,-253
 L 29.5,-287 L 29.4606,-287.627 L 29.3429,-288.243 L 29.1489,-288.841 L 28.8815,-289.409 L 28.5451,-289.939
 L 28.1448,-290.423 L 27.6871,-290.853 L 27.1791,-291.222 L 26.6289,-291.524 L 26.0451,-291.755 L 25.4369,-291.911
 L 24.8139,-291.99 L -24.8139,-291.99 L -25.4369,-291.911 L -26.0451,-291.755 L -26.6289,-291.524 L -27.1791,-291.222
 L -27.6871,-290.853 L -28.1448,-290.423 L -28.5451,-289.939 L -28.8815,-289.409 L -29.1489,-288.841 L -29.3429,-288.243
 L -29.4606,-287.627 L -29.5,-287 L -29.5,-253 L -29.4606,-252.373 L -29.3429,-251.757 L -29.1489,-251.159
 L -28.8815,-250.591 L -28.5451,-250.061 L -28.1448,-249.577 L -27.6871,-249.147 L -27.1791,-248.778 L -26.6289,-248.476
 L -26.0451,-248.245 L -25.4369,-248.089 L -24.8139,-248.01 L 24.8139,-248.01 z
M -22.6507,-282.605 L -22.9497,-282.643 L -23.2416,-282.717 L -23.5219,-282.828 L -23.786,-282.974 L -24.0298,-283.151
 L -24.2495,-283.357 L -24.4416,-283.589 L -24.6031,-283.844 L -24.7315,-284.117 L -24.8246,-284.403 L -24.8811,-284.699
 L -24.9,-285 L -24.8811,-285.301 L -24.8246,-285.597 L -24.7315,-285.883 L -24.6031,-286.156 L -24.4416,-286.411
 L -24.2495,-286.643 L -24.0298,-286.849 L -23.786,-287.026 L -23.5219,-287.172 L -23.2416,-287.283 L -22.9497,-287.357
 L -22.6507,-287.395 L -22.3493,-287.395 L -22.0503,-287.357 L -21.7583,-287.283 L -21.4781,-287.172 L -21.214,-287.026
 L -20.9702,-286.849 L -20.7505,-286.643 L -20.5583,-286.411 L -20.3969,-286.156 L -20.2685,-285.883 L -20.1754,-285.597
 L -20.1189,-285.301 L -20.1,-285 L -20.1189,-284.699 L -20.1754,-284.403 L -20.2685,-284.117 L -20.3969,-283.844
 L -20.5583,-283.589 L -20.7505,-283.357 L -20.9702,-283.151 L -21.214,-282.974 L -21.4781,-282.828 L -21.7583,-282.717
 L -22.0503,-282.643 L -22.3493,-282.605 z
M 22.3493,-282.605 L 22.0503,-282.643 L 21.7583,-282.717 L 21.4781,-282.828 L 21.214,-282.974 L 20.9702,-283.151
 L 20.7505,-283.357 L 20.5583,-283.589 L 20.3969,-283.844 L 20.2685,-284.117 L 20.1754,-284.403 L 20.1189,-284.699
 L 20.1,-285 L 20.1189,-285.301 L 20.1754,-285.597 L 20.2685,-285.883 L 20.3969,-286.156 L 20.5583,-286.411
 L 20.7505,-286.643 L 20.9702,-286.849 L 21.214,-287.026 L 21.4781,-287.172 L 21.7583,-287.283 L 22.0503,-287.357
 L 22.3493,-287.395 L 22.6507,-287.395 L 22.9497,-287.357 L 23.2416,-287.283 L 23.5219,-287.172 L 23.786,-287.026
 L 24.0298,-286.849 L 24.2495,-286.643 L 24.4416,-286.411 L 24.6031,-286.156 L 24.7315,-285.883 L 24.8246,-285.597
 L 24.8811,-285.301 L 24.9,-285 L 24.8811,-284.699 L 24.8246,-284.403 L 24.7315,-284.117 L 24.6031,-283.844
 L 24.4416,-283.589 L 24.2495,-283.357 L 24.0298,-283.151 L 23.786,-282.974 L 23.5219,-282.828 L 23.2416,-282.717
 L 22.9497,-282.643 L 22.6507,-282.605 z
M 22.3493,-252.605 L 22.0503,-252.643 L 21.7583,-252.717 L 21.4781,-252.828 L 21.214,-252.974 L 20.9702,-253.151
 L 20.7505,-253.357 L 20.5583,-253.589 L 20.3969,-253.844 L 20.2685,-254.117 L 20.1754,-254.403 L 20.1189,-254.699
 L 20.1,-255 L 20.1189,-255.301 L 20.1754,-255.597 L 20.2685,-255.883 L 20.3969,-256.156 L 20.5583,-256.411
 L 20.7505,-256.643 L 20.9702,-256.849 L 21.214,-257.026 L 21.4781,-257.172 L 21.7583,-257.283 L 22.0503,-257.357
 L 22.3493,-257.395 L 22.6507,-257.395 L 22.9497,-257.357 L 23.2416,-257.283 L 23.5219,-257.172 L 23.786,-257.026
 L 24.0298,-256.849 L 24.2495,-256.643 L 24.4416,-256.411 L 24.6031,-256.156 L 24.7315,-255.883 L 24.8246,-255.597
 L 24.8811,-255.301 L 24.9,-255 L 24.8811,-254.699 L 24.8246,-254.403 L 24.7315,-254.117 L 24.6031,-253.844
 L 24.4416,-253.589 L 24.2495,-253.357 L 24.0298,-253.151 L 23.786,-252.974 L 23.5219,-252.828 L 23.2416,-252.717
 L 22.9497,-252.643 L 22.6507,-252.605 z
M -22.6507,-252.605 L -22.9497,-252.643 L -23.2416,-252.717 L -23.5219,-252.828 L -23.786,-252.974 L -24.0298,-253.151
 L -24.2495,-253.357 L -24.4416,-253.589 L -24.6031,-253.844 L -24.7315,-254.117 L -24.8246,-254.403 L -24.8811,-254.699
 L -24.9,-255 L -24.8811,-255.301 L -24.8246,-255.597 L -24.7315,-255.883 L -24.6031,-256.156 L -24.4416,-256.411
 L -24.2495,-256.643 L -24.0298,-256.849 L -23.786,-257.026 L -23.5219,-257.172 L -23.2416,-257.283 L -22.9497,-257.357
 L -22.6507,-257.395 L -22.3493,-257.395 L -22.0503,-257.357 L -21.7583,-257.283 L -21.4781,-257.172 L -21.214,-257.026
 L -20.9702,-256.849 L -20.7505,-256.643 L -20.5583,-256.411 L -20.3969,-256.156 L -20.2685,-255.883 L -20.1754,-255.597
 L -20.1189,-255.301 L -20.1,-255 L -20.1189,-254.699 L -20.1754,-254.403 L -20.2685,-254.117 L -20.3969,-253.844
 L -20.5583,-253.589 L -20.7505,-253.357 L -20.9702,-253.151 L -21.214,-252.974 L -21.4781,-252.828 L -21.7583,-252.717
 L -22.0503,-252.643 L -22.3493,-252.605 z
" stroke="black" fill="lightgray" stroke-width="0.5"/>
</svg>
