<?xml version="1.0" standalone="no"?>
<!DOCTYPE svg PUBLIC "-//W3C//DTD SVG 1.1//EN" "http://www.w3.org/Graphics/SVG/1.1/DTD/svg11.dtd">
<svg width="60mm" height="198mm" viewBox="-30 -306 60 198" xmlns="http://www.w3.org/2000/svg" version="1.1">
<title>OpenSCAD Model</title>
<path d="
M 25.9369,-246.089 L 26.5451,-246.245 L 27.1289,-246.476 L 27.6791,-246.778 L 28.1871,-247.147 L 28.6448,-247.577
 L 29.0451,-248.061 L 29.3815,-248.591 L 29.6489,-249.159 L 29.8429,-249.757 L 29.9606,-250.373 L 30,-251
 L 30,-301 L 29.9606,-301.627 L 29.8429,-302.243 L 29.6489,-302.841 L 29.3815,-303.409 L 29.0451,-303.939
 L 28.6448,-304.423 L 28.1871,-304.853 L 27.6791,-305.222 L 27.1289,-305.524 L 26.5451,-305.755 L 25.9369,-305.911
 L 25.3139,-305.99 L -25.3139,-305.99 L -25.9369,-305.911 L -26.5451,-305.755 L -27.1289,-305.524 L -27.6791,-305.222
 L -28.1871,-304.853 L -28.6448,-304.423 L -29.0451,-303.939 L -29.3815,-303.409 L -29.6489,-302.841 L -29.8429,-302.243
 L -29.9606,-301.627 L -30,-301 L -30,-251 L -29.9606,-250.373 L -29.8429,-249.757 L -29.6489,-249.159
 L -29.3815,-248.591 L -29.0451,-248.061 L -28.6448,-247.577 L -28.1871,-247.147 L -27.6791,-246.778 L -27.1289,-246.476
 L -26.5451,-246.245 L -25.9369,-246.089 L -25.3139,-246.01 L 25.3139,-246.01 z
M -25.0482,-246.509 L -25.6401,-246.584 L -26.2178,-246.732 L -26.7724,-246.952 L -27.2952,-247.239 L -27.7778,-247.59
 L -28.2126,-247.998 L -28.5928,-248.458 L -28.9124,-248.962 L -29.1664,-249.501 L -29.3508,-250.069 L -29.4625,-250.655
 L -29.5,-251.25 L -29.5,-300.75 L -29.4625,-301.345 L -29.3508,-301.931 L -29.1664,-302.499 L -28.9124,-303.038
 L -28.5928,-303.542 L -28.2126,-304.002 L -27.7778,-304.41 L -27.2952,-304.761 L -26.7724,-305.048 L -26.2178,-305.268
 L -25.6401,-305.416 L -25.0482,-305.491 L 25.0482,-305.491 L 25.6401,-305.416 L 26.2178,-305.268 L 26.7724,-305.048
 L 27.2952,-304.761 L 27.7778,-304.41 L 28.2126,-304.002 L 28.5928,-303.542 L 28.9124,-303.038 L 29.1664,-302.499
 L 29.3508,-301.931 L 29.4625,-301.345 L 29.5,-300.75 L 29.5,-251.25 L 29.4625,-250.655 L 29.3508,-250.069
 L 29.1664,-249.501 L 28.9124,-248.962 L 28.5928,-248.458 L 28.2126,-247.998 L 27.7778,-247.59 L 27.2952,-247.239
 L 26.7724,-246.952 L 26.2178,-246.732 L 25.6401,-246.584 L 25.0482,-246.509 z
M 25.9369,-177.089 L 26.5451,-177.245 L 27.1289,-177.476 L 27.6791,-177.778 L 28.1871,-178.147 L 28.6448,-178.577
 L 29.0451,-179.061 L 29.3815,-179.591 L 29.6489,-180.159 L 29.8429,-180.757 L 29.9606,-181.373 L 30,-182
 L 30,-232 L 29.9606,-232.627 L 29.8429,-233.243 L 29.6489,-233.841 L 29.3815,-234.409 L 29.0451,-234.939
 L 28.6448,-235.423 L 28.1871,-235.853 L 27.6791,-236.222 L 27.1289,-236.524 L 26.5451,-236.755 L 25.9369,-236.911
 L 25.3139,-236.99 L -25.3139,-236.99 L -25.9369,-236.911 L -26.5451,-236.755 L -27.1289,-236.524 L -27.6791,-236.222
 L -28.1871,-235.853 L -28.6448,-235.423 L -29.0451,-234.939 L -29.3815,-234.409 L -29.6489,-233.841 L -29.8429,-233.243
 L -29.9606,-232.627 L -30,-232 L -30,-182 L -29.9606,-181.373 L -29.8429,-180.757 L -29.6489,-180.159
 L -29.3815,-179.591 L -29.0451,-179.061 L -28.6448,-178.577 L -28.1871,-178.147 L -27.6791,-177.778 L -27.1289,-177.476
 L -26.5451,-177.245 L -25.9369,-177.089 L -25.3139,-177.01 L 25.3139,-177.01 z
M -24.993,-178.388 L -25.4751,-178.449 L -25.9457,-178.57 L -26.3975,-178.749 L -26.8234,-178.983 L -27.2165,-179.269
 L -27.5707,-179.601 L -27.8805,-179.976 L -28.1408,-180.386 L -28.3477,-180.826 L -28.4979,-181.288 L -28.589,-181.765
 L -28.6195,-182.25 L -28.6195,-231.75 L -28.589,-232.235 L -28.4979,-232.712 L -28.3477,-233.174 L -28.1408,-233.614
 L -27.8805,-234.024 L -27.5707,-234.399 L -27.2165,-234.731 L -26.8234,-235.017 L -26.3975,-235.251 L -25.9457,-235.43
 L -25.4751,-235.551 L -24.993,-235.612 L 24.993,-235.612 L 25.4751,-235.551 L 25.9457,-235.43 L 26.3975,-235.251
 L 26.8234,-235.017 L 27.2165,-234.731 L 27.5707,-234.399 L 27.8805,-234.024 L 28.1408,-233.614 L 28.3477,-233.174
 L 28.4979,-232.712 L 28.589,-232.235 L 28.6195,-231.75 L 28.6195,-182.25 L 28.589,-181.765 L 28.4979,-181.288
 L 28.3477,-180.826 L 28.1408,-180.386 L 27.8805,-179.976 L 27.5707,-179.601 L 27.2165,-179.269 L 26.8234,-178.983
 L 26.3975,-178.749 L 25.9457,-178.57 L 25.4751,-178.449 L 24.993,-178.388 z
M 25.9369,-108.089 L 26.5451,-108.245 L 27.1289,-108.476 L 27.6791,-108.778 L 28.1871,-109.147 L 28.6448,-109.577
 L 29.0451,-110.061 L 29.3815,-110.591 L 29.6489,-111.159 L 29.8429,-111.757 L 29.9606,-112.373 L 30,-113
 L 30,-163 L 29.9606,-163.627 L 29.8429,-164.243 L 29.6489,-164.841 L 29.3815,-165.409 L 29.0451,-165.939
 L 28.6448,-166.423 L 28.1871,-166.853 L 27.6791,-167.222 L 27.1289,-167.524 L 26.5451,-167.755 L 25.9369,-167.911
 L 25.3139,-167.99 L -25.3139,-167.99 L -25.9369,-167.911 L -26.5451,-167.755 L -27.1289,-167.524 L -27.6791,-167.222
 L -28.1871,-166.853 L -28.6448,-166.423 L -29.0451,-165.939 L -29.3815,-165.409 L -29.6489,-164.841 L -29.8429,-164.243
 L -29.9606,-163.627 L -30,-163 L -30,-113 L -29.9606,-112.373 L -29.8429,-111.757 L -29.6489,-111.159
 L -29.3815,-110.591 L -29.0451,-110.061 L -28.6448,-109.577 L -28.1871,-109.147 L -27.6791,-108.778 L -27.1289,-108.476
 L -26.5451,-108.245 L -25.9369,-108.089 L -25.3139,-108.01 L 25.3139,-108.01 z
M 22.4058,-159.003 L 22.2189,-159.027 L 22.0365,-159.073 L 21.8613,-159.143 L 21.6963,-159.234 L 21.5439,-159.344
 L 21.4065,-159.473 L 21.2865,-159.618 L 21.1855,-159.777 L 21.1053,-159.948 L 21.0471,-160.127 L 21.0118,-160.312
 L 21,-160.5 L 21.0118,-160.688 L 21.0471,-160.873 L 21.1053,-161.052 L 21.1855,-161.223 L 21.2865,-161.382
 L 21.4065,-161.527 L 21.5439,-161.656 L 21.6963,-161.766 L 21.8613,-161.857 L 22.0365,-161.927 L 22.2189,-161.973
 L 22.4058,-161.997 L 22.5942,-161.997 L 22.7811,-161.973 L 22.9635,-161.927 L 23.1387,-161.857 L 23.3037,-161.766
 L 23.4561,-161.656 L 23.5934,-161.527 L 23.7135,-161.382 L 23.8145,-161.223 L 23.8947,-161.052 L 23.9529,-160.873
 L 23.9882,-160.688 L 24,-160.5 L 23.9882,-160.312 L 23.9529,-160.127 L 23.8947,-159.948 L 23.8145,-159.777
 L 23.7135,-159.618 L 23.5934,-159.473 L 23.4561,-159.344 L 23.3037,-159.234 L 23.1387,-159.143 L 22.9635,-159.073
 L 22.7811,-159.027 L 22.5942,-159.003 z
M -22.5942,-159.003 L -22.7811,-159.027 L -22.9635,-159.073 L -23.1387,-159.143 L -23.3037,-159.234 L -23.4561,-159.344
 L -23.5934,-159.473 L -23.7135,-159.618 L -23.8145,-159.777 L -23.8947,-159.948 L -23.9529,-160.127 L -23.9882,-160.312
 L -24,-160.5 L -23.9882,-160.688 L -23.9529,-160.873 L -23.8947,-161.052 L -23.8145,-161.223 L -23.7135,-161.382
 L -23.5934,-161.527 L -23.4561,-161.656 L -23.3037,-161.766 L -23.1387,-161.857 L -22.9635,-161.927 L -22.7811,-161.973
 L -22.5942,-161.997 L -22.4058,-161.997 L -22.2189,-161.973 L -22.0365,-161.927 L -21.8613,-161.857 L -21.6963,-161.766
 L -21.5439,-161.656 L -21.4065,-161.527 L -21.2865,-161.382 L -21.1855,-161.223 L -21.1053,-161.052 L -21.0471,-160.873
 L -21.0118,-160.688 L -21,-160.5 L -21.0118,-160.312 L -21.0471,-160.127 L -21.1053,-159.948 L -21.1855,-159.777
 L -21.2865,-159.618 L -21.4065,-159.473 L -21.5439,-159.344 L -21.6963,-159.234 L -21.8613,-159.143 L -22.0365,-159.073
 L -22.2189,-159.027 L -22.4058,-159.003 z
M -22.5942,-114.003 L -22.7811,-114.027 L -22.9635,-114.073 L -23.1387,-114.143 L -23.3037,-114.234 L -23.4561,-114.344
 L -23.5934,-114.473 L -23.7135,-114.618 L -23.8145,-114.777 L -23.8947,-114.948 L -23.9529,-115.127 L -23.9882,-115.312
 L -24,-115.5 L -23.9882,-115.688 L -23.9529,-115.873 L -23.8947,-116.052 L -23.8145,-116.223 L -23.7135,-116.382
 L -23.5934,-116.527 L -23.4561,-116.656 L -23.3037,-116.766 L -23.1387,-116.857 L -22.9635,-116.927 L -22.7811,-116.973
 L -22.5942,-116.997 L -22.4058,-116.997 L -22.2189,-116.973 L -22.0365,-116.927 L -21.8613,-116.857 L -21.6963,-116.766
 L -21.5439,-116.656 L -21.4065,-116.527 L -21.2865,-116.382 L -21.1855,-116.223 L -21.1053,-116.052 L -21.0471,-115.873
 L -21.0118,-115.688 L -21,-115.5 L -21.0118,-115.312 L -21.0471,-115.127 L -21.1053,-114.948 L -21.1855,-114.777
 L -21.2865,-114.618 L -21.4065,-114.473 L -21.5439,-114.344 L -21.6963,-114.234 L -21.8613,-114.143 L -22.0365,-114.073
 L -22.2189,-114.027 L -22.4058,-114.003 z
M 22.4058,-114.003 L 22.2189,-114.027 L 22.0365,-114.073 L 21.8613,-114.143 L 21.6963,-114.234 L 21.5439,-114.344
 L 21.4065,-114.473 L 21.2865,-114.618 L 21.1855,-114.777 L 21.1053,-114.948 L 21.0471,-115.127 L 21.0118,-115.312
 L 21,-115.5 L 21.0118,-115.688 L 21.0471,-115.873 L 21.1053,-116.052 L 21.1855,-116.223 L 21.2865,-116.382
 L 21.4065,-116.527 L 21.5439,-116.656 L 21.6963,-116.766 L 21.8613,-116.857 L 22.0365,-116.927 L 22.2189,-116.973
 L 22.4058,-116.997 L 22.5942,-116.997 L 22.7811,-116.973 L 22.9635,-116.927 L 23.1387,-116.857 L 23.3037,-116.766
 L 23.4561,-116.656 L 23.5934,-116.527 L 23.7135,-116.382 L 23.8145,-116.223 L 23.8947,-116.052 L 23.9529,-115.873
 L 23.9882,-115.688 L 24,-115.5 L 23.9882,-115.312 L 23.9529,-115.127 L 23.8947,-114.948 L 23.8145,-114.777
 L 23.7135,-114.618 L 23.5934,-114.473 L 23.4561,-114.344 L 23.3037,-114.234 L 23.1387,-114.143 L 22.9635,-114.073
 L 22.7811,-114.027 L 22.5942,-114.003 z
" stroke="black" fill="lightgray" stroke-width="0.5"/>
</svg>
