<?xml version="1.0" standalone="no"?>
<!DOCTYPE svg PUBLIC "-//W3C//DTD SVG 1.1//EN" "http://www.w3.org/Graphics/SVG/1.1/DTD/svg11.dtd">
<svg width="44mm" height="260mm" viewBox="-22 -508 44 260" xmlns="http://www.w3.org/2000/svg" version="1.1">
<title>OpenSCAD Model</title>
<path d="
M 17.9369,-464.089 L 18.5451,-464.245 L 19.1289,-464.476 L 19.6791,-464.778 L 20.1871,-465.147 L 20.6448,-465.577
 L 21.0451,-466.061 L 21.3815,-466.591 L 21.6489,-467.159 L 21.8429,-467.757 L 21.9606,-468.373 L 22,-469
 L 22,-503 L 21.9606,-503.627 L 21.8429,-504.243 L 21.6489,-504.841 L 21.3815,-505.409 L 21.0451,-505.939
 L 20.6448,-506.423 L 20.1871,-506.853 L 19.6791,-507.222 L 19.1289,-507.524 L 18.5451,-507.755 L 17.9369,-507.911
 L 17.3139,-507.99 L -17.3139,-507.99 L -17.9369,-507.911 L -18.5451,-507.755 L -19.1289,-507.524 L -19.6791,-507.222
 L -20.1871,-506.853 L -20.6448,-506.423 L -21.0451,-505.939 L -21.3815,-505.409 L -21.6489,-504.841 L -21.8429,-504.243
 L -21.9606,-503.627 L -22,-503 L -22,-469 L -21.9606,-468.373 L -21.8429,-467.757 L -21.6489,-467.159
 L -21.3815,-466.591 L -21.0451,-466.061 L -20.6448,-465.577 L -20.1871,-465.147 L -19.6791,-464.778 L -19.1289,-464.476
 L -18.5451,-464.245 L -17.9369,-464.089 L -17.3139,-464.01 L 17.3139,-464.01 z
M -17.0482,-464.509 L -17.6401,-464.584 L -18.2178,-464.732 L -18.7724,-464.952 L -19.2952,-465.239 L -19.7778,-465.59
 L -20.2126,-465.998 L -20.5928,-466.458 L -20.9124,-466.962 L -21.1664,-467.501 L -21.3508,-468.069 L -21.4625,-468.655
 L -21.5,-469.25 L -21.5,-502.75 L -21.4625,-503.345 L -21.3508,-503.931 L -21.1664,-504.499 L -20.9124,-505.038
 L -20.5928,-505.542 L -20.2126,-506.002 L -19.7778,-506.41 L -19.2952,-506.761 L -18.7724,-507.048 L -18.2178,-507.268
 L -17.6401,-507.416 L -17.0482,-507.491 L 17.0482,-507.491 L 17.6401,-507.416 L 18.2178,-507.268 L 18.7724,-507.048
 L 19.2952,-506.761 L 19.7778,-506.41 L 20.2126,-506.002 L 20.5928,-505.542 L 20.9124,-505.038 L 21.1664,-504.499
 L 21.3508,-503.931 L 21.4625,-503.345 L 21.5,-502.75 L 21.5,-469.25 L 21.4625,-468.655 L 21.3508,-468.069
 L 21.1664,-467.501 L 20.9124,-466.962 L 20.5928,-466.458 L 20.2126,-465.998 L 19.7778,-465.59 L 19.2952,-465.239
 L 18.7724,-464.952 L 18.2178,-464.732 L 17.6401,-464.584 L 17.0482,-464.509 z
M 17.9369,-410.089 L 18.5451,-410.245 L 19.1289,-410.476 L 19.6791,-410.778 L 20.1871,-411.147 L 20.6448,-411.577
 L 21.0451,-412.061 L 21.3815,-412.591 L 21.6489,-413.159 L 21.8429,-413.757 L 21.9606,-414.373 L 22,-415
 L 22,-449 L 21.9606,-449.627 L 21.8429,-450.243 L 21.6489,-450.841 L 21.3815,-451.409 L 21.0451,-451.939
 L 20.6448,-452.423 L 20.1871,-452.853 L 19.6791,-453.222 L 19.1289,-453.524 L 18.5451,-453.755 L 17.9369,-453.911
 L 17.3139,-453.99 L -17.3139,-453.99 L -17.9369,-453.911 L -18.5451,-453.755 L -19.1289,-453.524 L -19.6791,-453.222
 L -20.1871,-452.853 L -20.6448,-452.423 L -21.0451,-451.939 L -21.3815,-451.409 L -21.6489,-450.841 L -21.8429,-450.243
 L -21.9606,-449.627 L -22,-449 L -22,-415 L -21.9606,-414.373 L -21.8429,-413.757 L -21.6489,-413.159
 L -21.3815,-412.591 L -21.0451,-412.061 L -20.6448,-411.577 L -20.1871,-411.147 L -19.6791,-410.778 L -19.1289,-410.476
 L -18.5451,-410.245 L -17.9369,-410.089 L -17.3139,-410.01 L 17.3139,-410.01 z
M -17.0482,-410.509 L -17.6401,-410.584 L -18.2178,-410.732 L -18.7724,-410.952 L -19.2952,-411.239 L -19.7778,-411.59
 L -20.2126,-411.998 L -20.5928,-412.458 L -20.9124,-412.962 L -21.1664,-413.501 L -21.3508,-414.069 L -21.4625,-414.655
 L -21.5,-415.25 L -21.5,-448.75 L -21.4625,-449.345 L -21.3508,-449.931 L -21.1664,-450.499 L -20.9124,-451.038
 L -20.5928,-451.542 L -20.2126,-452.002 L -19.7778,-452.41 L -19.2952,-452.761 L -18.7724,-453.048 L -18.2178,-453.268
 L -17.6401,-453.416 L -17.0482,-453.491 L 17.0482,-453.491 L 17.6401,-453.416 L 18.2178,-453.268 L 18.7724,-453.048
 L 19.2952,-452.761 L 19.7778,-452.41 L 20.2126,-452.002 L 20.5928,-451.542 L 20.9124,-451.038 L 21.1664,-450.499
 L 21.3508,-449.931 L 21.4625,-449.345 L 21.5,-448.75 L 21.5,-415.25 L 21.4625,-414.655 L 21.3508,-414.069
 L 21.1664,-413.501 L 20.9124,-412.962 L 20.5928,-412.458 L 20.2126,-411.998 L 19.7778,-411.59 L 19.2952,-411.239
 L 18.7724,-410.952 L 18.2178,-410.732 L 17.6401,-410.584 L 17.0482,-410.509 z
M 17.9369,-356.089 L 18.5451,-356.245 L 19.1289,-356.476 L 19.6791,-356.778 L 20.1871,-357.147 L 20.6448,-357.577
 L 21.0451,-358.061 L 21.3815,-358.591 L 21.6489,-359.159 L 21.8429,-359.757 L 21.9606,-360.373 L 22,-361
 L 22,-395 L 21.9606,-395.627 L 21.8429,-396.243 L 21.6489,-396.841 L 21.3815,-397.409 L 21.0451,-397.939
 L 20.6448,-398.423 L 20.1871,-398.853 L 19.6791,-399.222 L 19.1289,-399.524 L 18.5451,-399.755 L 17.9369,-399.911
 L 17.3139,-399.99 L -17.3139,-399.99 L -17.9369,-399.911 L -18.5451,-399.755 L -19.1289,-399.524 L -19.6791,-399.222
 L -20.1871,-398.853 L -20.6448,-398.423 L -21.0451,-397.939 L -21.3815,-397.409 L -21.6489,-396.841 L -21.8429,-396.243
 L -21.9606,-395.627 L -22,-395 L -22,-361 L -21.9606,-360.373 L -21.8429,-359.757 L -21.6489,-359.159
 L -21.3815,-358.591 L -21.0451,-358.061 L -20.6448,-357.577 L -20.1871,-357.147 L -19.6791,-356.778 L -19.1289,-356.476
 L -18.5451,-356.245 L -17.9369,-356.089 L -17.3139,-356.01 L 17.3139,-356.01 z
M -17.0482,-356.509 L -17.6401,-356.584 L -18.2178,-356.732 L -18.7724,-356.952 L -19.2952,-357.239 L -19.7778,-357.59
 L -20.2126,-357.998 L -20.5928,-358.458 L -20.9124,-358.962 L -21.1664,-359.501 L -21.3508,-360.069 L -21.4625,-360.655
 L -21.5,-361.25 L -21.5,-394.75 L -21.4625,-395.345 L -21.3508,-395.931 L -21.1664,-396.499 L -20.9124,-397.038
 L -20.5928,-397.542 L -20.2126,-398.002 L -19.7778,-398.41 L -19.2952,-398.761 L -18.7724,-399.048 L -18.2178,-399.268
 L -17.6401,-399.416 L -17.0482,-399.491 L 17.0482,-399.491 L 17.6401,-399.416 L 18.2178,-399.268 L 18.7724,-399.048
 L 19.2952,-398.761 L 19.7778,-398.41 L 20.2126,-398.002 L 20.5928,-397.542 L 20.9124,-397.038 L 21.1664,-396.499
 L 21.3508,-395.931 L 21.4625,-395.345 L 21.5,-394.75 L 21.5,-361.25 L 21.4625,-360.655 L 21.3508,-360.069
 L 21.1664,-359.501 L 20.9124,-358.962 L 20.5928,-358.458 L 20.2126,-357.998 L 19.7778,-357.59 L 19.2952,-357.239
 L 18.7724,-356.952 L 18.2178,-356.732 L 17.6401,-356.584 L 17.0482,-356.509 z
M 17.9369,-302.089 L 18.5451,-302.245 L 19.1289,-302.476 L 19.6791,-302.778 L 20.1871,-303.147 L 20.6448,-303.577
 L 21.0451,-304.061 L 21.3815,-304.591 L 21.6489,-305.159 L 21.8429,-305.757 L 21.9606,-306.373 L 22,-307
 L 22,-341 L 21.9606,-341.627 L 21.8429,-342.243 L 21.6489,-342.841 L 21.3815,-343.409 L 21.0451,-343.939
 L 20.6448,-344.423 L 20.1871,-344.853 L 19.6791,-345.222 L 19.1289,-345.524 L 18.5451,-345.755 L 17.9369,-345.911
 L 17.3139,-345.99 L -17.3139,-345.99 L -17.9369,-345.911 L -18.5451,-345.755 L -19.1289,-345.524 L -19.6791,-345.222
 L -20.1871,-344.853 L -20.6448,-344.423 L -21.0451,-343.939 L -21.3815,-343.409 L -21.6489,-342.841 L -21.8429,-342.243
 L -21.9606,-341.627 L -22,-341 L -22,-307 L -21.9606,-306.373 L -21.8429,-305.757 L -21.6489,-305.159
 L -21.3815,-304.591 L -21.0451,-304.061 L -20.6448,-303.577 L -20.1871,-303.147 L -19.6791,-302.778 L -19.1289,-302.476
 L -18.5451,-302.245 L -17.9369,-302.089 L -17.3139,-302.01 L 17.3139,-302.01 z
M -17.0375,-302.681 L -17.6079,-302.753 L -18.1648,-302.896 L -18.6994,-303.107 L -19.2032,-303.384 L -19.6684,-303.722
 L -20.0875,-304.116 L -20.454,-304.559 L -20.7621,-305.044 L -21.0069,-305.565 L -21.1846,-306.111 L -21.2923,-306.676
 L -21.3284,-307.25 L -21.3284,-340.75 L -21.2923,-341.324 L -21.1846,-341.889 L -21.0069,-342.435 L -20.7621,-342.956
 L -20.454,-343.441 L -20.0875,-343.884 L -19.6684,-344.278 L -19.2032,-344.616 L -18.6994,-344.893 L -18.1648,-345.104
 L -17.6079,-345.247 L -17.0375,-345.319 L 17.0375,-345.319 L 17.6079,-345.247 L 18.1648,-345.104 L 18.6994,-344.893
 L 19.2032,-344.616 L 19.6684,-344.278 L 20.0875,-343.884 L 20.454,-343.441 L 20.7621,-342.956 L 21.0069,-342.435
 L 21.1846,-341.889 L 21.2923,-341.324 L 21.3284,-340.75 L 21.3284,-307.25 L 21.2923,-306.676 L 21.1846,-306.111
 L 21.0069,-305.565 L 20.7621,-305.044 L 20.454,-304.559 L 20.0875,-304.116 L 19.6684,-303.722 L 19.2032,-303.384
 L 18.6994,-303.107 L 18.1648,-302.896 L 17.6079,-302.753 L 17.0375,-302.681 z
M 17.9369,-248.089 L 18.5451,-248.245 L 19.1289,-248.476 L 19.6791,-248.778 L 20.1871,-249.147 L 20.6448,-249.577
 L 21.0451,-250.061 L 21.3815,-250.591 L 21.6489,-251.159 L 21.8429,-251.757 L 21.9606,-252.373 L 22,-253
 L 22,-287 L 21.9606,-287.627 L 21.8429,-288.243 L 21.6489,-288.841 L 21.3815,-289.409 L 21.0451,-289.939
 L 20.6448,-290.423 L 20.1871,-290.853 L 19.6791,-291.222 L 19.1289,-291.524 L 18.5451,-291.755 L 17.9369,-291.911
 L 17.3139,-291.99 L -17.3139,-291.99 L -17.9369,-291.911 L -18.5451,-291.755 L -19.1289,-291.524 L -19.6791,-291.222
 L -20.1871,-290.853 L -20.6448,-290.423 L -21.0451,-289.939 L -21.3815,-289.409 L -21.6489,-288.841 L -21.8429,-288.243
 L -21.9606,-287.627 L -22,-287 L -22,-253 L -21.9606,-252.373 L -21.8429,-251.757 L -21.6489,-251.159
 L -21.3815,-250.591 L -21.0451,-250.061 L -20.6448,-249.577 L -20.1871,-249.147 L -19.6791,-248.778 L -19.1289,-248.476
 L -18.5451,-248.245 L -17.9369,-248.089 L -17.3139,-248.01 L 17.3139,-248.01 z
M -16.8825,-251.145 L -17.1453,-251.178 L -17.4019,-251.244 L -17.6482,-251.341 L -17.8804,-251.469 L -18.0947,-251.625
 L -18.2879,-251.806 L -18.4567,-252.01 L -18.5987,-252.234 L -18.7115,-252.473 L -18.7934,-252.725 L -18.843,-252.986
 L -18.8596,-253.25 L -18.8596,-286.75 L -18.843,-287.014 L -18.7934,-287.275 L -18.7115,-287.527 L -18.5987,-287.766
 L -18.4567,-287.99 L -18.2879,-288.194 L -18.0947,-288.375 L -17.8804,-288.531 L -17.6482,-288.659 L -17.4019,-288.756
 L -17.1453,-288.822 L -16.8825,-288.855 L 16.8825,-288.855 L 17.1453,-288.822 L 17.4019,-288.756 L 17.6482,-288.659
 L 17.8804,-288.531 L 18.0947,-288.375 L 18.2879,-288.194 L 18.4567,-287.99 L 18.5987,-287.766 L 18.7115,-287.527
 L 18.7934,-287.275 L 18.843,-287.014 L 18.8596,-286.75 L 18.8596,-253.25 L 18.843,-252.986 L 18.7934,-252.725
 L 18.7115,-252.473 L 18.5987,-252.234 L 18.4567,-252.01 L 18.2879,-251.806 L 18.0947,-251.625 L 17.8804,-251.469
 L 17.6482,-251.341 L 17.4019,-251.244 L 17.1453,-251.178 L 16.8825,-251.145 z
" stroke="black" fill="lightgray" stroke-width="0.5"/>
</svg>
