<?xml version="1.0" standalone="no"?>
<!DOCTYPE svg PUBLIC "-//W3C//DTD SVG 1.1//EN" "http://www.w3.org/Graphics/SVG/1.1/DTD/svg11.dtd">
<svg width="72mm" height="27mm" viewBox="-35 -14 72 27" xmlns="http://www.w3.org/2000/svg" version="1.1">
<title>OpenSCAD Model</title>
<path d="
M 33.212,-1.2673 L 33.6743,-1.38597 L 34.118,-1.56165 L 34.5361,-1.79155 L 34.9222,-2.07204 L 35.2701,-2.39871
 L 35.5743,-2.7664 L 35.83,-3.16933 L 36.0331,-3.60112 L 36.1806,-4.05498 L 36.27,-4.52373 L 36.3,-5
 L 36.3,-10 L 36.27,-10.4763 L 36.1806,-10.945 L 36.0331,-11.3989 L 35.83,-11.8307 L 35.5743,-12.2336
 L 35.2701,-12.6013 L 34.9222,-12.9279 L 34.5361,-13.2084 L 34.118,-13.4383 L 33.6743,-13.614 L 33.212,-13.7327
 L 32.7386,-13.7925 L 27.2614,-13.7925 L 26.7879,-13.7327 L 26.3257,-13.614 L 25.882,-13.4383 L 25.4639,-13.2084
 L 25.0778,-12.9279 L 24.7299,-12.6013 L 24.4257,-12.2336 L 24.17,-11.8307 L 23.9668,-11.3989 L 23.8194,-10.945
 L 23.7299,-10.4763 L 23.7,-10 L 23.7,-5 L 23.7299,-4.52373 L 23.8194,-4.05498 L 23.9668,-3.60112
 L 24.17,-3.16933 L 24.4257,-2.7664 L 24.7299,-2.39871 L 25.0778,-2.07204 L 25.4639,-1.79155 L 25.882,-1.56165
 L 26.3257,-1.38597 L 26.7879,-1.2673 L 27.2614,-1.20749 L 32.7386,-1.20749 z
M 29.3116,-4.00591 L 28.9379,-4.05313 L 28.5729,-4.14682 L 28.2227,-4.28551 L 27.8925,-4.46701 L 27.5877,-4.68845
 L 27.3131,-4.94635 L 27.0729,-5.23663 L 26.8711,-5.55473 L 26.7107,-5.89561 L 26.5942,-6.25392 L 26.5237,-6.62399
 L 26.5,-7 L 26.5,-8 L 26.5237,-8.37599 L 26.5942,-8.74606 L 26.7107,-9.10437 L 26.8711,-9.44525
 L 27.0729,-9.76335 L 27.3131,-10.0536 L 27.5877,-10.3115 L 27.8925,-10.533 L 28.2227,-10.7145 L 28.5729,-10.8532
 L 28.9379,-10.9469 L 29.3116,-10.9941 L 30.6884,-10.9941 L 31.0621,-10.9469 L 31.427,-10.8532 L 31.7773,-10.7145
 L 32.1075,-10.533 L 32.4123,-10.3115 L 32.6869,-10.0536 L 32.927,-9.76335 L 33.1289,-9.44525 L 33.2893,-9.10437
 L 33.4057,-8.74606 L 33.4763,-8.37599 L 33.5,-8 L 33.5,-7 L 33.4763,-6.62399 L 33.4057,-6.25392
 L 33.2893,-5.89561 L 33.1289,-5.55473 L 32.927,-5.23663 L 32.6869,-4.94635 L 32.4123,-4.68845 L 32.1075,-4.46701
 L 31.7773,-4.28551 L 31.427,-4.14682 L 31.0621,-4.05313 L 30.6884,-4.00591 z
M -29.0631,12.4114 L -28.4549,12.2553 L -27.8711,12.0241 L -27.3209,11.7216 L -26.8129,11.3526 L -26.3551,10.9227
 L -25.9549,10.4389 L -25.6185,9.90877 L -25.3511,9.34062 L -25.1571,8.74344 L -25.0394,8.12666 L -25,7.5
 L -25.0394,6.87332 L -25.1571,6.25655 L -25.3511,5.65936 L -25.6185,5.09122 L -25.9549,4.56107 L -26.3551,4.07726
 L -26.8129,3.64743 L -27.3209,3.27835 L -27.8711,2.97586 L -28.4549,2.74471 L -29.0631,2.58856 L -29.686,2.50986
 L -30.3139,2.50986 L -30.9369,2.58856 L -31.5451,2.74471 L -32.1289,2.97586 L -32.6791,3.27835 L -33.1871,3.64743
 L -33.6448,4.07726 L -34.0451,4.56107 L -34.3815,5.09122 L -34.6489,5.65936 L -34.8429,6.25655 L -34.9606,6.87332
 L -35,7.5 L -34.9606,8.12666 L -34.8429,8.74344 L -34.6489,9.34062 L -34.3815,9.90877 L -34.0451,10.4389
 L -33.6448,10.9227 L -33.1871,11.3526 L -32.6791,11.7216 L -32.1289,12.0241 L -31.5451,12.2553 L -30.9369,12.4114
 L -30.3139,12.4901 L -29.686,12.4901 z
M -30.0942,8.99704 L -30.2811,8.97342 L -30.4635,8.92657 L -30.6387,8.85724 L -30.8037,8.76648 L -30.9561,8.65576
 L -31.0934,8.52681 L -31.2135,8.38167 L -31.3145,8.22263 L -31.3947,8.05219 L -31.4529,7.87303 L -31.4882,7.68799
 L -31.5,7.5 L -31.4882,7.312 L -31.4529,7.12695 L -31.3947,6.9478 L -31.3145,6.77736 L -31.2135,6.61832
 L -31.0934,6.47318 L -30.9561,6.34422 L -30.8037,6.23351 L -30.6387,6.14275 L -30.4635,6.07341 L -30.2811,6.02657
 L -30.0942,6.00294 L -29.9058,6.00294 L -29.7189,6.02657 L -29.5365,6.07341 L -29.3613,6.14275 L -29.1963,6.23351
 L -29.0439,6.34422 L -28.9065,6.47318 L -28.7865,6.61832 L -28.6855,6.77736 L -28.6053,6.9478 L -28.5471,7.12695
 L -28.5118,7.312 L -28.5,7.5 L -28.5118,7.68799 L -28.5471,7.87303 L -28.6053,8.05219 L -28.6855,8.22263
 L -28.7865,8.38167 L -28.9065,8.52681 L -29.0439,8.65576 L -29.1963,8.76648 L -29.3613,8.85724 L -29.5365,8.92657
 L -29.7189,8.97342 L -29.9058,8.99704 z
" stroke="black" fill="lightgray" stroke-width="0.5"/>
</svg>
