<?xml version="1.0" standalone="no"?>
<!DOCTYPE svg PUBLIC "-//W3C//DTD SVG 1.1//EN" "http://www.w3.org/Graphics/SVG/1.1/DTD/svg11.dtd">
<svg width="30mm" height="208mm" viewBox="-15 -347 30 208" xmlns="http://www.w3.org/2000/svg" version="1.1">
<title>OpenSCAD Model</title>
<path d="
M 10.9369,-301.589 L 11.5451,-301.745 L 12.1289,-301.976 L 12.6791,-302.278 L 13.1871,-302.647 L 13.6448,-303.077
 L 14.0451,-303.561 L 14.3815,-304.091 L 14.6489,-304.659 L 14.8429,-305.257 L 14.9606,-305.873 L 15,-306.5
 L 15,-341.5 L 14.9606,-342.127 L 14.8429,-342.743 L 14.6489,-343.341 L 14.3815,-343.909 L 14.0451,-344.439
 L 13.6448,-344.923 L 13.1871,-345.353 L 12.6791,-345.722 L 12.1289,-346.024 L 11.5451,-346.255 L 10.9369,-346.411
 L 10.3139,-346.49 L -10.3139,-346.49 L -10.9369,-346.411 L -11.5451,-346.255 L -12.1289,-346.024 L -12.6791,-345.722
 L -13.1871,-345.353 L -13.6448,-344.923 L -14.0451,-344.439 L -14.3815,-343.909 L -14.6489,-343.341 L -14.8429,-342.743
 L -14.9606,-342.127 L -15,-341.5 L -15,-306.5 L -14.9606,-305.873 L -14.8429,-305.257 L -14.6489,-304.659
 L -14.3815,-304.091 L -14.0451,-303.561 L -13.6448,-303.077 L -13.1871,-302.647 L -12.6791,-302.278 L -12.1289,-301.976
 L -11.5451,-301.745 L -10.9369,-301.589 L -10.3139,-301.51 L 10.3139,-301.51 z
M -4.81104,-302.009 L -4.32086,-302.278 L -3.81287,-302.647 L -3.35515,-303.077 L -2.95491,-303.561 L -2.61845,-304.091
 L -2.3511,-304.659 L -2.15707,-305.257 L -2.03941,-305.873 L -2,-306.5 L -2,-309.5 L -2.03941,-310.127
 L -2.15707,-310.743 L -2.3511,-311.341 L -2.61845,-311.909 L -2.95491,-312.439 L -3.35515,-312.923 L -3.81287,-313.353
 L -4.32086,-313.722 L -4.87109,-314.024 L -5.45491,-314.255 L -6.06308,-314.411 L -6.68604,-314.49 L -10.3139,-314.49
 L -10.9369,-314.411 L -11.5451,-314.255 L -12.1289,-314.024 L -12.6791,-313.722 L -13.1871,-313.353 L -13.6448,-312.923
 L -14.0451,-312.439 L -14.3815,-311.909 L -14.5,-311.657 L -14.5,-341.5 L -14.4645,-342.064 L -14.3586,-342.619
 L -14.184,-343.157 L -13.9434,-343.668 L -13.6406,-344.145 L -13.2803,-344.58 L -12.8684,-344.967 L -12.4112,-345.299
 L -11.916,-345.572 L -11.3906,-345.78 L -10.8432,-345.92 L -10.2825,-345.991 L 10.2825,-345.991 L 10.8432,-345.92
 L 11.3906,-345.78 L 11.916,-345.572 L 12.4112,-345.299 L 12.8684,-344.967 L 13.2803,-344.58 L 13.6406,-344.145
 L 13.9434,-343.668 L 14.184,-343.157 L 14.3586,-342.619 L 14.4645,-342.064 L 14.5,-341.5 L 14.5,-306.5
 L 14.4645,-305.936 L 14.3586,-305.381 L 14.184,-304.843 L 13.9434,-304.332 L 13.6406,-303.855 L 13.2803,-303.42
 L 12.8684,-303.033 L 12.4112,-302.701 L 11.916,-302.428 L 11.3906,-302.22 L 10.8432,-302.08 L 10.2825,-302.009
 z
M 7.96844,-336.544 L 8.27254,-336.622 L 8.56444,-336.738 L 8.83955,-336.889 L 9.09355,-337.074 L 9.32242,-337.289
 L 9.52254,-337.531 L 9.69077,-337.796 L 9.82443,-338.08 L 9.92145,-338.378 L 9.98029,-338.687 L 10,-339
 L 9.98029,-339.313 L 9.92145,-339.622 L 9.82443,-339.92 L 9.69077,-340.204 L 9.52254,-340.469 L 9.32242,-340.711
 L 9.09355,-340.926 L 8.83955,-341.111 L 8.56444,-341.262 L 8.27254,-341.378 L 7.96844,-341.456 L 7.65697,-341.495
 L 7.34302,-341.495 L 7.03154,-341.456 L 6.72745,-341.378 L 6.43555,-341.262 L 6.16043,-341.111 L 5.90643,-340.926
 L 5.67757,-340.711 L 5.47745,-340.469 L 5.30922,-340.204 L 5.17555,-339.92 L 5.07854,-339.622 L 5.0197,-339.313
 L 5,-339 L 5.0197,-338.687 L 5.07854,-338.378 L 5.17555,-338.08 L 5.30922,-337.796 L 5.47745,-337.531
 L 5.67757,-337.289 L 5.90643,-337.074 L 6.16043,-336.889 L 6.43555,-336.738 L 6.72745,-336.622 L 7.03154,-336.544
 L 7.34302,-336.505 L 7.65697,-336.505 z
M 7.40581,-337.503 L 7.21892,-337.527 L 7.03647,-337.573 L 6.86133,-337.643 L 6.69626,-337.734 L 6.54385,-337.844
 L 6.40654,-337.973 L 6.28647,-338.118 L 6.18553,-338.277 L 6.10533,-338.448 L 6.04712,-338.627 L 6.01183,-338.812
 L 6,-339 L 6.01183,-339.188 L 6.04712,-339.373 L 6.10533,-339.552 L 6.18553,-339.723 L 6.28647,-339.882
 L 6.40654,-340.027 L 6.54385,-340.156 L 6.69626,-340.266 L 6.86133,-340.357 L 7.03647,-340.427 L 7.21892,-340.473
 L 7.40581,-340.497 L 7.59418,-340.497 L 7.78107,-340.473 L 7.96352,-340.427 L 8.13866,-340.357 L 8.30373,-340.266
 L 8.45613,-340.156 L 8.59344,-340.027 L 8.71352,-339.882 L 8.81445,-339.723 L 8.89465,-339.552 L 8.95287,-339.373
 L 8.98816,-339.188 L 9,-339 L 8.98816,-338.812 L 8.95287,-338.627 L 8.89465,-338.448 L 8.81445,-338.277
 L 8.71352,-338.118 L 8.59344,-337.973 L 8.45613,-337.844 L 8.30373,-337.734 L 8.13866,-337.643 L 7.96352,-337.573
 L 7.78107,-337.527 L 7.59418,-337.503 z
M -7.59418,-307.503 L -7.78107,-307.527 L -7.96352,-307.573 L -8.13866,-307.643 L -8.30373,-307.734 L -8.45613,-307.844
 L -8.59344,-307.973 L -8.71352,-308.118 L -8.81445,-308.277 L -8.89465,-308.448 L -8.95287,-308.627 L -8.98816,-308.812
 L -9,-309 L -8.98816,-309.188 L -8.95287,-309.373 L -8.89465,-309.552 L -8.81445,-309.723 L -8.71352,-309.882
 L -8.59344,-310.027 L -8.45613,-310.156 L -8.30373,-310.266 L -8.13866,-310.357 L -7.96352,-310.427 L -7.78107,-310.473
 L -7.59418,-310.497 L -7.40581,-310.497 L -7.21892,-310.473 L -7.03647,-310.427 L -6.86133,-310.357 L -6.69626,-310.266
 L -6.54385,-310.156 L -6.40654,-310.027 L -6.28647,-309.882 L -6.18553,-309.723 L -6.10533,-309.552 L -6.04712,-309.373
 L -6.01183,-309.188 L -6,-309 L -6.01183,-308.812 L -6.04712,-308.627 L -6.10533,-308.448 L -6.18553,-308.277
 L -6.28647,-308.118 L -6.40654,-307.973 L -6.54385,-307.844 L -6.69626,-307.734 L -6.86133,-307.643 L -7.03647,-307.573
 L -7.21892,-307.527 L -7.40581,-307.503 z
M 10.9369,-247.589 L 11.5451,-247.745 L 12.1289,-247.976 L 12.6791,-248.278 L 13.1871,-248.647 L 13.6448,-249.077
 L 14.0451,-249.561 L 14.3815,-250.091 L 14.6489,-250.659 L 14.8429,-251.257 L 14.9606,-251.873 L 15,-252.5
 L 15,-287.5 L 14.9606,-288.127 L 14.8429,-288.743 L 14.6489,-289.341 L 14.3815,-289.909 L 14.0451,-290.439
 L 13.6448,-290.923 L 13.1871,-291.353 L 12.6791,-291.722 L 12.1289,-292.024 L 11.5451,-292.255 L 10.9369,-292.411
 L 10.3139,-292.49 L -10.3139,-292.49 L -10.9369,-292.411 L -11.5451,-292.255 L -12.1289,-292.024 L -12.6791,-291.722
 L -13.1871,-291.353 L -13.6448,-290.923 L -14.0451,-290.439 L -14.3815,-289.909 L -14.6489,-289.341 L -14.8429,-288.743
 L -14.9606,-288.127 L -15,-287.5 L -15,-252.5 L -14.9606,-251.873 L -14.8429,-251.257 L -14.6489,-250.659
 L -14.3815,-250.091 L -14.0451,-249.561 L -13.6448,-249.077 L -13.1871,-248.647 L -12.6791,-248.278 L -12.1289,-247.976
 L -11.5451,-247.745 L -10.9369,-247.589 L -10.3139,-247.51 L 10.3139,-247.51 z
M -4.81104,-248.009 L -4.32086,-248.278 L -3.81287,-248.647 L -3.35515,-249.077 L -2.95491,-249.561 L -2.61845,-250.091
 L -2.3511,-250.659 L -2.15707,-251.257 L -2.03941,-251.873 L -2,-252.5 L -2,-255.5 L -2.03941,-256.127
 L -2.15707,-256.743 L -2.3511,-257.341 L -2.61845,-257.909 L -2.95491,-258.439 L -3.35515,-258.923 L -3.81287,-259.353
 L -4.32086,-259.722 L -4.87109,-260.024 L -5.45491,-260.255 L -6.06308,-260.411 L -6.68604,-260.49 L -10.3139,-260.49
 L -10.9369,-260.411 L -11.5451,-260.255 L -12.1289,-260.024 L -12.6791,-259.722 L -13.1871,-259.353 L -13.6448,-258.923
 L -14.0451,-258.439 L -14.3815,-257.909 L -14.5,-257.657 L -14.5,-287.5 L -14.4645,-288.064 L -14.3586,-288.619
 L -14.184,-289.157 L -13.9434,-289.668 L -13.6406,-290.145 L -13.2803,-290.58 L -12.8684,-290.967 L -12.4112,-291.299
 L -11.916,-291.572 L -11.3906,-291.78 L -10.8432,-291.92 L -10.2825,-291.991 L 10.2825,-291.991 L 10.8432,-291.92
 L 11.3906,-291.78 L 11.916,-291.572 L 12.4112,-291.299 L 12.8684,-290.967 L 13.2803,-290.58 L 13.6406,-290.145
 L 13.9434,-289.668 L 14.184,-289.157 L 14.3586,-288.619 L 14.4645,-288.064 L 14.5,-287.5 L 14.5,-252.5
 L 14.4645,-251.936 L 14.3586,-251.381 L 14.184,-250.843 L 13.9434,-250.332 L 13.6406,-249.855 L 13.2803,-249.42
 L 12.8684,-249.033 L 12.4112,-248.701 L 11.916,-248.428 L 11.3906,-248.22 L 10.8432,-248.08 L 10.2825,-248.009
 z
M 7.96844,-282.544 L 8.27254,-282.622 L 8.56444,-282.738 L 8.83955,-282.889 L 9.09355,-283.074 L 9.32242,-283.289
 L 9.52254,-283.531 L 9.69077,-283.796 L 9.82443,-284.08 L 9.92145,-284.378 L 9.98029,-284.687 L 10,-285
 L 9.98029,-285.313 L 9.92145,-285.622 L 9.82443,-285.92 L 9.69077,-286.204 L 9.52254,-286.469 L 9.32242,-286.711
 L 9.09355,-286.926 L 8.83955,-287.111 L 8.56444,-287.262 L 8.27254,-287.378 L 7.96844,-287.456 L 7.65697,-287.495
 L 7.34302,-287.495 L 7.03154,-287.456 L 6.72745,-287.378 L 6.43555,-287.262 L 6.16043,-287.111 L 5.90643,-286.926
 L 5.67757,-286.711 L 5.47745,-286.469 L 5.30922,-286.204 L 5.17555,-285.92 L 5.07854,-285.622 L 5.0197,-285.313
 L 5,-285 L 5.0197,-284.687 L 5.07854,-284.378 L 5.17555,-284.08 L 5.30922,-283.796 L 5.47745,-283.531
 L 5.67757,-283.289 L 5.90643,-283.074 L 6.16043,-282.889 L 6.43555,-282.738 L 6.72745,-282.622 L 7.03154,-282.544
 L 7.34302,-282.505 L 7.65697,-282.505 z
M 7.40581,-283.503 L 7.21892,-283.527 L 7.03647,-283.573 L 6.86133,-283.643 L 6.69626,-283.734 L 6.54385,-283.844
 L 6.40654,-283.973 L 6.28647,-284.118 L 6.18553,-284.277 L 6.10533,-284.448 L 6.04712,-284.627 L 6.01183,-284.812
 L 6,-285 L 6.01183,-285.188 L 6.04712,-285.373 L 6.10533,-285.552 L 6.18553,-285.723 L 6.28647,-285.882
 L 6.40654,-286.027 L 6.54385,-286.156 L 6.69626,-286.266 L 6.86133,-286.357 L 7.03647,-286.427 L 7.21892,-286.473
 L 7.40581,-286.497 L 7.59418,-286.497 L 7.78107,-286.473 L 7.96352,-286.427 L 8.13866,-286.357 L 8.30373,-286.266
 L 8.45613,-286.156 L 8.59344,-286.027 L 8.71352,-285.882 L 8.81445,-285.723 L 8.89465,-285.552 L 8.95287,-285.373
 L 8.98816,-285.188 L 9,-285 L 8.98816,-284.812 L 8.95287,-284.627 L 8.89465,-284.448 L 8.81445,-284.277
 L 8.71352,-284.118 L 8.59344,-283.973 L 8.45613,-283.844 L 8.30373,-283.734 L 8.13866,-283.643 L 7.96352,-283.573
 L 7.78107,-283.527 L 7.59418,-283.503 z
M -7.59418,-253.503 L -7.78107,-253.527 L -7.96352,-253.573 L -8.13866,-253.643 L -8.30373,-253.734 L -8.45613,-253.844
 L -8.59344,-253.973 L -8.71352,-254.118 L -8.81445,-254.277 L -8.89465,-254.448 L -8.95287,-254.627 L -8.98816,-254.812
 L -9,-255 L -8.98816,-255.188 L -8.95287,-255.373 L -8.89465,-255.552 L -8.81445,-255.723 L -8.71352,-255.882
 L -8.59344,-256.027 L -8.45613,-256.156 L -8.30373,-256.266 L -8.13866,-256.357 L -7.96352,-256.427 L -7.78107,-256.473
 L -7.59418,-256.497 L -7.40581,-256.497 L -7.21892,-256.473 L -7.03647,-256.427 L -6.86133,-256.357 L -6.69626,-256.266
 L -6.54385,-256.156 L -6.40654,-256.027 L -6.28647,-255.882 L -6.18553,-255.723 L -6.10533,-255.552 L -6.04712,-255.373
 L -6.01183,-255.188 L -6,-255 L -6.01183,-254.812 L -6.04712,-254.627 L -6.10533,-254.448 L -6.18553,-254.277
 L -6.28647,-254.118 L -6.40654,-253.973 L -6.54385,-253.844 L -6.69626,-253.734 L -6.86133,-253.643 L -7.03647,-253.573
 L -7.21892,-253.527 L -7.40581,-253.503 z
M 10.9369,-193.589 L 11.5451,-193.745 L 12.1289,-193.976 L 12.6791,-194.278 L 13.1871,-194.647 L 13.6448,-195.077
 L 14.0451,-195.561 L 14.3815,-196.091 L 14.6489,-196.659 L 14.8429,-197.257 L 14.9606,-197.873 L 15,-198.5
 L 15,-233.5 L 14.9606,-234.127 L 14.8429,-234.743 L 14.6489,-235.341 L 14.3815,-235.909 L 14.0451,-236.439
 L 13.6448,-236.923 L 13.1871,-237.353 L 12.6791,-237.722 L 12.1289,-238.024 L 11.5451,-238.255 L 10.9369,-238.411
 L 10.3139,-238.49 L -10.3139,-238.49 L -10.9369,-238.411 L -11.5451,-238.255 L -12.1289,-238.024 L -12.6791,-237.722
 L -13.1871,-237.353 L -13.6448,-236.923 L -14.0451,-236.439 L -14.3815,-235.909 L -14.6489,-235.341 L -14.8429,-234.743
 L -14.9606,-234.127 L -15,-233.5 L -15,-198.5 L -14.9606,-197.873 L -14.8429,-197.257 L -14.6489,-196.659
 L -14.3815,-196.091 L -14.0451,-195.561 L -13.6448,-195.077 L -13.1871,-194.647 L -12.6791,-194.278 L -12.1289,-193.976
 L -11.5451,-193.745 L -10.9369,-193.589 L -10.3139,-193.51 L 10.3139,-193.51 z
M -4.03568,-194.486 L -3.81287,-194.647 L -3.35515,-195.077 L -2.95491,-195.561 L -2.61845,-196.091 L -2.3511,-196.659
 L -2.15707,-197.257 L -2.03941,-197.873 L -2,-198.5 L -2,-201.5 L -2.03941,-202.127 L -2.15707,-202.743
 L -2.3511,-203.341 L -2.61845,-203.909 L -2.95491,-204.439 L -3.35515,-204.923 L -3.81287,-205.353 L -4.32086,-205.722
 L -4.87109,-206.024 L -5.45491,-206.255 L -6.06308,-206.411 L -6.68604,-206.49 L -10.3139,-206.49 L -10.9369,-206.411
 L -11.5451,-206.255 L -12.1289,-206.024 L -12.6791,-205.722 L -13.1871,-205.353 L -13.6448,-204.923 L -14.0224,-204.466
 L -14.0224,-233.5 L -13.9907,-234.004 L -13.896,-234.5 L -13.7399,-234.981 L -13.5248,-235.438 L -13.2542,-235.864
 L -12.9322,-236.254 L -12.5639,-236.599 L -12.1553,-236.896 L -11.7126,-237.14 L -11.243,-237.326 L -10.7537,-237.451
 L -10.2526,-237.514 L 4.03568,-237.514 L 3.81287,-237.353 L 3.35515,-236.923 L 2.95491,-236.439 L 2.61845,-235.909
 L 2.3511,-235.341 L 2.15707,-234.743 L 2.03941,-234.127 L 2,-233.5 L 2,-230.5 L 2.03941,-229.873
 L 2.15707,-229.257 L 2.3511,-228.659 L 2.61845,-228.091 L 2.95491,-227.561 L 3.35515,-227.077 L 3.81287,-226.647
 L 4.32086,-226.278 L 4.87109,-225.976 L 5.45491,-225.745 L 6.06308,-225.589 L 6.68604,-225.51 L 10.3139,-225.51
 L 10.9369,-225.589 L 11.5451,-225.745 L 12.1289,-225.976 L 12.6791,-226.278 L 13.1871,-226.647 L 13.6448,-227.077
 L 14.0224,-227.534 L 14.0224,-198.5 L 13.9907,-197.996 L 13.896,-197.5 L 13.7399,-197.019 L 13.5248,-196.562
 L 13.2542,-196.136 L 12.9322,-195.746 L 12.5639,-195.401 L 12.1553,-195.104 L 11.7126,-194.86 L 11.243,-194.674
 L 10.7537,-194.549 L 10.2526,-194.486 z
M 7.40581,-229.503 L 7.21892,-229.527 L 7.03647,-229.573 L 6.86133,-229.643 L 6.69626,-229.734 L 6.54385,-229.844
 L 6.40654,-229.973 L 6.28647,-230.118 L 6.18553,-230.277 L 6.10533,-230.448 L 6.04712,-230.627 L 6.01183,-230.812
 L 6,-231 L 6.01183,-231.188 L 6.04712,-231.373 L 6.10533,-231.552 L 6.18553,-231.723 L 6.28647,-231.882
 L 6.40654,-232.027 L 6.54385,-232.156 L 6.69626,-232.266 L 6.86133,-232.357 L 7.03647,-232.427 L 7.21892,-232.473
 L 7.40581,-232.497 L 7.59418,-232.497 L 7.78107,-232.473 L 7.96352,-232.427 L 8.13866,-232.357 L 8.30373,-232.266
 L 8.45613,-232.156 L 8.59344,-232.027 L 8.71352,-231.882 L 8.81445,-231.723 L 8.89465,-231.552 L 8.95287,-231.373
 L 8.98816,-231.188 L 9,-231 L 8.98816,-230.812 L 8.95287,-230.627 L 8.89465,-230.448 L 8.81445,-230.277
 L 8.71352,-230.118 L 8.59344,-229.973 L 8.45613,-229.844 L 8.30373,-229.734 L 8.13866,-229.643 L 7.96352,-229.573
 L 7.78107,-229.527 L 7.59418,-229.503 z
M -7.59418,-199.503 L -7.78107,-199.527 L -7.96352,-199.573 L -8.13866,-199.643 L -8.30373,-199.734 L -8.45613,-199.844
 L -8.59344,-199.973 L -8.71352,-200.118 L -8.81445,-200.277 L -8.89465,-200.448 L -8.95287,-200.627 L -8.98816,-200.812
 L -9,-201 L -8.98816,-201.188 L -8.95287,-201.373 L -8.89465,-201.552 L -8.81445,-201.723 L -8.71352,-201.882
 L -8.59344,-202.027 L -8.45613,-202.156 L -8.30373,-202.266 L -8.13866,-202.357 L -7.96352,-202.427 L -7.78107,-202.473
 L -7.59418,-202.497 L -7.40581,-202.497 L -7.21892,-202.473 L -7.03647,-202.427 L -6.86133,-202.357 L -6.69626,-202.266
 L -6.54385,-202.156 L -6.40654,-202.027 L -6.28647,-201.882 L -6.18553,-201.723 L -6.10533,-201.552 L -6.04712,-201.373
 L -6.01183,-201.188 L -6,-201 L -6.01183,-200.812 L -6.04712,-200.627 L -6.10533,-200.448 L -6.18553,-200.277
 L -6.28647,-200.118 L -6.40654,-199.973 L -6.54385,-199.844 L -6.69626,-199.734 L -6.86133,-199.643 L -7.03647,-199.573
 L -7.21892,-199.527 L -7.40581,-199.503 z
M 10.9369,-139.589 L 11.5451,-139.745 L 12.1289,-139.976 L 12.6791,-140.278 L 13.1871,-140.647 L 13.6448,-141.077
 L 14.0451,-141.561 L 14.3815,-142.091 L 14.6489,-142.659 L 14.8429,-143.257 L 14.9606,-143.873 L 15,-144.5
 L 15,-179.5 L 14.9606,-180.127 L 14.8429,-180.743 L 14.6489,-181.341 L 14.3815,-181.909 L 14.0451,-182.439
 L 13.6448,-182.923 L 13.1871,-183.353 L 12.6791,-183.722 L 12.1289,-184.024 L 11.5451,-184.255 L 10.9369,-184.411
 L 10.3139,-184.49 L -10.3139,-184.49 L -10.9369,-184.411 L -11.5451,-184.255 L -12.1289,-184.024 L -12.6791,-183.722
 L -13.1871,-183.353 L -13.6448,-182.923 L -14.0451,-182.439 L -14.3815,-181.909 L -14.6489,-181.341 L -14.8429,-180.743
 L -14.9606,-180.127 L -15,-179.5 L -15,-144.5 L -14.9606,-143.873 L -14.8429,-143.257 L -14.6489,-142.659
 L -14.3815,-142.091 L -14.0451,-141.561 L -13.6448,-141.077 L -13.1871,-140.647 L -12.6791,-140.278 L -12.1289,-139.976
 L -11.5451,-139.745 L -10.9369,-139.589 L -10.3139,-139.51 L 10.3139,-139.51 z
M 7.34929,-174.605 L 7.05028,-174.643 L 6.75835,-174.717 L 6.47812,-174.828 L 6.214,-174.974 L 5.97017,-175.151
 L 5.75047,-175.357 L 5.55835,-175.589 L 5.39685,-175.844 L 5.26852,-176.117 L 5.1754,-176.403 L 5.11891,-176.699
 L 5.09999,-177 L 5.11891,-177.301 L 5.1754,-177.597 L 5.26852,-177.883 L 5.39685,-178.156 L 5.55835,-178.411
 L 5.75047,-178.643 L 5.97017,-178.849 L 6.214,-179.026 L 6.47812,-179.172 L 6.75835,-179.283 L 7.05028,-179.357
 L 7.34929,-179.395 L 7.6507,-179.395 L 7.94971,-179.357 L 8.24164,-179.283 L 8.52187,-179.172 L 8.78598,-179.026
 L 9.02982,-178.849 L 9.24951,-178.643 L 9.44164,-178.411 L 9.60313,-178.156 L 9.73146,-177.883 L 9.82458,-177.597
 L 9.88107,-177.301 L 9.89999,-177 L 9.88107,-176.699 L 9.82458,-176.403 L 9.73146,-176.117 L 9.60313,-175.844
 L 9.44164,-175.589 L 9.24951,-175.357 L 9.02982,-175.151 L 8.78598,-174.974 L 8.52187,-174.828 L 8.24164,-174.717
 L 7.94971,-174.643 L 7.6507,-174.605 z
M -7.59418,-175.503 L -7.78107,-175.527 L -7.96352,-175.573 L -8.13866,-175.643 L -8.30373,-175.734 L -8.45613,-175.844
 L -8.59344,-175.973 L -8.71352,-176.118 L -8.81445,-176.277 L -8.89465,-176.448 L -8.95287,-176.627 L -8.98816,-176.812
 L -9,-177 L -8.98816,-177.188 L -8.95287,-177.373 L -8.89465,-177.552 L -8.81445,-177.723 L -8.71352,-177.882
 L -8.59344,-178.027 L -8.45613,-178.156 L -8.30373,-178.266 L -8.13866,-178.357 L -7.96352,-178.427 L -7.78107,-178.473
 L -7.59418,-178.497 L -7.40581,-178.497 L -7.21892,-178.473 L -7.03647,-178.427 L -6.86133,-178.357 L -6.69626,-178.266
 L -6.54385,-178.156 L -6.40654,-178.027 L -6.28647,-177.882 L -6.18553,-177.723 L -6.10533,-177.552 L -6.04712,-177.373
 L -6.01183,-177.188 L -6,-177 L -6.01183,-176.812 L -6.04712,-176.627 L -6.10533,-176.448 L -6.18553,-176.277
 L -6.28647,-176.118 L -6.40654,-175.973 L -6.54385,-175.844 L -6.69626,-175.734 L -6.86133,-175.643 L -7.03647,-175.573
 L -7.21892,-175.527 L -7.40581,-175.503 z
M -7.6507,-144.605 L -7.94971,-144.643 L -8.24164,-144.717 L -8.52187,-144.828 L -8.78598,-144.974 L -9.02982,-145.151
 L -9.24951,-145.357 L -9.44164,-145.589 L -9.60313,-145.844 L -9.73146,-146.117 L -9.82458,-146.403 L -9.88107,-146.699
 L -9.89999,-147 L -9.88107,-147.301 L -9.82458,-147.597 L -9.73146,-147.883 L -9.60313,-148.156 L -9.44164,-148.411
 L -9.24951,-148.643 L -9.02982,-148.849 L -8.78598,-149.026 L -8.52187,-149.172 L -8.24164,-149.283 L -7.94971,-149.357
 L -7.6507,-149.395 L -7.34929,-149.395 L -7.05028,-149.357 L -6.75835,-149.283 L -6.47812,-149.172 L -6.214,-149.026
 L -5.97017,-148.849 L -5.75047,-148.643 L -5.55835,-148.411 L -5.39685,-148.156 L -5.26852,-147.883 L -5.1754,-147.597
 L -5.11891,-147.301 L -5.09999,-147 L -5.11891,-146.699 L -5.1754,-146.403 L -5.26852,-146.117 L -5.39685,-145.844
 L -5.55835,-145.589 L -5.75047,-145.357 L -5.97017,-145.151 L -6.214,-144.974 L -6.47812,-144.828 L -6.75835,-144.717
 L -7.05028,-144.643 L -7.34929,-144.605 z
M 7.40581,-145.503 L 7.21892,-145.527 L 7.03647,-145.573 L 6.86133,-145.643 L 6.69626,-145.734 L 6.54385,-145.844
 L 6.40654,-145.973 L 6.28647,-146.118 L 6.18553,-146.277 L 6.10533,-146.448 L 6.04712,-146.627 L 6.01183,-146.812
 L 6,-147 L 6.01183,-147.188 L 6.04712,-147.373 L 6.10533,-147.552 L 6.18553,-147.723 L 6.28647,-147.882
 L 6.40654,-148.027 L 6.54385,-148.156 L 6.69626,-148.266 L 6.86133,-148.357 L 7.03647,-148.427 L 7.21892,-148.473
 L 7.40581,-148.497 L 7.59418,-148.497 L 7.78107,-148.473 L 7.96352,-148.427 L 8.13866,-148.357 L 8.30373,-148.266
 L 8.45613,-148.156 L 8.59344,-148.027 L 8.71352,-147.882 L 8.81445,-147.723 L 8.89465,-147.552 L 8.95287,-147.373
 L 8.98816,-147.188 L 9,-147 L 8.98816,-146.812 L 8.95287,-146.627 L 8.89465,-146.448 L 8.81445,-146.277
 L 8.71352,-146.118 L 8.59344,-145.973 L 8.45613,-145.844 L 8.30373,-145.734 L 8.13866,-145.643 L 7.96352,-145.573
 L 7.78107,-145.527 L 7.59418,-145.503 z
" stroke="black" fill="lightgray" stroke-width="0.5"/>
</svg>
