<?xml version="1.0" standalone="no"?>
<!DOCTYPE svg PUBLIC "-//W3C//DTD SVG 1.1//EN" "http://www.w3.org/Graphics/SVG/1.1/DTD/svg11.dtd">
<svg width="76mm" height="328mm" viewBox="-38 -626 76 328" xmlns="http://www.w3.org/2000/svg" version="1.1">
<title>OpenSCAD Model</title>
<path d="
M 33.4369,-550.589 L 34.0451,-550.745 L 34.6289,-550.976 L 35.1791,-551.278 L 35.6871,-551.647 L 36.1448,-552.077
 L 36.5451,-552.561 L 36.8815,-553.091 L 37.1489,-553.659 L 37.3429,-554.257 L 37.4606,-554.873 L 37.5,-555.5
 L 37.5,-620.5 L 37.4606,-621.127 L 37.3429,-621.743 L 37.1489,-622.341 L 36.8815,-622.909 L 36.5451,-623.439
 L 36.1448,-623.923 L 35.6871,-624.353 L 35.1791,-624.722 L 34.6289,-625.024 L 34.0451,-625.255 L 33.4369,-625.411
 L 32.8139,-625.49 L -32.8139,-625.49 L -33.4369,-625.411 L -34.0451,-625.255 L -34.6289,-625.024 L -35.1791,-624.722
 L -35.6871,-624.353 L -36.1448,-623.923 L -36.5451,-623.439 L -36.8815,-622.909 L -37.1489,-622.341 L -37.3429,-621.743
 L -37.4606,-621.127 L -37.5,-620.5 L -37.5,-555.5 L -37.4606,-554.873 L -37.3429,-554.257 L -37.1489,-553.659
 L -36.8815,-553.091 L -36.5451,-552.561 L -36.1448,-552.077 L -35.6871,-551.647 L -35.1791,-551.278 L -34.6289,-550.976
 L -34.0451,-550.745 L -33.4369,-550.589 L -32.8139,-550.51 L 32.8139,-550.51 z
M -27.311,-551.009 L -26.8209,-551.278 L -26.3129,-551.647 L -25.8551,-552.077 L -25.4549,-552.561 L -25.1185,-553.091
 L -24.8511,-553.659 L -24.6571,-554.257 L -24.5394,-554.873 L -24.5,-555.5 L -24.5,-558.5 L -24.5394,-559.127
 L -24.6571,-559.743 L -24.8511,-560.341 L -25.1185,-560.909 L -25.4549,-561.439 L -25.8551,-561.923 L -26.3129,-562.353
 L -26.8209,-562.722 L -27.3711,-563.024 L -27.9549,-563.255 L -28.5631,-563.411 L -29.186,-563.49 L -32.8139,-563.49
 L -33.4369,-563.411 L -34.0451,-563.255 L -34.6289,-563.024 L -35.1791,-562.722 L -35.6871,-562.353 L -36.1448,-561.923
 L -36.5451,-561.439 L -36.8815,-560.909 L -37,-560.657 L -37,-620.5 L -36.9645,-621.064 L -36.8586,-621.619
 L -36.684,-622.157 L -36.4434,-622.668 L -36.1406,-623.145 L -35.7803,-623.58 L -35.3684,-623.967 L -34.9112,-624.299
 L -34.416,-624.572 L -33.8906,-624.78 L -33.3432,-624.92 L -32.7825,-624.991 L 32.7825,-624.991 L 33.3432,-624.92
 L 33.8906,-624.78 L 34.416,-624.572 L 34.9112,-624.299 L 35.3684,-623.967 L 35.7803,-623.58 L 36.1406,-623.145
 L 36.4434,-622.668 L 36.684,-622.157 L 36.8586,-621.619 L 36.9645,-621.064 L 37,-620.5 L 37,-555.5
 L 36.9645,-554.936 L 36.8586,-554.381 L 36.684,-553.843 L 36.4434,-553.332 L 36.1406,-552.855 L 35.7803,-552.42
 L 35.3684,-552.033 L 34.9112,-551.701 L 34.416,-551.428 L 33.8906,-551.22 L 33.3432,-551.08 L 32.7825,-551.009
 z
M 30.4684,-615.544 L 30.7725,-615.622 L 31.0644,-615.738 L 31.3396,-615.889 L 31.5936,-616.074 L 31.8224,-616.289
 L 32.0225,-616.531 L 32.1908,-616.796 L 32.3244,-617.08 L 32.4214,-617.378 L 32.4803,-617.687 L 32.5,-618
 L 32.4803,-618.313 L 32.4214,-618.622 L 32.3244,-618.92 L 32.1908,-619.204 L 32.0225,-619.469 L 31.8224,-619.711
 L 31.5936,-619.926 L 31.3396,-620.111 L 31.0644,-620.262 L 30.7725,-620.378 L 30.4684,-620.456 L 30.157,-620.495
 L 29.843,-620.495 L 29.5315,-620.456 L 29.2274,-620.378 L 28.9355,-620.262 L 28.6604,-620.111 L 28.4064,-619.926
 L 28.1776,-619.711 L 27.9774,-619.469 L 27.8092,-619.204 L 27.6756,-618.92 L 27.5785,-618.622 L 27.5197,-618.313
 L 27.5,-618 L 27.5197,-617.687 L 27.5785,-617.378 L 27.6756,-617.08 L 27.8092,-616.796 L 27.9774,-616.531
 L 28.1776,-616.289 L 28.4064,-616.074 L 28.6604,-615.889 L 28.9355,-615.738 L 29.2274,-615.622 L 29.5315,-615.544
 L 29.843,-615.505 L 30.157,-615.505 z
M 29.9058,-616.503 L 29.7189,-616.527 L 29.5365,-616.573 L 29.3613,-616.643 L 29.1963,-616.734 L 29.0439,-616.844
 L 28.9065,-616.973 L 28.7865,-617.118 L 28.6855,-617.277 L 28.6053,-617.448 L 28.5471,-617.627 L 28.5118,-617.812
 L 28.5,-618 L 28.5118,-618.188 L 28.5471,-618.373 L 28.6053,-618.552 L 28.6855,-618.723 L 28.7865,-618.882
 L 28.9065,-619.027 L 29.0439,-619.156 L 29.1963,-619.266 L 29.3613,-619.357 L 29.5365,-619.427 L 29.7189,-619.473
 L 29.9058,-619.497 L 30.0942,-619.497 L 30.2811,-619.473 L 30.4635,-619.427 L 30.6387,-619.357 L 30.8037,-619.266
 L 30.9561,-619.156 L 31.0934,-619.027 L 31.2135,-618.882 L 31.3145,-618.723 L 31.3947,-618.552 L 31.4529,-618.373
 L 31.4882,-618.188 L 31.5,-618 L 31.4882,-617.812 L 31.4529,-617.627 L 31.3947,-617.448 L 31.3145,-617.277
 L 31.2135,-617.118 L 31.0934,-616.973 L 30.9561,-616.844 L 30.8037,-616.734 L 30.6387,-616.643 L 30.4635,-616.573
 L 30.2811,-616.527 L 30.0942,-616.503 z
M -30.0942,-556.503 L -30.2811,-556.527 L -30.4635,-556.573 L -30.6387,-556.643 L -30.8037,-556.734 L -30.9561,-556.844
 L -31.0934,-556.973 L -31.2135,-557.118 L -31.3145,-557.277 L -31.3947,-557.448 L -31.4529,-557.627 L -31.4882,-557.812
 L -31.5,-558 L -31.4882,-558.188 L -31.4529,-558.373 L -31.3947,-558.552 L -31.3145,-558.723 L -31.2135,-558.882
 L -31.0934,-559.027 L -30.9561,-559.156 L -30.8037,-559.266 L -30.6387,-559.357 L -30.4635,-559.427 L -30.2811,-559.473
 L -30.0942,-559.497 L -29.9058,-559.497 L -29.7189,-559.473 L -29.5365,-559.427 L -29.3613,-559.357 L -29.1963,-559.266
 L -29.0439,-559.156 L -28.9065,-559.027 L -28.7865,-558.882 L -28.6855,-558.723 L -28.6053,-558.552 L -28.5471,-558.373
 L -28.5118,-558.188 L -28.5,-558 L -28.5118,-557.812 L -28.5471,-557.627 L -28.6053,-557.448 L -28.6855,-557.277
 L -28.7865,-557.118 L -28.9065,-556.973 L -29.0439,-556.844 L -29.1963,-556.734 L -29.3613,-556.643 L -29.5365,-556.573
 L -29.7189,-556.527 L -29.9058,-556.503 z
M 33.4369,-466.589 L 34.0451,-466.745 L 34.6289,-466.976 L 35.1791,-467.278 L 35.6871,-467.647 L 36.1448,-468.077
 L 36.5451,-468.561 L 36.8815,-469.091 L 37.1489,-469.659 L 37.3429,-470.257 L 37.4606,-470.873 L 37.5,-471.5
 L 37.5,-536.5 L 37.4606,-537.127 L 37.3429,-537.743 L 37.1489,-538.341 L 36.8815,-538.909 L 36.5451,-539.439
 L 36.1448,-539.923 L 35.6871,-540.353 L 35.1791,-540.722 L 34.6289,-541.024 L 34.0451,-541.255 L 33.4369,-541.411
 L 32.8139,-541.49 L -32.8139,-541.49 L -33.4369,-541.411 L -34.0451,-541.255 L -34.6289,-541.024 L -35.1791,-540.722
 L -35.6871,-540.353 L -36.1448,-539.923 L -36.5451,-539.439 L -36.8815,-538.909 L -37.1489,-538.341 L -37.3429,-537.743
 L -37.4606,-537.127 L -37.5,-536.5 L -37.5,-471.5 L -37.4606,-470.873 L -37.3429,-470.257 L -37.1489,-469.659
 L -36.8815,-469.091 L -36.5451,-468.561 L -36.1448,-468.077 L -35.6871,-467.647 L -35.1791,-467.278 L -34.6289,-466.976
 L -34.0451,-466.745 L -33.4369,-466.589 L -32.8139,-466.51 L 32.8139,-466.51 z
M -27.311,-467.009 L -26.8209,-467.278 L -26.3129,-467.647 L -25.8551,-468.077 L -25.4549,-468.561 L -25.1185,-469.091
 L -24.8511,-469.659 L -24.6571,-470.257 L -24.5394,-470.873 L -24.5,-471.5 L -24.5,-474.5 L -24.5394,-475.127
 L -24.6571,-475.743 L -24.8511,-476.341 L -25.1185,-476.909 L -25.4549,-477.439 L -25.8551,-477.923 L -26.3129,-478.353
 L -26.8209,-478.722 L -27.3711,-479.024 L -27.9549,-479.255 L -28.5631,-479.411 L -29.186,-479.49 L -32.8139,-479.49
 L -33.4369,-479.411 L -34.0451,-479.255 L -34.6289,-479.024 L -35.1791,-478.722 L -35.6871,-478.353 L -36.1448,-477.923
 L -36.5451,-477.439 L -36.8815,-476.909 L -37,-476.657 L -37,-536.5 L -36.9645,-537.064 L -36.8586,-537.619
 L -36.684,-538.157 L -36.4434,-538.668 L -36.1406,-539.145 L -35.7803,-539.58 L -35.3684,-539.967 L -34.9112,-540.299
 L -34.416,-540.572 L -33.8906,-540.78 L -33.3432,-540.92 L -32.7825,-540.991 L 32.7825,-540.991 L 33.3432,-540.92
 L 33.8906,-540.78 L 34.416,-540.572 L 34.9112,-540.299 L 35.3684,-539.967 L 35.7803,-539.58 L 36.1406,-539.145
 L 36.4434,-538.668 L 36.684,-538.157 L 36.8586,-537.619 L 36.9645,-537.064 L 37,-536.5 L 37,-471.5
 L 36.9645,-470.936 L 36.8586,-470.381 L 36.684,-469.843 L 36.4434,-469.332 L 36.1406,-468.855 L 35.7803,-468.42
 L 35.3684,-468.033 L 34.9112,-467.701 L 34.416,-467.428 L 33.8906,-467.22 L 33.3432,-467.08 L 32.7825,-467.009
 z
M 30.4684,-531.544 L 30.7725,-531.622 L 31.0644,-531.738 L 31.3396,-531.889 L 31.5936,-532.074 L 31.8224,-532.289
 L 32.0225,-532.531 L 32.1908,-532.796 L 32.3244,-533.08 L 32.4214,-533.378 L 32.4803,-533.687 L 32.5,-534
 L 32.4803,-534.313 L 32.4214,-534.622 L 32.3244,-534.92 L 32.1908,-535.204 L 32.0225,-535.469 L 31.8224,-535.711
 L 31.5936,-535.926 L 31.3396,-536.111 L 31.0644,-536.262 L 30.7725,-536.378 L 30.4684,-536.456 L 30.157,-536.495
 L 29.843,-536.495 L 29.5315,-536.456 L 29.2274,-536.378 L 28.9355,-536.262 L 28.6604,-536.111 L 28.4064,-535.926
 L 28.1776,-535.711 L 27.9774,-535.469 L 27.8092,-535.204 L 27.6756,-534.92 L 27.5785,-534.622 L 27.5197,-534.313
 L 27.5,-534 L 27.5197,-533.687 L 27.5785,-533.378 L 27.6756,-533.08 L 27.8092,-532.796 L 27.9774,-532.531
 L 28.1776,-532.289 L 28.4064,-532.074 L 28.6604,-531.889 L 28.9355,-531.738 L 29.2274,-531.622 L 29.5315,-531.544
 L 29.843,-531.505 L 30.157,-531.505 z
M 29.9058,-532.503 L 29.7189,-532.527 L 29.5365,-532.573 L 29.3613,-532.643 L 29.1963,-532.734 L 29.0439,-532.844
 L 28.9065,-532.973 L 28.7865,-533.118 L 28.6855,-533.277 L 28.6053,-533.448 L 28.5471,-533.627 L 28.5118,-533.812
 L 28.5,-534 L 28.5118,-534.188 L 28.5471,-534.373 L 28.6053,-534.552 L 28.6855,-534.723 L 28.7865,-534.882
 L 28.9065,-535.027 L 29.0439,-535.156 L 29.1963,-535.266 L 29.3613,-535.357 L 29.5365,-535.427 L 29.7189,-535.473
 L 29.9058,-535.497 L 30.0942,-535.497 L 30.2811,-535.473 L 30.4635,-535.427 L 30.6387,-535.357 L 30.8037,-535.266
 L 30.9561,-535.156 L 31.0934,-535.027 L 31.2135,-534.882 L 31.3145,-534.723 L 31.3947,-534.552 L 31.4529,-534.373
 L 31.4882,-534.188 L 31.5,-534 L 31.4882,-533.812 L 31.4529,-533.627 L 31.3947,-533.448 L 31.3145,-533.277
 L 31.2135,-533.118 L 31.0934,-532.973 L 30.9561,-532.844 L 30.8037,-532.734 L 30.6387,-532.643 L 30.4635,-532.573
 L 30.2811,-532.527 L 30.0942,-532.503 z
M -30.0942,-472.503 L -30.2811,-472.527 L -30.4635,-472.573 L -30.6387,-472.643 L -30.8037,-472.734 L -30.9561,-472.844
 L -31.0934,-472.973 L -31.2135,-473.118 L -31.3145,-473.277 L -31.3947,-473.448 L -31.4529,-473.627 L -31.4882,-473.812
 L -31.5,-474 L -31.4882,-474.188 L -31.4529,-474.373 L -31.3947,-474.552 L -31.3145,-474.723 L -31.2135,-474.882
 L -31.0934,-475.027 L -30.9561,-475.156 L -30.8037,-475.266 L -30.6387,-475.357 L -30.4635,-475.427 L -30.2811,-475.473
 L -30.0942,-475.497 L -29.9058,-475.497 L -29.7189,-475.473 L -29.5365,-475.427 L -29.3613,-475.357 L -29.1963,-475.266
 L -29.0439,-475.156 L -28.9065,-475.027 L -28.7865,-474.882 L -28.6855,-474.723 L -28.6053,-474.552 L -28.5471,-474.373
 L -28.5118,-474.188 L -28.5,-474 L -28.5118,-473.812 L -28.5471,-473.627 L -28.6053,-473.448 L -28.6855,-473.277
 L -28.7865,-473.118 L -28.9065,-472.973 L -29.0439,-472.844 L -29.1963,-472.734 L -29.3613,-472.643 L -29.5365,-472.573
 L -29.7189,-472.527 L -29.9058,-472.503 z
M 33.4369,-382.589 L 34.0451,-382.745 L 34.6289,-382.976 L 35.1791,-383.278 L 35.6871,-383.647 L 36.1448,-384.077
 L 36.5451,-384.561 L 36.8815,-385.091 L 37.1489,-385.659 L 37.3429,-386.257 L 37.4606,-386.873 L 37.5,-387.5
 L 37.5,-452.5 L 37.4606,-453.127 L 37.3429,-453.743 L 37.1489,-454.341 L 36.8815,-454.909 L 36.5451,-455.439
 L 36.1448,-455.923 L 35.6871,-456.353 L 35.1791,-456.722 L 34.6289,-457.024 L 34.0451,-457.255 L 33.4369,-457.411
 L 32.8139,-457.49 L -32.8139,-457.49 L -33.4369,-457.411 L -34.0451,-457.255 L -34.6289,-457.024 L -35.1791,-456.722
 L -35.6871,-456.353 L -36.1448,-455.923 L -36.5451,-455.439 L -36.8815,-454.909 L -37.1489,-454.341 L -37.3429,-453.743
 L -37.4606,-453.127 L -37.5,-452.5 L -37.5,-387.5 L -37.4606,-386.873 L -37.3429,-386.257 L -37.1489,-385.659
 L -36.8815,-385.091 L -36.5451,-384.561 L -36.1448,-384.077 L -35.6871,-383.647 L -35.1791,-383.278 L -34.6289,-382.976
 L -34.0451,-382.745 L -33.4369,-382.589 L -32.8139,-382.51 L 32.8139,-382.51 z
M -27.2539,-383.04 L -26.8209,-383.278 L -26.3129,-383.647 L -25.8551,-384.077 L -25.4549,-384.561 L -25.1185,-385.091
 L -24.8511,-385.659 L -24.6571,-386.257 L -24.5394,-386.873 L -24.5,-387.5 L -24.5,-390.5 L -24.5394,-391.127
 L -24.6571,-391.743 L -24.8511,-392.341 L -25.1185,-392.909 L -25.4549,-393.439 L -25.8551,-393.923 L -26.3129,-394.353
 L -26.8209,-394.722 L -27.3711,-395.024 L -27.9549,-395.255 L -28.5631,-395.411 L -29.186,-395.49 L -32.8139,-395.49
 L -33.4369,-395.411 L -34.0451,-395.255 L -34.6289,-395.024 L -35.1791,-394.722 L -35.6871,-394.353 L -36.1448,-393.923
 L -36.5451,-393.439 L -36.8815,-392.909 L -36.9685,-392.724 L -36.9685,-452.5 L -36.9333,-453.06 L -36.8282,-453.611
 L -36.6547,-454.145 L -36.4158,-454.653 L -36.1151,-455.127 L -35.7574,-455.559 L -35.3483,-455.943 L -34.8944,-456.273
 L -34.4026,-456.543 L -33.8808,-456.75 L -33.3373,-456.889 L -32.7806,-456.96 L 32.7806,-456.96 L 33.3373,-456.889
 L 33.8808,-456.75 L 34.4026,-456.543 L 34.8944,-456.273 L 35.3483,-455.943 L 35.7574,-455.559 L 36.1151,-455.127
 L 36.4158,-454.653 L 36.6547,-454.145 L 36.8282,-453.611 L 36.9333,-453.06 L 36.9685,-452.5 L 36.9685,-387.5
 L 36.9333,-386.94 L 36.8282,-386.389 L 36.6547,-385.855 L 36.4158,-385.347 L 36.1151,-384.873 L 35.7574,-384.441
 L 35.3483,-384.057 L 34.8944,-383.727 L 34.4026,-383.457 L 33.8808,-383.25 L 33.3373,-383.111 L 32.7806,-383.04
 z
M 30.4684,-447.544 L 30.7725,-447.622 L 31.0644,-447.738 L 31.3396,-447.889 L 31.5936,-448.074 L 31.8224,-448.289
 L 32.0225,-448.531 L 32.1908,-448.796 L 32.3244,-449.08 L 32.4214,-449.378 L 32.4803,-449.687 L 32.5,-450
 L 32.4803,-450.313 L 32.4214,-450.622 L 32.3244,-450.92 L 32.1908,-451.204 L 32.0225,-451.469 L 31.8224,-451.711
 L 31.5936,-451.926 L 31.3396,-452.111 L 31.0644,-452.262 L 30.7725,-452.378 L 30.4684,-452.456 L 30.157,-452.495
 L 29.843,-452.495 L 29.5315,-452.456 L 29.2274,-452.378 L 28.9355,-452.262 L 28.6604,-452.111 L 28.4064,-451.926
 L 28.1776,-451.711 L 27.9774,-451.469 L 27.8092,-451.204 L 27.6756,-450.92 L 27.5785,-450.622 L 27.5197,-450.313
 L 27.5,-450 L 27.5197,-449.687 L 27.5785,-449.378 L 27.6756,-449.08 L 27.8092,-448.796 L 27.9774,-448.531
 L 28.1776,-448.289 L 28.4064,-448.074 L 28.6604,-447.889 L 28.9355,-447.738 L 29.2274,-447.622 L 29.5315,-447.544
 L 29.843,-447.505 L 30.157,-447.505 z
M 29.9058,-448.503 L 29.7189,-448.527 L 29.5365,-448.573 L 29.3613,-448.643 L 29.1963,-448.734 L 29.0439,-448.844
 L 28.9065,-448.973 L 28.7865,-449.118 L 28.6855,-449.277 L 28.6053,-449.448 L 28.5471,-449.627 L 28.5118,-449.812
 L 28.5,-450 L 28.5118,-450.188 L 28.5471,-450.373 L 28.6053,-450.552 L 28.6855,-450.723 L 28.7865,-450.882
 L 28.9065,-451.027 L 29.0439,-451.156 L 29.1963,-451.266 L 29.3613,-451.357 L 29.5365,-451.427 L 29.7189,-451.473
 L 29.9058,-451.497 L 30.0942,-451.497 L 30.2811,-451.473 L 30.4635,-451.427 L 30.6387,-451.357 L 30.8037,-451.266
 L 30.9561,-451.156 L 31.0934,-451.027 L 31.2135,-450.882 L 31.3145,-450.723 L 31.3947,-450.552 L 31.4529,-450.373
 L 31.4882,-450.188 L 31.5,-450 L 31.4882,-449.812 L 31.4529,-449.627 L 31.3947,-449.448 L 31.3145,-449.277
 L 31.2135,-449.118 L 31.0934,-448.973 L 30.9561,-448.844 L 30.8037,-448.734 L 30.6387,-448.643 L 30.4635,-448.573
 L 30.2811,-448.527 L 30.0942,-448.503 z
M -30.0942,-388.503 L -30.2811,-388.527 L -30.4635,-388.573 L -30.6387,-388.643 L -30.8037,-388.734 L -30.9561,-388.844
 L -31.0934,-388.973 L -31.2135,-389.118 L -31.3145,-389.277 L -31.3947,-389.448 L -31.4529,-389.627 L -31.4882,-389.812
 L -31.5,-390 L -31.4882,-390.188 L -31.4529,-390.373 L -31.3947,-390.552 L -31.3145,-390.723 L -31.2135,-390.882
 L -31.0934,-391.027 L -30.9561,-391.156 L -30.8037,-391.266 L -30.6387,-391.357 L -30.4635,-391.427 L -30.2811,-391.473
 L -30.0942,-391.497 L -29.9058,-391.497 L -29.7189,-391.473 L -29.5365,-391.427 L -29.3613,-391.357 L -29.1963,-391.266
 L -29.0439,-391.156 L -28.9065,-391.027 L -28.7865,-390.882 L -28.6855,-390.723 L -28.6053,-390.552 L -28.5471,-390.373
 L -28.5118,-390.188 L -28.5,-390 L -28.5118,-389.812 L -28.5471,-389.627 L -28.6053,-389.448 L -28.6855,-389.277
 L -28.7865,-389.118 L -28.9065,-388.973 L -29.0439,-388.844 L -29.1963,-388.734 L -29.3613,-388.643 L -29.5365,-388.573
 L -29.7189,-388.527 L -29.9058,-388.503 z
M 33.4369,-298.589 L 34.0451,-298.745 L 34.6289,-298.976 L 35.1791,-299.278 L 35.6871,-299.647 L 36.1448,-300.077
 L 36.5451,-300.561 L 36.8815,-301.091 L 37.1489,-301.659 L 37.3429,-302.257 L 37.4606,-302.873 L 37.5,-303.5
 L 37.5,-368.5 L 37.4606,-369.127 L 37.3429,-369.743 L 37.1489,-370.341 L 36.8815,-370.909 L 36.5451,-371.439
 L 36.1448,-371.923 L 35.6871,-372.353 L 35.1791,-372.722 L 34.6289,-373.024 L 34.0451,-373.255 L 33.4369,-373.411
 L 32.8139,-373.49 L -32.8139,-373.49 L -33.4369,-373.411 L -34.0451,-373.255 L -34.6289,-373.024 L -35.1791,-372.722
 L -35.6871,-372.353 L -36.1448,-371.923 L -36.5451,-371.439 L -36.8815,-370.909 L -37.1489,-370.341 L -37.3429,-369.743
 L -37.4606,-369.127 L -37.5,-368.5 L -37.5,-303.5 L -37.4606,-302.873 L -37.3429,-302.257 L -37.1489,-301.659
 L -36.8815,-301.091 L -36.5451,-300.561 L -36.1448,-300.077 L -35.6871,-299.647 L -35.1791,-299.278 L -34.6289,-298.976
 L -34.0451,-298.745 L -33.4369,-298.589 L -32.8139,-298.51 L 32.8139,-298.51 z
M -25.3781,-300.682 L -25.1185,-301.091 L -24.8511,-301.659 L -24.6571,-302.257 L -24.5394,-302.873 L -24.5,-303.5
 L -24.5,-306.5 L -24.5394,-307.127 L -24.6571,-307.743 L -24.8511,-308.341 L -25.1185,-308.909 L -25.4549,-309.439
 L -25.8551,-309.923 L -26.3129,-310.353 L -26.8209,-310.722 L -27.3711,-311.024 L -27.9549,-311.255 L -28.5631,-311.411
 L -29.186,-311.49 L -32.8139,-311.49 L -33.4369,-311.411 L -34.0451,-311.255 L -34.6289,-311.024 L -35.1791,-310.722
 L -35.3234,-310.617 L -35.3234,-368.5 L -35.3011,-368.854 L -35.2347,-369.202 L -35.1251,-369.539 L -34.9742,-369.86
 L -34.7842,-370.16 L -34.5582,-370.433 L -34.2997,-370.675 L -34.0128,-370.884 L -33.7021,-371.055 L -33.3725,-371.185
 L -33.0291,-371.273 L -32.6773,-371.318 L 25.3781,-371.318 L 25.1185,-370.909 L 24.8511,-370.341 L 24.6571,-369.743
 L 24.5394,-369.127 L 24.5,-368.5 L 24.5,-365.5 L 24.5394,-364.873 L 24.6571,-364.257 L 24.8511,-363.659
 L 25.1185,-363.091 L 25.4549,-362.561 L 25.8551,-362.077 L 26.3129,-361.647 L 26.8209,-361.278 L 27.3711,-360.976
 L 27.9549,-360.745 L 28.5631,-360.589 L 29.186,-360.51 L 32.8139,-360.51 L 33.4369,-360.589 L 34.0451,-360.745
 L 34.6289,-360.976 L 35.1791,-361.278 L 35.3234,-361.383 L 35.3234,-303.5 L 35.3011,-303.146 L 35.2347,-302.798
 L 35.1251,-302.461 L 34.9742,-302.14 L 34.7842,-301.84 L 34.5582,-301.567 L 34.2997,-301.325 L 34.0128,-301.116
 L 33.7021,-300.945 L 33.3725,-300.815 L 33.0291,-300.727 L 32.6773,-300.682 z
M 29.8493,-363.605 L 29.5503,-363.643 L 29.2583,-363.717 L 28.9781,-363.828 L 28.714,-363.974 L 28.4702,-364.151
 L 28.2505,-364.357 L 28.0583,-364.589 L 27.8969,-364.844 L 27.7685,-365.117 L 27.6754,-365.403 L 27.6189,-365.699
 L 27.6,-366 L 27.6189,-366.301 L 27.6754,-366.597 L 27.7685,-366.883 L 27.8969,-367.156 L 28.0583,-367.411
 L 28.2505,-367.643 L 28.4702,-367.849 L 28.714,-368.026 L 28.9781,-368.172 L 29.2583,-368.283 L 29.5503,-368.357
 L 29.8493,-368.395 L 30.1507,-368.395 L 30.4497,-368.357 L 30.7416,-368.283 L 31.0219,-368.172 L 31.286,-368.026
 L 31.5298,-367.849 L 31.7495,-367.643 L 31.9416,-367.411 L 32.1031,-367.156 L 32.2315,-366.883 L 32.3246,-366.597
 L 32.3811,-366.301 L 32.4,-366 L 32.3811,-365.699 L 32.3246,-365.403 L 32.2315,-365.117 L 32.1031,-364.844
 L 31.9416,-364.589 L 31.7495,-364.357 L 31.5298,-364.151 L 31.286,-363.974 L 31.0219,-363.828 L 30.7416,-363.717
 L 30.4497,-363.643 L 30.1507,-363.605 z
M -30.1507,-303.605 L -30.4497,-303.643 L -30.7416,-303.717 L -31.0219,-303.828 L -31.286,-303.974 L -31.5298,-304.151
 L -31.7495,-304.357 L -31.9416,-304.589 L -32.1031,-304.844 L -32.2315,-305.117 L -32.3246,-305.403 L -32.3811,-305.699
 L -32.4,-306 L -32.3811,-306.301 L -32.3246,-306.597 L -32.2315,-306.883 L -32.1031,-307.156 L -31.9416,-307.411
 L -31.7495,-307.643 L -31.5298,-307.849 L -31.286,-308.026 L -31.0219,-308.172 L -30.7416,-308.283 L -30.4497,-308.357
 L -30.1507,-308.395 L -29.8493,-308.395 L -29.5503,-308.357 L -29.2583,-308.283 L -28.9781,-308.172 L -28.714,-308.026
 L -28.4702,-307.849 L -28.2505,-307.643 L -28.0583,-307.411 L -27.8969,-307.156 L -27.7685,-306.883 L -27.6754,-306.597
 L -27.6189,-306.301 L -27.6,-306 L -27.6189,-305.699 L -27.6754,-305.403 L -27.7685,-305.117 L -27.8969,-304.844
 L -28.0583,-304.589 L -28.2505,-304.357 L -28.4702,-304.151 L -28.714,-303.974 L -28.9781,-303.828 L -29.2583,-303.717
 L -29.5503,-303.643 L -29.8493,-303.605 z
" stroke="black" fill="lightgray" stroke-width="0.5"/>
</svg>
