M48
; DRILL file {KiCad 7.0.2} date Sun May  7 16:36:33 2023
; FORMAT={-:-/ absolute / inch / decimal}
; #@! TF.CreationDate,2023-05-07T16:36:33+01:00
; #@! TF.GenerationSoftware,Kicad,Pcbnew,7.0.2
; #@! TF.FileFunction,Plated,1,2,PTH
FMAT,2
INCH
; #@! TA.AperFunction,Plated,PTH,ComponentDrill
T1C0.0394
%
G90
G05
T1
X-0.7506Y0.95
X-0.7506Y-0.45
X-0.7506Y-0.55
X-0.75Y0.85
X-0.75Y0.75
X-0.75Y0.65
X-0.75Y0.55
X-0.75Y0.45
X-0.75Y0.35
X-0.75Y0.25
X-0.75Y0.15
X-0.75Y0.05
X-0.75Y-0.05
X-0.75Y-0.15
X-0.75Y-0.25
X-0.75Y-0.35
X-0.75Y-0.65
X-0.75Y-0.75
X-0.75Y-0.85
X-0.75Y-0.95
X-0.6506Y0.95
X-0.6506Y-0.45
X-0.6506Y-0.55
X-0.65Y0.85
X-0.65Y0.75
X-0.65Y0.65
X-0.65Y0.55
X-0.65Y0.45
X-0.65Y0.35
X-0.65Y0.25
X-0.65Y0.15
X-0.65Y0.05
X-0.65Y-0.05
X-0.65Y-0.15
X-0.65Y-0.25
X-0.65Y-0.35
X-0.65Y-0.65
X-0.65Y-0.75
X-0.65Y-0.85
X-0.65Y-0.95
X-0.5506Y0.95
X-0.5506Y-0.45
X-0.5506Y-0.55
X-0.55Y0.85
X-0.55Y0.75
X-0.55Y0.65
X-0.55Y0.55
X-0.55Y0.45
X-0.55Y0.35
X-0.55Y0.25
X-0.55Y0.15
X-0.55Y0.05
X-0.55Y-0.05
X-0.55Y-0.15
X-0.55Y-0.25
X-0.55Y-0.35
X-0.55Y-0.65
X-0.55Y-0.75
X-0.55Y-0.85
X-0.55Y-0.95
X-0.45Y0.95
X-0.45Y0.85
X-0.45Y0.75
X-0.45Y0.65
X-0.45Y0.55
X-0.45Y0.45
X-0.45Y0.35
X-0.45Y0.25
X-0.45Y0.15
X-0.45Y0.05
X-0.45Y-0.05
X-0.45Y-0.15
X-0.45Y-0.25
X-0.45Y-0.35
X-0.45Y-0.45
X-0.45Y-0.55
X-0.45Y-0.65
X-0.45Y-0.75
X-0.45Y-0.85
X-0.45Y-0.95
X-0.35Y0.95
X-0.35Y0.85
X-0.35Y0.75
X-0.35Y0.65
X-0.35Y0.55
X-0.35Y0.45
X-0.35Y0.35
X-0.35Y0.25
X-0.35Y0.15
X-0.35Y0.05
X-0.35Y-0.05
X-0.35Y-0.15
X-0.35Y-0.25
X-0.35Y-0.35
X-0.35Y-0.45
X-0.35Y-0.55
X-0.35Y-0.65
X-0.35Y-0.75
X-0.35Y-0.85
X-0.35Y-0.95
X0.35Y0.95
X0.35Y0.85
X0.35Y0.75
X0.35Y0.65
X0.35Y0.55
X0.35Y0.45
X0.35Y0.35
X0.35Y0.25
X0.35Y0.15
X0.35Y0.05
X0.35Y-0.05
X0.35Y-0.15
X0.35Y-0.25
X0.35Y-0.35
X0.35Y-0.45
X0.35Y-0.55
X0.35Y-0.65
X0.35Y-0.75
X0.35Y-0.85
X0.35Y-0.95
X0.45Y0.95
X0.45Y0.85
X0.45Y0.75
X0.45Y0.65
X0.45Y0.55
X0.45Y0.45
X0.45Y0.35
X0.45Y0.25
X0.45Y0.15
X0.45Y0.05
X0.45Y-0.05
X0.45Y-0.15
X0.45Y-0.25
X0.45Y-0.35
X0.45Y-0.45
X0.45Y-0.55
X0.45Y-0.65
X0.45Y-0.75
X0.45Y-0.85
X0.45Y-0.95
X0.55Y0.95
X0.55Y0.85
X0.55Y0.75
X0.55Y0.65
X0.55Y0.55
X0.55Y0.45
X0.55Y0.35
X0.55Y0.15
X0.55Y0.05
X0.55Y-0.05
X0.55Y-0.15
X0.55Y-0.25
X0.55Y-0.35
X0.55Y-0.45
X0.55Y-0.65
X0.55Y-0.75
X0.55Y-0.95
X0.5506Y0.25
X0.5506Y-0.55
X0.5506Y-0.85
X0.65Y0.95
X0.65Y0.85
X0.65Y0.75
X0.65Y0.65
X0.65Y0.55
X0.65Y0.45
X0.65Y0.35
X0.65Y0.15
X0.65Y0.05
X0.65Y-0.05
X0.65Y-0.15
X0.65Y-0.25
X0.65Y-0.35
X0.65Y-0.45
X0.65Y-0.65
X0.65Y-0.75
X0.65Y-0.95
X0.6506Y0.25
X0.6506Y-0.55
X0.6506Y-0.85
X0.75Y0.95
X0.75Y0.85
X0.75Y0.75
X0.75Y0.65
X0.75Y0.55
X0.75Y0.45
X0.75Y0.35
X0.75Y0.15
X0.75Y0.05
X0.75Y-0.05
X0.75Y-0.15
X0.75Y-0.25
X0.75Y-0.35
X0.75Y-0.45
X0.75Y-0.65
X0.75Y-0.75
X0.75Y-0.95
X0.7506Y0.25
X0.7506Y-0.55
X0.7506Y-0.85
T1
G00X-0.0582Y-1.5071
M15
G01X0.0206Y-1.5071
M16
G05
G00X-0.0582Y-1.7433
M15
G01X0.0206Y-1.7433
M16
G05
G00X0.1662Y-1.6646
M15
G01X0.1662Y-1.5858
M16
G05
T0
M30
