M48
; DRILL file {KiCad 7.0.2} date Sun May  7 16:36:33 2023
; FORMAT={-:-/ absolute / inch / decimal}
; #@! TF.CreationDate,2023-05-07T16:36:33+01:00
; #@! TF.GenerationSoftware,Kicad,Pcbnew,7.0.2
; #@! TF.FileFunction,NonPlated,1,2,NPTH
FMAT,2
INCH
; #@! TA.AperFunction,NonPlated,NPTH,ComponentDrill
T1C0.1260
; #@! TA.AperFunction,NonPlated,NPTH,ComponentDrill
T2C0.2520
%
G90
G05
T1
X-1.1811Y0.8858
X-1.1811Y0.2953
X-1.1811Y-0.2953
X-1.1811Y-0.8858
X-1.1811Y-1.4764
X-0.8858Y1.1811
X-0.8858Y-1.1811
X-0.8858Y-1.7717
X-0.5906Y-1.4764
X0.0Y0.2953
X0.5906Y-1.4764
X0.8858Y1.1811
X0.8858Y-1.1811
X0.8858Y-1.7717
X1.1811Y0.8858
X1.1811Y0.2953
X1.1811Y-0.2953
X1.1811Y-0.8858
X1.1811Y-1.4764
T2
X-1.1811Y1.1811
X-1.1811Y0.5906
X-1.1811Y0.0
X-1.1811Y-0.5906
X-1.1811Y-1.1811
X-1.1811Y-1.7717
X-0.5906Y1.1811
X-0.5906Y-1.1811
X-0.5906Y-1.7717
X0.0Y0.5906
X0.0Y0.0
X0.0Y-0.5906
X0.5906Y1.1811
X0.5906Y-1.1811
X0.5906Y-1.7717
X1.1811Y1.1811
X1.1811Y0.5906
X1.1811Y0.0
X1.1811Y-0.5906
X1.1811Y-1.1811
X1.1811Y-1.7717
T0
M30
