<?xml version="1.0" standalone="no"?>
<!DOCTYPE svg PUBLIC "-//W3C//DTD SVG 1.1//EN" "http://www.w3.org/Graphics/SVG/1.1/DTD/svg11.dtd">
<svg width="38mm" height="147mm" viewBox="-19 -249 38 147" xmlns="http://www.w3.org/2000/svg" version="1.1">
<title>OpenSCAD Model</title>
<path d="
M 14.6869,-219.089 L 15.2951,-219.245 L 15.8789,-219.476 L 16.4291,-219.778 L 16.9371,-220.147 L 17.3948,-220.577
 L 17.7951,-221.061 L 18.1315,-221.591 L 18.3989,-222.159 L 18.5929,-222.757 L 18.7106,-223.373 L 18.75,-224
 L 18.75,-244 L 18.7106,-244.627 L 18.5929,-245.243 L 18.3989,-245.841 L 18.1315,-246.409 L 17.7951,-246.939
 L 17.3948,-247.423 L 16.9371,-247.853 L 16.4291,-248.222 L 15.8789,-248.524 L 15.2951,-248.755 L 14.6869,-248.911
 L 14.0639,-248.99 L -14.0639,-248.99 L -14.6869,-248.911 L -15.2951,-248.755 L -15.8789,-248.524 L -16.4291,-248.222
 L -16.9371,-247.853 L -17.3948,-247.423 L -17.7951,-246.939 L -18.1315,-246.409 L -18.3989,-245.841 L -18.5929,-245.243
 L -18.7106,-244.627 L -18.75,-244 L -18.75,-224 L -18.7106,-223.373 L -18.5929,-222.757 L -18.3989,-222.159
 L -18.1315,-221.591 L -17.7951,-221.061 L -17.3948,-220.577 L -16.9371,-220.147 L -16.4291,-219.778 L -15.8789,-219.476
 L -15.2951,-219.245 L -14.6869,-219.089 L -14.0639,-219.01 L 14.0639,-219.01 z
M -13.7982,-219.509 L -14.3901,-219.584 L -14.9678,-219.732 L -15.5224,-219.952 L -16.0452,-220.239 L -16.5278,-220.59
 L -16.9626,-220.998 L -17.3428,-221.458 L -17.6624,-221.962 L -17.9164,-222.501 L -18.1008,-223.069 L -18.2125,-223.655
 L -18.25,-224.25 L -18.25,-243.75 L -18.2125,-244.345 L -18.1008,-244.931 L -17.9164,-245.499 L -17.6624,-246.038
 L -17.3428,-246.542 L -16.9626,-247.002 L -16.5278,-247.41 L -16.0452,-247.761 L -15.5224,-248.048 L -14.9678,-248.268
 L -14.3901,-248.416 L -13.7982,-248.491 L 13.7982,-248.491 L 14.3901,-248.416 L 14.9678,-248.268 L 15.5224,-248.048
 L 16.0452,-247.761 L 16.5278,-247.41 L 16.9626,-247.002 L 17.3428,-246.542 L 17.6624,-246.038 L 17.9164,-245.499
 L 18.1008,-244.931 L 18.2125,-244.345 L 18.25,-243.75 L 18.25,-224.25 L 18.2125,-223.655 L 18.1008,-223.069
 L 17.9164,-222.501 L 17.6624,-221.962 L 17.3428,-221.458 L 16.9626,-220.998 L 16.5278,-220.59 L 16.0452,-220.239
 L 15.5224,-219.952 L 14.9678,-219.732 L 14.3901,-219.584 L 13.7982,-219.509 z
M 14.6869,-180.089 L 15.2951,-180.245 L 15.8789,-180.476 L 16.4291,-180.778 L 16.9371,-181.147 L 17.3948,-181.577
 L 17.7951,-182.061 L 18.1315,-182.591 L 18.3989,-183.159 L 18.5929,-183.757 L 18.7106,-184.373 L 18.75,-185
 L 18.75,-205 L 18.7106,-205.627 L 18.5929,-206.243 L 18.3989,-206.841 L 18.1315,-207.409 L 17.7951,-207.939
 L 17.3948,-208.423 L 16.9371,-208.853 L 16.4291,-209.222 L 15.8789,-209.524 L 15.2951,-209.755 L 14.6869,-209.911
 L 14.0639,-209.99 L -14.0639,-209.99 L -14.6869,-209.911 L -15.2951,-209.755 L -15.8789,-209.524 L -16.4291,-209.222
 L -16.9371,-208.853 L -17.3948,-208.423 L -17.7951,-207.939 L -18.1315,-207.409 L -18.3989,-206.841 L -18.5929,-206.243
 L -18.7106,-205.627 L -18.75,-205 L -18.75,-185 L -18.7106,-184.373 L -18.5929,-183.757 L -18.3989,-183.159
 L -18.1315,-182.591 L -17.7951,-182.061 L -17.3948,-181.577 L -16.9371,-181.147 L -16.4291,-180.778 L -15.8789,-180.476
 L -15.2951,-180.245 L -14.6869,-180.089 L -14.0639,-180.01 L 14.0639,-180.01 z
M -13.7982,-180.509 L -14.3901,-180.584 L -14.9678,-180.732 L -15.5224,-180.952 L -16.0452,-181.239 L -16.5278,-181.59
 L -16.9626,-181.998 L -17.3428,-182.458 L -17.6624,-182.962 L -17.9164,-183.501 L -18.1008,-184.069 L -18.2125,-184.655
 L -18.25,-185.25 L -18.25,-204.75 L -18.2125,-205.345 L -18.1008,-205.931 L -17.9164,-206.499 L -17.6624,-207.038
 L -17.3428,-207.542 L -16.9626,-208.002 L -16.5278,-208.41 L -16.0452,-208.761 L -15.5224,-209.048 L -14.9678,-209.268
 L -14.3901,-209.416 L -13.7982,-209.491 L 13.7982,-209.491 L 14.3901,-209.416 L 14.9678,-209.268 L 15.5224,-209.048
 L 16.0452,-208.761 L 16.5278,-208.41 L 16.9626,-208.002 L 17.3428,-207.542 L 17.6624,-207.038 L 17.9164,-206.499
 L 18.1008,-205.931 L 18.2125,-205.345 L 18.25,-204.75 L 18.25,-185.25 L 18.2125,-184.655 L 18.1008,-184.069
 L 17.9164,-183.501 L 17.6624,-182.962 L 17.3428,-182.458 L 16.9626,-181.998 L 16.5278,-181.59 L 16.0452,-181.239
 L 15.5224,-180.952 L 14.9678,-180.732 L 14.3901,-180.584 L 13.7982,-180.509 z
M 14.6869,-141.089 L 15.2951,-141.245 L 15.8789,-141.476 L 16.4291,-141.778 L 16.9371,-142.147 L 17.3948,-142.577
 L 17.7951,-143.061 L 18.1315,-143.591 L 18.3989,-144.159 L 18.5929,-144.757 L 18.7106,-145.373 L 18.75,-146
 L 18.75,-166 L 18.7106,-166.627 L 18.5929,-167.243 L 18.3989,-167.841 L 18.1315,-168.409 L 17.7951,-168.939
 L 17.3948,-169.423 L 16.9371,-169.853 L 16.4291,-170.222 L 15.8789,-170.524 L 15.2951,-170.755 L 14.6869,-170.911
 L 14.0639,-170.99 L -14.0639,-170.99 L -14.6869,-170.911 L -15.2951,-170.755 L -15.8789,-170.524 L -16.4291,-170.222
 L -16.9371,-169.853 L -17.3948,-169.423 L -17.7951,-168.939 L -18.1315,-168.409 L -18.3989,-167.841 L -18.5929,-167.243
 L -18.7106,-166.627 L -18.75,-166 L -18.75,-146 L -18.7106,-145.373 L -18.5929,-144.757 L -18.3989,-144.159
 L -18.1315,-143.591 L -17.7951,-143.061 L -17.3948,-142.577 L -16.9371,-142.147 L -16.4291,-141.778 L -15.8789,-141.476
 L -15.2951,-141.245 L -14.6869,-141.089 L -14.0639,-141.01 L 14.0639,-141.01 z
M -13.743,-142.388 L -14.2251,-142.449 L -14.6957,-142.57 L -15.1475,-142.749 L -15.5734,-142.983 L -15.9665,-143.269
 L -16.3207,-143.601 L -16.6305,-143.976 L -16.8908,-144.386 L -17.0977,-144.826 L -17.2479,-145.288 L -17.339,-145.765
 L -17.3695,-146.25 L -17.3695,-165.75 L -17.339,-166.235 L -17.2479,-166.712 L -17.0977,-167.174 L -16.8908,-167.614
 L -16.6305,-168.024 L -16.3207,-168.399 L -15.9665,-168.731 L -15.5734,-169.017 L -15.1475,-169.251 L -14.6957,-169.43
 L -14.2251,-169.551 L -13.743,-169.612 L 13.743,-169.612 L 14.2251,-169.551 L 14.6957,-169.43 L 15.1475,-169.251
 L 15.5734,-169.017 L 15.9665,-168.731 L 16.3207,-168.399 L 16.6305,-168.024 L 16.8908,-167.614 L 17.0977,-167.174
 L 17.2479,-166.712 L 17.339,-166.235 L 17.3695,-165.75 L 17.3695,-146.25 L 17.339,-145.765 L 17.2479,-145.288
 L 17.0977,-144.826 L 16.8908,-144.386 L 16.6305,-143.976 L 16.3207,-143.601 L 15.9665,-143.269 L 15.5734,-142.983
 L 15.1475,-142.749 L 14.6957,-142.57 L 14.2251,-142.449 L 13.743,-142.388 z
M 14.6869,-102.089 L 15.2951,-102.245 L 15.8789,-102.476 L 16.4291,-102.778 L 16.9371,-103.147 L 17.3948,-103.577
 L 17.7951,-104.061 L 18.1315,-104.591 L 18.3989,-105.159 L 18.5929,-105.757 L 18.7106,-106.373 L 18.75,-107
 L 18.75,-127 L 18.7106,-127.627 L 18.5929,-128.243 L 18.3989,-128.841 L 18.1315,-129.409 L 17.7951,-129.939
 L 17.3948,-130.423 L 16.9371,-130.853 L 16.4291,-131.222 L 15.8789,-131.524 L 15.2951,-131.755 L 14.6869,-131.911
 L 14.0639,-131.99 L -14.0639,-131.99 L -14.6869,-131.911 L -15.2951,-131.755 L -15.8789,-131.524 L -16.4291,-131.222
 L -16.9371,-130.853 L -17.3948,-130.423 L -17.7951,-129.939 L -18.1315,-129.409 L -18.3989,-128.841 L -18.5929,-128.243
 L -18.7106,-127.627 L -18.75,-127 L -18.75,-107 L -18.7106,-106.373 L -18.5929,-105.757 L -18.3989,-105.159
 L -18.1315,-104.591 L -17.7951,-104.061 L -17.3948,-103.577 L -16.9371,-103.147 L -16.4291,-102.778 L -15.8789,-102.476
 L -15.2951,-102.245 L -14.6869,-102.089 L -14.0639,-102.01 L 14.0639,-102.01 z
M 11.1558,-123.003 L 10.9689,-123.027 L 10.7865,-123.073 L 10.6113,-123.143 L 10.4463,-123.234 L 10.2939,-123.344
 L 10.1565,-123.473 L 10.0365,-123.618 L 9.93553,-123.777 L 9.85533,-123.948 L 9.79712,-124.127 L 9.76183,-124.312
 L 9.75,-124.5 L 9.76183,-124.688 L 9.79712,-124.873 L 9.85533,-125.052 L 9.93553,-125.223 L 10.0365,-125.382
 L 10.1565,-125.527 L 10.2939,-125.656 L 10.4463,-125.766 L 10.6113,-125.857 L 10.7865,-125.927 L 10.9689,-125.973
 L 11.1558,-125.997 L 11.3442,-125.997 L 11.5311,-125.973 L 11.7135,-125.927 L 11.8887,-125.857 L 12.0537,-125.766
 L 12.2061,-125.656 L 12.3434,-125.527 L 12.4635,-125.382 L 12.5645,-125.223 L 12.6447,-125.052 L 12.7029,-124.873
 L 12.7382,-124.688 L 12.75,-124.5 L 12.7382,-124.312 L 12.7029,-124.127 L 12.6447,-123.948 L 12.5645,-123.777
 L 12.4635,-123.618 L 12.3434,-123.473 L 12.2061,-123.344 L 12.0537,-123.234 L 11.8887,-123.143 L 11.7135,-123.073
 L 11.5311,-123.027 L 11.3442,-123.003 z
M -11.3442,-123.003 L -11.5311,-123.027 L -11.7135,-123.073 L -11.8887,-123.143 L -12.0537,-123.234 L -12.2061,-123.344
 L -12.3434,-123.473 L -12.4635,-123.618 L -12.5645,-123.777 L -12.6447,-123.948 L -12.7029,-124.127 L -12.7382,-124.312
 L -12.75,-124.5 L -12.7382,-124.688 L -12.7029,-124.873 L -12.6447,-125.052 L -12.5645,-125.223 L -12.4635,-125.382
 L -12.3434,-125.527 L -12.2061,-125.656 L -12.0537,-125.766 L -11.8887,-125.857 L -11.7135,-125.927 L -11.5311,-125.973
 L -11.3442,-125.997 L -11.1558,-125.997 L -10.9689,-125.973 L -10.7865,-125.927 L -10.6113,-125.857 L -10.4463,-125.766
 L -10.2939,-125.656 L -10.1565,-125.527 L -10.0365,-125.382 L -9.93553,-125.223 L -9.85533,-125.052 L -9.79712,-124.873
 L -9.76183,-124.688 L -9.75,-124.5 L -9.76183,-124.312 L -9.79712,-124.127 L -9.85533,-123.948 L -9.93553,-123.777
 L -10.0365,-123.618 L -10.1565,-123.473 L -10.2939,-123.344 L -10.4463,-123.234 L -10.6113,-123.143 L -10.7865,-123.073
 L -10.9689,-123.027 L -11.1558,-123.003 z
M 11.1558,-108.003 L 10.9689,-108.027 L 10.7865,-108.073 L 10.6113,-108.143 L 10.4463,-108.234 L 10.2939,-108.344
 L 10.1565,-108.473 L 10.0365,-108.618 L 9.93553,-108.777 L 9.85533,-108.948 L 9.79712,-109.127 L 9.76183,-109.312
 L 9.75,-109.5 L 9.76183,-109.688 L 9.79712,-109.873 L 9.85533,-110.052 L 9.93553,-110.223 L 10.0365,-110.382
 L 10.1565,-110.527 L 10.2939,-110.656 L 10.4463,-110.766 L 10.6113,-110.857 L 10.7865,-110.927 L 10.9689,-110.973
 L 11.1558,-110.997 L 11.3442,-110.997 L 11.5311,-110.973 L 11.7135,-110.927 L 11.8887,-110.857 L 12.0537,-110.766
 L 12.2061,-110.656 L 12.3434,-110.527 L 12.4635,-110.382 L 12.5645,-110.223 L 12.6447,-110.052 L 12.7029,-109.873
 L 12.7382,-109.688 L 12.75,-109.5 L 12.7382,-109.312 L 12.7029,-109.127 L 12.6447,-108.948 L 12.5645,-108.777
 L 12.4635,-108.618 L 12.3434,-108.473 L 12.2061,-108.344 L 12.0537,-108.234 L 11.8887,-108.143 L 11.7135,-108.073
 L 11.5311,-108.027 L 11.3442,-108.003 z
M -11.3442,-108.003 L -11.5311,-108.027 L -11.7135,-108.073 L -11.8887,-108.143 L -12.0537,-108.234 L -12.2061,-108.344
 L -12.3434,-108.473 L -12.4635,-108.618 L -12.5645,-108.777 L -12.6447,-108.948 L -12.7029,-109.127 L -12.7382,-109.312
 L -12.75,-109.5 L -12.7382,-109.688 L -12.7029,-109.873 L -12.6447,-110.052 L -12.5645,-110.223 L -12.4635,-110.382
 L -12.3434,-110.527 L -12.2061,-110.656 L -12.0537,-110.766 L -11.8887,-110.857 L -11.7135,-110.927 L -11.5311,-110.973
 L -11.3442,-110.997 L -11.1558,-110.997 L -10.9689,-110.973 L -10.7865,-110.927 L -10.6113,-110.857 L -10.4463,-110.766
 L -10.2939,-110.656 L -10.1565,-110.527 L -10.0365,-110.382 L -9.93553,-110.223 L -9.85533,-110.052 L -9.79712,-109.873
 L -9.76183,-109.688 L -9.75,-109.5 L -9.76183,-109.312 L -9.79712,-109.127 L -9.85533,-108.948 L -9.93553,-108.777
 L -10.0365,-108.618 L -10.1565,-108.473 L -10.2939,-108.344 L -10.4463,-108.234 L -10.6113,-108.143 L -10.7865,-108.073
 L -10.9689,-108.027 L -11.1558,-108.003 z
" stroke="black" fill="lightgray" stroke-width="0.5"/>
</svg>
