<?xml version="1.0" standalone="no"?>
<!DOCTYPE svg PUBLIC "-//W3C//DTD SVG 1.1//EN" "http://www.w3.org/Graphics/SVG/1.1/DTD/svg11.dtd">
<svg width="14mm" height="206mm" viewBox="-7 -400 14 206" xmlns="http://www.w3.org/2000/svg" version="1.1">
<title>OpenSCAD Model</title>
<path d="
M 2.9369,-356.089 L 3.54507,-356.245 L 4.12889,-356.476 L 4.67912,-356.778 L 5.18712,-357.147 L 5.64484,-357.577
 L 6.04507,-358.061 L 6.38153,-358.591 L 6.64888,-359.159 L 6.84291,-359.757 L 6.96057,-360.373 L 7,-361
 L 7,-395 L 6.96057,-395.627 L 6.84291,-396.243 L 6.64888,-396.841 L 6.38153,-397.409 L 6.04507,-397.939
 L 5.64484,-398.423 L 5.18712,-398.853 L 4.67912,-399.222 L 4.12889,-399.524 L 3.54507,-399.755 L 2.9369,-399.911
 L 2.31395,-399.99 L -2.31395,-399.99 L -2.9369,-399.911 L -3.54507,-399.755 L -4.12889,-399.524 L -4.67912,-399.222
 L -5.18712,-398.853 L -5.64484,-398.423 L -6.04507,-397.939 L -6.38153,-397.409 L -6.64888,-396.841 L -6.84291,-396.243
 L -6.96057,-395.627 L -7,-395 L -7,-361 L -6.96057,-360.373 L -6.84291,-359.757 L -6.64888,-359.159
 L -6.38153,-358.591 L -6.04507,-358.061 L -5.64484,-357.577 L -5.18712,-357.147 L -4.67912,-356.778 L -4.12889,-356.476
 L -3.54507,-356.245 L -2.9369,-356.089 L -2.31395,-356.01 L 2.31395,-356.01 z
M -2.04825,-356.509 L -2.64006,-356.584 L -3.21782,-356.732 L -3.77245,-356.952 L -4.29517,-357.239 L -4.77776,-357.59
 L -5.2126,-357.998 L -5.59282,-358.458 L -5.91245,-358.962 L -6.16643,-359.501 L -6.35077,-360.069 L -6.46254,-360.655
 L -6.5,-361.25 L -6.5,-394.75 L -6.46254,-395.345 L -6.35077,-395.931 L -6.16643,-396.499 L -5.91245,-397.038
 L -5.59282,-397.542 L -5.2126,-398.002 L -4.77776,-398.41 L -4.29517,-398.761 L -3.77245,-399.048 L -3.21782,-399.268
 L -2.64006,-399.416 L -2.04825,-399.491 L 2.04825,-399.491 L 2.64006,-399.416 L 3.21782,-399.268 L 3.77245,-399.048
 L 4.29517,-398.761 L 4.77776,-398.41 L 5.2126,-398.002 L 5.59282,-397.542 L 5.91245,-397.038 L 6.16643,-396.499
 L 6.35077,-395.931 L 6.46254,-395.345 L 6.5,-394.75 L 6.5,-361.25 L 6.46254,-360.655 L 6.35077,-360.069
 L 6.16643,-359.501 L 5.91245,-358.962 L 5.59282,-358.458 L 5.2126,-357.998 L 4.77776,-357.59 L 4.29517,-357.239
 L 3.77245,-356.952 L 3.21782,-356.732 L 2.64006,-356.584 L 2.04825,-356.509 z
M 2.9369,-302.089 L 3.54507,-302.245 L 4.12889,-302.476 L 4.67912,-302.778 L 5.18712,-303.147 L 5.64484,-303.577
 L 6.04507,-304.061 L 6.38153,-304.591 L 6.64888,-305.159 L 6.84291,-305.757 L 6.96057,-306.373 L 7,-307
 L 7,-341 L 6.96057,-341.627 L 6.84291,-342.243 L 6.64888,-342.841 L 6.38153,-343.409 L 6.04507,-343.939
 L 5.64484,-344.423 L 5.18712,-344.853 L 4.67912,-345.222 L 4.12889,-345.524 L 3.54507,-345.755 L 2.9369,-345.911
 L 2.31395,-345.99 L -2.31395,-345.99 L -2.9369,-345.911 L -3.54507,-345.755 L -4.12889,-345.524 L -4.67912,-345.222
 L -5.18712,-344.853 L -5.64484,-344.423 L -6.04507,-343.939 L -6.38153,-343.409 L -6.64888,-342.841 L -6.84291,-342.243
 L -6.96057,-341.627 L -7,-341 L -7,-307 L -6.96057,-306.373 L -6.84291,-305.757 L -6.64888,-305.159
 L -6.38153,-304.591 L -6.04507,-304.061 L -5.64484,-303.577 L -5.18712,-303.147 L -4.67912,-302.778 L -4.12889,-302.476
 L -3.54507,-302.245 L -2.9369,-302.089 L -2.31395,-302.01 L 2.31395,-302.01 z
M -2.04825,-302.509 L -2.64006,-302.584 L -3.21782,-302.732 L -3.77245,-302.952 L -4.29517,-303.239 L -4.77776,-303.59
 L -5.2126,-303.998 L -5.59282,-304.458 L -5.91245,-304.962 L -6.16643,-305.501 L -6.35077,-306.069 L -6.46254,-306.655
 L -6.5,-307.25 L -6.5,-340.75 L -6.46254,-341.345 L -6.35077,-341.931 L -6.16643,-342.499 L -5.91245,-343.038
 L -5.59282,-343.542 L -5.2126,-344.002 L -4.77776,-344.41 L -4.29517,-344.761 L -3.77245,-345.048 L -3.21782,-345.268
 L -2.64006,-345.416 L -2.04825,-345.491 L 2.04825,-345.491 L 2.64006,-345.416 L 3.21782,-345.268 L 3.77245,-345.048
 L 4.29517,-344.761 L 4.77776,-344.41 L 5.2126,-344.002 L 5.59282,-343.542 L 5.91245,-343.038 L 6.16643,-342.499
 L 6.35077,-341.931 L 6.46254,-341.345 L 6.5,-340.75 L 6.5,-307.25 L 6.46254,-306.655 L 6.35077,-306.069
 L 6.16643,-305.501 L 5.91245,-304.962 L 5.59282,-304.458 L 5.2126,-303.998 L 4.77776,-303.59 L 4.29517,-303.239
 L 3.77245,-302.952 L 3.21782,-302.732 L 2.64006,-302.584 L 2.04825,-302.509 z
M 2.9369,-248.089 L 3.54507,-248.245 L 4.12889,-248.476 L 4.67912,-248.778 L 5.18712,-249.147 L 5.64484,-249.577
 L 6.04507,-250.061 L 6.38153,-250.591 L 6.64888,-251.159 L 6.84291,-251.757 L 6.96057,-252.373 L 7,-253
 L 7,-287 L 6.96057,-287.627 L 6.84291,-288.243 L 6.64888,-288.841 L 6.38153,-289.409 L 6.04507,-289.939
 L 5.64484,-290.423 L 5.18712,-290.853 L 4.67912,-291.222 L 4.12889,-291.524 L 3.54507,-291.755 L 2.9369,-291.911
 L 2.31395,-291.99 L -2.31395,-291.99 L -2.9369,-291.911 L -3.54507,-291.755 L -4.12889,-291.524 L -4.67912,-291.222
 L -5.18712,-290.853 L -5.64484,-290.423 L -6.04507,-289.939 L -6.38153,-289.409 L -6.64888,-288.841 L -6.84291,-288.243
 L -6.96057,-287.627 L -7,-287 L -7,-253 L -6.96057,-252.373 L -6.84291,-251.757 L -6.64888,-251.159
 L -6.38153,-250.591 L -6.04507,-250.061 L -5.64484,-249.577 L -5.18712,-249.147 L -4.67912,-248.778 L -4.12889,-248.476
 L -3.54507,-248.245 L -2.9369,-248.089 L -2.31395,-248.01 L 2.31395,-248.01 z
M -2.03748,-248.681 L -2.60791,-248.753 L -3.16481,-248.896 L -3.6994,-249.107 L -4.20325,-249.384 L -4.6684,-249.722
 L -5.08754,-250.116 L -5.45403,-250.559 L -5.76212,-251.044 L -6.00691,-251.565 L -6.18459,-252.111 L -6.29233,-252.676
 L -6.32843,-253.25 L -6.32843,-286.75 L -6.29233,-287.324 L -6.18459,-287.889 L -6.00691,-288.435 L -5.76212,-288.956
 L -5.45403,-289.441 L -5.08754,-289.884 L -4.6684,-290.278 L -4.20325,-290.616 L -3.6994,-290.893 L -3.16481,-291.104
 L -2.60791,-291.247 L -2.03748,-291.319 L 2.03748,-291.319 L 2.60791,-291.247 L 3.16481,-291.104 L 3.6994,-290.893
 L 4.20325,-290.616 L 4.6684,-290.278 L 5.08754,-289.884 L 5.45403,-289.441 L 5.76212,-288.956 L 6.00691,-288.435
 L 6.18459,-287.889 L 6.29233,-287.324 L 6.32843,-286.75 L 6.32843,-253.25 L 6.29233,-252.676 L 6.18459,-252.111
 L 6.00691,-251.565 L 5.76212,-251.044 L 5.45403,-250.559 L 5.08754,-250.116 L 4.6684,-249.722 L 4.20325,-249.384
 L 3.6994,-249.107 L 3.16481,-248.896 L 2.60791,-248.753 L 2.03748,-248.681 z
M 2.9369,-194.089 L 3.54507,-194.245 L 4.12889,-194.476 L 4.67912,-194.778 L 5.18712,-195.147 L 5.64484,-195.577
 L 6.04507,-196.061 L 6.38153,-196.591 L 6.64888,-197.159 L 6.84291,-197.757 L 6.96057,-198.373 L 7,-199
 L 7,-233 L 6.96057,-233.627 L 6.84291,-234.243 L 6.64888,-234.841 L 6.38153,-235.409 L 6.04507,-235.939
 L 5.64484,-236.423 L 5.18712,-236.853 L 4.67912,-237.222 L 4.12889,-237.524 L 3.54507,-237.755 L 2.9369,-237.911
 L 2.31395,-237.99 L -2.31395,-237.99 L -2.9369,-237.911 L -3.54507,-237.755 L -4.12889,-237.524 L -4.67912,-237.222
 L -5.18712,-236.853 L -5.64484,-236.423 L -6.04507,-235.939 L -6.38153,-235.409 L -6.64888,-234.841 L -6.84291,-234.243
 L -6.96057,-233.627 L -7,-233 L -7,-199 L -6.96057,-198.373 L -6.84291,-197.757 L -6.64888,-197.159
 L -6.38153,-196.591 L -6.04507,-196.061 L -5.64484,-195.577 L -5.18712,-195.147 L -4.67912,-194.778 L -4.12889,-194.476
 L -3.54507,-194.245 L -2.9369,-194.089 L -2.31395,-194.01 L 2.31395,-194.01 z
M -1.88246,-197.145 L -2.14529,-197.178 L -2.4019,-197.244 L -2.64822,-197.341 L -2.88039,-197.469 L -3.09473,-197.625
 L -3.28784,-197.806 L -3.45673,-198.01 L -3.59868,-198.234 L -3.71149,-198.473 L -3.79335,-198.725 L -3.84299,-198.986
 L -3.85962,-199.25 L -3.85962,-232.75 L -3.84299,-233.014 L -3.79335,-233.275 L -3.71149,-233.527 L -3.59868,-233.766
 L -3.45673,-233.99 L -3.28784,-234.194 L -3.09473,-234.375 L -2.88039,-234.531 L -2.64822,-234.659 L -2.4019,-234.756
 L -2.14529,-234.822 L -1.88246,-234.855 L 1.88246,-234.855 L 2.14529,-234.822 L 2.4019,-234.756 L 2.64822,-234.659
 L 2.88039,-234.531 L 3.09473,-234.375 L 3.28784,-234.194 L 3.45673,-233.99 L 3.59868,-233.766 L 3.71149,-233.527
 L 3.79335,-233.275 L 3.84299,-233.014 L 3.85962,-232.75 L 3.85962,-199.25 L 3.84299,-198.986 L 3.79335,-198.725
 L 3.71149,-198.473 L 3.59868,-198.234 L 3.45673,-198.01 L 3.28784,-197.806 L 3.09473,-197.625 L 2.88039,-197.469
 L 2.64822,-197.341 L 2.4019,-197.244 L 2.14529,-197.178 L 1.88246,-197.145 z
" stroke="black" fill="lightgray" stroke-width="0.5"/>
</svg>
