  0
SECTION
  2
BLOCKS
  0
ENDSEC
  0
SECTION
  2
ENTITIES
  0
LINE
  8
0
 10
3.4369
 20
355.589
 11
4.04507
 21
355.745
  0
LINE
  8
0
 10
4.04507
 20
355.745
 11
4.62889
 21
355.976
  0
LINE
  8
0
 10
4.62889
 20
355.976
 11
5.17912
 21
356.278
  0
LINE
  8
0
 10
5.17912
 20
356.278
 11
5.68712
 21
356.647
  0
LINE
  8
0
 10
5.68712
 20
356.647
 11
6.14484
 21
357.077
  0
LINE
  8
0
 10
6.14484
 20
357.077
 11
6.54507
 21
357.561
  0
LINE
  8
0
 10
6.54507
 20
357.561
 11
6.88153
 21
358.091
  0
LINE
  8
0
 10
6.88153
 20
358.091
 11
7.14888
 21
358.659
  0
LINE
  8
0
 10
7.14888
 20
358.659
 11
7.34291
 21
359.257
  0
LINE
  8
0
 10
7.34291
 20
359.257
 11
7.46057
 21
359.873
  0
LINE
  8
0
 10
7.46057
 20
359.873
 11
7.5
 21
360.5
  0
LINE
  8
0
 10
7.5
 20
360.5
 11
7.5
 21
395.5
  0
LINE
  8
0
 10
7.5
 20
395.5
 11
7.46057
 21
396.127
  0
LINE
  8
0
 10
7.46057
 20
396.127
 11
7.34291
 21
396.743
  0
LINE
  8
0
 10
7.34291
 20
396.743
 11
7.14888
 21
397.341
  0
LINE
  8
0
 10
7.14888
 20
397.341
 11
6.88153
 21
397.909
  0
LINE
  8
0
 10
6.88153
 20
397.909
 11
6.54507
 21
398.439
  0
LINE
  8
0
 10
6.54507
 20
398.439
 11
6.14484
 21
398.923
  0
LINE
  8
0
 10
6.14484
 20
398.923
 11
5.68712
 21
399.353
  0
LINE
  8
0
 10
5.68712
 20
399.353
 11
5.17912
 21
399.722
  0
LINE
  8
0
 10
5.17912
 20
399.722
 11
4.62889
 21
400.024
  0
LINE
  8
0
 10
4.62889
 20
400.024
 11
4.04507
 21
400.255
  0
LINE
  8
0
 10
4.04507
 20
400.255
 11
3.4369
 21
400.411
  0
LINE
  8
0
 10
3.4369
 20
400.411
 11
2.81395
 21
400.49
  0
LINE
  8
0
 10
2.81395
 20
400.49
 11
-2.81395
 21
400.49
  0
LINE
  8
0
 10
-2.81395
 20
400.49
 11
-3.4369
 21
400.411
  0
LINE
  8
0
 10
-3.4369
 20
400.411
 11
-4.04507
 21
400.255
  0
LINE
  8
0
 10
-4.04507
 20
400.255
 11
-4.62889
 21
400.024
  0
LINE
  8
0
 10
-4.62889
 20
400.024
 11
-5.17912
 21
399.722
  0
LINE
  8
0
 10
-5.17912
 20
399.722
 11
-5.68712
 21
399.353
  0
LINE
  8
0
 10
-5.68712
 20
399.353
 11
-6.14484
 21
398.923
  0
LINE
  8
0
 10
-6.14484
 20
398.923
 11
-6.54507
 21
398.439
  0
LINE
  8
0
 10
-6.54507
 20
398.439
 11
-6.88153
 21
397.909
  0
LINE
  8
0
 10
-6.88153
 20
397.909
 11
-7.14888
 21
397.341
  0
LINE
  8
0
 10
-7.14888
 20
397.341
 11
-7.34291
 21
396.743
  0
LINE
  8
0
 10
-7.34291
 20
396.743
 11
-7.46057
 21
396.127
  0
LINE
  8
0
 10
-7.46057
 20
396.127
 11
-7.5
 21
395.5
  0
LINE
  8
0
 10
-7.5
 20
395.5
 11
-7.5
 21
360.5
  0
LINE
  8
0
 10
-7.5
 20
360.5
 11
-7.46057
 21
359.873
  0
LINE
  8
0
 10
-7.46057
 20
359.873
 11
-7.34291
 21
359.257
  0
LINE
  8
0
 10
-7.34291
 20
359.257
 11
-7.14888
 21
358.659
  0
LINE
  8
0
 10
-7.14888
 20
358.659
 11
-6.88153
 21
358.091
  0
LINE
  8
0
 10
-6.88153
 20
358.091
 11
-6.54507
 21
357.561
  0
LINE
  8
0
 10
-6.54507
 20
357.561
 11
-6.14484
 21
357.077
  0
LINE
  8
0
 10
-6.14484
 20
357.077
 11
-5.68712
 21
356.647
  0
LINE
  8
0
 10
-5.68712
 20
356.647
 11
-5.17912
 21
356.278
  0
LINE
  8
0
 10
-5.17912
 20
356.278
 11
-4.62889
 21
355.976
  0
LINE
  8
0
 10
-4.62889
 20
355.976
 11
-4.04507
 21
355.745
  0
LINE
  8
0
 10
-4.04507
 20
355.745
 11
-3.4369
 21
355.589
  0
LINE
  8
0
 10
-3.4369
 20
355.589
 11
-2.81395
 21
355.51
  0
LINE
  8
0
 10
-2.81395
 20
355.51
 11
2.81395
 21
355.51
  0
LINE
  8
0
 10
2.81395
 20
355.51
 11
3.4369
 21
355.589
  0
LINE
  8
0
 10
-2.54825
 20
356.009
 11
-3.14006
 21
356.084
  0
LINE
  8
0
 10
-3.14006
 20
356.084
 11
-3.71782
 21
356.232
  0
LINE
  8
0
 10
-3.71782
 20
356.232
 11
-4.27245
 21
356.452
  0
LINE
  8
0
 10
-4.27245
 20
356.452
 11
-4.79517
 21
356.739
  0
LINE
  8
0
 10
-4.79517
 20
356.739
 11
-5.27776
 21
357.09
  0
LINE
  8
0
 10
-5.27776
 20
357.09
 11
-5.7126
 21
357.498
  0
LINE
  8
0
 10
-5.7126
 20
357.498
 11
-6.09282
 21
357.958
  0
LINE
  8
0
 10
-6.09282
 20
357.958
 11
-6.41245
 21
358.462
  0
LINE
  8
0
 10
-6.41245
 20
358.462
 11
-6.66643
 21
359.001
  0
LINE
  8
0
 10
-6.66643
 20
359.001
 11
-6.85077
 21
359.569
  0
LINE
  8
0
 10
-6.85077
 20
359.569
 11
-6.96254
 21
360.155
  0
LINE
  8
0
 10
-6.96254
 20
360.155
 11
-7
 21
360.75
  0
LINE
  8
0
 10
-7
 20
360.75
 11
-7
 21
395.25
  0
LINE
  8
0
 10
-7
 20
395.25
 11
-6.96254
 21
395.845
  0
LINE
  8
0
 10
-6.96254
 20
395.845
 11
-6.85077
 21
396.431
  0
LINE
  8
0
 10
-6.85077
 20
396.431
 11
-6.66643
 21
396.999
  0
LINE
  8
0
 10
-6.66643
 20
396.999
 11
-6.41245
 21
397.538
  0
LINE
  8
0
 10
-6.41245
 20
397.538
 11
-6.09282
 21
398.042
  0
LINE
  8
0
 10
-6.09282
 20
398.042
 11
-5.7126
 21
398.502
  0
LINE
  8
0
 10
-5.7126
 20
398.502
 11
-5.27776
 21
398.91
  0
LINE
  8
0
 10
-5.27776
 20
398.91
 11
-4.79517
 21
399.261
  0
LINE
  8
0
 10
-4.79517
 20
399.261
 11
-4.27245
 21
399.548
  0
LINE
  8
0
 10
-4.27245
 20
399.548
 11
-3.71782
 21
399.768
  0
LINE
  8
0
 10
-3.71782
 20
399.768
 11
-3.14006
 21
399.916
  0
LINE
  8
0
 10
-3.14006
 20
399.916
 11
-2.54825
 21
399.991
  0
LINE
  8
0
 10
-2.54825
 20
399.991
 11
2.54825
 21
399.991
  0
LINE
  8
0
 10
2.54825
 20
399.991
 11
3.14006
 21
399.916
  0
LINE
  8
0
 10
3.14006
 20
399.916
 11
3.71782
 21
399.768
  0
LINE
  8
0
 10
3.71782
 20
399.768
 11
4.27245
 21
399.548
  0
LINE
  8
0
 10
4.27245
 20
399.548
 11
4.79517
 21
399.261
  0
LINE
  8
0
 10
4.79517
 20
399.261
 11
5.27776
 21
398.91
  0
LINE
  8
0
 10
5.27776
 20
398.91
 11
5.7126
 21
398.502
  0
LINE
  8
0
 10
5.7126
 20
398.502
 11
6.09282
 21
398.042
  0
LINE
  8
0
 10
6.09282
 20
398.042
 11
6.41245
 21
397.538
  0
LINE
  8
0
 10
6.41245
 20
397.538
 11
6.66643
 21
396.999
  0
LINE
  8
0
 10
6.66643
 20
396.999
 11
6.85077
 21
396.431
  0
LINE
  8
0
 10
6.85077
 20
396.431
 11
6.96254
 21
395.845
  0
LINE
  8
0
 10
6.96254
 20
395.845
 11
7
 21
395.25
  0
LINE
  8
0
 10
7
 20
395.25
 11
7
 21
360.75
  0
LINE
  8
0
 10
7
 20
360.75
 11
6.96254
 21
360.155
  0
LINE
  8
0
 10
6.96254
 20
360.155
 11
6.85077
 21
359.569
  0
LINE
  8
0
 10
6.85077
 20
359.569
 11
6.66643
 21
359.001
  0
LINE
  8
0
 10
6.66643
 20
359.001
 11
6.41245
 21
358.462
  0
LINE
  8
0
 10
6.41245
 20
358.462
 11
6.09282
 21
357.958
  0
LINE
  8
0
 10
6.09282
 20
357.958
 11
5.7126
 21
357.498
  0
LINE
  8
0
 10
5.7126
 20
357.498
 11
5.27776
 21
357.09
  0
LINE
  8
0
 10
5.27776
 20
357.09
 11
4.79517
 21
356.739
  0
LINE
  8
0
 10
4.79517
 20
356.739
 11
4.27245
 21
356.452
  0
LINE
  8
0
 10
4.27245
 20
356.452
 11
3.71782
 21
356.232
  0
LINE
  8
0
 10
3.71782
 20
356.232
 11
3.14006
 21
356.084
  0
LINE
  8
0
 10
3.14006
 20
356.084
 11
2.54825
 21
356.009
  0
LINE
  8
0
 10
2.54825
 20
356.009
 11
-2.54825
 21
356.009
  0
LINE
  8
0
 10
3.4369
 20
301.589
 11
4.04507
 21
301.745
  0
LINE
  8
0
 10
4.04507
 20
301.745
 11
4.62889
 21
301.976
  0
LINE
  8
0
 10
4.62889
 20
301.976
 11
5.17912
 21
302.278
  0
LINE
  8
0
 10
5.17912
 20
302.278
 11
5.68712
 21
302.647
  0
LINE
  8
0
 10
5.68712
 20
302.647
 11
6.14484
 21
303.077
  0
LINE
  8
0
 10
6.14484
 20
303.077
 11
6.54507
 21
303.561
  0
LINE
  8
0
 10
6.54507
 20
303.561
 11
6.88153
 21
304.091
  0
LINE
  8
0
 10
6.88153
 20
304.091
 11
7.14888
 21
304.659
  0
LINE
  8
0
 10
7.14888
 20
304.659
 11
7.34291
 21
305.257
  0
LINE
  8
0
 10
7.34291
 20
305.257
 11
7.46057
 21
305.873
  0
LINE
  8
0
 10
7.46057
 20
305.873
 11
7.5
 21
306.5
  0
LINE
  8
0
 10
7.5
 20
306.5
 11
7.5
 21
341.5
  0
LINE
  8
0
 10
7.5
 20
341.5
 11
7.46057
 21
342.127
  0
LINE
  8
0
 10
7.46057
 20
342.127
 11
7.34291
 21
342.743
  0
LINE
  8
0
 10
7.34291
 20
342.743
 11
7.14888
 21
343.341
  0
LINE
  8
0
 10
7.14888
 20
343.341
 11
6.88153
 21
343.909
  0
LINE
  8
0
 10
6.88153
 20
343.909
 11
6.54507
 21
344.439
  0
LINE
  8
0
 10
6.54507
 20
344.439
 11
6.14484
 21
344.923
  0
LINE
  8
0
 10
6.14484
 20
344.923
 11
5.68712
 21
345.353
  0
LINE
  8
0
 10
5.68712
 20
345.353
 11
5.17912
 21
345.722
  0
LINE
  8
0
 10
5.17912
 20
345.722
 11
4.62889
 21
346.024
  0
LINE
  8
0
 10
4.62889
 20
346.024
 11
4.04507
 21
346.255
  0
LINE
  8
0
 10
4.04507
 20
346.255
 11
3.4369
 21
346.411
  0
LINE
  8
0
 10
3.4369
 20
346.411
 11
2.81395
 21
346.49
  0
LINE
  8
0
 10
2.81395
 20
346.49
 11
-2.81395
 21
346.49
  0
LINE
  8
0
 10
-2.81395
 20
346.49
 11
-3.4369
 21
346.411
  0
LINE
  8
0
 10
-3.4369
 20
346.411
 11
-4.04507
 21
346.255
  0
LINE
  8
0
 10
-4.04507
 20
346.255
 11
-4.62889
 21
346.024
  0
LINE
  8
0
 10
-4.62889
 20
346.024
 11
-5.17912
 21
345.722
  0
LINE
  8
0
 10
-5.17912
 20
345.722
 11
-5.68712
 21
345.353
  0
LINE
  8
0
 10
-5.68712
 20
345.353
 11
-6.14484
 21
344.923
  0
LINE
  8
0
 10
-6.14484
 20
344.923
 11
-6.54507
 21
344.439
  0
LINE
  8
0
 10
-6.54507
 20
344.439
 11
-6.88153
 21
343.909
  0
LINE
  8
0
 10
-6.88153
 20
343.909
 11
-7.14888
 21
343.341
  0
LINE
  8
0
 10
-7.14888
 20
343.341
 11
-7.34291
 21
342.743
  0
LINE
  8
0
 10
-7.34291
 20
342.743
 11
-7.46057
 21
342.127
  0
LINE
  8
0
 10
-7.46057
 20
342.127
 11
-7.5
 21
341.5
  0
LINE
  8
0
 10
-7.5
 20
341.5
 11
-7.5
 21
306.5
  0
LINE
  8
0
 10
-7.5
 20
306.5
 11
-7.46057
 21
305.873
  0
LINE
  8
0
 10
-7.46057
 20
305.873
 11
-7.34291
 21
305.257
  0
LINE
  8
0
 10
-7.34291
 20
305.257
 11
-7.14888
 21
304.659
  0
LINE
  8
0
 10
-7.14888
 20
304.659
 11
-6.88153
 21
304.091
  0
LINE
  8
0
 10
-6.88153
 20
304.091
 11
-6.54507
 21
303.561
  0
LINE
  8
0
 10
-6.54507
 20
303.561
 11
-6.14484
 21
303.077
  0
LINE
  8
0
 10
-6.14484
 20
303.077
 11
-5.68712
 21
302.647
  0
LINE
  8
0
 10
-5.68712
 20
302.647
 11
-5.17912
 21
302.278
  0
LINE
  8
0
 10
-5.17912
 20
302.278
 11
-4.62889
 21
301.976
  0
LINE
  8
0
 10
-4.62889
 20
301.976
 11
-4.04507
 21
301.745
  0
LINE
  8
0
 10
-4.04507
 20
301.745
 11
-3.4369
 21
301.589
  0
LINE
  8
0
 10
-3.4369
 20
301.589
 11
-2.81395
 21
301.51
  0
LINE
  8
0
 10
-2.81395
 20
301.51
 11
2.81395
 21
301.51
  0
LINE
  8
0
 10
2.81395
 20
301.51
 11
3.4369
 21
301.589
  0
LINE
  8
0
 10
-2.54825
 20
302.009
 11
-3.14006
 21
302.084
  0
LINE
  8
0
 10
-3.14006
 20
302.084
 11
-3.71782
 21
302.232
  0
LINE
  8
0
 10
-3.71782
 20
302.232
 11
-4.27245
 21
302.452
  0
LINE
  8
0
 10
-4.27245
 20
302.452
 11
-4.79517
 21
302.739
  0
LINE
  8
0
 10
-4.79517
 20
302.739
 11
-5.27776
 21
303.09
  0
LINE
  8
0
 10
-5.27776
 20
303.09
 11
-5.7126
 21
303.498
  0
LINE
  8
0
 10
-5.7126
 20
303.498
 11
-6.09282
 21
303.958
  0
LINE
  8
0
 10
-6.09282
 20
303.958
 11
-6.41245
 21
304.462
  0
LINE
  8
0
 10
-6.41245
 20
304.462
 11
-6.66643
 21
305.001
  0
LINE
  8
0
 10
-6.66643
 20
305.001
 11
-6.85077
 21
305.569
  0
LINE
  8
0
 10
-6.85077
 20
305.569
 11
-6.96254
 21
306.155
  0
LINE
  8
0
 10
-6.96254
 20
306.155
 11
-7
 21
306.75
  0
LINE
  8
0
 10
-7
 20
306.75
 11
-7
 21
341.25
  0
LINE
  8
0
 10
-7
 20
341.25
 11
-6.96254
 21
341.845
  0
LINE
  8
0
 10
-6.96254
 20
341.845
 11
-6.85077
 21
342.431
  0
LINE
  8
0
 10
-6.85077
 20
342.431
 11
-6.66643
 21
342.999
  0
LINE
  8
0
 10
-6.66643
 20
342.999
 11
-6.41245
 21
343.538
  0
LINE
  8
0
 10
-6.41245
 20
343.538
 11
-6.09282
 21
344.042
  0
LINE
  8
0
 10
-6.09282
 20
344.042
 11
-5.7126
 21
344.502
  0
LINE
  8
0
 10
-5.7126
 20
344.502
 11
-5.27776
 21
344.91
  0
LINE
  8
0
 10
-5.27776
 20
344.91
 11
-4.79517
 21
345.261
  0
LINE
  8
0
 10
-4.79517
 20
345.261
 11
-4.27245
 21
345.548
  0
LINE
  8
0
 10
-4.27245
 20
345.548
 11
-3.71782
 21
345.768
  0
LINE
  8
0
 10
-3.71782
 20
345.768
 11
-3.14006
 21
345.916
  0
LINE
  8
0
 10
-3.14006
 20
345.916
 11
-2.54825
 21
345.991
  0
LINE
  8
0
 10
-2.54825
 20
345.991
 11
2.54825
 21
345.991
  0
LINE
  8
0
 10
2.54825
 20
345.991
 11
3.14006
 21
345.916
  0
LINE
  8
0
 10
3.14006
 20
345.916
 11
3.71782
 21
345.768
  0
LINE
  8
0
 10
3.71782
 20
345.768
 11
4.27245
 21
345.548
  0
LINE
  8
0
 10
4.27245
 20
345.548
 11
4.79517
 21
345.261
  0
LINE
  8
0
 10
4.79517
 20
345.261
 11
5.27776
 21
344.91
  0
LINE
  8
0
 10
5.27776
 20
344.91
 11
5.7126
 21
344.502
  0
LINE
  8
0
 10
5.7126
 20
344.502
 11
6.09282
 21
344.042
  0
LINE
  8
0
 10
6.09282
 20
344.042
 11
6.41245
 21
343.538
  0
LINE
  8
0
 10
6.41245
 20
343.538
 11
6.66643
 21
342.999
  0
LINE
  8
0
 10
6.66643
 20
342.999
 11
6.85077
 21
342.431
  0
LINE
  8
0
 10
6.85077
 20
342.431
 11
6.96254
 21
341.845
  0
LINE
  8
0
 10
6.96254
 20
341.845
 11
7
 21
341.25
  0
LINE
  8
0
 10
7
 20
341.25
 11
7
 21
306.75
  0
LINE
  8
0
 10
7
 20
306.75
 11
6.96254
 21
306.155
  0
LINE
  8
0
 10
6.96254
 20
306.155
 11
6.85077
 21
305.569
  0
LINE
  8
0
 10
6.85077
 20
305.569
 11
6.66643
 21
305.001
  0
LINE
  8
0
 10
6.66643
 20
305.001
 11
6.41245
 21
304.462
  0
LINE
  8
0
 10
6.41245
 20
304.462
 11
6.09282
 21
303.958
  0
LINE
  8
0
 10
6.09282
 20
303.958
 11
5.7126
 21
303.498
  0
LINE
  8
0
 10
5.7126
 20
303.498
 11
5.27776
 21
303.09
  0
LINE
  8
0
 10
5.27776
 20
303.09
 11
4.79517
 21
302.739
  0
LINE
  8
0
 10
4.79517
 20
302.739
 11
4.27245
 21
302.452
  0
LINE
  8
0
 10
4.27245
 20
302.452
 11
3.71782
 21
302.232
  0
LINE
  8
0
 10
3.71782
 20
302.232
 11
3.14006
 21
302.084
  0
LINE
  8
0
 10
3.14006
 20
302.084
 11
2.54825
 21
302.009
  0
LINE
  8
0
 10
2.54825
 20
302.009
 11
-2.54825
 21
302.009
  0
LINE
  8
0
 10
3.4369
 20
247.589
 11
4.04507
 21
247.745
  0
LINE
  8
0
 10
4.04507
 20
247.745
 11
4.62889
 21
247.976
  0
LINE
  8
0
 10
4.62889
 20
247.976
 11
5.17912
 21
248.278
  0
LINE
  8
0
 10
5.17912
 20
248.278
 11
5.68712
 21
248.647
  0
LINE
  8
0
 10
5.68712
 20
248.647
 11
6.14484
 21
249.077
  0
LINE
  8
0
 10
6.14484
 20
249.077
 11
6.54507
 21
249.561
  0
LINE
  8
0
 10
6.54507
 20
249.561
 11
6.88153
 21
250.091
  0
LINE
  8
0
 10
6.88153
 20
250.091
 11
7.14888
 21
250.659
  0
LINE
  8
0
 10
7.14888
 20
250.659
 11
7.34291
 21
251.257
  0
LINE
  8
0
 10
7.34291
 20
251.257
 11
7.46057
 21
251.873
  0
LINE
  8
0
 10
7.46057
 20
251.873
 11
7.5
 21
252.5
  0
LINE
  8
0
 10
7.5
 20
252.5
 11
7.5
 21
287.5
  0
LINE
  8
0
 10
7.5
 20
287.5
 11
7.46057
 21
288.127
  0
LINE
  8
0
 10
7.46057
 20
288.127
 11
7.34291
 21
288.743
  0
LINE
  8
0
 10
7.34291
 20
288.743
 11
7.14888
 21
289.341
  0
LINE
  8
0
 10
7.14888
 20
289.341
 11
6.88153
 21
289.909
  0
LINE
  8
0
 10
6.88153
 20
289.909
 11
6.54507
 21
290.439
  0
LINE
  8
0
 10
6.54507
 20
290.439
 11
6.14484
 21
290.923
  0
LINE
  8
0
 10
6.14484
 20
290.923
 11
5.68712
 21
291.353
  0
LINE
  8
0
 10
5.68712
 20
291.353
 11
5.17912
 21
291.722
  0
LINE
  8
0
 10
5.17912
 20
291.722
 11
4.62889
 21
292.024
  0
LINE
  8
0
 10
4.62889
 20
292.024
 11
4.04507
 21
292.255
  0
LINE
  8
0
 10
4.04507
 20
292.255
 11
3.4369
 21
292.411
  0
LINE
  8
0
 10
3.4369
 20
292.411
 11
2.81395
 21
292.49
  0
LINE
  8
0
 10
2.81395
 20
292.49
 11
-2.81395
 21
292.49
  0
LINE
  8
0
 10
-2.81395
 20
292.49
 11
-3.4369
 21
292.411
  0
LINE
  8
0
 10
-3.4369
 20
292.411
 11
-4.04507
 21
292.255
  0
LINE
  8
0
 10
-4.04507
 20
292.255
 11
-4.62889
 21
292.024
  0
LINE
  8
0
 10
-4.62889
 20
292.024
 11
-5.17912
 21
291.722
  0
LINE
  8
0
 10
-5.17912
 20
291.722
 11
-5.68712
 21
291.353
  0
LINE
  8
0
 10
-5.68712
 20
291.353
 11
-6.14484
 21
290.923
  0
LINE
  8
0
 10
-6.14484
 20
290.923
 11
-6.54507
 21
290.439
  0
LINE
  8
0
 10
-6.54507
 20
290.439
 11
-6.88153
 21
289.909
  0
LINE
  8
0
 10
-6.88153
 20
289.909
 11
-7.14888
 21
289.341
  0
LINE
  8
0
 10
-7.14888
 20
289.341
 11
-7.34291
 21
288.743
  0
LINE
  8
0
 10
-7.34291
 20
288.743
 11
-7.46057
 21
288.127
  0
LINE
  8
0
 10
-7.46057
 20
288.127
 11
-7.5
 21
287.5
  0
LINE
  8
0
 10
-7.5
 20
287.5
 11
-7.5
 21
252.5
  0
LINE
  8
0
 10
-7.5
 20
252.5
 11
-7.46057
 21
251.873
  0
LINE
  8
0
 10
-7.46057
 20
251.873
 11
-7.34291
 21
251.257
  0
LINE
  8
0
 10
-7.34291
 20
251.257
 11
-7.14888
 21
250.659
  0
LINE
  8
0
 10
-7.14888
 20
250.659
 11
-6.88153
 21
250.091
  0
LINE
  8
0
 10
-6.88153
 20
250.091
 11
-6.54507
 21
249.561
  0
LINE
  8
0
 10
-6.54507
 20
249.561
 11
-6.14484
 21
249.077
  0
LINE
  8
0
 10
-6.14484
 20
249.077
 11
-5.68712
 21
248.647
  0
LINE
  8
0
 10
-5.68712
 20
248.647
 11
-5.17912
 21
248.278
  0
LINE
  8
0
 10
-5.17912
 20
248.278
 11
-4.62889
 21
247.976
  0
LINE
  8
0
 10
-4.62889
 20
247.976
 11
-4.04507
 21
247.745
  0
LINE
  8
0
 10
-4.04507
 20
247.745
 11
-3.4369
 21
247.589
  0
LINE
  8
0
 10
-3.4369
 20
247.589
 11
-2.81395
 21
247.51
  0
LINE
  8
0
 10
-2.81395
 20
247.51
 11
2.81395
 21
247.51
  0
LINE
  8
0
 10
2.81395
 20
247.51
 11
3.4369
 21
247.589
  0
LINE
  8
0
 10
-2.53748
 20
248.181
 11
-3.10791
 21
248.253
  0
LINE
  8
0
 10
-3.10791
 20
248.253
 11
-3.66481
 21
248.396
  0
LINE
  8
0
 10
-3.66481
 20
248.396
 11
-4.1994
 21
248.607
  0
LINE
  8
0
 10
-4.1994
 20
248.607
 11
-4.70325
 21
248.884
  0
LINE
  8
0
 10
-4.70325
 20
248.884
 11
-5.1684
 21
249.222
  0
LINE
  8
0
 10
-5.1684
 20
249.222
 11
-5.58754
 21
249.616
  0
LINE
  8
0
 10
-5.58754
 20
249.616
 11
-5.95403
 21
250.059
  0
LINE
  8
0
 10
-5.95403
 20
250.059
 11
-6.26212
 21
250.544
  0
LINE
  8
0
 10
-6.26212
 20
250.544
 11
-6.50691
 21
251.065
  0
LINE
  8
0
 10
-6.50691
 20
251.065
 11
-6.68459
 21
251.611
  0
LINE
  8
0
 10
-6.68459
 20
251.611
 11
-6.79233
 21
252.176
  0
LINE
  8
0
 10
-6.79233
 20
252.176
 11
-6.82843
 21
252.75
  0
LINE
  8
0
 10
-6.82843
 20
252.75
 11
-6.82843
 21
287.25
  0
LINE
  8
0
 10
-6.82843
 20
287.25
 11
-6.79233
 21
287.824
  0
LINE
  8
0
 10
-6.79233
 20
287.824
 11
-6.68459
 21
288.389
  0
LINE
  8
0
 10
-6.68459
 20
288.389
 11
-6.50691
 21
288.935
  0
LINE
  8
0
 10
-6.50691
 20
288.935
 11
-6.26212
 21
289.456
  0
LINE
  8
0
 10
-6.26212
 20
289.456
 11
-5.95403
 21
289.941
  0
LINE
  8
0
 10
-5.95403
 20
289.941
 11
-5.58754
 21
290.384
  0
LINE
  8
0
 10
-5.58754
 20
290.384
 11
-5.1684
 21
290.778
  0
LINE
  8
0
 10
-5.1684
 20
290.778
 11
-4.70325
 21
291.116
  0
LINE
  8
0
 10
-4.70325
 20
291.116
 11
-4.1994
 21
291.393
  0
LINE
  8
0
 10
-4.1994
 20
291.393
 11
-3.66481
 21
291.604
  0
LINE
  8
0
 10
-3.66481
 20
291.604
 11
-3.10791
 21
291.747
  0
LINE
  8
0
 10
-3.10791
 20
291.747
 11
-2.53748
 21
291.819
  0
LINE
  8
0
 10
-2.53748
 20
291.819
 11
2.53748
 21
291.819
  0
LINE
  8
0
 10
2.53748
 20
291.819
 11
3.10791
 21
291.747
  0
LINE
  8
0
 10
3.10791
 20
291.747
 11
3.66481
 21
291.604
  0
LINE
  8
0
 10
3.66481
 20
291.604
 11
4.1994
 21
291.393
  0
LINE
  8
0
 10
4.1994
 20
291.393
 11
4.70325
 21
291.116
  0
LINE
  8
0
 10
4.70325
 20
291.116
 11
5.1684
 21
290.778
  0
LINE
  8
0
 10
5.1684
 20
290.778
 11
5.58754
 21
290.384
  0
LINE
  8
0
 10
5.58754
 20
290.384
 11
5.95403
 21
289.941
  0
LINE
  8
0
 10
5.95403
 20
289.941
 11
6.26212
 21
289.456
  0
LINE
  8
0
 10
6.26212
 20
289.456
 11
6.50691
 21
288.935
  0
LINE
  8
0
 10
6.50691
 20
288.935
 11
6.68459
 21
288.389
  0
LINE
  8
0
 10
6.68459
 20
288.389
 11
6.79233
 21
287.824
  0
LINE
  8
0
 10
6.79233
 20
287.824
 11
6.82843
 21
287.25
  0
LINE
  8
0
 10
6.82843
 20
287.25
 11
6.82843
 21
252.75
  0
LINE
  8
0
 10
6.82843
 20
252.75
 11
6.79233
 21
252.176
  0
LINE
  8
0
 10
6.79233
 20
252.176
 11
6.68459
 21
251.611
  0
LINE
  8
0
 10
6.68459
 20
251.611
 11
6.50691
 21
251.065
  0
LINE
  8
0
 10
6.50691
 20
251.065
 11
6.26212
 21
250.544
  0
LINE
  8
0
 10
6.26212
 20
250.544
 11
5.95403
 21
250.059
  0
LINE
  8
0
 10
5.95403
 20
250.059
 11
5.58754
 21
249.616
  0
LINE
  8
0
 10
5.58754
 20
249.616
 11
5.1684
 21
249.222
  0
LINE
  8
0
 10
5.1684
 20
249.222
 11
4.70325
 21
248.884
  0
LINE
  8
0
 10
4.70325
 20
248.884
 11
4.1994
 21
248.607
  0
LINE
  8
0
 10
4.1994
 20
248.607
 11
3.66481
 21
248.396
  0
LINE
  8
0
 10
3.66481
 20
248.396
 11
3.10791
 21
248.253
  0
LINE
  8
0
 10
3.10791
 20
248.253
 11
2.53748
 21
248.181
  0
LINE
  8
0
 10
2.53748
 20
248.181
 11
-2.53748
 21
248.181
  0
LINE
  8
0
 10
3.4369
 20
193.589
 11
4.04507
 21
193.745
  0
LINE
  8
0
 10
4.04507
 20
193.745
 11
4.62889
 21
193.976
  0
LINE
  8
0
 10
4.62889
 20
193.976
 11
5.17912
 21
194.278
  0
LINE
  8
0
 10
5.17912
 20
194.278
 11
5.68712
 21
194.647
  0
LINE
  8
0
 10
5.68712
 20
194.647
 11
6.14484
 21
195.077
  0
LINE
  8
0
 10
6.14484
 20
195.077
 11
6.54507
 21
195.561
  0
LINE
  8
0
 10
6.54507
 20
195.561
 11
6.88153
 21
196.091
  0
LINE
  8
0
 10
6.88153
 20
196.091
 11
7.14888
 21
196.659
  0
LINE
  8
0
 10
7.14888
 20
196.659
 11
7.34291
 21
197.257
  0
LINE
  8
0
 10
7.34291
 20
197.257
 11
7.46057
 21
197.873
  0
LINE
  8
0
 10
7.46057
 20
197.873
 11
7.5
 21
198.5
  0
LINE
  8
0
 10
7.5
 20
198.5
 11
7.5
 21
233.5
  0
LINE
  8
0
 10
7.5
 20
233.5
 11
7.46057
 21
234.127
  0
LINE
  8
0
 10
7.46057
 20
234.127
 11
7.34291
 21
234.743
  0
LINE
  8
0
 10
7.34291
 20
234.743
 11
7.14888
 21
235.341
  0
LINE
  8
0
 10
7.14888
 20
235.341
 11
6.88153
 21
235.909
  0
LINE
  8
0
 10
6.88153
 20
235.909
 11
6.54507
 21
236.439
  0
LINE
  8
0
 10
6.54507
 20
236.439
 11
6.14484
 21
236.923
  0
LINE
  8
0
 10
6.14484
 20
236.923
 11
5.68712
 21
237.353
  0
LINE
  8
0
 10
5.68712
 20
237.353
 11
5.17912
 21
237.722
  0
LINE
  8
0
 10
5.17912
 20
237.722
 11
4.62889
 21
238.024
  0
LINE
  8
0
 10
4.62889
 20
238.024
 11
4.04507
 21
238.255
  0
LINE
  8
0
 10
4.04507
 20
238.255
 11
3.4369
 21
238.411
  0
LINE
  8
0
 10
3.4369
 20
238.411
 11
2.81395
 21
238.49
  0
LINE
  8
0
 10
2.81395
 20
238.49
 11
-2.81395
 21
238.49
  0
LINE
  8
0
 10
-2.81395
 20
238.49
 11
-3.4369
 21
238.411
  0
LINE
  8
0
 10
-3.4369
 20
238.411
 11
-4.04507
 21
238.255
  0
LINE
  8
0
 10
-4.04507
 20
238.255
 11
-4.62889
 21
238.024
  0
LINE
  8
0
 10
-4.62889
 20
238.024
 11
-5.17912
 21
237.722
  0
LINE
  8
0
 10
-5.17912
 20
237.722
 11
-5.68712
 21
237.353
  0
LINE
  8
0
 10
-5.68712
 20
237.353
 11
-6.14484
 21
236.923
  0
LINE
  8
0
 10
-6.14484
 20
236.923
 11
-6.54507
 21
236.439
  0
LINE
  8
0
 10
-6.54507
 20
236.439
 11
-6.88153
 21
235.909
  0
LINE
  8
0
 10
-6.88153
 20
235.909
 11
-7.14888
 21
235.341
  0
LINE
  8
0
 10
-7.14888
 20
235.341
 11
-7.34291
 21
234.743
  0
LINE
  8
0
 10
-7.34291
 20
234.743
 11
-7.46057
 21
234.127
  0
LINE
  8
0
 10
-7.46057
 20
234.127
 11
-7.5
 21
233.5
  0
LINE
  8
0
 10
-7.5
 20
233.5
 11
-7.5
 21
198.5
  0
LINE
  8
0
 10
-7.5
 20
198.5
 11
-7.46057
 21
197.873
  0
LINE
  8
0
 10
-7.46057
 20
197.873
 11
-7.34291
 21
197.257
  0
LINE
  8
0
 10
-7.34291
 20
197.257
 11
-7.14888
 21
196.659
  0
LINE
  8
0
 10
-7.14888
 20
196.659
 11
-6.88153
 21
196.091
  0
LINE
  8
0
 10
-6.88153
 20
196.091
 11
-6.54507
 21
195.561
  0
LINE
  8
0
 10
-6.54507
 20
195.561
 11
-6.14484
 21
195.077
  0
LINE
  8
0
 10
-6.14484
 20
195.077
 11
-5.68712
 21
194.647
  0
LINE
  8
0
 10
-5.68712
 20
194.647
 11
-5.17912
 21
194.278
  0
LINE
  8
0
 10
-5.17912
 20
194.278
 11
-4.62889
 21
193.976
  0
LINE
  8
0
 10
-4.62889
 20
193.976
 11
-4.04507
 21
193.745
  0
LINE
  8
0
 10
-4.04507
 20
193.745
 11
-3.4369
 21
193.589
  0
LINE
  8
0
 10
-3.4369
 20
193.589
 11
-2.81395
 21
193.51
  0
LINE
  8
0
 10
-2.81395
 20
193.51
 11
2.81395
 21
193.51
  0
LINE
  8
0
 10
2.81395
 20
193.51
 11
3.4369
 21
193.589
  0
LINE
  8
0
 10
-2.38246
 20
196.645
 11
-2.64529
 21
196.678
  0
LINE
  8
0
 10
-2.64529
 20
196.678
 11
-2.9019
 21
196.744
  0
LINE
  8
0
 10
-2.9019
 20
196.744
 11
-3.14822
 21
196.841
  0
LINE
  8
0
 10
-3.14822
 20
196.841
 11
-3.38039
 21
196.969
  0
LINE
  8
0
 10
-3.38039
 20
196.969
 11
-3.59473
 21
197.125
  0
LINE
  8
0
 10
-3.59473
 20
197.125
 11
-3.78784
 21
197.306
  0
LINE
  8
0
 10
-3.78784
 20
197.306
 11
-3.95673
 21
197.51
  0
LINE
  8
0
 10
-3.95673
 20
197.51
 11
-4.09868
 21
197.734
  0
LINE
  8
0
 10
-4.09868
 20
197.734
 11
-4.21149
 21
197.973
  0
LINE
  8
0
 10
-4.21149
 20
197.973
 11
-4.29335
 21
198.225
  0
LINE
  8
0
 10
-4.29335
 20
198.225
 11
-4.34299
 21
198.486
  0
LINE
  8
0
 10
-4.34299
 20
198.486
 11
-4.35962
 21
198.75
  0
LINE
  8
0
 10
-4.35962
 20
198.75
 11
-4.35962
 21
233.25
  0
LINE
  8
0
 10
-4.35962
 20
233.25
 11
-4.34299
 21
233.514
  0
LINE
  8
0
 10
-4.34299
 20
233.514
 11
-4.29335
 21
233.775
  0
LINE
  8
0
 10
-4.29335
 20
233.775
 11
-4.21149
 21
234.027
  0
LINE
  8
0
 10
-4.21149
 20
234.027
 11
-4.09868
 21
234.266
  0
LINE
  8
0
 10
-4.09868
 20
234.266
 11
-3.95673
 21
234.49
  0
LINE
  8
0
 10
-3.95673
 20
234.49
 11
-3.78784
 21
234.694
  0
LINE
  8
0
 10
-3.78784
 20
234.694
 11
-3.59473
 21
234.875
  0
LINE
  8
0
 10
-3.59473
 20
234.875
 11
-3.38039
 21
235.031
  0
LINE
  8
0
 10
-3.38039
 20
235.031
 11
-3.14822
 21
235.159
  0
LINE
  8
0
 10
-3.14822
 20
235.159
 11
-2.9019
 21
235.256
  0
LINE
  8
0
 10
-2.9019
 20
235.256
 11
-2.64529
 21
235.322
  0
LINE
  8
0
 10
-2.64529
 20
235.322
 11
-2.38246
 21
235.355
  0
LINE
  8
0
 10
-2.38246
 20
235.355
 11
2.38246
 21
235.355
  0
LINE
  8
0
 10
2.38246
 20
235.355
 11
2.64529
 21
235.322
  0
LINE
  8
0
 10
2.64529
 20
235.322
 11
2.9019
 21
235.256
  0
LINE
  8
0
 10
2.9019
 20
235.256
 11
3.14822
 21
235.159
  0
LINE
  8
0
 10
3.14822
 20
235.159
 11
3.38039
 21
235.031
  0
LINE
  8
0
 10
3.38039
 20
235.031
 11
3.59473
 21
234.875
  0
LINE
  8
0
 10
3.59473
 20
234.875
 11
3.78784
 21
234.694
  0
LINE
  8
0
 10
3.78784
 20
234.694
 11
3.95673
 21
234.49
  0
LINE
  8
0
 10
3.95673
 20
234.49
 11
4.09868
 21
234.266
  0
LINE
  8
0
 10
4.09868
 20
234.266
 11
4.21149
 21
234.027
  0
LINE
  8
0
 10
4.21149
 20
234.027
 11
4.29335
 21
233.775
  0
LINE
  8
0
 10
4.29335
 20
233.775
 11
4.34299
 21
233.514
  0
LINE
  8
0
 10
4.34299
 20
233.514
 11
4.35962
 21
233.25
  0
LINE
  8
0
 10
4.35962
 20
233.25
 11
4.35962
 21
198.75
  0
LINE
  8
0
 10
4.35962
 20
198.75
 11
4.34299
 21
198.486
  0
LINE
  8
0
 10
4.34299
 20
198.486
 11
4.29335
 21
198.225
  0
LINE
  8
0
 10
4.29335
 20
198.225
 11
4.21149
 21
197.973
  0
LINE
  8
0
 10
4.21149
 20
197.973
 11
4.09868
 21
197.734
  0
LINE
  8
0
 10
4.09868
 20
197.734
 11
3.95673
 21
197.51
  0
LINE
  8
0
 10
3.95673
 20
197.51
 11
3.78784
 21
197.306
  0
LINE
  8
0
 10
3.78784
 20
197.306
 11
3.59473
 21
197.125
  0
LINE
  8
0
 10
3.59473
 20
197.125
 11
3.38039
 21
196.969
  0
LINE
  8
0
 10
3.38039
 20
196.969
 11
3.14822
 21
196.841
  0
LINE
  8
0
 10
3.14822
 20
196.841
 11
2.9019
 21
196.744
  0
LINE
  8
0
 10
2.9019
 20
196.744
 11
2.64529
 21
196.678
  0
LINE
  8
0
 10
2.64529
 20
196.678
 11
2.38246
 21
196.645
  0
LINE
  8
0
 10
2.38246
 20
196.645
 11
-2.38246
 21
196.645
  0
ENDSEC
  0
SECTION
  2
OBJECTS
  0
DICTIONARY
  0
ENDSEC
  0
EOF
