<?xml version="1.0" standalone="no"?>
<!DOCTYPE svg PUBLIC "-//W3C//DTD SVG 1.1//EN" "http://www.w3.org/Graphics/SVG/1.1/DTD/svg11.dtd">
<svg width="74mm" height="153mm" viewBox="-37 -153 74 153" xmlns="http://www.w3.org/2000/svg" version="1.1">
<title>OpenSCAD Model</title>
<path d="
M 37,-147.5 L 36.9606,-148.127 L 36.8429,-148.743 L 36.6489,-149.341 L 36.3815,-149.909 L 36.0451,-150.439
 L 35.6448,-150.923 L 35.1871,-151.353 L 34.6791,-151.722 L 34.1289,-152.024 L 33.5451,-152.255 L 32.9369,-152.411
 L 32.3139,-152.49 L -32.3139,-152.49 L -32.9369,-152.411 L -33.5451,-152.255 L -34.1289,-152.024 L -34.6791,-151.722
 L -35.1871,-151.353 L -35.6448,-150.923 L -36.0451,-150.439 L -36.3815,-149.909 L -36.6489,-149.341 L -36.8429,-148.743
 L -36.9606,-148.127 L -37,-147.5 L -37,-117 L 37,-117 z
M 29.8116,-142.506 L 29.4379,-142.553 L 29.0729,-142.647 L 28.7227,-142.786 L 28.3925,-142.967 L 28.0877,-143.188
 L 27.8131,-143.446 L 27.5729,-143.737 L 27.3711,-144.055 L 27.2107,-144.396 L 27.0942,-144.754 L 27.0237,-145.124
 L 27,-145.5 L 27.0237,-145.876 L 27.0942,-146.246 L 27.2107,-146.604 L 27.3711,-146.945 L 27.5729,-147.263
 L 27.8131,-147.554 L 28.0877,-147.812 L 28.3925,-148.033 L 28.7227,-148.214 L 29.0729,-148.353 L 29.4379,-148.447
 L 29.8116,-148.494 L 30.1884,-148.494 L 30.5621,-148.447 L 30.927,-148.353 L 31.2773,-148.214 L 31.6075,-148.033
 L 31.9123,-147.812 L 32.1869,-147.554 L 32.427,-147.263 L 32.6289,-146.945 L 32.7893,-146.604 L 32.9057,-146.246
 L 32.9763,-145.876 L 33,-145.5 L 32.9763,-145.124 L 32.9057,-144.754 L 32.7893,-144.396 L 32.6289,-144.055
 L 32.427,-143.737 L 32.1869,-143.446 L 31.9123,-143.188 L 31.6075,-142.967 L 31.2773,-142.786 L 30.927,-142.647
 L 30.5621,-142.553 L 30.1884,-142.506 z
M 14.8116,-142.506 L 14.4379,-142.553 L 14.0729,-142.647 L 13.7227,-142.786 L 13.3925,-142.967 L 13.0877,-143.188
 L 12.8131,-143.446 L 12.5729,-143.737 L 12.3711,-144.055 L 12.2107,-144.396 L 12.0942,-144.754 L 12.0237,-145.124
 L 12,-145.5 L 12.0237,-145.876 L 12.0942,-146.246 L 12.2107,-146.604 L 12.3711,-146.945 L 12.5729,-147.263
 L 12.8131,-147.554 L 13.0877,-147.812 L 13.3925,-148.033 L 13.7227,-148.214 L 14.0729,-148.353 L 14.4379,-148.447
 L 14.8116,-148.494 L 15.1884,-148.494 L 15.5621,-148.447 L 15.927,-148.353 L 16.2773,-148.214 L 16.6075,-148.033
 L 16.9123,-147.812 L 17.1869,-147.554 L 17.427,-147.263 L 17.6289,-146.945 L 17.7893,-146.604 L 17.9057,-146.246
 L 17.9763,-145.876 L 18,-145.5 L 17.9763,-145.124 L 17.9057,-144.754 L 17.7893,-144.396 L 17.6289,-144.055
 L 17.427,-143.737 L 17.1869,-143.446 L 16.9123,-143.188 L 16.6075,-142.967 L 16.2773,-142.786 L 15.927,-142.647
 L 15.5621,-142.553 L 15.1884,-142.506 z
M -0.18837,-142.506 L -0.562134,-142.553 L -0.927048,-142.647 L -1.27733,-142.786 L -1.60747,-142.967 L -1.91226,-143.188
 L -2.1869,-143.446 L -2.42705,-143.737 L -2.62891,-144.055 L -2.78932,-144.396 L -2.90575,-144.754 L -2.97633,-145.124
 L -3,-145.5 L -2.97633,-145.876 L -2.90575,-146.246 L -2.78932,-146.604 L -2.62891,-146.945 L -2.42705,-147.263
 L -2.1869,-147.554 L -1.91226,-147.812 L -1.60747,-148.033 L -1.27733,-148.214 L -0.927048,-148.353 L -0.562134,-148.447
 L -0.18837,-148.494 L 0.18837,-148.494 L 0.562134,-148.447 L 0.927048,-148.353 L 1.27733,-148.214 L 1.60747,-148.033
 L 1.91226,-147.812 L 2.1869,-147.554 L 2.42705,-147.263 L 2.62891,-146.945 L 2.78932,-146.604 L 2.90575,-146.246
 L 2.97633,-145.876 L 3,-145.5 L 2.97633,-145.124 L 2.90575,-144.754 L 2.78932,-144.396 L 2.62891,-144.055
 L 2.42705,-143.737 L 2.1869,-143.446 L 1.91226,-143.188 L 1.60747,-142.967 L 1.27733,-142.786 L 0.927048,-142.647
 L 0.562134,-142.553 L 0.18837,-142.506 z
M -15.1884,-142.506 L -15.5621,-142.553 L -15.927,-142.647 L -16.2773,-142.786 L -16.6075,-142.967 L -16.9123,-143.188
 L -17.1869,-143.446 L -17.427,-143.737 L -17.6289,-144.055 L -17.7893,-144.396 L -17.9057,-144.754 L -17.9763,-145.124
 L -18,-145.5 L -17.9763,-145.876 L -17.9057,-146.246 L -17.7893,-146.604 L -17.6289,-146.945 L -17.427,-147.263
 L -17.1869,-147.554 L -16.9123,-147.812 L -16.6075,-148.033 L -16.2773,-148.214 L -15.927,-148.353 L -15.5621,-148.447
 L -15.1884,-148.494 L -14.8116,-148.494 L -14.4379,-148.447 L -14.0729,-148.353 L -13.7227,-148.214 L -13.3925,-148.033
 L -13.0877,-147.812 L -12.8131,-147.554 L -12.5729,-147.263 L -12.3711,-146.945 L -12.2107,-146.604 L -12.0942,-146.246
 L -12.0237,-145.876 L -12,-145.5 L -12.0237,-145.124 L -12.0942,-144.754 L -12.2107,-144.396 L -12.3711,-144.055
 L -12.5729,-143.737 L -12.8131,-143.446 L -13.0877,-143.188 L -13.3925,-142.967 L -13.7227,-142.786 L -14.0729,-142.647
 L -14.4379,-142.553 L -14.8116,-142.506 z
M -30.1884,-142.506 L -30.5621,-142.553 L -30.927,-142.647 L -31.2773,-142.786 L -31.6075,-142.967 L -31.9123,-143.188
 L -32.1869,-143.446 L -32.427,-143.737 L -32.6289,-144.055 L -32.7893,-144.396 L -32.9057,-144.754 L -32.9763,-145.124
 L -33,-145.5 L -32.9763,-145.876 L -32.9057,-146.246 L -32.7893,-146.604 L -32.6289,-146.945 L -32.427,-147.263
 L -32.1869,-147.554 L -31.9123,-147.812 L -31.6075,-148.033 L -31.2773,-148.214 L -30.927,-148.353 L -30.5621,-148.447
 L -30.1884,-148.494 L -29.8116,-148.494 L -29.4379,-148.447 L -29.0729,-148.353 L -28.7227,-148.214 L -28.3925,-148.033
 L -28.0877,-147.812 L -27.8131,-147.554 L -27.5729,-147.263 L -27.3711,-146.945 L -27.2107,-146.604 L -27.0942,-146.246
 L -27.0237,-145.876 L -27,-145.5 L -27.0237,-145.124 L -27.0942,-144.754 L -27.2107,-144.396 L -27.3711,-144.055
 L -27.5729,-143.737 L -27.8131,-143.446 L -28.0877,-143.188 L -28.3925,-142.967 L -28.7227,-142.786 L -29.0729,-142.647
 L -29.4379,-142.553 L -29.8116,-142.506 z
M 29.8116,-127.506 L 29.4379,-127.553 L 29.0729,-127.647 L 28.7227,-127.786 L 28.3925,-127.967 L 28.0877,-128.188
 L 27.8131,-128.446 L 27.5729,-128.737 L 27.3711,-129.055 L 27.2107,-129.396 L 27.0942,-129.754 L 27.0237,-130.124
 L 27,-130.5 L 27.0237,-130.876 L 27.0942,-131.246 L 27.2107,-131.604 L 27.3711,-131.945 L 27.5729,-132.263
 L 27.8131,-132.554 L 28.0877,-132.812 L 28.3925,-133.033 L 28.7227,-133.214 L 29.0729,-133.353 L 29.4379,-133.447
 L 29.8116,-133.494 L 30.1884,-133.494 L 30.5621,-133.447 L 30.927,-133.353 L 31.2773,-133.214 L 31.6075,-133.033
 L 31.9123,-132.812 L 32.1869,-132.554 L 32.427,-132.263 L 32.6289,-131.945 L 32.7893,-131.604 L 32.9057,-131.246
 L 32.9763,-130.876 L 33,-130.5 L 32.9763,-130.124 L 32.9057,-129.754 L 32.7893,-129.396 L 32.6289,-129.055
 L 32.427,-128.737 L 32.1869,-128.446 L 31.9123,-128.188 L 31.6075,-127.967 L 31.2773,-127.786 L 30.927,-127.647
 L 30.5621,-127.553 L 30.1884,-127.506 z
M -0.18837,-127.506 L -0.562134,-127.553 L -0.927048,-127.647 L -1.27733,-127.786 L -1.60747,-127.967 L -1.91226,-128.188
 L -2.1869,-128.446 L -2.42705,-128.737 L -2.62891,-129.055 L -2.78932,-129.396 L -2.90575,-129.754 L -2.97633,-130.124
 L -3,-130.5 L -2.97633,-130.876 L -2.90575,-131.246 L -2.78932,-131.604 L -2.62891,-131.945 L -2.42705,-132.263
 L -2.1869,-132.554 L -1.91226,-132.812 L -1.60747,-133.033 L -1.27733,-133.214 L -0.927048,-133.353 L -0.562134,-133.447
 L -0.18837,-133.494 L 0.18837,-133.494 L 0.562134,-133.447 L 0.927048,-133.353 L 1.27733,-133.214 L 1.60747,-133.033
 L 1.91226,-132.812 L 2.1869,-132.554 L 2.42705,-132.263 L 2.62891,-131.945 L 2.78932,-131.604 L 2.90575,-131.246
 L 2.97633,-130.876 L 3,-130.5 L 2.97633,-130.124 L 2.90575,-129.754 L 2.78932,-129.396 L 2.62891,-129.055
 L 2.42705,-128.737 L 2.1869,-128.446 L 1.91226,-128.188 L 1.60747,-127.967 L 1.27733,-127.786 L 0.927048,-127.647
 L 0.562134,-127.553 L 0.18837,-127.506 z
M -15.1884,-127.506 L -15.5621,-127.553 L -15.927,-127.647 L -16.2773,-127.786 L -16.6075,-127.967 L -16.9123,-128.188
 L -17.1869,-128.446 L -17.427,-128.737 L -17.6289,-129.055 L -17.7893,-129.396 L -17.9057,-129.754 L -17.9763,-130.124
 L -18,-130.5 L -17.9763,-130.876 L -17.9057,-131.246 L -17.7893,-131.604 L -17.6289,-131.945 L -17.427,-132.263
 L -17.1869,-132.554 L -16.9123,-132.812 L -16.6075,-133.033 L -16.2773,-133.214 L -15.927,-133.353 L -15.5621,-133.447
 L -15.1884,-133.494 L -14.8116,-133.494 L -14.4379,-133.447 L -14.0729,-133.353 L -13.7227,-133.214 L -13.3925,-133.033
 L -13.0877,-132.812 L -12.8131,-132.554 L -12.5729,-132.263 L -12.3711,-131.945 L -12.2107,-131.604 L -12.0942,-131.246
 L -12.0237,-130.876 L -12,-130.5 L -12.0237,-130.124 L -12.0942,-129.754 L -12.2107,-129.396 L -12.3711,-129.055
 L -12.5729,-128.737 L -12.8131,-128.446 L -13.0877,-128.188 L -13.3925,-127.967 L -13.7227,-127.786 L -14.0729,-127.647
 L -14.4379,-127.553 L -14.8116,-127.506 z
M -30.1884,-127.506 L -30.5621,-127.553 L -30.927,-127.647 L -31.2773,-127.786 L -31.6075,-127.967 L -31.9123,-128.188
 L -32.1869,-128.446 L -32.427,-128.737 L -32.6289,-129.055 L -32.7893,-129.396 L -32.9057,-129.754 L -32.9763,-130.124
 L -33,-130.5 L -32.9763,-130.876 L -32.9057,-131.246 L -32.7893,-131.604 L -32.6289,-131.945 L -32.427,-132.263
 L -32.1869,-132.554 L -31.9123,-132.812 L -31.6075,-133.033 L -31.2773,-133.214 L -30.927,-133.353 L -30.5621,-133.447
 L -30.1884,-133.494 L -29.8116,-133.494 L -29.4379,-133.447 L -29.0729,-133.353 L -28.7227,-133.214 L -28.3925,-133.033
 L -28.0877,-132.812 L -27.8131,-132.554 L -27.5729,-132.263 L -27.3711,-131.945 L -27.2107,-131.604 L -27.0942,-131.246
 L -27.0237,-130.876 L -27,-130.5 L -27.0237,-130.124 L -27.0942,-129.754 L -27.2107,-129.396 L -27.3711,-129.055
 L -27.5729,-128.737 L -27.8131,-128.446 L -28.0877,-128.188 L -28.3925,-127.967 L -28.7227,-127.786 L -29.0729,-127.647
 L -29.4379,-127.553 L -29.8116,-127.506 z
M 14.8116,-127.506 L 14.4379,-127.553 L 14.0729,-127.647 L 13.7227,-127.786 L 13.3925,-127.967 L 13.0877,-128.188
 L 12.8131,-128.446 L 12.5729,-128.737 L 12.3711,-129.055 L 12.2107,-129.396 L 12.0942,-129.754 L 12.0237,-130.124
 L 12,-130.5 L 12.0237,-130.876 L 12.0942,-131.246 L 12.2107,-131.604 L 12.3711,-131.945 L 12.5729,-132.263
 L 12.8131,-132.554 L 13.0877,-132.812 L 13.3925,-133.033 L 13.7227,-133.214 L 14.0729,-133.353 L 14.4379,-133.447
 L 14.8116,-133.494 L 15.1884,-133.494 L 15.5621,-133.447 L 15.927,-133.353 L 16.2773,-133.214 L 16.6075,-133.033
 L 16.9123,-132.812 L 17.1869,-132.554 L 17.427,-132.263 L 17.6289,-131.945 L 17.7893,-131.604 L 17.9057,-131.246
 L 17.9763,-130.876 L 18,-130.5 L 17.9763,-130.124 L 17.9057,-129.754 L 17.7893,-129.396 L 17.6289,-129.055
 L 17.427,-128.737 L 17.1869,-128.446 L 16.9123,-128.188 L 16.6075,-127.967 L 16.2773,-127.786 L 15.927,-127.647
 L 15.5621,-127.553 L 15.1884,-127.506 z
M -7.6507,-128.105 L -7.94971,-128.143 L -8.24164,-128.217 L -8.52187,-128.328 L -8.78598,-128.474 L -9.02982,-128.651
 L -9.24951,-128.857 L -9.44164,-129.089 L -9.60313,-129.344 L -9.73146,-129.617 L -9.82458,-129.903 L -9.88107,-130.199
 L -9.89999,-130.5 L -9.88107,-130.801 L -9.82458,-131.097 L -9.73146,-131.383 L -9.60313,-131.656 L -9.44164,-131.911
 L -9.24951,-132.143 L -9.02982,-132.349 L -8.78598,-132.526 L -8.52187,-132.672 L -8.24164,-132.783 L -7.94971,-132.857
 L -7.6507,-132.895 L -7.34929,-132.895 L -7.05028,-132.857 L -6.75835,-132.783 L -6.47812,-132.672 L -6.214,-132.526
 L -5.97017,-132.349 L -5.75047,-132.143 L -5.55835,-131.911 L -5.39685,-131.656 L -5.26852,-131.383 L -5.1754,-131.097
 L -5.11891,-130.801 L -5.09999,-130.5 L -5.11891,-130.199 L -5.1754,-129.903 L -5.26852,-129.617 L -5.39685,-129.344
 L -5.55835,-129.089 L -5.75047,-128.857 L -5.97017,-128.651 L -6.214,-128.474 L -6.47812,-128.328 L -6.75835,-128.217
 L -7.05028,-128.143 L -7.34929,-128.105 z
M -22.6507,-128.105 L -22.9497,-128.143 L -23.2416,-128.217 L -23.5219,-128.328 L -23.786,-128.474 L -24.0298,-128.651
 L -24.2495,-128.857 L -24.4416,-129.089 L -24.6031,-129.344 L -24.7315,-129.617 L -24.8246,-129.903 L -24.8811,-130.199
 L -24.9,-130.5 L -24.8811,-130.801 L -24.8246,-131.097 L -24.7315,-131.383 L -24.6031,-131.656 L -24.4416,-131.911
 L -24.2495,-132.143 L -24.0298,-132.349 L -23.786,-132.526 L -23.5219,-132.672 L -23.2416,-132.783 L -22.9497,-132.857
 L -22.6507,-132.895 L -22.3493,-132.895 L -22.0503,-132.857 L -21.7583,-132.783 L -21.4781,-132.672 L -21.214,-132.526
 L -20.9702,-132.349 L -20.7505,-132.143 L -20.5583,-131.911 L -20.3969,-131.656 L -20.2685,-131.383 L -20.1754,-131.097
 L -20.1189,-130.801 L -20.1,-130.5 L -20.1189,-130.199 L -20.1754,-129.903 L -20.2685,-129.617 L -20.3969,-129.344
 L -20.5583,-129.089 L -20.7505,-128.857 L -20.9702,-128.651 L -21.214,-128.474 L -21.4781,-128.328 L -21.7583,-128.217
 L -22.0503,-128.143 L -22.3493,-128.105 z
M 7.34929,-128.105 L 7.05028,-128.143 L 6.75835,-128.217 L 6.47812,-128.328 L 6.214,-128.474 L 5.97017,-128.651
 L 5.75047,-128.857 L 5.55835,-129.089 L 5.39685,-129.344 L 5.26852,-129.617 L 5.1754,-129.903 L 5.11891,-130.199
 L 5.09999,-130.5 L 5.11891,-130.801 L 5.1754,-131.097 L 5.26852,-131.383 L 5.39685,-131.656 L 5.55835,-131.911
 L 5.75047,-132.143 L 5.97017,-132.349 L 6.214,-132.526 L 6.47812,-132.672 L 6.75835,-132.783 L 7.05028,-132.857
 L 7.34929,-132.895 L 7.6507,-132.895 L 7.94971,-132.857 L 8.24164,-132.783 L 8.52187,-132.672 L 8.78598,-132.526
 L 9.02982,-132.349 L 9.24951,-132.143 L 9.44164,-131.911 L 9.60313,-131.656 L 9.73146,-131.383 L 9.82458,-131.097
 L 9.88107,-130.801 L 9.89999,-130.5 L 9.88107,-130.199 L 9.82458,-129.903 L 9.73146,-129.617 L 9.60313,-129.344
 L 9.44164,-129.089 L 9.24951,-128.857 L 9.02982,-128.651 L 8.78598,-128.474 L 8.52187,-128.328 L 8.24164,-128.217
 L 7.94971,-128.143 L 7.6507,-128.105 z
M -33.5142,-120.6 L -33.5142,-126 L -26.4858,-126 L -26.4858,-120.6 z
M 26.4858,-120.6 L 26.4858,-126 L 33.5142,-126 L 33.5142,-120.6 z
M 11.4858,-120.6 L 11.4858,-126 L 18.5142,-126 L 18.5142,-120.6 z
M -18.5142,-120.6 L -18.5142,-126 L -11.4858,-126 L -11.4858,-120.6 z
M -3.51418,-120.6 L -3.51418,-126 L 3.51418,-126 L 3.51418,-120.6 z
M -32.5307,-81.6 L -35.2462,-81.6 L -35.2462,-87 L -32.5307,-87 L -32.5307,-89.9 L -32.6289,-90.0547
 L -32.7893,-90.3956 L -32.9057,-90.7539 L -32.9763,-91.124 L -33,-91.5 L -32.9763,-91.876 L -32.9057,-92.2461
 L -32.7893,-92.6044 L -32.6289,-92.9453 L -32.427,-93.2634 L -32.1869,-93.5536 L -31.9123,-93.8115 L -31.6075,-94.033
 L -31.2773,-94.2145 L -30.927,-94.3532 L -30.5621,-94.4469 L -30.1884,-94.4941 L -29.8116,-94.4941 L -29.4379,-94.4469
 L -29.0729,-94.3532 L -28.7227,-94.2145 L -28.3925,-94.033 L -28.0877,-93.8115 L -27.8131,-93.5536 L -27.5729,-93.2634
 L -27.3711,-92.9453 L -27.2107,-92.6044 L -27.0942,-92.2461 L -27.0237,-91.876 L -27,-91.5 L -27.0237,-91.124
 L -27.0942,-90.7539 L -27.2107,-90.3956 L -27.3711,-90.0547 L -27.4693,-89.9 L -27.4693,-87 L -24.7538,-87
 L -24.7538,-81.6 L -27.4693,-81.6 L -27.4693,-78 L -17.5307,-78 L -17.5307,-81.6 L -20.2462,-81.6
 L -20.2462,-87 L -17.5307,-87 L -17.5307,-89.9 L -17.6289,-90.0547 L -17.7893,-90.3956 L -17.9057,-90.7539
 L -17.9763,-91.124 L -18,-91.5 L -17.9763,-91.876 L -17.9057,-92.2461 L -17.7893,-92.6044 L -17.6289,-92.9453
 L -17.427,-93.2634 L -17.1869,-93.5536 L -16.9123,-93.8115 L -16.6075,-94.033 L -16.2773,-94.2145 L -15.927,-94.3532
 L -15.5621,-94.4469 L -15.1884,-94.4941 L -14.8116,-94.4941 L -14.4379,-94.4469 L -14.0729,-94.3532 L -13.7227,-94.2145
 L -13.3925,-94.033 L -13.0877,-93.8115 L -12.8131,-93.5536 L -12.5729,-93.2634 L -12.3711,-92.9453 L -12.2107,-92.6044
 L -12.0942,-92.2461 L -12.0237,-91.876 L -12,-91.5 L -12.0237,-91.124 L -12.0942,-90.7539 L -12.2107,-90.3956
 L -12.3711,-90.0547 L -12.4693,-89.9 L -12.4693,-87 L -9.75375,-87 L -9.75375,-81.6 L -12.4693,-81.6
 L -12.4693,-78 L -2.53072,-78 L -2.53072,-81.6 L -5.24623,-81.6 L -5.24623,-87 L -2.53072,-87
 L -2.53072,-89.9 L -2.62891,-90.0547 L -2.78932,-90.3956 L -2.90575,-90.7539 L -2.97633,-91.124 L -3,-91.5
 L -2.97633,-91.876 L -2.90575,-92.2461 L -2.78932,-92.6044 L -2.62891,-92.9453 L -2.42705,-93.2634 L -2.1869,-93.5536
 L -1.91226,-93.8115 L -1.60747,-94.033 L -1.27733,-94.2145 L -0.927048,-94.3532 L -0.562134,-94.4469 L -0.18837,-94.4941
 L 0.18837,-94.4941 L 0.562134,-94.4469 L 0.927048,-94.3532 L 1.27733,-94.2145 L 1.60747,-94.033 L 1.91226,-93.8115
 L 2.1869,-93.5536 L 2.42705,-93.2634 L 2.62891,-92.9453 L 2.78932,-92.6044 L 2.90575,-92.2461 L 2.97633,-91.876
 L 3,-91.5 L 2.97633,-91.124 L 2.90575,-90.7539 L 2.78932,-90.3956 L 2.62891,-90.0547 L 2.53072,-89.9
 L 2.53072,-87 L 5.24623,-87 L 5.24623,-81.6 L 2.53072,-81.6 L 2.53072,-78 L 12.4693,-78
 L 12.4693,-81.6 L 9.75375,-81.6 L 9.75375,-87 L 12.4693,-87 L 12.4693,-89.9 L 12.3711,-90.0547
 L 12.2107,-90.3956 L 12.0942,-90.7539 L 12.0237,-91.124 L 12,-91.5 L 12.0237,-91.876 L 12.0942,-92.2461
 L 12.2107,-92.6044 L 12.3711,-92.9453 L 12.5729,-93.2634 L 12.8131,-93.5536 L 13.0877,-93.8115 L 13.3925,-94.033
 L 13.7227,-94.2145 L 14.0729,-94.3532 L 14.4379,-94.4469 L 14.8116,-94.4941 L 15.1884,-94.4941 L 15.5621,-94.4469
 L 15.927,-94.3532 L 16.2773,-94.2145 L 16.6075,-94.033 L 16.9123,-93.8115 L 17.1869,-93.5536 L 17.427,-93.2634
 L 17.6289,-92.9453 L 17.7893,-92.6044 L 17.9057,-92.2461 L 17.9763,-91.876 L 18,-91.5 L 17.9763,-91.124
 L 17.9057,-90.7539 L 17.7893,-90.3956 L 17.6289,-90.0547 L 17.5307,-89.9 L 17.5307,-87 L 20.2462,-87
 L 20.2462,-81.6 L 17.5307,-81.6 L 17.5307,-78 L 27.4693,-78 L 27.4693,-81.6 L 24.7538,-81.6
 L 24.7538,-87 L 27.4693,-87 L 27.4693,-89.9 L 27.3711,-90.0547 L 27.2107,-90.3956 L 27.0942,-90.7539
 L 27.0237,-91.124 L 27,-91.5 L 27.0237,-91.876 L 27.0942,-92.2461 L 27.2107,-92.6044 L 27.3711,-92.9453
 L 27.5729,-93.2634 L 27.8131,-93.5536 L 28.0877,-93.8115 L 28.3925,-94.033 L 28.7227,-94.2145 L 29.0729,-94.3532
 L 29.4379,-94.4469 L 29.8116,-94.4941 L 30.1884,-94.4941 L 30.5621,-94.4469 L 30.927,-94.3532 L 31.2773,-94.2145
 L 31.6075,-94.033 L 31.9123,-93.8115 L 32.1869,-93.5536 L 32.427,-93.2634 L 32.6289,-92.9453 L 32.7893,-92.6044
 L 32.9057,-92.2461 L 32.9763,-91.876 L 33,-91.5 L 32.9763,-91.124 L 32.9057,-90.7539 L 32.7893,-90.3956
 L 32.6289,-90.0547 L 32.5307,-89.9 L 32.5307,-87 L 35.2462,-87 L 35.2462,-81.6 L 32.5307,-81.6
 L 32.5307,-78 L 37,-78 L 37,-108.5 L 36.9606,-109.127 L 36.8429,-109.743 L 36.6489,-110.341
 L 36.3815,-110.909 L 36.0451,-111.439 L 35.6448,-111.923 L 35.1871,-112.353 L 34.6791,-112.722 L 34.1289,-113.024
 L 33.5451,-113.255 L 32.9369,-113.411 L 32.3139,-113.49 L -32.3139,-113.49 L -32.9369,-113.411 L -33.5451,-113.255
 L -34.1289,-113.024 L -34.6791,-112.722 L -35.1871,-112.353 L -35.6448,-111.923 L -36.0451,-111.439 L -36.3815,-110.909
 L -36.6489,-110.341 L -36.8429,-109.743 L -36.9606,-109.127 L -37,-108.5 L -37,-78 L -32.5307,-78
 z
M -30.1884,-103.506 L -30.5621,-103.553 L -30.927,-103.647 L -31.2773,-103.786 L -31.6075,-103.967 L -31.9123,-104.188
 L -32.1869,-104.446 L -32.427,-104.737 L -32.6289,-105.055 L -32.7893,-105.396 L -32.9057,-105.754 L -32.9763,-106.124
 L -33,-106.5 L -32.9763,-106.876 L -32.9057,-107.246 L -32.7893,-107.604 L -32.6289,-107.945 L -32.427,-108.263
 L -32.1869,-108.554 L -31.9123,-108.812 L -31.6075,-109.033 L -31.2773,-109.214 L -30.927,-109.353 L -30.5621,-109.447
 L -30.1884,-109.494 L -29.8116,-109.494 L -29.4379,-109.447 L -29.0729,-109.353 L -28.7227,-109.214 L -28.3925,-109.033
 L -28.0877,-108.812 L -27.8131,-108.554 L -27.5729,-108.263 L -27.3711,-107.945 L -27.2107,-107.604 L -27.0942,-107.246
 L -27.0237,-106.876 L -27,-106.5 L -27.0237,-106.124 L -27.0942,-105.754 L -27.2107,-105.396 L -27.3711,-105.055
 L -27.5729,-104.737 L -27.8131,-104.446 L -28.0877,-104.188 L -28.3925,-103.967 L -28.7227,-103.786 L -29.0729,-103.647
 L -29.4379,-103.553 L -29.8116,-103.506 z
M -0.18837,-103.506 L -0.562134,-103.553 L -0.927048,-103.647 L -1.27733,-103.786 L -1.60747,-103.967 L -1.91226,-104.188
 L -2.1869,-104.446 L -2.42705,-104.737 L -2.62891,-105.055 L -2.78932,-105.396 L -2.90575,-105.754 L -2.97633,-106.124
 L -3,-106.5 L -2.97633,-106.876 L -2.90575,-107.246 L -2.78932,-107.604 L -2.62891,-107.945 L -2.42705,-108.263
 L -2.1869,-108.554 L -1.91226,-108.812 L -1.60747,-109.033 L -1.27733,-109.214 L -0.927048,-109.353 L -0.562134,-109.447
 L -0.18837,-109.494 L 0.18837,-109.494 L 0.562134,-109.447 L 0.927048,-109.353 L 1.27733,-109.214 L 1.60747,-109.033
 L 1.91226,-108.812 L 2.1869,-108.554 L 2.42705,-108.263 L 2.62891,-107.945 L 2.78932,-107.604 L 2.90575,-107.246
 L 2.97633,-106.876 L 3,-106.5 L 2.97633,-106.124 L 2.90575,-105.754 L 2.78932,-105.396 L 2.62891,-105.055
 L 2.42705,-104.737 L 2.1869,-104.446 L 1.91226,-104.188 L 1.60747,-103.967 L 1.27733,-103.786 L 0.927048,-103.647
 L 0.562134,-103.553 L 0.18837,-103.506 z
M 14.8116,-103.506 L 14.4379,-103.553 L 14.0729,-103.647 L 13.7227,-103.786 L 13.3925,-103.967 L 13.0877,-104.188
 L 12.8131,-104.446 L 12.5729,-104.737 L 12.3711,-105.055 L 12.2107,-105.396 L 12.0942,-105.754 L 12.0237,-106.124
 L 12,-106.5 L 12.0237,-106.876 L 12.0942,-107.246 L 12.2107,-107.604 L 12.3711,-107.945 L 12.5729,-108.263
 L 12.8131,-108.554 L 13.0877,-108.812 L 13.3925,-109.033 L 13.7227,-109.214 L 14.0729,-109.353 L 14.4379,-109.447
 L 14.8116,-109.494 L 15.1884,-109.494 L 15.5621,-109.447 L 15.927,-109.353 L 16.2773,-109.214 L 16.6075,-109.033
 L 16.9123,-108.812 L 17.1869,-108.554 L 17.427,-108.263 L 17.6289,-107.945 L 17.7893,-107.604 L 17.9057,-107.246
 L 17.9763,-106.876 L 18,-106.5 L 17.9763,-106.124 L 17.9057,-105.754 L 17.7893,-105.396 L 17.6289,-105.055
 L 17.427,-104.737 L 17.1869,-104.446 L 16.9123,-104.188 L 16.6075,-103.967 L 16.2773,-103.786 L 15.927,-103.647
 L 15.5621,-103.553 L 15.1884,-103.506 z
M 29.8116,-103.506 L 29.4379,-103.553 L 29.0729,-103.647 L 28.7227,-103.786 L 28.3925,-103.967 L 28.0877,-104.188
 L 27.8131,-104.446 L 27.5729,-104.737 L 27.3711,-105.055 L 27.2107,-105.396 L 27.0942,-105.754 L 27.0237,-106.124
 L 27,-106.5 L 27.0237,-106.876 L 27.0942,-107.246 L 27.2107,-107.604 L 27.3711,-107.945 L 27.5729,-108.263
 L 27.8131,-108.554 L 28.0877,-108.812 L 28.3925,-109.033 L 28.7227,-109.214 L 29.0729,-109.353 L 29.4379,-109.447
 L 29.8116,-109.494 L 30.1884,-109.494 L 30.5621,-109.447 L 30.927,-109.353 L 31.2773,-109.214 L 31.6075,-109.033
 L 31.9123,-108.812 L 32.1869,-108.554 L 32.427,-108.263 L 32.6289,-107.945 L 32.7893,-107.604 L 32.9057,-107.246
 L 32.9763,-106.876 L 33,-106.5 L 32.9763,-106.124 L 32.9057,-105.754 L 32.7893,-105.396 L 32.6289,-105.055
 L 32.427,-104.737 L 32.1869,-104.446 L 31.9123,-104.188 L 31.6075,-103.967 L 31.2773,-103.786 L 30.927,-103.647
 L 30.5621,-103.553 L 30.1884,-103.506 z
M -15.1884,-103.506 L -15.5621,-103.553 L -15.927,-103.647 L -16.2773,-103.786 L -16.6075,-103.967 L -16.9123,-104.188
 L -17.1869,-104.446 L -17.427,-104.737 L -17.6289,-105.055 L -17.7893,-105.396 L -17.9057,-105.754 L -17.9763,-106.124
 L -18,-106.5 L -17.9763,-106.876 L -17.9057,-107.246 L -17.7893,-107.604 L -17.6289,-107.945 L -17.427,-108.263
 L -17.1869,-108.554 L -16.9123,-108.812 L -16.6075,-109.033 L -16.2773,-109.214 L -15.927,-109.353 L -15.5621,-109.447
 L -15.1884,-109.494 L -14.8116,-109.494 L -14.4379,-109.447 L -14.0729,-109.353 L -13.7227,-109.214 L -13.3925,-109.033
 L -13.0877,-108.812 L -12.8131,-108.554 L -12.5729,-108.263 L -12.3711,-107.945 L -12.2107,-107.604 L -12.0942,-107.246
 L -12.0237,-106.876 L -12,-106.5 L -12.0237,-106.124 L -12.0942,-105.754 L -12.2107,-105.396 L -12.3711,-105.055
 L -12.5729,-104.737 L -12.8131,-104.446 L -13.0877,-104.188 L -13.3925,-103.967 L -13.7227,-103.786 L -14.0729,-103.647
 L -14.4379,-103.553 L -14.8116,-103.506 z
M 5.82671,-88.6018 L 4.15341,-91.5 L 5.82671,-94.3982 L 9.17329,-94.3982 L 10.8466,-91.5 L 9.17329,-88.6018
 z
M -24.1733,-88.6018 L -25.8466,-91.5 L -24.1733,-94.3982 L -20.8267,-94.3982 L -19.1534,-91.5 L -20.8267,-88.6018
 z
M -9.17329,-88.6018 L -10.8466,-91.5 L -9.17329,-94.3982 L -5.82671,-94.3982 L -4.15341,-91.5 L -5.82671,-88.6018
 z
M 22.3493,-89.1047 L 22.0503,-89.1425 L 21.7583,-89.2175 L 21.4781,-89.3284 L 21.214,-89.4736 L 20.9702,-89.6508
 L 20.7505,-89.8571 L 20.5583,-90.0893 L 20.3969,-90.3438 L 20.2685,-90.6165 L 20.1754,-90.9031 L 20.1189,-91.1992
 L 20.1,-91.5 L 20.1189,-91.8008 L 20.1754,-92.0968 L 20.2685,-92.3835 L 20.3969,-92.6562 L 20.5583,-92.9107
 L 20.7505,-93.1429 L 20.9702,-93.3492 L 21.214,-93.5264 L 21.4781,-93.6716 L 21.7583,-93.7825 L 22.0503,-93.8575
 L 22.3493,-93.8953 L 22.6507,-93.8953 L 22.9497,-93.8575 L 23.2416,-93.7825 L 23.5219,-93.6716 L 23.786,-93.5264
 L 24.0298,-93.3492 L 24.2495,-93.1429 L 24.4416,-92.9107 L 24.6031,-92.6562 L 24.7315,-92.3835 L 24.8246,-92.0968
 L 24.8811,-91.8008 L 24.9,-91.5 L 24.8811,-91.1992 L 24.8246,-90.9031 L 24.7315,-90.6165 L 24.6031,-90.3438
 L 24.4416,-90.0893 L 24.2495,-89.8571 L 24.0298,-89.6508 L 23.786,-89.4736 L 23.5219,-89.3284 L 23.2416,-89.2175
 L 22.9497,-89.1425 L 22.6507,-89.1047 z
M -32.5942,-42.6 L -35.304,-42.6 L -35.304,-48 L -32.5942,-48 L -32.5942,-51 L -32.6289,-51.0547
 L -32.7893,-51.3956 L -32.9057,-51.7539 L -32.9763,-52.124 L -33,-52.5 L -32.9763,-52.876 L -32.9057,-53.2461
 L -32.7893,-53.6044 L -32.6289,-53.9453 L -32.427,-54.2634 L -32.1869,-54.5536 L -31.9123,-54.8115 L -31.6075,-55.033
 L -31.2773,-55.2145 L -30.927,-55.3532 L -30.5621,-55.4469 L -30.1884,-55.4941 L -29.8116,-55.4941 L -29.4379,-55.4469
 L -29.0729,-55.3532 L -28.7227,-55.2145 L -28.3925,-55.033 L -28.0877,-54.8115 L -27.8131,-54.5536 L -27.5729,-54.2634
 L -27.3711,-53.9453 L -27.2107,-53.6044 L -27.0942,-53.2461 L -27.0237,-52.876 L -27,-52.5 L -27.0237,-52.124
 L -27.0942,-51.7539 L -27.2107,-51.3956 L -27.3711,-51.0547 L -27.4058,-51 L -27.4058,-48 L -24.696,-48
 L -24.696,-42.6 L -27.4058,-42.6 L -27.4058,-39 L -17.5942,-39 L -17.5942,-42.6 L -20.304,-42.6
 L -20.304,-48 L -17.5942,-48 L -17.5942,-51 L -17.6289,-51.0547 L -17.7893,-51.3956 L -17.9057,-51.7539
 L -17.9763,-52.124 L -18,-52.5 L -17.9763,-52.876 L -17.9057,-53.2461 L -17.7893,-53.6044 L -17.6289,-53.9453
 L -17.427,-54.2634 L -17.1869,-54.5536 L -16.9123,-54.8115 L -16.6075,-55.033 L -16.2773,-55.2145 L -15.927,-55.3532
 L -15.5621,-55.4469 L -15.1884,-55.4941 L -14.8116,-55.4941 L -14.4379,-55.4469 L -14.0729,-55.3532 L -13.7227,-55.2145
 L -13.3925,-55.033 L -13.0877,-54.8115 L -12.8131,-54.5536 L -12.5729,-54.2634 L -12.3711,-53.9453 L -12.2107,-53.6044
 L -12.0942,-53.2461 L -12.0237,-52.876 L -12,-52.5 L -12.0237,-52.124 L -12.0942,-51.7539 L -12.2107,-51.3956
 L -12.3711,-51.0547 L -12.4058,-51 L -12.4058,-48 L -9.69603,-48 L -9.69603,-42.6 L -12.4058,-42.6
 L -12.4058,-39 L -2.59418,-39 L -2.59418,-42.6 L -5.30396,-42.6 L -5.30396,-48 L -2.59418,-48
 L -2.59418,-51 L -2.62891,-51.0547 L -2.78932,-51.3956 L -2.90575,-51.7539 L -2.97633,-52.124 L -3,-52.5
 L -2.97633,-52.876 L -2.90575,-53.2461 L -2.78932,-53.6044 L -2.62891,-53.9453 L -2.42705,-54.2634 L -2.1869,-54.5536
 L -1.91226,-54.8115 L -1.60747,-55.033 L -1.27733,-55.2145 L -0.927048,-55.3532 L -0.562134,-55.4469 L -0.18837,-55.4941
 L 0.18837,-55.4941 L 0.562134,-55.4469 L 0.927048,-55.3532 L 1.27733,-55.2145 L 1.60747,-55.033 L 1.91226,-54.8115
 L 2.1869,-54.5536 L 2.42705,-54.2634 L 2.62891,-53.9453 L 2.78932,-53.6044 L 2.90575,-53.2461 L 2.97633,-52.876
 L 3,-52.5 L 2.97633,-52.124 L 2.90575,-51.7539 L 2.78932,-51.3956 L 2.62891,-51.0547 L 2.59418,-51
 L 2.59418,-48 L 5.30396,-48 L 5.30396,-42.6 L 2.59418,-42.6 L 2.59418,-39 L 12.4058,-39
 L 12.4058,-42.6 L 9.69603,-42.6 L 9.69603,-48 L 12.4058,-48 L 12.4058,-51 L 12.3711,-51.0547
 L 12.2107,-51.3956 L 12.0942,-51.7539 L 12.0237,-52.124 L 12,-52.5 L 12.0237,-52.876 L 12.0942,-53.2461
 L 12.2107,-53.6044 L 12.3711,-53.9453 L 12.5729,-54.2634 L 12.8131,-54.5536 L 13.0877,-54.8115 L 13.3925,-55.033
 L 13.7227,-55.2145 L 14.0729,-55.3532 L 14.4379,-55.4469 L 14.8116,-55.4941 L 15.1884,-55.4941 L 15.5621,-55.4469
 L 15.927,-55.3532 L 16.2773,-55.2145 L 16.6075,-55.033 L 16.9123,-54.8115 L 17.1869,-54.5536 L 17.427,-54.2634
 L 17.6289,-53.9453 L 17.7893,-53.6044 L 17.9057,-53.2461 L 17.9763,-52.876 L 18,-52.5 L 17.9763,-52.124
 L 17.9057,-51.7539 L 17.7893,-51.3956 L 17.6289,-51.0547 L 17.5942,-51 L 17.5942,-48 L 20.304,-48
 L 20.304,-42.6 L 17.5942,-42.6 L 17.5942,-39 L 27.4058,-39 L 27.4058,-42.6 L 24.696,-42.6
 L 24.696,-48 L 27.4058,-48 L 27.4058,-51 L 27.3711,-51.0547 L 27.2107,-51.3956 L 27.0942,-51.7539
 L 27.0237,-52.124 L 27,-52.5 L 27.0237,-52.876 L 27.0942,-53.2461 L 27.2107,-53.6044 L 27.3711,-53.9453
 L 27.5729,-54.2634 L 27.8131,-54.5536 L 28.0877,-54.8115 L 28.3925,-55.033 L 28.7227,-55.2145 L 29.0729,-55.3532
 L 29.4379,-55.4469 L 29.8116,-55.4941 L 30.1884,-55.4941 L 30.5621,-55.4469 L 30.927,-55.3532 L 31.2773,-55.2145
 L 31.6075,-55.033 L 31.9123,-54.8115 L 32.1869,-54.5536 L 32.427,-54.2634 L 32.6289,-53.9453 L 32.7893,-53.6044
 L 32.9057,-53.2461 L 32.9763,-52.876 L 33,-52.5 L 32.9763,-52.124 L 32.9057,-51.7539 L 32.7893,-51.3956
 L 32.6289,-51.0547 L 32.5942,-51 L 32.5942,-48 L 35.304,-48 L 35.304,-42.6 L 32.5942,-42.6
 L 32.5942,-39 L 37,-39 L 37,-69.5 L 36.9606,-70.1267 L 36.8429,-70.7434 L 36.6489,-71.3406
 L 36.3815,-71.9088 L 36.0451,-72.4389 L 35.6448,-72.9227 L 35.1871,-73.3526 L 34.6791,-73.7216 L 34.1289,-74.0241
 L 33.5451,-74.2553 L 32.9369,-74.4114 L 32.3139,-74.4901 L -32.3139,-74.4901 L -32.9369,-74.4114 L -33.5451,-74.2553
 L -34.1289,-74.0241 L -34.6791,-73.7216 L -35.1871,-73.3526 L -35.6448,-72.9227 L -36.0451,-72.4389 L -36.3815,-71.9088
 L -36.6489,-71.3406 L -36.8429,-70.7434 L -36.9606,-70.1267 L -37,-69.5 L -37,-39 L -32.5942,-39
 z
M 14.8116,-64.5059 L 14.4379,-64.5531 L 14.0729,-64.6468 L 13.7227,-64.7855 L 13.3925,-64.967 L 13.0877,-65.1884
 L 12.8131,-65.4464 L 12.5729,-65.7366 L 12.3711,-66.0547 L 12.2107,-66.3956 L 12.0942,-66.7539 L 12.0237,-67.124
 L 12,-67.5 L 12.0237,-67.876 L 12.0942,-68.2461 L 12.2107,-68.6044 L 12.3711,-68.9453 L 12.5729,-69.2634
 L 12.8131,-69.5536 L 13.0877,-69.8115 L 13.3925,-70.033 L 13.7227,-70.2145 L 14.0729,-70.3532 L 14.4379,-70.4469
 L 14.8116,-70.4941 L 15.1884,-70.4941 L 15.5621,-70.4469 L 15.927,-70.3532 L 16.2773,-70.2145 L 16.6075,-70.033
 L 16.9123,-69.8115 L 17.1869,-69.5536 L 17.427,-69.2634 L 17.6289,-68.9453 L 17.7893,-68.6044 L 17.9057,-68.2461
 L 17.9763,-67.876 L 18,-67.5 L 17.9763,-67.124 L 17.9057,-66.7539 L 17.7893,-66.3956 L 17.6289,-66.0547
 L 17.427,-65.7366 L 17.1869,-65.4464 L 16.9123,-65.1884 L 16.6075,-64.967 L 16.2773,-64.7855 L 15.927,-64.6468
 L 15.5621,-64.5531 L 15.1884,-64.5059 z
M -15.1884,-64.5059 L -15.5621,-64.5531 L -15.927,-64.6468 L -16.2773,-64.7855 L -16.6075,-64.967 L -16.9123,-65.1884
 L -17.1869,-65.4464 L -17.427,-65.7366 L -17.6289,-66.0547 L -17.7893,-66.3956 L -17.9057,-66.7539 L -17.9763,-67.124
 L -18,-67.5 L -17.9763,-67.876 L -17.9057,-68.2461 L -17.7893,-68.6044 L -17.6289,-68.9453 L -17.427,-69.2634
 L -17.1869,-69.5536 L -16.9123,-69.8115 L -16.6075,-70.033 L -16.2773,-70.2145 L -15.927,-70.3532 L -15.5621,-70.4469
 L -15.1884,-70.4941 L -14.8116,-70.4941 L -14.4379,-70.4469 L -14.0729,-70.3532 L -13.7227,-70.2145 L -13.3925,-70.033
 L -13.0877,-69.8115 L -12.8131,-69.5536 L -12.5729,-69.2634 L -12.3711,-68.9453 L -12.2107,-68.6044 L -12.0942,-68.2461
 L -12.0237,-67.876 L -12,-67.5 L -12.0237,-67.124 L -12.0942,-66.7539 L -12.2107,-66.3956 L -12.3711,-66.0547
 L -12.5729,-65.7366 L -12.8131,-65.4464 L -13.0877,-65.1884 L -13.3925,-64.967 L -13.7227,-64.7855 L -14.0729,-64.6468
 L -14.4379,-64.5531 L -14.8116,-64.5059 z
M -0.18837,-64.5059 L -0.562134,-64.5531 L -0.927048,-64.6468 L -1.27733,-64.7855 L -1.60747,-64.967 L -1.91226,-65.1884
 L -2.1869,-65.4464 L -2.42705,-65.7366 L -2.62891,-66.0547 L -2.78932,-66.3956 L -2.90575,-66.7539 L -2.97633,-67.124
 L -3,-67.5 L -2.97633,-67.876 L -2.90575,-68.2461 L -2.78932,-68.6044 L -2.62891,-68.9453 L -2.42705,-69.2634
 L -2.1869,-69.5536 L -1.91226,-69.8115 L -1.60747,-70.033 L -1.27733,-70.2145 L -0.927048,-70.3532 L -0.562134,-70.4469
 L -0.18837,-70.4941 L 0.18837,-70.4941 L 0.562134,-70.4469 L 0.927048,-70.3532 L 1.27733,-70.2145 L 1.60747,-70.033
 L 1.91226,-69.8115 L 2.1869,-69.5536 L 2.42705,-69.2634 L 2.62891,-68.9453 L 2.78932,-68.6044 L 2.90575,-68.2461
 L 2.97633,-67.876 L 3,-67.5 L 2.97633,-67.124 L 2.90575,-66.7539 L 2.78932,-66.3956 L 2.62891,-66.0547
 L 2.42705,-65.7366 L 2.1869,-65.4464 L 1.91226,-65.1884 L 1.60747,-64.967 L 1.27733,-64.7855 L 0.927048,-64.6468
 L 0.562134,-64.5531 L 0.18837,-64.5059 z
M 29.8116,-64.5059 L 29.4379,-64.5531 L 29.0729,-64.6468 L 28.7227,-64.7855 L 28.3925,-64.967 L 28.0877,-65.1884
 L 27.8131,-65.4464 L 27.5729,-65.7366 L 27.3711,-66.0547 L 27.2107,-66.3956 L 27.0942,-66.7539 L 27.0237,-67.124
 L 27,-67.5 L 27.0237,-67.876 L 27.0942,-68.2461 L 27.2107,-68.6044 L 27.3711,-68.9453 L 27.5729,-69.2634
 L 27.8131,-69.5536 L 28.0877,-69.8115 L 28.3925,-70.033 L 28.7227,-70.2145 L 29.0729,-70.3532 L 29.4379,-70.4469
 L 29.8116,-70.4941 L 30.1884,-70.4941 L 30.5621,-70.4469 L 30.927,-70.3532 L 31.2773,-70.2145 L 31.6075,-70.033
 L 31.9123,-69.8115 L 32.1869,-69.5536 L 32.427,-69.2634 L 32.6289,-68.9453 L 32.7893,-68.6044 L 32.9057,-68.2461
 L 32.9763,-67.876 L 33,-67.5 L 32.9763,-67.124 L 32.9057,-66.7539 L 32.7893,-66.3956 L 32.6289,-66.0547
 L 32.427,-65.7366 L 32.1869,-65.4464 L 31.9123,-65.1884 L 31.6075,-64.967 L 31.2773,-64.7855 L 30.927,-64.6468
 L 30.5621,-64.5531 L 30.1884,-64.5059 z
M -30.1884,-64.5059 L -30.5621,-64.5531 L -30.927,-64.6468 L -31.2773,-64.7855 L -31.6075,-64.967 L -31.9123,-65.1884
 L -32.1869,-65.4464 L -32.427,-65.7366 L -32.6289,-66.0547 L -32.7893,-66.3956 L -32.9057,-66.7539 L -32.9763,-67.124
 L -33,-67.5 L -32.9763,-67.876 L -32.9057,-68.2461 L -32.7893,-68.6044 L -32.6289,-68.9453 L -32.427,-69.2634
 L -32.1869,-69.5536 L -31.9123,-69.8115 L -31.6075,-70.033 L -31.2773,-70.2145 L -30.927,-70.3532 L -30.5621,-70.4469
 L -30.1884,-70.4941 L -29.8116,-70.4941 L -29.4379,-70.4469 L -29.0729,-70.3532 L -28.7227,-70.2145 L -28.3925,-70.033
 L -28.0877,-69.8115 L -27.8131,-69.5536 L -27.5729,-69.2634 L -27.3711,-68.9453 L -27.2107,-68.6044 L -27.0942,-68.2461
 L -27.0237,-67.876 L -27,-67.5 L -27.0237,-67.124 L -27.0942,-66.7539 L -27.2107,-66.3956 L -27.3711,-66.0547
 L -27.5729,-65.7366 L -27.8131,-65.4464 L -28.0877,-65.1884 L -28.3925,-64.967 L -28.7227,-64.7855 L -29.0729,-64.6468
 L -29.4379,-64.5531 L -29.8116,-64.5059 z
M 5.82671,-49.6018 L 4.15341,-52.5 L 5.82671,-55.3982 L 9.17329,-55.3982 L 10.8466,-52.5 L 9.17329,-49.6018
 z
M -24.1733,-49.6018 L -25.8466,-52.5 L -24.1733,-55.3982 L -20.8267,-55.3982 L -19.1534,-52.5 L -20.8267,-49.6018
 z
M -9.17329,-49.6018 L -10.8466,-52.5 L -9.17329,-55.3982 L -5.82671,-55.3982 L -4.15341,-52.5 L -5.82671,-49.6018
 z
M 37,-30.5 L 36.9606,-31.1267 L 36.8429,-31.7434 L 36.6489,-32.3406 L 36.3815,-32.9088 L 36.0451,-33.4389
 L 35.6448,-33.9227 L 35.1871,-34.3526 L 34.6791,-34.7216 L 34.1289,-35.0241 L 33.5451,-35.2553 L 32.9369,-35.4114
 L 32.3139,-35.4901 L -32.3139,-35.4901 L -32.9369,-35.4114 L -33.5451,-35.2553 L -34.1289,-35.0241 L -34.6791,-34.7216
 L -35.1871,-34.3526 L -35.6448,-33.9227 L -36.0451,-33.4389 L -36.3815,-32.9088 L -36.6489,-32.3406 L -36.8429,-31.7434
 L -36.9606,-31.1267 L -37,-30.5 L -37,-0 L 37,-0 z
M -30.1884,-25.5059 L -30.5621,-25.5531 L -30.927,-25.6468 L -31.2773,-25.7855 L -31.6075,-25.967 L -31.9123,-26.1884
 L -32.1869,-26.4464 L -32.427,-26.7366 L -32.6289,-27.0547 L -32.7893,-27.3956 L -32.9057,-27.7539 L -32.9763,-28.124
 L -33,-28.5 L -32.9763,-28.876 L -32.9057,-29.2461 L -32.7893,-29.6044 L -32.6289,-29.9453 L -32.427,-30.2634
 L -32.1869,-30.5536 L -31.9123,-30.8115 L -31.6075,-31.033 L -31.2773,-31.2145 L -30.927,-31.3532 L -30.5621,-31.4469
 L -30.1884,-31.4941 L -29.8116,-31.4941 L -29.4379,-31.4469 L -29.0729,-31.3532 L -28.7227,-31.2145 L -28.3925,-31.033
 L -28.0877,-30.8115 L -27.8131,-30.5536 L -27.5729,-30.2634 L -27.3711,-29.9453 L -27.2107,-29.6044 L -27.0942,-29.2461
 L -27.0237,-28.876 L -27,-28.5 L -27.0237,-28.124 L -27.0942,-27.7539 L -27.2107,-27.3956 L -27.3711,-27.0547
 L -27.5729,-26.7366 L -27.8131,-26.4464 L -28.0877,-26.1884 L -28.3925,-25.967 L -28.7227,-25.7855 L -29.0729,-25.6468
 L -29.4379,-25.5531 L -29.8116,-25.5059 z
M -15.1884,-25.5059 L -15.5621,-25.5531 L -15.927,-25.6468 L -16.2773,-25.7855 L -16.6075,-25.967 L -16.9123,-26.1884
 L -17.1869,-26.4464 L -17.427,-26.7366 L -17.6289,-27.0547 L -17.7893,-27.3956 L -17.9057,-27.7539 L -17.9763,-28.124
 L -18,-28.5 L -17.9763,-28.876 L -17.9057,-29.2461 L -17.7893,-29.6044 L -17.6289,-29.9453 L -17.427,-30.2634
 L -17.1869,-30.5536 L -16.9123,-30.8115 L -16.6075,-31.033 L -16.2773,-31.2145 L -15.927,-31.3532 L -15.5621,-31.4469
 L -15.1884,-31.4941 L -14.8116,-31.4941 L -14.4379,-31.4469 L -14.0729,-31.3532 L -13.7227,-31.2145 L -13.3925,-31.033
 L -13.0877,-30.8115 L -12.8131,-30.5536 L -12.5729,-30.2634 L -12.3711,-29.9453 L -12.2107,-29.6044 L -12.0942,-29.2461
 L -12.0237,-28.876 L -12,-28.5 L -12.0237,-28.124 L -12.0942,-27.7539 L -12.2107,-27.3956 L -12.3711,-27.0547
 L -12.5729,-26.7366 L -12.8131,-26.4464 L -13.0877,-26.1884 L -13.3925,-25.967 L -13.7227,-25.7855 L -14.0729,-25.6468
 L -14.4379,-25.5531 L -14.8116,-25.5059 z
M 29.8116,-25.5059 L 29.4379,-25.5531 L 29.0729,-25.6468 L 28.7227,-25.7855 L 28.3925,-25.967 L 28.0877,-26.1884
 L 27.8131,-26.4464 L 27.5729,-26.7366 L 27.3711,-27.0547 L 27.2107,-27.3956 L 27.0942,-27.7539 L 27.0237,-28.124
 L 27,-28.5 L 27.0237,-28.876 L 27.0942,-29.2461 L 27.2107,-29.6044 L 27.3711,-29.9453 L 27.5729,-30.2634
 L 27.8131,-30.5536 L 28.0877,-30.8115 L 28.3925,-31.033 L 28.7227,-31.2145 L 29.0729,-31.3532 L 29.4379,-31.4469
 L 29.8116,-31.4941 L 30.1884,-31.4941 L 30.5621,-31.4469 L 30.927,-31.3532 L 31.2773,-31.2145 L 31.6075,-31.033
 L 31.9123,-30.8115 L 32.1869,-30.5536 L 32.427,-30.2634 L 32.6289,-29.9453 L 32.7893,-29.6044 L 32.9057,-29.2461
 L 32.9763,-28.876 L 33,-28.5 L 32.9763,-28.124 L 32.9057,-27.7539 L 32.7893,-27.3956 L 32.6289,-27.0547
 L 32.427,-26.7366 L 32.1869,-26.4464 L 31.9123,-26.1884 L 31.6075,-25.967 L 31.2773,-25.7855 L 30.927,-25.6468
 L 30.5621,-25.5531 L 30.1884,-25.5059 z
M 14.8116,-25.5059 L 14.4379,-25.5531 L 14.0729,-25.6468 L 13.7227,-25.7855 L 13.3925,-25.967 L 13.0877,-26.1884
 L 12.8131,-26.4464 L 12.5729,-26.7366 L 12.3711,-27.0547 L 12.2107,-27.3956 L 12.0942,-27.7539 L 12.0237,-28.124
 L 12,-28.5 L 12.0237,-28.876 L 12.0942,-29.2461 L 12.2107,-29.6044 L 12.3711,-29.9453 L 12.5729,-30.2634
 L 12.8131,-30.5536 L 13.0877,-30.8115 L 13.3925,-31.033 L 13.7227,-31.2145 L 14.0729,-31.3532 L 14.4379,-31.4469
 L 14.8116,-31.4941 L 15.1884,-31.4941 L 15.5621,-31.4469 L 15.927,-31.3532 L 16.2773,-31.2145 L 16.6075,-31.033
 L 16.9123,-30.8115 L 17.1869,-30.5536 L 17.427,-30.2634 L 17.6289,-29.9453 L 17.7893,-29.6044 L 17.9057,-29.2461
 L 17.9763,-28.876 L 18,-28.5 L 17.9763,-28.124 L 17.9057,-27.7539 L 17.7893,-27.3956 L 17.6289,-27.0547
 L 17.427,-26.7366 L 17.1869,-26.4464 L 16.9123,-26.1884 L 16.6075,-25.967 L 16.2773,-25.7855 L 15.927,-25.6468
 L 15.5621,-25.5531 L 15.1884,-25.5059 z
M -0.18837,-25.5059 L -0.562134,-25.5531 L -0.927048,-25.6468 L -1.27733,-25.7855 L -1.60747,-25.967 L -1.91226,-26.1884
 L -2.1869,-26.4464 L -2.42705,-26.7366 L -2.62891,-27.0547 L -2.78932,-27.3956 L -2.90575,-27.7539 L -2.97633,-28.124
 L -3,-28.5 L -2.97633,-28.876 L -2.90575,-29.2461 L -2.78932,-29.6044 L -2.62891,-29.9453 L -2.42705,-30.2634
 L -2.1869,-30.5536 L -1.91226,-30.8115 L -1.60747,-31.033 L -1.27733,-31.2145 L -0.927048,-31.3532 L -0.562134,-31.4469
 L -0.18837,-31.4941 L 0.18837,-31.4941 L 0.562134,-31.4469 L 0.927048,-31.3532 L 1.27733,-31.2145 L 1.60747,-31.033
 L 1.91226,-30.8115 L 2.1869,-30.5536 L 2.42705,-30.2634 L 2.62891,-29.9453 L 2.78932,-29.6044 L 2.90575,-29.2461
 L 2.97633,-28.876 L 3,-28.5 L 2.97633,-28.124 L 2.90575,-27.7539 L 2.78932,-27.3956 L 2.62891,-27.0547
 L 2.42705,-26.7366 L 2.1869,-26.4464 L 1.91226,-26.1884 L 1.60747,-25.967 L 1.27733,-25.7855 L 0.927048,-25.6468
 L 0.562134,-25.5531 L 0.18837,-25.5059 z
M 14.8116,-10.5059 L 14.4379,-10.5531 L 14.0729,-10.6468 L 13.7227,-10.7855 L 13.3925,-10.967 L 13.0877,-11.1884
 L 12.8131,-11.4464 L 12.5729,-11.7366 L 12.3711,-12.0547 L 12.2107,-12.3956 L 12.0942,-12.7539 L 12.0237,-13.124
 L 12,-13.5 L 12.0237,-13.876 L 12.0942,-14.2461 L 12.2107,-14.6044 L 12.3711,-14.9453 L 12.5729,-15.2634
 L 12.8131,-15.5536 L 13.0877,-15.8115 L 13.3925,-16.033 L 13.7227,-16.2145 L 14.0729,-16.3532 L 14.4379,-16.4469
 L 14.8116,-16.4941 L 15.1884,-16.4941 L 15.5621,-16.4469 L 15.927,-16.3532 L 16.2773,-16.2145 L 16.6075,-16.033
 L 16.9123,-15.8115 L 17.1869,-15.5536 L 17.427,-15.2634 L 17.6289,-14.9453 L 17.7893,-14.6044 L 17.9057,-14.2461
 L 17.9763,-13.876 L 18,-13.5 L 17.9763,-13.124 L 17.9057,-12.7539 L 17.7893,-12.3956 L 17.6289,-12.0547
 L 17.427,-11.7366 L 17.1869,-11.4464 L 16.9123,-11.1884 L 16.6075,-10.967 L 16.2773,-10.7855 L 15.927,-10.6468
 L 15.5621,-10.5531 L 15.1884,-10.5059 z
M -0.18837,-10.5059 L -0.562134,-10.5531 L -0.927048,-10.6468 L -1.27733,-10.7855 L -1.60747,-10.967 L -1.91226,-11.1884
 L -2.1869,-11.4464 L -2.42705,-11.7366 L -2.62891,-12.0547 L -2.78932,-12.3956 L -2.90575,-12.7539 L -2.97633,-13.124
 L -3,-13.5 L -2.97633,-13.876 L -2.90575,-14.2461 L -2.78932,-14.6044 L -2.62891,-14.9453 L -2.42705,-15.2634
 L -2.1869,-15.5536 L -1.91226,-15.8115 L -1.60747,-16.033 L -1.27733,-16.2145 L -0.927048,-16.3532 L -0.562134,-16.4469
 L -0.18837,-16.4941 L 0.18837,-16.4941 L 0.562134,-16.4469 L 0.927048,-16.3532 L 1.27733,-16.2145 L 1.60747,-16.033
 L 1.91226,-15.8115 L 2.1869,-15.5536 L 2.42705,-15.2634 L 2.62891,-14.9453 L 2.78932,-14.6044 L 2.90575,-14.2461
 L 2.97633,-13.876 L 3,-13.5 L 2.97633,-13.124 L 2.90575,-12.7539 L 2.78932,-12.3956 L 2.62891,-12.0547
 L 2.42705,-11.7366 L 2.1869,-11.4464 L 1.91226,-11.1884 L 1.60747,-10.967 L 1.27733,-10.7855 L 0.927048,-10.6468
 L 0.562134,-10.5531 L 0.18837,-10.5059 z
M -15.1884,-10.5059 L -15.5621,-10.5531 L -15.927,-10.6468 L -16.2773,-10.7855 L -16.6075,-10.967 L -16.9123,-11.1884
 L -17.1869,-11.4464 L -17.427,-11.7366 L -17.6289,-12.0547 L -17.7893,-12.3956 L -17.9057,-12.7539 L -17.9763,-13.124
 L -18,-13.5 L -17.9763,-13.876 L -17.9057,-14.2461 L -17.7893,-14.6044 L -17.6289,-14.9453 L -17.427,-15.2634
 L -17.1869,-15.5536 L -16.9123,-15.8115 L -16.6075,-16.033 L -16.2773,-16.2145 L -15.927,-16.3532 L -15.5621,-16.4469
 L -15.1884,-16.4941 L -14.8116,-16.4941 L -14.4379,-16.4469 L -14.0729,-16.3532 L -13.7227,-16.2145 L -13.3925,-16.033
 L -13.0877,-15.8115 L -12.8131,-15.5536 L -12.5729,-15.2634 L -12.3711,-14.9453 L -12.2107,-14.6044 L -12.0942,-14.2461
 L -12.0237,-13.876 L -12,-13.5 L -12.0237,-13.124 L -12.0942,-12.7539 L -12.2107,-12.3956 L -12.3711,-12.0547
 L -12.5729,-11.7366 L -12.8131,-11.4464 L -13.0877,-11.1884 L -13.3925,-10.967 L -13.7227,-10.7855 L -14.0729,-10.6468
 L -14.4379,-10.5531 L -14.8116,-10.5059 z
M 29.8116,-10.5059 L 29.4379,-10.5531 L 29.0729,-10.6468 L 28.7227,-10.7855 L 28.3925,-10.967 L 28.0877,-11.1884
 L 27.8131,-11.4464 L 27.5729,-11.7366 L 27.3711,-12.0547 L 27.2107,-12.3956 L 27.0942,-12.7539 L 27.0237,-13.124
 L 27,-13.5 L 27.0237,-13.876 L 27.0942,-14.2461 L 27.2107,-14.6044 L 27.3711,-14.9453 L 27.5729,-15.2634
 L 27.8131,-15.5536 L 28.0877,-15.8115 L 28.3925,-16.033 L 28.7227,-16.2145 L 29.0729,-16.3532 L 29.4379,-16.4469
 L 29.8116,-16.4941 L 30.1884,-16.4941 L 30.5621,-16.4469 L 30.927,-16.3532 L 31.2773,-16.2145 L 31.6075,-16.033
 L 31.9123,-15.8115 L 32.1869,-15.5536 L 32.427,-15.2634 L 32.6289,-14.9453 L 32.7893,-14.6044 L 32.9057,-14.2461
 L 32.9763,-13.876 L 33,-13.5 L 32.9763,-13.124 L 32.9057,-12.7539 L 32.7893,-12.3956 L 32.6289,-12.0547
 L 32.427,-11.7366 L 32.1869,-11.4464 L 31.9123,-11.1884 L 31.6075,-10.967 L 31.2773,-10.7855 L 30.927,-10.6468
 L 30.5621,-10.5531 L 30.1884,-10.5059 z
M -30.1884,-10.5059 L -30.5621,-10.5531 L -30.927,-10.6468 L -31.2773,-10.7855 L -31.6075,-10.967 L -31.9123,-11.1884
 L -32.1869,-11.4464 L -32.427,-11.7366 L -32.6289,-12.0547 L -32.7893,-12.3956 L -32.9057,-12.7539 L -32.9763,-13.124
 L -33,-13.5 L -32.9763,-13.876 L -32.9057,-14.2461 L -32.7893,-14.6044 L -32.6289,-14.9453 L -32.427,-15.2634
 L -32.1869,-15.5536 L -31.9123,-15.8115 L -31.6075,-16.033 L -31.2773,-16.2145 L -30.927,-16.3532 L -30.5621,-16.4469
 L -30.1884,-16.4941 L -29.8116,-16.4941 L -29.4379,-16.4469 L -29.0729,-16.3532 L -28.7227,-16.2145 L -28.3925,-16.033
 L -28.0877,-15.8115 L -27.8131,-15.5536 L -27.5729,-15.2634 L -27.3711,-14.9453 L -27.2107,-14.6044 L -27.0942,-14.2461
 L -27.0237,-13.876 L -27,-13.5 L -27.0237,-13.124 L -27.0942,-12.7539 L -27.2107,-12.3956 L -27.3711,-12.0547
 L -27.5729,-11.7366 L -27.8131,-11.4464 L -28.0877,-11.1884 L -28.3925,-10.967 L -28.7227,-10.7855 L -29.0729,-10.6468
 L -29.4379,-10.5531 L -29.8116,-10.5059 z
M 20.8267,-10.6018 L 19.1534,-13.5 L 20.8267,-16.3982 L 24.1733,-16.3982 L 25.8466,-13.5 L 24.1733,-10.6018
 z
M 7.34929,-11.1047 L 7.05028,-11.1425 L 6.75835,-11.2175 L 6.47812,-11.3284 L 6.214,-11.4736 L 5.97017,-11.6508
 L 5.75047,-11.8571 L 5.55835,-12.0893 L 5.39685,-12.3438 L 5.26852,-12.6165 L 5.1754,-12.9031 L 5.11891,-13.1992
 L 5.09999,-13.5 L 5.11891,-13.8008 L 5.1754,-14.0968 L 5.26852,-14.3835 L 5.39685,-14.6562 L 5.55835,-14.9107
 L 5.75047,-15.1429 L 5.97017,-15.3492 L 6.214,-15.5264 L 6.47812,-15.6716 L 6.75835,-15.7825 L 7.05028,-15.8575
 L 7.34929,-15.8953 L 7.6507,-15.8953 L 7.94971,-15.8575 L 8.24164,-15.7825 L 8.52187,-15.6716 L 8.78598,-15.5264
 L 9.02982,-15.3492 L 9.24951,-15.1429 L 9.44164,-14.9107 L 9.60313,-14.6562 L 9.73146,-14.3835 L 9.82458,-14.0968
 L 9.88107,-13.8008 L 9.89999,-13.5 L 9.88107,-13.1992 L 9.82458,-12.9031 L 9.73146,-12.6165 L 9.60313,-12.3438
 L 9.44164,-12.0893 L 9.24951,-11.8571 L 9.02982,-11.6508 L 8.78598,-11.4736 L 8.52187,-11.3284 L 8.24164,-11.2175
 L 7.94971,-11.1425 L 7.6507,-11.1047 z
M -7.6507,-11.1047 L -7.94971,-11.1425 L -8.24164,-11.2175 L -8.52187,-11.3284 L -8.78598,-11.4736 L -9.02982,-11.6508
 L -9.24951,-11.8571 L -9.44164,-12.0893 L -9.60313,-12.3438 L -9.73146,-12.6165 L -9.82458,-12.9031 L -9.88107,-13.1992
 L -9.89999,-13.5 L -9.88107,-13.8008 L -9.82458,-14.0968 L -9.73146,-14.3835 L -9.60313,-14.6562 L -9.44164,-14.9107
 L -9.24951,-15.1429 L -9.02982,-15.3492 L -8.78598,-15.5264 L -8.52187,-15.6716 L -8.24164,-15.7825 L -7.94971,-15.8575
 L -7.6507,-15.8953 L -7.34929,-15.8953 L -7.05028,-15.8575 L -6.75835,-15.7825 L -6.47812,-15.6716 L -6.214,-15.5264
 L -5.97017,-15.3492 L -5.75047,-15.1429 L -5.55835,-14.9107 L -5.39685,-14.6562 L -5.26852,-14.3835 L -5.1754,-14.0968
 L -5.11891,-13.8008 L -5.09999,-13.5 L -5.11891,-13.1992 L -5.1754,-12.9031 L -5.26852,-12.6165 L -5.39685,-12.3438
 L -5.55835,-12.0893 L -5.75047,-11.8571 L -5.97017,-11.6508 L -6.214,-11.4736 L -6.47812,-11.3284 L -6.75835,-11.2175
 L -7.05028,-11.1425 L -7.34929,-11.1047 z
M -22.6507,-11.1047 L -22.9497,-11.1425 L -23.2416,-11.2175 L -23.5219,-11.3284 L -23.786,-11.4736 L -24.0298,-11.6508
 L -24.2495,-11.8571 L -24.4416,-12.0893 L -24.6031,-12.3438 L -24.7315,-12.6165 L -24.8246,-12.9031 L -24.8811,-13.1992
 L -24.9,-13.5 L -24.8811,-13.8008 L -24.8246,-14.0968 L -24.7315,-14.3835 L -24.6031,-14.6562 L -24.4416,-14.9107
 L -24.2495,-15.1429 L -24.0298,-15.3492 L -23.786,-15.5264 L -23.5219,-15.6716 L -23.2416,-15.7825 L -22.9497,-15.8575
 L -22.6507,-15.8953 L -22.3493,-15.8953 L -22.0503,-15.8575 L -21.7583,-15.7825 L -21.4781,-15.6716 L -21.214,-15.5264
 L -20.9702,-15.3492 L -20.7505,-15.1429 L -20.5583,-14.9107 L -20.3969,-14.6562 L -20.2685,-14.3835 L -20.1754,-14.0968
 L -20.1189,-13.8008 L -20.1,-13.5 L -20.1189,-13.1992 L -20.1754,-12.9031 L -20.2685,-12.6165 L -20.3969,-12.3438
 L -20.5583,-12.0893 L -20.7505,-11.8571 L -20.9702,-11.6508 L -21.214,-11.4736 L -21.4781,-11.3284 L -21.7583,-11.2175
 L -22.0503,-11.1425 L -22.3493,-11.1047 z
M 26.4281,-3.59999 L 26.4281,-9 L 33.5719,-9 L 33.5719,-3.59999 z
M -18.5719,-3.59999 L -18.5719,-9 L -11.4281,-9 L -11.4281,-3.59999 z
M -33.5719,-3.59999 L -33.5719,-9 L -26.4281,-9 L -26.4281,-3.59999 z
M -3.5719,-3.59999 L -3.5719,-9 L 3.5719,-9 L 3.5719,-3.59999 z
M 11.4281,-3.59999 L 11.4281,-9 L 18.5719,-9 L 18.5719,-3.59999 z
" stroke="black" fill="lightgray" stroke-width="0.5"/>
</svg>
