  0
SECTION
  2
BLOCKS
  0
ENDSEC
  0
SECTION
  2
ENTITIES
  0
LINE
  8
0
 10
37
 20
147.5
 11
36.9606
 21
148.127
  0
LINE
  8
0
 10
36.9606
 20
148.127
 11
36.8429
 21
148.743
  0
LINE
  8
0
 10
36.8429
 20
148.743
 11
36.6489
 21
149.341
  0
LINE
  8
0
 10
36.6489
 20
149.341
 11
36.3815
 21
149.909
  0
LINE
  8
0
 10
36.3815
 20
149.909
 11
36.0451
 21
150.439
  0
LINE
  8
0
 10
36.0451
 20
150.439
 11
35.6448
 21
150.923
  0
LINE
  8
0
 10
35.6448
 20
150.923
 11
35.1871
 21
151.353
  0
LINE
  8
0
 10
35.1871
 20
151.353
 11
34.6791
 21
151.722
  0
LINE
  8
0
 10
34.6791
 20
151.722
 11
34.1289
 21
152.024
  0
LINE
  8
0
 10
34.1289
 20
152.024
 11
33.5451
 21
152.255
  0
LINE
  8
0
 10
33.5451
 20
152.255
 11
32.9369
 21
152.411
  0
LINE
  8
0
 10
32.9369
 20
152.411
 11
32.3139
 21
152.49
  0
LINE
  8
0
 10
32.3139
 20
152.49
 11
-32.3139
 21
152.49
  0
LINE
  8
0
 10
-32.3139
 20
152.49
 11
-32.9369
 21
152.411
  0
LINE
  8
0
 10
-32.9369
 20
152.411
 11
-33.5451
 21
152.255
  0
LINE
  8
0
 10
-33.5451
 20
152.255
 11
-34.1289
 21
152.024
  0
LINE
  8
0
 10
-34.1289
 20
152.024
 11
-34.6791
 21
151.722
  0
LINE
  8
0
 10
-34.6791
 20
151.722
 11
-35.1871
 21
151.353
  0
LINE
  8
0
 10
-35.1871
 20
151.353
 11
-35.6448
 21
150.923
  0
LINE
  8
0
 10
-35.6448
 20
150.923
 11
-36.0451
 21
150.439
  0
LINE
  8
0
 10
-36.0451
 20
150.439
 11
-36.3815
 21
149.909
  0
LINE
  8
0
 10
-36.3815
 20
149.909
 11
-36.6489
 21
149.341
  0
LINE
  8
0
 10
-36.6489
 20
149.341
 11
-36.8429
 21
148.743
  0
LINE
  8
0
 10
-36.8429
 20
148.743
 11
-36.9606
 21
148.127
  0
LINE
  8
0
 10
-36.9606
 20
148.127
 11
-37
 21
147.5
  0
LINE
  8
0
 10
-37
 20
147.5
 11
-37
 21
117
  0
LINE
  8
0
 10
-37
 20
117
 11
37
 21
117
  0
LINE
  8
0
 10
37
 20
117
 11
37
 21
147.5
  0
LINE
  8
0
 10
29.8116
 20
142.506
 11
29.4379
 21
142.553
  0
LINE
  8
0
 10
29.4379
 20
142.553
 11
29.0729
 21
142.647
  0
LINE
  8
0
 10
29.0729
 20
142.647
 11
28.7227
 21
142.786
  0
LINE
  8
0
 10
28.7227
 20
142.786
 11
28.3925
 21
142.967
  0
LINE
  8
0
 10
28.3925
 20
142.967
 11
28.0877
 21
143.188
  0
LINE
  8
0
 10
28.0877
 20
143.188
 11
27.8131
 21
143.446
  0
LINE
  8
0
 10
27.8131
 20
143.446
 11
27.5729
 21
143.737
  0
LINE
  8
0
 10
27.5729
 20
143.737
 11
27.3711
 21
144.055
  0
LINE
  8
0
 10
27.3711
 20
144.055
 11
27.2107
 21
144.396
  0
LINE
  8
0
 10
27.2107
 20
144.396
 11
27.0942
 21
144.754
  0
LINE
  8
0
 10
27.0942
 20
144.754
 11
27.0237
 21
145.124
  0
LINE
  8
0
 10
27.0237
 20
145.124
 11
27
 21
145.5
  0
LINE
  8
0
 10
27
 20
145.5
 11
27.0237
 21
145.876
  0
LINE
  8
0
 10
27.0237
 20
145.876
 11
27.0942
 21
146.246
  0
LINE
  8
0
 10
27.0942
 20
146.246
 11
27.2107
 21
146.604
  0
LINE
  8
0
 10
27.2107
 20
146.604
 11
27.3711
 21
146.945
  0
LINE
  8
0
 10
27.3711
 20
146.945
 11
27.5729
 21
147.263
  0
LINE
  8
0
 10
27.5729
 20
147.263
 11
27.8131
 21
147.554
  0
LINE
  8
0
 10
27.8131
 20
147.554
 11
28.0877
 21
147.812
  0
LINE
  8
0
 10
28.0877
 20
147.812
 11
28.3925
 21
148.033
  0
LINE
  8
0
 10
28.3925
 20
148.033
 11
28.7227
 21
148.214
  0
LINE
  8
0
 10
28.7227
 20
148.214
 11
29.0729
 21
148.353
  0
LINE
  8
0
 10
29.0729
 20
148.353
 11
29.4379
 21
148.447
  0
LINE
  8
0
 10
29.4379
 20
148.447
 11
29.8116
 21
148.494
  0
LINE
  8
0
 10
29.8116
 20
148.494
 11
30.1884
 21
148.494
  0
LINE
  8
0
 10
30.1884
 20
148.494
 11
30.5621
 21
148.447
  0
LINE
  8
0
 10
30.5621
 20
148.447
 11
30.927
 21
148.353
  0
LINE
  8
0
 10
30.927
 20
148.353
 11
31.2773
 21
148.214
  0
LINE
  8
0
 10
31.2773
 20
148.214
 11
31.6075
 21
148.033
  0
LINE
  8
0
 10
31.6075
 20
148.033
 11
31.9123
 21
147.812
  0
LINE
  8
0
 10
31.9123
 20
147.812
 11
32.1869
 21
147.554
  0
LINE
  8
0
 10
32.1869
 20
147.554
 11
32.427
 21
147.263
  0
LINE
  8
0
 10
32.427
 20
147.263
 11
32.6289
 21
146.945
  0
LINE
  8
0
 10
32.6289
 20
146.945
 11
32.7893
 21
146.604
  0
LINE
  8
0
 10
32.7893
 20
146.604
 11
32.9057
 21
146.246
  0
LINE
  8
0
 10
32.9057
 20
146.246
 11
32.9763
 21
145.876
  0
LINE
  8
0
 10
32.9763
 20
145.876
 11
33
 21
145.5
  0
LINE
  8
0
 10
33
 20
145.5
 11
32.9763
 21
145.124
  0
LINE
  8
0
 10
32.9763
 20
145.124
 11
32.9057
 21
144.754
  0
LINE
  8
0
 10
32.9057
 20
144.754
 11
32.7893
 21
144.396
  0
LINE
  8
0
 10
32.7893
 20
144.396
 11
32.6289
 21
144.055
  0
LINE
  8
0
 10
32.6289
 20
144.055
 11
32.427
 21
143.737
  0
LINE
  8
0
 10
32.427
 20
143.737
 11
32.1869
 21
143.446
  0
LINE
  8
0
 10
32.1869
 20
143.446
 11
31.9123
 21
143.188
  0
LINE
  8
0
 10
31.9123
 20
143.188
 11
31.6075
 21
142.967
  0
LINE
  8
0
 10
31.6075
 20
142.967
 11
31.2773
 21
142.786
  0
LINE
  8
0
 10
31.2773
 20
142.786
 11
30.927
 21
142.647
  0
LINE
  8
0
 10
30.927
 20
142.647
 11
30.5621
 21
142.553
  0
LINE
  8
0
 10
30.5621
 20
142.553
 11
30.1884
 21
142.506
  0
LINE
  8
0
 10
30.1884
 20
142.506
 11
29.8116
 21
142.506
  0
LINE
  8
0
 10
14.8116
 20
142.506
 11
14.4379
 21
142.553
  0
LINE
  8
0
 10
14.4379
 20
142.553
 11
14.0729
 21
142.647
  0
LINE
  8
0
 10
14.0729
 20
142.647
 11
13.7227
 21
142.786
  0
LINE
  8
0
 10
13.7227
 20
142.786
 11
13.3925
 21
142.967
  0
LINE
  8
0
 10
13.3925
 20
142.967
 11
13.0877
 21
143.188
  0
LINE
  8
0
 10
13.0877
 20
143.188
 11
12.8131
 21
143.446
  0
LINE
  8
0
 10
12.8131
 20
143.446
 11
12.5729
 21
143.737
  0
LINE
  8
0
 10
12.5729
 20
143.737
 11
12.3711
 21
144.055
  0
LINE
  8
0
 10
12.3711
 20
144.055
 11
12.2107
 21
144.396
  0
LINE
  8
0
 10
12.2107
 20
144.396
 11
12.0942
 21
144.754
  0
LINE
  8
0
 10
12.0942
 20
144.754
 11
12.0237
 21
145.124
  0
LINE
  8
0
 10
12.0237
 20
145.124
 11
12
 21
145.5
  0
LINE
  8
0
 10
12
 20
145.5
 11
12.0237
 21
145.876
  0
LINE
  8
0
 10
12.0237
 20
145.876
 11
12.0942
 21
146.246
  0
LINE
  8
0
 10
12.0942
 20
146.246
 11
12.2107
 21
146.604
  0
LINE
  8
0
 10
12.2107
 20
146.604
 11
12.3711
 21
146.945
  0
LINE
  8
0
 10
12.3711
 20
146.945
 11
12.5729
 21
147.263
  0
LINE
  8
0
 10
12.5729
 20
147.263
 11
12.8131
 21
147.554
  0
LINE
  8
0
 10
12.8131
 20
147.554
 11
13.0877
 21
147.812
  0
LINE
  8
0
 10
13.0877
 20
147.812
 11
13.3925
 21
148.033
  0
LINE
  8
0
 10
13.3925
 20
148.033
 11
13.7227
 21
148.214
  0
LINE
  8
0
 10
13.7227
 20
148.214
 11
14.0729
 21
148.353
  0
LINE
  8
0
 10
14.0729
 20
148.353
 11
14.4379
 21
148.447
  0
LINE
  8
0
 10
14.4379
 20
148.447
 11
14.8116
 21
148.494
  0
LINE
  8
0
 10
14.8116
 20
148.494
 11
15.1884
 21
148.494
  0
LINE
  8
0
 10
15.1884
 20
148.494
 11
15.5621
 21
148.447
  0
LINE
  8
0
 10
15.5621
 20
148.447
 11
15.927
 21
148.353
  0
LINE
  8
0
 10
15.927
 20
148.353
 11
16.2773
 21
148.214
  0
LINE
  8
0
 10
16.2773
 20
148.214
 11
16.6075
 21
148.033
  0
LINE
  8
0
 10
16.6075
 20
148.033
 11
16.9123
 21
147.812
  0
LINE
  8
0
 10
16.9123
 20
147.812
 11
17.1869
 21
147.554
  0
LINE
  8
0
 10
17.1869
 20
147.554
 11
17.427
 21
147.263
  0
LINE
  8
0
 10
17.427
 20
147.263
 11
17.6289
 21
146.945
  0
LINE
  8
0
 10
17.6289
 20
146.945
 11
17.7893
 21
146.604
  0
LINE
  8
0
 10
17.7893
 20
146.604
 11
17.9057
 21
146.246
  0
LINE
  8
0
 10
17.9057
 20
146.246
 11
17.9763
 21
145.876
  0
LINE
  8
0
 10
17.9763
 20
145.876
 11
18
 21
145.5
  0
LINE
  8
0
 10
18
 20
145.5
 11
17.9763
 21
145.124
  0
LINE
  8
0
 10
17.9763
 20
145.124
 11
17.9057
 21
144.754
  0
LINE
  8
0
 10
17.9057
 20
144.754
 11
17.7893
 21
144.396
  0
LINE
  8
0
 10
17.7893
 20
144.396
 11
17.6289
 21
144.055
  0
LINE
  8
0
 10
17.6289
 20
144.055
 11
17.427
 21
143.737
  0
LINE
  8
0
 10
17.427
 20
143.737
 11
17.1869
 21
143.446
  0
LINE
  8
0
 10
17.1869
 20
143.446
 11
16.9123
 21
143.188
  0
LINE
  8
0
 10
16.9123
 20
143.188
 11
16.6075
 21
142.967
  0
LINE
  8
0
 10
16.6075
 20
142.967
 11
16.2773
 21
142.786
  0
LINE
  8
0
 10
16.2773
 20
142.786
 11
15.927
 21
142.647
  0
LINE
  8
0
 10
15.927
 20
142.647
 11
15.5621
 21
142.553
  0
LINE
  8
0
 10
15.5621
 20
142.553
 11
15.1884
 21
142.506
  0
LINE
  8
0
 10
15.1884
 20
142.506
 11
14.8116
 21
142.506
  0
LINE
  8
0
 10
-15.1884
 20
142.506
 11
-15.5621
 21
142.553
  0
LINE
  8
0
 10
-15.5621
 20
142.553
 11
-15.927
 21
142.647
  0
LINE
  8
0
 10
-15.927
 20
142.647
 11
-16.2773
 21
142.786
  0
LINE
  8
0
 10
-16.2773
 20
142.786
 11
-16.6075
 21
142.967
  0
LINE
  8
0
 10
-16.6075
 20
142.967
 11
-16.9123
 21
143.188
  0
LINE
  8
0
 10
-16.9123
 20
143.188
 11
-17.1869
 21
143.446
  0
LINE
  8
0
 10
-17.1869
 20
143.446
 11
-17.427
 21
143.737
  0
LINE
  8
0
 10
-17.427
 20
143.737
 11
-17.6289
 21
144.055
  0
LINE
  8
0
 10
-17.6289
 20
144.055
 11
-17.7893
 21
144.396
  0
LINE
  8
0
 10
-17.7893
 20
144.396
 11
-17.9057
 21
144.754
  0
LINE
  8
0
 10
-17.9057
 20
144.754
 11
-17.9763
 21
145.124
  0
LINE
  8
0
 10
-17.9763
 20
145.124
 11
-18
 21
145.5
  0
LINE
  8
0
 10
-18
 20
145.5
 11
-17.9763
 21
145.876
  0
LINE
  8
0
 10
-17.9763
 20
145.876
 11
-17.9057
 21
146.246
  0
LINE
  8
0
 10
-17.9057
 20
146.246
 11
-17.7893
 21
146.604
  0
LINE
  8
0
 10
-17.7893
 20
146.604
 11
-17.6289
 21
146.945
  0
LINE
  8
0
 10
-17.6289
 20
146.945
 11
-17.427
 21
147.263
  0
LINE
  8
0
 10
-17.427
 20
147.263
 11
-17.1869
 21
147.554
  0
LINE
  8
0
 10
-17.1869
 20
147.554
 11
-16.9123
 21
147.812
  0
LINE
  8
0
 10
-16.9123
 20
147.812
 11
-16.6075
 21
148.033
  0
LINE
  8
0
 10
-16.6075
 20
148.033
 11
-16.2773
 21
148.214
  0
LINE
  8
0
 10
-16.2773
 20
148.214
 11
-15.927
 21
148.353
  0
LINE
  8
0
 10
-15.927
 20
148.353
 11
-15.5621
 21
148.447
  0
LINE
  8
0
 10
-15.5621
 20
148.447
 11
-15.1884
 21
148.494
  0
LINE
  8
0
 10
-15.1884
 20
148.494
 11
-14.8116
 21
148.494
  0
LINE
  8
0
 10
-14.8116
 20
148.494
 11
-14.4379
 21
148.447
  0
LINE
  8
0
 10
-14.4379
 20
148.447
 11
-14.0729
 21
148.353
  0
LINE
  8
0
 10
-14.0729
 20
148.353
 11
-13.7227
 21
148.214
  0
LINE
  8
0
 10
-13.7227
 20
148.214
 11
-13.3925
 21
148.033
  0
LINE
  8
0
 10
-13.3925
 20
148.033
 11
-13.0877
 21
147.812
  0
LINE
  8
0
 10
-13.0877
 20
147.812
 11
-12.8131
 21
147.554
  0
LINE
  8
0
 10
-12.8131
 20
147.554
 11
-12.5729
 21
147.263
  0
LINE
  8
0
 10
-12.5729
 20
147.263
 11
-12.3711
 21
146.945
  0
LINE
  8
0
 10
-12.3711
 20
146.945
 11
-12.2107
 21
146.604
  0
LINE
  8
0
 10
-12.2107
 20
146.604
 11
-12.0942
 21
146.246
  0
LINE
  8
0
 10
-12.0942
 20
146.246
 11
-12.0237
 21
145.876
  0
LINE
  8
0
 10
-12.0237
 20
145.876
 11
-12
 21
145.5
  0
LINE
  8
0
 10
-12
 20
145.5
 11
-12.0237
 21
145.124
  0
LINE
  8
0
 10
-12.0237
 20
145.124
 11
-12.0942
 21
144.754
  0
LINE
  8
0
 10
-12.0942
 20
144.754
 11
-12.2107
 21
144.396
  0
LINE
  8
0
 10
-12.2107
 20
144.396
 11
-12.3711
 21
144.055
  0
LINE
  8
0
 10
-12.3711
 20
144.055
 11
-12.5729
 21
143.737
  0
LINE
  8
0
 10
-12.5729
 20
143.737
 11
-12.8131
 21
143.446
  0
LINE
  8
0
 10
-12.8131
 20
143.446
 11
-13.0877
 21
143.188
  0
LINE
  8
0
 10
-13.0877
 20
143.188
 11
-13.3925
 21
142.967
  0
LINE
  8
0
 10
-13.3925
 20
142.967
 11
-13.7227
 21
142.786
  0
LINE
  8
0
 10
-13.7227
 20
142.786
 11
-14.0729
 21
142.647
  0
LINE
  8
0
 10
-14.0729
 20
142.647
 11
-14.4379
 21
142.553
  0
LINE
  8
0
 10
-14.4379
 20
142.553
 11
-14.8116
 21
142.506
  0
LINE
  8
0
 10
-14.8116
 20
142.506
 11
-15.1884
 21
142.506
  0
LINE
  8
0
 10
-30.1884
 20
142.506
 11
-30.5621
 21
142.553
  0
LINE
  8
0
 10
-30.5621
 20
142.553
 11
-30.927
 21
142.647
  0
LINE
  8
0
 10
-30.927
 20
142.647
 11
-31.2773
 21
142.786
  0
LINE
  8
0
 10
-31.2773
 20
142.786
 11
-31.6075
 21
142.967
  0
LINE
  8
0
 10
-31.6075
 20
142.967
 11
-31.9123
 21
143.188
  0
LINE
  8
0
 10
-31.9123
 20
143.188
 11
-32.1869
 21
143.446
  0
LINE
  8
0
 10
-32.1869
 20
143.446
 11
-32.427
 21
143.737
  0
LINE
  8
0
 10
-32.427
 20
143.737
 11
-32.6289
 21
144.055
  0
LINE
  8
0
 10
-32.6289
 20
144.055
 11
-32.7893
 21
144.396
  0
LINE
  8
0
 10
-32.7893
 20
144.396
 11
-32.9057
 21
144.754
  0
LINE
  8
0
 10
-32.9057
 20
144.754
 11
-32.9763
 21
145.124
  0
LINE
  8
0
 10
-32.9763
 20
145.124
 11
-33
 21
145.5
  0
LINE
  8
0
 10
-33
 20
145.5
 11
-32.9763
 21
145.876
  0
LINE
  8
0
 10
-32.9763
 20
145.876
 11
-32.9057
 21
146.246
  0
LINE
  8
0
 10
-32.9057
 20
146.246
 11
-32.7893
 21
146.604
  0
LINE
  8
0
 10
-32.7893
 20
146.604
 11
-32.6289
 21
146.945
  0
LINE
  8
0
 10
-32.6289
 20
146.945
 11
-32.427
 21
147.263
  0
LINE
  8
0
 10
-32.427
 20
147.263
 11
-32.1869
 21
147.554
  0
LINE
  8
0
 10
-32.1869
 20
147.554
 11
-31.9123
 21
147.812
  0
LINE
  8
0
 10
-31.9123
 20
147.812
 11
-31.6075
 21
148.033
  0
LINE
  8
0
 10
-31.6075
 20
148.033
 11
-31.2773
 21
148.214
  0
LINE
  8
0
 10
-31.2773
 20
148.214
 11
-30.927
 21
148.353
  0
LINE
  8
0
 10
-30.927
 20
148.353
 11
-30.5621
 21
148.447
  0
LINE
  8
0
 10
-30.5621
 20
148.447
 11
-30.1884
 21
148.494
  0
LINE
  8
0
 10
-30.1884
 20
148.494
 11
-29.8116
 21
148.494
  0
LINE
  8
0
 10
-29.8116
 20
148.494
 11
-29.4379
 21
148.447
  0
LINE
  8
0
 10
-29.4379
 20
148.447
 11
-29.0729
 21
148.353
  0
LINE
  8
0
 10
-29.0729
 20
148.353
 11
-28.7227
 21
148.214
  0
LINE
  8
0
 10
-28.7227
 20
148.214
 11
-28.3925
 21
148.033
  0
LINE
  8
0
 10
-28.3925
 20
148.033
 11
-28.0877
 21
147.812
  0
LINE
  8
0
 10
-28.0877
 20
147.812
 11
-27.8131
 21
147.554
  0
LINE
  8
0
 10
-27.8131
 20
147.554
 11
-27.5729
 21
147.263
  0
LINE
  8
0
 10
-27.5729
 20
147.263
 11
-27.3711
 21
146.945
  0
LINE
  8
0
 10
-27.3711
 20
146.945
 11
-27.2107
 21
146.604
  0
LINE
  8
0
 10
-27.2107
 20
146.604
 11
-27.0942
 21
146.246
  0
LINE
  8
0
 10
-27.0942
 20
146.246
 11
-27.0237
 21
145.876
  0
LINE
  8
0
 10
-27.0237
 20
145.876
 11
-27
 21
145.5
  0
LINE
  8
0
 10
-27
 20
145.5
 11
-27.0237
 21
145.124
  0
LINE
  8
0
 10
-27.0237
 20
145.124
 11
-27.0942
 21
144.754
  0
LINE
  8
0
 10
-27.0942
 20
144.754
 11
-27.2107
 21
144.396
  0
LINE
  8
0
 10
-27.2107
 20
144.396
 11
-27.3711
 21
144.055
  0
LINE
  8
0
 10
-27.3711
 20
144.055
 11
-27.5729
 21
143.737
  0
LINE
  8
0
 10
-27.5729
 20
143.737
 11
-27.8131
 21
143.446
  0
LINE
  8
0
 10
-27.8131
 20
143.446
 11
-28.0877
 21
143.188
  0
LINE
  8
0
 10
-28.0877
 20
143.188
 11
-28.3925
 21
142.967
  0
LINE
  8
0
 10
-28.3925
 20
142.967
 11
-28.7227
 21
142.786
  0
LINE
  8
0
 10
-28.7227
 20
142.786
 11
-29.0729
 21
142.647
  0
LINE
  8
0
 10
-29.0729
 20
142.647
 11
-29.4379
 21
142.553
  0
LINE
  8
0
 10
-29.4379
 20
142.553
 11
-29.8116
 21
142.506
  0
LINE
  8
0
 10
-29.8116
 20
142.506
 11
-30.1884
 21
142.506
  0
LINE
  8
0
 10
-0.18837
 20
142.506
 11
-0.562134
 21
142.553
  0
LINE
  8
0
 10
-0.562134
 20
142.553
 11
-0.927048
 21
142.647
  0
LINE
  8
0
 10
-0.927048
 20
142.647
 11
-1.27733
 21
142.786
  0
LINE
  8
0
 10
-1.27733
 20
142.786
 11
-1.60747
 21
142.967
  0
LINE
  8
0
 10
-1.60747
 20
142.967
 11
-1.91226
 21
143.188
  0
LINE
  8
0
 10
-1.91226
 20
143.188
 11
-2.1869
 21
143.446
  0
LINE
  8
0
 10
-2.1869
 20
143.446
 11
-2.42705
 21
143.737
  0
LINE
  8
0
 10
-2.42705
 20
143.737
 11
-2.62891
 21
144.055
  0
LINE
  8
0
 10
-2.62891
 20
144.055
 11
-2.78932
 21
144.396
  0
LINE
  8
0
 10
-2.78932
 20
144.396
 11
-2.90575
 21
144.754
  0
LINE
  8
0
 10
-2.90575
 20
144.754
 11
-2.97633
 21
145.124
  0
LINE
  8
0
 10
-2.97633
 20
145.124
 11
-3
 21
145.5
  0
LINE
  8
0
 10
-3
 20
145.5
 11
-2.97633
 21
145.876
  0
LINE
  8
0
 10
-2.97633
 20
145.876
 11
-2.90575
 21
146.246
  0
LINE
  8
0
 10
-2.90575
 20
146.246
 11
-2.78932
 21
146.604
  0
LINE
  8
0
 10
-2.78932
 20
146.604
 11
-2.62891
 21
146.945
  0
LINE
  8
0
 10
-2.62891
 20
146.945
 11
-2.42705
 21
147.263
  0
LINE
  8
0
 10
-2.42705
 20
147.263
 11
-2.1869
 21
147.554
  0
LINE
  8
0
 10
-2.1869
 20
147.554
 11
-1.91226
 21
147.812
  0
LINE
  8
0
 10
-1.91226
 20
147.812
 11
-1.60747
 21
148.033
  0
LINE
  8
0
 10
-1.60747
 20
148.033
 11
-1.27733
 21
148.214
  0
LINE
  8
0
 10
-1.27733
 20
148.214
 11
-0.927048
 21
148.353
  0
LINE
  8
0
 10
-0.927048
 20
148.353
 11
-0.562134
 21
148.447
  0
LINE
  8
0
 10
-0.562134
 20
148.447
 11
-0.18837
 21
148.494
  0
LINE
  8
0
 10
-0.18837
 20
148.494
 11
0.18837
 21
148.494
  0
LINE
  8
0
 10
0.18837
 20
148.494
 11
0.562134
 21
148.447
  0
LINE
  8
0
 10
0.562134
 20
148.447
 11
0.927048
 21
148.353
  0
LINE
  8
0
 10
0.927048
 20
148.353
 11
1.27733
 21
148.214
  0
LINE
  8
0
 10
1.27733
 20
148.214
 11
1.60747
 21
148.033
  0
LINE
  8
0
 10
1.60747
 20
148.033
 11
1.91226
 21
147.812
  0
LINE
  8
0
 10
1.91226
 20
147.812
 11
2.1869
 21
147.554
  0
LINE
  8
0
 10
2.1869
 20
147.554
 11
2.42705
 21
147.263
  0
LINE
  8
0
 10
2.42705
 20
147.263
 11
2.62891
 21
146.945
  0
LINE
  8
0
 10
2.62891
 20
146.945
 11
2.78932
 21
146.604
  0
LINE
  8
0
 10
2.78932
 20
146.604
 11
2.90575
 21
146.246
  0
LINE
  8
0
 10
2.90575
 20
146.246
 11
2.97633
 21
145.876
  0
LINE
  8
0
 10
2.97633
 20
145.876
 11
3
 21
145.5
  0
LINE
  8
0
 10
3
 20
145.5
 11
2.97633
 21
145.124
  0
LINE
  8
0
 10
2.97633
 20
145.124
 11
2.90575
 21
144.754
  0
LINE
  8
0
 10
2.90575
 20
144.754
 11
2.78932
 21
144.396
  0
LINE
  8
0
 10
2.78932
 20
144.396
 11
2.62891
 21
144.055
  0
LINE
  8
0
 10
2.62891
 20
144.055
 11
2.42705
 21
143.737
  0
LINE
  8
0
 10
2.42705
 20
143.737
 11
2.1869
 21
143.446
  0
LINE
  8
0
 10
2.1869
 20
143.446
 11
1.91226
 21
143.188
  0
LINE
  8
0
 10
1.91226
 20
143.188
 11
1.60747
 21
142.967
  0
LINE
  8
0
 10
1.60747
 20
142.967
 11
1.27733
 21
142.786
  0
LINE
  8
0
 10
1.27733
 20
142.786
 11
0.927048
 21
142.647
  0
LINE
  8
0
 10
0.927048
 20
142.647
 11
0.562134
 21
142.553
  0
LINE
  8
0
 10
0.562134
 20
142.553
 11
0.18837
 21
142.506
  0
LINE
  8
0
 10
0.18837
 20
142.506
 11
-0.18837
 21
142.506
  0
LINE
  8
0
 10
-10.2483
 20
128.913
 11
-10.2483
 21
132.087
  0
LINE
  8
0
 10
-10.2483
 20
132.087
 11
-7.49998
 21
133.673
  0
LINE
  8
0
 10
-7.49998
 20
133.673
 11
-4.75166
 21
132.087
  0
LINE
  8
0
 10
-4.75166
 20
132.087
 11
-4.75166
 21
128.913
  0
LINE
  8
0
 10
-4.75166
 20
128.913
 11
-7.5
 21
127.327
  0
LINE
  8
0
 10
-7.5
 20
127.327
 11
-10.2483
 21
128.913
  0
LINE
  8
0
 10
14.8116
 20
127.506
 11
14.4379
 21
127.553
  0
LINE
  8
0
 10
14.4379
 20
127.553
 11
14.0729
 21
127.647
  0
LINE
  8
0
 10
14.0729
 20
127.647
 11
13.7227
 21
127.786
  0
LINE
  8
0
 10
13.7227
 20
127.786
 11
13.3925
 21
127.967
  0
LINE
  8
0
 10
13.3925
 20
127.967
 11
13.0877
 21
128.188
  0
LINE
  8
0
 10
13.0877
 20
128.188
 11
12.8131
 21
128.446
  0
LINE
  8
0
 10
12.8131
 20
128.446
 11
12.5729
 21
128.737
  0
LINE
  8
0
 10
12.5729
 20
128.737
 11
12.3711
 21
129.055
  0
LINE
  8
0
 10
12.3711
 20
129.055
 11
12.2107
 21
129.396
  0
LINE
  8
0
 10
12.2107
 20
129.396
 11
12.0942
 21
129.754
  0
LINE
  8
0
 10
12.0942
 20
129.754
 11
12.0237
 21
130.124
  0
LINE
  8
0
 10
12.0237
 20
130.124
 11
12
 21
130.5
  0
LINE
  8
0
 10
12
 20
130.5
 11
12.0237
 21
130.876
  0
LINE
  8
0
 10
12.0237
 20
130.876
 11
12.0942
 21
131.246
  0
LINE
  8
0
 10
12.0942
 20
131.246
 11
12.2107
 21
131.604
  0
LINE
  8
0
 10
12.2107
 20
131.604
 11
12.3711
 21
131.945
  0
LINE
  8
0
 10
12.3711
 20
131.945
 11
12.5729
 21
132.263
  0
LINE
  8
0
 10
12.5729
 20
132.263
 11
12.8131
 21
132.554
  0
LINE
  8
0
 10
12.8131
 20
132.554
 11
13.0877
 21
132.812
  0
LINE
  8
0
 10
13.0877
 20
132.812
 11
13.3925
 21
133.033
  0
LINE
  8
0
 10
13.3925
 20
133.033
 11
13.7227
 21
133.214
  0
LINE
  8
0
 10
13.7227
 20
133.214
 11
14.0729
 21
133.353
  0
LINE
  8
0
 10
14.0729
 20
133.353
 11
14.4379
 21
133.447
  0
LINE
  8
0
 10
14.4379
 20
133.447
 11
14.8116
 21
133.494
  0
LINE
  8
0
 10
14.8116
 20
133.494
 11
15.1884
 21
133.494
  0
LINE
  8
0
 10
15.1884
 20
133.494
 11
15.5621
 21
133.447
  0
LINE
  8
0
 10
15.5621
 20
133.447
 11
15.927
 21
133.353
  0
LINE
  8
0
 10
15.927
 20
133.353
 11
16.2773
 21
133.214
  0
LINE
  8
0
 10
16.2773
 20
133.214
 11
16.6075
 21
133.033
  0
LINE
  8
0
 10
16.6075
 20
133.033
 11
16.9123
 21
132.812
  0
LINE
  8
0
 10
16.9123
 20
132.812
 11
17.1869
 21
132.554
  0
LINE
  8
0
 10
17.1869
 20
132.554
 11
17.427
 21
132.263
  0
LINE
  8
0
 10
17.427
 20
132.263
 11
17.6289
 21
131.945
  0
LINE
  8
0
 10
17.6289
 20
131.945
 11
17.7893
 21
131.604
  0
LINE
  8
0
 10
17.7893
 20
131.604
 11
17.9057
 21
131.246
  0
LINE
  8
0
 10
17.9057
 20
131.246
 11
17.9763
 21
130.876
  0
LINE
  8
0
 10
17.9763
 20
130.876
 11
18
 21
130.5
  0
LINE
  8
0
 10
18
 20
130.5
 11
17.9763
 21
130.124
  0
LINE
  8
0
 10
17.9763
 20
130.124
 11
17.9057
 21
129.754
  0
LINE
  8
0
 10
17.9057
 20
129.754
 11
17.7893
 21
129.396
  0
LINE
  8
0
 10
17.7893
 20
129.396
 11
17.6289
 21
129.055
  0
LINE
  8
0
 10
17.6289
 20
129.055
 11
17.427
 21
128.737
  0
LINE
  8
0
 10
17.427
 20
128.737
 11
17.1869
 21
128.446
  0
LINE
  8
0
 10
17.1869
 20
128.446
 11
16.9123
 21
128.188
  0
LINE
  8
0
 10
16.9123
 20
128.188
 11
16.6075
 21
127.967
  0
LINE
  8
0
 10
16.6075
 20
127.967
 11
16.2773
 21
127.786
  0
LINE
  8
0
 10
16.2773
 20
127.786
 11
15.927
 21
127.647
  0
LINE
  8
0
 10
15.927
 20
127.647
 11
15.5621
 21
127.553
  0
LINE
  8
0
 10
15.5621
 20
127.553
 11
15.1884
 21
127.506
  0
LINE
  8
0
 10
15.1884
 20
127.506
 11
14.8116
 21
127.506
  0
LINE
  8
0
 10
29.8116
 20
127.506
 11
29.4379
 21
127.553
  0
LINE
  8
0
 10
29.4379
 20
127.553
 11
29.0729
 21
127.647
  0
LINE
  8
0
 10
29.0729
 20
127.647
 11
28.7227
 21
127.786
  0
LINE
  8
0
 10
28.7227
 20
127.786
 11
28.3925
 21
127.967
  0
LINE
  8
0
 10
28.3925
 20
127.967
 11
28.0877
 21
128.188
  0
LINE
  8
0
 10
28.0877
 20
128.188
 11
27.8131
 21
128.446
  0
LINE
  8
0
 10
27.8131
 20
128.446
 11
27.5729
 21
128.737
  0
LINE
  8
0
 10
27.5729
 20
128.737
 11
27.3711
 21
129.055
  0
LINE
  8
0
 10
27.3711
 20
129.055
 11
27.2107
 21
129.396
  0
LINE
  8
0
 10
27.2107
 20
129.396
 11
27.0942
 21
129.754
  0
LINE
  8
0
 10
27.0942
 20
129.754
 11
27.0237
 21
130.124
  0
LINE
  8
0
 10
27.0237
 20
130.124
 11
27
 21
130.5
  0
LINE
  8
0
 10
27
 20
130.5
 11
27.0237
 21
130.876
  0
LINE
  8
0
 10
27.0237
 20
130.876
 11
27.0942
 21
131.246
  0
LINE
  8
0
 10
27.0942
 20
131.246
 11
27.2107
 21
131.604
  0
LINE
  8
0
 10
27.2107
 20
131.604
 11
27.3711
 21
131.945
  0
LINE
  8
0
 10
27.3711
 20
131.945
 11
27.5729
 21
132.263
  0
LINE
  8
0
 10
27.5729
 20
132.263
 11
27.8131
 21
132.554
  0
LINE
  8
0
 10
27.8131
 20
132.554
 11
28.0877
 21
132.812
  0
LINE
  8
0
 10
28.0877
 20
132.812
 11
28.3925
 21
133.033
  0
LINE
  8
0
 10
28.3925
 20
133.033
 11
28.7227
 21
133.214
  0
LINE
  8
0
 10
28.7227
 20
133.214
 11
29.0729
 21
133.353
  0
LINE
  8
0
 10
29.0729
 20
133.353
 11
29.4379
 21
133.447
  0
LINE
  8
0
 10
29.4379
 20
133.447
 11
29.8116
 21
133.494
  0
LINE
  8
0
 10
29.8116
 20
133.494
 11
30.1884
 21
133.494
  0
LINE
  8
0
 10
30.1884
 20
133.494
 11
30.5621
 21
133.447
  0
LINE
  8
0
 10
30.5621
 20
133.447
 11
30.927
 21
133.353
  0
LINE
  8
0
 10
30.927
 20
133.353
 11
31.2773
 21
133.214
  0
LINE
  8
0
 10
31.2773
 20
133.214
 11
31.6075
 21
133.033
  0
LINE
  8
0
 10
31.6075
 20
133.033
 11
31.9123
 21
132.812
  0
LINE
  8
0
 10
31.9123
 20
132.812
 11
32.1869
 21
132.554
  0
LINE
  8
0
 10
32.1869
 20
132.554
 11
32.427
 21
132.263
  0
LINE
  8
0
 10
32.427
 20
132.263
 11
32.6289
 21
131.945
  0
LINE
  8
0
 10
32.6289
 20
131.945
 11
32.7893
 21
131.604
  0
LINE
  8
0
 10
32.7893
 20
131.604
 11
32.9057
 21
131.246
  0
LINE
  8
0
 10
32.9057
 20
131.246
 11
32.9763
 21
130.876
  0
LINE
  8
0
 10
32.9763
 20
130.876
 11
33
 21
130.5
  0
LINE
  8
0
 10
33
 20
130.5
 11
32.9763
 21
130.124
  0
LINE
  8
0
 10
32.9763
 20
130.124
 11
32.9057
 21
129.754
  0
LINE
  8
0
 10
32.9057
 20
129.754
 11
32.7893
 21
129.396
  0
LINE
  8
0
 10
32.7893
 20
129.396
 11
32.6289
 21
129.055
  0
LINE
  8
0
 10
32.6289
 20
129.055
 11
32.427
 21
128.737
  0
LINE
  8
0
 10
32.427
 20
128.737
 11
32.1869
 21
128.446
  0
LINE
  8
0
 10
32.1869
 20
128.446
 11
31.9123
 21
128.188
  0
LINE
  8
0
 10
31.9123
 20
128.188
 11
31.6075
 21
127.967
  0
LINE
  8
0
 10
31.6075
 20
127.967
 11
31.2773
 21
127.786
  0
LINE
  8
0
 10
31.2773
 20
127.786
 11
30.927
 21
127.647
  0
LINE
  8
0
 10
30.927
 20
127.647
 11
30.5621
 21
127.553
  0
LINE
  8
0
 10
30.5621
 20
127.553
 11
30.1884
 21
127.506
  0
LINE
  8
0
 10
30.1884
 20
127.506
 11
29.8116
 21
127.506
  0
LINE
  8
0
 10
-15.1884
 20
127.506
 11
-15.5621
 21
127.553
  0
LINE
  8
0
 10
-15.5621
 20
127.553
 11
-15.927
 21
127.647
  0
LINE
  8
0
 10
-15.927
 20
127.647
 11
-16.2773
 21
127.786
  0
LINE
  8
0
 10
-16.2773
 20
127.786
 11
-16.6075
 21
127.967
  0
LINE
  8
0
 10
-16.6075
 20
127.967
 11
-16.9123
 21
128.188
  0
LINE
  8
0
 10
-16.9123
 20
128.188
 11
-17.1869
 21
128.446
  0
LINE
  8
0
 10
-17.1869
 20
128.446
 11
-17.427
 21
128.737
  0
LINE
  8
0
 10
-17.427
 20
128.737
 11
-17.6289
 21
129.055
  0
LINE
  8
0
 10
-17.6289
 20
129.055
 11
-17.7893
 21
129.396
  0
LINE
  8
0
 10
-17.7893
 20
129.396
 11
-17.9057
 21
129.754
  0
LINE
  8
0
 10
-17.9057
 20
129.754
 11
-17.9763
 21
130.124
  0
LINE
  8
0
 10
-17.9763
 20
130.124
 11
-18
 21
130.5
  0
LINE
  8
0
 10
-18
 20
130.5
 11
-17.9763
 21
130.876
  0
LINE
  8
0
 10
-17.9763
 20
130.876
 11
-17.9057
 21
131.246
  0
LINE
  8
0
 10
-17.9057
 20
131.246
 11
-17.7893
 21
131.604
  0
LINE
  8
0
 10
-17.7893
 20
131.604
 11
-17.6289
 21
131.945
  0
LINE
  8
0
 10
-17.6289
 20
131.945
 11
-17.427
 21
132.263
  0
LINE
  8
0
 10
-17.427
 20
132.263
 11
-17.1869
 21
132.554
  0
LINE
  8
0
 10
-17.1869
 20
132.554
 11
-16.9123
 21
132.812
  0
LINE
  8
0
 10
-16.9123
 20
132.812
 11
-16.6075
 21
133.033
  0
LINE
  8
0
 10
-16.6075
 20
133.033
 11
-16.2773
 21
133.214
  0
LINE
  8
0
 10
-16.2773
 20
133.214
 11
-15.927
 21
133.353
  0
LINE
  8
0
 10
-15.927
 20
133.353
 11
-15.5621
 21
133.447
  0
LINE
  8
0
 10
-15.5621
 20
133.447
 11
-15.1884
 21
133.494
  0
LINE
  8
0
 10
-15.1884
 20
133.494
 11
-14.8116
 21
133.494
  0
LINE
  8
0
 10
-14.8116
 20
133.494
 11
-14.4379
 21
133.447
  0
LINE
  8
0
 10
-14.4379
 20
133.447
 11
-14.0729
 21
133.353
  0
LINE
  8
0
 10
-14.0729
 20
133.353
 11
-13.7227
 21
133.214
  0
LINE
  8
0
 10
-13.7227
 20
133.214
 11
-13.3925
 21
133.033
  0
LINE
  8
0
 10
-13.3925
 20
133.033
 11
-13.0877
 21
132.812
  0
LINE
  8
0
 10
-13.0877
 20
132.812
 11
-12.8131
 21
132.554
  0
LINE
  8
0
 10
-12.8131
 20
132.554
 11
-12.5729
 21
132.263
  0
LINE
  8
0
 10
-12.5729
 20
132.263
 11
-12.3711
 21
131.945
  0
LINE
  8
0
 10
-12.3711
 20
131.945
 11
-12.2107
 21
131.604
  0
LINE
  8
0
 10
-12.2107
 20
131.604
 11
-12.0942
 21
131.246
  0
LINE
  8
0
 10
-12.0942
 20
131.246
 11
-12.0237
 21
130.876
  0
LINE
  8
0
 10
-12.0237
 20
130.876
 11
-12
 21
130.5
  0
LINE
  8
0
 10
-12
 20
130.5
 11
-12.0237
 21
130.124
  0
LINE
  8
0
 10
-12.0237
 20
130.124
 11
-12.0942
 21
129.754
  0
LINE
  8
0
 10
-12.0942
 20
129.754
 11
-12.2107
 21
129.396
  0
LINE
  8
0
 10
-12.2107
 20
129.396
 11
-12.3711
 21
129.055
  0
LINE
  8
0
 10
-12.3711
 20
129.055
 11
-12.5729
 21
128.737
  0
LINE
  8
0
 10
-12.5729
 20
128.737
 11
-12.8131
 21
128.446
  0
LINE
  8
0
 10
-12.8131
 20
128.446
 11
-13.0877
 21
128.188
  0
LINE
  8
0
 10
-13.0877
 20
128.188
 11
-13.3925
 21
127.967
  0
LINE
  8
0
 10
-13.3925
 20
127.967
 11
-13.7227
 21
127.786
  0
LINE
  8
0
 10
-13.7227
 20
127.786
 11
-14.0729
 21
127.647
  0
LINE
  8
0
 10
-14.0729
 20
127.647
 11
-14.4379
 21
127.553
  0
LINE
  8
0
 10
-14.4379
 20
127.553
 11
-14.8116
 21
127.506
  0
LINE
  8
0
 10
-14.8116
 20
127.506
 11
-15.1884
 21
127.506
  0
LINE
  8
0
 10
-30.1884
 20
127.506
 11
-30.5621
 21
127.553
  0
LINE
  8
0
 10
-30.5621
 20
127.553
 11
-30.927
 21
127.647
  0
LINE
  8
0
 10
-30.927
 20
127.647
 11
-31.2773
 21
127.786
  0
LINE
  8
0
 10
-31.2773
 20
127.786
 11
-31.6075
 21
127.967
  0
LINE
  8
0
 10
-31.6075
 20
127.967
 11
-31.9123
 21
128.188
  0
LINE
  8
0
 10
-31.9123
 20
128.188
 11
-32.1869
 21
128.446
  0
LINE
  8
0
 10
-32.1869
 20
128.446
 11
-32.427
 21
128.737
  0
LINE
  8
0
 10
-32.427
 20
128.737
 11
-32.6289
 21
129.055
  0
LINE
  8
0
 10
-32.6289
 20
129.055
 11
-32.7893
 21
129.396
  0
LINE
  8
0
 10
-32.7893
 20
129.396
 11
-32.9057
 21
129.754
  0
LINE
  8
0
 10
-32.9057
 20
129.754
 11
-32.9763
 21
130.124
  0
LINE
  8
0
 10
-32.9763
 20
130.124
 11
-33
 21
130.5
  0
LINE
  8
0
 10
-33
 20
130.5
 11
-32.9763
 21
130.876
  0
LINE
  8
0
 10
-32.9763
 20
130.876
 11
-32.9057
 21
131.246
  0
LINE
  8
0
 10
-32.9057
 20
131.246
 11
-32.7893
 21
131.604
  0
LINE
  8
0
 10
-32.7893
 20
131.604
 11
-32.6289
 21
131.945
  0
LINE
  8
0
 10
-32.6289
 20
131.945
 11
-32.427
 21
132.263
  0
LINE
  8
0
 10
-32.427
 20
132.263
 11
-32.1869
 21
132.554
  0
LINE
  8
0
 10
-32.1869
 20
132.554
 11
-31.9123
 21
132.812
  0
LINE
  8
0
 10
-31.9123
 20
132.812
 11
-31.6075
 21
133.033
  0
LINE
  8
0
 10
-31.6075
 20
133.033
 11
-31.2773
 21
133.214
  0
LINE
  8
0
 10
-31.2773
 20
133.214
 11
-30.927
 21
133.353
  0
LINE
  8
0
 10
-30.927
 20
133.353
 11
-30.5621
 21
133.447
  0
LINE
  8
0
 10
-30.5621
 20
133.447
 11
-30.1884
 21
133.494
  0
LINE
  8
0
 10
-30.1884
 20
133.494
 11
-29.8116
 21
133.494
  0
LINE
  8
0
 10
-29.8116
 20
133.494
 11
-29.4379
 21
133.447
  0
LINE
  8
0
 10
-29.4379
 20
133.447
 11
-29.0729
 21
133.353
  0
LINE
  8
0
 10
-29.0729
 20
133.353
 11
-28.7227
 21
133.214
  0
LINE
  8
0
 10
-28.7227
 20
133.214
 11
-28.3925
 21
133.033
  0
LINE
  8
0
 10
-28.3925
 20
133.033
 11
-28.0877
 21
132.812
  0
LINE
  8
0
 10
-28.0877
 20
132.812
 11
-27.8131
 21
132.554
  0
LINE
  8
0
 10
-27.8131
 20
132.554
 11
-27.5729
 21
132.263
  0
LINE
  8
0
 10
-27.5729
 20
132.263
 11
-27.3711
 21
131.945
  0
LINE
  8
0
 10
-27.3711
 20
131.945
 11
-27.2107
 21
131.604
  0
LINE
  8
0
 10
-27.2107
 20
131.604
 11
-27.0942
 21
131.246
  0
LINE
  8
0
 10
-27.0942
 20
131.246
 11
-27.0237
 21
130.876
  0
LINE
  8
0
 10
-27.0237
 20
130.876
 11
-27
 21
130.5
  0
LINE
  8
0
 10
-27
 20
130.5
 11
-27.0237
 21
130.124
  0
LINE
  8
0
 10
-27.0237
 20
130.124
 11
-27.0942
 21
129.754
  0
LINE
  8
0
 10
-27.0942
 20
129.754
 11
-27.2107
 21
129.396
  0
LINE
  8
0
 10
-27.2107
 20
129.396
 11
-27.3711
 21
129.055
  0
LINE
  8
0
 10
-27.3711
 20
129.055
 11
-27.5729
 21
128.737
  0
LINE
  8
0
 10
-27.5729
 20
128.737
 11
-27.8131
 21
128.446
  0
LINE
  8
0
 10
-27.8131
 20
128.446
 11
-28.0877
 21
128.188
  0
LINE
  8
0
 10
-28.0877
 20
128.188
 11
-28.3925
 21
127.967
  0
LINE
  8
0
 10
-28.3925
 20
127.967
 11
-28.7227
 21
127.786
  0
LINE
  8
0
 10
-28.7227
 20
127.786
 11
-29.0729
 21
127.647
  0
LINE
  8
0
 10
-29.0729
 20
127.647
 11
-29.4379
 21
127.553
  0
LINE
  8
0
 10
-29.4379
 20
127.553
 11
-29.8116
 21
127.506
  0
LINE
  8
0
 10
-29.8116
 20
127.506
 11
-30.1884
 21
127.506
  0
LINE
  8
0
 10
-0.18837
 20
127.506
 11
-0.562134
 21
127.553
  0
LINE
  8
0
 10
-0.562134
 20
127.553
 11
-0.927048
 21
127.647
  0
LINE
  8
0
 10
-0.927048
 20
127.647
 11
-1.27733
 21
127.786
  0
LINE
  8
0
 10
-1.27733
 20
127.786
 11
-1.60747
 21
127.967
  0
LINE
  8
0
 10
-1.60747
 20
127.967
 11
-1.91226
 21
128.188
  0
LINE
  8
0
 10
-1.91226
 20
128.188
 11
-2.1869
 21
128.446
  0
LINE
  8
0
 10
-2.1869
 20
128.446
 11
-2.42705
 21
128.737
  0
LINE
  8
0
 10
-2.42705
 20
128.737
 11
-2.62891
 21
129.055
  0
LINE
  8
0
 10
-2.62891
 20
129.055
 11
-2.78932
 21
129.396
  0
LINE
  8
0
 10
-2.78932
 20
129.396
 11
-2.90575
 21
129.754
  0
LINE
  8
0
 10
-2.90575
 20
129.754
 11
-2.97633
 21
130.124
  0
LINE
  8
0
 10
-2.97633
 20
130.124
 11
-3
 21
130.5
  0
LINE
  8
0
 10
-3
 20
130.5
 11
-2.97633
 21
130.876
  0
LINE
  8
0
 10
-2.97633
 20
130.876
 11
-2.90575
 21
131.246
  0
LINE
  8
0
 10
-2.90575
 20
131.246
 11
-2.78932
 21
131.604
  0
LINE
  8
0
 10
-2.78932
 20
131.604
 11
-2.62891
 21
131.945
  0
LINE
  8
0
 10
-2.62891
 20
131.945
 11
-2.42705
 21
132.263
  0
LINE
  8
0
 10
-2.42705
 20
132.263
 11
-2.1869
 21
132.554
  0
LINE
  8
0
 10
-2.1869
 20
132.554
 11
-1.91226
 21
132.812
  0
LINE
  8
0
 10
-1.91226
 20
132.812
 11
-1.60747
 21
133.033
  0
LINE
  8
0
 10
-1.60747
 20
133.033
 11
-1.27733
 21
133.214
  0
LINE
  8
0
 10
-1.27733
 20
133.214
 11
-0.927048
 21
133.353
  0
LINE
  8
0
 10
-0.927048
 20
133.353
 11
-0.562134
 21
133.447
  0
LINE
  8
0
 10
-0.562134
 20
133.447
 11
-0.18837
 21
133.494
  0
LINE
  8
0
 10
-0.18837
 20
133.494
 11
0.18837
 21
133.494
  0
LINE
  8
0
 10
0.18837
 20
133.494
 11
0.562134
 21
133.447
  0
LINE
  8
0
 10
0.562134
 20
133.447
 11
0.927048
 21
133.353
  0
LINE
  8
0
 10
0.927048
 20
133.353
 11
1.27733
 21
133.214
  0
LINE
  8
0
 10
1.27733
 20
133.214
 11
1.60747
 21
133.033
  0
LINE
  8
0
 10
1.60747
 20
133.033
 11
1.91226
 21
132.812
  0
LINE
  8
0
 10
1.91226
 20
132.812
 11
2.1869
 21
132.554
  0
LINE
  8
0
 10
2.1869
 20
132.554
 11
2.42705
 21
132.263
  0
LINE
  8
0
 10
2.42705
 20
132.263
 11
2.62891
 21
131.945
  0
LINE
  8
0
 10
2.62891
 20
131.945
 11
2.78932
 21
131.604
  0
LINE
  8
0
 10
2.78932
 20
131.604
 11
2.90575
 21
131.246
  0
LINE
  8
0
 10
2.90575
 20
131.246
 11
2.97633
 21
130.876
  0
LINE
  8
0
 10
2.97633
 20
130.876
 11
3
 21
130.5
  0
LINE
  8
0
 10
3
 20
130.5
 11
2.97633
 21
130.124
  0
LINE
  8
0
 10
2.97633
 20
130.124
 11
2.90575
 21
129.754
  0
LINE
  8
0
 10
2.90575
 20
129.754
 11
2.78932
 21
129.396
  0
LINE
  8
0
 10
2.78932
 20
129.396
 11
2.62891
 21
129.055
  0
LINE
  8
0
 10
2.62891
 20
129.055
 11
2.42705
 21
128.737
  0
LINE
  8
0
 10
2.42705
 20
128.737
 11
2.1869
 21
128.446
  0
LINE
  8
0
 10
2.1869
 20
128.446
 11
1.91226
 21
128.188
  0
LINE
  8
0
 10
1.91226
 20
128.188
 11
1.60747
 21
127.967
  0
LINE
  8
0
 10
1.60747
 20
127.967
 11
1.27733
 21
127.786
  0
LINE
  8
0
 10
1.27733
 20
127.786
 11
0.927048
 21
127.647
  0
LINE
  8
0
 10
0.927048
 20
127.647
 11
0.562134
 21
127.553
  0
LINE
  8
0
 10
0.562134
 20
127.553
 11
0.18837
 21
127.506
  0
LINE
  8
0
 10
0.18837
 20
127.506
 11
-0.18837
 21
127.506
  0
LINE
  8
0
 10
-22.6045
 20
128.839
 11
-22.8119
 21
128.865
  0
LINE
  8
0
 10
-22.8119
 20
128.865
 11
-23.0144
 21
128.917
  0
LINE
  8
0
 10
-23.0144
 20
128.917
 11
-23.2088
 21
128.994
  0
LINE
  8
0
 10
-23.2088
 20
128.994
 11
-23.392
 21
129.094
  0
LINE
  8
0
 10
-23.392
 20
129.094
 11
-23.5611
 21
129.217
  0
LINE
  8
0
 10
-23.5611
 20
129.217
 11
-23.7135
 21
129.36
  0
LINE
  8
0
 10
-23.7135
 20
129.36
 11
-23.8468
 21
129.521
  0
LINE
  8
0
 10
-23.8468
 20
129.521
 11
-23.9588
 21
129.698
  0
LINE
  8
0
 10
-23.9588
 20
129.698
 11
-24.0478
 21
129.887
  0
LINE
  8
0
 10
-24.0478
 20
129.887
 11
-24.1124
 21
130.086
  0
LINE
  8
0
 10
-24.1124
 20
130.086
 11
-24.1516
 21
130.291
  0
LINE
  8
0
 10
-24.1516
 20
130.291
 11
-24.1647
 21
130.5
  0
LINE
  8
0
 10
-24.1647
 20
130.5
 11
-24.1516
 21
130.709
  0
LINE
  8
0
 10
-24.1516
 20
130.709
 11
-24.1124
 21
130.914
  0
LINE
  8
0
 10
-24.1124
 20
130.914
 11
-24.0478
 21
131.113
  0
LINE
  8
0
 10
-24.0478
 20
131.113
 11
-23.9588
 21
131.302
  0
LINE
  8
0
 10
-23.9588
 20
131.302
 11
-23.8468
 21
131.478
  0
LINE
  8
0
 10
-23.8468
 20
131.478
 11
-23.7135
 21
131.64
  0
LINE
  8
0
 10
-23.7135
 20
131.64
 11
-23.5611
 21
131.783
  0
LINE
  8
0
 10
-23.5611
 20
131.783
 11
-23.392
 21
131.906
  0
LINE
  8
0
 10
-23.392
 20
131.906
 11
-23.2088
 21
132.006
  0
LINE
  8
0
 10
-23.2088
 20
132.006
 11
-23.0144
 21
132.083
  0
LINE
  8
0
 10
-23.0144
 20
132.083
 11
-22.8119
 21
132.135
  0
LINE
  8
0
 10
-22.8119
 20
132.135
 11
-22.6045
 21
132.161
  0
LINE
  8
0
 10
-22.6045
 20
132.161
 11
-22.3955
 21
132.161
  0
LINE
  8
0
 10
-22.3955
 20
132.161
 11
-22.1881
 21
132.135
  0
LINE
  8
0
 10
-22.1881
 20
132.135
 11
-21.9856
 21
132.083
  0
LINE
  8
0
 10
-21.9856
 20
132.083
 11
-21.7912
 21
132.006
  0
LINE
  8
0
 10
-21.7912
 20
132.006
 11
-21.608
 21
131.906
  0
LINE
  8
0
 10
-21.608
 20
131.906
 11
-21.4389
 21
131.783
  0
LINE
  8
0
 10
-21.4389
 20
131.783
 11
-21.2865
 21
131.64
  0
LINE
  8
0
 10
-21.2865
 20
131.64
 11
-21.1532
 21
131.478
  0
LINE
  8
0
 10
-21.1532
 20
131.478
 11
-21.0412
 21
131.302
  0
LINE
  8
0
 10
-21.0412
 20
131.302
 11
-20.9522
 21
131.113
  0
LINE
  8
0
 10
-20.9522
 20
131.113
 11
-20.8876
 21
130.914
  0
LINE
  8
0
 10
-20.8876
 20
130.914
 11
-20.8484
 21
130.709
  0
LINE
  8
0
 10
-20.8484
 20
130.709
 11
-20.8353
 21
130.5
  0
LINE
  8
0
 10
-20.8353
 20
130.5
 11
-20.8484
 21
130.291
  0
LINE
  8
0
 10
-20.8484
 20
130.291
 11
-20.8876
 21
130.086
  0
LINE
  8
0
 10
-20.8876
 20
130.086
 11
-20.9522
 21
129.887
  0
LINE
  8
0
 10
-20.9522
 20
129.887
 11
-21.0412
 21
129.698
  0
LINE
  8
0
 10
-21.0412
 20
129.698
 11
-21.1532
 21
129.521
  0
LINE
  8
0
 10
-21.1532
 20
129.521
 11
-21.2865
 21
129.36
  0
LINE
  8
0
 10
-21.2865
 20
129.36
 11
-21.4389
 21
129.217
  0
LINE
  8
0
 10
-21.4389
 20
129.217
 11
-21.608
 21
129.094
  0
LINE
  8
0
 10
-21.608
 20
129.094
 11
-21.7912
 21
128.994
  0
LINE
  8
0
 10
-21.7912
 20
128.994
 11
-21.9856
 21
128.917
  0
LINE
  8
0
 10
-21.9856
 20
128.917
 11
-22.1881
 21
128.865
  0
LINE
  8
0
 10
-22.1881
 20
128.865
 11
-22.3955
 21
128.839
  0
LINE
  8
0
 10
-22.3955
 20
128.839
 11
-22.6045
 21
128.839
  0
LINE
  8
0
 10
7.39546
 20
128.839
 11
7.18806
 21
128.865
  0
LINE
  8
0
 10
7.18806
 20
128.865
 11
6.98557
 21
128.917
  0
LINE
  8
0
 10
6.98557
 20
128.917
 11
6.7912
 21
128.994
  0
LINE
  8
0
 10
6.7912
 20
128.994
 11
6.608
 21
129.094
  0
LINE
  8
0
 10
6.608
 20
129.094
 11
6.43887
 21
129.217
  0
LINE
  8
0
 10
6.43887
 20
129.217
 11
6.28647
 21
129.36
  0
LINE
  8
0
 10
6.28647
 20
129.36
 11
6.15321
 21
129.521
  0
LINE
  8
0
 10
6.15321
 20
129.521
 11
6.0412
 21
129.698
  0
LINE
  8
0
 10
6.0412
 20
129.698
 11
5.95219
 21
129.887
  0
LINE
  8
0
 10
5.95219
 20
129.887
 11
5.88759
 21
130.086
  0
LINE
  8
0
 10
5.88759
 20
130.086
 11
5.84842
 21
130.291
  0
LINE
  8
0
 10
5.84842
 20
130.291
 11
5.83528
 21
130.5
  0
LINE
  8
0
 10
5.83528
 20
130.5
 11
5.84842
 21
130.709
  0
LINE
  8
0
 10
5.84842
 20
130.709
 11
5.88759
 21
130.914
  0
LINE
  8
0
 10
5.88759
 20
130.914
 11
5.95219
 21
131.113
  0
LINE
  8
0
 10
5.95219
 20
131.113
 11
6.0412
 21
131.302
  0
LINE
  8
0
 10
6.0412
 20
131.302
 11
6.15321
 21
131.478
  0
LINE
  8
0
 10
6.15321
 20
131.478
 11
6.28647
 21
131.64
  0
LINE
  8
0
 10
6.28647
 20
131.64
 11
6.43887
 21
131.783
  0
LINE
  8
0
 10
6.43887
 20
131.783
 11
6.608
 21
131.906
  0
LINE
  8
0
 10
6.608
 20
131.906
 11
6.7912
 21
132.006
  0
LINE
  8
0
 10
6.7912
 20
132.006
 11
6.98557
 21
132.083
  0
LINE
  8
0
 10
6.98557
 20
132.083
 11
7.18806
 21
132.135
  0
LINE
  8
0
 10
7.18806
 20
132.135
 11
7.39546
 21
132.161
  0
LINE
  8
0
 10
7.39546
 20
132.161
 11
7.60452
 21
132.161
  0
LINE
  8
0
 10
7.60452
 20
132.161
 11
7.81192
 21
132.135
  0
LINE
  8
0
 10
7.81192
 20
132.135
 11
8.01442
 21
132.083
  0
LINE
  8
0
 10
8.01442
 20
132.083
 11
8.20879
 21
132.006
  0
LINE
  8
0
 10
8.20879
 20
132.006
 11
8.39198
 21
131.906
  0
LINE
  8
0
 10
8.39198
 20
131.906
 11
8.56111
 21
131.783
  0
LINE
  8
0
 10
8.56111
 20
131.783
 11
8.71352
 21
131.64
  0
LINE
  8
0
 10
8.71352
 20
131.64
 11
8.84677
 21
131.478
  0
LINE
  8
0
 10
8.84677
 20
131.478
 11
8.95879
 21
131.302
  0
LINE
  8
0
 10
8.95879
 20
131.302
 11
9.04779
 21
131.113
  0
LINE
  8
0
 10
9.04779
 20
131.113
 11
9.1124
 21
130.914
  0
LINE
  8
0
 10
9.1124
 20
130.914
 11
9.15157
 21
130.709
  0
LINE
  8
0
 10
9.15157
 20
130.709
 11
9.1647
 21
130.5
  0
LINE
  8
0
 10
9.1647
 20
130.5
 11
9.15157
 21
130.291
  0
LINE
  8
0
 10
9.15157
 20
130.291
 11
9.1124
 21
130.086
  0
LINE
  8
0
 10
9.1124
 20
130.086
 11
9.04779
 21
129.887
  0
LINE
  8
0
 10
9.04779
 20
129.887
 11
8.95879
 21
129.698
  0
LINE
  8
0
 10
8.95879
 20
129.698
 11
8.84677
 21
129.521
  0
LINE
  8
0
 10
8.84677
 20
129.521
 11
8.71352
 21
129.36
  0
LINE
  8
0
 10
8.71352
 20
129.36
 11
8.56111
 21
129.217
  0
LINE
  8
0
 10
8.56111
 20
129.217
 11
8.39198
 21
129.094
  0
LINE
  8
0
 10
8.39198
 20
129.094
 11
8.20879
 21
128.994
  0
LINE
  8
0
 10
8.20879
 20
128.994
 11
8.01442
 21
128.917
  0
LINE
  8
0
 10
8.01442
 20
128.917
 11
7.81192
 21
128.865
  0
LINE
  8
0
 10
7.81192
 20
128.865
 11
7.60452
 21
128.839
  0
LINE
  8
0
 10
7.60452
 20
128.839
 11
7.39546
 21
128.839
  0
LINE
  8
0
 10
26.4858
 20
119.9
 11
26.4858
 21
125
  0
LINE
  8
0
 10
26.4858
 20
125
 11
33.5142
 21
125
  0
LINE
  8
0
 10
33.5142
 20
125
 11
33.5142
 21
119.9
  0
LINE
  8
0
 10
33.5142
 20
119.9
 11
26.4858
 21
119.9
  0
LINE
  8
0
 10
-3.51418
 20
119.9
 11
-3.51418
 21
125
  0
LINE
  8
0
 10
-3.51418
 20
125
 11
3.51418
 21
125
  0
LINE
  8
0
 10
3.51418
 20
125
 11
3.51418
 21
119.9
  0
LINE
  8
0
 10
3.51418
 20
119.9
 11
-3.51418
 21
119.9
  0
LINE
  8
0
 10
-18.5142
 20
119.9
 11
-18.5142
 21
125
  0
LINE
  8
0
 10
-18.5142
 20
125
 11
-11.4858
 21
125
  0
LINE
  8
0
 10
-11.4858
 20
125
 11
-11.4858
 21
119.9
  0
LINE
  8
0
 10
-11.4858
 20
119.9
 11
-18.5142
 21
119.9
  0
LINE
  8
0
 10
11.4858
 20
119.9
 11
11.4858
 21
125
  0
LINE
  8
0
 10
11.4858
 20
125
 11
18.5142
 21
125
  0
LINE
  8
0
 10
18.5142
 20
125
 11
18.5142
 21
119.9
  0
LINE
  8
0
 10
18.5142
 20
119.9
 11
11.4858
 21
119.9
  0
LINE
  8
0
 10
-33.5142
 20
119.9
 11
-33.5142
 21
125
  0
LINE
  8
0
 10
-33.5142
 20
125
 11
-26.4858
 21
125
  0
LINE
  8
0
 10
-26.4858
 20
125
 11
-26.4858
 21
119.9
  0
LINE
  8
0
 10
-26.4858
 20
119.9
 11
-33.5142
 21
119.9
  0
LINE
  8
0
 10
-32.5307
 20
80.9
 11
-35.2462
 21
80.9
  0
LINE
  8
0
 10
-35.2462
 20
80.9
 11
-35.2462
 21
86
  0
LINE
  8
0
 10
-35.2462
 20
86
 11
-32.5307
 21
86
  0
LINE
  8
0
 10
-32.5307
 20
86
 11
-32.5307
 21
89.9
  0
LINE
  8
0
 10
-32.5307
 20
89.9
 11
-32.6289
 21
90.0547
  0
LINE
  8
0
 10
-32.6289
 20
90.0547
 11
-32.7893
 21
90.3956
  0
LINE
  8
0
 10
-32.7893
 20
90.3956
 11
-32.9057
 21
90.7539
  0
LINE
  8
0
 10
-32.9057
 20
90.7539
 11
-32.9763
 21
91.124
  0
LINE
  8
0
 10
-32.9763
 20
91.124
 11
-33
 21
91.5
  0
LINE
  8
0
 10
-33
 20
91.5
 11
-32.9763
 21
91.876
  0
LINE
  8
0
 10
-32.9763
 20
91.876
 11
-32.9057
 21
92.2461
  0
LINE
  8
0
 10
-32.9057
 20
92.2461
 11
-32.7893
 21
92.6044
  0
LINE
  8
0
 10
-32.7893
 20
92.6044
 11
-32.6289
 21
92.9453
  0
LINE
  8
0
 10
-32.6289
 20
92.9453
 11
-32.427
 21
93.2634
  0
LINE
  8
0
 10
-32.427
 20
93.2634
 11
-32.1869
 21
93.5536
  0
LINE
  8
0
 10
-32.1869
 20
93.5536
 11
-31.9123
 21
93.8115
  0
LINE
  8
0
 10
-31.9123
 20
93.8115
 11
-31.6075
 21
94.033
  0
LINE
  8
0
 10
-31.6075
 20
94.033
 11
-31.2773
 21
94.2145
  0
LINE
  8
0
 10
-31.2773
 20
94.2145
 11
-30.927
 21
94.3532
  0
LINE
  8
0
 10
-30.927
 20
94.3532
 11
-30.5621
 21
94.4469
  0
LINE
  8
0
 10
-30.5621
 20
94.4469
 11
-30.1884
 21
94.4941
  0
LINE
  8
0
 10
-30.1884
 20
94.4941
 11
-29.8116
 21
94.4941
  0
LINE
  8
0
 10
-29.8116
 20
94.4941
 11
-29.4379
 21
94.4469
  0
LINE
  8
0
 10
-29.4379
 20
94.4469
 11
-29.0729
 21
94.3532
  0
LINE
  8
0
 10
-29.0729
 20
94.3532
 11
-28.7227
 21
94.2145
  0
LINE
  8
0
 10
-28.7227
 20
94.2145
 11
-28.3925
 21
94.033
  0
LINE
  8
0
 10
-28.3925
 20
94.033
 11
-28.0877
 21
93.8115
  0
LINE
  8
0
 10
-28.0877
 20
93.8115
 11
-27.8131
 21
93.5536
  0
LINE
  8
0
 10
-27.8131
 20
93.5536
 11
-27.5729
 21
93.2634
  0
LINE
  8
0
 10
-27.5729
 20
93.2634
 11
-27.3711
 21
92.9453
  0
LINE
  8
0
 10
-27.3711
 20
92.9453
 11
-27.2107
 21
92.6044
  0
LINE
  8
0
 10
-27.2107
 20
92.6044
 11
-27.0942
 21
92.2461
  0
LINE
  8
0
 10
-27.0942
 20
92.2461
 11
-27.0237
 21
91.876
  0
LINE
  8
0
 10
-27.0237
 20
91.876
 11
-27
 21
91.5
  0
LINE
  8
0
 10
-27
 20
91.5
 11
-27.0237
 21
91.124
  0
LINE
  8
0
 10
-27.0237
 20
91.124
 11
-27.0942
 21
90.7539
  0
LINE
  8
0
 10
-27.0942
 20
90.7539
 11
-27.2107
 21
90.3956
  0
LINE
  8
0
 10
-27.2107
 20
90.3956
 11
-27.3711
 21
90.0547
  0
LINE
  8
0
 10
-27.3711
 20
90.0547
 11
-27.4693
 21
89.9
  0
LINE
  8
0
 10
-27.4693
 20
89.9
 11
-27.4693
 21
86
  0
LINE
  8
0
 10
-27.4693
 20
86
 11
-24.7538
 21
86
  0
LINE
  8
0
 10
-24.7538
 20
86
 11
-24.7538
 21
80.9
  0
LINE
  8
0
 10
-24.7538
 20
80.9
 11
-27.4693
 21
80.9
  0
LINE
  8
0
 10
-27.4693
 20
80.9
 11
-27.4693
 21
78
  0
LINE
  8
0
 10
-27.4693
 20
78
 11
-17.5307
 21
78
  0
LINE
  8
0
 10
-17.5307
 20
78
 11
-17.5307
 21
80.9
  0
LINE
  8
0
 10
-17.5307
 20
80.9
 11
-20.2462
 21
80.9
  0
LINE
  8
0
 10
-20.2462
 20
80.9
 11
-20.2462
 21
86
  0
LINE
  8
0
 10
-20.2462
 20
86
 11
-17.5307
 21
86
  0
LINE
  8
0
 10
-17.5307
 20
86
 11
-17.5307
 21
89.9
  0
LINE
  8
0
 10
-17.5307
 20
89.9
 11
-17.6289
 21
90.0547
  0
LINE
  8
0
 10
-17.6289
 20
90.0547
 11
-17.7893
 21
90.3956
  0
LINE
  8
0
 10
-17.7893
 20
90.3956
 11
-17.9057
 21
90.7539
  0
LINE
  8
0
 10
-17.9057
 20
90.7539
 11
-17.9763
 21
91.124
  0
LINE
  8
0
 10
-17.9763
 20
91.124
 11
-18
 21
91.5
  0
LINE
  8
0
 10
-18
 20
91.5
 11
-17.9763
 21
91.876
  0
LINE
  8
0
 10
-17.9763
 20
91.876
 11
-17.9057
 21
92.2461
  0
LINE
  8
0
 10
-17.9057
 20
92.2461
 11
-17.7893
 21
92.6044
  0
LINE
  8
0
 10
-17.7893
 20
92.6044
 11
-17.6289
 21
92.9453
  0
LINE
  8
0
 10
-17.6289
 20
92.9453
 11
-17.427
 21
93.2634
  0
LINE
  8
0
 10
-17.427
 20
93.2634
 11
-17.1869
 21
93.5536
  0
LINE
  8
0
 10
-17.1869
 20
93.5536
 11
-16.9123
 21
93.8115
  0
LINE
  8
0
 10
-16.9123
 20
93.8115
 11
-16.6075
 21
94.033
  0
LINE
  8
0
 10
-16.6075
 20
94.033
 11
-16.2773
 21
94.2145
  0
LINE
  8
0
 10
-16.2773
 20
94.2145
 11
-15.927
 21
94.3532
  0
LINE
  8
0
 10
-15.927
 20
94.3532
 11
-15.5621
 21
94.4469
  0
LINE
  8
0
 10
-15.5621
 20
94.4469
 11
-15.1884
 21
94.4941
  0
LINE
  8
0
 10
-15.1884
 20
94.4941
 11
-14.8116
 21
94.4941
  0
LINE
  8
0
 10
-14.8116
 20
94.4941
 11
-14.4379
 21
94.4469
  0
LINE
  8
0
 10
-14.4379
 20
94.4469
 11
-14.0729
 21
94.3532
  0
LINE
  8
0
 10
-14.0729
 20
94.3532
 11
-13.7227
 21
94.2145
  0
LINE
  8
0
 10
-13.7227
 20
94.2145
 11
-13.3925
 21
94.033
  0
LINE
  8
0
 10
-13.3925
 20
94.033
 11
-13.0877
 21
93.8115
  0
LINE
  8
0
 10
-13.0877
 20
93.8115
 11
-12.8131
 21
93.5536
  0
LINE
  8
0
 10
-12.8131
 20
93.5536
 11
-12.5729
 21
93.2634
  0
LINE
  8
0
 10
-12.5729
 20
93.2634
 11
-12.3711
 21
92.9453
  0
LINE
  8
0
 10
-12.3711
 20
92.9453
 11
-12.2107
 21
92.6044
  0
LINE
  8
0
 10
-12.2107
 20
92.6044
 11
-12.0942
 21
92.2461
  0
LINE
  8
0
 10
-12.0942
 20
92.2461
 11
-12.0237
 21
91.876
  0
LINE
  8
0
 10
-12.0237
 20
91.876
 11
-12
 21
91.5
  0
LINE
  8
0
 10
-12
 20
91.5
 11
-12.0237
 21
91.124
  0
LINE
  8
0
 10
-12.0237
 20
91.124
 11
-12.0942
 21
90.7539
  0
LINE
  8
0
 10
-12.0942
 20
90.7539
 11
-12.2107
 21
90.3956
  0
LINE
  8
0
 10
-12.2107
 20
90.3956
 11
-12.3711
 21
90.0547
  0
LINE
  8
0
 10
-12.3711
 20
90.0547
 11
-12.4693
 21
89.9
  0
LINE
  8
0
 10
-12.4693
 20
89.9
 11
-12.4693
 21
86
  0
LINE
  8
0
 10
-12.4693
 20
86
 11
-9.75375
 21
86
  0
LINE
  8
0
 10
-9.75375
 20
86
 11
-9.75375
 21
80.9
  0
LINE
  8
0
 10
-9.75375
 20
80.9
 11
-12.4693
 21
80.9
  0
LINE
  8
0
 10
-12.4693
 20
80.9
 11
-12.4693
 21
78
  0
LINE
  8
0
 10
-12.4693
 20
78
 11
-2.53072
 21
78
  0
LINE
  8
0
 10
-2.53072
 20
78
 11
-2.53072
 21
80.9
  0
LINE
  8
0
 10
-2.53072
 20
80.9
 11
-5.24623
 21
80.9
  0
LINE
  8
0
 10
-5.24623
 20
80.9
 11
-5.24623
 21
86
  0
LINE
  8
0
 10
-5.24623
 20
86
 11
-2.53072
 21
86
  0
LINE
  8
0
 10
-2.53072
 20
86
 11
-2.53072
 21
89.9
  0
LINE
  8
0
 10
-2.53072
 20
89.9
 11
-2.62891
 21
90.0547
  0
LINE
  8
0
 10
-2.62891
 20
90.0547
 11
-2.78932
 21
90.3956
  0
LINE
  8
0
 10
-2.78932
 20
90.3956
 11
-2.90575
 21
90.7539
  0
LINE
  8
0
 10
-2.90575
 20
90.7539
 11
-2.97633
 21
91.124
  0
LINE
  8
0
 10
-2.97633
 20
91.124
 11
-3
 21
91.5
  0
LINE
  8
0
 10
-3
 20
91.5
 11
-2.97633
 21
91.876
  0
LINE
  8
0
 10
-2.97633
 20
91.876
 11
-2.90575
 21
92.2461
  0
LINE
  8
0
 10
-2.90575
 20
92.2461
 11
-2.78932
 21
92.6044
  0
LINE
  8
0
 10
-2.78932
 20
92.6044
 11
-2.62891
 21
92.9453
  0
LINE
  8
0
 10
-2.62891
 20
92.9453
 11
-2.42705
 21
93.2634
  0
LINE
  8
0
 10
-2.42705
 20
93.2634
 11
-2.1869
 21
93.5536
  0
LINE
  8
0
 10
-2.1869
 20
93.5536
 11
-1.91226
 21
93.8115
  0
LINE
  8
0
 10
-1.91226
 20
93.8115
 11
-1.60747
 21
94.033
  0
LINE
  8
0
 10
-1.60747
 20
94.033
 11
-1.27733
 21
94.2145
  0
LINE
  8
0
 10
-1.27733
 20
94.2145
 11
-0.927048
 21
94.3532
  0
LINE
  8
0
 10
-0.927048
 20
94.3532
 11
-0.562134
 21
94.4469
  0
LINE
  8
0
 10
-0.562134
 20
94.4469
 11
-0.18837
 21
94.4941
  0
LINE
  8
0
 10
-0.18837
 20
94.4941
 11
0.18837
 21
94.4941
  0
LINE
  8
0
 10
0.18837
 20
94.4941
 11
0.562134
 21
94.4469
  0
LINE
  8
0
 10
0.562134
 20
94.4469
 11
0.927048
 21
94.3532
  0
LINE
  8
0
 10
0.927048
 20
94.3532
 11
1.27733
 21
94.2145
  0
LINE
  8
0
 10
1.27733
 20
94.2145
 11
1.60747
 21
94.033
  0
LINE
  8
0
 10
1.60747
 20
94.033
 11
1.91226
 21
93.8115
  0
LINE
  8
0
 10
1.91226
 20
93.8115
 11
2.1869
 21
93.5536
  0
LINE
  8
0
 10
2.1869
 20
93.5536
 11
2.42705
 21
93.2634
  0
LINE
  8
0
 10
2.42705
 20
93.2634
 11
2.62891
 21
92.9453
  0
LINE
  8
0
 10
2.62891
 20
92.9453
 11
2.78932
 21
92.6044
  0
LINE
  8
0
 10
2.78932
 20
92.6044
 11
2.90575
 21
92.2461
  0
LINE
  8
0
 10
2.90575
 20
92.2461
 11
2.97633
 21
91.876
  0
LINE
  8
0
 10
2.97633
 20
91.876
 11
3
 21
91.5
  0
LINE
  8
0
 10
3
 20
91.5
 11
2.97633
 21
91.124
  0
LINE
  8
0
 10
2.97633
 20
91.124
 11
2.90575
 21
90.7539
  0
LINE
  8
0
 10
2.90575
 20
90.7539
 11
2.78932
 21
90.3956
  0
LINE
  8
0
 10
2.78932
 20
90.3956
 11
2.62891
 21
90.0547
  0
LINE
  8
0
 10
2.62891
 20
90.0547
 11
2.53072
 21
89.9
  0
LINE
  8
0
 10
2.53072
 20
89.9
 11
2.53072
 21
86
  0
LINE
  8
0
 10
2.53072
 20
86
 11
5.24623
 21
86
  0
LINE
  8
0
 10
5.24623
 20
86
 11
5.24623
 21
80.9
  0
LINE
  8
0
 10
5.24623
 20
80.9
 11
2.53072
 21
80.9
  0
LINE
  8
0
 10
2.53072
 20
80.9
 11
2.53072
 21
78
  0
LINE
  8
0
 10
2.53072
 20
78
 11
12.4693
 21
78
  0
LINE
  8
0
 10
12.4693
 20
78
 11
12.4693
 21
80.9
  0
LINE
  8
0
 10
12.4693
 20
80.9
 11
9.75375
 21
80.9
  0
LINE
  8
0
 10
9.75375
 20
80.9
 11
9.75375
 21
86
  0
LINE
  8
0
 10
9.75375
 20
86
 11
12.4693
 21
86
  0
LINE
  8
0
 10
12.4693
 20
86
 11
12.4693
 21
89.9
  0
LINE
  8
0
 10
12.4693
 20
89.9
 11
12.3711
 21
90.0547
  0
LINE
  8
0
 10
12.3711
 20
90.0547
 11
12.2107
 21
90.3956
  0
LINE
  8
0
 10
12.2107
 20
90.3956
 11
12.0942
 21
90.7539
  0
LINE
  8
0
 10
12.0942
 20
90.7539
 11
12.0237
 21
91.124
  0
LINE
  8
0
 10
12.0237
 20
91.124
 11
12
 21
91.5
  0
LINE
  8
0
 10
12
 20
91.5
 11
12.0237
 21
91.876
  0
LINE
  8
0
 10
12.0237
 20
91.876
 11
12.0942
 21
92.2461
  0
LINE
  8
0
 10
12.0942
 20
92.2461
 11
12.2107
 21
92.6044
  0
LINE
  8
0
 10
12.2107
 20
92.6044
 11
12.3711
 21
92.9453
  0
LINE
  8
0
 10
12.3711
 20
92.9453
 11
12.5729
 21
93.2634
  0
LINE
  8
0
 10
12.5729
 20
93.2634
 11
12.8131
 21
93.5536
  0
LINE
  8
0
 10
12.8131
 20
93.5536
 11
13.0877
 21
93.8115
  0
LINE
  8
0
 10
13.0877
 20
93.8115
 11
13.3925
 21
94.033
  0
LINE
  8
0
 10
13.3925
 20
94.033
 11
13.7227
 21
94.2145
  0
LINE
  8
0
 10
13.7227
 20
94.2145
 11
14.0729
 21
94.3532
  0
LINE
  8
0
 10
14.0729
 20
94.3532
 11
14.4379
 21
94.4469
  0
LINE
  8
0
 10
14.4379
 20
94.4469
 11
14.8116
 21
94.4941
  0
LINE
  8
0
 10
14.8116
 20
94.4941
 11
15.1884
 21
94.4941
  0
LINE
  8
0
 10
15.1884
 20
94.4941
 11
15.5621
 21
94.4469
  0
LINE
  8
0
 10
15.5621
 20
94.4469
 11
15.927
 21
94.3532
  0
LINE
  8
0
 10
15.927
 20
94.3532
 11
16.2773
 21
94.2145
  0
LINE
  8
0
 10
16.2773
 20
94.2145
 11
16.6075
 21
94.033
  0
LINE
  8
0
 10
16.6075
 20
94.033
 11
16.9123
 21
93.8115
  0
LINE
  8
0
 10
16.9123
 20
93.8115
 11
17.1869
 21
93.5536
  0
LINE
  8
0
 10
17.1869
 20
93.5536
 11
17.427
 21
93.2634
  0
LINE
  8
0
 10
17.427
 20
93.2634
 11
17.6289
 21
92.9453
  0
LINE
  8
0
 10
17.6289
 20
92.9453
 11
17.7893
 21
92.6044
  0
LINE
  8
0
 10
17.7893
 20
92.6044
 11
17.9057
 21
92.2461
  0
LINE
  8
0
 10
17.9057
 20
92.2461
 11
17.9763
 21
91.876
  0
LINE
  8
0
 10
17.9763
 20
91.876
 11
18
 21
91.5
  0
LINE
  8
0
 10
18
 20
91.5
 11
17.9763
 21
91.124
  0
LINE
  8
0
 10
17.9763
 20
91.124
 11
17.9057
 21
90.7539
  0
LINE
  8
0
 10
17.9057
 20
90.7539
 11
17.7893
 21
90.3956
  0
LINE
  8
0
 10
17.7893
 20
90.3956
 11
17.6289
 21
90.0547
  0
LINE
  8
0
 10
17.6289
 20
90.0547
 11
17.5307
 21
89.9
  0
LINE
  8
0
 10
17.5307
 20
89.9
 11
17.5307
 21
86
  0
LINE
  8
0
 10
17.5307
 20
86
 11
20.2462
 21
86
  0
LINE
  8
0
 10
20.2462
 20
86
 11
20.2462
 21
80.9
  0
LINE
  8
0
 10
20.2462
 20
80.9
 11
17.5307
 21
80.9
  0
LINE
  8
0
 10
17.5307
 20
80.9
 11
17.5307
 21
78
  0
LINE
  8
0
 10
17.5307
 20
78
 11
27.4693
 21
78
  0
LINE
  8
0
 10
27.4693
 20
78
 11
27.4693
 21
80.9
  0
LINE
  8
0
 10
27.4693
 20
80.9
 11
24.7538
 21
80.9
  0
LINE
  8
0
 10
24.7538
 20
80.9
 11
24.7538
 21
86
  0
LINE
  8
0
 10
24.7538
 20
86
 11
27.4693
 21
86
  0
LINE
  8
0
 10
27.4693
 20
86
 11
27.4693
 21
89.9
  0
LINE
  8
0
 10
27.4693
 20
89.9
 11
27.3711
 21
90.0547
  0
LINE
  8
0
 10
27.3711
 20
90.0547
 11
27.2107
 21
90.3956
  0
LINE
  8
0
 10
27.2107
 20
90.3956
 11
27.0942
 21
90.7539
  0
LINE
  8
0
 10
27.0942
 20
90.7539
 11
27.0237
 21
91.124
  0
LINE
  8
0
 10
27.0237
 20
91.124
 11
27
 21
91.5
  0
LINE
  8
0
 10
27
 20
91.5
 11
27.0237
 21
91.876
  0
LINE
  8
0
 10
27.0237
 20
91.876
 11
27.0942
 21
92.2461
  0
LINE
  8
0
 10
27.0942
 20
92.2461
 11
27.2107
 21
92.6044
  0
LINE
  8
0
 10
27.2107
 20
92.6044
 11
27.3711
 21
92.9453
  0
LINE
  8
0
 10
27.3711
 20
92.9453
 11
27.5729
 21
93.2634
  0
LINE
  8
0
 10
27.5729
 20
93.2634
 11
27.8131
 21
93.5536
  0
LINE
  8
0
 10
27.8131
 20
93.5536
 11
28.0877
 21
93.8115
  0
LINE
  8
0
 10
28.0877
 20
93.8115
 11
28.3925
 21
94.033
  0
LINE
  8
0
 10
28.3925
 20
94.033
 11
28.7227
 21
94.2145
  0
LINE
  8
0
 10
28.7227
 20
94.2145
 11
29.0729
 21
94.3532
  0
LINE
  8
0
 10
29.0729
 20
94.3532
 11
29.4379
 21
94.4469
  0
LINE
  8
0
 10
29.4379
 20
94.4469
 11
29.8116
 21
94.4941
  0
LINE
  8
0
 10
29.8116
 20
94.4941
 11
30.1884
 21
94.4941
  0
LINE
  8
0
 10
30.1884
 20
94.4941
 11
30.5621
 21
94.4469
  0
LINE
  8
0
 10
30.5621
 20
94.4469
 11
30.927
 21
94.3532
  0
LINE
  8
0
 10
30.927
 20
94.3532
 11
31.2773
 21
94.2145
  0
LINE
  8
0
 10
31.2773
 20
94.2145
 11
31.6075
 21
94.033
  0
LINE
  8
0
 10
31.6075
 20
94.033
 11
31.9123
 21
93.8115
  0
LINE
  8
0
 10
31.9123
 20
93.8115
 11
32.1869
 21
93.5536
  0
LINE
  8
0
 10
32.1869
 20
93.5536
 11
32.427
 21
93.2634
  0
LINE
  8
0
 10
32.427
 20
93.2634
 11
32.6289
 21
92.9453
  0
LINE
  8
0
 10
32.6289
 20
92.9453
 11
32.7893
 21
92.6044
  0
LINE
  8
0
 10
32.7893
 20
92.6044
 11
32.9057
 21
92.2461
  0
LINE
  8
0
 10
32.9057
 20
92.2461
 11
32.9763
 21
91.876
  0
LINE
  8
0
 10
32.9763
 20
91.876
 11
33
 21
91.5
  0
LINE
  8
0
 10
33
 20
91.5
 11
32.9763
 21
91.124
  0
LINE
  8
0
 10
32.9763
 20
91.124
 11
32.9057
 21
90.7539
  0
LINE
  8
0
 10
32.9057
 20
90.7539
 11
32.7893
 21
90.3956
  0
LINE
  8
0
 10
32.7893
 20
90.3956
 11
32.6289
 21
90.0547
  0
LINE
  8
0
 10
32.6289
 20
90.0547
 11
32.5307
 21
89.9
  0
LINE
  8
0
 10
32.5307
 20
89.9
 11
32.5307
 21
86
  0
LINE
  8
0
 10
32.5307
 20
86
 11
35.2462
 21
86
  0
LINE
  8
0
 10
35.2462
 20
86
 11
35.2462
 21
80.9
  0
LINE
  8
0
 10
35.2462
 20
80.9
 11
32.5307
 21
80.9
  0
LINE
  8
0
 10
32.5307
 20
80.9
 11
32.5307
 21
78
  0
LINE
  8
0
 10
32.5307
 20
78
 11
37
 21
78
  0
LINE
  8
0
 10
37
 20
78
 11
37
 21
108.5
  0
LINE
  8
0
 10
37
 20
108.5
 11
36.9606
 21
109.127
  0
LINE
  8
0
 10
36.9606
 20
109.127
 11
36.8429
 21
109.743
  0
LINE
  8
0
 10
36.8429
 20
109.743
 11
36.6489
 21
110.341
  0
LINE
  8
0
 10
36.6489
 20
110.341
 11
36.3815
 21
110.909
  0
LINE
  8
0
 10
36.3815
 20
110.909
 11
36.0451
 21
111.439
  0
LINE
  8
0
 10
36.0451
 20
111.439
 11
35.6448
 21
111.923
  0
LINE
  8
0
 10
35.6448
 20
111.923
 11
35.1871
 21
112.353
  0
LINE
  8
0
 10
35.1871
 20
112.353
 11
34.6791
 21
112.722
  0
LINE
  8
0
 10
34.6791
 20
112.722
 11
34.1289
 21
113.024
  0
LINE
  8
0
 10
34.1289
 20
113.024
 11
33.5451
 21
113.255
  0
LINE
  8
0
 10
33.5451
 20
113.255
 11
32.9369
 21
113.411
  0
LINE
  8
0
 10
32.9369
 20
113.411
 11
32.3139
 21
113.49
  0
LINE
  8
0
 10
32.3139
 20
113.49
 11
-32.3139
 21
113.49
  0
LINE
  8
0
 10
-32.3139
 20
113.49
 11
-32.9369
 21
113.411
  0
LINE
  8
0
 10
-32.9369
 20
113.411
 11
-33.5451
 21
113.255
  0
LINE
  8
0
 10
-33.5451
 20
113.255
 11
-34.1289
 21
113.024
  0
LINE
  8
0
 10
-34.1289
 20
113.024
 11
-34.6791
 21
112.722
  0
LINE
  8
0
 10
-34.6791
 20
112.722
 11
-35.1871
 21
112.353
  0
LINE
  8
0
 10
-35.1871
 20
112.353
 11
-35.6448
 21
111.923
  0
LINE
  8
0
 10
-35.6448
 20
111.923
 11
-36.0451
 21
111.439
  0
LINE
  8
0
 10
-36.0451
 20
111.439
 11
-36.3815
 21
110.909
  0
LINE
  8
0
 10
-36.3815
 20
110.909
 11
-36.6489
 21
110.341
  0
LINE
  8
0
 10
-36.6489
 20
110.341
 11
-36.8429
 21
109.743
  0
LINE
  8
0
 10
-36.8429
 20
109.743
 11
-36.9606
 21
109.127
  0
LINE
  8
0
 10
-36.9606
 20
109.127
 11
-37
 21
108.5
  0
LINE
  8
0
 10
-37
 20
108.5
 11
-37
 21
78
  0
LINE
  8
0
 10
-37
 20
78
 11
-32.5307
 21
78
  0
LINE
  8
0
 10
-32.5307
 20
78
 11
-32.5307
 21
80.9
  0
LINE
  8
0
 10
14.8116
 20
103.506
 11
14.4379
 21
103.553
  0
LINE
  8
0
 10
14.4379
 20
103.553
 11
14.0729
 21
103.647
  0
LINE
  8
0
 10
14.0729
 20
103.647
 11
13.7227
 21
103.786
  0
LINE
  8
0
 10
13.7227
 20
103.786
 11
13.3925
 21
103.967
  0
LINE
  8
0
 10
13.3925
 20
103.967
 11
13.0877
 21
104.188
  0
LINE
  8
0
 10
13.0877
 20
104.188
 11
12.8131
 21
104.446
  0
LINE
  8
0
 10
12.8131
 20
104.446
 11
12.5729
 21
104.737
  0
LINE
  8
0
 10
12.5729
 20
104.737
 11
12.3711
 21
105.055
  0
LINE
  8
0
 10
12.3711
 20
105.055
 11
12.2107
 21
105.396
  0
LINE
  8
0
 10
12.2107
 20
105.396
 11
12.0942
 21
105.754
  0
LINE
  8
0
 10
12.0942
 20
105.754
 11
12.0237
 21
106.124
  0
LINE
  8
0
 10
12.0237
 20
106.124
 11
12
 21
106.5
  0
LINE
  8
0
 10
12
 20
106.5
 11
12.0237
 21
106.876
  0
LINE
  8
0
 10
12.0237
 20
106.876
 11
12.0942
 21
107.246
  0
LINE
  8
0
 10
12.0942
 20
107.246
 11
12.2107
 21
107.604
  0
LINE
  8
0
 10
12.2107
 20
107.604
 11
12.3711
 21
107.945
  0
LINE
  8
0
 10
12.3711
 20
107.945
 11
12.5729
 21
108.263
  0
LINE
  8
0
 10
12.5729
 20
108.263
 11
12.8131
 21
108.554
  0
LINE
  8
0
 10
12.8131
 20
108.554
 11
13.0877
 21
108.812
  0
LINE
  8
0
 10
13.0877
 20
108.812
 11
13.3925
 21
109.033
  0
LINE
  8
0
 10
13.3925
 20
109.033
 11
13.7227
 21
109.214
  0
LINE
  8
0
 10
13.7227
 20
109.214
 11
14.0729
 21
109.353
  0
LINE
  8
0
 10
14.0729
 20
109.353
 11
14.4379
 21
109.447
  0
LINE
  8
0
 10
14.4379
 20
109.447
 11
14.8116
 21
109.494
  0
LINE
  8
0
 10
14.8116
 20
109.494
 11
15.1884
 21
109.494
  0
LINE
  8
0
 10
15.1884
 20
109.494
 11
15.5621
 21
109.447
  0
LINE
  8
0
 10
15.5621
 20
109.447
 11
15.927
 21
109.353
  0
LINE
  8
0
 10
15.927
 20
109.353
 11
16.2773
 21
109.214
  0
LINE
  8
0
 10
16.2773
 20
109.214
 11
16.6075
 21
109.033
  0
LINE
  8
0
 10
16.6075
 20
109.033
 11
16.9123
 21
108.812
  0
LINE
  8
0
 10
16.9123
 20
108.812
 11
17.1869
 21
108.554
  0
LINE
  8
0
 10
17.1869
 20
108.554
 11
17.427
 21
108.263
  0
LINE
  8
0
 10
17.427
 20
108.263
 11
17.6289
 21
107.945
  0
LINE
  8
0
 10
17.6289
 20
107.945
 11
17.7893
 21
107.604
  0
LINE
  8
0
 10
17.7893
 20
107.604
 11
17.9057
 21
107.246
  0
LINE
  8
0
 10
17.9057
 20
107.246
 11
17.9763
 21
106.876
  0
LINE
  8
0
 10
17.9763
 20
106.876
 11
18
 21
106.5
  0
LINE
  8
0
 10
18
 20
106.5
 11
17.9763
 21
106.124
  0
LINE
  8
0
 10
17.9763
 20
106.124
 11
17.9057
 21
105.754
  0
LINE
  8
0
 10
17.9057
 20
105.754
 11
17.7893
 21
105.396
  0
LINE
  8
0
 10
17.7893
 20
105.396
 11
17.6289
 21
105.055
  0
LINE
  8
0
 10
17.6289
 20
105.055
 11
17.427
 21
104.737
  0
LINE
  8
0
 10
17.427
 20
104.737
 11
17.1869
 21
104.446
  0
LINE
  8
0
 10
17.1869
 20
104.446
 11
16.9123
 21
104.188
  0
LINE
  8
0
 10
16.9123
 20
104.188
 11
16.6075
 21
103.967
  0
LINE
  8
0
 10
16.6075
 20
103.967
 11
16.2773
 21
103.786
  0
LINE
  8
0
 10
16.2773
 20
103.786
 11
15.927
 21
103.647
  0
LINE
  8
0
 10
15.927
 20
103.647
 11
15.5621
 21
103.553
  0
LINE
  8
0
 10
15.5621
 20
103.553
 11
15.1884
 21
103.506
  0
LINE
  8
0
 10
15.1884
 20
103.506
 11
14.8116
 21
103.506
  0
LINE
  8
0
 10
-0.18837
 20
103.506
 11
-0.562134
 21
103.553
  0
LINE
  8
0
 10
-0.562134
 20
103.553
 11
-0.927048
 21
103.647
  0
LINE
  8
0
 10
-0.927048
 20
103.647
 11
-1.27733
 21
103.786
  0
LINE
  8
0
 10
-1.27733
 20
103.786
 11
-1.60747
 21
103.967
  0
LINE
  8
0
 10
-1.60747
 20
103.967
 11
-1.91226
 21
104.188
  0
LINE
  8
0
 10
-1.91226
 20
104.188
 11
-2.1869
 21
104.446
  0
LINE
  8
0
 10
-2.1869
 20
104.446
 11
-2.42705
 21
104.737
  0
LINE
  8
0
 10
-2.42705
 20
104.737
 11
-2.62891
 21
105.055
  0
LINE
  8
0
 10
-2.62891
 20
105.055
 11
-2.78932
 21
105.396
  0
LINE
  8
0
 10
-2.78932
 20
105.396
 11
-2.90575
 21
105.754
  0
LINE
  8
0
 10
-2.90575
 20
105.754
 11
-2.97633
 21
106.124
  0
LINE
  8
0
 10
-2.97633
 20
106.124
 11
-3
 21
106.5
  0
LINE
  8
0
 10
-3
 20
106.5
 11
-2.97633
 21
106.876
  0
LINE
  8
0
 10
-2.97633
 20
106.876
 11
-2.90575
 21
107.246
  0
LINE
  8
0
 10
-2.90575
 20
107.246
 11
-2.78932
 21
107.604
  0
LINE
  8
0
 10
-2.78932
 20
107.604
 11
-2.62891
 21
107.945
  0
LINE
  8
0
 10
-2.62891
 20
107.945
 11
-2.42705
 21
108.263
  0
LINE
  8
0
 10
-2.42705
 20
108.263
 11
-2.1869
 21
108.554
  0
LINE
  8
0
 10
-2.1869
 20
108.554
 11
-1.91226
 21
108.812
  0
LINE
  8
0
 10
-1.91226
 20
108.812
 11
-1.60747
 21
109.033
  0
LINE
  8
0
 10
-1.60747
 20
109.033
 11
-1.27733
 21
109.214
  0
LINE
  8
0
 10
-1.27733
 20
109.214
 11
-0.927048
 21
109.353
  0
LINE
  8
0
 10
-0.927048
 20
109.353
 11
-0.562134
 21
109.447
  0
LINE
  8
0
 10
-0.562134
 20
109.447
 11
-0.18837
 21
109.494
  0
LINE
  8
0
 10
-0.18837
 20
109.494
 11
0.18837
 21
109.494
  0
LINE
  8
0
 10
0.18837
 20
109.494
 11
0.562134
 21
109.447
  0
LINE
  8
0
 10
0.562134
 20
109.447
 11
0.927048
 21
109.353
  0
LINE
  8
0
 10
0.927048
 20
109.353
 11
1.27733
 21
109.214
  0
LINE
  8
0
 10
1.27733
 20
109.214
 11
1.60747
 21
109.033
  0
LINE
  8
0
 10
1.60747
 20
109.033
 11
1.91226
 21
108.812
  0
LINE
  8
0
 10
1.91226
 20
108.812
 11
2.1869
 21
108.554
  0
LINE
  8
0
 10
2.1869
 20
108.554
 11
2.42705
 21
108.263
  0
LINE
  8
0
 10
2.42705
 20
108.263
 11
2.62891
 21
107.945
  0
LINE
  8
0
 10
2.62891
 20
107.945
 11
2.78932
 21
107.604
  0
LINE
  8
0
 10
2.78932
 20
107.604
 11
2.90575
 21
107.246
  0
LINE
  8
0
 10
2.90575
 20
107.246
 11
2.97633
 21
106.876
  0
LINE
  8
0
 10
2.97633
 20
106.876
 11
3
 21
106.5
  0
LINE
  8
0
 10
3
 20
106.5
 11
2.97633
 21
106.124
  0
LINE
  8
0
 10
2.97633
 20
106.124
 11
2.90575
 21
105.754
  0
LINE
  8
0
 10
2.90575
 20
105.754
 11
2.78932
 21
105.396
  0
LINE
  8
0
 10
2.78932
 20
105.396
 11
2.62891
 21
105.055
  0
LINE
  8
0
 10
2.62891
 20
105.055
 11
2.42705
 21
104.737
  0
LINE
  8
0
 10
2.42705
 20
104.737
 11
2.1869
 21
104.446
  0
LINE
  8
0
 10
2.1869
 20
104.446
 11
1.91226
 21
104.188
  0
LINE
  8
0
 10
1.91226
 20
104.188
 11
1.60747
 21
103.967
  0
LINE
  8
0
 10
1.60747
 20
103.967
 11
1.27733
 21
103.786
  0
LINE
  8
0
 10
1.27733
 20
103.786
 11
0.927048
 21
103.647
  0
LINE
  8
0
 10
0.927048
 20
103.647
 11
0.562134
 21
103.553
  0
LINE
  8
0
 10
0.562134
 20
103.553
 11
0.18837
 21
103.506
  0
LINE
  8
0
 10
0.18837
 20
103.506
 11
-0.18837
 21
103.506
  0
LINE
  8
0
 10
-30.1884
 20
103.506
 11
-30.5621
 21
103.553
  0
LINE
  8
0
 10
-30.5621
 20
103.553
 11
-30.927
 21
103.647
  0
LINE
  8
0
 10
-30.927
 20
103.647
 11
-31.2773
 21
103.786
  0
LINE
  8
0
 10
-31.2773
 20
103.786
 11
-31.6075
 21
103.967
  0
LINE
  8
0
 10
-31.6075
 20
103.967
 11
-31.9123
 21
104.188
  0
LINE
  8
0
 10
-31.9123
 20
104.188
 11
-32.1869
 21
104.446
  0
LINE
  8
0
 10
-32.1869
 20
104.446
 11
-32.427
 21
104.737
  0
LINE
  8
0
 10
-32.427
 20
104.737
 11
-32.6289
 21
105.055
  0
LINE
  8
0
 10
-32.6289
 20
105.055
 11
-32.7893
 21
105.396
  0
LINE
  8
0
 10
-32.7893
 20
105.396
 11
-32.9057
 21
105.754
  0
LINE
  8
0
 10
-32.9057
 20
105.754
 11
-32.9763
 21
106.124
  0
LINE
  8
0
 10
-32.9763
 20
106.124
 11
-33
 21
106.5
  0
LINE
  8
0
 10
-33
 20
106.5
 11
-32.9763
 21
106.876
  0
LINE
  8
0
 10
-32.9763
 20
106.876
 11
-32.9057
 21
107.246
  0
LINE
  8
0
 10
-32.9057
 20
107.246
 11
-32.7893
 21
107.604
  0
LINE
  8
0
 10
-32.7893
 20
107.604
 11
-32.6289
 21
107.945
  0
LINE
  8
0
 10
-32.6289
 20
107.945
 11
-32.427
 21
108.263
  0
LINE
  8
0
 10
-32.427
 20
108.263
 11
-32.1869
 21
108.554
  0
LINE
  8
0
 10
-32.1869
 20
108.554
 11
-31.9123
 21
108.812
  0
LINE
  8
0
 10
-31.9123
 20
108.812
 11
-31.6075
 21
109.033
  0
LINE
  8
0
 10
-31.6075
 20
109.033
 11
-31.2773
 21
109.214
  0
LINE
  8
0
 10
-31.2773
 20
109.214
 11
-30.927
 21
109.353
  0
LINE
  8
0
 10
-30.927
 20
109.353
 11
-30.5621
 21
109.447
  0
LINE
  8
0
 10
-30.5621
 20
109.447
 11
-30.1884
 21
109.494
  0
LINE
  8
0
 10
-30.1884
 20
109.494
 11
-29.8116
 21
109.494
  0
LINE
  8
0
 10
-29.8116
 20
109.494
 11
-29.4379
 21
109.447
  0
LINE
  8
0
 10
-29.4379
 20
109.447
 11
-29.0729
 21
109.353
  0
LINE
  8
0
 10
-29.0729
 20
109.353
 11
-28.7227
 21
109.214
  0
LINE
  8
0
 10
-28.7227
 20
109.214
 11
-28.3925
 21
109.033
  0
LINE
  8
0
 10
-28.3925
 20
109.033
 11
-28.0877
 21
108.812
  0
LINE
  8
0
 10
-28.0877
 20
108.812
 11
-27.8131
 21
108.554
  0
LINE
  8
0
 10
-27.8131
 20
108.554
 11
-27.5729
 21
108.263
  0
LINE
  8
0
 10
-27.5729
 20
108.263
 11
-27.3711
 21
107.945
  0
LINE
  8
0
 10
-27.3711
 20
107.945
 11
-27.2107
 21
107.604
  0
LINE
  8
0
 10
-27.2107
 20
107.604
 11
-27.0942
 21
107.246
  0
LINE
  8
0
 10
-27.0942
 20
107.246
 11
-27.0237
 21
106.876
  0
LINE
  8
0
 10
-27.0237
 20
106.876
 11
-27
 21
106.5
  0
LINE
  8
0
 10
-27
 20
106.5
 11
-27.0237
 21
106.124
  0
LINE
  8
0
 10
-27.0237
 20
106.124
 11
-27.0942
 21
105.754
  0
LINE
  8
0
 10
-27.0942
 20
105.754
 11
-27.2107
 21
105.396
  0
LINE
  8
0
 10
-27.2107
 20
105.396
 11
-27.3711
 21
105.055
  0
LINE
  8
0
 10
-27.3711
 20
105.055
 11
-27.5729
 21
104.737
  0
LINE
  8
0
 10
-27.5729
 20
104.737
 11
-27.8131
 21
104.446
  0
LINE
  8
0
 10
-27.8131
 20
104.446
 11
-28.0877
 21
104.188
  0
LINE
  8
0
 10
-28.0877
 20
104.188
 11
-28.3925
 21
103.967
  0
LINE
  8
0
 10
-28.3925
 20
103.967
 11
-28.7227
 21
103.786
  0
LINE
  8
0
 10
-28.7227
 20
103.786
 11
-29.0729
 21
103.647
  0
LINE
  8
0
 10
-29.0729
 20
103.647
 11
-29.4379
 21
103.553
  0
LINE
  8
0
 10
-29.4379
 20
103.553
 11
-29.8116
 21
103.506
  0
LINE
  8
0
 10
-29.8116
 20
103.506
 11
-30.1884
 21
103.506
  0
LINE
  8
0
 10
29.8116
 20
103.506
 11
29.4379
 21
103.553
  0
LINE
  8
0
 10
29.4379
 20
103.553
 11
29.0729
 21
103.647
  0
LINE
  8
0
 10
29.0729
 20
103.647
 11
28.7227
 21
103.786
  0
LINE
  8
0
 10
28.7227
 20
103.786
 11
28.3925
 21
103.967
  0
LINE
  8
0
 10
28.3925
 20
103.967
 11
28.0877
 21
104.188
  0
LINE
  8
0
 10
28.0877
 20
104.188
 11
27.8131
 21
104.446
  0
LINE
  8
0
 10
27.8131
 20
104.446
 11
27.5729
 21
104.737
  0
LINE
  8
0
 10
27.5729
 20
104.737
 11
27.3711
 21
105.055
  0
LINE
  8
0
 10
27.3711
 20
105.055
 11
27.2107
 21
105.396
  0
LINE
  8
0
 10
27.2107
 20
105.396
 11
27.0942
 21
105.754
  0
LINE
  8
0
 10
27.0942
 20
105.754
 11
27.0237
 21
106.124
  0
LINE
  8
0
 10
27.0237
 20
106.124
 11
27
 21
106.5
  0
LINE
  8
0
 10
27
 20
106.5
 11
27.0237
 21
106.876
  0
LINE
  8
0
 10
27.0237
 20
106.876
 11
27.0942
 21
107.246
  0
LINE
  8
0
 10
27.0942
 20
107.246
 11
27.2107
 21
107.604
  0
LINE
  8
0
 10
27.2107
 20
107.604
 11
27.3711
 21
107.945
  0
LINE
  8
0
 10
27.3711
 20
107.945
 11
27.5729
 21
108.263
  0
LINE
  8
0
 10
27.5729
 20
108.263
 11
27.8131
 21
108.554
  0
LINE
  8
0
 10
27.8131
 20
108.554
 11
28.0877
 21
108.812
  0
LINE
  8
0
 10
28.0877
 20
108.812
 11
28.3925
 21
109.033
  0
LINE
  8
0
 10
28.3925
 20
109.033
 11
28.7227
 21
109.214
  0
LINE
  8
0
 10
28.7227
 20
109.214
 11
29.0729
 21
109.353
  0
LINE
  8
0
 10
29.0729
 20
109.353
 11
29.4379
 21
109.447
  0
LINE
  8
0
 10
29.4379
 20
109.447
 11
29.8116
 21
109.494
  0
LINE
  8
0
 10
29.8116
 20
109.494
 11
30.1884
 21
109.494
  0
LINE
  8
0
 10
30.1884
 20
109.494
 11
30.5621
 21
109.447
  0
LINE
  8
0
 10
30.5621
 20
109.447
 11
30.927
 21
109.353
  0
LINE
  8
0
 10
30.927
 20
109.353
 11
31.2773
 21
109.214
  0
LINE
  8
0
 10
31.2773
 20
109.214
 11
31.6075
 21
109.033
  0
LINE
  8
0
 10
31.6075
 20
109.033
 11
31.9123
 21
108.812
  0
LINE
  8
0
 10
31.9123
 20
108.812
 11
32.1869
 21
108.554
  0
LINE
  8
0
 10
32.1869
 20
108.554
 11
32.427
 21
108.263
  0
LINE
  8
0
 10
32.427
 20
108.263
 11
32.6289
 21
107.945
  0
LINE
  8
0
 10
32.6289
 20
107.945
 11
32.7893
 21
107.604
  0
LINE
  8
0
 10
32.7893
 20
107.604
 11
32.9057
 21
107.246
  0
LINE
  8
0
 10
32.9057
 20
107.246
 11
32.9763
 21
106.876
  0
LINE
  8
0
 10
32.9763
 20
106.876
 11
33
 21
106.5
  0
LINE
  8
0
 10
33
 20
106.5
 11
32.9763
 21
106.124
  0
LINE
  8
0
 10
32.9763
 20
106.124
 11
32.9057
 21
105.754
  0
LINE
  8
0
 10
32.9057
 20
105.754
 11
32.7893
 21
105.396
  0
LINE
  8
0
 10
32.7893
 20
105.396
 11
32.6289
 21
105.055
  0
LINE
  8
0
 10
32.6289
 20
105.055
 11
32.427
 21
104.737
  0
LINE
  8
0
 10
32.427
 20
104.737
 11
32.1869
 21
104.446
  0
LINE
  8
0
 10
32.1869
 20
104.446
 11
31.9123
 21
104.188
  0
LINE
  8
0
 10
31.9123
 20
104.188
 11
31.6075
 21
103.967
  0
LINE
  8
0
 10
31.6075
 20
103.967
 11
31.2773
 21
103.786
  0
LINE
  8
0
 10
31.2773
 20
103.786
 11
30.927
 21
103.647
  0
LINE
  8
0
 10
30.927
 20
103.647
 11
30.5621
 21
103.553
  0
LINE
  8
0
 10
30.5621
 20
103.553
 11
30.1884
 21
103.506
  0
LINE
  8
0
 10
30.1884
 20
103.506
 11
29.8116
 21
103.506
  0
LINE
  8
0
 10
-15.1884
 20
103.506
 11
-15.5621
 21
103.553
  0
LINE
  8
0
 10
-15.5621
 20
103.553
 11
-15.927
 21
103.647
  0
LINE
  8
0
 10
-15.927
 20
103.647
 11
-16.2773
 21
103.786
  0
LINE
  8
0
 10
-16.2773
 20
103.786
 11
-16.6075
 21
103.967
  0
LINE
  8
0
 10
-16.6075
 20
103.967
 11
-16.9123
 21
104.188
  0
LINE
  8
0
 10
-16.9123
 20
104.188
 11
-17.1869
 21
104.446
  0
LINE
  8
0
 10
-17.1869
 20
104.446
 11
-17.427
 21
104.737
  0
LINE
  8
0
 10
-17.427
 20
104.737
 11
-17.6289
 21
105.055
  0
LINE
  8
0
 10
-17.6289
 20
105.055
 11
-17.7893
 21
105.396
  0
LINE
  8
0
 10
-17.7893
 20
105.396
 11
-17.9057
 21
105.754
  0
LINE
  8
0
 10
-17.9057
 20
105.754
 11
-17.9763
 21
106.124
  0
LINE
  8
0
 10
-17.9763
 20
106.124
 11
-18
 21
106.5
  0
LINE
  8
0
 10
-18
 20
106.5
 11
-17.9763
 21
106.876
  0
LINE
  8
0
 10
-17.9763
 20
106.876
 11
-17.9057
 21
107.246
  0
LINE
  8
0
 10
-17.9057
 20
107.246
 11
-17.7893
 21
107.604
  0
LINE
  8
0
 10
-17.7893
 20
107.604
 11
-17.6289
 21
107.945
  0
LINE
  8
0
 10
-17.6289
 20
107.945
 11
-17.427
 21
108.263
  0
LINE
  8
0
 10
-17.427
 20
108.263
 11
-17.1869
 21
108.554
  0
LINE
  8
0
 10
-17.1869
 20
108.554
 11
-16.9123
 21
108.812
  0
LINE
  8
0
 10
-16.9123
 20
108.812
 11
-16.6075
 21
109.033
  0
LINE
  8
0
 10
-16.6075
 20
109.033
 11
-16.2773
 21
109.214
  0
LINE
  8
0
 10
-16.2773
 20
109.214
 11
-15.927
 21
109.353
  0
LINE
  8
0
 10
-15.927
 20
109.353
 11
-15.5621
 21
109.447
  0
LINE
  8
0
 10
-15.5621
 20
109.447
 11
-15.1884
 21
109.494
  0
LINE
  8
0
 10
-15.1884
 20
109.494
 11
-14.8116
 21
109.494
  0
LINE
  8
0
 10
-14.8116
 20
109.494
 11
-14.4379
 21
109.447
  0
LINE
  8
0
 10
-14.4379
 20
109.447
 11
-14.0729
 21
109.353
  0
LINE
  8
0
 10
-14.0729
 20
109.353
 11
-13.7227
 21
109.214
  0
LINE
  8
0
 10
-13.7227
 20
109.214
 11
-13.3925
 21
109.033
  0
LINE
  8
0
 10
-13.3925
 20
109.033
 11
-13.0877
 21
108.812
  0
LINE
  8
0
 10
-13.0877
 20
108.812
 11
-12.8131
 21
108.554
  0
LINE
  8
0
 10
-12.8131
 20
108.554
 11
-12.5729
 21
108.263
  0
LINE
  8
0
 10
-12.5729
 20
108.263
 11
-12.3711
 21
107.945
  0
LINE
  8
0
 10
-12.3711
 20
107.945
 11
-12.2107
 21
107.604
  0
LINE
  8
0
 10
-12.2107
 20
107.604
 11
-12.0942
 21
107.246
  0
LINE
  8
0
 10
-12.0942
 20
107.246
 11
-12.0237
 21
106.876
  0
LINE
  8
0
 10
-12.0237
 20
106.876
 11
-12
 21
106.5
  0
LINE
  8
0
 10
-12
 20
106.5
 11
-12.0237
 21
106.124
  0
LINE
  8
0
 10
-12.0237
 20
106.124
 11
-12.0942
 21
105.754
  0
LINE
  8
0
 10
-12.0942
 20
105.754
 11
-12.2107
 21
105.396
  0
LINE
  8
0
 10
-12.2107
 20
105.396
 11
-12.3711
 21
105.055
  0
LINE
  8
0
 10
-12.3711
 20
105.055
 11
-12.5729
 21
104.737
  0
LINE
  8
0
 10
-12.5729
 20
104.737
 11
-12.8131
 21
104.446
  0
LINE
  8
0
 10
-12.8131
 20
104.446
 11
-13.0877
 21
104.188
  0
LINE
  8
0
 10
-13.0877
 20
104.188
 11
-13.3925
 21
103.967
  0
LINE
  8
0
 10
-13.3925
 20
103.967
 11
-13.7227
 21
103.786
  0
LINE
  8
0
 10
-13.7227
 20
103.786
 11
-14.0729
 21
103.647
  0
LINE
  8
0
 10
-14.0729
 20
103.647
 11
-14.4379
 21
103.553
  0
LINE
  8
0
 10
-14.4379
 20
103.553
 11
-14.8116
 21
103.506
  0
LINE
  8
0
 10
-14.8116
 20
103.506
 11
-15.1884
 21
103.506
  0
LINE
  8
0
 10
7.40581
 20
90.0029
 11
7.21892
 21
90.0266
  0
LINE
  8
0
 10
7.21892
 20
90.0266
 11
7.03647
 21
90.0734
  0
LINE
  8
0
 10
7.03647
 20
90.0734
 11
6.86133
 21
90.1427
  0
LINE
  8
0
 10
6.86133
 20
90.1427
 11
6.69626
 21
90.2335
  0
LINE
  8
0
 10
6.69626
 20
90.2335
 11
6.54385
 21
90.3442
  0
LINE
  8
0
 10
6.54385
 20
90.3442
 11
6.40654
 21
90.4732
  0
LINE
  8
0
 10
6.40654
 20
90.4732
 11
6.28647
 21
90.6183
  0
LINE
  8
0
 10
6.28647
 20
90.6183
 11
6.18553
 21
90.7774
  0
LINE
  8
0
 10
6.18553
 20
90.7774
 11
6.10533
 21
90.9478
  0
LINE
  8
0
 10
6.10533
 20
90.9478
 11
6.04712
 21
91.127
  0
LINE
  8
0
 10
6.04712
 20
91.127
 11
6.01183
 21
91.312
  0
LINE
  8
0
 10
6.01183
 20
91.312
 11
6
 21
91.5
  0
LINE
  8
0
 10
6
 20
91.5
 11
6.01183
 21
91.688
  0
LINE
  8
0
 10
6.01183
 20
91.688
 11
6.04712
 21
91.873
  0
LINE
  8
0
 10
6.04712
 20
91.873
 11
6.10533
 21
92.0522
  0
LINE
  8
0
 10
6.10533
 20
92.0522
 11
6.18553
 21
92.2226
  0
LINE
  8
0
 10
6.18553
 20
92.2226
 11
6.28647
 21
92.3817
  0
LINE
  8
0
 10
6.28647
 20
92.3817
 11
6.40654
 21
92.5268
  0
LINE
  8
0
 10
6.40654
 20
92.5268
 11
6.54385
 21
92.6558
  0
LINE
  8
0
 10
6.54385
 20
92.6558
 11
6.69626
 21
92.7665
  0
LINE
  8
0
 10
6.69626
 20
92.7665
 11
6.86133
 21
92.8572
  0
LINE
  8
0
 10
6.86133
 20
92.8572
 11
7.03647
 21
92.9266
  0
LINE
  8
0
 10
7.03647
 20
92.9266
 11
7.21892
 21
92.9734
  0
LINE
  8
0
 10
7.21892
 20
92.9734
 11
7.40581
 21
92.997
  0
LINE
  8
0
 10
7.40581
 20
92.997
 11
7.59418
 21
92.997
  0
LINE
  8
0
 10
7.59418
 20
92.997
 11
7.78107
 21
92.9734
  0
LINE
  8
0
 10
7.78107
 20
92.9734
 11
7.96352
 21
92.9266
  0
LINE
  8
0
 10
7.96352
 20
92.9266
 11
8.13866
 21
92.8572
  0
LINE
  8
0
 10
8.13866
 20
92.8572
 11
8.30373
 21
92.7665
  0
LINE
  8
0
 10
8.30373
 20
92.7665
 11
8.45613
 21
92.6558
  0
LINE
  8
0
 10
8.45613
 20
92.6558
 11
8.59344
 21
92.5268
  0
LINE
  8
0
 10
8.59344
 20
92.5268
 11
8.71352
 21
92.3817
  0
LINE
  8
0
 10
8.71352
 20
92.3817
 11
8.81445
 21
92.2226
  0
LINE
  8
0
 10
8.81445
 20
92.2226
 11
8.89465
 21
92.0522
  0
LINE
  8
0
 10
8.89465
 20
92.0522
 11
8.95287
 21
91.873
  0
LINE
  8
0
 10
8.95287
 20
91.873
 11
8.98816
 21
91.688
  0
LINE
  8
0
 10
8.98816
 20
91.688
 11
9
 21
91.5
  0
LINE
  8
0
 10
9
 20
91.5
 11
8.98816
 21
91.312
  0
LINE
  8
0
 10
8.98816
 20
91.312
 11
8.95287
 21
91.127
  0
LINE
  8
0
 10
8.95287
 20
91.127
 11
8.89465
 21
90.9478
  0
LINE
  8
0
 10
8.89465
 20
90.9478
 11
8.81445
 21
90.7774
  0
LINE
  8
0
 10
8.81445
 20
90.7774
 11
8.71352
 21
90.6183
  0
LINE
  8
0
 10
8.71352
 20
90.6183
 11
8.59344
 21
90.4732
  0
LINE
  8
0
 10
8.59344
 20
90.4732
 11
8.45613
 21
90.3442
  0
LINE
  8
0
 10
8.45613
 20
90.3442
 11
8.30373
 21
90.2335
  0
LINE
  8
0
 10
8.30373
 20
90.2335
 11
8.13866
 21
90.1427
  0
LINE
  8
0
 10
8.13866
 20
90.1427
 11
7.96352
 21
90.0734
  0
LINE
  8
0
 10
7.96352
 20
90.0734
 11
7.78107
 21
90.0266
  0
LINE
  8
0
 10
7.78107
 20
90.0266
 11
7.59418
 21
90.0029
  0
LINE
  8
0
 10
7.59418
 20
90.0029
 11
7.40581
 21
90.0029
  0
LINE
  8
0
 10
-22.5942
 20
90.0029
 11
-22.7811
 21
90.0266
  0
LINE
  8
0
 10
-22.7811
 20
90.0266
 11
-22.9635
 21
90.0734
  0
LINE
  8
0
 10
-22.9635
 20
90.0734
 11
-23.1387
 21
90.1427
  0
LINE
  8
0
 10
-23.1387
 20
90.1427
 11
-23.3037
 21
90.2335
  0
LINE
  8
0
 10
-23.3037
 20
90.2335
 11
-23.4561
 21
90.3442
  0
LINE
  8
0
 10
-23.4561
 20
90.3442
 11
-23.5934
 21
90.4732
  0
LINE
  8
0
 10
-23.5934
 20
90.4732
 11
-23.7135
 21
90.6183
  0
LINE
  8
0
 10
-23.7135
 20
90.6183
 11
-23.8145
 21
90.7774
  0
LINE
  8
0
 10
-23.8145
 20
90.7774
 11
-23.8947
 21
90.9478
  0
LINE
  8
0
 10
-23.8947
 20
90.9478
 11
-23.9529
 21
91.127
  0
LINE
  8
0
 10
-23.9529
 20
91.127
 11
-23.9882
 21
91.312
  0
LINE
  8
0
 10
-23.9882
 20
91.312
 11
-24
 21
91.5
  0
LINE
  8
0
 10
-24
 20
91.5
 11
-23.9882
 21
91.688
  0
LINE
  8
0
 10
-23.9882
 20
91.688
 11
-23.9529
 21
91.873
  0
LINE
  8
0
 10
-23.9529
 20
91.873
 11
-23.8947
 21
92.0522
  0
LINE
  8
0
 10
-23.8947
 20
92.0522
 11
-23.8145
 21
92.2226
  0
LINE
  8
0
 10
-23.8145
 20
92.2226
 11
-23.7135
 21
92.3817
  0
LINE
  8
0
 10
-23.7135
 20
92.3817
 11
-23.5934
 21
92.5268
  0
LINE
  8
0
 10
-23.5934
 20
92.5268
 11
-23.4561
 21
92.6558
  0
LINE
  8
0
 10
-23.4561
 20
92.6558
 11
-23.3037
 21
92.7665
  0
LINE
  8
0
 10
-23.3037
 20
92.7665
 11
-23.1387
 21
92.8572
  0
LINE
  8
0
 10
-23.1387
 20
92.8572
 11
-22.9635
 21
92.9266
  0
LINE
  8
0
 10
-22.9635
 20
92.9266
 11
-22.7811
 21
92.9734
  0
LINE
  8
0
 10
-22.7811
 20
92.9734
 11
-22.5942
 21
92.997
  0
LINE
  8
0
 10
-22.5942
 20
92.997
 11
-22.4058
 21
92.997
  0
LINE
  8
0
 10
-22.4058
 20
92.997
 11
-22.2189
 21
92.9734
  0
LINE
  8
0
 10
-22.2189
 20
92.9734
 11
-22.0365
 21
92.9266
  0
LINE
  8
0
 10
-22.0365
 20
92.9266
 11
-21.8613
 21
92.8572
  0
LINE
  8
0
 10
-21.8613
 20
92.8572
 11
-21.6963
 21
92.7665
  0
LINE
  8
0
 10
-21.6963
 20
92.7665
 11
-21.5439
 21
92.6558
  0
LINE
  8
0
 10
-21.5439
 20
92.6558
 11
-21.4065
 21
92.5268
  0
LINE
  8
0
 10
-21.4065
 20
92.5268
 11
-21.2865
 21
92.3817
  0
LINE
  8
0
 10
-21.2865
 20
92.3817
 11
-21.1855
 21
92.2226
  0
LINE
  8
0
 10
-21.1855
 20
92.2226
 11
-21.1053
 21
92.0522
  0
LINE
  8
0
 10
-21.1053
 20
92.0522
 11
-21.0471
 21
91.873
  0
LINE
  8
0
 10
-21.0471
 20
91.873
 11
-21.0118
 21
91.688
  0
LINE
  8
0
 10
-21.0118
 20
91.688
 11
-21
 21
91.5
  0
LINE
  8
0
 10
-21
 20
91.5
 11
-21.0118
 21
91.312
  0
LINE
  8
0
 10
-21.0118
 20
91.312
 11
-21.0471
 21
91.127
  0
LINE
  8
0
 10
-21.0471
 20
91.127
 11
-21.1053
 21
90.9478
  0
LINE
  8
0
 10
-21.1053
 20
90.9478
 11
-21.1855
 21
90.7774
  0
LINE
  8
0
 10
-21.1855
 20
90.7774
 11
-21.2865
 21
90.6183
  0
LINE
  8
0
 10
-21.2865
 20
90.6183
 11
-21.4065
 21
90.4732
  0
LINE
  8
0
 10
-21.4065
 20
90.4732
 11
-21.5439
 21
90.3442
  0
LINE
  8
0
 10
-21.5439
 20
90.3442
 11
-21.6963
 21
90.2335
  0
LINE
  8
0
 10
-21.6963
 20
90.2335
 11
-21.8613
 21
90.1427
  0
LINE
  8
0
 10
-21.8613
 20
90.1427
 11
-22.0365
 21
90.0734
  0
LINE
  8
0
 10
-22.0365
 20
90.0734
 11
-22.2189
 21
90.0266
  0
LINE
  8
0
 10
-22.2189
 20
90.0266
 11
-22.4058
 21
90.0029
  0
LINE
  8
0
 10
-22.4058
 20
90.0029
 11
-22.5942
 21
90.0029
  0
LINE
  8
0
 10
-7.59418
 20
90.0029
 11
-7.78107
 21
90.0266
  0
LINE
  8
0
 10
-7.78107
 20
90.0266
 11
-7.96352
 21
90.0734
  0
LINE
  8
0
 10
-7.96352
 20
90.0734
 11
-8.13866
 21
90.1427
  0
LINE
  8
0
 10
-8.13866
 20
90.1427
 11
-8.30373
 21
90.2335
  0
LINE
  8
0
 10
-8.30373
 20
90.2335
 11
-8.45613
 21
90.3442
  0
LINE
  8
0
 10
-8.45613
 20
90.3442
 11
-8.59344
 21
90.4732
  0
LINE
  8
0
 10
-8.59344
 20
90.4732
 11
-8.71352
 21
90.6183
  0
LINE
  8
0
 10
-8.71352
 20
90.6183
 11
-8.81445
 21
90.7774
  0
LINE
  8
0
 10
-8.81445
 20
90.7774
 11
-8.89465
 21
90.9478
  0
LINE
  8
0
 10
-8.89465
 20
90.9478
 11
-8.95287
 21
91.127
  0
LINE
  8
0
 10
-8.95287
 20
91.127
 11
-8.98816
 21
91.312
  0
LINE
  8
0
 10
-8.98816
 20
91.312
 11
-9
 21
91.5
  0
LINE
  8
0
 10
-9
 20
91.5
 11
-8.98816
 21
91.688
  0
LINE
  8
0
 10
-8.98816
 20
91.688
 11
-8.95287
 21
91.873
  0
LINE
  8
0
 10
-8.95287
 20
91.873
 11
-8.89465
 21
92.0522
  0
LINE
  8
0
 10
-8.89465
 20
92.0522
 11
-8.81445
 21
92.2226
  0
LINE
  8
0
 10
-8.81445
 20
92.2226
 11
-8.71352
 21
92.3817
  0
LINE
  8
0
 10
-8.71352
 20
92.3817
 11
-8.59344
 21
92.5268
  0
LINE
  8
0
 10
-8.59344
 20
92.5268
 11
-8.45613
 21
92.6558
  0
LINE
  8
0
 10
-8.45613
 20
92.6558
 11
-8.30373
 21
92.7665
  0
LINE
  8
0
 10
-8.30373
 20
92.7665
 11
-8.13866
 21
92.8572
  0
LINE
  8
0
 10
-8.13866
 20
92.8572
 11
-7.96352
 21
92.9266
  0
LINE
  8
0
 10
-7.96352
 20
92.9266
 11
-7.78107
 21
92.9734
  0
LINE
  8
0
 10
-7.78107
 20
92.9734
 11
-7.59418
 21
92.997
  0
LINE
  8
0
 10
-7.59418
 20
92.997
 11
-7.40581
 21
92.997
  0
LINE
  8
0
 10
-7.40581
 20
92.997
 11
-7.21892
 21
92.9734
  0
LINE
  8
0
 10
-7.21892
 20
92.9734
 11
-7.03647
 21
92.9266
  0
LINE
  8
0
 10
-7.03647
 20
92.9266
 11
-6.86133
 21
92.8572
  0
LINE
  8
0
 10
-6.86133
 20
92.8572
 11
-6.69626
 21
92.7665
  0
LINE
  8
0
 10
-6.69626
 20
92.7665
 11
-6.54385
 21
92.6558
  0
LINE
  8
0
 10
-6.54385
 20
92.6558
 11
-6.40654
 21
92.5268
  0
LINE
  8
0
 10
-6.40654
 20
92.5268
 11
-6.28647
 21
92.3817
  0
LINE
  8
0
 10
-6.28647
 20
92.3817
 11
-6.18553
 21
92.2226
  0
LINE
  8
0
 10
-6.18553
 20
92.2226
 11
-6.10533
 21
92.0522
  0
LINE
  8
0
 10
-6.10533
 20
92.0522
 11
-6.04712
 21
91.873
  0
LINE
  8
0
 10
-6.04712
 20
91.873
 11
-6.01183
 21
91.688
  0
LINE
  8
0
 10
-6.01183
 20
91.688
 11
-6
 21
91.5
  0
LINE
  8
0
 10
-6
 20
91.5
 11
-6.01183
 21
91.312
  0
LINE
  8
0
 10
-6.01183
 20
91.312
 11
-6.04712
 21
91.127
  0
LINE
  8
0
 10
-6.04712
 20
91.127
 11
-6.10533
 21
90.9478
  0
LINE
  8
0
 10
-6.10533
 20
90.9478
 11
-6.18553
 21
90.7774
  0
LINE
  8
0
 10
-6.18553
 20
90.7774
 11
-6.28647
 21
90.6183
  0
LINE
  8
0
 10
-6.28647
 20
90.6183
 11
-6.40654
 21
90.4732
  0
LINE
  8
0
 10
-6.40654
 20
90.4732
 11
-6.54385
 21
90.3442
  0
LINE
  8
0
 10
-6.54385
 20
90.3442
 11
-6.69626
 21
90.2335
  0
LINE
  8
0
 10
-6.69626
 20
90.2335
 11
-6.86133
 21
90.1427
  0
LINE
  8
0
 10
-6.86133
 20
90.1427
 11
-7.03647
 21
90.0734
  0
LINE
  8
0
 10
-7.03647
 20
90.0734
 11
-7.21892
 21
90.0266
  0
LINE
  8
0
 10
-7.21892
 20
90.0266
 11
-7.40581
 21
90.0029
  0
LINE
  8
0
 10
-7.40581
 20
90.0029
 11
-7.59418
 21
90.0029
  0
LINE
  8
0
 10
-32.5942
 20
41.9
 11
-35.304
 21
41.9
  0
LINE
  8
0
 10
-35.304
 20
41.9
 11
-35.304
 21
47
  0
LINE
  8
0
 10
-35.304
 20
47
 11
-32.5942
 21
47
  0
LINE
  8
0
 10
-32.5942
 20
47
 11
-32.5942
 21
51
  0
LINE
  8
0
 10
-32.5942
 20
51
 11
-32.6289
 21
51.0547
  0
LINE
  8
0
 10
-32.6289
 20
51.0547
 11
-32.7893
 21
51.3956
  0
LINE
  8
0
 10
-32.7893
 20
51.3956
 11
-32.9057
 21
51.7539
  0
LINE
  8
0
 10
-32.9057
 20
51.7539
 11
-32.9763
 21
52.124
  0
LINE
  8
0
 10
-32.9763
 20
52.124
 11
-33
 21
52.5
  0
LINE
  8
0
 10
-33
 20
52.5
 11
-32.9763
 21
52.876
  0
LINE
  8
0
 10
-32.9763
 20
52.876
 11
-32.9057
 21
53.2461
  0
LINE
  8
0
 10
-32.9057
 20
53.2461
 11
-32.7893
 21
53.6044
  0
LINE
  8
0
 10
-32.7893
 20
53.6044
 11
-32.6289
 21
53.9453
  0
LINE
  8
0
 10
-32.6289
 20
53.9453
 11
-32.427
 21
54.2634
  0
LINE
  8
0
 10
-32.427
 20
54.2634
 11
-32.1869
 21
54.5536
  0
LINE
  8
0
 10
-32.1869
 20
54.5536
 11
-31.9123
 21
54.8115
  0
LINE
  8
0
 10
-31.9123
 20
54.8115
 11
-31.6075
 21
55.033
  0
LINE
  8
0
 10
-31.6075
 20
55.033
 11
-31.2773
 21
55.2145
  0
LINE
  8
0
 10
-31.2773
 20
55.2145
 11
-30.927
 21
55.3532
  0
LINE
  8
0
 10
-30.927
 20
55.3532
 11
-30.5621
 21
55.4469
  0
LINE
  8
0
 10
-30.5621
 20
55.4469
 11
-30.1884
 21
55.4941
  0
LINE
  8
0
 10
-30.1884
 20
55.4941
 11
-29.8116
 21
55.4941
  0
LINE
  8
0
 10
-29.8116
 20
55.4941
 11
-29.4379
 21
55.4469
  0
LINE
  8
0
 10
-29.4379
 20
55.4469
 11
-29.0729
 21
55.3532
  0
LINE
  8
0
 10
-29.0729
 20
55.3532
 11
-28.7227
 21
55.2145
  0
LINE
  8
0
 10
-28.7227
 20
55.2145
 11
-28.3925
 21
55.033
  0
LINE
  8
0
 10
-28.3925
 20
55.033
 11
-28.0877
 21
54.8115
  0
LINE
  8
0
 10
-28.0877
 20
54.8115
 11
-27.8131
 21
54.5536
  0
LINE
  8
0
 10
-27.8131
 20
54.5536
 11
-27.5729
 21
54.2634
  0
LINE
  8
0
 10
-27.5729
 20
54.2634
 11
-27.3711
 21
53.9453
  0
LINE
  8
0
 10
-27.3711
 20
53.9453
 11
-27.2107
 21
53.6044
  0
LINE
  8
0
 10
-27.2107
 20
53.6044
 11
-27.0942
 21
53.2461
  0
LINE
  8
0
 10
-27.0942
 20
53.2461
 11
-27.0237
 21
52.876
  0
LINE
  8
0
 10
-27.0237
 20
52.876
 11
-27
 21
52.5
  0
LINE
  8
0
 10
-27
 20
52.5
 11
-27.0237
 21
52.124
  0
LINE
  8
0
 10
-27.0237
 20
52.124
 11
-27.0942
 21
51.7539
  0
LINE
  8
0
 10
-27.0942
 20
51.7539
 11
-27.2107
 21
51.3956
  0
LINE
  8
0
 10
-27.2107
 20
51.3956
 11
-27.3711
 21
51.0547
  0
LINE
  8
0
 10
-27.3711
 20
51.0547
 11
-27.4058
 21
51
  0
LINE
  8
0
 10
-27.4058
 20
51
 11
-27.4058
 21
47
  0
LINE
  8
0
 10
-27.4058
 20
47
 11
-24.696
 21
47
  0
LINE
  8
0
 10
-24.696
 20
47
 11
-24.696
 21
41.9
  0
LINE
  8
0
 10
-24.696
 20
41.9
 11
-27.4058
 21
41.9
  0
LINE
  8
0
 10
-27.4058
 20
41.9
 11
-27.4058
 21
39
  0
LINE
  8
0
 10
-27.4058
 20
39
 11
-17.5942
 21
39
  0
LINE
  8
0
 10
-17.5942
 20
39
 11
-17.5942
 21
41.9
  0
LINE
  8
0
 10
-17.5942
 20
41.9
 11
-20.304
 21
41.9
  0
LINE
  8
0
 10
-20.304
 20
41.9
 11
-20.304
 21
47
  0
LINE
  8
0
 10
-20.304
 20
47
 11
-17.5942
 21
47
  0
LINE
  8
0
 10
-17.5942
 20
47
 11
-17.5942
 21
51
  0
LINE
  8
0
 10
-17.5942
 20
51
 11
-17.6289
 21
51.0547
  0
LINE
  8
0
 10
-17.6289
 20
51.0547
 11
-17.7893
 21
51.3956
  0
LINE
  8
0
 10
-17.7893
 20
51.3956
 11
-17.9057
 21
51.7539
  0
LINE
  8
0
 10
-17.9057
 20
51.7539
 11
-17.9763
 21
52.124
  0
LINE
  8
0
 10
-17.9763
 20
52.124
 11
-18
 21
52.5
  0
LINE
  8
0
 10
-18
 20
52.5
 11
-17.9763
 21
52.876
  0
LINE
  8
0
 10
-17.9763
 20
52.876
 11
-17.9057
 21
53.2461
  0
LINE
  8
0
 10
-17.9057
 20
53.2461
 11
-17.7893
 21
53.6044
  0
LINE
  8
0
 10
-17.7893
 20
53.6044
 11
-17.6289
 21
53.9453
  0
LINE
  8
0
 10
-17.6289
 20
53.9453
 11
-17.427
 21
54.2634
  0
LINE
  8
0
 10
-17.427
 20
54.2634
 11
-17.1869
 21
54.5536
  0
LINE
  8
0
 10
-17.1869
 20
54.5536
 11
-16.9123
 21
54.8115
  0
LINE
  8
0
 10
-16.9123
 20
54.8115
 11
-16.6075
 21
55.033
  0
LINE
  8
0
 10
-16.6075
 20
55.033
 11
-16.2773
 21
55.2145
  0
LINE
  8
0
 10
-16.2773
 20
55.2145
 11
-15.927
 21
55.3532
  0
LINE
  8
0
 10
-15.927
 20
55.3532
 11
-15.5621
 21
55.4469
  0
LINE
  8
0
 10
-15.5621
 20
55.4469
 11
-15.1884
 21
55.4941
  0
LINE
  8
0
 10
-15.1884
 20
55.4941
 11
-14.8116
 21
55.4941
  0
LINE
  8
0
 10
-14.8116
 20
55.4941
 11
-14.4379
 21
55.4469
  0
LINE
  8
0
 10
-14.4379
 20
55.4469
 11
-14.0729
 21
55.3532
  0
LINE
  8
0
 10
-14.0729
 20
55.3532
 11
-13.7227
 21
55.2145
  0
LINE
  8
0
 10
-13.7227
 20
55.2145
 11
-13.3925
 21
55.033
  0
LINE
  8
0
 10
-13.3925
 20
55.033
 11
-13.0877
 21
54.8115
  0
LINE
  8
0
 10
-13.0877
 20
54.8115
 11
-12.8131
 21
54.5536
  0
LINE
  8
0
 10
-12.8131
 20
54.5536
 11
-12.5729
 21
54.2634
  0
LINE
  8
0
 10
-12.5729
 20
54.2634
 11
-12.3711
 21
53.9453
  0
LINE
  8
0
 10
-12.3711
 20
53.9453
 11
-12.2107
 21
53.6044
  0
LINE
  8
0
 10
-12.2107
 20
53.6044
 11
-12.0942
 21
53.2461
  0
LINE
  8
0
 10
-12.0942
 20
53.2461
 11
-12.0237
 21
52.876
  0
LINE
  8
0
 10
-12.0237
 20
52.876
 11
-12
 21
52.5
  0
LINE
  8
0
 10
-12
 20
52.5
 11
-12.0237
 21
52.124
  0
LINE
  8
0
 10
-12.0237
 20
52.124
 11
-12.0942
 21
51.7539
  0
LINE
  8
0
 10
-12.0942
 20
51.7539
 11
-12.2107
 21
51.3956
  0
LINE
  8
0
 10
-12.2107
 20
51.3956
 11
-12.3711
 21
51.0547
  0
LINE
  8
0
 10
-12.3711
 20
51.0547
 11
-12.4058
 21
51
  0
LINE
  8
0
 10
-12.4058
 20
51
 11
-12.4058
 21
47
  0
LINE
  8
0
 10
-12.4058
 20
47
 11
-9.69603
 21
47
  0
LINE
  8
0
 10
-9.69603
 20
47
 11
-9.69603
 21
41.9
  0
LINE
  8
0
 10
-9.69603
 20
41.9
 11
-12.4058
 21
41.9
  0
LINE
  8
0
 10
-12.4058
 20
41.9
 11
-12.4058
 21
39
  0
LINE
  8
0
 10
-12.4058
 20
39
 11
-2.59418
 21
39
  0
LINE
  8
0
 10
-2.59418
 20
39
 11
-2.59418
 21
41.9
  0
LINE
  8
0
 10
-2.59418
 20
41.9
 11
-5.30396
 21
41.9
  0
LINE
  8
0
 10
-5.30396
 20
41.9
 11
-5.30396
 21
47
  0
LINE
  8
0
 10
-5.30396
 20
47
 11
-2.59418
 21
47
  0
LINE
  8
0
 10
-2.59418
 20
47
 11
-2.59418
 21
51
  0
LINE
  8
0
 10
-2.59418
 20
51
 11
-2.62891
 21
51.0547
  0
LINE
  8
0
 10
-2.62891
 20
51.0547
 11
-2.78932
 21
51.3956
  0
LINE
  8
0
 10
-2.78932
 20
51.3956
 11
-2.90575
 21
51.7539
  0
LINE
  8
0
 10
-2.90575
 20
51.7539
 11
-2.97633
 21
52.124
  0
LINE
  8
0
 10
-2.97633
 20
52.124
 11
-3
 21
52.5
  0
LINE
  8
0
 10
-3
 20
52.5
 11
-2.97633
 21
52.876
  0
LINE
  8
0
 10
-2.97633
 20
52.876
 11
-2.90575
 21
53.2461
  0
LINE
  8
0
 10
-2.90575
 20
53.2461
 11
-2.78932
 21
53.6044
  0
LINE
  8
0
 10
-2.78932
 20
53.6044
 11
-2.62891
 21
53.9453
  0
LINE
  8
0
 10
-2.62891
 20
53.9453
 11
-2.42705
 21
54.2634
  0
LINE
  8
0
 10
-2.42705
 20
54.2634
 11
-2.1869
 21
54.5536
  0
LINE
  8
0
 10
-2.1869
 20
54.5536
 11
-1.91226
 21
54.8115
  0
LINE
  8
0
 10
-1.91226
 20
54.8115
 11
-1.60747
 21
55.033
  0
LINE
  8
0
 10
-1.60747
 20
55.033
 11
-1.27733
 21
55.2145
  0
LINE
  8
0
 10
-1.27733
 20
55.2145
 11
-0.927048
 21
55.3532
  0
LINE
  8
0
 10
-0.927048
 20
55.3532
 11
-0.562134
 21
55.4469
  0
LINE
  8
0
 10
-0.562134
 20
55.4469
 11
-0.18837
 21
55.4941
  0
LINE
  8
0
 10
-0.18837
 20
55.4941
 11
0.18837
 21
55.4941
  0
LINE
  8
0
 10
0.18837
 20
55.4941
 11
0.562134
 21
55.4469
  0
LINE
  8
0
 10
0.562134
 20
55.4469
 11
0.927048
 21
55.3532
  0
LINE
  8
0
 10
0.927048
 20
55.3532
 11
1.27733
 21
55.2145
  0
LINE
  8
0
 10
1.27733
 20
55.2145
 11
1.60747
 21
55.033
  0
LINE
  8
0
 10
1.60747
 20
55.033
 11
1.91226
 21
54.8115
  0
LINE
  8
0
 10
1.91226
 20
54.8115
 11
2.1869
 21
54.5536
  0
LINE
  8
0
 10
2.1869
 20
54.5536
 11
2.42705
 21
54.2634
  0
LINE
  8
0
 10
2.42705
 20
54.2634
 11
2.62891
 21
53.9453
  0
LINE
  8
0
 10
2.62891
 20
53.9453
 11
2.78932
 21
53.6044
  0
LINE
  8
0
 10
2.78932
 20
53.6044
 11
2.90575
 21
53.2461
  0
LINE
  8
0
 10
2.90575
 20
53.2461
 11
2.97633
 21
52.876
  0
LINE
  8
0
 10
2.97633
 20
52.876
 11
3
 21
52.5
  0
LINE
  8
0
 10
3
 20
52.5
 11
2.97633
 21
52.124
  0
LINE
  8
0
 10
2.97633
 20
52.124
 11
2.90575
 21
51.7539
  0
LINE
  8
0
 10
2.90575
 20
51.7539
 11
2.78932
 21
51.3956
  0
LINE
  8
0
 10
2.78932
 20
51.3956
 11
2.62891
 21
51.0547
  0
LINE
  8
0
 10
2.62891
 20
51.0547
 11
2.59418
 21
51
  0
LINE
  8
0
 10
2.59418
 20
51
 11
2.59418
 21
47
  0
LINE
  8
0
 10
2.59418
 20
47
 11
5.30396
 21
47
  0
LINE
  8
0
 10
5.30396
 20
47
 11
5.30396
 21
41.9
  0
LINE
  8
0
 10
5.30396
 20
41.9
 11
2.59418
 21
41.9
  0
LINE
  8
0
 10
2.59418
 20
41.9
 11
2.59418
 21
39
  0
LINE
  8
0
 10
2.59418
 20
39
 11
12.4058
 21
39
  0
LINE
  8
0
 10
12.4058
 20
39
 11
12.4058
 21
41.9
  0
LINE
  8
0
 10
12.4058
 20
41.9
 11
9.69603
 21
41.9
  0
LINE
  8
0
 10
9.69603
 20
41.9
 11
9.69603
 21
47
  0
LINE
  8
0
 10
9.69603
 20
47
 11
12.4058
 21
47
  0
LINE
  8
0
 10
12.4058
 20
47
 11
12.4058
 21
51
  0
LINE
  8
0
 10
12.4058
 20
51
 11
12.3711
 21
51.0547
  0
LINE
  8
0
 10
12.3711
 20
51.0547
 11
12.2107
 21
51.3956
  0
LINE
  8
0
 10
12.2107
 20
51.3956
 11
12.0942
 21
51.7539
  0
LINE
  8
0
 10
12.0942
 20
51.7539
 11
12.0237
 21
52.124
  0
LINE
  8
0
 10
12.0237
 20
52.124
 11
12
 21
52.5
  0
LINE
  8
0
 10
12
 20
52.5
 11
12.0237
 21
52.876
  0
LINE
  8
0
 10
12.0237
 20
52.876
 11
12.0942
 21
53.2461
  0
LINE
  8
0
 10
12.0942
 20
53.2461
 11
12.2107
 21
53.6044
  0
LINE
  8
0
 10
12.2107
 20
53.6044
 11
12.3711
 21
53.9453
  0
LINE
  8
0
 10
12.3711
 20
53.9453
 11
12.5729
 21
54.2634
  0
LINE
  8
0
 10
12.5729
 20
54.2634
 11
12.8131
 21
54.5536
  0
LINE
  8
0
 10
12.8131
 20
54.5536
 11
13.0877
 21
54.8115
  0
LINE
  8
0
 10
13.0877
 20
54.8115
 11
13.3925
 21
55.033
  0
LINE
  8
0
 10
13.3925
 20
55.033
 11
13.7227
 21
55.2145
  0
LINE
  8
0
 10
13.7227
 20
55.2145
 11
14.0729
 21
55.3532
  0
LINE
  8
0
 10
14.0729
 20
55.3532
 11
14.4379
 21
55.4469
  0
LINE
  8
0
 10
14.4379
 20
55.4469
 11
14.8116
 21
55.4941
  0
LINE
  8
0
 10
14.8116
 20
55.4941
 11
15.1884
 21
55.4941
  0
LINE
  8
0
 10
15.1884
 20
55.4941
 11
15.5621
 21
55.4469
  0
LINE
  8
0
 10
15.5621
 20
55.4469
 11
15.927
 21
55.3532
  0
LINE
  8
0
 10
15.927
 20
55.3532
 11
16.2773
 21
55.2145
  0
LINE
  8
0
 10
16.2773
 20
55.2145
 11
16.6075
 21
55.033
  0
LINE
  8
0
 10
16.6075
 20
55.033
 11
16.9123
 21
54.8115
  0
LINE
  8
0
 10
16.9123
 20
54.8115
 11
17.1869
 21
54.5536
  0
LINE
  8
0
 10
17.1869
 20
54.5536
 11
17.427
 21
54.2634
  0
LINE
  8
0
 10
17.427
 20
54.2634
 11
17.6289
 21
53.9453
  0
LINE
  8
0
 10
17.6289
 20
53.9453
 11
17.7893
 21
53.6044
  0
LINE
  8
0
 10
17.7893
 20
53.6044
 11
17.9057
 21
53.2461
  0
LINE
  8
0
 10
17.9057
 20
53.2461
 11
17.9763
 21
52.876
  0
LINE
  8
0
 10
17.9763
 20
52.876
 11
18
 21
52.5
  0
LINE
  8
0
 10
18
 20
52.5
 11
17.9763
 21
52.124
  0
LINE
  8
0
 10
17.9763
 20
52.124
 11
17.9057
 21
51.7539
  0
LINE
  8
0
 10
17.9057
 20
51.7539
 11
17.7893
 21
51.3956
  0
LINE
  8
0
 10
17.7893
 20
51.3956
 11
17.6289
 21
51.0547
  0
LINE
  8
0
 10
17.6289
 20
51.0547
 11
17.5942
 21
51
  0
LINE
  8
0
 10
17.5942
 20
51
 11
17.5942
 21
47
  0
LINE
  8
0
 10
17.5942
 20
47
 11
20.304
 21
47
  0
LINE
  8
0
 10
20.304
 20
47
 11
20.304
 21
41.9
  0
LINE
  8
0
 10
20.304
 20
41.9
 11
17.5942
 21
41.9
  0
LINE
  8
0
 10
17.5942
 20
41.9
 11
17.5942
 21
39
  0
LINE
  8
0
 10
17.5942
 20
39
 11
27.4058
 21
39
  0
LINE
  8
0
 10
27.4058
 20
39
 11
27.4058
 21
41.9
  0
LINE
  8
0
 10
27.4058
 20
41.9
 11
24.696
 21
41.9
  0
LINE
  8
0
 10
24.696
 20
41.9
 11
24.696
 21
47
  0
LINE
  8
0
 10
24.696
 20
47
 11
27.4058
 21
47
  0
LINE
  8
0
 10
27.4058
 20
47
 11
27.4058
 21
51
  0
LINE
  8
0
 10
27.4058
 20
51
 11
27.3711
 21
51.0547
  0
LINE
  8
0
 10
27.3711
 20
51.0547
 11
27.2107
 21
51.3956
  0
LINE
  8
0
 10
27.2107
 20
51.3956
 11
27.0942
 21
51.7539
  0
LINE
  8
0
 10
27.0942
 20
51.7539
 11
27.0237
 21
52.124
  0
LINE
  8
0
 10
27.0237
 20
52.124
 11
27
 21
52.5
  0
LINE
  8
0
 10
27
 20
52.5
 11
27.0237
 21
52.876
  0
LINE
  8
0
 10
27.0237
 20
52.876
 11
27.0942
 21
53.2461
  0
LINE
  8
0
 10
27.0942
 20
53.2461
 11
27.2107
 21
53.6044
  0
LINE
  8
0
 10
27.2107
 20
53.6044
 11
27.3711
 21
53.9453
  0
LINE
  8
0
 10
27.3711
 20
53.9453
 11
27.5729
 21
54.2634
  0
LINE
  8
0
 10
27.5729
 20
54.2634
 11
27.8131
 21
54.5536
  0
LINE
  8
0
 10
27.8131
 20
54.5536
 11
28.0877
 21
54.8115
  0
LINE
  8
0
 10
28.0877
 20
54.8115
 11
28.3925
 21
55.033
  0
LINE
  8
0
 10
28.3925
 20
55.033
 11
28.7227
 21
55.2145
  0
LINE
  8
0
 10
28.7227
 20
55.2145
 11
29.0729
 21
55.3532
  0
LINE
  8
0
 10
29.0729
 20
55.3532
 11
29.4379
 21
55.4469
  0
LINE
  8
0
 10
29.4379
 20
55.4469
 11
29.8116
 21
55.4941
  0
LINE
  8
0
 10
29.8116
 20
55.4941
 11
30.1884
 21
55.4941
  0
LINE
  8
0
 10
30.1884
 20
55.4941
 11
30.5621
 21
55.4469
  0
LINE
  8
0
 10
30.5621
 20
55.4469
 11
30.927
 21
55.3532
  0
LINE
  8
0
 10
30.927
 20
55.3532
 11
31.2773
 21
55.2145
  0
LINE
  8
0
 10
31.2773
 20
55.2145
 11
31.6075
 21
55.033
  0
LINE
  8
0
 10
31.6075
 20
55.033
 11
31.9123
 21
54.8115
  0
LINE
  8
0
 10
31.9123
 20
54.8115
 11
32.1869
 21
54.5536
  0
LINE
  8
0
 10
32.1869
 20
54.5536
 11
32.427
 21
54.2634
  0
LINE
  8
0
 10
32.427
 20
54.2634
 11
32.6289
 21
53.9453
  0
LINE
  8
0
 10
32.6289
 20
53.9453
 11
32.7893
 21
53.6044
  0
LINE
  8
0
 10
32.7893
 20
53.6044
 11
32.9057
 21
53.2461
  0
LINE
  8
0
 10
32.9057
 20
53.2461
 11
32.9763
 21
52.876
  0
LINE
  8
0
 10
32.9763
 20
52.876
 11
33
 21
52.5
  0
LINE
  8
0
 10
33
 20
52.5
 11
32.9763
 21
52.124
  0
LINE
  8
0
 10
32.9763
 20
52.124
 11
32.9057
 21
51.7539
  0
LINE
  8
0
 10
32.9057
 20
51.7539
 11
32.7893
 21
51.3956
  0
LINE
  8
0
 10
32.7893
 20
51.3956
 11
32.6289
 21
51.0547
  0
LINE
  8
0
 10
32.6289
 20
51.0547
 11
32.5942
 21
51
  0
LINE
  8
0
 10
32.5942
 20
51
 11
32.5942
 21
47
  0
LINE
  8
0
 10
32.5942
 20
47
 11
35.304
 21
47
  0
LINE
  8
0
 10
35.304
 20
47
 11
35.304
 21
41.9
  0
LINE
  8
0
 10
35.304
 20
41.9
 11
32.5942
 21
41.9
  0
LINE
  8
0
 10
32.5942
 20
41.9
 11
32.5942
 21
39
  0
LINE
  8
0
 10
32.5942
 20
39
 11
37
 21
39
  0
LINE
  8
0
 10
37
 20
39
 11
37
 21
69.5
  0
LINE
  8
0
 10
37
 20
69.5
 11
36.9606
 21
70.1267
  0
LINE
  8
0
 10
36.9606
 20
70.1267
 11
36.8429
 21
70.7434
  0
LINE
  8
0
 10
36.8429
 20
70.7434
 11
36.6489
 21
71.3406
  0
LINE
  8
0
 10
36.6489
 20
71.3406
 11
36.3815
 21
71.9088
  0
LINE
  8
0
 10
36.3815
 20
71.9088
 11
36.0451
 21
72.4389
  0
LINE
  8
0
 10
36.0451
 20
72.4389
 11
35.6448
 21
72.9227
  0
LINE
  8
0
 10
35.6448
 20
72.9227
 11
35.1871
 21
73.3526
  0
LINE
  8
0
 10
35.1871
 20
73.3526
 11
34.6791
 21
73.7216
  0
LINE
  8
0
 10
34.6791
 20
73.7216
 11
34.1289
 21
74.0241
  0
LINE
  8
0
 10
34.1289
 20
74.0241
 11
33.5451
 21
74.2553
  0
LINE
  8
0
 10
33.5451
 20
74.2553
 11
32.9369
 21
74.4114
  0
LINE
  8
0
 10
32.9369
 20
74.4114
 11
32.3139
 21
74.4901
  0
LINE
  8
0
 10
32.3139
 20
74.4901
 11
-32.3139
 21
74.4901
  0
LINE
  8
0
 10
-32.3139
 20
74.4901
 11
-32.9369
 21
74.4114
  0
LINE
  8
0
 10
-32.9369
 20
74.4114
 11
-33.5451
 21
74.2553
  0
LINE
  8
0
 10
-33.5451
 20
74.2553
 11
-34.1289
 21
74.0241
  0
LINE
  8
0
 10
-34.1289
 20
74.0241
 11
-34.6791
 21
73.7216
  0
LINE
  8
0
 10
-34.6791
 20
73.7216
 11
-35.1871
 21
73.3526
  0
LINE
  8
0
 10
-35.1871
 20
73.3526
 11
-35.6448
 21
72.9227
  0
LINE
  8
0
 10
-35.6448
 20
72.9227
 11
-36.0451
 21
72.4389
  0
LINE
  8
0
 10
-36.0451
 20
72.4389
 11
-36.3815
 21
71.9088
  0
LINE
  8
0
 10
-36.3815
 20
71.9088
 11
-36.6489
 21
71.3406
  0
LINE
  8
0
 10
-36.6489
 20
71.3406
 11
-36.8429
 21
70.7434
  0
LINE
  8
0
 10
-36.8429
 20
70.7434
 11
-36.9606
 21
70.1267
  0
LINE
  8
0
 10
-36.9606
 20
70.1267
 11
-37
 21
69.5
  0
LINE
  8
0
 10
-37
 20
69.5
 11
-37
 21
39
  0
LINE
  8
0
 10
-37
 20
39
 11
-32.5942
 21
39
  0
LINE
  8
0
 10
-32.5942
 20
39
 11
-32.5942
 21
41.9
  0
LINE
  8
0
 10
-0.18837
 20
64.5059
 11
-0.562134
 21
64.5531
  0
LINE
  8
0
 10
-0.562134
 20
64.5531
 11
-0.927048
 21
64.6468
  0
LINE
  8
0
 10
-0.927048
 20
64.6468
 11
-1.27733
 21
64.7855
  0
LINE
  8
0
 10
-1.27733
 20
64.7855
 11
-1.60747
 21
64.967
  0
LINE
  8
0
 10
-1.60747
 20
64.967
 11
-1.91226
 21
65.1884
  0
LINE
  8
0
 10
-1.91226
 20
65.1884
 11
-2.1869
 21
65.4464
  0
LINE
  8
0
 10
-2.1869
 20
65.4464
 11
-2.42705
 21
65.7366
  0
LINE
  8
0
 10
-2.42705
 20
65.7366
 11
-2.62891
 21
66.0547
  0
LINE
  8
0
 10
-2.62891
 20
66.0547
 11
-2.78932
 21
66.3956
  0
LINE
  8
0
 10
-2.78932
 20
66.3956
 11
-2.90575
 21
66.7539
  0
LINE
  8
0
 10
-2.90575
 20
66.7539
 11
-2.97633
 21
67.124
  0
LINE
  8
0
 10
-2.97633
 20
67.124
 11
-3
 21
67.5
  0
LINE
  8
0
 10
-3
 20
67.5
 11
-2.97633
 21
67.876
  0
LINE
  8
0
 10
-2.97633
 20
67.876
 11
-2.90575
 21
68.2461
  0
LINE
  8
0
 10
-2.90575
 20
68.2461
 11
-2.78932
 21
68.6044
  0
LINE
  8
0
 10
-2.78932
 20
68.6044
 11
-2.62891
 21
68.9453
  0
LINE
  8
0
 10
-2.62891
 20
68.9453
 11
-2.42705
 21
69.2634
  0
LINE
  8
0
 10
-2.42705
 20
69.2634
 11
-2.1869
 21
69.5536
  0
LINE
  8
0
 10
-2.1869
 20
69.5536
 11
-1.91226
 21
69.8115
  0
LINE
  8
0
 10
-1.91226
 20
69.8115
 11
-1.60747
 21
70.033
  0
LINE
  8
0
 10
-1.60747
 20
70.033
 11
-1.27733
 21
70.2145
  0
LINE
  8
0
 10
-1.27733
 20
70.2145
 11
-0.927048
 21
70.3532
  0
LINE
  8
0
 10
-0.927048
 20
70.3532
 11
-0.562134
 21
70.4469
  0
LINE
  8
0
 10
-0.562134
 20
70.4469
 11
-0.18837
 21
70.4941
  0
LINE
  8
0
 10
-0.18837
 20
70.4941
 11
0.18837
 21
70.4941
  0
LINE
  8
0
 10
0.18837
 20
70.4941
 11
0.562134
 21
70.4469
  0
LINE
  8
0
 10
0.562134
 20
70.4469
 11
0.927048
 21
70.3532
  0
LINE
  8
0
 10
0.927048
 20
70.3532
 11
1.27733
 21
70.2145
  0
LINE
  8
0
 10
1.27733
 20
70.2145
 11
1.60747
 21
70.033
  0
LINE
  8
0
 10
1.60747
 20
70.033
 11
1.91226
 21
69.8115
  0
LINE
  8
0
 10
1.91226
 20
69.8115
 11
2.1869
 21
69.5536
  0
LINE
  8
0
 10
2.1869
 20
69.5536
 11
2.42705
 21
69.2634
  0
LINE
  8
0
 10
2.42705
 20
69.2634
 11
2.62891
 21
68.9453
  0
LINE
  8
0
 10
2.62891
 20
68.9453
 11
2.78932
 21
68.6044
  0
LINE
  8
0
 10
2.78932
 20
68.6044
 11
2.90575
 21
68.2461
  0
LINE
  8
0
 10
2.90575
 20
68.2461
 11
2.97633
 21
67.876
  0
LINE
  8
0
 10
2.97633
 20
67.876
 11
3
 21
67.5
  0
LINE
  8
0
 10
3
 20
67.5
 11
2.97633
 21
67.124
  0
LINE
  8
0
 10
2.97633
 20
67.124
 11
2.90575
 21
66.7539
  0
LINE
  8
0
 10
2.90575
 20
66.7539
 11
2.78932
 21
66.3956
  0
LINE
  8
0
 10
2.78932
 20
66.3956
 11
2.62891
 21
66.0547
  0
LINE
  8
0
 10
2.62891
 20
66.0547
 11
2.42705
 21
65.7366
  0
LINE
  8
0
 10
2.42705
 20
65.7366
 11
2.1869
 21
65.4464
  0
LINE
  8
0
 10
2.1869
 20
65.4464
 11
1.91226
 21
65.1884
  0
LINE
  8
0
 10
1.91226
 20
65.1884
 11
1.60747
 21
64.967
  0
LINE
  8
0
 10
1.60747
 20
64.967
 11
1.27733
 21
64.7855
  0
LINE
  8
0
 10
1.27733
 20
64.7855
 11
0.927048
 21
64.6468
  0
LINE
  8
0
 10
0.927048
 20
64.6468
 11
0.562134
 21
64.5531
  0
LINE
  8
0
 10
0.562134
 20
64.5531
 11
0.18837
 21
64.5059
  0
LINE
  8
0
 10
0.18837
 20
64.5059
 11
-0.18837
 21
64.5059
  0
LINE
  8
0
 10
-15.1884
 20
64.5059
 11
-15.5621
 21
64.5531
  0
LINE
  8
0
 10
-15.5621
 20
64.5531
 11
-15.927
 21
64.6468
  0
LINE
  8
0
 10
-15.927
 20
64.6468
 11
-16.2773
 21
64.7855
  0
LINE
  8
0
 10
-16.2773
 20
64.7855
 11
-16.6075
 21
64.967
  0
LINE
  8
0
 10
-16.6075
 20
64.967
 11
-16.9123
 21
65.1884
  0
LINE
  8
0
 10
-16.9123
 20
65.1884
 11
-17.1869
 21
65.4464
  0
LINE
  8
0
 10
-17.1869
 20
65.4464
 11
-17.427
 21
65.7366
  0
LINE
  8
0
 10
-17.427
 20
65.7366
 11
-17.6289
 21
66.0547
  0
LINE
  8
0
 10
-17.6289
 20
66.0547
 11
-17.7893
 21
66.3956
  0
LINE
  8
0
 10
-17.7893
 20
66.3956
 11
-17.9057
 21
66.7539
  0
LINE
  8
0
 10
-17.9057
 20
66.7539
 11
-17.9763
 21
67.124
  0
LINE
  8
0
 10
-17.9763
 20
67.124
 11
-18
 21
67.5
  0
LINE
  8
0
 10
-18
 20
67.5
 11
-17.9763
 21
67.876
  0
LINE
  8
0
 10
-17.9763
 20
67.876
 11
-17.9057
 21
68.2461
  0
LINE
  8
0
 10
-17.9057
 20
68.2461
 11
-17.7893
 21
68.6044
  0
LINE
  8
0
 10
-17.7893
 20
68.6044
 11
-17.6289
 21
68.9453
  0
LINE
  8
0
 10
-17.6289
 20
68.9453
 11
-17.427
 21
69.2634
  0
LINE
  8
0
 10
-17.427
 20
69.2634
 11
-17.1869
 21
69.5536
  0
LINE
  8
0
 10
-17.1869
 20
69.5536
 11
-16.9123
 21
69.8115
  0
LINE
  8
0
 10
-16.9123
 20
69.8115
 11
-16.6075
 21
70.033
  0
LINE
  8
0
 10
-16.6075
 20
70.033
 11
-16.2773
 21
70.2145
  0
LINE
  8
0
 10
-16.2773
 20
70.2145
 11
-15.927
 21
70.3532
  0
LINE
  8
0
 10
-15.927
 20
70.3532
 11
-15.5621
 21
70.4469
  0
LINE
  8
0
 10
-15.5621
 20
70.4469
 11
-15.1884
 21
70.4941
  0
LINE
  8
0
 10
-15.1884
 20
70.4941
 11
-14.8116
 21
70.4941
  0
LINE
  8
0
 10
-14.8116
 20
70.4941
 11
-14.4379
 21
70.4469
  0
LINE
  8
0
 10
-14.4379
 20
70.4469
 11
-14.0729
 21
70.3532
  0
LINE
  8
0
 10
-14.0729
 20
70.3532
 11
-13.7227
 21
70.2145
  0
LINE
  8
0
 10
-13.7227
 20
70.2145
 11
-13.3925
 21
70.033
  0
LINE
  8
0
 10
-13.3925
 20
70.033
 11
-13.0877
 21
69.8115
  0
LINE
  8
0
 10
-13.0877
 20
69.8115
 11
-12.8131
 21
69.5536
  0
LINE
  8
0
 10
-12.8131
 20
69.5536
 11
-12.5729
 21
69.2634
  0
LINE
  8
0
 10
-12.5729
 20
69.2634
 11
-12.3711
 21
68.9453
  0
LINE
  8
0
 10
-12.3711
 20
68.9453
 11
-12.2107
 21
68.6044
  0
LINE
  8
0
 10
-12.2107
 20
68.6044
 11
-12.0942
 21
68.2461
  0
LINE
  8
0
 10
-12.0942
 20
68.2461
 11
-12.0237
 21
67.876
  0
LINE
  8
0
 10
-12.0237
 20
67.876
 11
-12
 21
67.5
  0
LINE
  8
0
 10
-12
 20
67.5
 11
-12.0237
 21
67.124
  0
LINE
  8
0
 10
-12.0237
 20
67.124
 11
-12.0942
 21
66.7539
  0
LINE
  8
0
 10
-12.0942
 20
66.7539
 11
-12.2107
 21
66.3956
  0
LINE
  8
0
 10
-12.2107
 20
66.3956
 11
-12.3711
 21
66.0547
  0
LINE
  8
0
 10
-12.3711
 20
66.0547
 11
-12.5729
 21
65.7366
  0
LINE
  8
0
 10
-12.5729
 20
65.7366
 11
-12.8131
 21
65.4464
  0
LINE
  8
0
 10
-12.8131
 20
65.4464
 11
-13.0877
 21
65.1884
  0
LINE
  8
0
 10
-13.0877
 20
65.1884
 11
-13.3925
 21
64.967
  0
LINE
  8
0
 10
-13.3925
 20
64.967
 11
-13.7227
 21
64.7855
  0
LINE
  8
0
 10
-13.7227
 20
64.7855
 11
-14.0729
 21
64.6468
  0
LINE
  8
0
 10
-14.0729
 20
64.6468
 11
-14.4379
 21
64.5531
  0
LINE
  8
0
 10
-14.4379
 20
64.5531
 11
-14.8116
 21
64.5059
  0
LINE
  8
0
 10
-14.8116
 20
64.5059
 11
-15.1884
 21
64.5059
  0
LINE
  8
0
 10
-30.1884
 20
64.5059
 11
-30.5621
 21
64.5531
  0
LINE
  8
0
 10
-30.5621
 20
64.5531
 11
-30.927
 21
64.6468
  0
LINE
  8
0
 10
-30.927
 20
64.6468
 11
-31.2773
 21
64.7855
  0
LINE
  8
0
 10
-31.2773
 20
64.7855
 11
-31.6075
 21
64.967
  0
LINE
  8
0
 10
-31.6075
 20
64.967
 11
-31.9123
 21
65.1884
  0
LINE
  8
0
 10
-31.9123
 20
65.1884
 11
-32.1869
 21
65.4464
  0
LINE
  8
0
 10
-32.1869
 20
65.4464
 11
-32.427
 21
65.7366
  0
LINE
  8
0
 10
-32.427
 20
65.7366
 11
-32.6289
 21
66.0547
  0
LINE
  8
0
 10
-32.6289
 20
66.0547
 11
-32.7893
 21
66.3956
  0
LINE
  8
0
 10
-32.7893
 20
66.3956
 11
-32.9057
 21
66.7539
  0
LINE
  8
0
 10
-32.9057
 20
66.7539
 11
-32.9763
 21
67.124
  0
LINE
  8
0
 10
-32.9763
 20
67.124
 11
-33
 21
67.5
  0
LINE
  8
0
 10
-33
 20
67.5
 11
-32.9763
 21
67.876
  0
LINE
  8
0
 10
-32.9763
 20
67.876
 11
-32.9057
 21
68.2461
  0
LINE
  8
0
 10
-32.9057
 20
68.2461
 11
-32.7893
 21
68.6044
  0
LINE
  8
0
 10
-32.7893
 20
68.6044
 11
-32.6289
 21
68.9453
  0
LINE
  8
0
 10
-32.6289
 20
68.9453
 11
-32.427
 21
69.2634
  0
LINE
  8
0
 10
-32.427
 20
69.2634
 11
-32.1869
 21
69.5536
  0
LINE
  8
0
 10
-32.1869
 20
69.5536
 11
-31.9123
 21
69.8115
  0
LINE
  8
0
 10
-31.9123
 20
69.8115
 11
-31.6075
 21
70.033
  0
LINE
  8
0
 10
-31.6075
 20
70.033
 11
-31.2773
 21
70.2145
  0
LINE
  8
0
 10
-31.2773
 20
70.2145
 11
-30.927
 21
70.3532
  0
LINE
  8
0
 10
-30.927
 20
70.3532
 11
-30.5621
 21
70.4469
  0
LINE
  8
0
 10
-30.5621
 20
70.4469
 11
-30.1884
 21
70.4941
  0
LINE
  8
0
 10
-30.1884
 20
70.4941
 11
-29.8116
 21
70.4941
  0
LINE
  8
0
 10
-29.8116
 20
70.4941
 11
-29.4379
 21
70.4469
  0
LINE
  8
0
 10
-29.4379
 20
70.4469
 11
-29.0729
 21
70.3532
  0
LINE
  8
0
 10
-29.0729
 20
70.3532
 11
-28.7227
 21
70.2145
  0
LINE
  8
0
 10
-28.7227
 20
70.2145
 11
-28.3925
 21
70.033
  0
LINE
  8
0
 10
-28.3925
 20
70.033
 11
-28.0877
 21
69.8115
  0
LINE
  8
0
 10
-28.0877
 20
69.8115
 11
-27.8131
 21
69.5536
  0
LINE
  8
0
 10
-27.8131
 20
69.5536
 11
-27.5729
 21
69.2634
  0
LINE
  8
0
 10
-27.5729
 20
69.2634
 11
-27.3711
 21
68.9453
  0
LINE
  8
0
 10
-27.3711
 20
68.9453
 11
-27.2107
 21
68.6044
  0
LINE
  8
0
 10
-27.2107
 20
68.6044
 11
-27.0942
 21
68.2461
  0
LINE
  8
0
 10
-27.0942
 20
68.2461
 11
-27.0237
 21
67.876
  0
LINE
  8
0
 10
-27.0237
 20
67.876
 11
-27
 21
67.5
  0
LINE
  8
0
 10
-27
 20
67.5
 11
-27.0237
 21
67.124
  0
LINE
  8
0
 10
-27.0237
 20
67.124
 11
-27.0942
 21
66.7539
  0
LINE
  8
0
 10
-27.0942
 20
66.7539
 11
-27.2107
 21
66.3956
  0
LINE
  8
0
 10
-27.2107
 20
66.3956
 11
-27.3711
 21
66.0547
  0
LINE
  8
0
 10
-27.3711
 20
66.0547
 11
-27.5729
 21
65.7366
  0
LINE
  8
0
 10
-27.5729
 20
65.7366
 11
-27.8131
 21
65.4464
  0
LINE
  8
0
 10
-27.8131
 20
65.4464
 11
-28.0877
 21
65.1884
  0
LINE
  8
0
 10
-28.0877
 20
65.1884
 11
-28.3925
 21
64.967
  0
LINE
  8
0
 10
-28.3925
 20
64.967
 11
-28.7227
 21
64.7855
  0
LINE
  8
0
 10
-28.7227
 20
64.7855
 11
-29.0729
 21
64.6468
  0
LINE
  8
0
 10
-29.0729
 20
64.6468
 11
-29.4379
 21
64.5531
  0
LINE
  8
0
 10
-29.4379
 20
64.5531
 11
-29.8116
 21
64.5059
  0
LINE
  8
0
 10
-29.8116
 20
64.5059
 11
-30.1884
 21
64.5059
  0
LINE
  8
0
 10
29.8116
 20
64.5059
 11
29.4379
 21
64.5531
  0
LINE
  8
0
 10
29.4379
 20
64.5531
 11
29.0729
 21
64.6468
  0
LINE
  8
0
 10
29.0729
 20
64.6468
 11
28.7227
 21
64.7855
  0
LINE
  8
0
 10
28.7227
 20
64.7855
 11
28.3925
 21
64.967
  0
LINE
  8
0
 10
28.3925
 20
64.967
 11
28.0877
 21
65.1884
  0
LINE
  8
0
 10
28.0877
 20
65.1884
 11
27.8131
 21
65.4464
  0
LINE
  8
0
 10
27.8131
 20
65.4464
 11
27.5729
 21
65.7366
  0
LINE
  8
0
 10
27.5729
 20
65.7366
 11
27.3711
 21
66.0547
  0
LINE
  8
0
 10
27.3711
 20
66.0547
 11
27.2107
 21
66.3956
  0
LINE
  8
0
 10
27.2107
 20
66.3956
 11
27.0942
 21
66.7539
  0
LINE
  8
0
 10
27.0942
 20
66.7539
 11
27.0237
 21
67.124
  0
LINE
  8
0
 10
27.0237
 20
67.124
 11
27
 21
67.5
  0
LINE
  8
0
 10
27
 20
67.5
 11
27.0237
 21
67.876
  0
LINE
  8
0
 10
27.0237
 20
67.876
 11
27.0942
 21
68.2461
  0
LINE
  8
0
 10
27.0942
 20
68.2461
 11
27.2107
 21
68.6044
  0
LINE
  8
0
 10
27.2107
 20
68.6044
 11
27.3711
 21
68.9453
  0
LINE
  8
0
 10
27.3711
 20
68.9453
 11
27.5729
 21
69.2634
  0
LINE
  8
0
 10
27.5729
 20
69.2634
 11
27.8131
 21
69.5536
  0
LINE
  8
0
 10
27.8131
 20
69.5536
 11
28.0877
 21
69.8115
  0
LINE
  8
0
 10
28.0877
 20
69.8115
 11
28.3925
 21
70.033
  0
LINE
  8
0
 10
28.3925
 20
70.033
 11
28.7227
 21
70.2145
  0
LINE
  8
0
 10
28.7227
 20
70.2145
 11
29.0729
 21
70.3532
  0
LINE
  8
0
 10
29.0729
 20
70.3532
 11
29.4379
 21
70.4469
  0
LINE
  8
0
 10
29.4379
 20
70.4469
 11
29.8116
 21
70.4941
  0
LINE
  8
0
 10
29.8116
 20
70.4941
 11
30.1884
 21
70.4941
  0
LINE
  8
0
 10
30.1884
 20
70.4941
 11
30.5621
 21
70.4469
  0
LINE
  8
0
 10
30.5621
 20
70.4469
 11
30.927
 21
70.3532
  0
LINE
  8
0
 10
30.927
 20
70.3532
 11
31.2773
 21
70.2145
  0
LINE
  8
0
 10
31.2773
 20
70.2145
 11
31.6075
 21
70.033
  0
LINE
  8
0
 10
31.6075
 20
70.033
 11
31.9123
 21
69.8115
  0
LINE
  8
0
 10
31.9123
 20
69.8115
 11
32.1869
 21
69.5536
  0
LINE
  8
0
 10
32.1869
 20
69.5536
 11
32.427
 21
69.2634
  0
LINE
  8
0
 10
32.427
 20
69.2634
 11
32.6289
 21
68.9453
  0
LINE
  8
0
 10
32.6289
 20
68.9453
 11
32.7893
 21
68.6044
  0
LINE
  8
0
 10
32.7893
 20
68.6044
 11
32.9057
 21
68.2461
  0
LINE
  8
0
 10
32.9057
 20
68.2461
 11
32.9763
 21
67.876
  0
LINE
  8
0
 10
32.9763
 20
67.876
 11
33
 21
67.5
  0
LINE
  8
0
 10
33
 20
67.5
 11
32.9763
 21
67.124
  0
LINE
  8
0
 10
32.9763
 20
67.124
 11
32.9057
 21
66.7539
  0
LINE
  8
0
 10
32.9057
 20
66.7539
 11
32.7893
 21
66.3956
  0
LINE
  8
0
 10
32.7893
 20
66.3956
 11
32.6289
 21
66.0547
  0
LINE
  8
0
 10
32.6289
 20
66.0547
 11
32.427
 21
65.7366
  0
LINE
  8
0
 10
32.427
 20
65.7366
 11
32.1869
 21
65.4464
  0
LINE
  8
0
 10
32.1869
 20
65.4464
 11
31.9123
 21
65.1884
  0
LINE
  8
0
 10
31.9123
 20
65.1884
 11
31.6075
 21
64.967
  0
LINE
  8
0
 10
31.6075
 20
64.967
 11
31.2773
 21
64.7855
  0
LINE
  8
0
 10
31.2773
 20
64.7855
 11
30.927
 21
64.6468
  0
LINE
  8
0
 10
30.927
 20
64.6468
 11
30.5621
 21
64.5531
  0
LINE
  8
0
 10
30.5621
 20
64.5531
 11
30.1884
 21
64.5059
  0
LINE
  8
0
 10
30.1884
 20
64.5059
 11
29.8116
 21
64.5059
  0
LINE
  8
0
 10
14.8116
 20
64.5059
 11
14.4379
 21
64.5531
  0
LINE
  8
0
 10
14.4379
 20
64.5531
 11
14.0729
 21
64.6468
  0
LINE
  8
0
 10
14.0729
 20
64.6468
 11
13.7227
 21
64.7855
  0
LINE
  8
0
 10
13.7227
 20
64.7855
 11
13.3925
 21
64.967
  0
LINE
  8
0
 10
13.3925
 20
64.967
 11
13.0877
 21
65.1884
  0
LINE
  8
0
 10
13.0877
 20
65.1884
 11
12.8131
 21
65.4464
  0
LINE
  8
0
 10
12.8131
 20
65.4464
 11
12.5729
 21
65.7366
  0
LINE
  8
0
 10
12.5729
 20
65.7366
 11
12.3711
 21
66.0547
  0
LINE
  8
0
 10
12.3711
 20
66.0547
 11
12.2107
 21
66.3956
  0
LINE
  8
0
 10
12.2107
 20
66.3956
 11
12.0942
 21
66.7539
  0
LINE
  8
0
 10
12.0942
 20
66.7539
 11
12.0237
 21
67.124
  0
LINE
  8
0
 10
12.0237
 20
67.124
 11
12
 21
67.5
  0
LINE
  8
0
 10
12
 20
67.5
 11
12.0237
 21
67.876
  0
LINE
  8
0
 10
12.0237
 20
67.876
 11
12.0942
 21
68.2461
  0
LINE
  8
0
 10
12.0942
 20
68.2461
 11
12.2107
 21
68.6044
  0
LINE
  8
0
 10
12.2107
 20
68.6044
 11
12.3711
 21
68.9453
  0
LINE
  8
0
 10
12.3711
 20
68.9453
 11
12.5729
 21
69.2634
  0
LINE
  8
0
 10
12.5729
 20
69.2634
 11
12.8131
 21
69.5536
  0
LINE
  8
0
 10
12.8131
 20
69.5536
 11
13.0877
 21
69.8115
  0
LINE
  8
0
 10
13.0877
 20
69.8115
 11
13.3925
 21
70.033
  0
LINE
  8
0
 10
13.3925
 20
70.033
 11
13.7227
 21
70.2145
  0
LINE
  8
0
 10
13.7227
 20
70.2145
 11
14.0729
 21
70.3532
  0
LINE
  8
0
 10
14.0729
 20
70.3532
 11
14.4379
 21
70.4469
  0
LINE
  8
0
 10
14.4379
 20
70.4469
 11
14.8116
 21
70.4941
  0
LINE
  8
0
 10
14.8116
 20
70.4941
 11
15.1884
 21
70.4941
  0
LINE
  8
0
 10
15.1884
 20
70.4941
 11
15.5621
 21
70.4469
  0
LINE
  8
0
 10
15.5621
 20
70.4469
 11
15.927
 21
70.3532
  0
LINE
  8
0
 10
15.927
 20
70.3532
 11
16.2773
 21
70.2145
  0
LINE
  8
0
 10
16.2773
 20
70.2145
 11
16.6075
 21
70.033
  0
LINE
  8
0
 10
16.6075
 20
70.033
 11
16.9123
 21
69.8115
  0
LINE
  8
0
 10
16.9123
 20
69.8115
 11
17.1869
 21
69.5536
  0
LINE
  8
0
 10
17.1869
 20
69.5536
 11
17.427
 21
69.2634
  0
LINE
  8
0
 10
17.427
 20
69.2634
 11
17.6289
 21
68.9453
  0
LINE
  8
0
 10
17.6289
 20
68.9453
 11
17.7893
 21
68.6044
  0
LINE
  8
0
 10
17.7893
 20
68.6044
 11
17.9057
 21
68.2461
  0
LINE
  8
0
 10
17.9057
 20
68.2461
 11
17.9763
 21
67.876
  0
LINE
  8
0
 10
17.9763
 20
67.876
 11
18
 21
67.5
  0
LINE
  8
0
 10
18
 20
67.5
 11
17.9763
 21
67.124
  0
LINE
  8
0
 10
17.9763
 20
67.124
 11
17.9057
 21
66.7539
  0
LINE
  8
0
 10
17.9057
 20
66.7539
 11
17.7893
 21
66.3956
  0
LINE
  8
0
 10
17.7893
 20
66.3956
 11
17.6289
 21
66.0547
  0
LINE
  8
0
 10
17.6289
 20
66.0547
 11
17.427
 21
65.7366
  0
LINE
  8
0
 10
17.427
 20
65.7366
 11
17.1869
 21
65.4464
  0
LINE
  8
0
 10
17.1869
 20
65.4464
 11
16.9123
 21
65.1884
  0
LINE
  8
0
 10
16.9123
 20
65.1884
 11
16.6075
 21
64.967
  0
LINE
  8
0
 10
16.6075
 20
64.967
 11
16.2773
 21
64.7855
  0
LINE
  8
0
 10
16.2773
 20
64.7855
 11
15.927
 21
64.6468
  0
LINE
  8
0
 10
15.927
 20
64.6468
 11
15.5621
 21
64.5531
  0
LINE
  8
0
 10
15.5621
 20
64.5531
 11
15.1884
 21
64.5059
  0
LINE
  8
0
 10
15.1884
 20
64.5059
 11
14.8116
 21
64.5059
  0
LINE
  8
0
 10
-7.59418
 20
51.0029
 11
-7.78107
 21
51.0266
  0
LINE
  8
0
 10
-7.78107
 20
51.0266
 11
-7.96352
 21
51.0734
  0
LINE
  8
0
 10
-7.96352
 20
51.0734
 11
-8.13866
 21
51.1427
  0
LINE
  8
0
 10
-8.13866
 20
51.1427
 11
-8.30373
 21
51.2335
  0
LINE
  8
0
 10
-8.30373
 20
51.2335
 11
-8.45613
 21
51.3442
  0
LINE
  8
0
 10
-8.45613
 20
51.3442
 11
-8.59344
 21
51.4732
  0
LINE
  8
0
 10
-8.59344
 20
51.4732
 11
-8.71352
 21
51.6183
  0
LINE
  8
0
 10
-8.71352
 20
51.6183
 11
-8.81445
 21
51.7774
  0
LINE
  8
0
 10
-8.81445
 20
51.7774
 11
-8.89465
 21
51.9478
  0
LINE
  8
0
 10
-8.89465
 20
51.9478
 11
-8.95287
 21
52.127
  0
LINE
  8
0
 10
-8.95287
 20
52.127
 11
-8.98816
 21
52.312
  0
LINE
  8
0
 10
-8.98816
 20
52.312
 11
-9
 21
52.5
  0
LINE
  8
0
 10
-9
 20
52.5
 11
-8.98816
 21
52.688
  0
LINE
  8
0
 10
-8.98816
 20
52.688
 11
-8.95287
 21
52.873
  0
LINE
  8
0
 10
-8.95287
 20
52.873
 11
-8.89465
 21
53.0522
  0
LINE
  8
0
 10
-8.89465
 20
53.0522
 11
-8.81445
 21
53.2226
  0
LINE
  8
0
 10
-8.81445
 20
53.2226
 11
-8.71352
 21
53.3817
  0
LINE
  8
0
 10
-8.71352
 20
53.3817
 11
-8.59344
 21
53.5268
  0
LINE
  8
0
 10
-8.59344
 20
53.5268
 11
-8.45613
 21
53.6558
  0
LINE
  8
0
 10
-8.45613
 20
53.6558
 11
-8.30373
 21
53.7665
  0
LINE
  8
0
 10
-8.30373
 20
53.7665
 11
-8.13866
 21
53.8572
  0
LINE
  8
0
 10
-8.13866
 20
53.8572
 11
-7.96352
 21
53.9266
  0
LINE
  8
0
 10
-7.96352
 20
53.9266
 11
-7.78107
 21
53.9734
  0
LINE
  8
0
 10
-7.78107
 20
53.9734
 11
-7.59418
 21
53.997
  0
LINE
  8
0
 10
-7.59418
 20
53.997
 11
-7.40581
 21
53.997
  0
LINE
  8
0
 10
-7.40581
 20
53.997
 11
-7.21892
 21
53.9734
  0
LINE
  8
0
 10
-7.21892
 20
53.9734
 11
-7.03647
 21
53.9266
  0
LINE
  8
0
 10
-7.03647
 20
53.9266
 11
-6.86133
 21
53.8572
  0
LINE
  8
0
 10
-6.86133
 20
53.8572
 11
-6.69626
 21
53.7665
  0
LINE
  8
0
 10
-6.69626
 20
53.7665
 11
-6.54385
 21
53.6558
  0
LINE
  8
0
 10
-6.54385
 20
53.6558
 11
-6.40654
 21
53.5268
  0
LINE
  8
0
 10
-6.40654
 20
53.5268
 11
-6.28647
 21
53.3817
  0
LINE
  8
0
 10
-6.28647
 20
53.3817
 11
-6.18553
 21
53.2226
  0
LINE
  8
0
 10
-6.18553
 20
53.2226
 11
-6.10533
 21
53.0522
  0
LINE
  8
0
 10
-6.10533
 20
53.0522
 11
-6.04712
 21
52.873
  0
LINE
  8
0
 10
-6.04712
 20
52.873
 11
-6.01183
 21
52.688
  0
LINE
  8
0
 10
-6.01183
 20
52.688
 11
-6
 21
52.5
  0
LINE
  8
0
 10
-6
 20
52.5
 11
-6.01183
 21
52.312
  0
LINE
  8
0
 10
-6.01183
 20
52.312
 11
-6.04712
 21
52.127
  0
LINE
  8
0
 10
-6.04712
 20
52.127
 11
-6.10533
 21
51.9478
  0
LINE
  8
0
 10
-6.10533
 20
51.9478
 11
-6.18553
 21
51.7774
  0
LINE
  8
0
 10
-6.18553
 20
51.7774
 11
-6.28647
 21
51.6183
  0
LINE
  8
0
 10
-6.28647
 20
51.6183
 11
-6.40654
 21
51.4732
  0
LINE
  8
0
 10
-6.40654
 20
51.4732
 11
-6.54385
 21
51.3442
  0
LINE
  8
0
 10
-6.54385
 20
51.3442
 11
-6.69626
 21
51.2335
  0
LINE
  8
0
 10
-6.69626
 20
51.2335
 11
-6.86133
 21
51.1427
  0
LINE
  8
0
 10
-6.86133
 20
51.1427
 11
-7.03647
 21
51.0734
  0
LINE
  8
0
 10
-7.03647
 20
51.0734
 11
-7.21892
 21
51.0266
  0
LINE
  8
0
 10
-7.21892
 20
51.0266
 11
-7.40581
 21
51.0029
  0
LINE
  8
0
 10
-7.40581
 20
51.0029
 11
-7.59418
 21
51.0029
  0
LINE
  8
0
 10
-22.5942
 20
51.0029
 11
-22.7811
 21
51.0266
  0
LINE
  8
0
 10
-22.7811
 20
51.0266
 11
-22.9635
 21
51.0734
  0
LINE
  8
0
 10
-22.9635
 20
51.0734
 11
-23.1387
 21
51.1427
  0
LINE
  8
0
 10
-23.1387
 20
51.1427
 11
-23.3037
 21
51.2335
  0
LINE
  8
0
 10
-23.3037
 20
51.2335
 11
-23.4561
 21
51.3442
  0
LINE
  8
0
 10
-23.4561
 20
51.3442
 11
-23.5934
 21
51.4732
  0
LINE
  8
0
 10
-23.5934
 20
51.4732
 11
-23.7135
 21
51.6183
  0
LINE
  8
0
 10
-23.7135
 20
51.6183
 11
-23.8145
 21
51.7774
  0
LINE
  8
0
 10
-23.8145
 20
51.7774
 11
-23.8947
 21
51.9478
  0
LINE
  8
0
 10
-23.8947
 20
51.9478
 11
-23.9529
 21
52.127
  0
LINE
  8
0
 10
-23.9529
 20
52.127
 11
-23.9882
 21
52.312
  0
LINE
  8
0
 10
-23.9882
 20
52.312
 11
-24
 21
52.5
  0
LINE
  8
0
 10
-24
 20
52.5
 11
-23.9882
 21
52.688
  0
LINE
  8
0
 10
-23.9882
 20
52.688
 11
-23.9529
 21
52.873
  0
LINE
  8
0
 10
-23.9529
 20
52.873
 11
-23.8947
 21
53.0522
  0
LINE
  8
0
 10
-23.8947
 20
53.0522
 11
-23.8145
 21
53.2226
  0
LINE
  8
0
 10
-23.8145
 20
53.2226
 11
-23.7135
 21
53.3817
  0
LINE
  8
0
 10
-23.7135
 20
53.3817
 11
-23.5934
 21
53.5268
  0
LINE
  8
0
 10
-23.5934
 20
53.5268
 11
-23.4561
 21
53.6558
  0
LINE
  8
0
 10
-23.4561
 20
53.6558
 11
-23.3037
 21
53.7665
  0
LINE
  8
0
 10
-23.3037
 20
53.7665
 11
-23.1387
 21
53.8572
  0
LINE
  8
0
 10
-23.1387
 20
53.8572
 11
-22.9635
 21
53.9266
  0
LINE
  8
0
 10
-22.9635
 20
53.9266
 11
-22.7811
 21
53.9734
  0
LINE
  8
0
 10
-22.7811
 20
53.9734
 11
-22.5942
 21
53.997
  0
LINE
  8
0
 10
-22.5942
 20
53.997
 11
-22.4058
 21
53.997
  0
LINE
  8
0
 10
-22.4058
 20
53.997
 11
-22.2189
 21
53.9734
  0
LINE
  8
0
 10
-22.2189
 20
53.9734
 11
-22.0365
 21
53.9266
  0
LINE
  8
0
 10
-22.0365
 20
53.9266
 11
-21.8613
 21
53.8572
  0
LINE
  8
0
 10
-21.8613
 20
53.8572
 11
-21.6963
 21
53.7665
  0
LINE
  8
0
 10
-21.6963
 20
53.7665
 11
-21.5439
 21
53.6558
  0
LINE
  8
0
 10
-21.5439
 20
53.6558
 11
-21.4065
 21
53.5268
  0
LINE
  8
0
 10
-21.4065
 20
53.5268
 11
-21.2865
 21
53.3817
  0
LINE
  8
0
 10
-21.2865
 20
53.3817
 11
-21.1855
 21
53.2226
  0
LINE
  8
0
 10
-21.1855
 20
53.2226
 11
-21.1053
 21
53.0522
  0
LINE
  8
0
 10
-21.1053
 20
53.0522
 11
-21.0471
 21
52.873
  0
LINE
  8
0
 10
-21.0471
 20
52.873
 11
-21.0118
 21
52.688
  0
LINE
  8
0
 10
-21.0118
 20
52.688
 11
-21
 21
52.5
  0
LINE
  8
0
 10
-21
 20
52.5
 11
-21.0118
 21
52.312
  0
LINE
  8
0
 10
-21.0118
 20
52.312
 11
-21.0471
 21
52.127
  0
LINE
  8
0
 10
-21.0471
 20
52.127
 11
-21.1053
 21
51.9478
  0
LINE
  8
0
 10
-21.1053
 20
51.9478
 11
-21.1855
 21
51.7774
  0
LINE
  8
0
 10
-21.1855
 20
51.7774
 11
-21.2865
 21
51.6183
  0
LINE
  8
0
 10
-21.2865
 20
51.6183
 11
-21.4065
 21
51.4732
  0
LINE
  8
0
 10
-21.4065
 20
51.4732
 11
-21.5439
 21
51.3442
  0
LINE
  8
0
 10
-21.5439
 20
51.3442
 11
-21.6963
 21
51.2335
  0
LINE
  8
0
 10
-21.6963
 20
51.2335
 11
-21.8613
 21
51.1427
  0
LINE
  8
0
 10
-21.8613
 20
51.1427
 11
-22.0365
 21
51.0734
  0
LINE
  8
0
 10
-22.0365
 20
51.0734
 11
-22.2189
 21
51.0266
  0
LINE
  8
0
 10
-22.2189
 20
51.0266
 11
-22.4058
 21
51.0029
  0
LINE
  8
0
 10
-22.4058
 20
51.0029
 11
-22.5942
 21
51.0029
  0
LINE
  8
0
 10
7.40581
 20
51.0029
 11
7.21892
 21
51.0266
  0
LINE
  8
0
 10
7.21892
 20
51.0266
 11
7.03647
 21
51.0734
  0
LINE
  8
0
 10
7.03647
 20
51.0734
 11
6.86133
 21
51.1427
  0
LINE
  8
0
 10
6.86133
 20
51.1427
 11
6.69626
 21
51.2335
  0
LINE
  8
0
 10
6.69626
 20
51.2335
 11
6.54385
 21
51.3442
  0
LINE
  8
0
 10
6.54385
 20
51.3442
 11
6.40654
 21
51.4732
  0
LINE
  8
0
 10
6.40654
 20
51.4732
 11
6.28647
 21
51.6183
  0
LINE
  8
0
 10
6.28647
 20
51.6183
 11
6.18553
 21
51.7774
  0
LINE
  8
0
 10
6.18553
 20
51.7774
 11
6.10533
 21
51.9478
  0
LINE
  8
0
 10
6.10533
 20
51.9478
 11
6.04712
 21
52.127
  0
LINE
  8
0
 10
6.04712
 20
52.127
 11
6.01183
 21
52.312
  0
LINE
  8
0
 10
6.01183
 20
52.312
 11
6
 21
52.5
  0
LINE
  8
0
 10
6
 20
52.5
 11
6.01183
 21
52.688
  0
LINE
  8
0
 10
6.01183
 20
52.688
 11
6.04712
 21
52.873
  0
LINE
  8
0
 10
6.04712
 20
52.873
 11
6.10533
 21
53.0522
  0
LINE
  8
0
 10
6.10533
 20
53.0522
 11
6.18553
 21
53.2226
  0
LINE
  8
0
 10
6.18553
 20
53.2226
 11
6.28647
 21
53.3817
  0
LINE
  8
0
 10
6.28647
 20
53.3817
 11
6.40654
 21
53.5268
  0
LINE
  8
0
 10
6.40654
 20
53.5268
 11
6.54385
 21
53.6558
  0
LINE
  8
0
 10
6.54385
 20
53.6558
 11
6.69626
 21
53.7665
  0
LINE
  8
0
 10
6.69626
 20
53.7665
 11
6.86133
 21
53.8572
  0
LINE
  8
0
 10
6.86133
 20
53.8572
 11
7.03647
 21
53.9266
  0
LINE
  8
0
 10
7.03647
 20
53.9266
 11
7.21892
 21
53.9734
  0
LINE
  8
0
 10
7.21892
 20
53.9734
 11
7.40581
 21
53.997
  0
LINE
  8
0
 10
7.40581
 20
53.997
 11
7.59418
 21
53.997
  0
LINE
  8
0
 10
7.59418
 20
53.997
 11
7.78107
 21
53.9734
  0
LINE
  8
0
 10
7.78107
 20
53.9734
 11
7.96352
 21
53.9266
  0
LINE
  8
0
 10
7.96352
 20
53.9266
 11
8.13866
 21
53.8572
  0
LINE
  8
0
 10
8.13866
 20
53.8572
 11
8.30373
 21
53.7665
  0
LINE
  8
0
 10
8.30373
 20
53.7665
 11
8.45613
 21
53.6558
  0
LINE
  8
0
 10
8.45613
 20
53.6558
 11
8.59344
 21
53.5268
  0
LINE
  8
0
 10
8.59344
 20
53.5268
 11
8.71352
 21
53.3817
  0
LINE
  8
0
 10
8.71352
 20
53.3817
 11
8.81445
 21
53.2226
  0
LINE
  8
0
 10
8.81445
 20
53.2226
 11
8.89465
 21
53.0522
  0
LINE
  8
0
 10
8.89465
 20
53.0522
 11
8.95287
 21
52.873
  0
LINE
  8
0
 10
8.95287
 20
52.873
 11
8.98816
 21
52.688
  0
LINE
  8
0
 10
8.98816
 20
52.688
 11
9
 21
52.5
  0
LINE
  8
0
 10
9
 20
52.5
 11
8.98816
 21
52.312
  0
LINE
  8
0
 10
8.98816
 20
52.312
 11
8.95287
 21
52.127
  0
LINE
  8
0
 10
8.95287
 20
52.127
 11
8.89465
 21
51.9478
  0
LINE
  8
0
 10
8.89465
 20
51.9478
 11
8.81445
 21
51.7774
  0
LINE
  8
0
 10
8.81445
 20
51.7774
 11
8.71352
 21
51.6183
  0
LINE
  8
0
 10
8.71352
 20
51.6183
 11
8.59344
 21
51.4732
  0
LINE
  8
0
 10
8.59344
 20
51.4732
 11
8.45613
 21
51.3442
  0
LINE
  8
0
 10
8.45613
 20
51.3442
 11
8.30373
 21
51.2335
  0
LINE
  8
0
 10
8.30373
 20
51.2335
 11
8.13866
 21
51.1427
  0
LINE
  8
0
 10
8.13866
 20
51.1427
 11
7.96352
 21
51.0734
  0
LINE
  8
0
 10
7.96352
 20
51.0734
 11
7.78107
 21
51.0266
  0
LINE
  8
0
 10
7.78107
 20
51.0266
 11
7.59418
 21
51.0029
  0
LINE
  8
0
 10
7.59418
 20
51.0029
 11
7.40581
 21
51.0029
  0
LINE
  8
0
 10
37
 20
30.5
 11
36.9606
 21
31.1267
  0
LINE
  8
0
 10
36.9606
 20
31.1267
 11
36.8429
 21
31.7434
  0
LINE
  8
0
 10
36.8429
 20
31.7434
 11
36.6489
 21
32.3406
  0
LINE
  8
0
 10
36.6489
 20
32.3406
 11
36.3815
 21
32.9088
  0
LINE
  8
0
 10
36.3815
 20
32.9088
 11
36.0451
 21
33.4389
  0
LINE
  8
0
 10
36.0451
 20
33.4389
 11
35.6448
 21
33.9227
  0
LINE
  8
0
 10
35.6448
 20
33.9227
 11
35.1871
 21
34.3526
  0
LINE
  8
0
 10
35.1871
 20
34.3526
 11
34.6791
 21
34.7216
  0
LINE
  8
0
 10
34.6791
 20
34.7216
 11
34.1289
 21
35.0241
  0
LINE
  8
0
 10
34.1289
 20
35.0241
 11
33.5451
 21
35.2553
  0
LINE
  8
0
 10
33.5451
 20
35.2553
 11
32.9369
 21
35.4114
  0
LINE
  8
0
 10
32.9369
 20
35.4114
 11
32.3139
 21
35.4901
  0
LINE
  8
0
 10
32.3139
 20
35.4901
 11
-32.3139
 21
35.4901
  0
LINE
  8
0
 10
-32.3139
 20
35.4901
 11
-32.9369
 21
35.4114
  0
LINE
  8
0
 10
-32.9369
 20
35.4114
 11
-33.5451
 21
35.2553
  0
LINE
  8
0
 10
-33.5451
 20
35.2553
 11
-34.1289
 21
35.0241
  0
LINE
  8
0
 10
-34.1289
 20
35.0241
 11
-34.6791
 21
34.7216
  0
LINE
  8
0
 10
-34.6791
 20
34.7216
 11
-35.1871
 21
34.3526
  0
LINE
  8
0
 10
-35.1871
 20
34.3526
 11
-35.6448
 21
33.9227
  0
LINE
  8
0
 10
-35.6448
 20
33.9227
 11
-36.0451
 21
33.4389
  0
LINE
  8
0
 10
-36.0451
 20
33.4389
 11
-36.3815
 21
32.9088
  0
LINE
  8
0
 10
-36.3815
 20
32.9088
 11
-36.6489
 21
32.3406
  0
LINE
  8
0
 10
-36.6489
 20
32.3406
 11
-36.8429
 21
31.7434
  0
LINE
  8
0
 10
-36.8429
 20
31.7434
 11
-36.9606
 21
31.1267
  0
LINE
  8
0
 10
-36.9606
 20
31.1267
 11
-37
 21
30.5
  0
LINE
  8
0
 10
-37
 20
30.5
 11
-37
 21
0
  0
LINE
  8
0
 10
-37
 20
0
 11
37
 21
0
  0
LINE
  8
0
 10
37
 20
0
 11
37
 21
30.5
  0
LINE
  8
0
 10
-15.1884
 20
25.5059
 11
-15.5621
 21
25.5531
  0
LINE
  8
0
 10
-15.5621
 20
25.5531
 11
-15.927
 21
25.6468
  0
LINE
  8
0
 10
-15.927
 20
25.6468
 11
-16.2773
 21
25.7855
  0
LINE
  8
0
 10
-16.2773
 20
25.7855
 11
-16.6075
 21
25.967
  0
LINE
  8
0
 10
-16.6075
 20
25.967
 11
-16.9123
 21
26.1884
  0
LINE
  8
0
 10
-16.9123
 20
26.1884
 11
-17.1869
 21
26.4464
  0
LINE
  8
0
 10
-17.1869
 20
26.4464
 11
-17.427
 21
26.7366
  0
LINE
  8
0
 10
-17.427
 20
26.7366
 11
-17.6289
 21
27.0547
  0
LINE
  8
0
 10
-17.6289
 20
27.0547
 11
-17.7893
 21
27.3956
  0
LINE
  8
0
 10
-17.7893
 20
27.3956
 11
-17.9057
 21
27.7539
  0
LINE
  8
0
 10
-17.9057
 20
27.7539
 11
-17.9763
 21
28.124
  0
LINE
  8
0
 10
-17.9763
 20
28.124
 11
-18
 21
28.5
  0
LINE
  8
0
 10
-18
 20
28.5
 11
-17.9763
 21
28.876
  0
LINE
  8
0
 10
-17.9763
 20
28.876
 11
-17.9057
 21
29.2461
  0
LINE
  8
0
 10
-17.9057
 20
29.2461
 11
-17.7893
 21
29.6044
  0
LINE
  8
0
 10
-17.7893
 20
29.6044
 11
-17.6289
 21
29.9453
  0
LINE
  8
0
 10
-17.6289
 20
29.9453
 11
-17.427
 21
30.2634
  0
LINE
  8
0
 10
-17.427
 20
30.2634
 11
-17.1869
 21
30.5536
  0
LINE
  8
0
 10
-17.1869
 20
30.5536
 11
-16.9123
 21
30.8115
  0
LINE
  8
0
 10
-16.9123
 20
30.8115
 11
-16.6075
 21
31.033
  0
LINE
  8
0
 10
-16.6075
 20
31.033
 11
-16.2773
 21
31.2145
  0
LINE
  8
0
 10
-16.2773
 20
31.2145
 11
-15.927
 21
31.3532
  0
LINE
  8
0
 10
-15.927
 20
31.3532
 11
-15.5621
 21
31.4469
  0
LINE
  8
0
 10
-15.5621
 20
31.4469
 11
-15.1884
 21
31.4941
  0
LINE
  8
0
 10
-15.1884
 20
31.4941
 11
-14.8116
 21
31.4941
  0
LINE
  8
0
 10
-14.8116
 20
31.4941
 11
-14.4379
 21
31.4469
  0
LINE
  8
0
 10
-14.4379
 20
31.4469
 11
-14.0729
 21
31.3532
  0
LINE
  8
0
 10
-14.0729
 20
31.3532
 11
-13.7227
 21
31.2145
  0
LINE
  8
0
 10
-13.7227
 20
31.2145
 11
-13.3925
 21
31.033
  0
LINE
  8
0
 10
-13.3925
 20
31.033
 11
-13.0877
 21
30.8115
  0
LINE
  8
0
 10
-13.0877
 20
30.8115
 11
-12.8131
 21
30.5536
  0
LINE
  8
0
 10
-12.8131
 20
30.5536
 11
-12.5729
 21
30.2634
  0
LINE
  8
0
 10
-12.5729
 20
30.2634
 11
-12.3711
 21
29.9453
  0
LINE
  8
0
 10
-12.3711
 20
29.9453
 11
-12.2107
 21
29.6044
  0
LINE
  8
0
 10
-12.2107
 20
29.6044
 11
-12.0942
 21
29.2461
  0
LINE
  8
0
 10
-12.0942
 20
29.2461
 11
-12.0237
 21
28.876
  0
LINE
  8
0
 10
-12.0237
 20
28.876
 11
-12
 21
28.5
  0
LINE
  8
0
 10
-12
 20
28.5
 11
-12.0237
 21
28.124
  0
LINE
  8
0
 10
-12.0237
 20
28.124
 11
-12.0942
 21
27.7539
  0
LINE
  8
0
 10
-12.0942
 20
27.7539
 11
-12.2107
 21
27.3956
  0
LINE
  8
0
 10
-12.2107
 20
27.3956
 11
-12.3711
 21
27.0547
  0
LINE
  8
0
 10
-12.3711
 20
27.0547
 11
-12.5729
 21
26.7366
  0
LINE
  8
0
 10
-12.5729
 20
26.7366
 11
-12.8131
 21
26.4464
  0
LINE
  8
0
 10
-12.8131
 20
26.4464
 11
-13.0877
 21
26.1884
  0
LINE
  8
0
 10
-13.0877
 20
26.1884
 11
-13.3925
 21
25.967
  0
LINE
  8
0
 10
-13.3925
 20
25.967
 11
-13.7227
 21
25.7855
  0
LINE
  8
0
 10
-13.7227
 20
25.7855
 11
-14.0729
 21
25.6468
  0
LINE
  8
0
 10
-14.0729
 20
25.6468
 11
-14.4379
 21
25.5531
  0
LINE
  8
0
 10
-14.4379
 20
25.5531
 11
-14.8116
 21
25.5059
  0
LINE
  8
0
 10
-14.8116
 20
25.5059
 11
-15.1884
 21
25.5059
  0
LINE
  8
0
 10
-30.1884
 20
25.5059
 11
-30.5621
 21
25.5531
  0
LINE
  8
0
 10
-30.5621
 20
25.5531
 11
-30.927
 21
25.6468
  0
LINE
  8
0
 10
-30.927
 20
25.6468
 11
-31.2773
 21
25.7855
  0
LINE
  8
0
 10
-31.2773
 20
25.7855
 11
-31.6075
 21
25.967
  0
LINE
  8
0
 10
-31.6075
 20
25.967
 11
-31.9123
 21
26.1884
  0
LINE
  8
0
 10
-31.9123
 20
26.1884
 11
-32.1869
 21
26.4464
  0
LINE
  8
0
 10
-32.1869
 20
26.4464
 11
-32.427
 21
26.7366
  0
LINE
  8
0
 10
-32.427
 20
26.7366
 11
-32.6289
 21
27.0547
  0
LINE
  8
0
 10
-32.6289
 20
27.0547
 11
-32.7893
 21
27.3956
  0
LINE
  8
0
 10
-32.7893
 20
27.3956
 11
-32.9057
 21
27.7539
  0
LINE
  8
0
 10
-32.9057
 20
27.7539
 11
-32.9763
 21
28.124
  0
LINE
  8
0
 10
-32.9763
 20
28.124
 11
-33
 21
28.5
  0
LINE
  8
0
 10
-33
 20
28.5
 11
-32.9763
 21
28.876
  0
LINE
  8
0
 10
-32.9763
 20
28.876
 11
-32.9057
 21
29.2461
  0
LINE
  8
0
 10
-32.9057
 20
29.2461
 11
-32.7893
 21
29.6044
  0
LINE
  8
0
 10
-32.7893
 20
29.6044
 11
-32.6289
 21
29.9453
  0
LINE
  8
0
 10
-32.6289
 20
29.9453
 11
-32.427
 21
30.2634
  0
LINE
  8
0
 10
-32.427
 20
30.2634
 11
-32.1869
 21
30.5536
  0
LINE
  8
0
 10
-32.1869
 20
30.5536
 11
-31.9123
 21
30.8115
  0
LINE
  8
0
 10
-31.9123
 20
30.8115
 11
-31.6075
 21
31.033
  0
LINE
  8
0
 10
-31.6075
 20
31.033
 11
-31.2773
 21
31.2145
  0
LINE
  8
0
 10
-31.2773
 20
31.2145
 11
-30.927
 21
31.3532
  0
LINE
  8
0
 10
-30.927
 20
31.3532
 11
-30.5621
 21
31.4469
  0
LINE
  8
0
 10
-30.5621
 20
31.4469
 11
-30.1884
 21
31.4941
  0
LINE
  8
0
 10
-30.1884
 20
31.4941
 11
-29.8116
 21
31.4941
  0
LINE
  8
0
 10
-29.8116
 20
31.4941
 11
-29.4379
 21
31.4469
  0
LINE
  8
0
 10
-29.4379
 20
31.4469
 11
-29.0729
 21
31.3532
  0
LINE
  8
0
 10
-29.0729
 20
31.3532
 11
-28.7227
 21
31.2145
  0
LINE
  8
0
 10
-28.7227
 20
31.2145
 11
-28.3925
 21
31.033
  0
LINE
  8
0
 10
-28.3925
 20
31.033
 11
-28.0877
 21
30.8115
  0
LINE
  8
0
 10
-28.0877
 20
30.8115
 11
-27.8131
 21
30.5536
  0
LINE
  8
0
 10
-27.8131
 20
30.5536
 11
-27.5729
 21
30.2634
  0
LINE
  8
0
 10
-27.5729
 20
30.2634
 11
-27.3711
 21
29.9453
  0
LINE
  8
0
 10
-27.3711
 20
29.9453
 11
-27.2107
 21
29.6044
  0
LINE
  8
0
 10
-27.2107
 20
29.6044
 11
-27.0942
 21
29.2461
  0
LINE
  8
0
 10
-27.0942
 20
29.2461
 11
-27.0237
 21
28.876
  0
LINE
  8
0
 10
-27.0237
 20
28.876
 11
-27
 21
28.5
  0
LINE
  8
0
 10
-27
 20
28.5
 11
-27.0237
 21
28.124
  0
LINE
  8
0
 10
-27.0237
 20
28.124
 11
-27.0942
 21
27.7539
  0
LINE
  8
0
 10
-27.0942
 20
27.7539
 11
-27.2107
 21
27.3956
  0
LINE
  8
0
 10
-27.2107
 20
27.3956
 11
-27.3711
 21
27.0547
  0
LINE
  8
0
 10
-27.3711
 20
27.0547
 11
-27.5729
 21
26.7366
  0
LINE
  8
0
 10
-27.5729
 20
26.7366
 11
-27.8131
 21
26.4464
  0
LINE
  8
0
 10
-27.8131
 20
26.4464
 11
-28.0877
 21
26.1884
  0
LINE
  8
0
 10
-28.0877
 20
26.1884
 11
-28.3925
 21
25.967
  0
LINE
  8
0
 10
-28.3925
 20
25.967
 11
-28.7227
 21
25.7855
  0
LINE
  8
0
 10
-28.7227
 20
25.7855
 11
-29.0729
 21
25.6468
  0
LINE
  8
0
 10
-29.0729
 20
25.6468
 11
-29.4379
 21
25.5531
  0
LINE
  8
0
 10
-29.4379
 20
25.5531
 11
-29.8116
 21
25.5059
  0
LINE
  8
0
 10
-29.8116
 20
25.5059
 11
-30.1884
 21
25.5059
  0
LINE
  8
0
 10
-0.18837
 20
25.5059
 11
-0.562134
 21
25.5531
  0
LINE
  8
0
 10
-0.562134
 20
25.5531
 11
-0.927048
 21
25.6468
  0
LINE
  8
0
 10
-0.927048
 20
25.6468
 11
-1.27733
 21
25.7855
  0
LINE
  8
0
 10
-1.27733
 20
25.7855
 11
-1.60747
 21
25.967
  0
LINE
  8
0
 10
-1.60747
 20
25.967
 11
-1.91226
 21
26.1884
  0
LINE
  8
0
 10
-1.91226
 20
26.1884
 11
-2.1869
 21
26.4464
  0
LINE
  8
0
 10
-2.1869
 20
26.4464
 11
-2.42705
 21
26.7366
  0
LINE
  8
0
 10
-2.42705
 20
26.7366
 11
-2.62891
 21
27.0547
  0
LINE
  8
0
 10
-2.62891
 20
27.0547
 11
-2.78932
 21
27.3956
  0
LINE
  8
0
 10
-2.78932
 20
27.3956
 11
-2.90575
 21
27.7539
  0
LINE
  8
0
 10
-2.90575
 20
27.7539
 11
-2.97633
 21
28.124
  0
LINE
  8
0
 10
-2.97633
 20
28.124
 11
-3
 21
28.5
  0
LINE
  8
0
 10
-3
 20
28.5
 11
-2.97633
 21
28.876
  0
LINE
  8
0
 10
-2.97633
 20
28.876
 11
-2.90575
 21
29.2461
  0
LINE
  8
0
 10
-2.90575
 20
29.2461
 11
-2.78932
 21
29.6044
  0
LINE
  8
0
 10
-2.78932
 20
29.6044
 11
-2.62891
 21
29.9453
  0
LINE
  8
0
 10
-2.62891
 20
29.9453
 11
-2.42705
 21
30.2634
  0
LINE
  8
0
 10
-2.42705
 20
30.2634
 11
-2.1869
 21
30.5536
  0
LINE
  8
0
 10
-2.1869
 20
30.5536
 11
-1.91226
 21
30.8115
  0
LINE
  8
0
 10
-1.91226
 20
30.8115
 11
-1.60747
 21
31.033
  0
LINE
  8
0
 10
-1.60747
 20
31.033
 11
-1.27733
 21
31.2145
  0
LINE
  8
0
 10
-1.27733
 20
31.2145
 11
-0.927048
 21
31.3532
  0
LINE
  8
0
 10
-0.927048
 20
31.3532
 11
-0.562134
 21
31.4469
  0
LINE
  8
0
 10
-0.562134
 20
31.4469
 11
-0.18837
 21
31.4941
  0
LINE
  8
0
 10
-0.18837
 20
31.4941
 11
0.18837
 21
31.4941
  0
LINE
  8
0
 10
0.18837
 20
31.4941
 11
0.562134
 21
31.4469
  0
LINE
  8
0
 10
0.562134
 20
31.4469
 11
0.927048
 21
31.3532
  0
LINE
  8
0
 10
0.927048
 20
31.3532
 11
1.27733
 21
31.2145
  0
LINE
  8
0
 10
1.27733
 20
31.2145
 11
1.60747
 21
31.033
  0
LINE
  8
0
 10
1.60747
 20
31.033
 11
1.91226
 21
30.8115
  0
LINE
  8
0
 10
1.91226
 20
30.8115
 11
2.1869
 21
30.5536
  0
LINE
  8
0
 10
2.1869
 20
30.5536
 11
2.42705
 21
30.2634
  0
LINE
  8
0
 10
2.42705
 20
30.2634
 11
2.62891
 21
29.9453
  0
LINE
  8
0
 10
2.62891
 20
29.9453
 11
2.78932
 21
29.6044
  0
LINE
  8
0
 10
2.78932
 20
29.6044
 11
2.90575
 21
29.2461
  0
LINE
  8
0
 10
2.90575
 20
29.2461
 11
2.97633
 21
28.876
  0
LINE
  8
0
 10
2.97633
 20
28.876
 11
3
 21
28.5
  0
LINE
  8
0
 10
3
 20
28.5
 11
2.97633
 21
28.124
  0
LINE
  8
0
 10
2.97633
 20
28.124
 11
2.90575
 21
27.7539
  0
LINE
  8
0
 10
2.90575
 20
27.7539
 11
2.78932
 21
27.3956
  0
LINE
  8
0
 10
2.78932
 20
27.3956
 11
2.62891
 21
27.0547
  0
LINE
  8
0
 10
2.62891
 20
27.0547
 11
2.42705
 21
26.7366
  0
LINE
  8
0
 10
2.42705
 20
26.7366
 11
2.1869
 21
26.4464
  0
LINE
  8
0
 10
2.1869
 20
26.4464
 11
1.91226
 21
26.1884
  0
LINE
  8
0
 10
1.91226
 20
26.1884
 11
1.60747
 21
25.967
  0
LINE
  8
0
 10
1.60747
 20
25.967
 11
1.27733
 21
25.7855
  0
LINE
  8
0
 10
1.27733
 20
25.7855
 11
0.927048
 21
25.6468
  0
LINE
  8
0
 10
0.927048
 20
25.6468
 11
0.562134
 21
25.5531
  0
LINE
  8
0
 10
0.562134
 20
25.5531
 11
0.18837
 21
25.5059
  0
LINE
  8
0
 10
0.18837
 20
25.5059
 11
-0.18837
 21
25.5059
  0
LINE
  8
0
 10
14.8116
 20
25.5059
 11
14.4379
 21
25.5531
  0
LINE
  8
0
 10
14.4379
 20
25.5531
 11
14.0729
 21
25.6468
  0
LINE
  8
0
 10
14.0729
 20
25.6468
 11
13.7227
 21
25.7855
  0
LINE
  8
0
 10
13.7227
 20
25.7855
 11
13.3925
 21
25.967
  0
LINE
  8
0
 10
13.3925
 20
25.967
 11
13.0877
 21
26.1884
  0
LINE
  8
0
 10
13.0877
 20
26.1884
 11
12.8131
 21
26.4464
  0
LINE
  8
0
 10
12.8131
 20
26.4464
 11
12.5729
 21
26.7366
  0
LINE
  8
0
 10
12.5729
 20
26.7366
 11
12.3711
 21
27.0547
  0
LINE
  8
0
 10
12.3711
 20
27.0547
 11
12.2107
 21
27.3956
  0
LINE
  8
0
 10
12.2107
 20
27.3956
 11
12.0942
 21
27.7539
  0
LINE
  8
0
 10
12.0942
 20
27.7539
 11
12.0237
 21
28.124
  0
LINE
  8
0
 10
12.0237
 20
28.124
 11
12
 21
28.5
  0
LINE
  8
0
 10
12
 20
28.5
 11
12.0237
 21
28.876
  0
LINE
  8
0
 10
12.0237
 20
28.876
 11
12.0942
 21
29.2461
  0
LINE
  8
0
 10
12.0942
 20
29.2461
 11
12.2107
 21
29.6044
  0
LINE
  8
0
 10
12.2107
 20
29.6044
 11
12.3711
 21
29.9453
  0
LINE
  8
0
 10
12.3711
 20
29.9453
 11
12.5729
 21
30.2634
  0
LINE
  8
0
 10
12.5729
 20
30.2634
 11
12.8131
 21
30.5536
  0
LINE
  8
0
 10
12.8131
 20
30.5536
 11
13.0877
 21
30.8115
  0
LINE
  8
0
 10
13.0877
 20
30.8115
 11
13.3925
 21
31.033
  0
LINE
  8
0
 10
13.3925
 20
31.033
 11
13.7227
 21
31.2145
  0
LINE
  8
0
 10
13.7227
 20
31.2145
 11
14.0729
 21
31.3532
  0
LINE
  8
0
 10
14.0729
 20
31.3532
 11
14.4379
 21
31.4469
  0
LINE
  8
0
 10
14.4379
 20
31.4469
 11
14.8116
 21
31.4941
  0
LINE
  8
0
 10
14.8116
 20
31.4941
 11
15.1884
 21
31.4941
  0
LINE
  8
0
 10
15.1884
 20
31.4941
 11
15.5621
 21
31.4469
  0
LINE
  8
0
 10
15.5621
 20
31.4469
 11
15.927
 21
31.3532
  0
LINE
  8
0
 10
15.927
 20
31.3532
 11
16.2773
 21
31.2145
  0
LINE
  8
0
 10
16.2773
 20
31.2145
 11
16.6075
 21
31.033
  0
LINE
  8
0
 10
16.6075
 20
31.033
 11
16.9123
 21
30.8115
  0
LINE
  8
0
 10
16.9123
 20
30.8115
 11
17.1869
 21
30.5536
  0
LINE
  8
0
 10
17.1869
 20
30.5536
 11
17.427
 21
30.2634
  0
LINE
  8
0
 10
17.427
 20
30.2634
 11
17.6289
 21
29.9453
  0
LINE
  8
0
 10
17.6289
 20
29.9453
 11
17.7893
 21
29.6044
  0
LINE
  8
0
 10
17.7893
 20
29.6044
 11
17.9057
 21
29.2461
  0
LINE
  8
0
 10
17.9057
 20
29.2461
 11
17.9763
 21
28.876
  0
LINE
  8
0
 10
17.9763
 20
28.876
 11
18
 21
28.5
  0
LINE
  8
0
 10
18
 20
28.5
 11
17.9763
 21
28.124
  0
LINE
  8
0
 10
17.9763
 20
28.124
 11
17.9057
 21
27.7539
  0
LINE
  8
0
 10
17.9057
 20
27.7539
 11
17.7893
 21
27.3956
  0
LINE
  8
0
 10
17.7893
 20
27.3956
 11
17.6289
 21
27.0547
  0
LINE
  8
0
 10
17.6289
 20
27.0547
 11
17.427
 21
26.7366
  0
LINE
  8
0
 10
17.427
 20
26.7366
 11
17.1869
 21
26.4464
  0
LINE
  8
0
 10
17.1869
 20
26.4464
 11
16.9123
 21
26.1884
  0
LINE
  8
0
 10
16.9123
 20
26.1884
 11
16.6075
 21
25.967
  0
LINE
  8
0
 10
16.6075
 20
25.967
 11
16.2773
 21
25.7855
  0
LINE
  8
0
 10
16.2773
 20
25.7855
 11
15.927
 21
25.6468
  0
LINE
  8
0
 10
15.927
 20
25.6468
 11
15.5621
 21
25.5531
  0
LINE
  8
0
 10
15.5621
 20
25.5531
 11
15.1884
 21
25.5059
  0
LINE
  8
0
 10
15.1884
 20
25.5059
 11
14.8116
 21
25.5059
  0
LINE
  8
0
 10
29.8116
 20
25.5059
 11
29.4379
 21
25.5531
  0
LINE
  8
0
 10
29.4379
 20
25.5531
 11
29.0729
 21
25.6468
  0
LINE
  8
0
 10
29.0729
 20
25.6468
 11
28.7227
 21
25.7855
  0
LINE
  8
0
 10
28.7227
 20
25.7855
 11
28.3925
 21
25.967
  0
LINE
  8
0
 10
28.3925
 20
25.967
 11
28.0877
 21
26.1884
  0
LINE
  8
0
 10
28.0877
 20
26.1884
 11
27.8131
 21
26.4464
  0
LINE
  8
0
 10
27.8131
 20
26.4464
 11
27.5729
 21
26.7366
  0
LINE
  8
0
 10
27.5729
 20
26.7366
 11
27.3711
 21
27.0547
  0
LINE
  8
0
 10
27.3711
 20
27.0547
 11
27.2107
 21
27.3956
  0
LINE
  8
0
 10
27.2107
 20
27.3956
 11
27.0942
 21
27.7539
  0
LINE
  8
0
 10
27.0942
 20
27.7539
 11
27.0237
 21
28.124
  0
LINE
  8
0
 10
27.0237
 20
28.124
 11
27
 21
28.5
  0
LINE
  8
0
 10
27
 20
28.5
 11
27.0237
 21
28.876
  0
LINE
  8
0
 10
27.0237
 20
28.876
 11
27.0942
 21
29.2461
  0
LINE
  8
0
 10
27.0942
 20
29.2461
 11
27.2107
 21
29.6044
  0
LINE
  8
0
 10
27.2107
 20
29.6044
 11
27.3711
 21
29.9453
  0
LINE
  8
0
 10
27.3711
 20
29.9453
 11
27.5729
 21
30.2634
  0
LINE
  8
0
 10
27.5729
 20
30.2634
 11
27.8131
 21
30.5536
  0
LINE
  8
0
 10
27.8131
 20
30.5536
 11
28.0877
 21
30.8115
  0
LINE
  8
0
 10
28.0877
 20
30.8115
 11
28.3925
 21
31.033
  0
LINE
  8
0
 10
28.3925
 20
31.033
 11
28.7227
 21
31.2145
  0
LINE
  8
0
 10
28.7227
 20
31.2145
 11
29.0729
 21
31.3532
  0
LINE
  8
0
 10
29.0729
 20
31.3532
 11
29.4379
 21
31.4469
  0
LINE
  8
0
 10
29.4379
 20
31.4469
 11
29.8116
 21
31.4941
  0
LINE
  8
0
 10
29.8116
 20
31.4941
 11
30.1884
 21
31.4941
  0
LINE
  8
0
 10
30.1884
 20
31.4941
 11
30.5621
 21
31.4469
  0
LINE
  8
0
 10
30.5621
 20
31.4469
 11
30.927
 21
31.3532
  0
LINE
  8
0
 10
30.927
 20
31.3532
 11
31.2773
 21
31.2145
  0
LINE
  8
0
 10
31.2773
 20
31.2145
 11
31.6075
 21
31.033
  0
LINE
  8
0
 10
31.6075
 20
31.033
 11
31.9123
 21
30.8115
  0
LINE
  8
0
 10
31.9123
 20
30.8115
 11
32.1869
 21
30.5536
  0
LINE
  8
0
 10
32.1869
 20
30.5536
 11
32.427
 21
30.2634
  0
LINE
  8
0
 10
32.427
 20
30.2634
 11
32.6289
 21
29.9453
  0
LINE
  8
0
 10
32.6289
 20
29.9453
 11
32.7893
 21
29.6044
  0
LINE
  8
0
 10
32.7893
 20
29.6044
 11
32.9057
 21
29.2461
  0
LINE
  8
0
 10
32.9057
 20
29.2461
 11
32.9763
 21
28.876
  0
LINE
  8
0
 10
32.9763
 20
28.876
 11
33
 21
28.5
  0
LINE
  8
0
 10
33
 20
28.5
 11
32.9763
 21
28.124
  0
LINE
  8
0
 10
32.9763
 20
28.124
 11
32.9057
 21
27.7539
  0
LINE
  8
0
 10
32.9057
 20
27.7539
 11
32.7893
 21
27.3956
  0
LINE
  8
0
 10
32.7893
 20
27.3956
 11
32.6289
 21
27.0547
  0
LINE
  8
0
 10
32.6289
 20
27.0547
 11
32.427
 21
26.7366
  0
LINE
  8
0
 10
32.427
 20
26.7366
 11
32.1869
 21
26.4464
  0
LINE
  8
0
 10
32.1869
 20
26.4464
 11
31.9123
 21
26.1884
  0
LINE
  8
0
 10
31.9123
 20
26.1884
 11
31.6075
 21
25.967
  0
LINE
  8
0
 10
31.6075
 20
25.967
 11
31.2773
 21
25.7855
  0
LINE
  8
0
 10
31.2773
 20
25.7855
 11
30.927
 21
25.6468
  0
LINE
  8
0
 10
30.927
 20
25.6468
 11
30.5621
 21
25.5531
  0
LINE
  8
0
 10
30.5621
 20
25.5531
 11
30.1884
 21
25.5059
  0
LINE
  8
0
 10
30.1884
 20
25.5059
 11
29.8116
 21
25.5059
  0
LINE
  8
0
 10
-25.2483
 20
11.9133
 11
-25.2483
 21
15.0867
  0
LINE
  8
0
 10
-25.2483
 20
15.0867
 11
-22.5
 21
16.6735
  0
LINE
  8
0
 10
-22.5
 20
16.6735
 11
-19.7517
 21
15.0867
  0
LINE
  8
0
 10
-19.7517
 20
15.0867
 11
-19.7517
 21
11.9133
  0
LINE
  8
0
 10
-19.7517
 20
11.9133
 11
-22.5
 21
10.3265
  0
LINE
  8
0
 10
-22.5
 20
10.3265
 11
-25.2483
 21
11.9133
  0
LINE
  8
0
 10
4.75166
 20
11.9133
 11
4.75166
 21
15.0867
  0
LINE
  8
0
 10
4.75166
 20
15.0867
 11
7.5
 21
16.6735
  0
LINE
  8
0
 10
7.5
 20
16.6735
 11
10.2483
 21
15.0867
  0
LINE
  8
0
 10
10.2483
 20
15.0867
 11
10.2483
 21
11.9133
  0
LINE
  8
0
 10
10.2483
 20
11.9133
 11
7.49998
 21
10.3265
  0
LINE
  8
0
 10
7.49998
 20
10.3265
 11
4.75166
 21
11.9133
  0
LINE
  8
0
 10
-0.18837
 20
10.5059
 11
-0.562134
 21
10.5531
  0
LINE
  8
0
 10
-0.562134
 20
10.5531
 11
-0.927048
 21
10.6468
  0
LINE
  8
0
 10
-0.927048
 20
10.6468
 11
-1.27733
 21
10.7855
  0
LINE
  8
0
 10
-1.27733
 20
10.7855
 11
-1.60747
 21
10.967
  0
LINE
  8
0
 10
-1.60747
 20
10.967
 11
-1.91226
 21
11.1884
  0
LINE
  8
0
 10
-1.91226
 20
11.1884
 11
-2.1869
 21
11.4464
  0
LINE
  8
0
 10
-2.1869
 20
11.4464
 11
-2.42705
 21
11.7366
  0
LINE
  8
0
 10
-2.42705
 20
11.7366
 11
-2.62891
 21
12.0547
  0
LINE
  8
0
 10
-2.62891
 20
12.0547
 11
-2.78932
 21
12.3956
  0
LINE
  8
0
 10
-2.78932
 20
12.3956
 11
-2.90575
 21
12.7539
  0
LINE
  8
0
 10
-2.90575
 20
12.7539
 11
-2.97633
 21
13.124
  0
LINE
  8
0
 10
-2.97633
 20
13.124
 11
-3
 21
13.5
  0
LINE
  8
0
 10
-3
 20
13.5
 11
-2.97633
 21
13.876
  0
LINE
  8
0
 10
-2.97633
 20
13.876
 11
-2.90575
 21
14.2461
  0
LINE
  8
0
 10
-2.90575
 20
14.2461
 11
-2.78932
 21
14.6044
  0
LINE
  8
0
 10
-2.78932
 20
14.6044
 11
-2.62891
 21
14.9453
  0
LINE
  8
0
 10
-2.62891
 20
14.9453
 11
-2.42705
 21
15.2634
  0
LINE
  8
0
 10
-2.42705
 20
15.2634
 11
-2.1869
 21
15.5536
  0
LINE
  8
0
 10
-2.1869
 20
15.5536
 11
-1.91226
 21
15.8115
  0
LINE
  8
0
 10
-1.91226
 20
15.8115
 11
-1.60747
 21
16.033
  0
LINE
  8
0
 10
-1.60747
 20
16.033
 11
-1.27733
 21
16.2145
  0
LINE
  8
0
 10
-1.27733
 20
16.2145
 11
-0.927048
 21
16.3532
  0
LINE
  8
0
 10
-0.927048
 20
16.3532
 11
-0.562134
 21
16.4469
  0
LINE
  8
0
 10
-0.562134
 20
16.4469
 11
-0.18837
 21
16.4941
  0
LINE
  8
0
 10
-0.18837
 20
16.4941
 11
0.18837
 21
16.4941
  0
LINE
  8
0
 10
0.18837
 20
16.4941
 11
0.562134
 21
16.4469
  0
LINE
  8
0
 10
0.562134
 20
16.4469
 11
0.927048
 21
16.3532
  0
LINE
  8
0
 10
0.927048
 20
16.3532
 11
1.27733
 21
16.2145
  0
LINE
  8
0
 10
1.27733
 20
16.2145
 11
1.60747
 21
16.033
  0
LINE
  8
0
 10
1.60747
 20
16.033
 11
1.91226
 21
15.8115
  0
LINE
  8
0
 10
1.91226
 20
15.8115
 11
2.1869
 21
15.5536
  0
LINE
  8
0
 10
2.1869
 20
15.5536
 11
2.42705
 21
15.2634
  0
LINE
  8
0
 10
2.42705
 20
15.2634
 11
2.62891
 21
14.9453
  0
LINE
  8
0
 10
2.62891
 20
14.9453
 11
2.78932
 21
14.6044
  0
LINE
  8
0
 10
2.78932
 20
14.6044
 11
2.90575
 21
14.2461
  0
LINE
  8
0
 10
2.90575
 20
14.2461
 11
2.97633
 21
13.876
  0
LINE
  8
0
 10
2.97633
 20
13.876
 11
3
 21
13.5
  0
LINE
  8
0
 10
3
 20
13.5
 11
2.97633
 21
13.124
  0
LINE
  8
0
 10
2.97633
 20
13.124
 11
2.90575
 21
12.7539
  0
LINE
  8
0
 10
2.90575
 20
12.7539
 11
2.78932
 21
12.3956
  0
LINE
  8
0
 10
2.78932
 20
12.3956
 11
2.62891
 21
12.0547
  0
LINE
  8
0
 10
2.62891
 20
12.0547
 11
2.42705
 21
11.7366
  0
LINE
  8
0
 10
2.42705
 20
11.7366
 11
2.1869
 21
11.4464
  0
LINE
  8
0
 10
2.1869
 20
11.4464
 11
1.91226
 21
11.1884
  0
LINE
  8
0
 10
1.91226
 20
11.1884
 11
1.60747
 21
10.967
  0
LINE
  8
0
 10
1.60747
 20
10.967
 11
1.27733
 21
10.7855
  0
LINE
  8
0
 10
1.27733
 20
10.7855
 11
0.927048
 21
10.6468
  0
LINE
  8
0
 10
0.927048
 20
10.6468
 11
0.562134
 21
10.5531
  0
LINE
  8
0
 10
0.562134
 20
10.5531
 11
0.18837
 21
10.5059
  0
LINE
  8
0
 10
0.18837
 20
10.5059
 11
-0.18837
 21
10.5059
  0
LINE
  8
0
 10
-30.1884
 20
10.5059
 11
-30.5621
 21
10.5531
  0
LINE
  8
0
 10
-30.5621
 20
10.5531
 11
-30.927
 21
10.6468
  0
LINE
  8
0
 10
-30.927
 20
10.6468
 11
-31.2773
 21
10.7855
  0
LINE
  8
0
 10
-31.2773
 20
10.7855
 11
-31.6075
 21
10.967
  0
LINE
  8
0
 10
-31.6075
 20
10.967
 11
-31.9123
 21
11.1884
  0
LINE
  8
0
 10
-31.9123
 20
11.1884
 11
-32.1869
 21
11.4464
  0
LINE
  8
0
 10
-32.1869
 20
11.4464
 11
-32.427
 21
11.7366
  0
LINE
  8
0
 10
-32.427
 20
11.7366
 11
-32.6289
 21
12.0547
  0
LINE
  8
0
 10
-32.6289
 20
12.0547
 11
-32.7893
 21
12.3956
  0
LINE
  8
0
 10
-32.7893
 20
12.3956
 11
-32.9057
 21
12.7539
  0
LINE
  8
0
 10
-32.9057
 20
12.7539
 11
-32.9763
 21
13.124
  0
LINE
  8
0
 10
-32.9763
 20
13.124
 11
-33
 21
13.5
  0
LINE
  8
0
 10
-33
 20
13.5
 11
-32.9763
 21
13.876
  0
LINE
  8
0
 10
-32.9763
 20
13.876
 11
-32.9057
 21
14.2461
  0
LINE
  8
0
 10
-32.9057
 20
14.2461
 11
-32.7893
 21
14.6044
  0
LINE
  8
0
 10
-32.7893
 20
14.6044
 11
-32.6289
 21
14.9453
  0
LINE
  8
0
 10
-32.6289
 20
14.9453
 11
-32.427
 21
15.2634
  0
LINE
  8
0
 10
-32.427
 20
15.2634
 11
-32.1869
 21
15.5536
  0
LINE
  8
0
 10
-32.1869
 20
15.5536
 11
-31.9123
 21
15.8115
  0
LINE
  8
0
 10
-31.9123
 20
15.8115
 11
-31.6075
 21
16.033
  0
LINE
  8
0
 10
-31.6075
 20
16.033
 11
-31.2773
 21
16.2145
  0
LINE
  8
0
 10
-31.2773
 20
16.2145
 11
-30.927
 21
16.3532
  0
LINE
  8
0
 10
-30.927
 20
16.3532
 11
-30.5621
 21
16.4469
  0
LINE
  8
0
 10
-30.5621
 20
16.4469
 11
-30.1884
 21
16.4941
  0
LINE
  8
0
 10
-30.1884
 20
16.4941
 11
-29.8116
 21
16.4941
  0
LINE
  8
0
 10
-29.8116
 20
16.4941
 11
-29.4379
 21
16.4469
  0
LINE
  8
0
 10
-29.4379
 20
16.4469
 11
-29.0729
 21
16.3532
  0
LINE
  8
0
 10
-29.0729
 20
16.3532
 11
-28.7227
 21
16.2145
  0
LINE
  8
0
 10
-28.7227
 20
16.2145
 11
-28.3925
 21
16.033
  0
LINE
  8
0
 10
-28.3925
 20
16.033
 11
-28.0877
 21
15.8115
  0
LINE
  8
0
 10
-28.0877
 20
15.8115
 11
-27.8131
 21
15.5536
  0
LINE
  8
0
 10
-27.8131
 20
15.5536
 11
-27.5729
 21
15.2634
  0
LINE
  8
0
 10
-27.5729
 20
15.2634
 11
-27.3711
 21
14.9453
  0
LINE
  8
0
 10
-27.3711
 20
14.9453
 11
-27.2107
 21
14.6044
  0
LINE
  8
0
 10
-27.2107
 20
14.6044
 11
-27.0942
 21
14.2461
  0
LINE
  8
0
 10
-27.0942
 20
14.2461
 11
-27.0237
 21
13.876
  0
LINE
  8
0
 10
-27.0237
 20
13.876
 11
-27
 21
13.5
  0
LINE
  8
0
 10
-27
 20
13.5
 11
-27.0237
 21
13.124
  0
LINE
  8
0
 10
-27.0237
 20
13.124
 11
-27.0942
 21
12.7539
  0
LINE
  8
0
 10
-27.0942
 20
12.7539
 11
-27.2107
 21
12.3956
  0
LINE
  8
0
 10
-27.2107
 20
12.3956
 11
-27.3711
 21
12.0547
  0
LINE
  8
0
 10
-27.3711
 20
12.0547
 11
-27.5729
 21
11.7366
  0
LINE
  8
0
 10
-27.5729
 20
11.7366
 11
-27.8131
 21
11.4464
  0
LINE
  8
0
 10
-27.8131
 20
11.4464
 11
-28.0877
 21
11.1884
  0
LINE
  8
0
 10
-28.0877
 20
11.1884
 11
-28.3925
 21
10.967
  0
LINE
  8
0
 10
-28.3925
 20
10.967
 11
-28.7227
 21
10.7855
  0
LINE
  8
0
 10
-28.7227
 20
10.7855
 11
-29.0729
 21
10.6468
  0
LINE
  8
0
 10
-29.0729
 20
10.6468
 11
-29.4379
 21
10.5531
  0
LINE
  8
0
 10
-29.4379
 20
10.5531
 11
-29.8116
 21
10.5059
  0
LINE
  8
0
 10
-29.8116
 20
10.5059
 11
-30.1884
 21
10.5059
  0
LINE
  8
0
 10
29.8116
 20
10.5059
 11
29.4379
 21
10.5531
  0
LINE
  8
0
 10
29.4379
 20
10.5531
 11
29.0729
 21
10.6468
  0
LINE
  8
0
 10
29.0729
 20
10.6468
 11
28.7227
 21
10.7855
  0
LINE
  8
0
 10
28.7227
 20
10.7855
 11
28.3925
 21
10.967
  0
LINE
  8
0
 10
28.3925
 20
10.967
 11
28.0877
 21
11.1884
  0
LINE
  8
0
 10
28.0877
 20
11.1884
 11
27.8131
 21
11.4464
  0
LINE
  8
0
 10
27.8131
 20
11.4464
 11
27.5729
 21
11.7366
  0
LINE
  8
0
 10
27.5729
 20
11.7366
 11
27.3711
 21
12.0547
  0
LINE
  8
0
 10
27.3711
 20
12.0547
 11
27.2107
 21
12.3956
  0
LINE
  8
0
 10
27.2107
 20
12.3956
 11
27.0942
 21
12.7539
  0
LINE
  8
0
 10
27.0942
 20
12.7539
 11
27.0237
 21
13.124
  0
LINE
  8
0
 10
27.0237
 20
13.124
 11
27
 21
13.5
  0
LINE
  8
0
 10
27
 20
13.5
 11
27.0237
 21
13.876
  0
LINE
  8
0
 10
27.0237
 20
13.876
 11
27.0942
 21
14.2461
  0
LINE
  8
0
 10
27.0942
 20
14.2461
 11
27.2107
 21
14.6044
  0
LINE
  8
0
 10
27.2107
 20
14.6044
 11
27.3711
 21
14.9453
  0
LINE
  8
0
 10
27.3711
 20
14.9453
 11
27.5729
 21
15.2634
  0
LINE
  8
0
 10
27.5729
 20
15.2634
 11
27.8131
 21
15.5536
  0
LINE
  8
0
 10
27.8131
 20
15.5536
 11
28.0877
 21
15.8115
  0
LINE
  8
0
 10
28.0877
 20
15.8115
 11
28.3925
 21
16.033
  0
LINE
  8
0
 10
28.3925
 20
16.033
 11
28.7227
 21
16.2145
  0
LINE
  8
0
 10
28.7227
 20
16.2145
 11
29.0729
 21
16.3532
  0
LINE
  8
0
 10
29.0729
 20
16.3532
 11
29.4379
 21
16.4469
  0
LINE
  8
0
 10
29.4379
 20
16.4469
 11
29.8116
 21
16.4941
  0
LINE
  8
0
 10
29.8116
 20
16.4941
 11
30.1884
 21
16.4941
  0
LINE
  8
0
 10
30.1884
 20
16.4941
 11
30.5621
 21
16.4469
  0
LINE
  8
0
 10
30.5621
 20
16.4469
 11
30.927
 21
16.3532
  0
LINE
  8
0
 10
30.927
 20
16.3532
 11
31.2773
 21
16.2145
  0
LINE
  8
0
 10
31.2773
 20
16.2145
 11
31.6075
 21
16.033
  0
LINE
  8
0
 10
31.6075
 20
16.033
 11
31.9123
 21
15.8115
  0
LINE
  8
0
 10
31.9123
 20
15.8115
 11
32.1869
 21
15.5536
  0
LINE
  8
0
 10
32.1869
 20
15.5536
 11
32.427
 21
15.2634
  0
LINE
  8
0
 10
32.427
 20
15.2634
 11
32.6289
 21
14.9453
  0
LINE
  8
0
 10
32.6289
 20
14.9453
 11
32.7893
 21
14.6044
  0
LINE
  8
0
 10
32.7893
 20
14.6044
 11
32.9057
 21
14.2461
  0
LINE
  8
0
 10
32.9057
 20
14.2461
 11
32.9763
 21
13.876
  0
LINE
  8
0
 10
32.9763
 20
13.876
 11
33
 21
13.5
  0
LINE
  8
0
 10
33
 20
13.5
 11
32.9763
 21
13.124
  0
LINE
  8
0
 10
32.9763
 20
13.124
 11
32.9057
 21
12.7539
  0
LINE
  8
0
 10
32.9057
 20
12.7539
 11
32.7893
 21
12.3956
  0
LINE
  8
0
 10
32.7893
 20
12.3956
 11
32.6289
 21
12.0547
  0
LINE
  8
0
 10
32.6289
 20
12.0547
 11
32.427
 21
11.7366
  0
LINE
  8
0
 10
32.427
 20
11.7366
 11
32.1869
 21
11.4464
  0
LINE
  8
0
 10
32.1869
 20
11.4464
 11
31.9123
 21
11.1884
  0
LINE
  8
0
 10
31.9123
 20
11.1884
 11
31.6075
 21
10.967
  0
LINE
  8
0
 10
31.6075
 20
10.967
 11
31.2773
 21
10.7855
  0
LINE
  8
0
 10
31.2773
 20
10.7855
 11
30.927
 21
10.6468
  0
LINE
  8
0
 10
30.927
 20
10.6468
 11
30.5621
 21
10.5531
  0
LINE
  8
0
 10
30.5621
 20
10.5531
 11
30.1884
 21
10.5059
  0
LINE
  8
0
 10
30.1884
 20
10.5059
 11
29.8116
 21
10.5059
  0
LINE
  8
0
 10
14.8116
 20
10.5059
 11
14.4379
 21
10.5531
  0
LINE
  8
0
 10
14.4379
 20
10.5531
 11
14.0729
 21
10.6468
  0
LINE
  8
0
 10
14.0729
 20
10.6468
 11
13.7227
 21
10.7855
  0
LINE
  8
0
 10
13.7227
 20
10.7855
 11
13.3925
 21
10.967
  0
LINE
  8
0
 10
13.3925
 20
10.967
 11
13.0877
 21
11.1884
  0
LINE
  8
0
 10
13.0877
 20
11.1884
 11
12.8131
 21
11.4464
  0
LINE
  8
0
 10
12.8131
 20
11.4464
 11
12.5729
 21
11.7366
  0
LINE
  8
0
 10
12.5729
 20
11.7366
 11
12.3711
 21
12.0547
  0
LINE
  8
0
 10
12.3711
 20
12.0547
 11
12.2107
 21
12.3956
  0
LINE
  8
0
 10
12.2107
 20
12.3956
 11
12.0942
 21
12.7539
  0
LINE
  8
0
 10
12.0942
 20
12.7539
 11
12.0237
 21
13.124
  0
LINE
  8
0
 10
12.0237
 20
13.124
 11
12
 21
13.5
  0
LINE
  8
0
 10
12
 20
13.5
 11
12.0237
 21
13.876
  0
LINE
  8
0
 10
12.0237
 20
13.876
 11
12.0942
 21
14.2461
  0
LINE
  8
0
 10
12.0942
 20
14.2461
 11
12.2107
 21
14.6044
  0
LINE
  8
0
 10
12.2107
 20
14.6044
 11
12.3711
 21
14.9453
  0
LINE
  8
0
 10
12.3711
 20
14.9453
 11
12.5729
 21
15.2634
  0
LINE
  8
0
 10
12.5729
 20
15.2634
 11
12.8131
 21
15.5536
  0
LINE
  8
0
 10
12.8131
 20
15.5536
 11
13.0877
 21
15.8115
  0
LINE
  8
0
 10
13.0877
 20
15.8115
 11
13.3925
 21
16.033
  0
LINE
  8
0
 10
13.3925
 20
16.033
 11
13.7227
 21
16.2145
  0
LINE
  8
0
 10
13.7227
 20
16.2145
 11
14.0729
 21
16.3532
  0
LINE
  8
0
 10
14.0729
 20
16.3532
 11
14.4379
 21
16.4469
  0
LINE
  8
0
 10
14.4379
 20
16.4469
 11
14.8116
 21
16.4941
  0
LINE
  8
0
 10
14.8116
 20
16.4941
 11
15.1884
 21
16.4941
  0
LINE
  8
0
 10
15.1884
 20
16.4941
 11
15.5621
 21
16.4469
  0
LINE
  8
0
 10
15.5621
 20
16.4469
 11
15.927
 21
16.3532
  0
LINE
  8
0
 10
15.927
 20
16.3532
 11
16.2773
 21
16.2145
  0
LINE
  8
0
 10
16.2773
 20
16.2145
 11
16.6075
 21
16.033
  0
LINE
  8
0
 10
16.6075
 20
16.033
 11
16.9123
 21
15.8115
  0
LINE
  8
0
 10
16.9123
 20
15.8115
 11
17.1869
 21
15.5536
  0
LINE
  8
0
 10
17.1869
 20
15.5536
 11
17.427
 21
15.2634
  0
LINE
  8
0
 10
17.427
 20
15.2634
 11
17.6289
 21
14.9453
  0
LINE
  8
0
 10
17.6289
 20
14.9453
 11
17.7893
 21
14.6044
  0
LINE
  8
0
 10
17.7893
 20
14.6044
 11
17.9057
 21
14.2461
  0
LINE
  8
0
 10
17.9057
 20
14.2461
 11
17.9763
 21
13.876
  0
LINE
  8
0
 10
17.9763
 20
13.876
 11
18
 21
13.5
  0
LINE
  8
0
 10
18
 20
13.5
 11
17.9763
 21
13.124
  0
LINE
  8
0
 10
17.9763
 20
13.124
 11
17.9057
 21
12.7539
  0
LINE
  8
0
 10
17.9057
 20
12.7539
 11
17.7893
 21
12.3956
  0
LINE
  8
0
 10
17.7893
 20
12.3956
 11
17.6289
 21
12.0547
  0
LINE
  8
0
 10
17.6289
 20
12.0547
 11
17.427
 21
11.7366
  0
LINE
  8
0
 10
17.427
 20
11.7366
 11
17.1869
 21
11.4464
  0
LINE
  8
0
 10
17.1869
 20
11.4464
 11
16.9123
 21
11.1884
  0
LINE
  8
0
 10
16.9123
 20
11.1884
 11
16.6075
 21
10.967
  0
LINE
  8
0
 10
16.6075
 20
10.967
 11
16.2773
 21
10.7855
  0
LINE
  8
0
 10
16.2773
 20
10.7855
 11
15.927
 21
10.6468
  0
LINE
  8
0
 10
15.927
 20
10.6468
 11
15.5621
 21
10.5531
  0
LINE
  8
0
 10
15.5621
 20
10.5531
 11
15.1884
 21
10.5059
  0
LINE
  8
0
 10
15.1884
 20
10.5059
 11
14.8116
 21
10.5059
  0
LINE
  8
0
 10
-15.1884
 20
10.5059
 11
-15.5621
 21
10.5531
  0
LINE
  8
0
 10
-15.5621
 20
10.5531
 11
-15.927
 21
10.6468
  0
LINE
  8
0
 10
-15.927
 20
10.6468
 11
-16.2773
 21
10.7855
  0
LINE
  8
0
 10
-16.2773
 20
10.7855
 11
-16.6075
 21
10.967
  0
LINE
  8
0
 10
-16.6075
 20
10.967
 11
-16.9123
 21
11.1884
  0
LINE
  8
0
 10
-16.9123
 20
11.1884
 11
-17.1869
 21
11.4464
  0
LINE
  8
0
 10
-17.1869
 20
11.4464
 11
-17.427
 21
11.7366
  0
LINE
  8
0
 10
-17.427
 20
11.7366
 11
-17.6289
 21
12.0547
  0
LINE
  8
0
 10
-17.6289
 20
12.0547
 11
-17.7893
 21
12.3956
  0
LINE
  8
0
 10
-17.7893
 20
12.3956
 11
-17.9057
 21
12.7539
  0
LINE
  8
0
 10
-17.9057
 20
12.7539
 11
-17.9763
 21
13.124
  0
LINE
  8
0
 10
-17.9763
 20
13.124
 11
-18
 21
13.5
  0
LINE
  8
0
 10
-18
 20
13.5
 11
-17.9763
 21
13.876
  0
LINE
  8
0
 10
-17.9763
 20
13.876
 11
-17.9057
 21
14.2461
  0
LINE
  8
0
 10
-17.9057
 20
14.2461
 11
-17.7893
 21
14.6044
  0
LINE
  8
0
 10
-17.7893
 20
14.6044
 11
-17.6289
 21
14.9453
  0
LINE
  8
0
 10
-17.6289
 20
14.9453
 11
-17.427
 21
15.2634
  0
LINE
  8
0
 10
-17.427
 20
15.2634
 11
-17.1869
 21
15.5536
  0
LINE
  8
0
 10
-17.1869
 20
15.5536
 11
-16.9123
 21
15.8115
  0
LINE
  8
0
 10
-16.9123
 20
15.8115
 11
-16.6075
 21
16.033
  0
LINE
  8
0
 10
-16.6075
 20
16.033
 11
-16.2773
 21
16.2145
  0
LINE
  8
0
 10
-16.2773
 20
16.2145
 11
-15.927
 21
16.3532
  0
LINE
  8
0
 10
-15.927
 20
16.3532
 11
-15.5621
 21
16.4469
  0
LINE
  8
0
 10
-15.5621
 20
16.4469
 11
-15.1884
 21
16.4941
  0
LINE
  8
0
 10
-15.1884
 20
16.4941
 11
-14.8116
 21
16.4941
  0
LINE
  8
0
 10
-14.8116
 20
16.4941
 11
-14.4379
 21
16.4469
  0
LINE
  8
0
 10
-14.4379
 20
16.4469
 11
-14.0729
 21
16.3532
  0
LINE
  8
0
 10
-14.0729
 20
16.3532
 11
-13.7227
 21
16.2145
  0
LINE
  8
0
 10
-13.7227
 20
16.2145
 11
-13.3925
 21
16.033
  0
LINE
  8
0
 10
-13.3925
 20
16.033
 11
-13.0877
 21
15.8115
  0
LINE
  8
0
 10
-13.0877
 20
15.8115
 11
-12.8131
 21
15.5536
  0
LINE
  8
0
 10
-12.8131
 20
15.5536
 11
-12.5729
 21
15.2634
  0
LINE
  8
0
 10
-12.5729
 20
15.2634
 11
-12.3711
 21
14.9453
  0
LINE
  8
0
 10
-12.3711
 20
14.9453
 11
-12.2107
 21
14.6044
  0
LINE
  8
0
 10
-12.2107
 20
14.6044
 11
-12.0942
 21
14.2461
  0
LINE
  8
0
 10
-12.0942
 20
14.2461
 11
-12.0237
 21
13.876
  0
LINE
  8
0
 10
-12.0237
 20
13.876
 11
-12
 21
13.5
  0
LINE
  8
0
 10
-12
 20
13.5
 11
-12.0237
 21
13.124
  0
LINE
  8
0
 10
-12.0237
 20
13.124
 11
-12.0942
 21
12.7539
  0
LINE
  8
0
 10
-12.0942
 20
12.7539
 11
-12.2107
 21
12.3956
  0
LINE
  8
0
 10
-12.2107
 20
12.3956
 11
-12.3711
 21
12.0547
  0
LINE
  8
0
 10
-12.3711
 20
12.0547
 11
-12.5729
 21
11.7366
  0
LINE
  8
0
 10
-12.5729
 20
11.7366
 11
-12.8131
 21
11.4464
  0
LINE
  8
0
 10
-12.8131
 20
11.4464
 11
-13.0877
 21
11.1884
  0
LINE
  8
0
 10
-13.0877
 20
11.1884
 11
-13.3925
 21
10.967
  0
LINE
  8
0
 10
-13.3925
 20
10.967
 11
-13.7227
 21
10.7855
  0
LINE
  8
0
 10
-13.7227
 20
10.7855
 11
-14.0729
 21
10.6468
  0
LINE
  8
0
 10
-14.0729
 20
10.6468
 11
-14.4379
 21
10.5531
  0
LINE
  8
0
 10
-14.4379
 20
10.5531
 11
-14.8116
 21
10.5059
  0
LINE
  8
0
 10
-14.8116
 20
10.5059
 11
-15.1884
 21
10.5059
  0
LINE
  8
0
 10
-7.59935
 20
11.9208
 11
-7.79649
 21
11.9457
  0
LINE
  8
0
 10
-7.79649
 20
11.9457
 11
-7.98897
 21
11.9951
  0
LINE
  8
0
 10
-7.98897
 20
11.9951
 11
-8.17372
 21
12.0682
  0
LINE
  8
0
 10
-8.17372
 20
12.0682
 11
-8.34785
 21
12.164
  0
LINE
  8
0
 10
-8.34785
 20
12.164
 11
-8.50862
 21
12.2808
  0
LINE
  8
0
 10
-8.50862
 20
12.2808
 11
-8.65347
 21
12.4168
  0
LINE
  8
0
 10
-8.65347
 20
12.4168
 11
-8.78014
 21
12.5699
  0
LINE
  8
0
 10
-8.78014
 20
12.5699
 11
-8.88661
 21
12.7377
  0
LINE
  8
0
 10
-8.88661
 20
12.7377
 11
-8.97122
 21
12.9175
  0
LINE
  8
0
 10
-8.97122
 20
12.9175
 11
-9.03264
 21
13.1065
  0
LINE
  8
0
 10
-9.03264
 20
13.1065
 11
-9.06987
 21
13.3017
  0
LINE
  8
0
 10
-9.06987
 20
13.3017
 11
-9.08235
 21
13.5
  0
LINE
  8
0
 10
-9.08235
 20
13.5
 11
-9.06987
 21
13.6983
  0
LINE
  8
0
 10
-9.06987
 20
13.6983
 11
-9.03264
 21
13.8935
  0
LINE
  8
0
 10
-9.03264
 20
13.8935
 11
-8.97122
 21
14.0825
  0
LINE
  8
0
 10
-8.97122
 20
14.0825
 11
-8.88661
 21
14.2623
  0
LINE
  8
0
 10
-8.88661
 20
14.2623
 11
-8.78014
 21
14.4301
  0
LINE
  8
0
 10
-8.78014
 20
14.4301
 11
-8.65347
 21
14.5832
  0
LINE
  8
0
 10
-8.65347
 20
14.5832
 11
-8.50862
 21
14.7192
  0
LINE
  8
0
 10
-8.50862
 20
14.7192
 11
-8.34785
 21
14.836
  0
LINE
  8
0
 10
-8.34785
 20
14.836
 11
-8.17372
 21
14.9317
  0
LINE
  8
0
 10
-8.17372
 20
14.9317
 11
-7.98897
 21
15.0049
  0
LINE
  8
0
 10
-7.98897
 20
15.0049
 11
-7.79649
 21
15.0543
  0
LINE
  8
0
 10
-7.79649
 20
15.0543
 11
-7.59935
 21
15.0792
  0
LINE
  8
0
 10
-7.59935
 20
15.0792
 11
-7.40063
 21
15.0792
  0
LINE
  8
0
 10
-7.40063
 20
15.0792
 11
-7.20349
 21
15.0543
  0
LINE
  8
0
 10
-7.20349
 20
15.0543
 11
-7.01102
 21
15.0049
  0
LINE
  8
0
 10
-7.01102
 20
15.0049
 11
-6.82626
 21
14.9317
  0
LINE
  8
0
 10
-6.82626
 20
14.9317
 11
-6.65213
 21
14.836
  0
LINE
  8
0
 10
-6.65213
 20
14.836
 11
-6.49136
 21
14.7192
  0
LINE
  8
0
 10
-6.49136
 20
14.7192
 11
-6.34651
 21
14.5832
  0
LINE
  8
0
 10
-6.34651
 20
14.5832
 11
-6.21985
 21
14.4301
  0
LINE
  8
0
 10
-6.21985
 20
14.4301
 11
-6.11336
 21
14.2623
  0
LINE
  8
0
 10
-6.11336
 20
14.2623
 11
-6.02876
 21
14.0825
  0
LINE
  8
0
 10
-6.02876
 20
14.0825
 11
-5.96735
 21
13.8935
  0
LINE
  8
0
 10
-5.96735
 20
13.8935
 11
-5.93011
 21
13.6983
  0
LINE
  8
0
 10
-5.93011
 20
13.6983
 11
-5.91763
 21
13.5
  0
LINE
  8
0
 10
-5.91763
 20
13.5
 11
-5.93011
 21
13.3017
  0
LINE
  8
0
 10
-5.93011
 20
13.3017
 11
-5.96735
 21
13.1065
  0
LINE
  8
0
 10
-5.96735
 20
13.1065
 11
-6.02876
 21
12.9175
  0
LINE
  8
0
 10
-6.02876
 20
12.9175
 11
-6.11336
 21
12.7377
  0
LINE
  8
0
 10
-6.11336
 20
12.7377
 11
-6.21985
 21
12.5699
  0
LINE
  8
0
 10
-6.21985
 20
12.5699
 11
-6.34651
 21
12.4168
  0
LINE
  8
0
 10
-6.34651
 20
12.4168
 11
-6.49136
 21
12.2808
  0
LINE
  8
0
 10
-6.49136
 20
12.2808
 11
-6.65213
 21
12.164
  0
LINE
  8
0
 10
-6.65213
 20
12.164
 11
-6.82626
 21
12.0682
  0
LINE
  8
0
 10
-6.82626
 20
12.0682
 11
-7.01102
 21
11.9951
  0
LINE
  8
0
 10
-7.01102
 20
11.9951
 11
-7.20349
 21
11.9457
  0
LINE
  8
0
 10
-7.20349
 20
11.9457
 11
-7.40063
 21
11.9208
  0
LINE
  8
0
 10
-7.40063
 20
11.9208
 11
-7.59935
 21
11.9208
  0
LINE
  8
0
 10
26.4281
 20
2.89999
 11
26.4281
 21
8
  0
LINE
  8
0
 10
26.4281
 20
8
 11
33.5719
 21
8
  0
LINE
  8
0
 10
33.5719
 20
8
 11
33.5719
 21
2.89999
  0
LINE
  8
0
 10
33.5719
 20
2.89999
 11
26.4281
 21
2.89999
  0
LINE
  8
0
 10
-33.5719
 20
2.89999
 11
-33.5719
 21
8
  0
LINE
  8
0
 10
-33.5719
 20
8
 11
-26.4281
 21
8
  0
LINE
  8
0
 10
-26.4281
 20
8
 11
-26.4281
 21
2.89999
  0
LINE
  8
0
 10
-26.4281
 20
2.89999
 11
-33.5719
 21
2.89999
  0
LINE
  8
0
 10
-18.5719
 20
2.89999
 11
-18.5719
 21
8
  0
LINE
  8
0
 10
-18.5719
 20
8
 11
-11.4281
 21
8
  0
LINE
  8
0
 10
-11.4281
 20
8
 11
-11.4281
 21
2.89999
  0
LINE
  8
0
 10
-11.4281
 20
2.89999
 11
-18.5719
 21
2.89999
  0
LINE
  8
0
 10
11.4281
 20
2.89999
 11
11.4281
 21
8
  0
LINE
  8
0
 10
11.4281
 20
8
 11
18.5719
 21
8
  0
LINE
  8
0
 10
18.5719
 20
8
 11
18.5719
 21
2.89999
  0
LINE
  8
0
 10
18.5719
 20
2.89999
 11
11.4281
 21
2.89999
  0
LINE
  8
0
 10
-3.5719
 20
2.89999
 11
-3.5719
 21
8
  0
LINE
  8
0
 10
-3.5719
 20
8
 11
3.5719
 21
8
  0
LINE
  8
0
 10
3.5719
 20
8
 11
3.5719
 21
2.89999
  0
LINE
  8
0
 10
3.5719
 20
2.89999
 11
-3.5719
 21
2.89999
  0
ENDSEC
  0
SECTION
  2
OBJECTS
  0
DICTIONARY
  0
ENDSEC
  0
EOF
