<?xml version="1.0" standalone="no"?>
<!DOCTYPE svg PUBLIC "-//W3C//DTD SVG 1.1//EN" "http://www.w3.org/Graphics/SVG/1.1/DTD/svg11.dtd">
<svg width="4mm" height="114mm" viewBox="-2 -112 4 114" xmlns="http://www.w3.org/2000/svg" version="1.1">
<title>OpenSCAD Model</title>
<path d="
M 0.327362,-108.284 L 0.539856,-108.338 L 0.743851,-108.419 L 0.936111,-108.525 L 1.11362,-108.654 L 1.27354,-108.804
 L 1.41339,-108.973 L 1.53094,-109.158 L 1.62436,-109.357 L 1.69217,-109.566 L 1.73328,-109.781 L 1.74706,-110
 L 1.73328,-110.219 L 1.69217,-110.434 L 1.62436,-110.643 L 1.53094,-110.842 L 1.41339,-111.027 L 1.27354,-111.196
 L 1.11362,-111.346 L 0.936111,-111.475 L 0.743851,-111.581 L 0.539856,-111.662 L 0.327362,-111.716 L 0.109695,-111.744
 L -0.109695,-111.744 L -0.327362,-111.716 L -0.539856,-111.662 L -0.743851,-111.581 L -0.936111,-111.475 L -1.11362,-111.346
 L -1.27354,-111.196 L -1.41339,-111.027 L -1.53094,-110.842 L -1.62436,-110.643 L -1.69217,-110.434 L -1.73328,-110.219
 L -1.74706,-110 L -1.73328,-109.781 L -1.69217,-109.566 L -1.62436,-109.357 L -1.53094,-109.158 L -1.41339,-108.973
 L -1.27354,-108.804 L -1.11362,-108.654 L -0.936111,-108.525 L -0.743851,-108.419 L -0.539856,-108.338 L -0.327362,-108.284
 L -0.109695,-108.256 L 0.109695,-108.256 z
M 0.281067,1.47342 L 0.463516,1.42657 L 0.638657,1.35724 L 0.803726,1.26648 L 0.956131,1.15576 L 1.09344,1.02681
 L 1.21352,0.881668 L 1.31445,0.722626 L 1.39465,0.552185 L 1.45287,0.373032 L 1.48816,0.187988 L 1.5,-0
 L 1.48816,-0.187988 L 1.45287,-0.373032 L 1.39465,-0.552185 L 1.31445,-0.722626 L 1.21352,-0.881668 L 1.09344,-1.02681
 L 0.956131,-1.15576 L 0.803726,-1.26648 L 0.638657,-1.35724 L 0.463516,-1.42657 L 0.281067,-1.47342 L 0.0941772,-1.49704
 L -0.0941772,-1.49704 L -0.281067,-1.47342 L -0.463516,-1.42657 L -0.638657,-1.35724 L -0.803726,-1.26648 L -0.956131,-1.15576
 L -1.09344,-1.02681 L -1.21352,-0.881668 L -1.31445,-0.722626 L -1.39465,-0.552185 L -1.45287,-0.373032 L -1.48816,-0.187988
 L -1.5,-0 L -1.48816,0.187988 L -1.45287,0.373032 L -1.39465,0.552185 L -1.31445,0.722626 L -1.21352,0.881668
 L -1.09344,1.02681 L -0.956131,1.15576 L -0.803726,1.26648 L -0.638657,1.35724 L -0.463516,1.42657 L -0.281067,1.47342
 L -0.0941772,1.49704 L 0.0941772,1.49704 z
" stroke="black" fill="lightgray" stroke-width="0.5"/>
</svg>
