<?xml version="1.0" standalone="no"?>
<!DOCTYPE svg PUBLIC "-//W3C//DTD SVG 1.1//EN" "http://www.w3.org/Graphics/SVG/1.1/DTD/svg11.dtd">
<svg width="134mm" height="21mm" viewBox="-67 -21 134 21" xmlns="http://www.w3.org/2000/svg" version="1.1">
<title>OpenSCAD Model</title>
<path d="
M -62.5307,-11.9 L -62.6289,-12.0547 L -62.7893,-12.3956 L -62.9057,-12.7539 L -62.9763,-13.124 L -63,-13.5
 L -62.9763,-13.876 L -62.9057,-14.2461 L -62.7893,-14.6044 L -62.6289,-14.9453 L -62.427,-15.2634 L -62.1869,-15.5536
 L -61.9123,-15.8115 L -61.6075,-16.033 L -61.2773,-16.2145 L -60.927,-16.3532 L -60.5621,-16.4469 L -60.1884,-16.4941
 L -59.8116,-16.4941 L -59.4379,-16.4469 L -59.0729,-16.3532 L -58.7227,-16.2145 L -58.3925,-16.033 L -58.0877,-15.8115
 L -57.8131,-15.5536 L -57.5729,-15.2634 L -57.3711,-14.9453 L -57.2107,-14.6044 L -57.0942,-14.2461 L -57.0237,-13.876
 L -57,-13.5 L -57.0237,-13.124 L -57.0942,-12.7539 L -57.2107,-12.3956 L -57.3711,-12.0547 L -57.4693,-11.9
 L -57.4693,-9 L -52.9809,-9 L -52.9809,-2.82999 L -57.4693,-2.82999 L -57.4693,-0 L -47.5307,-0
 L -47.5307,-11.9 L -47.6289,-12.0547 L -47.7893,-12.3956 L -47.9057,-12.7539 L -47.9763,-13.124 L -48,-13.5
 L -47.9763,-13.876 L -47.9057,-14.2461 L -47.7893,-14.6044 L -47.6289,-14.9453 L -47.427,-15.2634 L -47.1869,-15.5536
 L -46.9123,-15.8115 L -46.6075,-16.033 L -46.2773,-16.2145 L -45.927,-16.3532 L -45.5621,-16.4469 L -45.1884,-16.4941
 L -44.8116,-16.4941 L -44.4379,-16.4469 L -44.0729,-16.3532 L -43.7227,-16.2145 L -43.3925,-16.033 L -43.0877,-15.8115
 L -42.8131,-15.5536 L -42.5729,-15.2634 L -42.3711,-14.9453 L -42.2107,-14.6044 L -42.0942,-14.2461 L -42.0237,-13.876
 L -42,-13.5 L -42.0237,-13.124 L -42.0942,-12.7539 L -42.2107,-12.3956 L -42.3711,-12.0547 L -42.4693,-11.9
 L -42.4693,-9 L -37.9809,-9 L -37.9809,-2.82999 L -42.4693,-2.82999 L -42.4693,-0 L -32.5307,-0
 L -32.5307,-11.9 L -32.6289,-12.0547 L -32.7893,-12.3956 L -32.9057,-12.7539 L -32.9763,-13.124 L -33,-13.5
 L -32.9763,-13.876 L -32.9057,-14.2461 L -32.7893,-14.6044 L -32.6289,-14.9453 L -32.427,-15.2634 L -32.1869,-15.5536
 L -31.9123,-15.8115 L -31.6075,-16.033 L -31.2773,-16.2145 L -30.927,-16.3532 L -30.5621,-16.4469 L -30.1884,-16.4941
 L -29.8116,-16.4941 L -29.4379,-16.4469 L -29.0729,-16.3532 L -28.7227,-16.2145 L -28.3925,-16.033 L -28.0877,-15.8115
 L -27.8131,-15.5536 L -27.5729,-15.2634 L -27.3711,-14.9453 L -27.2107,-14.6044 L -27.0942,-14.2461 L -27.0237,-13.876
 L -27,-13.5 L -27.0237,-13.124 L -27.0942,-12.7539 L -27.2107,-12.3956 L -27.3711,-12.0547 L -27.4693,-11.9
 L -27.4693,-9 L -22.9809,-9 L -22.9809,-2.82999 L -27.4693,-2.82999 L -27.4693,-0 L -17.5307,-0
 L -17.5307,-11.9 L -17.6289,-12.0547 L -17.7893,-12.3956 L -17.9057,-12.7539 L -17.9763,-13.124 L -18,-13.5
 L -17.9763,-13.876 L -17.9057,-14.2461 L -17.7893,-14.6044 L -17.6289,-14.9453 L -17.427,-15.2634 L -17.1869,-15.5536
 L -16.9123,-15.8115 L -16.6075,-16.033 L -16.2773,-16.2145 L -15.927,-16.3532 L -15.5621,-16.4469 L -15.1884,-16.4941
 L -14.8116,-16.4941 L -14.4379,-16.4469 L -14.0729,-16.3532 L -13.7227,-16.2145 L -13.3925,-16.033 L -13.0877,-15.8115
 L -12.8131,-15.5536 L -12.5729,-15.2634 L -12.3711,-14.9453 L -12.2107,-14.6044 L -12.0942,-14.2461 L -12.0237,-13.876
 L -12,-13.5 L -12.0237,-13.124 L -12.0942,-12.7539 L -12.2107,-12.3956 L -12.3711,-12.0547 L -12.4693,-11.9
 L -12.4693,-9 L -7.98093,-9 L -7.98093,-2.82999 L -12.4693,-2.82999 L -12.4693,-0 L -2.53072,-0
 L -2.53072,-11.9 L -2.62891,-12.0547 L -2.78932,-12.3956 L -2.90575,-12.7539 L -2.97633,-13.124 L -3,-13.5
 L -2.97633,-13.876 L -2.90575,-14.2461 L -2.78932,-14.6044 L -2.62891,-14.9453 L -2.42705,-15.2634 L -2.1869,-15.5536
 L -1.91226,-15.8115 L -1.60747,-16.033 L -1.27733,-16.2145 L -0.927048,-16.3532 L -0.562134,-16.4469 L -0.18837,-16.4941
 L 0.18837,-16.4941 L 0.562134,-16.4469 L 0.927048,-16.3532 L 1.27733,-16.2145 L 1.60747,-16.033 L 1.91226,-15.8115
 L 2.1869,-15.5536 L 2.42705,-15.2634 L 2.62891,-14.9453 L 2.78932,-14.6044 L 2.90575,-14.2461 L 2.97633,-13.876
 L 3,-13.5 L 2.97633,-13.124 L 2.90575,-12.7539 L 2.78932,-12.3956 L 2.62891,-12.0547 L 2.53072,-11.9
 L 2.53072,-9 L 7.01906,-9 L 7.01906,-2.82999 L 2.53072,-2.82999 L 2.53072,-0 L 12.4693,-0
 L 12.4693,-11.9 L 12.3711,-12.0547 L 12.2107,-12.3956 L 12.0942,-12.7539 L 12.0237,-13.124 L 12,-13.5
 L 12.0237,-13.876 L 12.0942,-14.2461 L 12.2107,-14.6044 L 12.3711,-14.9453 L 12.5729,-15.2634 L 12.8131,-15.5536
 L 13.0877,-15.8115 L 13.3925,-16.033 L 13.7227,-16.2145 L 14.0729,-16.3532 L 14.4379,-16.4469 L 14.8116,-16.4941
 L 15.1884,-16.4941 L 15.5621,-16.4469 L 15.927,-16.3532 L 16.2773,-16.2145 L 16.6075,-16.033 L 16.9123,-15.8115
 L 17.1869,-15.5536 L 17.427,-15.2634 L 17.6289,-14.9453 L 17.7893,-14.6044 L 17.9057,-14.2461 L 17.9763,-13.876
 L 18,-13.5 L 17.9763,-13.124 L 17.9057,-12.7539 L 17.7893,-12.3956 L 17.6289,-12.0547 L 17.5307,-11.9
 L 17.5307,-9 L 22.0191,-9 L 22.0191,-2.82999 L 17.5307,-2.82999 L 17.5307,-0 L 27.4693,-0
 L 27.4693,-11.9 L 27.3711,-12.0547 L 27.2107,-12.3956 L 27.0942,-12.7539 L 27.0237,-13.124 L 27,-13.5
 L 27.0237,-13.876 L 27.0942,-14.2461 L 27.2107,-14.6044 L 27.3711,-14.9453 L 27.5729,-15.2634 L 27.8131,-15.5536
 L 28.0877,-15.8115 L 28.3925,-16.033 L 28.7227,-16.2145 L 29.0729,-16.3532 L 29.4379,-16.4469 L 29.8116,-16.4941
 L 30.1884,-16.4941 L 30.5621,-16.4469 L 30.927,-16.3532 L 31.2773,-16.2145 L 31.6075,-16.033 L 31.9123,-15.8115
 L 32.1869,-15.5536 L 32.427,-15.2634 L 32.6289,-14.9453 L 32.7893,-14.6044 L 32.9057,-14.2461 L 32.9763,-13.876
 L 33,-13.5 L 32.9763,-13.124 L 32.9057,-12.7539 L 32.7893,-12.3956 L 32.6289,-12.0547 L 32.5307,-11.9
 L 32.5307,-9 L 37.0191,-9 L 37.0191,-2.82999 L 32.5307,-2.82999 L 32.5307,-0 L 42.4693,-0
 L 42.4693,-11.9 L 42.3711,-12.0547 L 42.2107,-12.3956 L 42.0942,-12.7539 L 42.0237,-13.124 L 42,-13.5
 L 42.0237,-13.876 L 42.0942,-14.2461 L 42.2107,-14.6044 L 42.3711,-14.9453 L 42.5729,-15.2634 L 42.8131,-15.5536
 L 43.0877,-15.8115 L 43.3925,-16.033 L 43.7227,-16.2145 L 44.0729,-16.3532 L 44.4379,-16.4469 L 44.8116,-16.4941
 L 45.1884,-16.4941 L 45.5621,-16.4469 L 45.927,-16.3532 L 46.2773,-16.2145 L 46.6075,-16.033 L 46.9123,-15.8115
 L 47.1869,-15.5536 L 47.427,-15.2634 L 47.6289,-14.9453 L 47.7893,-14.6044 L 47.9057,-14.2461 L 47.9763,-13.876
 L 48,-13.5 L 47.9763,-13.124 L 47.9057,-12.7539 L 47.7893,-12.3956 L 47.6289,-12.0547 L 47.5307,-11.9
 L 47.5307,-9 L 52.0191,-9 L 52.0191,-2.82999 L 47.5307,-2.82999 L 47.5307,-0 L 57.4693,-0
 L 57.4693,-11.9 L 57.3711,-12.0547 L 57.2107,-12.3956 L 57.0942,-12.7539 L 57.0237,-13.124 L 57,-13.5
 L 57.0237,-13.876 L 57.0942,-14.2461 L 57.2107,-14.6044 L 57.3711,-14.9453 L 57.5729,-15.2634 L 57.8131,-15.5536
 L 58.0877,-15.8115 L 58.3925,-16.033 L 58.7227,-16.2145 L 59.0729,-16.3532 L 59.4379,-16.4469 L 59.8116,-16.4941
 L 60.1884,-16.4941 L 60.5621,-16.4469 L 60.927,-16.3532 L 61.2773,-16.2145 L 61.6075,-16.033 L 61.9123,-15.8115
 L 62.1869,-15.5536 L 62.427,-15.2634 L 62.6289,-14.9453 L 62.7893,-14.6044 L 62.9057,-14.2461 L 62.9763,-13.876
 L 63,-13.5 L 62.9763,-13.124 L 62.9057,-12.7539 L 62.7893,-12.3956 L 62.6289,-12.0547 L 62.5307,-11.9
 L 62.5307,-9 L 67,-9 L 67,-15.5 L 66.9606,-16.1267 L 66.8429,-16.7434 L 66.6489,-17.3406
 L 66.3815,-17.9088 L 66.0451,-18.4389 L 65.6448,-18.9227 L 65.1871,-19.3526 L 64.6791,-19.7216 L 64.1289,-20.0241
 L 63.5451,-20.2553 L 62.9369,-20.4114 L 62.3139,-20.4901 L -62.3139,-20.4901 L -62.9369,-20.4114 L -63.5451,-20.2553
 L -64.1289,-20.0241 L -64.6791,-19.7216 L -65.1871,-19.3526 L -65.6448,-18.9227 L -66.0451,-18.4389 L -66.3815,-17.9088
 L -66.6489,-17.3406 L -66.8429,-16.7434 L -66.9606,-16.1267 L -67,-15.5 L -67,-0 L -62.5307,-0
 z
M 67,-2.82999 L 62.5307,-2.82999 L 62.5307,-0 L 67,-0 z
" stroke="black" fill="lightgray" stroke-width="0.5"/>
</svg>
