<?xml version="1.0" standalone="no"?>
<!DOCTYPE svg PUBLIC "-//W3C//DTD SVG 1.1//EN" "http://www.w3.org/Graphics/SVG/1.1/DTD/svg11.dtd">
<svg width="360mm" height="14mm" viewBox="-180 -7 360 14" xmlns="http://www.w3.org/2000/svg" version="1.1">
<title>OpenSCAD Model</title>
<path d="
M 175.437,6.91142 L 176.045,6.75528 L 176.629,6.52412 L 177.179,6.22163 L 177.687,5.85255 L 178.145,5.42273
 L 178.545,4.93892 L 178.882,4.40877 L 179.149,3.84062 L 179.343,3.24344 L 179.461,2.62666 L 179.5,2
 L 179.5,-2 L 179.461,-2.62666 L 179.343,-3.24344 L 179.149,-3.84062 L 178.882,-4.40877 L 178.545,-4.93892
 L 178.145,-5.42273 L 177.687,-5.85255 L 177.179,-6.22163 L 176.629,-6.52412 L 176.045,-6.75528 L 175.437,-6.91142
 L 174.814,-6.99013 L -174.814,-6.99013 L -175.437,-6.91142 L -176.045,-6.75528 L -176.629,-6.52412 L -177.179,-6.22163
 L -177.687,-5.85255 L -178.145,-5.42273 L -178.545,-4.93892 L -178.882,-4.40877 L -179.149,-3.84062 L -179.343,-3.24344
 L -179.461,-2.62666 L -179.5,-2 L -179.5,2 L -179.461,2.62666 L -179.343,3.24344 L -179.149,3.84062
 L -178.882,4.40877 L -178.545,4.93892 L -178.145,5.42273 L -177.687,5.85255 L -177.179,6.22163 L -176.629,6.52412
 L -176.045,6.75528 L -175.437,6.91142 L -174.814,6.99013 L 174.814,6.99013 z
M 172.312,2.99408 L 171.938,2.94685 L 171.573,2.85316 L 171.223,2.71448 L 170.893,2.53297 L 170.588,2.31154
 L 170.313,2.05363 L 170.073,1.76335 L 169.871,1.44525 L 169.711,1.10437 L 169.594,0.746063 L 169.524,0.375992
 L 169.5,-0 L 169.524,-0.375992 L 169.594,-0.746063 L 169.711,-1.10437 L 169.871,-1.44525 L 170.073,-1.76335
 L 170.313,-2.05363 L 170.588,-2.31154 L 170.893,-2.53297 L 171.223,-2.71448 L 171.573,-2.85316 L 171.938,-2.94685
 L 172.312,-2.99408 L 172.688,-2.99408 L 173.062,-2.94685 L 173.427,-2.85316 L 173.777,-2.71448 L 174.107,-2.53297
 L 174.412,-2.31154 L 174.687,-2.05363 L 174.927,-1.76335 L 175.129,-1.44525 L 175.289,-1.10437 L 175.406,-0.746063
 L 175.476,-0.375992 L 175.5,-0 L 175.476,0.375992 L 175.406,0.746063 L 175.289,1.10437 L 175.129,1.44525
 L 174.927,1.76335 L 174.687,2.05363 L 174.412,2.31154 L 174.107,2.53297 L 173.777,2.71448 L 173.427,2.85316
 L 173.062,2.94685 L 172.688,2.99408 z
M -67.6884,2.99408 L -68.0621,2.94685 L -68.427,2.85316 L -68.7773,2.71448 L -69.1075,2.53297 L -69.4123,2.31154
 L -69.6869,2.05363 L -69.927,1.76335 L -70.1289,1.44525 L -70.2893,1.10437 L -70.4057,0.746063 L -70.4763,0.375992
 L -70.5,-0 L -70.4763,-0.375992 L -70.4057,-0.746063 L -70.2893,-1.10437 L -70.1289,-1.44525 L -69.927,-1.76335
 L -69.6869,-2.05363 L -69.4123,-2.31154 L -69.1075,-2.53297 L -68.7773,-2.71448 L -68.427,-2.85316 L -68.0621,-2.94685
 L -67.6884,-2.99408 L -67.3116,-2.99408 L -66.9379,-2.94685 L -66.573,-2.85316 L -66.2227,-2.71448 L -65.8925,-2.53297
 L -65.5877,-2.31154 L -65.3131,-2.05363 L -65.073,-1.76335 L -64.8711,-1.44525 L -64.7107,-1.10437 L -64.5943,-0.746063
 L -64.5237,-0.375992 L -64.5,-0 L -64.5237,0.375992 L -64.5943,0.746063 L -64.7107,1.10437 L -64.8711,1.44525
 L -65.073,1.76335 L -65.3131,2.05363 L -65.5877,2.31154 L -65.8925,2.53297 L -66.2227,2.71448 L -66.573,2.85316
 L -66.9379,2.94685 L -67.3116,2.99408 z
M -22.6884,2.99408 L -23.0621,2.94685 L -23.427,2.85316 L -23.7773,2.71448 L -24.1075,2.53297 L -24.4123,2.31154
 L -24.6869,2.05363 L -24.927,1.76335 L -25.1289,1.44525 L -25.2893,1.10437 L -25.4057,0.746063 L -25.4763,0.375992
 L -25.5,-0 L -25.4763,-0.375992 L -25.4057,-0.746063 L -25.2893,-1.10437 L -25.1289,-1.44525 L -24.927,-1.76335
 L -24.6869,-2.05363 L -24.4123,-2.31154 L -24.1075,-2.53297 L -23.7773,-2.71448 L -23.427,-2.85316 L -23.0621,-2.94685
 L -22.6884,-2.99408 L -22.3116,-2.99408 L -21.9379,-2.94685 L -21.5729,-2.85316 L -21.2227,-2.71448 L -20.8925,-2.53297
 L -20.5877,-2.31154 L -20.3131,-2.05363 L -20.0729,-1.76335 L -19.8711,-1.44525 L -19.7107,-1.10437 L -19.5942,-0.746063
 L -19.5237,-0.375992 L -19.5,-0 L -19.5237,0.375992 L -19.5942,0.746063 L -19.7107,1.10437 L -19.8711,1.44525
 L -20.0729,1.76335 L -20.3131,2.05363 L -20.5877,2.31154 L -20.8925,2.53297 L -21.2227,2.71448 L -21.5729,2.85316
 L -21.9379,2.94685 L -22.3116,2.99408 z
M -82.6884,2.99408 L -83.0621,2.94685 L -83.427,2.85316 L -83.7773,2.71448 L -84.1075,2.53297 L -84.4123,2.31154
 L -84.6869,2.05363 L -84.927,1.76335 L -85.1289,1.44525 L -85.2893,1.10437 L -85.4057,0.746063 L -85.4763,0.375992
 L -85.5,-0 L -85.4763,-0.375992 L -85.4057,-0.746063 L -85.2893,-1.10437 L -85.1289,-1.44525 L -84.927,-1.76335
 L -84.6869,-2.05363 L -84.4123,-2.31154 L -84.1075,-2.53297 L -83.7773,-2.71448 L -83.427,-2.85316 L -83.0621,-2.94685
 L -82.6884,-2.99408 L -82.3116,-2.99408 L -81.9379,-2.94685 L -81.573,-2.85316 L -81.2227,-2.71448 L -80.8925,-2.53297
 L -80.5877,-2.31154 L -80.3131,-2.05363 L -80.073,-1.76335 L -79.8711,-1.44525 L -79.7107,-1.10437 L -79.5943,-0.746063
 L -79.5237,-0.375992 L -79.5,-0 L -79.5237,0.375992 L -79.5943,0.746063 L -79.7107,1.10437 L -79.8711,1.44525
 L -80.073,1.76335 L -80.3131,2.05363 L -80.5877,2.31154 L -80.8925,2.53297 L -81.2227,2.71448 L -81.573,2.85316
 L -81.9379,2.94685 L -82.3116,2.99408 z
M -97.6884,2.99408 L -98.0621,2.94685 L -98.427,2.85316 L -98.7773,2.71448 L -99.1075,2.53297 L -99.4123,2.31154
 L -99.6869,2.05363 L -99.927,1.76335 L -100.129,1.44525 L -100.289,1.10437 L -100.406,0.746063 L -100.476,0.375992
 L -100.5,-0 L -100.476,-0.375992 L -100.406,-0.746063 L -100.289,-1.10437 L -100.129,-1.44525 L -99.927,-1.76335
 L -99.6869,-2.05363 L -99.4123,-2.31154 L -99.1075,-2.53297 L -98.7773,-2.71448 L -98.427,-2.85316 L -98.0621,-2.94685
 L -97.6884,-2.99408 L -97.3116,-2.99408 L -96.9379,-2.94685 L -96.573,-2.85316 L -96.2227,-2.71448 L -95.8925,-2.53297
 L -95.5877,-2.31154 L -95.3131,-2.05363 L -95.073,-1.76335 L -94.8711,-1.44525 L -94.7107,-1.10437 L -94.5943,-0.746063
 L -94.5237,-0.375992 L -94.5,-0 L -94.5237,0.375992 L -94.5943,0.746063 L -94.7107,1.10437 L -94.8711,1.44525
 L -95.073,1.76335 L -95.3131,2.05363 L -95.5877,2.31154 L -95.8925,2.53297 L -96.2227,2.71448 L -96.573,2.85316
 L -96.9379,2.94685 L -97.3116,2.99408 z
M -37.6884,2.99408 L -38.0621,2.94685 L -38.427,2.85316 L -38.7773,2.71448 L -39.1075,2.53297 L -39.4123,2.31154
 L -39.6869,2.05363 L -39.927,1.76335 L -40.1289,1.44525 L -40.2893,1.10437 L -40.4057,0.746063 L -40.4763,0.375992
 L -40.5,-0 L -40.4763,-0.375992 L -40.4057,-0.746063 L -40.2893,-1.10437 L -40.1289,-1.44525 L -39.927,-1.76335
 L -39.6869,-2.05363 L -39.4123,-2.31154 L -39.1075,-2.53297 L -38.7773,-2.71448 L -38.427,-2.85316 L -38.0621,-2.94685
 L -37.6884,-2.99408 L -37.3116,-2.99408 L -36.9379,-2.94685 L -36.5729,-2.85316 L -36.2227,-2.71448 L -35.8925,-2.53297
 L -35.5877,-2.31154 L -35.3131,-2.05363 L -35.0729,-1.76335 L -34.8711,-1.44525 L -34.7107,-1.10437 L -34.5942,-0.746063
 L -34.5237,-0.375992 L -34.5,-0 L -34.5237,0.375992 L -34.5942,0.746063 L -34.7107,1.10437 L -34.8711,1.44525
 L -35.0729,1.76335 L -35.3131,2.05363 L -35.5877,2.31154 L -35.8925,2.53297 L -36.2227,2.71448 L -36.5729,2.85316
 L -36.9379,2.94685 L -37.3116,2.99408 z
M -52.6884,2.99408 L -53.0621,2.94685 L -53.427,2.85316 L -53.7773,2.71448 L -54.1075,2.53297 L -54.4123,2.31154
 L -54.6869,2.05363 L -54.927,1.76335 L -55.1289,1.44525 L -55.2893,1.10437 L -55.4057,0.746063 L -55.4763,0.375992
 L -55.5,-0 L -55.4763,-0.375992 L -55.4057,-0.746063 L -55.2893,-1.10437 L -55.1289,-1.44525 L -54.927,-1.76335
 L -54.6869,-2.05363 L -54.4123,-2.31154 L -54.1075,-2.53297 L -53.7773,-2.71448 L -53.427,-2.85316 L -53.0621,-2.94685
 L -52.6884,-2.99408 L -52.3116,-2.99408 L -51.9379,-2.94685 L -51.5729,-2.85316 L -51.2227,-2.71448 L -50.8925,-2.53297
 L -50.5877,-2.31154 L -50.3131,-2.05363 L -50.0729,-1.76335 L -49.8711,-1.44525 L -49.7107,-1.10437 L -49.5942,-0.746063
 L -49.5237,-0.375992 L -49.5,-0 L -49.5237,0.375992 L -49.5942,0.746063 L -49.7107,1.10437 L -49.8711,1.44525
 L -50.0729,1.76335 L -50.3131,2.05363 L -50.5877,2.31154 L -50.8925,2.53297 L -51.2227,2.71448 L -51.5729,2.85316
 L -51.9379,2.94685 L -52.3116,2.99408 z
M 37.3116,2.99408 L 36.9379,2.94685 L 36.5729,2.85316 L 36.2227,2.71448 L 35.8925,2.53297 L 35.5877,2.31154
 L 35.3131,2.05363 L 35.0729,1.76335 L 34.8711,1.44525 L 34.7107,1.10437 L 34.5942,0.746063 L 34.5237,0.375992
 L 34.5,-0 L 34.5237,-0.375992 L 34.5942,-0.746063 L 34.7107,-1.10437 L 34.8711,-1.44525 L 35.0729,-1.76335
 L 35.3131,-2.05363 L 35.5877,-2.31154 L 35.8925,-2.53297 L 36.2227,-2.71448 L 36.5729,-2.85316 L 36.9379,-2.94685
 L 37.3116,-2.99408 L 37.6884,-2.99408 L 38.0621,-2.94685 L 38.427,-2.85316 L 38.7773,-2.71448 L 39.1075,-2.53297
 L 39.4123,-2.31154 L 39.6869,-2.05363 L 39.927,-1.76335 L 40.1289,-1.44525 L 40.2893,-1.10437 L 40.4057,-0.746063
 L 40.4763,-0.375992 L 40.5,-0 L 40.4763,0.375992 L 40.4057,0.746063 L 40.2893,1.10437 L 40.1289,1.44525
 L 39.927,1.76335 L 39.6869,2.05363 L 39.4123,2.31154 L 39.1075,2.53297 L 38.7773,2.71448 L 38.427,2.85316
 L 38.0621,2.94685 L 37.6884,2.99408 z
M 127.312,2.99408 L 126.938,2.94685 L 126.573,2.85316 L 126.223,2.71448 L 125.893,2.53297 L 125.588,2.31154
 L 125.313,2.05363 L 125.073,1.76335 L 124.871,1.44525 L 124.711,1.10437 L 124.594,0.746063 L 124.524,0.375992
 L 124.5,-0 L 124.524,-0.375992 L 124.594,-0.746063 L 124.711,-1.10437 L 124.871,-1.44525 L 125.073,-1.76335
 L 125.313,-2.05363 L 125.588,-2.31154 L 125.893,-2.53297 L 126.223,-2.71448 L 126.573,-2.85316 L 126.938,-2.94685
 L 127.312,-2.99408 L 127.688,-2.99408 L 128.062,-2.94685 L 128.427,-2.85316 L 128.777,-2.71448 L 129.107,-2.53297
 L 129.412,-2.31154 L 129.687,-2.05363 L 129.927,-1.76335 L 130.129,-1.44525 L 130.289,-1.10437 L 130.406,-0.746063
 L 130.476,-0.375992 L 130.5,-0 L 130.476,0.375992 L 130.406,0.746063 L 130.289,1.10437 L 130.129,1.44525
 L 129.927,1.76335 L 129.687,2.05363 L 129.412,2.31154 L 129.107,2.53297 L 128.777,2.71448 L 128.427,2.85316
 L 128.062,2.94685 L 127.688,2.99408 z
M -127.688,2.99408 L -128.062,2.94685 L -128.427,2.85316 L -128.777,2.71448 L -129.107,2.53297 L -129.412,2.31154
 L -129.687,2.05363 L -129.927,1.76335 L -130.129,1.44525 L -130.289,1.10437 L -130.406,0.746063 L -130.476,0.375992
 L -130.5,-0 L -130.476,-0.375992 L -130.406,-0.746063 L -130.289,-1.10437 L -130.129,-1.44525 L -129.927,-1.76335
 L -129.687,-2.05363 L -129.412,-2.31154 L -129.107,-2.53297 L -128.777,-2.71448 L -128.427,-2.85316 L -128.062,-2.94685
 L -127.688,-2.99408 L -127.312,-2.99408 L -126.938,-2.94685 L -126.573,-2.85316 L -126.223,-2.71448 L -125.893,-2.53297
 L -125.588,-2.31154 L -125.313,-2.05363 L -125.073,-1.76335 L -124.871,-1.44525 L -124.711,-1.10437 L -124.594,-0.746063
 L -124.524,-0.375992 L -124.5,-0 L -124.524,0.375992 L -124.594,0.746063 L -124.711,1.10437 L -124.871,1.44525
 L -125.073,1.76335 L -125.313,2.05363 L -125.588,2.31154 L -125.893,2.53297 L -126.223,2.71448 L -126.573,2.85316
 L -126.938,2.94685 L -127.312,2.99408 z
M 52.3116,2.99408 L 51.9379,2.94685 L 51.5729,2.85316 L 51.2227,2.71448 L 50.8925,2.53297 L 50.5877,2.31154
 L 50.3131,2.05363 L 50.0729,1.76335 L 49.8711,1.44525 L 49.7107,1.10437 L 49.5942,0.746063 L 49.5237,0.375992
 L 49.5,-0 L 49.5237,-0.375992 L 49.5942,-0.746063 L 49.7107,-1.10437 L 49.8711,-1.44525 L 50.0729,-1.76335
 L 50.3131,-2.05363 L 50.5877,-2.31154 L 50.8925,-2.53297 L 51.2227,-2.71448 L 51.5729,-2.85316 L 51.9379,-2.94685
 L 52.3116,-2.99408 L 52.6884,-2.99408 L 53.0621,-2.94685 L 53.427,-2.85316 L 53.7773,-2.71448 L 54.1075,-2.53297
 L 54.4123,-2.31154 L 54.6869,-2.05363 L 54.927,-1.76335 L 55.1289,-1.44525 L 55.2893,-1.10437 L 55.4057,-0.746063
 L 55.4763,-0.375992 L 55.5,-0 L 55.4763,0.375992 L 55.4057,0.746063 L 55.2893,1.10437 L 55.1289,1.44525
 L 54.927,1.76335 L 54.6869,2.05363 L 54.4123,2.31154 L 54.1075,2.53297 L 53.7773,2.71448 L 53.427,2.85316
 L 53.0621,2.94685 L 52.6884,2.99408 z
M 142.312,2.99408 L 141.938,2.94685 L 141.573,2.85316 L 141.223,2.71448 L 140.893,2.53297 L 140.588,2.31154
 L 140.313,2.05363 L 140.073,1.76335 L 139.871,1.44525 L 139.711,1.10437 L 139.594,0.746063 L 139.524,0.375992
 L 139.5,-0 L 139.524,-0.375992 L 139.594,-0.746063 L 139.711,-1.10437 L 139.871,-1.44525 L 140.073,-1.76335
 L 140.313,-2.05363 L 140.588,-2.31154 L 140.893,-2.53297 L 141.223,-2.71448 L 141.573,-2.85316 L 141.938,-2.94685
 L 142.312,-2.99408 L 142.688,-2.99408 L 143.062,-2.94685 L 143.427,-2.85316 L 143.777,-2.71448 L 144.107,-2.53297
 L 144.412,-2.31154 L 144.687,-2.05363 L 144.927,-1.76335 L 145.129,-1.44525 L 145.289,-1.10437 L 145.406,-0.746063
 L 145.476,-0.375992 L 145.5,-0 L 145.476,0.375992 L 145.406,0.746063 L 145.289,1.10437 L 145.129,1.44525
 L 144.927,1.76335 L 144.687,2.05363 L 144.412,2.31154 L 144.107,2.53297 L 143.777,2.71448 L 143.427,2.85316
 L 143.062,2.94685 L 142.688,2.99408 z
M -7.68837,2.99408 L -8.06213,2.94685 L -8.42705,2.85316 L -8.77733,2.71448 L -9.10747,2.53297 L -9.41226,2.31154
 L -9.6869,2.05363 L -9.92705,1.76335 L -10.1289,1.44525 L -10.2893,1.10437 L -10.4057,0.746063 L -10.4763,0.375992
 L -10.5,-0 L -10.4763,-0.375992 L -10.4057,-0.746063 L -10.2893,-1.10437 L -10.1289,-1.44525 L -9.92705,-1.76335
 L -9.6869,-2.05363 L -9.41226,-2.31154 L -9.10747,-2.53297 L -8.77733,-2.71448 L -8.42705,-2.85316 L -8.06213,-2.94685
 L -7.68837,-2.99408 L -7.31161,-2.99408 L -6.93785,-2.94685 L -6.57294,-2.85316 L -6.22266,-2.71448 L -5.89252,-2.53297
 L -5.58772,-2.31154 L -5.31308,-2.05363 L -5.07294,-1.76335 L -4.87108,-1.44525 L -4.71066,-1.10437 L -4.59424,-0.746063
 L -4.52365,-0.375992 L -4.5,-0 L -4.52365,0.375992 L -4.59424,0.746063 L -4.71066,1.10437 L -4.87108,1.44525
 L -5.07294,1.76335 L -5.31308,2.05363 L -5.58772,2.31154 L -5.89252,2.53297 L -6.22266,2.71448 L -6.57294,2.85316
 L -6.93785,2.94685 L -7.31161,2.99408 z
M 67.3116,2.99408 L 66.9379,2.94685 L 66.573,2.85316 L 66.2227,2.71448 L 65.8925,2.53297 L 65.5877,2.31154
 L 65.3131,2.05363 L 65.073,1.76335 L 64.8711,1.44525 L 64.7107,1.10437 L 64.5943,0.746063 L 64.5237,0.375992
 L 64.5,-0 L 64.5237,-0.375992 L 64.5943,-0.746063 L 64.7107,-1.10437 L 64.8711,-1.44525 L 65.073,-1.76335
 L 65.3131,-2.05363 L 65.5877,-2.31154 L 65.8925,-2.53297 L 66.2227,-2.71448 L 66.573,-2.85316 L 66.9379,-2.94685
 L 67.3116,-2.99408 L 67.6884,-2.99408 L 68.0621,-2.94685 L 68.427,-2.85316 L 68.7773,-2.71448 L 69.1075,-2.53297
 L 69.4123,-2.31154 L 69.6869,-2.05363 L 69.927,-1.76335 L 70.1289,-1.44525 L 70.2893,-1.10437 L 70.4057,-0.746063
 L 70.4763,-0.375992 L 70.5,-0 L 70.4763,0.375992 L 70.4057,0.746063 L 70.2893,1.10437 L 70.1289,1.44525
 L 69.927,1.76335 L 69.6869,2.05363 L 69.4123,2.31154 L 69.1075,2.53297 L 68.7773,2.71448 L 68.427,2.85316
 L 68.0621,2.94685 L 67.6884,2.99408 z
M 82.3116,2.99408 L 81.9379,2.94685 L 81.573,2.85316 L 81.2227,2.71448 L 80.8925,2.53297 L 80.5877,2.31154
 L 80.3131,2.05363 L 80.073,1.76335 L 79.8711,1.44525 L 79.7107,1.10437 L 79.5943,0.746063 L 79.5237,0.375992
 L 79.5,-0 L 79.5237,-0.375992 L 79.5943,-0.746063 L 79.7107,-1.10437 L 79.8711,-1.44525 L 80.073,-1.76335
 L 80.3131,-2.05363 L 80.5877,-2.31154 L 80.8925,-2.53297 L 81.2227,-2.71448 L 81.573,-2.85316 L 81.9379,-2.94685
 L 82.3116,-2.99408 L 82.6884,-2.99408 L 83.0621,-2.94685 L 83.427,-2.85316 L 83.7773,-2.71448 L 84.1075,-2.53297
 L 84.4123,-2.31154 L 84.6869,-2.05363 L 84.927,-1.76335 L 85.1289,-1.44525 L 85.2893,-1.10437 L 85.4057,-0.746063
 L 85.4763,-0.375992 L 85.5,-0 L 85.4763,0.375992 L 85.4057,0.746063 L 85.2893,1.10437 L 85.1289,1.44525
 L 84.927,1.76335 L 84.6869,2.05363 L 84.4123,2.31154 L 84.1075,2.53297 L 83.7773,2.71448 L 83.427,2.85316
 L 83.0621,2.94685 L 82.6884,2.99408 z
M -157.688,2.99408 L -158.062,2.94685 L -158.427,2.85316 L -158.777,2.71448 L -159.107,2.53297 L -159.412,2.31154
 L -159.687,2.05363 L -159.927,1.76335 L -160.129,1.44525 L -160.289,1.10437 L -160.406,0.746063 L -160.476,0.375992
 L -160.5,-0 L -160.476,-0.375992 L -160.406,-0.746063 L -160.289,-1.10437 L -160.129,-1.44525 L -159.927,-1.76335
 L -159.687,-2.05363 L -159.412,-2.31154 L -159.107,-2.53297 L -158.777,-2.71448 L -158.427,-2.85316 L -158.062,-2.94685
 L -157.688,-2.99408 L -157.312,-2.99408 L -156.938,-2.94685 L -156.573,-2.85316 L -156.223,-2.71448 L -155.893,-2.53297
 L -155.588,-2.31154 L -155.313,-2.05363 L -155.073,-1.76335 L -154.871,-1.44525 L -154.711,-1.10437 L -154.594,-0.746063
 L -154.524,-0.375992 L -154.5,-0 L -154.524,0.375992 L -154.594,0.746063 L -154.711,1.10437 L -154.871,1.44525
 L -155.073,1.76335 L -155.313,2.05363 L -155.588,2.31154 L -155.893,2.53297 L -156.223,2.71448 L -156.573,2.85316
 L -156.938,2.94685 L -157.312,2.99408 z
M 97.3116,2.99408 L 96.9379,2.94685 L 96.573,2.85316 L 96.2227,2.71448 L 95.8925,2.53297 L 95.5877,2.31154
 L 95.3131,2.05363 L 95.073,1.76335 L 94.8711,1.44525 L 94.7107,1.10437 L 94.5943,0.746063 L 94.5237,0.375992
 L 94.5,-0 L 94.5237,-0.375992 L 94.5943,-0.746063 L 94.7107,-1.10437 L 94.8711,-1.44525 L 95.073,-1.76335
 L 95.3131,-2.05363 L 95.5877,-2.31154 L 95.8925,-2.53297 L 96.2227,-2.71448 L 96.573,-2.85316 L 96.9379,-2.94685
 L 97.3116,-2.99408 L 97.6884,-2.99408 L 98.0621,-2.94685 L 98.427,-2.85316 L 98.7773,-2.71448 L 99.1075,-2.53297
 L 99.4123,-2.31154 L 99.6869,-2.05363 L 99.927,-1.76335 L 100.129,-1.44525 L 100.289,-1.10437 L 100.406,-0.746063
 L 100.476,-0.375992 L 100.5,-0 L 100.476,0.375992 L 100.406,0.746063 L 100.289,1.10437 L 100.129,1.44525
 L 99.927,1.76335 L 99.6869,2.05363 L 99.4123,2.31154 L 99.1075,2.53297 L 98.7773,2.71448 L 98.427,2.85316
 L 98.0621,2.94685 L 97.6884,2.99408 z
M -142.688,2.99408 L -143.062,2.94685 L -143.427,2.85316 L -143.777,2.71448 L -144.107,2.53297 L -144.412,2.31154
 L -144.687,2.05363 L -144.927,1.76335 L -145.129,1.44525 L -145.289,1.10437 L -145.406,0.746063 L -145.476,0.375992
 L -145.5,-0 L -145.476,-0.375992 L -145.406,-0.746063 L -145.289,-1.10437 L -145.129,-1.44525 L -144.927,-1.76335
 L -144.687,-2.05363 L -144.412,-2.31154 L -144.107,-2.53297 L -143.777,-2.71448 L -143.427,-2.85316 L -143.062,-2.94685
 L -142.688,-2.99408 L -142.312,-2.99408 L -141.938,-2.94685 L -141.573,-2.85316 L -141.223,-2.71448 L -140.893,-2.53297
 L -140.588,-2.31154 L -140.313,-2.05363 L -140.073,-1.76335 L -139.871,-1.44525 L -139.711,-1.10437 L -139.594,-0.746063
 L -139.524,-0.375992 L -139.5,-0 L -139.524,0.375992 L -139.594,0.746063 L -139.711,1.10437 L -139.871,1.44525
 L -140.073,1.76335 L -140.313,2.05363 L -140.588,2.31154 L -140.893,2.53297 L -141.223,2.71448 L -141.573,2.85316
 L -141.938,2.94685 L -142.312,2.99408 z
M -112.688,2.99408 L -113.062,2.94685 L -113.427,2.85316 L -113.777,2.71448 L -114.107,2.53297 L -114.412,2.31154
 L -114.687,2.05363 L -114.927,1.76335 L -115.129,1.44525 L -115.289,1.10437 L -115.406,0.746063 L -115.476,0.375992
 L -115.5,-0 L -115.476,-0.375992 L -115.406,-0.746063 L -115.289,-1.10437 L -115.129,-1.44525 L -114.927,-1.76335
 L -114.687,-2.05363 L -114.412,-2.31154 L -114.107,-2.53297 L -113.777,-2.71448 L -113.427,-2.85316 L -113.062,-2.94685
 L -112.688,-2.99408 L -112.312,-2.99408 L -111.938,-2.94685 L -111.573,-2.85316 L -111.223,-2.71448 L -110.893,-2.53297
 L -110.588,-2.31154 L -110.313,-2.05363 L -110.073,-1.76335 L -109.871,-1.44525 L -109.711,-1.10437 L -109.594,-0.746063
 L -109.524,-0.375992 L -109.5,-0 L -109.524,0.375992 L -109.594,0.746063 L -109.711,1.10437 L -109.871,1.44525
 L -110.073,1.76335 L -110.313,2.05363 L -110.588,2.31154 L -110.893,2.53297 L -111.223,2.71448 L -111.573,2.85316
 L -111.938,2.94685 L -112.312,2.99408 z
M 112.312,2.99408 L 111.938,2.94685 L 111.573,2.85316 L 111.223,2.71448 L 110.893,2.53297 L 110.588,2.31154
 L 110.313,2.05363 L 110.073,1.76335 L 109.871,1.44525 L 109.711,1.10437 L 109.594,0.746063 L 109.524,0.375992
 L 109.5,-0 L 109.524,-0.375992 L 109.594,-0.746063 L 109.711,-1.10437 L 109.871,-1.44525 L 110.073,-1.76335
 L 110.313,-2.05363 L 110.588,-2.31154 L 110.893,-2.53297 L 111.223,-2.71448 L 111.573,-2.85316 L 111.938,-2.94685
 L 112.312,-2.99408 L 112.688,-2.99408 L 113.062,-2.94685 L 113.427,-2.85316 L 113.777,-2.71448 L 114.107,-2.53297
 L 114.412,-2.31154 L 114.687,-2.05363 L 114.927,-1.76335 L 115.129,-1.44525 L 115.289,-1.10437 L 115.406,-0.746063
 L 115.476,-0.375992 L 115.5,-0 L 115.476,0.375992 L 115.406,0.746063 L 115.289,1.10437 L 115.129,1.44525
 L 114.927,1.76335 L 114.687,2.05363 L 114.412,2.31154 L 114.107,2.53297 L 113.777,2.71448 L 113.427,2.85316
 L 113.062,2.94685 L 112.688,2.99408 z
M -172.688,2.99408 L -173.062,2.94685 L -173.427,2.85316 L -173.777,2.71448 L -174.107,2.53297 L -174.412,2.31154
 L -174.687,2.05363 L -174.927,1.76335 L -175.129,1.44525 L -175.289,1.10437 L -175.406,0.746063 L -175.476,0.375992
 L -175.5,-0 L -175.476,-0.375992 L -175.406,-0.746063 L -175.289,-1.10437 L -175.129,-1.44525 L -174.927,-1.76335
 L -174.687,-2.05363 L -174.412,-2.31154 L -174.107,-2.53297 L -173.777,-2.71448 L -173.427,-2.85316 L -173.062,-2.94685
 L -172.688,-2.99408 L -172.312,-2.99408 L -171.938,-2.94685 L -171.573,-2.85316 L -171.223,-2.71448 L -170.893,-2.53297
 L -170.588,-2.31154 L -170.313,-2.05363 L -170.073,-1.76335 L -169.871,-1.44525 L -169.711,-1.10437 L -169.594,-0.746063
 L -169.524,-0.375992 L -169.5,-0 L -169.524,0.375992 L -169.594,0.746063 L -169.711,1.10437 L -169.871,1.44525
 L -170.073,1.76335 L -170.313,2.05363 L -170.588,2.31154 L -170.893,2.53297 L -171.223,2.71448 L -171.573,2.85316
 L -171.938,2.94685 L -172.312,2.99408 z
M 157.312,2.99408 L 156.938,2.94685 L 156.573,2.85316 L 156.223,2.71448 L 155.893,2.53297 L 155.588,2.31154
 L 155.313,2.05363 L 155.073,1.76335 L 154.871,1.44525 L 154.711,1.10437 L 154.594,0.746063 L 154.524,0.375992
 L 154.5,-0 L 154.524,-0.375992 L 154.594,-0.746063 L 154.711,-1.10437 L 154.871,-1.44525 L 155.073,-1.76335
 L 155.313,-2.05363 L 155.588,-2.31154 L 155.893,-2.53297 L 156.223,-2.71448 L 156.573,-2.85316 L 156.938,-2.94685
 L 157.312,-2.99408 L 157.688,-2.99408 L 158.062,-2.94685 L 158.427,-2.85316 L 158.777,-2.71448 L 159.107,-2.53297
 L 159.412,-2.31154 L 159.687,-2.05363 L 159.927,-1.76335 L 160.129,-1.44525 L 160.289,-1.10437 L 160.406,-0.746063
 L 160.476,-0.375992 L 160.5,-0 L 160.476,0.375992 L 160.406,0.746063 L 160.289,1.10437 L 160.129,1.44525
 L 159.927,1.76335 L 159.687,2.05363 L 159.412,2.31154 L 159.107,2.53297 L 158.777,2.71448 L 158.427,2.85316
 L 158.062,2.94685 L 157.688,2.99408 z
M 7.31161,2.99408 L 6.93785,2.94685 L 6.57294,2.85316 L 6.22266,2.71448 L 5.89252,2.53297 L 5.58772,2.31154
 L 5.31308,2.05363 L 5.07294,1.76335 L 4.87108,1.44525 L 4.71066,1.10437 L 4.59424,0.746063 L 4.52365,0.375992
 L 4.5,-0 L 4.52365,-0.375992 L 4.59424,-0.746063 L 4.71066,-1.10437 L 4.87108,-1.44525 L 5.07294,-1.76335
 L 5.31308,-2.05363 L 5.58772,-2.31154 L 5.89252,-2.53297 L 6.22266,-2.71448 L 6.57294,-2.85316 L 6.93785,-2.94685
 L 7.31161,-2.99408 L 7.68837,-2.99408 L 8.06213,-2.94685 L 8.42705,-2.85316 L 8.77733,-2.71448 L 9.10747,-2.53297
 L 9.41226,-2.31154 L 9.6869,-2.05363 L 9.92705,-1.76335 L 10.1289,-1.44525 L 10.2893,-1.10437 L 10.4057,-0.746063
 L 10.4763,-0.375992 L 10.5,-0 L 10.4763,0.375992 L 10.4057,0.746063 L 10.2893,1.10437 L 10.1289,1.44525
 L 9.92705,1.76335 L 9.6869,2.05363 L 9.41226,2.31154 L 9.10747,2.53297 L 8.77733,2.71448 L 8.42705,2.85316
 L 8.06213,2.94685 L 7.68837,2.99408 z
M 22.3116,2.99408 L 21.9379,2.94685 L 21.5729,2.85316 L 21.2227,2.71448 L 20.8925,2.53297 L 20.5877,2.31154
 L 20.3131,2.05363 L 20.0729,1.76335 L 19.8711,1.44525 L 19.7107,1.10437 L 19.5942,0.746063 L 19.5237,0.375992
 L 19.5,-0 L 19.5237,-0.375992 L 19.5942,-0.746063 L 19.7107,-1.10437 L 19.8711,-1.44525 L 20.0729,-1.76335
 L 20.3131,-2.05363 L 20.5877,-2.31154 L 20.8925,-2.53297 L 21.2227,-2.71448 L 21.5729,-2.85316 L 21.9379,-2.94685
 L 22.3116,-2.99408 L 22.6884,-2.99408 L 23.0621,-2.94685 L 23.427,-2.85316 L 23.7773,-2.71448 L 24.1075,-2.53297
 L 24.4123,-2.31154 L 24.6869,-2.05363 L 24.927,-1.76335 L 25.1289,-1.44525 L 25.2893,-1.10437 L 25.4057,-0.746063
 L 25.4763,-0.375992 L 25.5,-0 L 25.4763,0.375992 L 25.4057,0.746063 L 25.2893,1.10437 L 25.1289,1.44525
 L 24.927,1.76335 L 24.6869,2.05363 L 24.4123,2.31154 L 24.1075,2.53297 L 23.7773,2.71448 L 23.427,2.85316
 L 23.0621,2.94685 L 22.6884,2.99408 z
" stroke="black" fill="lightgray" stroke-width="0.5"/>
</svg>
