<?xml version="1.0" standalone="no"?>
<!DOCTYPE svg PUBLIC "-//W3C//DTD SVG 1.1//EN" "http://www.w3.org/Graphics/SVG/1.1/DTD/svg11.dtd">
<svg width="12mm" height="317mm" viewBox="-6 -314 12 317" xmlns="http://www.w3.org/2000/svg" version="1.1">
<title>OpenSCAD Model</title>
<path d="
M 5.76999,-309 L 2.88499,-313.997 L -2.88499,-313.997 L -5.76999,-309 L -2.88499,-304.003 L 2.88499,-304.003
 z
M 0.562134,-203.053 L 0.927048,-203.147 L 1.27733,-203.286 L 1.60747,-203.467 L 1.91226,-203.688 L 2.1869,-203.946
 L 2.42705,-204.237 L 2.62891,-204.555 L 2.78932,-204.896 L 2.90575,-205.254 L 2.97633,-205.624 L 3,-206
 L 2.97633,-206.376 L 2.90575,-206.746 L 2.78932,-207.104 L 2.62891,-207.445 L 2.42705,-207.763 L 2.1869,-208.054
 L 1.91226,-208.312 L 1.60747,-208.533 L 1.27733,-208.714 L 0.927048,-208.853 L 0.562134,-208.947 L 0.18837,-208.994
 L -0.18837,-208.994 L -0.562134,-208.947 L -0.927048,-208.853 L -1.27733,-208.714 L -1.60747,-208.533 L -1.91226,-208.312
 L -2.1869,-208.054 L -2.42705,-207.763 L -2.62891,-207.445 L -2.78932,-207.104 L -2.90575,-206.746 L -2.97633,-206.376
 L -3,-206 L -2.97633,-205.624 L -2.90575,-205.254 L -2.78932,-204.896 L -2.62891,-204.555 L -2.42705,-204.237
 L -2.1869,-203.946 L -1.91226,-203.688 L -1.60747,-203.467 L -1.27733,-203.286 L -0.927048,-203.147 L -0.562134,-203.053
 L -0.18837,-203.006 L 0.18837,-203.006 z
M 0.562134,-100.053 L 0.927048,-100.147 L 1.27733,-100.286 L 1.60747,-100.467 L 1.91226,-100.688 L 2.1869,-100.946
 L 2.42705,-101.237 L 2.62891,-101.555 L 2.78932,-101.896 L 2.90575,-102.254 L 2.97633,-102.624 L 3,-103
 L 2.97633,-103.376 L 2.90575,-103.746 L 2.78932,-104.104 L 2.62891,-104.445 L 2.42705,-104.763 L 2.1869,-105.054
 L 1.91226,-105.312 L 1.60747,-105.533 L 1.27733,-105.714 L 0.927048,-105.853 L 0.562134,-105.947 L 0.18837,-105.994
 L -0.18837,-105.994 L -0.562134,-105.947 L -0.927048,-105.853 L -1.27733,-105.714 L -1.60747,-105.533 L -1.91226,-105.312
 L -2.1869,-105.054 L -2.42705,-104.763 L -2.62891,-104.445 L -2.78932,-104.104 L -2.90575,-103.746 L -2.97633,-103.376
 L -3,-103 L -2.97633,-102.624 L -2.90575,-102.254 L -2.78932,-101.896 L -2.62891,-101.555 L -2.42705,-101.237
 L -2.1869,-100.946 L -1.91226,-100.688 L -1.60747,-100.467 L -1.27733,-100.286 L -0.927048,-100.147 L -0.562134,-100.053
 L -0.18837,-100.006 L 0.18837,-100.006 z
M 0.562134,2.94685 L 0.927048,2.85316 L 1.27733,2.71448 L 1.60747,2.53297 L 1.91226,2.31154 L 2.1869,2.05363
 L 2.42705,1.76335 L 2.62891,1.44525 L 2.78932,1.10437 L 2.90575,0.746063 L 2.97633,0.375992 L 3,-0
 L 2.97633,-0.375992 L 2.90575,-0.746063 L 2.78932,-1.10437 L 2.62891,-1.44525 L 2.42705,-1.76335 L 2.1869,-2.05363
 L 1.91226,-2.31154 L 1.60747,-2.53297 L 1.27733,-2.71448 L 0.927048,-2.85316 L 0.562134,-2.94685 L 0.18837,-2.99408
 L -0.18837,-2.99408 L -0.562134,-2.94685 L -0.927048,-2.85316 L -1.27733,-2.71448 L -1.60747,-2.53297 L -1.91226,-2.31154
 L -2.1869,-2.05363 L -2.42705,-1.76335 L -2.62891,-1.44525 L -2.78932,-1.10437 L -2.90575,-0.746063 L -2.97633,-0.375992
 L -3,-0 L -2.97633,0.375992 L -2.90575,0.746063 L -2.78932,1.10437 L -2.62891,1.44525 L -2.42705,1.76335
 L -2.1869,2.05363 L -1.91226,2.31154 L -1.60747,2.53297 L -1.27733,2.71448 L -0.927048,2.85316 L -0.562134,2.94685
 L -0.18837,2.99408 L 0.18837,2.99408 z
" stroke="black" fill="lightgray" stroke-width="0.5"/>
</svg>
