<?xml version="1.0" standalone="no"?>
<!DOCTYPE svg PUBLIC "-//W3C//DTD SVG 1.1//EN" "http://www.w3.org/Graphics/SVG/1.1/DTD/svg11.dtd">
<svg width="74mm" height="44mm" viewBox="-37 -22 74 44" xmlns="http://www.w3.org/2000/svg" version="1.1">
<title>OpenSCAD Model</title>
<path d="
M 32.9369,21.9114 L 33.5451,21.7553 L 34.1289,21.5241 L 34.6791,21.2216 L 35.1871,20.8526 L 35.6448,20.4227
 L 36.0451,19.9389 L 36.3815,19.4088 L 36.6489,18.8406 L 36.8429,18.2434 L 36.9606,17.6267 L 37,17
 L 37,-17 L 36.9606,-17.6267 L 36.8429,-18.2434 L 36.6489,-18.8406 L 36.3815,-19.4088 L 36.0451,-19.9389
 L 35.6448,-20.4227 L 35.1871,-20.8526 L 34.6791,-21.2216 L 34.1289,-21.5241 L 33.5451,-21.7553 L 32.9369,-21.9114
 L 32.3139,-21.9901 L -32.3139,-21.9901 L -32.9369,-21.9114 L -33.5451,-21.7553 L -34.1289,-21.5241 L -34.6791,-21.2216
 L -35.1871,-20.8526 L -35.6448,-20.4227 L -36.0451,-19.9389 L -36.3815,-19.4088 L -36.6489,-18.8406 L -36.8429,-18.2434
 L -36.9606,-17.6267 L -37,-17 L -37,17 L -36.9606,17.6267 L -36.8429,18.2434 L -36.6489,18.8406
 L -36.3815,19.4088 L -36.0451,19.9389 L -35.6448,20.4227 L -35.1871,20.8526 L -34.6791,21.2216 L -34.1289,21.5241
 L -33.5451,21.7553 L -32.9369,21.9114 L -32.3139,21.9901 L 32.3139,21.9901 z
M -30.1256,-13.0039 L -30.3748,-13.0354 L -30.618,-13.0979 L -30.8515,-13.1903 L -31.0716,-13.3113 L -31.2748,-13.459
 L -31.4579,-13.6309 L -31.618,-13.8244 L -31.7526,-14.0365 L -31.8595,-14.2637 L -31.9372,-14.5026 L -31.9842,-14.7493
 L -32,-15 L -31.9842,-15.2507 L -31.9372,-15.4974 L -31.8595,-15.7362 L -31.7526,-15.9635 L -31.618,-16.1756
 L -31.4579,-16.3691 L -31.2748,-16.541 L -31.0716,-16.6886 L -30.8515,-16.8096 L -30.618,-16.9021 L -30.3748,-16.9646
 L -30.1256,-16.996 L -29.8744,-16.996 L -29.6252,-16.9646 L -29.382,-16.9021 L -29.1484,-16.8096 L -28.9283,-16.6886
 L -28.7251,-16.541 L -28.5421,-16.3691 L -28.382,-16.1756 L -28.2474,-15.9635 L -28.1404,-15.7362 L -28.0628,-15.4974
 L -28.0158,-15.2507 L -28,-15 L -28.0158,-14.7493 L -28.0628,-14.5026 L -28.1404,-14.2637 L -28.2474,-14.0365
 L -28.382,-13.8244 L -28.5421,-13.6309 L -28.7251,-13.459 L -28.9283,-13.3113 L -29.1484,-13.1903 L -29.382,-13.0979
 L -29.6252,-13.0354 L -29.8744,-13.0039 z
M 34.3744,-5.50394 L 34.1252,-5.53542 L 33.882,-5.59789 L 33.6484,-5.69034 L 33.4283,-5.81134 L 33.2251,-5.95897
 L 33.0421,-6.13091 L 32.882,-6.32442 L 32.7474,-6.53648 L 32.6404,-6.76375 L 32.5628,-7.00261 L 32.5158,-7.24933
 L 32.5,-7.5 L 32.5158,-7.75066 L 32.5628,-7.99738 L 32.6404,-8.23624 L 32.7474,-8.4635 L 32.882,-8.67557
 L 33.0421,-8.86908 L 33.2251,-9.04102 L 33.4283,-9.18864 L 33.6484,-9.30965 L 33.882,-9.4021 L 34.1252,-9.46457
 L 34.3744,-9.49605 L 34.6256,-9.49605 L 34.8748,-9.46457 L 35.118,-9.4021 L 35.3515,-9.30965 L 35.5717,-9.18864
 L 35.7748,-9.04102 L 35.9579,-8.86908 L 36.118,-8.67557 L 36.2526,-8.4635 L 36.3595,-8.23624 L 36.4372,-7.99738
 L 36.4842,-7.75066 L 36.5,-7.5 L 36.4842,-7.24933 L 36.4372,-7.00261 L 36.3595,-6.76375 L 36.2526,-6.53648
 L 36.118,-6.32442 L 35.9579,-6.13091 L 35.7748,-5.95897 L 35.5717,-5.81134 L 35.3515,-5.69034 L 35.118,-5.59789
 L 34.8748,-5.53542 L 34.6256,-5.50394 z
M -19.6256,-5.50394 L -19.8748,-5.53542 L -20.118,-5.59789 L -20.3515,-5.69034 L -20.5716,-5.81134 L -20.7748,-5.95897
 L -20.9579,-6.13091 L -21.118,-6.32442 L -21.2526,-6.53648 L -21.3595,-6.76375 L -21.4372,-7.00261 L -21.4842,-7.24933
 L -21.5,-7.5 L -21.4842,-7.75066 L -21.4372,-7.99738 L -21.3595,-8.23624 L -21.2526,-8.4635 L -21.118,-8.67557
 L -20.9579,-8.86908 L -20.7748,-9.04102 L -20.5716,-9.18864 L -20.3515,-9.30965 L -20.118,-9.4021 L -19.8748,-9.46457
 L -19.6256,-9.49605 L -19.3744,-9.49605 L -19.1252,-9.46457 L -18.882,-9.4021 L -18.6484,-9.30965 L -18.4283,-9.18864
 L -18.2251,-9.04102 L -18.0421,-8.86908 L -17.882,-8.67557 L -17.7474,-8.4635 L -17.6404,-8.23624 L -17.5628,-7.99738
 L -17.5158,-7.75066 L -17.5,-7.5 L -17.5158,-7.24933 L -17.5628,-7.00261 L -17.6404,-6.76375 L -17.7474,-6.53648
 L -17.882,-6.32442 L -18.0421,-6.13091 L -18.2251,-5.95897 L -18.4283,-5.81134 L -18.6484,-5.69034 L -18.882,-5.59789
 L -19.1252,-5.53542 L -19.3744,-5.50394 z
M -30.1256,1.99605 L -30.3748,1.96457 L -30.618,1.9021 L -30.8515,1.80965 L -31.0716,1.68864 L -31.2748,1.54102
 L -31.4579,1.36908 L -31.618,1.17557 L -31.7526,0.963501 L -31.8595,0.736237 L -31.9372,0.497375 L -31.9842,0.250656
 L -32,-0 L -31.9842,-0.250656 L -31.9372,-0.497375 L -31.8595,-0.736237 L -31.7526,-0.963501 L -31.618,-1.17557
 L -31.4579,-1.36908 L -31.2748,-1.54102 L -31.0716,-1.68864 L -30.8515,-1.80965 L -30.618,-1.9021 L -30.3748,-1.96457
 L -30.1256,-1.99605 L -29.8744,-1.99605 L -29.6252,-1.96457 L -29.382,-1.9021 L -29.1484,-1.80965 L -28.9283,-1.68864
 L -28.7251,-1.54102 L -28.5421,-1.36908 L -28.382,-1.17557 L -28.2474,-0.963501 L -28.1404,-0.736237 L -28.0628,-0.497375
 L -28.0158,-0.250656 L -28,-0 L -28.0158,0.250656 L -28.0628,0.497375 L -28.1404,0.736237 L -28.2474,0.963501
 L -28.382,1.17557 L -28.5421,1.36908 L -28.7251,1.54102 L -28.9283,1.68864 L -29.1484,1.80965 L -29.382,1.9021
 L -29.6252,1.96457 L -29.8744,1.99605 z
M 34.3744,9.49605 L 34.1252,9.46457 L 33.882,9.4021 L 33.6484,9.30965 L 33.4283,9.18864 L 33.2251,9.04102
 L 33.0421,8.86908 L 32.882,8.67557 L 32.7474,8.4635 L 32.6404,8.23624 L 32.5628,7.99738 L 32.5158,7.75066
 L 32.5,7.5 L 32.5158,7.24933 L 32.5628,7.00261 L 32.6404,6.76375 L 32.7474,6.53648 L 32.882,6.32442
 L 33.0421,6.13091 L 33.2251,5.95897 L 33.4283,5.81134 L 33.6484,5.69034 L 33.882,5.59789 L 34.1252,5.53542
 L 34.3744,5.50394 L 34.6256,5.50394 L 34.8748,5.53542 L 35.118,5.59789 L 35.3515,5.69034 L 35.5717,5.81134
 L 35.7748,5.95897 L 35.9579,6.13091 L 36.118,6.32442 L 36.2526,6.53648 L 36.3595,6.76375 L 36.4372,7.00261
 L 36.4842,7.24933 L 36.5,7.5 L 36.4842,7.75066 L 36.4372,7.99738 L 36.3595,8.23624 L 36.2526,8.4635
 L 36.118,8.67557 L 35.9579,8.86908 L 35.7748,9.04102 L 35.5717,9.18864 L 35.3515,9.30965 L 35.118,9.4021
 L 34.8748,9.46457 L 34.6256,9.49605 z
M -19.6256,9.49605 L -19.8748,9.46457 L -20.118,9.4021 L -20.3515,9.30965 L -20.5716,9.18864 L -20.7748,9.04102
 L -20.9579,8.86908 L -21.118,8.67557 L -21.2526,8.4635 L -21.3595,8.23624 L -21.4372,7.99738 L -21.4842,7.75066
 L -21.5,7.5 L -21.4842,7.24933 L -21.4372,7.00261 L -21.3595,6.76375 L -21.2526,6.53648 L -21.118,6.32442
 L -20.9579,6.13091 L -20.7748,5.95897 L -20.5716,5.81134 L -20.3515,5.69034 L -20.118,5.59789 L -19.8748,5.53542
 L -19.6256,5.50394 L -19.3744,5.50394 L -19.1252,5.53542 L -18.882,5.59789 L -18.6484,5.69034 L -18.4283,5.81134
 L -18.2251,5.95897 L -18.0421,6.13091 L -17.882,6.32442 L -17.7474,6.53648 L -17.6404,6.76375 L -17.5628,7.00261
 L -17.5158,7.24933 L -17.5,7.5 L -17.5158,7.75066 L -17.5628,7.99738 L -17.6404,8.23624 L -17.7474,8.4635
 L -17.882,8.67557 L -18.0421,8.86908 L -18.2251,9.04102 L -18.4283,9.18864 L -18.6484,9.30965 L -18.882,9.4021
 L -19.1252,9.46457 L -19.3744,9.49605 z
M -30.1256,16.996 L -30.3748,16.9646 L -30.618,16.9021 L -30.8515,16.8096 L -31.0716,16.6886 L -31.2748,16.541
 L -31.4579,16.3691 L -31.618,16.1756 L -31.7526,15.9635 L -31.8595,15.7362 L -31.9372,15.4974 L -31.9842,15.2507
 L -32,15 L -31.9842,14.7493 L -31.9372,14.5026 L -31.8595,14.2637 L -31.7526,14.0365 L -31.618,13.8244
 L -31.4579,13.6309 L -31.2748,13.459 L -31.0716,13.3113 L -30.8515,13.1903 L -30.618,13.0979 L -30.3748,13.0354
 L -30.1256,13.0039 L -29.8744,13.0039 L -29.6252,13.0354 L -29.382,13.0979 L -29.1484,13.1903 L -28.9283,13.3113
 L -28.7251,13.459 L -28.5421,13.6309 L -28.382,13.8244 L -28.2474,14.0365 L -28.1404,14.2637 L -28.0628,14.5026
 L -28.0158,14.7493 L -28,15 L -28.0158,15.2507 L -28.0628,15.4974 L -28.1404,15.7362 L -28.2474,15.9635
 L -28.382,16.1756 L -28.5421,16.3691 L -28.7251,16.541 L -28.9283,16.6886 L -29.1484,16.8096 L -29.382,16.9021
 L -29.6252,16.9646 L -29.8744,16.996 z
" stroke="black" fill="lightgray" stroke-width="0.5"/>
</svg>
