<?xml version="1.0" standalone="no"?>
<!DOCTYPE svg PUBLIC "-//W3C//DTD SVG 1.1//EN" "http://www.w3.org/Graphics/SVG/1.1/DTD/svg11.dtd">
<svg width="24mm" height="153mm" viewBox="-13 -293 24 153" xmlns="http://www.w3.org/2000/svg" version="1.1">
<title>OpenSCAD Model</title>
<path d="
M -9.75,-250.007 L -9.39484,-249.577 L -8.93712,-249.147 L -8.42912,-248.778 L -7.87889,-248.476 L -7.29507,-248.245
 L -6.6869,-248.089 L -6.06395,-248.01 L 6.06395,-248.01 L 6.6869,-248.089 L 7.29507,-248.245 L 7.87889,-248.476
 L 8.42912,-248.778 L 8.93712,-249.147 L 9.39484,-249.577 L 9.79507,-250.061 L 10.1315,-250.591 L 10.3989,-251.159
 L 10.5929,-251.757 L 10.7106,-252.373 L 10.75,-253 L 10.75,-287 L 10.7106,-287.627 L 10.5929,-288.243
 L 10.3989,-288.841 L 10.1315,-289.409 L 9.79507,-289.939 L 9.39484,-290.423 L 8.93712,-290.853 L 8.42912,-291.222
 L 7.87889,-291.524 L 7.29507,-291.755 L 6.6869,-291.911 L 6.06395,-291.99 L -6.06395,-291.99 L -6.6869,-291.911
 L -7.29507,-291.755 L -7.87889,-291.524 L -8.42912,-291.222 L -8.93712,-290.853 L -9.39484,-290.423 L -9.75,-289.993
 L -9.75,-292.49 L -12.75,-292.49 L -12.75,-247.51 L -9.75,-247.51 z
M -6.00116,-249.008 L -6.49951,-249.071 L -6.98605,-249.196 L -7.45311,-249.381 L -7.8933,-249.623 L -8.29968,-249.918
 L -8.66586,-250.262 L -8.98605,-250.649 L -9.25522,-251.073 L -9.4691,-251.528 L -9.62433,-252.005 L -9.71844,-252.499
 L -9.75,-253 L -9.75,-287 L -9.71844,-287.501 L -9.62433,-287.995 L -9.4691,-288.472 L -9.25522,-288.927
 L -8.98605,-289.351 L -8.66586,-289.738 L -8.29968,-290.082 L -7.8933,-290.377 L -7.45311,-290.619 L -6.98605,-290.804
 L -6.49951,-290.929 L -6.00116,-290.992 L 6.00116,-290.992 L 6.49951,-290.929 L 6.98605,-290.804 L 7.45311,-290.619
 L 7.8933,-290.377 L 8.29968,-290.082 L 8.66586,-289.738 L 8.98605,-289.351 L 9.25522,-288.927 L 9.4691,-288.472
 L 9.62433,-287.995 L 9.71844,-287.501 L 9.75,-287 L 9.75,-253 L 9.71844,-252.499 L 9.62433,-252.005
 L 9.4691,-251.528 L 9.25522,-251.073 L 8.98605,-250.649 L 8.66586,-250.262 L 8.29968,-249.918 L 7.8933,-249.623
 L 7.45311,-249.381 L 6.98605,-249.196 L 6.49951,-249.071 L 6.00116,-249.008 z
M -9.75,-196.007 L -9.39484,-195.577 L -8.93712,-195.147 L -8.42912,-194.778 L -7.87889,-194.476 L -7.29507,-194.245
 L -6.6869,-194.089 L -6.06395,-194.01 L 6.06395,-194.01 L 6.6869,-194.089 L 7.29507,-194.245 L 7.87889,-194.476
 L 8.42912,-194.778 L 8.93712,-195.147 L 9.39484,-195.577 L 9.79507,-196.061 L 10.1315,-196.591 L 10.3989,-197.159
 L 10.5929,-197.757 L 10.7106,-198.373 L 10.75,-199 L 10.75,-233 L 10.7106,-233.627 L 10.5929,-234.243
 L 10.3989,-234.841 L 10.1315,-235.409 L 9.79507,-235.939 L 9.39484,-236.423 L 8.93712,-236.853 L 8.42912,-237.222
 L 7.87889,-237.524 L 7.29507,-237.755 L 6.6869,-237.911 L 6.06395,-237.99 L -6.06395,-237.99 L -6.6869,-237.911
 L -7.29507,-237.755 L -7.87889,-237.524 L -8.42912,-237.222 L -8.93712,-236.853 L -9.39484,-236.423 L -9.75,-235.993
 L -9.75,-238.479 L -12.75,-238.479 L -12.75,-193.521 L -9.75,-193.521 z
M -5.94545,-195.893 L -6.3333,-195.942 L -6.71194,-196.039 L -7.07541,-196.183 L -7.41798,-196.372 L -7.73424,-196.601
 L -8.01921,-196.869 L -8.2684,-197.17 L -8.47786,-197.5 L -8.64432,-197.854 L -8.76512,-198.226 L -8.83836,-198.61
 L -8.86292,-199 L -8.86292,-233 L -8.83836,-233.39 L -8.76512,-233.774 L -8.64432,-234.146 L -8.47786,-234.5
 L -8.2684,-234.83 L -8.01921,-235.131 L -7.73424,-235.399 L -7.41798,-235.628 L -7.07541,-235.817 L -6.71194,-235.961
 L -6.3333,-236.058 L -5.94545,-236.107 L 5.94545,-236.107 L 6.3333,-236.058 L 6.71194,-235.961 L 7.07541,-235.817
 L 7.41798,-235.628 L 7.73424,-235.399 L 8.01921,-235.131 L 8.2684,-234.83 L 8.47786,-234.5 L 8.64432,-234.146
 L 8.76512,-233.774 L 8.83836,-233.39 L 8.86292,-233 L 8.86292,-199 L 8.83836,-198.61 L 8.76512,-198.226
 L 8.64432,-197.854 L 8.47786,-197.5 L 8.2684,-197.17 L 8.01921,-196.869 L 7.73424,-196.601 L 7.41798,-196.372
 L 7.07541,-196.183 L 6.71194,-196.039 L 6.3333,-195.942 L 5.94545,-195.893 z
M 6.6869,-140.089 L 7.29507,-140.245 L 7.87889,-140.476 L 8.42912,-140.778 L 8.93712,-141.147 L 9.39484,-141.577
 L 9.79507,-142.061 L 10.1315,-142.591 L 10.3989,-143.159 L 10.5929,-143.757 L 10.7106,-144.373 L 10.75,-145
 L 10.75,-179 L 10.7106,-179.627 L 10.5929,-180.243 L 10.3989,-180.841 L 10.1315,-181.409 L 9.79507,-181.939
 L 9.39484,-182.423 L 8.93712,-182.853 L 8.42912,-183.222 L 7.87889,-183.524 L 7.29507,-183.755 L 6.6869,-183.911
 L 6.06395,-183.99 L -6.06395,-183.99 L -6.6869,-183.911 L -7.29507,-183.755 L -7.87889,-183.524 L -8.42912,-183.222
 L -8.93712,-182.853 L -9.39484,-182.423 L -9.75,-181.993 L -9.75,-183.153 L -12.75,-183.153 L -12.75,-140.847
 L -9.75,-140.847 L -9.75,-142.007 L -9.39484,-141.577 L -8.93712,-141.147 L -8.42912,-140.778 L -7.87889,-140.476
 L -7.29507,-140.245 L -6.6869,-140.089 L -6.06395,-140.01 L 6.06395,-140.01 z
M -3.9007,-174.605 L -4.19971,-174.643 L -4.49164,-174.717 L -4.77187,-174.828 L -5.03598,-174.974 L -5.27982,-175.151
 L -5.49951,-175.357 L -5.69164,-175.589 L -5.85313,-175.844 L -5.98146,-176.117 L -6.07458,-176.403 L -6.13107,-176.699
 L -6.14999,-177 L -6.13107,-177.301 L -6.07458,-177.597 L -5.98146,-177.883 L -5.85313,-178.156 L -5.69164,-178.411
 L -5.49951,-178.643 L -5.27982,-178.849 L -5.03598,-179.026 L -4.77187,-179.172 L -4.49164,-179.283 L -4.19971,-179.357
 L -3.9007,-179.395 L -3.59929,-179.395 L -3.30028,-179.357 L -3.00835,-179.283 L -2.72812,-179.172 L -2.464,-179.026
 L -2.22017,-178.849 L -2.00047,-178.643 L -1.80835,-178.411 L -1.64685,-178.156 L -1.51852,-177.883 L -1.4254,-177.597
 L -1.36891,-177.301 L -1.34999,-177 L -1.36891,-176.699 L -1.4254,-176.403 L -1.51852,-176.117 L -1.64685,-175.844
 L -1.80835,-175.589 L -2.00047,-175.357 L -2.22017,-175.151 L -2.464,-174.974 L -2.72812,-174.828 L -3.00835,-174.717
 L -3.30028,-174.643 L -3.59929,-174.605 z
M 3.59929,-174.605 L 3.30028,-174.643 L 3.00835,-174.717 L 2.72812,-174.828 L 2.464,-174.974 L 2.22017,-175.151
 L 2.00047,-175.357 L 1.80835,-175.589 L 1.64685,-175.844 L 1.51852,-176.117 L 1.4254,-176.403 L 1.36891,-176.699
 L 1.34999,-177 L 1.36891,-177.301 L 1.4254,-177.597 L 1.51852,-177.883 L 1.64685,-178.156 L 1.80835,-178.411
 L 2.00047,-178.643 L 2.22017,-178.849 L 2.464,-179.026 L 2.72812,-179.172 L 3.00835,-179.283 L 3.30028,-179.357
 L 3.59929,-179.395 L 3.9007,-179.395 L 4.19971,-179.357 L 4.49164,-179.283 L 4.77187,-179.172 L 5.03598,-179.026
 L 5.27982,-178.849 L 5.49951,-178.643 L 5.69164,-178.411 L 5.85313,-178.156 L 5.98146,-177.883 L 6.07458,-177.597
 L 6.13107,-177.301 L 6.14999,-177 L 6.13107,-176.699 L 6.07458,-176.403 L 5.98146,-176.117 L 5.85313,-175.844
 L 5.69164,-175.589 L 5.49951,-175.357 L 5.27982,-175.151 L 5.03598,-174.974 L 4.77187,-174.828 L 4.49164,-174.717
 L 4.19971,-174.643 L 3.9007,-174.605 z
M 3.59929,-144.605 L 3.30028,-144.643 L 3.00835,-144.717 L 2.72812,-144.828 L 2.464,-144.974 L 2.22017,-145.151
 L 2.00047,-145.357 L 1.80835,-145.589 L 1.64685,-145.844 L 1.51852,-146.117 L 1.4254,-146.403 L 1.36891,-146.699
 L 1.34999,-147 L 1.36891,-147.301 L 1.4254,-147.597 L 1.51852,-147.883 L 1.64685,-148.156 L 1.80835,-148.411
 L 2.00047,-148.643 L 2.22017,-148.849 L 2.464,-149.026 L 2.72812,-149.172 L 3.00835,-149.283 L 3.30028,-149.357
 L 3.59929,-149.395 L 3.9007,-149.395 L 4.19971,-149.357 L 4.49164,-149.283 L 4.77187,-149.172 L 5.03598,-149.026
 L 5.27982,-148.849 L 5.49951,-148.643 L 5.69164,-148.411 L 5.85313,-148.156 L 5.98146,-147.883 L 6.07458,-147.597
 L 6.13107,-147.301 L 6.14999,-147 L 6.13107,-146.699 L 6.07458,-146.403 L 5.98146,-146.117 L 5.85313,-145.844
 L 5.69164,-145.589 L 5.49951,-145.357 L 5.27982,-145.151 L 5.03598,-144.974 L 4.77187,-144.828 L 4.49164,-144.717
 L 4.19971,-144.643 L 3.9007,-144.605 z
M -3.9007,-144.605 L -4.19971,-144.643 L -4.49164,-144.717 L -4.77187,-144.828 L -5.03598,-144.974 L -5.27982,-145.151
 L -5.49951,-145.357 L -5.69164,-145.589 L -5.85313,-145.844 L -5.98146,-146.117 L -6.07458,-146.403 L -6.13107,-146.699
 L -6.14999,-147 L -6.13107,-147.301 L -6.07458,-147.597 L -5.98146,-147.883 L -5.85313,-148.156 L -5.69164,-148.411
 L -5.49951,-148.643 L -5.27982,-148.849 L -5.03598,-149.026 L -4.77187,-149.172 L -4.49164,-149.283 L -4.19971,-149.357
 L -3.9007,-149.395 L -3.59929,-149.395 L -3.30028,-149.357 L -3.00835,-149.283 L -2.72812,-149.172 L -2.464,-149.026
 L -2.22017,-148.849 L -2.00047,-148.643 L -1.80835,-148.411 L -1.64685,-148.156 L -1.51852,-147.883 L -1.4254,-147.597
 L -1.36891,-147.301 L -1.34999,-147 L -1.36891,-146.699 L -1.4254,-146.403 L -1.51852,-146.117 L -1.64685,-145.844
 L -1.80835,-145.589 L -2.00047,-145.357 L -2.22017,-145.151 L -2.464,-144.974 L -2.72812,-144.828 L -3.00835,-144.717
 L -3.30028,-144.643 L -3.59929,-144.605 z
" stroke="black" fill="lightgray" stroke-width="0.5"/>
</svg>
