<?xml version="1.0" standalone="no"?>
<!DOCTYPE svg PUBLIC "-//W3C//DTD SVG 1.1//EN" "http://www.w3.org/Graphics/SVG/1.1/DTD/svg11.dtd">
<svg width="16mm" height="186mm" viewBox="-9 -366 16 186" xmlns="http://www.w3.org/2000/svg" version="1.1">
<title>OpenSCAD Model</title>
<path d="
M -6,-338.507 L -5.64484,-338.077 L -5.18712,-337.647 L -4.67912,-337.278 L -4.12889,-336.976 L -3.54507,-336.745
 L -2.9369,-336.589 L -2.31395,-336.51 L 2.31395,-336.51 L 2.9369,-336.589 L 3.54507,-336.745 L 4.12889,-336.976
 L 4.67912,-337.278 L 5.18712,-337.647 L 5.64484,-338.077 L 6.04507,-338.561 L 6.38153,-339.091 L 6.64888,-339.659
 L 6.84291,-340.257 L 6.96057,-340.873 L 7,-341.5 L 7,-360.5 L 6.96057,-361.127 L 6.84291,-361.743
 L 6.64888,-362.341 L 6.38153,-362.909 L 6.04507,-363.439 L 5.64484,-363.923 L 5.18712,-364.353 L 4.67912,-364.722
 L 4.12889,-365.024 L 3.54507,-365.255 L 2.9369,-365.411 L 2.31395,-365.49 L -2.31395,-365.49 L -2.9369,-365.411
 L -3.54507,-365.255 L -4.12889,-365.024 L -4.67912,-364.722 L -5.18712,-364.353 L -5.64484,-363.923 L -6,-363.493
 L -6,-365.99 L -9,-365.99 L -9,-336.01 L -6,-336.01 z
M -2.25116,-337.508 L -2.74951,-337.571 L -3.23605,-337.696 L -3.70311,-337.881 L -4.1433,-338.123 L -4.54968,-338.418
 L -4.91586,-338.762 L -5.23605,-339.149 L -5.50522,-339.573 L -5.7191,-340.028 L -5.87433,-340.505 L -5.96844,-340.999
 L -6,-341.5 L -6,-360.5 L -5.96844,-361.001 L -5.87433,-361.495 L -5.7191,-361.972 L -5.50522,-362.427
 L -5.23605,-362.851 L -4.91586,-363.238 L -4.54968,-363.582 L -4.1433,-363.877 L -3.70311,-364.119 L -3.23605,-364.304
 L -2.74951,-364.429 L -2.25116,-364.492 L 2.25116,-364.492 L 2.74951,-364.429 L 3.23605,-364.304 L 3.70311,-364.119
 L 4.1433,-363.877 L 4.54968,-363.582 L 4.91586,-363.238 L 5.23605,-362.851 L 5.50522,-362.427 L 5.7191,-361.972
 L 5.87433,-361.495 L 5.96844,-361.001 L 6,-360.5 L 6,-341.5 L 5.96844,-340.999 L 5.87433,-340.505
 L 5.7191,-340.028 L 5.50522,-339.573 L 5.23605,-339.149 L 4.91586,-338.762 L 4.54968,-338.418 L 4.1433,-338.123
 L 3.70311,-337.881 L 3.23605,-337.696 L 2.74951,-337.571 L 2.25116,-337.508 z
M -6,-299.507 L -5.64484,-299.077 L -5.18712,-298.647 L -4.67912,-298.278 L -4.12889,-297.976 L -3.54507,-297.745
 L -2.9369,-297.589 L -2.31395,-297.51 L 2.31395,-297.51 L 2.9369,-297.589 L 3.54507,-297.745 L 4.12889,-297.976
 L 4.67912,-298.278 L 5.18712,-298.647 L 5.64484,-299.077 L 6.04507,-299.561 L 6.38153,-300.091 L 6.64888,-300.659
 L 6.84291,-301.257 L 6.96057,-301.873 L 7,-302.5 L 7,-321.5 L 6.96057,-322.127 L 6.84291,-322.743
 L 6.64888,-323.341 L 6.38153,-323.909 L 6.04507,-324.439 L 5.64484,-324.923 L 5.18712,-325.353 L 4.67912,-325.722
 L 4.12889,-326.024 L 3.54507,-326.255 L 2.9369,-326.411 L 2.31395,-326.49 L -2.31395,-326.49 L -2.9369,-326.411
 L -3.54507,-326.255 L -4.12889,-326.024 L -4.67912,-325.722 L -5.18712,-325.353 L -5.64484,-324.923 L -6,-324.493
 L -6,-326.99 L -9,-326.99 L -9,-297.01 L -6,-297.01 z
M -2.25116,-298.508 L -2.74951,-298.571 L -3.23605,-298.696 L -3.70311,-298.881 L -4.1433,-299.123 L -4.54968,-299.418
 L -4.91586,-299.762 L -5.23605,-300.149 L -5.50522,-300.573 L -5.7191,-301.028 L -5.87433,-301.505 L -5.96844,-301.999
 L -6,-302.5 L -6,-321.5 L -5.96844,-322.001 L -5.87433,-322.495 L -5.7191,-322.972 L -5.50522,-323.427
 L -5.23605,-323.851 L -4.91586,-324.238 L -4.54968,-324.582 L -4.1433,-324.877 L -3.70311,-325.119 L -3.23605,-325.304
 L -2.74951,-325.429 L -2.25116,-325.492 L 2.25116,-325.492 L 2.74951,-325.429 L 3.23605,-325.304 L 3.70311,-325.119
 L 4.1433,-324.877 L 4.54968,-324.582 L 4.91586,-324.238 L 5.23605,-323.851 L 5.50522,-323.427 L 5.7191,-322.972
 L 5.87433,-322.495 L 5.96844,-322.001 L 6,-321.5 L 6,-302.5 L 5.96844,-301.999 L 5.87433,-301.505
 L 5.7191,-301.028 L 5.50522,-300.573 L 5.23605,-300.149 L 4.91586,-299.762 L 4.54968,-299.418 L 4.1433,-299.123
 L 3.70311,-298.881 L 3.23605,-298.696 L 2.74951,-298.571 L 2.25116,-298.508 z
M -6,-260.507 L -5.64484,-260.077 L -5.18712,-259.647 L -4.67912,-259.278 L -4.12889,-258.976 L -3.54507,-258.745
 L -2.9369,-258.589 L -2.31395,-258.51 L 2.31395,-258.51 L 2.9369,-258.589 L 3.54507,-258.745 L 4.12889,-258.976
 L 4.67912,-259.278 L 5.18712,-259.647 L 5.64484,-260.077 L 6.04507,-260.561 L 6.38153,-261.091 L 6.64888,-261.659
 L 6.84291,-262.257 L 6.96057,-262.873 L 7,-263.5 L 7,-282.5 L 6.96057,-283.127 L 6.84291,-283.743
 L 6.64888,-284.341 L 6.38153,-284.909 L 6.04507,-285.439 L 5.64484,-285.923 L 5.18712,-286.353 L 4.67912,-286.722
 L 4.12889,-287.024 L 3.54507,-287.255 L 2.9369,-287.411 L 2.31395,-287.49 L -2.31395,-287.49 L -2.9369,-287.411
 L -3.54507,-287.255 L -4.12889,-287.024 L -4.67912,-286.722 L -5.18712,-286.353 L -5.64484,-285.923 L -6,-285.493
 L -6,-287.99 L -9,-287.99 L -9,-258.01 L -6,-258.01 z
M -2.25116,-259.508 L -2.74951,-259.571 L -3.23605,-259.696 L -3.70311,-259.881 L -4.1433,-260.123 L -4.54968,-260.418
 L -4.91586,-260.762 L -5.23605,-261.149 L -5.50522,-261.573 L -5.7191,-262.028 L -5.87433,-262.505 L -5.96844,-262.999
 L -6,-263.5 L -6,-282.5 L -5.96844,-283.001 L -5.87433,-283.495 L -5.7191,-283.972 L -5.50522,-284.427
 L -5.23605,-284.851 L -4.91586,-285.238 L -4.54968,-285.582 L -4.1433,-285.877 L -3.70311,-286.119 L -3.23605,-286.304
 L -2.74951,-286.429 L -2.25116,-286.492 L 2.25116,-286.492 L 2.74951,-286.429 L 3.23605,-286.304 L 3.70311,-286.119
 L 4.1433,-285.877 L 4.54968,-285.582 L 4.91586,-285.238 L 5.23605,-284.851 L 5.50522,-284.427 L 5.7191,-283.972
 L 5.87433,-283.495 L 5.96844,-283.001 L 6,-282.5 L 6,-263.5 L 5.96844,-262.999 L 5.87433,-262.505
 L 5.7191,-262.028 L 5.50522,-261.573 L 5.23605,-261.149 L 4.91586,-260.762 L 4.54968,-260.418 L 4.1433,-260.123
 L 3.70311,-259.881 L 3.23605,-259.696 L 2.74951,-259.571 L 2.25116,-259.508 z
M -6,-221.507 L -5.64484,-221.077 L -5.18712,-220.647 L -4.67912,-220.278 L -4.12889,-219.976 L -3.54507,-219.745
 L -2.9369,-219.589 L -2.31395,-219.51 L 2.31395,-219.51 L 2.9369,-219.589 L 3.54507,-219.745 L 4.12889,-219.976
 L 4.67912,-220.278 L 5.18712,-220.647 L 5.64484,-221.077 L 6.04507,-221.561 L 6.38153,-222.091 L 6.64888,-222.659
 L 6.84291,-223.257 L 6.96057,-223.873 L 7,-224.5 L 7,-243.5 L 6.96057,-244.127 L 6.84291,-244.743
 L 6.64888,-245.341 L 6.38153,-245.909 L 6.04507,-246.439 L 5.64484,-246.923 L 5.18712,-247.353 L 4.67912,-247.722
 L 4.12889,-248.024 L 3.54507,-248.255 L 2.9369,-248.411 L 2.31395,-248.49 L -2.31395,-248.49 L -2.9369,-248.411
 L -3.54507,-248.255 L -4.12889,-248.024 L -4.67912,-247.722 L -5.18712,-247.353 L -5.64484,-246.923 L -6,-246.493
 L -6,-248.979 L -9,-248.979 L -9,-219.021 L -6,-219.021 z
M -2.19545,-221.393 L -2.5833,-221.442 L -2.96194,-221.539 L -3.32541,-221.683 L -3.66798,-221.872 L -3.98424,-222.101
 L -4.26921,-222.369 L -4.5184,-222.67 L -4.72786,-223 L -4.89432,-223.354 L -5.01512,-223.726 L -5.08836,-224.11
 L -5.11292,-224.5 L -5.11292,-243.5 L -5.08836,-243.89 L -5.01512,-244.274 L -4.89432,-244.646 L -4.72786,-245
 L -4.5184,-245.33 L -4.26921,-245.631 L -3.98424,-245.899 L -3.66798,-246.128 L -3.32541,-246.317 L -2.96194,-246.461
 L -2.5833,-246.558 L -2.19545,-246.607 L 2.19545,-246.607 L 2.5833,-246.558 L 2.96194,-246.461 L 3.32541,-246.317
 L 3.66798,-246.128 L 3.98424,-245.899 L 4.26921,-245.631 L 4.5184,-245.33 L 4.72786,-245 L 4.89432,-244.646
 L 5.01512,-244.274 L 5.08836,-243.89 L 5.11292,-243.5 L 5.11292,-224.5 L 5.08836,-224.11 L 5.01512,-223.726
 L 4.89432,-223.354 L 4.72786,-223 L 4.5184,-222.67 L 4.26921,-222.369 L 3.98424,-222.101 L 3.66798,-221.872
 L 3.32541,-221.683 L 2.96194,-221.539 L 2.5833,-221.442 L 2.19545,-221.393 z
M 2.9369,-180.589 L 3.54507,-180.745 L 4.12889,-180.976 L 4.67912,-181.278 L 5.18712,-181.647 L 5.64484,-182.077
 L 6.04507,-182.561 L 6.38153,-183.091 L 6.64888,-183.659 L 6.84291,-184.257 L 6.96057,-184.873 L 7,-185.5
 L 7,-204.5 L 6.96057,-205.127 L 6.84291,-205.743 L 6.64888,-206.341 L 6.38153,-206.909 L 6.04507,-207.439
 L 5.64484,-207.923 L 5.18712,-208.353 L 4.67912,-208.722 L 4.12889,-209.024 L 3.54507,-209.255 L 2.9369,-209.411
 L 2.31395,-209.49 L -2.31395,-209.49 L -2.9369,-209.411 L -3.54507,-209.255 L -4.12889,-209.024 L -4.67912,-208.722
 L -5.18712,-208.353 L -5.64484,-207.923 L -6,-207.493 L -6,-208.653 L -9,-208.653 L -9,-181.347
 L -6,-181.347 L -6,-182.507 L -5.64484,-182.077 L -5.18712,-181.647 L -4.67912,-181.278 L -4.12889,-180.976
 L -3.54507,-180.745 L -2.9369,-180.589 L -2.31395,-180.51 L 2.31395,-180.51 z
M -0.150696,-200.105 L -0.449707,-200.143 L -0.741638,-200.217 L -1.02187,-200.328 L -1.28598,-200.474 L -1.52982,-200.651
 L -1.74951,-200.857 L -1.94164,-201.089 L -2.10313,-201.344 L -2.23146,-201.617 L -2.32458,-201.903 L -2.38107,-202.199
 L -2.39999,-202.5 L -2.38107,-202.801 L -2.32458,-203.097 L -2.23146,-203.383 L -2.10313,-203.656 L -1.94164,-203.911
 L -1.74951,-204.143 L -1.52982,-204.349 L -1.28598,-204.526 L -1.02187,-204.672 L -0.741638,-204.783 L -0.449707,-204.857
 L -0.150696,-204.895 L 0.150696,-204.895 L 0.449707,-204.857 L 0.741638,-204.783 L 1.02187,-204.672 L 1.28598,-204.526
 L 1.52982,-204.349 L 1.74951,-204.143 L 1.94164,-203.911 L 2.10313,-203.656 L 2.23146,-203.383 L 2.32458,-203.097
 L 2.38107,-202.801 L 2.39999,-202.5 L 2.38107,-202.199 L 2.32458,-201.903 L 2.23146,-201.617 L 2.10313,-201.344
 L 1.94164,-201.089 L 1.74951,-200.857 L 1.52982,-200.651 L 1.28598,-200.474 L 1.02187,-200.328 L 0.741638,-200.217
 L 0.449707,-200.143 L 0.150696,-200.105 z
M -0.150696,-185.105 L -0.449707,-185.143 L -0.741638,-185.217 L -1.02187,-185.328 L -1.28598,-185.474 L -1.52982,-185.651
 L -1.74951,-185.857 L -1.94164,-186.089 L -2.10313,-186.344 L -2.23146,-186.617 L -2.32458,-186.903 L -2.38107,-187.199
 L -2.39999,-187.5 L -2.38107,-187.801 L -2.32458,-188.097 L -2.23146,-188.383 L -2.10313,-188.656 L -1.94164,-188.911
 L -1.74951,-189.143 L -1.52982,-189.349 L -1.28598,-189.526 L -1.02187,-189.672 L -0.741638,-189.783 L -0.449707,-189.857
 L -0.150696,-189.895 L 0.150696,-189.895 L 0.449707,-189.857 L 0.741638,-189.783 L 1.02187,-189.672 L 1.28598,-189.526
 L 1.52982,-189.349 L 1.74951,-189.143 L 1.94164,-188.911 L 2.10313,-188.656 L 2.23146,-188.383 L 2.32458,-188.097
 L 2.38107,-187.801 L 2.39999,-187.5 L 2.38107,-187.199 L 2.32458,-186.903 L 2.23146,-186.617 L 2.10313,-186.344
 L 1.94164,-186.089 L 1.74951,-185.857 L 1.52982,-185.651 L 1.28598,-185.474 L 1.02187,-185.328 L 0.741638,-185.217
 L 0.449707,-185.143 L 0.150696,-185.105 z
" stroke="black" fill="lightgray" stroke-width="0.5"/>
</svg>
