<?xml version="1.0" standalone="no"?>
<!DOCTYPE svg PUBLIC "-//W3C//DTD SVG 1.1//EN" "http://www.w3.org/Graphics/SVG/1.1/DTD/svg11.dtd">
<svg width="30mm" height="158mm" viewBox="-15 -289 30 158" xmlns="http://www.w3.org/2000/svg" version="1.1">
<title>OpenSCAD Model</title>
<path d="
M 10.4369,-215.089 L 11.0451,-215.245 L 11.6289,-215.476 L 12.1791,-215.778 L 12.6871,-216.147 L 13.1448,-216.577
 L 13.5451,-217.061 L 13.8815,-217.591 L 14.1489,-218.159 L 14.3429,-218.757 L 14.4606,-219.373 L 14.5,-220
 L 14.5,-284 L 14.4606,-284.627 L 14.3429,-285.243 L 14.1489,-285.841 L 13.8815,-286.409 L 13.5451,-286.939
 L 13.1448,-287.423 L 12.6871,-287.853 L 12.1791,-288.222 L 11.6289,-288.524 L 11.0451,-288.755 L 10.4369,-288.911
 L 9.81395,-288.99 L -9.81395,-288.99 L -10.4369,-288.911 L -11.0451,-288.755 L -11.6289,-288.524 L -12.1791,-288.222
 L -12.6871,-287.853 L -13.1448,-287.423 L -13.5451,-286.939 L -13.8815,-286.409 L -14.1489,-285.841 L -14.3429,-285.243
 L -14.4606,-284.627 L -14.5,-284 L -14.5,-220 L -14.4606,-219.373 L -14.3429,-218.757 L -14.1489,-218.159
 L -13.8815,-217.591 L -13.5451,-217.061 L -13.1448,-216.577 L -12.6871,-216.147 L -12.1791,-215.778 L -11.6289,-215.476
 L -11.0451,-215.245 L -10.4369,-215.089 L -9.81395,-215.01 L 9.81395,-215.01 z
M -9.53748,-215.681 L -10.1079,-215.753 L -10.6648,-215.896 L -11.1994,-216.107 L -11.7032,-216.384 L -12.1684,-216.722
 L -12.5875,-217.116 L -12.954,-217.559 L -13.2621,-218.044 L -13.5069,-218.565 L -13.6846,-219.111 L -13.7923,-219.676
 L -13.8284,-220.25 L -13.8284,-283.75 L -13.7923,-284.324 L -13.6846,-284.889 L -13.5069,-285.435 L -13.2621,-285.956
 L -12.954,-286.441 L -12.5875,-286.884 L -12.1684,-287.278 L -11.7032,-287.616 L -11.1994,-287.893 L -10.6648,-288.104
 L -10.1079,-288.247 L -9.53748,-288.319 L 9.53748,-288.319 L 10.1079,-288.247 L 10.6648,-288.104 L 11.1994,-287.893
 L 11.7032,-287.616 L 12.1684,-287.278 L 12.5875,-286.884 L 12.954,-286.441 L 13.2621,-285.956 L 13.5069,-285.435
 L 13.6846,-284.889 L 13.7923,-284.324 L 13.8284,-283.75 L 13.8284,-220.25 L 13.7923,-219.676 L 13.6846,-219.111
 L 13.5069,-218.565 L 13.2621,-218.044 L 12.954,-217.559 L 12.5875,-217.116 L 12.1684,-216.722 L 11.7032,-216.384
 L 11.1994,-216.107 L 10.6648,-215.896 L 10.1079,-215.753 L 9.53748,-215.681 z
M 10.4369,-131.089 L 11.0451,-131.245 L 11.6289,-131.476 L 12.1791,-131.778 L 12.6871,-132.147 L 13.1448,-132.577
 L 13.5451,-133.061 L 13.8815,-133.591 L 14.1489,-134.159 L 14.3429,-134.757 L 14.4606,-135.373 L 14.5,-136
 L 14.5,-200 L 14.4606,-200.627 L 14.3429,-201.243 L 14.1489,-201.841 L 13.8815,-202.409 L 13.5451,-202.939
 L 13.1448,-203.423 L 12.6871,-203.853 L 12.1791,-204.222 L 11.6289,-204.524 L 11.0451,-204.755 L 10.4369,-204.911
 L 9.81395,-204.99 L -9.81395,-204.99 L -10.4369,-204.911 L -11.0451,-204.755 L -11.6289,-204.524 L -12.1791,-204.222
 L -12.6871,-203.853 L -13.1448,-203.423 L -13.5451,-202.939 L -13.8815,-202.409 L -14.1489,-201.841 L -14.3429,-201.243
 L -14.4606,-200.627 L -14.5,-200 L -14.5,-136 L -14.4606,-135.373 L -14.3429,-134.757 L -14.1489,-134.159
 L -13.8815,-133.591 L -13.5451,-133.061 L -13.1448,-132.577 L -12.6871,-132.147 L -12.1791,-131.778 L -11.6289,-131.476
 L -11.0451,-131.245 L -10.4369,-131.089 L -9.81395,-131.01 L 9.81395,-131.01 z
M -9.38246,-134.145 L -9.64529,-134.178 L -9.9019,-134.244 L -10.1482,-134.341 L -10.3804,-134.469 L -10.5947,-134.625
 L -10.7878,-134.806 L -10.9567,-135.01 L -11.0987,-135.234 L -11.2115,-135.473 L -11.2934,-135.725 L -11.343,-135.986
 L -11.3596,-136.25 L -11.3596,-199.75 L -11.343,-200.014 L -11.2934,-200.275 L -11.2115,-200.527 L -11.0987,-200.766
 L -10.9567,-200.99 L -10.7878,-201.194 L -10.5947,-201.375 L -10.3804,-201.531 L -10.1482,-201.659 L -9.9019,-201.756
 L -9.64529,-201.822 L -9.38246,-201.855 L 9.38246,-201.855 L 9.64529,-201.822 L 9.9019,-201.756 L 10.1482,-201.659
 L 10.3804,-201.531 L 10.5947,-201.375 L 10.7878,-201.194 L 10.9567,-200.99 L 11.0987,-200.766 L 11.2115,-200.527
 L 11.2934,-200.275 L 11.343,-200.014 L 11.3596,-199.75 L 11.3596,-136.25 L 11.343,-135.986 L 11.2934,-135.725
 L 11.2115,-135.473 L 11.0987,-135.234 L 10.9567,-135.01 L 10.7878,-134.806 L 10.5947,-134.625 L 10.3804,-134.469
 L 10.1482,-134.341 L 9.9019,-134.244 L 9.64529,-134.178 L 9.38246,-134.145 z
" stroke="black" fill="lightgray" stroke-width="0.5"/>
</svg>
