<?xml version="1.0" standalone="no"?>
<!DOCTYPE svg PUBLIC "-//W3C//DTD SVG 1.1//EN" "http://www.w3.org/Graphics/SVG/1.1/DTD/svg11.dtd">
<svg width="30mm" height="160mm" viewBox="-15 -290 30 160" xmlns="http://www.w3.org/2000/svg" version="1.1">
<title>OpenSCAD Model</title>
<path d="
M 10.9369,-214.589 L 11.5451,-214.745 L 12.1289,-214.976 L 12.6791,-215.278 L 13.1871,-215.647 L 13.6448,-216.077
 L 14.0451,-216.561 L 14.3815,-217.091 L 14.6489,-217.659 L 14.8429,-218.257 L 14.9606,-218.873 L 15,-219.5
 L 15,-284.5 L 14.9606,-285.127 L 14.8429,-285.743 L 14.6489,-286.341 L 14.3815,-286.909 L 14.0451,-287.439
 L 13.6448,-287.923 L 13.1871,-288.353 L 12.6791,-288.722 L 12.1289,-289.024 L 11.5451,-289.255 L 10.9369,-289.411
 L 10.3139,-289.49 L -10.3139,-289.49 L -10.9369,-289.411 L -11.5451,-289.255 L -12.1289,-289.024 L -12.6791,-288.722
 L -13.1871,-288.353 L -13.6448,-287.923 L -14.0451,-287.439 L -14.3815,-286.909 L -14.6489,-286.341 L -14.8429,-285.743
 L -14.9606,-285.127 L -15,-284.5 L -15,-219.5 L -14.9606,-218.873 L -14.8429,-218.257 L -14.6489,-217.659
 L -14.3815,-217.091 L -14.0451,-216.561 L -13.6448,-216.077 L -13.1871,-215.647 L -12.6791,-215.278 L -12.1289,-214.976
 L -11.5451,-214.745 L -10.9369,-214.589 L -10.3139,-214.51 L 10.3139,-214.51 z
M -10.0375,-215.181 L -10.6079,-215.253 L -11.1648,-215.396 L -11.6994,-215.607 L -12.2032,-215.884 L -12.6684,-216.222
 L -13.0875,-216.616 L -13.454,-217.059 L -13.7621,-217.544 L -14.0069,-218.065 L -14.1846,-218.611 L -14.2923,-219.176
 L -14.3284,-219.75 L -14.3284,-284.25 L -14.2923,-284.824 L -14.1846,-285.389 L -14.0069,-285.935 L -13.7621,-286.456
 L -13.454,-286.941 L -13.0875,-287.384 L -12.6684,-287.778 L -12.2032,-288.116 L -11.6994,-288.393 L -11.1648,-288.604
 L -10.6079,-288.747 L -10.0375,-288.819 L 10.0375,-288.819 L 10.6079,-288.747 L 11.1648,-288.604 L 11.6994,-288.393
 L 12.2032,-288.116 L 12.6684,-287.778 L 13.0875,-287.384 L 13.454,-286.941 L 13.7621,-286.456 L 14.0069,-285.935
 L 14.1846,-285.389 L 14.2923,-284.824 L 14.3284,-284.25 L 14.3284,-219.75 L 14.2923,-219.176 L 14.1846,-218.611
 L 14.0069,-218.065 L 13.7621,-217.544 L 13.454,-217.059 L 13.0875,-216.616 L 12.6684,-216.222 L 12.2032,-215.884
 L 11.6994,-215.607 L 11.1648,-215.396 L 10.6079,-215.253 L 10.0375,-215.181 z
M 10.9369,-130.589 L 11.5451,-130.745 L 12.1289,-130.976 L 12.6791,-131.278 L 13.1871,-131.647 L 13.6448,-132.077
 L 14.0451,-132.561 L 14.3815,-133.091 L 14.6489,-133.659 L 14.8429,-134.257 L 14.9606,-134.873 L 15,-135.5
 L 15,-200.5 L 14.9606,-201.127 L 14.8429,-201.743 L 14.6489,-202.341 L 14.3815,-202.909 L 14.0451,-203.439
 L 13.6448,-203.923 L 13.1871,-204.353 L 12.6791,-204.722 L 12.1289,-205.024 L 11.5451,-205.255 L 10.9369,-205.411
 L 10.3139,-205.49 L -10.3139,-205.49 L -10.9369,-205.411 L -11.5451,-205.255 L -12.1289,-205.024 L -12.6791,-204.722
 L -13.1871,-204.353 L -13.6448,-203.923 L -14.0451,-203.439 L -14.3815,-202.909 L -14.6489,-202.341 L -14.8429,-201.743
 L -14.9606,-201.127 L -15,-200.5 L -15,-135.5 L -14.9606,-134.873 L -14.8429,-134.257 L -14.6489,-133.659
 L -14.3815,-133.091 L -14.0451,-132.561 L -13.6448,-132.077 L -13.1871,-131.647 L -12.6791,-131.278 L -12.1289,-130.976
 L -11.5451,-130.745 L -10.9369,-130.589 L -10.3139,-130.51 L 10.3139,-130.51 z
M -9.88246,-133.645 L -10.1453,-133.678 L -10.4019,-133.744 L -10.6482,-133.841 L -10.8804,-133.969 L -11.0947,-134.125
 L -11.2878,-134.306 L -11.4567,-134.51 L -11.5987,-134.734 L -11.7115,-134.973 L -11.7934,-135.225 L -11.843,-135.486
 L -11.8596,-135.75 L -11.8596,-200.25 L -11.843,-200.514 L -11.7934,-200.775 L -11.7115,-201.027 L -11.5987,-201.266
 L -11.4567,-201.49 L -11.2878,-201.694 L -11.0947,-201.875 L -10.8804,-202.031 L -10.6482,-202.159 L -10.4019,-202.256
 L -10.1453,-202.322 L -9.88246,-202.355 L 9.88246,-202.355 L 10.1453,-202.322 L 10.4019,-202.256 L 10.6482,-202.159
 L 10.8804,-202.031 L 11.0947,-201.875 L 11.2878,-201.694 L 11.4567,-201.49 L 11.5987,-201.266 L 11.7115,-201.027
 L 11.7934,-200.775 L 11.843,-200.514 L 11.8596,-200.25 L 11.8596,-135.75 L 11.843,-135.486 L 11.7934,-135.225
 L 11.7115,-134.973 L 11.5987,-134.734 L 11.4567,-134.51 L 11.2878,-134.306 L 11.0947,-134.125 L 10.8804,-133.969
 L 10.6482,-133.841 L 10.4019,-133.744 L 10.1453,-133.678 L 9.88246,-133.645 z
" stroke="black" fill="lightgray" stroke-width="0.5"/>
</svg>
