<?xml version="1.0" standalone="no"?>
<!DOCTYPE svg PUBLIC "-//W3C//DTD SVG 1.1//EN" "http://www.w3.org/Graphics/SVG/1.1/DTD/svg11.dtd">
<svg width="46mm" height="153mm" viewBox="-24 -293 46 153" xmlns="http://www.w3.org/2000/svg" version="1.1">
<title>OpenSCAD Model</title>
<path d="
M -21,-250.007 L -20.6448,-249.577 L -20.1871,-249.147 L -19.6791,-248.778 L -19.1289,-248.476 L -18.5451,-248.245
 L -17.9369,-248.089 L -17.3139,-248.01 L 17.3139,-248.01 L 17.9369,-248.089 L 18.5451,-248.245 L 19.1289,-248.476
 L 19.6791,-248.778 L 20.1871,-249.147 L 20.6448,-249.577 L 21.0451,-250.061 L 21.3815,-250.591 L 21.6489,-251.159
 L 21.8429,-251.757 L 21.9606,-252.373 L 22,-253 L 22,-287 L 21.9606,-287.627 L 21.8429,-288.243
 L 21.6489,-288.841 L 21.3815,-289.409 L 21.0451,-289.939 L 20.6448,-290.423 L 20.1871,-290.853 L 19.6791,-291.222
 L 19.1289,-291.524 L 18.5451,-291.755 L 17.9369,-291.911 L 17.3139,-291.99 L -17.3139,-291.99 L -17.9369,-291.911
 L -18.5451,-291.755 L -19.1289,-291.524 L -19.6791,-291.222 L -20.1871,-290.853 L -20.6448,-290.423 L -21,-289.993
 L -21,-292.49 L -24,-292.49 L -24,-247.51 L -21,-247.51 z
M -17.2512,-249.008 L -17.7495,-249.071 L -18.2361,-249.196 L -18.7031,-249.381 L -19.1433,-249.623 L -19.5497,-249.918
 L -19.9159,-250.262 L -20.2361,-250.649 L -20.5052,-251.073 L -20.7191,-251.528 L -20.8743,-252.005 L -20.9684,-252.499
 L -21,-253 L -21,-287 L -20.9684,-287.501 L -20.8743,-287.995 L -20.7191,-288.472 L -20.5052,-288.927
 L -20.2361,-289.351 L -19.9159,-289.738 L -19.5497,-290.082 L -19.1433,-290.377 L -18.7031,-290.619 L -18.2361,-290.804
 L -17.7495,-290.929 L -17.2512,-290.992 L 17.2512,-290.992 L 17.7495,-290.929 L 18.2361,-290.804 L 18.7031,-290.619
 L 19.1433,-290.377 L 19.5497,-290.082 L 19.9159,-289.738 L 20.2361,-289.351 L 20.5052,-288.927 L 20.7191,-288.472
 L 20.8743,-287.995 L 20.9684,-287.501 L 21,-287 L 21,-253 L 20.9684,-252.499 L 20.8743,-252.005
 L 20.7191,-251.528 L 20.5052,-251.073 L 20.2361,-250.649 L 19.9159,-250.262 L 19.5497,-249.918 L 19.1433,-249.623
 L 18.7031,-249.381 L 18.2361,-249.196 L 17.7495,-249.071 L 17.2512,-249.008 z
M -21,-196.007 L -20.6448,-195.577 L -20.1871,-195.147 L -19.6791,-194.778 L -19.1289,-194.476 L -18.5451,-194.245
 L -17.9369,-194.089 L -17.3139,-194.01 L 17.3139,-194.01 L 17.9369,-194.089 L 18.5451,-194.245 L 19.1289,-194.476
 L 19.6791,-194.778 L 20.1871,-195.147 L 20.6448,-195.577 L 21.0451,-196.061 L 21.3815,-196.591 L 21.6489,-197.159
 L 21.8429,-197.757 L 21.9606,-198.373 L 22,-199 L 22,-233 L 21.9606,-233.627 L 21.8429,-234.243
 L 21.6489,-234.841 L 21.3815,-235.409 L 21.0451,-235.939 L 20.6448,-236.423 L 20.1871,-236.853 L 19.6791,-237.222
 L 19.1289,-237.524 L 18.5451,-237.755 L 17.9369,-237.911 L 17.3139,-237.99 L -17.3139,-237.99 L -17.9369,-237.911
 L -18.5451,-237.755 L -19.1289,-237.524 L -19.6791,-237.222 L -20.1871,-236.853 L -20.6448,-236.423 L -21,-235.993
 L -21,-238.479 L -24,-238.479 L -24,-193.521 L -21,-193.521 z
M -17.1954,-195.893 L -17.5833,-195.942 L -17.9619,-196.039 L -18.3254,-196.183 L -18.668,-196.372 L -18.9842,-196.601
 L -19.2692,-196.869 L -19.5184,-197.17 L -19.7279,-197.5 L -19.8943,-197.854 L -20.0151,-198.226 L -20.0884,-198.61
 L -20.1129,-199 L -20.1129,-233 L -20.0884,-233.39 L -20.0151,-233.774 L -19.8943,-234.146 L -19.7279,-234.5
 L -19.5184,-234.83 L -19.2692,-235.131 L -18.9842,-235.399 L -18.668,-235.628 L -18.3254,-235.817 L -17.9619,-235.961
 L -17.5833,-236.058 L -17.1954,-236.107 L 17.1954,-236.107 L 17.5833,-236.058 L 17.9619,-235.961 L 18.3254,-235.817
 L 18.668,-235.628 L 18.9842,-235.399 L 19.2692,-235.131 L 19.5184,-234.83 L 19.7279,-234.5 L 19.8943,-234.146
 L 20.0151,-233.774 L 20.0884,-233.39 L 20.1129,-233 L 20.1129,-199 L 20.0884,-198.61 L 20.0151,-198.226
 L 19.8943,-197.854 L 19.7279,-197.5 L 19.5184,-197.17 L 19.2692,-196.869 L 18.9842,-196.601 L 18.668,-196.372
 L 18.3254,-196.183 L 17.9619,-196.039 L 17.5833,-195.942 L 17.1954,-195.893 z
M 17.9369,-140.089 L 18.5451,-140.245 L 19.1289,-140.476 L 19.6791,-140.778 L 20.1871,-141.147 L 20.6448,-141.577
 L 21.0451,-142.061 L 21.3815,-142.591 L 21.6489,-143.159 L 21.8429,-143.757 L 21.9606,-144.373 L 22,-145
 L 22,-179 L 21.9606,-179.627 L 21.8429,-180.243 L 21.6489,-180.841 L 21.3815,-181.409 L 21.0451,-181.939
 L 20.6448,-182.423 L 20.1871,-182.853 L 19.6791,-183.222 L 19.1289,-183.524 L 18.5451,-183.755 L 17.9369,-183.911
 L 17.3139,-183.99 L -17.3139,-183.99 L -17.9369,-183.911 L -18.5451,-183.755 L -19.1289,-183.524 L -19.6791,-183.222
 L -20.1871,-182.853 L -20.6448,-182.423 L -21,-181.993 L -21,-183.153 L -24,-183.153 L -24,-140.847
 L -21,-140.847 L -21,-142.007 L -20.6448,-141.577 L -20.1871,-141.147 L -19.6791,-140.778 L -19.1289,-140.476
 L -18.5451,-140.245 L -17.9369,-140.089 L -17.3139,-140.01 L 17.3139,-140.01 z
M 14.8493,-174.605 L 14.5503,-174.643 L 14.2583,-174.717 L 13.9781,-174.828 L 13.714,-174.974 L 13.4702,-175.151
 L 13.2505,-175.357 L 13.0583,-175.589 L 12.8969,-175.844 L 12.7685,-176.117 L 12.6754,-176.403 L 12.6189,-176.699
 L 12.6,-177 L 12.6189,-177.301 L 12.6754,-177.597 L 12.7685,-177.883 L 12.8969,-178.156 L 13.0583,-178.411
 L 13.2505,-178.643 L 13.4702,-178.849 L 13.714,-179.026 L 13.9781,-179.172 L 14.2583,-179.283 L 14.5503,-179.357
 L 14.8493,-179.395 L 15.1507,-179.395 L 15.4497,-179.357 L 15.7416,-179.283 L 16.0219,-179.172 L 16.286,-179.026
 L 16.5298,-178.849 L 16.7495,-178.643 L 16.9416,-178.411 L 17.1031,-178.156 L 17.2315,-177.883 L 17.3246,-177.597
 L 17.3811,-177.301 L 17.4,-177 L 17.3811,-176.699 L 17.3246,-176.403 L 17.2315,-176.117 L 17.1031,-175.844
 L 16.9416,-175.589 L 16.7495,-175.357 L 16.5298,-175.151 L 16.286,-174.974 L 16.0219,-174.828 L 15.7416,-174.717
 L 15.4497,-174.643 L 15.1507,-174.605 z
M -15.1507,-174.605 L -15.4497,-174.643 L -15.7416,-174.717 L -16.0219,-174.828 L -16.286,-174.974 L -16.5298,-175.151
 L -16.7495,-175.357 L -16.9416,-175.589 L -17.1031,-175.844 L -17.2315,-176.117 L -17.3246,-176.403 L -17.3811,-176.699
 L -17.4,-177 L -17.3811,-177.301 L -17.3246,-177.597 L -17.2315,-177.883 L -17.1031,-178.156 L -16.9416,-178.411
 L -16.7495,-178.643 L -16.5298,-178.849 L -16.286,-179.026 L -16.0219,-179.172 L -15.7416,-179.283 L -15.4497,-179.357
 L -15.1507,-179.395 L -14.8493,-179.395 L -14.5503,-179.357 L -14.2583,-179.283 L -13.9781,-179.172 L -13.714,-179.026
 L -13.4702,-178.849 L -13.2505,-178.643 L -13.0583,-178.411 L -12.8969,-178.156 L -12.7685,-177.883 L -12.6754,-177.597
 L -12.6189,-177.301 L -12.6,-177 L -12.6189,-176.699 L -12.6754,-176.403 L -12.7685,-176.117 L -12.8969,-175.844
 L -13.0583,-175.589 L -13.2505,-175.357 L -13.4702,-175.151 L -13.714,-174.974 L -13.9781,-174.828 L -14.2583,-174.717
 L -14.5503,-174.643 L -14.8493,-174.605 z
M -15.1507,-144.605 L -15.4497,-144.643 L -15.7416,-144.717 L -16.0219,-144.828 L -16.286,-144.974 L -16.5298,-145.151
 L -16.7495,-145.357 L -16.9416,-145.589 L -17.1031,-145.844 L -17.2315,-146.117 L -17.3246,-146.403 L -17.3811,-146.699
 L -17.4,-147 L -17.3811,-147.301 L -17.3246,-147.597 L -17.2315,-147.883 L -17.1031,-148.156 L -16.9416,-148.411
 L -16.7495,-148.643 L -16.5298,-148.849 L -16.286,-149.026 L -16.0219,-149.172 L -15.7416,-149.283 L -15.4497,-149.357
 L -15.1507,-149.395 L -14.8493,-149.395 L -14.5503,-149.357 L -14.2583,-149.283 L -13.9781,-149.172 L -13.714,-149.026
 L -13.4702,-148.849 L -13.2505,-148.643 L -13.0583,-148.411 L -12.8969,-148.156 L -12.7685,-147.883 L -12.6754,-147.597
 L -12.6189,-147.301 L -12.6,-147 L -12.6189,-146.699 L -12.6754,-146.403 L -12.7685,-146.117 L -12.8969,-145.844
 L -13.0583,-145.589 L -13.2505,-145.357 L -13.4702,-145.151 L -13.714,-144.974 L -13.9781,-144.828 L -14.2583,-144.717
 L -14.5503,-144.643 L -14.8493,-144.605 z
M 14.8493,-144.605 L 14.5503,-144.643 L 14.2583,-144.717 L 13.9781,-144.828 L 13.714,-144.974 L 13.4702,-145.151
 L 13.2505,-145.357 L 13.0583,-145.589 L 12.8969,-145.844 L 12.7685,-146.117 L 12.6754,-146.403 L 12.6189,-146.699
 L 12.6,-147 L 12.6189,-147.301 L 12.6754,-147.597 L 12.7685,-147.883 L 12.8969,-148.156 L 13.0583,-148.411
 L 13.2505,-148.643 L 13.4702,-148.849 L 13.714,-149.026 L 13.9781,-149.172 L 14.2583,-149.283 L 14.5503,-149.357
 L 14.8493,-149.395 L 15.1507,-149.395 L 15.4497,-149.357 L 15.7416,-149.283 L 16.0219,-149.172 L 16.286,-149.026
 L 16.5298,-148.849 L 16.7495,-148.643 L 16.9416,-148.411 L 17.1031,-148.156 L 17.2315,-147.883 L 17.3246,-147.597
 L 17.3811,-147.301 L 17.4,-147 L 17.3811,-146.699 L 17.3246,-146.403 L 17.2315,-146.117 L 17.1031,-145.844
 L 16.9416,-145.589 L 16.7495,-145.357 L 16.5298,-145.151 L 16.286,-144.974 L 16.0219,-144.828 L 15.7416,-144.717
 L 15.4497,-144.643 L 15.1507,-144.605 z
" stroke="black" fill="lightgray" stroke-width="0.5"/>
</svg>
