<?xml version="1.0" standalone="no"?>
<!DOCTYPE svg PUBLIC "-//W3C//DTD SVG 1.1//EN" "http://www.w3.org/Graphics/SVG/1.1/DTD/svg11.dtd">
<svg width="38mm" height="336mm" viewBox="-19 -651 38 336" xmlns="http://www.w3.org/2000/svg" version="1.1">
<title>OpenSCAD Model</title>
<path d="
M 14.6869,-591.089 L 15.2951,-591.245 L 15.8789,-591.476 L 16.4291,-591.778 L 16.9371,-592.147 L 17.3948,-592.577
 L 17.7951,-593.061 L 18.1315,-593.591 L 18.3989,-594.159 L 18.5929,-594.757 L 18.7106,-595.373 L 18.75,-596
 L 18.75,-646 L 18.7106,-646.627 L 18.5929,-647.243 L 18.3989,-647.841 L 18.1315,-648.409 L 17.7951,-648.939
 L 17.3948,-649.423 L 16.9371,-649.853 L 16.4291,-650.222 L 15.8789,-650.524 L 15.2951,-650.755 L 14.6869,-650.911
 L 14.0639,-650.99 L -14.0639,-650.99 L -14.6869,-650.911 L -15.2951,-650.755 L -15.8789,-650.524 L -16.4291,-650.222
 L -16.9371,-649.853 L -17.3948,-649.423 L -17.7951,-648.939 L -18.1315,-648.409 L -18.3989,-647.841 L -18.5929,-647.243
 L -18.7106,-646.627 L -18.75,-646 L -18.75,-596 L -18.7106,-595.373 L -18.5929,-594.757 L -18.3989,-594.159
 L -18.1315,-593.591 L -17.7951,-593.061 L -17.3948,-592.577 L -16.9371,-592.147 L -16.4291,-591.778 L -15.8789,-591.476
 L -15.2951,-591.245 L -14.6869,-591.089 L -14.0639,-591.01 L 14.0639,-591.01 z
M -8.56104,-591.509 L -8.07086,-591.778 L -7.56287,-592.147 L -7.10515,-592.577 L -6.70491,-593.061 L -6.36845,-593.591
 L -6.1011,-594.159 L -5.90707,-594.757 L -5.78941,-595.373 L -5.75,-596 L -5.75,-599 L -5.78941,-599.627
 L -5.90707,-600.243 L -6.1011,-600.841 L -6.36845,-601.409 L -6.70491,-601.939 L -7.10515,-602.423 L -7.56287,-602.853
 L -8.07086,-603.222 L -8.62109,-603.524 L -9.20491,-603.755 L -9.81308,-603.911 L -10.436,-603.99 L -14.0639,-603.99
 L -14.6869,-603.911 L -15.2951,-603.755 L -15.8789,-603.524 L -16.4291,-603.222 L -16.9371,-602.853 L -17.3948,-602.423
 L -17.7951,-601.939 L -18.1315,-601.409 L -18.25,-601.157 L -18.25,-646 L -18.2145,-646.564 L -18.1086,-647.119
 L -17.934,-647.657 L -17.6934,-648.168 L -17.3906,-648.645 L -17.0303,-649.08 L -16.6184,-649.467 L -16.1612,-649.799
 L -15.666,-650.072 L -15.1406,-650.28 L -14.5932,-650.42 L -14.0325,-650.491 L 14.0325,-650.491 L 14.5932,-650.42
 L 15.1406,-650.28 L 15.666,-650.072 L 16.1612,-649.799 L 16.6184,-649.467 L 17.0303,-649.08 L 17.3906,-648.645
 L 17.6934,-648.168 L 17.934,-647.657 L 18.1086,-647.119 L 18.2145,-646.564 L 18.25,-646 L 18.25,-596
 L 18.2145,-595.436 L 18.1086,-594.881 L 17.934,-594.343 L 17.6934,-593.832 L 17.3906,-593.355 L 17.0303,-592.92
 L 16.6184,-592.533 L 16.1612,-592.201 L 15.666,-591.928 L 15.1406,-591.72 L 14.5932,-591.58 L 14.0325,-591.509
 z
M 11.7184,-641.044 L 12.0225,-641.122 L 12.3144,-641.238 L 12.5896,-641.389 L 12.8436,-641.574 L 13.0724,-641.789
 L 13.2725,-642.031 L 13.4408,-642.296 L 13.5744,-642.58 L 13.6714,-642.878 L 13.7303,-643.187 L 13.75,-643.5
 L 13.7303,-643.813 L 13.6714,-644.122 L 13.5744,-644.42 L 13.4408,-644.704 L 13.2725,-644.969 L 13.0724,-645.211
 L 12.8436,-645.426 L 12.5896,-645.611 L 12.3144,-645.762 L 12.0225,-645.878 L 11.7184,-645.956 L 11.407,-645.995
 L 11.093,-645.995 L 10.7815,-645.956 L 10.4774,-645.878 L 10.1855,-645.762 L 9.91043,-645.611 L 9.65643,-645.426
 L 9.42757,-645.211 L 9.22745,-644.969 L 9.05922,-644.704 L 8.92555,-644.42 L 8.82854,-644.122 L 8.7697,-643.813
 L 8.75,-643.5 L 8.7697,-643.187 L 8.82854,-642.878 L 8.92555,-642.58 L 9.05922,-642.296 L 9.22745,-642.031
 L 9.42757,-641.789 L 9.65643,-641.574 L 9.91043,-641.389 L 10.1855,-641.238 L 10.4774,-641.122 L 10.7815,-641.044
 L 11.093,-641.005 L 11.407,-641.005 z
M 11.1558,-642.003 L 10.9689,-642.027 L 10.7865,-642.073 L 10.6113,-642.143 L 10.4463,-642.234 L 10.2939,-642.344
 L 10.1565,-642.473 L 10.0365,-642.618 L 9.93553,-642.777 L 9.85533,-642.948 L 9.79712,-643.127 L 9.76183,-643.312
 L 9.75,-643.5 L 9.76183,-643.688 L 9.79712,-643.873 L 9.85533,-644.052 L 9.93553,-644.223 L 10.0365,-644.382
 L 10.1565,-644.527 L 10.2939,-644.656 L 10.4463,-644.766 L 10.6113,-644.857 L 10.7865,-644.927 L 10.9689,-644.973
 L 11.1558,-644.997 L 11.3442,-644.997 L 11.5311,-644.973 L 11.7135,-644.927 L 11.8887,-644.857 L 12.0537,-644.766
 L 12.2061,-644.656 L 12.3434,-644.527 L 12.4635,-644.382 L 12.5645,-644.223 L 12.6447,-644.052 L 12.7029,-643.873
 L 12.7382,-643.688 L 12.75,-643.5 L 12.7382,-643.312 L 12.7029,-643.127 L 12.6447,-642.948 L 12.5645,-642.777
 L 12.4635,-642.618 L 12.3434,-642.473 L 12.2061,-642.344 L 12.0537,-642.234 L 11.8887,-642.143 L 11.7135,-642.073
 L 11.5311,-642.027 L 11.3442,-642.003 z
M -11.3442,-597.003 L -11.5311,-597.027 L -11.7135,-597.073 L -11.8887,-597.143 L -12.0537,-597.234 L -12.2061,-597.344
 L -12.3434,-597.473 L -12.4635,-597.618 L -12.5645,-597.777 L -12.6447,-597.948 L -12.7029,-598.127 L -12.7382,-598.312
 L -12.75,-598.5 L -12.7382,-598.688 L -12.7029,-598.873 L -12.6447,-599.052 L -12.5645,-599.223 L -12.4635,-599.382
 L -12.3434,-599.527 L -12.2061,-599.656 L -12.0537,-599.766 L -11.8887,-599.857 L -11.7135,-599.927 L -11.5311,-599.973
 L -11.3442,-599.997 L -11.1558,-599.997 L -10.9689,-599.973 L -10.7865,-599.927 L -10.6113,-599.857 L -10.4463,-599.766
 L -10.2939,-599.656 L -10.1565,-599.527 L -10.0365,-599.382 L -9.93553,-599.223 L -9.85533,-599.052 L -9.79712,-598.873
 L -9.76183,-598.688 L -9.75,-598.5 L -9.76183,-598.312 L -9.79712,-598.127 L -9.85533,-597.948 L -9.93553,-597.777
 L -10.0365,-597.618 L -10.1565,-597.473 L -10.2939,-597.344 L -10.4463,-597.234 L -10.6113,-597.143 L -10.7865,-597.073
 L -10.9689,-597.027 L -11.1558,-597.003 z
M 14.6869,-522.089 L 15.2951,-522.245 L 15.8789,-522.476 L 16.4291,-522.778 L 16.9371,-523.147 L 17.3948,-523.577
 L 17.7951,-524.061 L 18.1315,-524.591 L 18.3989,-525.159 L 18.5929,-525.757 L 18.7106,-526.373 L 18.75,-527
 L 18.75,-577 L 18.7106,-577.627 L 18.5929,-578.243 L 18.3989,-578.841 L 18.1315,-579.409 L 17.7951,-579.939
 L 17.3948,-580.423 L 16.9371,-580.853 L 16.4291,-581.222 L 15.8789,-581.524 L 15.2951,-581.755 L 14.6869,-581.911
 L 14.0639,-581.99 L -14.0639,-581.99 L -14.6869,-581.911 L -15.2951,-581.755 L -15.8789,-581.524 L -16.4291,-581.222
 L -16.9371,-580.853 L -17.3948,-580.423 L -17.7951,-579.939 L -18.1315,-579.409 L -18.3989,-578.841 L -18.5929,-578.243
 L -18.7106,-577.627 L -18.75,-577 L -18.75,-527 L -18.7106,-526.373 L -18.5929,-525.757 L -18.3989,-525.159
 L -18.1315,-524.591 L -17.7951,-524.061 L -17.3948,-523.577 L -16.9371,-523.147 L -16.4291,-522.778 L -15.8789,-522.476
 L -15.2951,-522.245 L -14.6869,-522.089 L -14.0639,-522.01 L 14.0639,-522.01 z
M -8.56104,-522.509 L -8.07086,-522.778 L -7.56287,-523.147 L -7.10515,-523.577 L -6.70491,-524.061 L -6.36845,-524.591
 L -6.1011,-525.159 L -5.90707,-525.757 L -5.78941,-526.373 L -5.75,-527 L -5.75,-530 L -5.78941,-530.627
 L -5.90707,-531.243 L -6.1011,-531.841 L -6.36845,-532.409 L -6.70491,-532.939 L -7.10515,-533.423 L -7.56287,-533.853
 L -8.07086,-534.222 L -8.62109,-534.524 L -9.20491,-534.755 L -9.81308,-534.911 L -10.436,-534.99 L -14.0639,-534.99
 L -14.6869,-534.911 L -15.2951,-534.755 L -15.8789,-534.524 L -16.4291,-534.222 L -16.9371,-533.853 L -17.3948,-533.423
 L -17.7951,-532.939 L -18.1315,-532.409 L -18.25,-532.157 L -18.25,-577 L -18.2145,-577.564 L -18.1086,-578.119
 L -17.934,-578.657 L -17.6934,-579.168 L -17.3906,-579.645 L -17.0303,-580.08 L -16.6184,-580.467 L -16.1612,-580.799
 L -15.666,-581.072 L -15.1406,-581.28 L -14.5932,-581.42 L -14.0325,-581.491 L 14.0325,-581.491 L 14.5932,-581.42
 L 15.1406,-581.28 L 15.666,-581.072 L 16.1612,-580.799 L 16.6184,-580.467 L 17.0303,-580.08 L 17.3906,-579.645
 L 17.6934,-579.168 L 17.934,-578.657 L 18.1086,-578.119 L 18.2145,-577.564 L 18.25,-577 L 18.25,-527
 L 18.2145,-526.436 L 18.1086,-525.881 L 17.934,-525.343 L 17.6934,-524.832 L 17.3906,-524.355 L 17.0303,-523.92
 L 16.6184,-523.533 L 16.1612,-523.201 L 15.666,-522.928 L 15.1406,-522.72 L 14.5932,-522.58 L 14.0325,-522.509
 z
M 11.7184,-572.044 L 12.0225,-572.122 L 12.3144,-572.238 L 12.5896,-572.389 L 12.8436,-572.574 L 13.0724,-572.789
 L 13.2725,-573.031 L 13.4408,-573.296 L 13.5744,-573.58 L 13.6714,-573.878 L 13.7303,-574.187 L 13.75,-574.5
 L 13.7303,-574.813 L 13.6714,-575.122 L 13.5744,-575.42 L 13.4408,-575.704 L 13.2725,-575.969 L 13.0724,-576.211
 L 12.8436,-576.426 L 12.5896,-576.611 L 12.3144,-576.762 L 12.0225,-576.878 L 11.7184,-576.956 L 11.407,-576.995
 L 11.093,-576.995 L 10.7815,-576.956 L 10.4774,-576.878 L 10.1855,-576.762 L 9.91043,-576.611 L 9.65643,-576.426
 L 9.42757,-576.211 L 9.22745,-575.969 L 9.05922,-575.704 L 8.92555,-575.42 L 8.82854,-575.122 L 8.7697,-574.813
 L 8.75,-574.5 L 8.7697,-574.187 L 8.82854,-573.878 L 8.92555,-573.58 L 9.05922,-573.296 L 9.22745,-573.031
 L 9.42757,-572.789 L 9.65643,-572.574 L 9.91043,-572.389 L 10.1855,-572.238 L 10.4774,-572.122 L 10.7815,-572.044
 L 11.093,-572.005 L 11.407,-572.005 z
M 11.1558,-573.003 L 10.9689,-573.027 L 10.7865,-573.073 L 10.6113,-573.143 L 10.4463,-573.234 L 10.2939,-573.344
 L 10.1565,-573.473 L 10.0365,-573.618 L 9.93553,-573.777 L 9.85533,-573.948 L 9.79712,-574.127 L 9.76183,-574.312
 L 9.75,-574.5 L 9.76183,-574.688 L 9.79712,-574.873 L 9.85533,-575.052 L 9.93553,-575.223 L 10.0365,-575.382
 L 10.1565,-575.527 L 10.2939,-575.656 L 10.4463,-575.766 L 10.6113,-575.857 L 10.7865,-575.927 L 10.9689,-575.973
 L 11.1558,-575.997 L 11.3442,-575.997 L 11.5311,-575.973 L 11.7135,-575.927 L 11.8887,-575.857 L 12.0537,-575.766
 L 12.2061,-575.656 L 12.3434,-575.527 L 12.4635,-575.382 L 12.5645,-575.223 L 12.6447,-575.052 L 12.7029,-574.873
 L 12.7382,-574.688 L 12.75,-574.5 L 12.7382,-574.312 L 12.7029,-574.127 L 12.6447,-573.948 L 12.5645,-573.777
 L 12.4635,-573.618 L 12.3434,-573.473 L 12.2061,-573.344 L 12.0537,-573.234 L 11.8887,-573.143 L 11.7135,-573.073
 L 11.5311,-573.027 L 11.3442,-573.003 z
M -11.3442,-528.003 L -11.5311,-528.027 L -11.7135,-528.073 L -11.8887,-528.143 L -12.0537,-528.234 L -12.2061,-528.344
 L -12.3434,-528.473 L -12.4635,-528.618 L -12.5645,-528.777 L -12.6447,-528.948 L -12.7029,-529.127 L -12.7382,-529.312
 L -12.75,-529.5 L -12.7382,-529.688 L -12.7029,-529.873 L -12.6447,-530.052 L -12.5645,-530.223 L -12.4635,-530.382
 L -12.3434,-530.527 L -12.2061,-530.656 L -12.0537,-530.766 L -11.8887,-530.857 L -11.7135,-530.927 L -11.5311,-530.973
 L -11.3442,-530.997 L -11.1558,-530.997 L -10.9689,-530.973 L -10.7865,-530.927 L -10.6113,-530.857 L -10.4463,-530.766
 L -10.2939,-530.656 L -10.1565,-530.527 L -10.0365,-530.382 L -9.93553,-530.223 L -9.85533,-530.052 L -9.79712,-529.873
 L -9.76183,-529.688 L -9.75,-529.5 L -9.76183,-529.312 L -9.79712,-529.127 L -9.85533,-528.948 L -9.93553,-528.777
 L -10.0365,-528.618 L -10.1565,-528.473 L -10.2939,-528.344 L -10.4463,-528.234 L -10.6113,-528.143 L -10.7865,-528.073
 L -10.9689,-528.027 L -11.1558,-528.003 z
M 14.6869,-453.089 L 15.2951,-453.245 L 15.8789,-453.476 L 16.4291,-453.778 L 16.9371,-454.147 L 17.3948,-454.577
 L 17.7951,-455.061 L 18.1315,-455.591 L 18.3989,-456.159 L 18.5929,-456.757 L 18.7106,-457.373 L 18.75,-458
 L 18.75,-508 L 18.7106,-508.627 L 18.5929,-509.243 L 18.3989,-509.841 L 18.1315,-510.409 L 17.7951,-510.939
 L 17.3948,-511.423 L 16.9371,-511.853 L 16.4291,-512.222 L 15.8789,-512.524 L 15.2951,-512.755 L 14.6869,-512.911
 L 14.0639,-512.99 L -14.0639,-512.99 L -14.6869,-512.911 L -15.2951,-512.755 L -15.8789,-512.524 L -16.4291,-512.222
 L -16.9371,-511.853 L -17.3948,-511.423 L -17.7951,-510.939 L -18.1315,-510.409 L -18.3989,-509.841 L -18.5929,-509.243
 L -18.7106,-508.627 L -18.75,-508 L -18.75,-458 L -18.7106,-457.373 L -18.5929,-456.757 L -18.3989,-456.159
 L -18.1315,-455.591 L -17.7951,-455.061 L -17.3948,-454.577 L -16.9371,-454.147 L -16.4291,-453.778 L -15.8789,-453.476
 L -15.2951,-453.245 L -14.6869,-453.089 L -14.0639,-453.01 L 14.0639,-453.01 z
M -8.56104,-453.509 L -8.07086,-453.778 L -7.56287,-454.147 L -7.10515,-454.577 L -6.70491,-455.061 L -6.36845,-455.591
 L -6.1011,-456.159 L -5.90707,-456.757 L -5.78941,-457.373 L -5.75,-458 L -5.75,-461 L -5.78941,-461.627
 L -5.90707,-462.243 L -6.1011,-462.841 L -6.36845,-463.409 L -6.70491,-463.939 L -7.10515,-464.423 L -7.56287,-464.853
 L -8.07086,-465.222 L -8.62109,-465.524 L -9.20491,-465.755 L -9.81308,-465.911 L -10.436,-465.99 L -14.0639,-465.99
 L -14.6869,-465.911 L -15.2951,-465.755 L -15.8789,-465.524 L -16.4291,-465.222 L -16.9371,-464.853 L -17.3948,-464.423
 L -17.7951,-463.939 L -18.1315,-463.409 L -18.25,-463.157 L -18.25,-508 L -18.2145,-508.564 L -18.1086,-509.119
 L -17.934,-509.657 L -17.6934,-510.168 L -17.3906,-510.645 L -17.0303,-511.08 L -16.6184,-511.467 L -16.1612,-511.799
 L -15.666,-512.072 L -15.1406,-512.28 L -14.5932,-512.42 L -14.0325,-512.491 L 14.0325,-512.491 L 14.5932,-512.42
 L 15.1406,-512.28 L 15.666,-512.072 L 16.1612,-511.799 L 16.6184,-511.467 L 17.0303,-511.08 L 17.3906,-510.645
 L 17.6934,-510.168 L 17.934,-509.657 L 18.1086,-509.119 L 18.2145,-508.564 L 18.25,-508 L 18.25,-458
 L 18.2145,-457.436 L 18.1086,-456.881 L 17.934,-456.343 L 17.6934,-455.832 L 17.3906,-455.355 L 17.0303,-454.92
 L 16.6184,-454.533 L 16.1612,-454.201 L 15.666,-453.928 L 15.1406,-453.72 L 14.5932,-453.58 L 14.0325,-453.509
 z
M 11.7184,-503.044 L 12.0225,-503.122 L 12.3144,-503.238 L 12.5896,-503.389 L 12.8436,-503.574 L 13.0724,-503.789
 L 13.2725,-504.031 L 13.4408,-504.296 L 13.5744,-504.58 L 13.6714,-504.878 L 13.7303,-505.187 L 13.75,-505.5
 L 13.7303,-505.813 L 13.6714,-506.122 L 13.5744,-506.42 L 13.4408,-506.704 L 13.2725,-506.969 L 13.0724,-507.211
 L 12.8436,-507.426 L 12.5896,-507.611 L 12.3144,-507.762 L 12.0225,-507.878 L 11.7184,-507.956 L 11.407,-507.995
 L 11.093,-507.995 L 10.7815,-507.956 L 10.4774,-507.878 L 10.1855,-507.762 L 9.91043,-507.611 L 9.65643,-507.426
 L 9.42757,-507.211 L 9.22745,-506.969 L 9.05922,-506.704 L 8.92555,-506.42 L 8.82854,-506.122 L 8.7697,-505.813
 L 8.75,-505.5 L 8.7697,-505.187 L 8.82854,-504.878 L 8.92555,-504.58 L 9.05922,-504.296 L 9.22745,-504.031
 L 9.42757,-503.789 L 9.65643,-503.574 L 9.91043,-503.389 L 10.1855,-503.238 L 10.4774,-503.122 L 10.7815,-503.044
 L 11.093,-503.005 L 11.407,-503.005 z
M 11.1558,-504.003 L 10.9689,-504.027 L 10.7865,-504.073 L 10.6113,-504.143 L 10.4463,-504.234 L 10.2939,-504.344
 L 10.1565,-504.473 L 10.0365,-504.618 L 9.93553,-504.777 L 9.85533,-504.948 L 9.79712,-505.127 L 9.76183,-505.312
 L 9.75,-505.5 L 9.76183,-505.688 L 9.79712,-505.873 L 9.85533,-506.052 L 9.93553,-506.223 L 10.0365,-506.382
 L 10.1565,-506.527 L 10.2939,-506.656 L 10.4463,-506.766 L 10.6113,-506.857 L 10.7865,-506.927 L 10.9689,-506.973
 L 11.1558,-506.997 L 11.3442,-506.997 L 11.5311,-506.973 L 11.7135,-506.927 L 11.8887,-506.857 L 12.0537,-506.766
 L 12.2061,-506.656 L 12.3434,-506.527 L 12.4635,-506.382 L 12.5645,-506.223 L 12.6447,-506.052 L 12.7029,-505.873
 L 12.7382,-505.688 L 12.75,-505.5 L 12.7382,-505.312 L 12.7029,-505.127 L 12.6447,-504.948 L 12.5645,-504.777
 L 12.4635,-504.618 L 12.3434,-504.473 L 12.2061,-504.344 L 12.0537,-504.234 L 11.8887,-504.143 L 11.7135,-504.073
 L 11.5311,-504.027 L 11.3442,-504.003 z
M -11.3442,-459.003 L -11.5311,-459.027 L -11.7135,-459.073 L -11.8887,-459.143 L -12.0537,-459.234 L -12.2061,-459.344
 L -12.3434,-459.473 L -12.4635,-459.618 L -12.5645,-459.777 L -12.6447,-459.948 L -12.7029,-460.127 L -12.7382,-460.312
 L -12.75,-460.5 L -12.7382,-460.688 L -12.7029,-460.873 L -12.6447,-461.052 L -12.5645,-461.223 L -12.4635,-461.382
 L -12.3434,-461.527 L -12.2061,-461.656 L -12.0537,-461.766 L -11.8887,-461.857 L -11.7135,-461.927 L -11.5311,-461.973
 L -11.3442,-461.997 L -11.1558,-461.997 L -10.9689,-461.973 L -10.7865,-461.927 L -10.6113,-461.857 L -10.4463,-461.766
 L -10.2939,-461.656 L -10.1565,-461.527 L -10.0365,-461.382 L -9.93553,-461.223 L -9.85533,-461.052 L -9.79712,-460.873
 L -9.76183,-460.688 L -9.75,-460.5 L -9.76183,-460.312 L -9.79712,-460.127 L -9.85533,-459.948 L -9.93553,-459.777
 L -10.0365,-459.618 L -10.1565,-459.473 L -10.2939,-459.344 L -10.4463,-459.234 L -10.6113,-459.143 L -10.7865,-459.073
 L -10.9689,-459.027 L -11.1558,-459.003 z
M 14.6869,-384.089 L 15.2951,-384.245 L 15.8789,-384.476 L 16.4291,-384.778 L 16.9371,-385.147 L 17.3948,-385.577
 L 17.7951,-386.061 L 18.1315,-386.591 L 18.3989,-387.159 L 18.5929,-387.757 L 18.7106,-388.373 L 18.75,-389
 L 18.75,-439 L 18.7106,-439.627 L 18.5929,-440.243 L 18.3989,-440.841 L 18.1315,-441.409 L 17.7951,-441.939
 L 17.3948,-442.423 L 16.9371,-442.853 L 16.4291,-443.222 L 15.8789,-443.524 L 15.2951,-443.755 L 14.6869,-443.911
 L 14.0639,-443.99 L -14.0639,-443.99 L -14.6869,-443.911 L -15.2951,-443.755 L -15.8789,-443.524 L -16.4291,-443.222
 L -16.9371,-442.853 L -17.3948,-442.423 L -17.7951,-441.939 L -18.1315,-441.409 L -18.3989,-440.841 L -18.5929,-440.243
 L -18.7106,-439.627 L -18.75,-439 L -18.75,-389 L -18.7106,-388.373 L -18.5929,-387.757 L -18.3989,-387.159
 L -18.1315,-386.591 L -17.7951,-386.061 L -17.3948,-385.577 L -16.9371,-385.147 L -16.4291,-384.778 L -15.8789,-384.476
 L -15.2951,-384.245 L -14.6869,-384.089 L -14.0639,-384.01 L 14.0639,-384.01 z
M -8.50392,-384.54 L -8.07086,-384.778 L -7.56287,-385.147 L -7.10515,-385.577 L -6.70491,-386.061 L -6.36845,-386.591
 L -6.1011,-387.159 L -5.90707,-387.757 L -5.78941,-388.373 L -5.75,-389 L -5.75,-392 L -5.78941,-392.627
 L -5.90707,-393.243 L -6.1011,-393.841 L -6.36845,-394.409 L -6.70491,-394.939 L -7.10515,-395.423 L -7.56287,-395.853
 L -8.07086,-396.222 L -8.62109,-396.524 L -9.20491,-396.755 L -9.81308,-396.911 L -10.436,-396.99 L -14.0639,-396.99
 L -14.6869,-396.911 L -15.2951,-396.755 L -15.8789,-396.524 L -16.4291,-396.222 L -16.9371,-395.853 L -17.3948,-395.423
 L -17.7951,-394.939 L -18.1315,-394.409 L -18.2185,-394.224 L -18.2185,-439 L -18.1833,-439.56 L -18.0782,-440.111
 L -17.9047,-440.645 L -17.6658,-441.153 L -17.3651,-441.627 L -17.0074,-442.059 L -16.5983,-442.443 L -16.1444,-442.773
 L -15.6526,-443.043 L -15.1308,-443.25 L -14.5873,-443.389 L -14.0306,-443.46 L 14.0306,-443.46 L 14.5873,-443.389
 L 15.1308,-443.25 L 15.6526,-443.043 L 16.1444,-442.773 L 16.5983,-442.443 L 17.0074,-442.059 L 17.3651,-441.627
 L 17.6658,-441.153 L 17.9047,-440.645 L 18.0782,-440.111 L 18.1833,-439.56 L 18.2185,-439 L 18.2185,-389
 L 18.1833,-388.44 L 18.0782,-387.889 L 17.9047,-387.355 L 17.6658,-386.847 L 17.3651,-386.373 L 17.0074,-385.941
 L 16.5983,-385.557 L 16.1444,-385.227 L 15.6526,-384.957 L 15.1308,-384.75 L 14.5873,-384.611 L 14.0306,-384.54
 z
M 11.7184,-434.044 L 12.0225,-434.122 L 12.3144,-434.238 L 12.5896,-434.389 L 12.8436,-434.574 L 13.0724,-434.789
 L 13.2725,-435.031 L 13.4408,-435.296 L 13.5744,-435.58 L 13.6714,-435.878 L 13.7303,-436.187 L 13.75,-436.5
 L 13.7303,-436.813 L 13.6714,-437.122 L 13.5744,-437.42 L 13.4408,-437.704 L 13.2725,-437.969 L 13.0724,-438.211
 L 12.8436,-438.426 L 12.5896,-438.611 L 12.3144,-438.762 L 12.0225,-438.878 L 11.7184,-438.956 L 11.407,-438.995
 L 11.093,-438.995 L 10.7815,-438.956 L 10.4774,-438.878 L 10.1855,-438.762 L 9.91043,-438.611 L 9.65643,-438.426
 L 9.42757,-438.211 L 9.22745,-437.969 L 9.05922,-437.704 L 8.92555,-437.42 L 8.82854,-437.122 L 8.7697,-436.813
 L 8.75,-436.5 L 8.7697,-436.187 L 8.82854,-435.878 L 8.92555,-435.58 L 9.05922,-435.296 L 9.22745,-435.031
 L 9.42757,-434.789 L 9.65643,-434.574 L 9.91043,-434.389 L 10.1855,-434.238 L 10.4774,-434.122 L 10.7815,-434.044
 L 11.093,-434.005 L 11.407,-434.005 z
M 11.1558,-435.003 L 10.9689,-435.027 L 10.7865,-435.073 L 10.6113,-435.143 L 10.4463,-435.234 L 10.2939,-435.344
 L 10.1565,-435.473 L 10.0365,-435.618 L 9.93553,-435.777 L 9.85533,-435.948 L 9.79712,-436.127 L 9.76183,-436.312
 L 9.75,-436.5 L 9.76183,-436.688 L 9.79712,-436.873 L 9.85533,-437.052 L 9.93553,-437.223 L 10.0365,-437.382
 L 10.1565,-437.527 L 10.2939,-437.656 L 10.4463,-437.766 L 10.6113,-437.857 L 10.7865,-437.927 L 10.9689,-437.973
 L 11.1558,-437.997 L 11.3442,-437.997 L 11.5311,-437.973 L 11.7135,-437.927 L 11.8887,-437.857 L 12.0537,-437.766
 L 12.2061,-437.656 L 12.3434,-437.527 L 12.4635,-437.382 L 12.5645,-437.223 L 12.6447,-437.052 L 12.7029,-436.873
 L 12.7382,-436.688 L 12.75,-436.5 L 12.7382,-436.312 L 12.7029,-436.127 L 12.6447,-435.948 L 12.5645,-435.777
 L 12.4635,-435.618 L 12.3434,-435.473 L 12.2061,-435.344 L 12.0537,-435.234 L 11.8887,-435.143 L 11.7135,-435.073
 L 11.5311,-435.027 L 11.3442,-435.003 z
M -11.3442,-390.003 L -11.5311,-390.027 L -11.7135,-390.073 L -11.8887,-390.143 L -12.0537,-390.234 L -12.2061,-390.344
 L -12.3434,-390.473 L -12.4635,-390.618 L -12.5645,-390.777 L -12.6447,-390.948 L -12.7029,-391.127 L -12.7382,-391.312
 L -12.75,-391.5 L -12.7382,-391.688 L -12.7029,-391.873 L -12.6447,-392.052 L -12.5645,-392.223 L -12.4635,-392.382
 L -12.3434,-392.527 L -12.2061,-392.656 L -12.0537,-392.766 L -11.8887,-392.857 L -11.7135,-392.927 L -11.5311,-392.973
 L -11.3442,-392.997 L -11.1558,-392.997 L -10.9689,-392.973 L -10.7865,-392.927 L -10.6113,-392.857 L -10.4463,-392.766
 L -10.2939,-392.656 L -10.1565,-392.527 L -10.0365,-392.382 L -9.93553,-392.223 L -9.85533,-392.052 L -9.79712,-391.873
 L -9.76183,-391.688 L -9.75,-391.5 L -9.76183,-391.312 L -9.79712,-391.127 L -9.85533,-390.948 L -9.93553,-390.777
 L -10.0365,-390.618 L -10.1565,-390.473 L -10.2939,-390.344 L -10.4463,-390.234 L -10.6113,-390.143 L -10.7865,-390.073
 L -10.9689,-390.027 L -11.1558,-390.003 z
M 14.6869,-315.089 L 15.2951,-315.245 L 15.8789,-315.476 L 16.4291,-315.778 L 16.9371,-316.147 L 17.3948,-316.577
 L 17.7951,-317.061 L 18.1315,-317.591 L 18.3989,-318.159 L 18.5929,-318.757 L 18.7106,-319.373 L 18.75,-320
 L 18.75,-370 L 18.7106,-370.627 L 18.5929,-371.243 L 18.3989,-371.841 L 18.1315,-372.409 L 17.7951,-372.939
 L 17.3948,-373.423 L 16.9371,-373.853 L 16.4291,-374.222 L 15.8789,-374.524 L 15.2951,-374.755 L 14.6869,-374.911
 L 14.0639,-374.99 L -14.0639,-374.99 L -14.6869,-374.911 L -15.2951,-374.755 L -15.8789,-374.524 L -16.4291,-374.222
 L -16.9371,-373.853 L -17.3948,-373.423 L -17.7951,-372.939 L -18.1315,-372.409 L -18.3989,-371.841 L -18.5929,-371.243
 L -18.7106,-370.627 L -18.75,-370 L -18.75,-320 L -18.7106,-319.373 L -18.5929,-318.757 L -18.3989,-318.159
 L -18.1315,-317.591 L -17.7951,-317.061 L -17.3948,-316.577 L -16.9371,-316.147 L -16.4291,-315.778 L -15.8789,-315.476
 L -15.2951,-315.245 L -14.6869,-315.089 L -14.0639,-315.01 L 14.0639,-315.01 z
M -6.62805,-317.182 L -6.36845,-317.591 L -6.1011,-318.159 L -5.90707,-318.757 L -5.78941,-319.373 L -5.75,-320
 L -5.75,-323 L -5.78941,-323.627 L -5.90707,-324.243 L -6.1011,-324.841 L -6.36845,-325.409 L -6.70491,-325.939
 L -7.10515,-326.423 L -7.56287,-326.853 L -8.07086,-327.222 L -8.62109,-327.524 L -9.20491,-327.755 L -9.81308,-327.911
 L -10.436,-327.99 L -14.0639,-327.99 L -14.6869,-327.911 L -15.2951,-327.755 L -15.8789,-327.524 L -16.4291,-327.222
 L -16.5734,-327.117 L -16.5734,-370 L -16.5511,-370.354 L -16.4847,-370.702 L -16.3751,-371.039 L -16.2242,-371.36
 L -16.0342,-371.66 L -15.8082,-371.933 L -15.5497,-372.175 L -15.2628,-372.384 L -14.9521,-372.555 L -14.6225,-372.685
 L -14.2791,-372.773 L -13.9273,-372.818 L 6.62805,-372.818 L 6.36845,-372.409 L 6.1011,-371.841 L 5.90707,-371.243
 L 5.78941,-370.627 L 5.75,-370 L 5.75,-367 L 5.78941,-366.373 L 5.90707,-365.757 L 6.1011,-365.159
 L 6.36845,-364.591 L 6.70491,-364.061 L 7.10515,-363.577 L 7.56287,-363.147 L 8.07086,-362.778 L 8.62109,-362.476
 L 9.20491,-362.245 L 9.81308,-362.089 L 10.436,-362.01 L 14.0639,-362.01 L 14.6869,-362.089 L 15.2951,-362.245
 L 15.8789,-362.476 L 16.4291,-362.778 L 16.5734,-362.883 L 16.5734,-320 L 16.5511,-319.646 L 16.4847,-319.298
 L 16.3751,-318.961 L 16.2242,-318.64 L 16.0342,-318.34 L 15.8082,-318.067 L 15.5497,-317.825 L 15.2628,-317.616
 L 14.9521,-317.445 L 14.6225,-317.315 L 14.2791,-317.227 L 13.9273,-317.182 z
M 11.0993,-365.105 L 10.8003,-365.143 L 10.5083,-365.217 L 10.2281,-365.328 L 9.964,-365.474 L 9.72017,-365.651
 L 9.50047,-365.857 L 9.30835,-366.089 L 9.14685,-366.344 L 9.01852,-366.617 L 8.9254,-366.903 L 8.86891,-367.199
 L 8.84999,-367.5 L 8.86891,-367.801 L 8.9254,-368.097 L 9.01852,-368.383 L 9.14685,-368.656 L 9.30835,-368.911
 L 9.50047,-369.143 L 9.72017,-369.349 L 9.964,-369.526 L 10.2281,-369.672 L 10.5083,-369.783 L 10.8003,-369.857
 L 11.0993,-369.895 L 11.4007,-369.895 L 11.6997,-369.857 L 11.9916,-369.783 L 12.2719,-369.672 L 12.536,-369.526
 L 12.7798,-369.349 L 12.9995,-369.143 L 13.1916,-368.911 L 13.3531,-368.656 L 13.4815,-368.383 L 13.5746,-368.097
 L 13.6311,-367.801 L 13.65,-367.5 L 13.6311,-367.199 L 13.5746,-366.903 L 13.4815,-366.617 L 13.3531,-366.344
 L 13.1916,-366.089 L 12.9995,-365.857 L 12.7798,-365.651 L 12.536,-365.474 L 12.2719,-365.328 L 11.9916,-365.217
 L 11.6997,-365.143 L 11.4007,-365.105 z
M -11.4007,-320.105 L -11.6997,-320.143 L -11.9916,-320.217 L -12.2719,-320.328 L -12.536,-320.474 L -12.7798,-320.651
 L -12.9995,-320.857 L -13.1916,-321.089 L -13.3531,-321.344 L -13.4815,-321.617 L -13.5746,-321.903 L -13.6311,-322.199
 L -13.65,-322.5 L -13.6311,-322.801 L -13.5746,-323.097 L -13.4815,-323.383 L -13.3531,-323.656 L -13.1916,-323.911
 L -12.9995,-324.143 L -12.7798,-324.349 L -12.536,-324.526 L -12.2719,-324.672 L -11.9916,-324.783 L -11.6997,-324.857
 L -11.4007,-324.895 L -11.0993,-324.895 L -10.8003,-324.857 L -10.5083,-324.783 L -10.2281,-324.672 L -9.964,-324.526
 L -9.72017,-324.349 L -9.50047,-324.143 L -9.30835,-323.911 L -9.14685,-323.656 L -9.01852,-323.383 L -8.9254,-323.097
 L -8.86891,-322.801 L -8.84999,-322.5 L -8.86891,-322.199 L -8.9254,-321.903 L -9.01852,-321.617 L -9.14685,-321.344
 L -9.30835,-321.089 L -9.50047,-320.857 L -9.72017,-320.651 L -9.964,-320.474 L -10.2281,-320.328 L -10.5083,-320.217
 L -10.8003,-320.143 L -11.0993,-320.105 z
" stroke="black" fill="lightgray" stroke-width="0.5"/>
</svg>
