<?xml version="1.0" standalone="no"?>
<!DOCTYPE svg PUBLIC "-//W3C//DTD SVG 1.1//EN" "http://www.w3.org/Graphics/SVG/1.1/DTD/svg11.dtd">
<svg width="32mm" height="207mm" viewBox="-17 -401 32 207" xmlns="http://www.w3.org/2000/svg" version="1.1">
<title>OpenSCAD Model</title>
<path d="
M -13.5,-358.007 L -13.1448,-357.577 L -12.6871,-357.147 L -12.1791,-356.778 L -11.6289,-356.476 L -11.0451,-356.245
 L -10.4369,-356.089 L -9.81395,-356.01 L 9.81395,-356.01 L 10.4369,-356.089 L 11.0451,-356.245 L 11.6289,-356.476
 L 12.1791,-356.778 L 12.6871,-357.147 L 13.1448,-357.577 L 13.5451,-358.061 L 13.8815,-358.591 L 14.1489,-359.159
 L 14.3429,-359.757 L 14.4606,-360.373 L 14.5,-361 L 14.5,-395 L 14.4606,-395.627 L 14.3429,-396.243
 L 14.1489,-396.841 L 13.8815,-397.409 L 13.5451,-397.939 L 13.1448,-398.423 L 12.6871,-398.853 L 12.1791,-399.222
 L 11.6289,-399.524 L 11.0451,-399.755 L 10.4369,-399.911 L 9.81395,-399.99 L -9.81395,-399.99 L -10.4369,-399.911
 L -11.0451,-399.755 L -11.6289,-399.524 L -12.1791,-399.222 L -12.6871,-398.853 L -13.1448,-398.423 L -13.5,-397.993
 L -13.5,-400.49 L -16.5,-400.49 L -16.5,-355.51 L -13.5,-355.51 z
M -9.75116,-357.008 L -10.2495,-357.071 L -10.7361,-357.196 L -11.2031,-357.381 L -11.6433,-357.623 L -12.0497,-357.918
 L -12.4159,-358.262 L -12.7361,-358.649 L -13.0052,-359.073 L -13.2191,-359.528 L -13.3743,-360.005 L -13.4684,-360.499
 L -13.5,-361 L -13.5,-395 L -13.4684,-395.501 L -13.3743,-395.995 L -13.2191,-396.472 L -13.0052,-396.927
 L -12.7361,-397.351 L -12.4159,-397.738 L -12.0497,-398.082 L -11.6433,-398.377 L -11.2031,-398.619 L -10.7361,-398.804
 L -10.2495,-398.929 L -9.75116,-398.992 L 9.75116,-398.992 L 10.2495,-398.929 L 10.7361,-398.804 L 11.2031,-398.619
 L 11.6433,-398.377 L 12.0497,-398.082 L 12.4159,-397.738 L 12.7361,-397.351 L 13.0052,-396.927 L 13.2191,-396.472
 L 13.3743,-395.995 L 13.4684,-395.501 L 13.5,-395 L 13.5,-361 L 13.4684,-360.499 L 13.3743,-360.005
 L 13.2191,-359.528 L 13.0052,-359.073 L 12.7361,-358.649 L 12.4159,-358.262 L 12.0497,-357.918 L 11.6433,-357.623
 L 11.2031,-357.381 L 10.7361,-357.196 L 10.2495,-357.071 L 9.75116,-357.008 z
M -13.5,-304.007 L -13.1448,-303.577 L -12.6871,-303.147 L -12.1791,-302.778 L -11.6289,-302.476 L -11.0451,-302.245
 L -10.4369,-302.089 L -9.81395,-302.01 L 9.81395,-302.01 L 10.4369,-302.089 L 11.0451,-302.245 L 11.6289,-302.476
 L 12.1791,-302.778 L 12.6871,-303.147 L 13.1448,-303.577 L 13.5451,-304.061 L 13.8815,-304.591 L 14.1489,-305.159
 L 14.3429,-305.757 L 14.4606,-306.373 L 14.5,-307 L 14.5,-341 L 14.4606,-341.627 L 14.3429,-342.243
 L 14.1489,-342.841 L 13.8815,-343.409 L 13.5451,-343.939 L 13.1448,-344.423 L 12.6871,-344.853 L 12.1791,-345.222
 L 11.6289,-345.524 L 11.0451,-345.755 L 10.4369,-345.911 L 9.81395,-345.99 L -9.81395,-345.99 L -10.4369,-345.911
 L -11.0451,-345.755 L -11.6289,-345.524 L -12.1791,-345.222 L -12.6871,-344.853 L -13.1448,-344.423 L -13.5,-343.993
 L -13.5,-346.49 L -16.5,-346.49 L -16.5,-301.51 L -13.5,-301.51 z
M -9.75116,-303.008 L -10.2495,-303.071 L -10.7361,-303.196 L -11.2031,-303.381 L -11.6433,-303.623 L -12.0497,-303.918
 L -12.4159,-304.262 L -12.7361,-304.649 L -13.0052,-305.073 L -13.2191,-305.528 L -13.3743,-306.005 L -13.4684,-306.499
 L -13.5,-307 L -13.5,-341 L -13.4684,-341.501 L -13.3743,-341.995 L -13.2191,-342.472 L -13.0052,-342.927
 L -12.7361,-343.351 L -12.4159,-343.738 L -12.0497,-344.082 L -11.6433,-344.377 L -11.2031,-344.619 L -10.7361,-344.804
 L -10.2495,-344.929 L -9.75116,-344.992 L 9.75116,-344.992 L 10.2495,-344.929 L 10.7361,-344.804 L 11.2031,-344.619
 L 11.6433,-344.377 L 12.0497,-344.082 L 12.4159,-343.738 L 12.7361,-343.351 L 13.0052,-342.927 L 13.2191,-342.472
 L 13.3743,-341.995 L 13.4684,-341.501 L 13.5,-341 L 13.5,-307 L 13.4684,-306.499 L 13.3743,-306.005
 L 13.2191,-305.528 L 13.0052,-305.073 L 12.7361,-304.649 L 12.4159,-304.262 L 12.0497,-303.918 L 11.6433,-303.623
 L 11.2031,-303.381 L 10.7361,-303.196 L 10.2495,-303.071 L 9.75116,-303.008 z
M -13.5,-250.007 L -13.1448,-249.577 L -12.6871,-249.147 L -12.1791,-248.778 L -11.6289,-248.476 L -11.0451,-248.245
 L -10.4369,-248.089 L -9.81395,-248.01 L 9.81395,-248.01 L 10.4369,-248.089 L 11.0451,-248.245 L 11.6289,-248.476
 L 12.1791,-248.778 L 12.6871,-249.147 L 13.1448,-249.577 L 13.5451,-250.061 L 13.8815,-250.591 L 14.1489,-251.159
 L 14.3429,-251.757 L 14.4606,-252.373 L 14.5,-253 L 14.5,-287 L 14.4606,-287.627 L 14.3429,-288.243
 L 14.1489,-288.841 L 13.8815,-289.409 L 13.5451,-289.939 L 13.1448,-290.423 L 12.6871,-290.853 L 12.1791,-291.222
 L 11.6289,-291.524 L 11.0451,-291.755 L 10.4369,-291.911 L 9.81395,-291.99 L -9.81395,-291.99 L -10.4369,-291.911
 L -11.0451,-291.755 L -11.6289,-291.524 L -12.1791,-291.222 L -12.6871,-290.853 L -13.1448,-290.423 L -13.5,-289.993
 L -13.5,-292.479 L -16.5,-292.479 L -16.5,-247.521 L -13.5,-247.521 z
M -9.69545,-249.893 L -10.0833,-249.942 L -10.4619,-250.039 L -10.8254,-250.183 L -11.168,-250.372 L -11.4842,-250.601
 L -11.7692,-250.869 L -12.0184,-251.17 L -12.2279,-251.5 L -12.3943,-251.854 L -12.5151,-252.226 L -12.5884,-252.61
 L -12.6129,-253 L -12.6129,-287 L -12.5884,-287.39 L -12.5151,-287.774 L -12.3943,-288.146 L -12.2279,-288.5
 L -12.0184,-288.83 L -11.7692,-289.131 L -11.4842,-289.399 L -11.168,-289.628 L -10.8254,-289.817 L -10.4619,-289.961
 L -10.0833,-290.058 L -9.69545,-290.107 L 9.69545,-290.107 L 10.0833,-290.058 L 10.4619,-289.961 L 10.8254,-289.817
 L 11.168,-289.628 L 11.4842,-289.399 L 11.7692,-289.131 L 12.0184,-288.83 L 12.2279,-288.5 L 12.3943,-288.146
 L 12.5151,-287.774 L 12.5884,-287.39 L 12.6129,-287 L 12.6129,-253 L 12.5884,-252.61 L 12.5151,-252.226
 L 12.3943,-251.854 L 12.2279,-251.5 L 12.0184,-251.17 L 11.7692,-250.869 L 11.4842,-250.601 L 11.168,-250.372
 L 10.8254,-250.183 L 10.4619,-250.039 L 10.0833,-249.942 L 9.69545,-249.893 z
M 10.4369,-194.089 L 11.0451,-194.245 L 11.6289,-194.476 L 12.1791,-194.778 L 12.6871,-195.147 L 13.1448,-195.577
 L 13.5451,-196.061 L 13.8815,-196.591 L 14.1489,-197.159 L 14.3429,-197.757 L 14.4606,-198.373 L 14.5,-199
 L 14.5,-233 L 14.4606,-233.627 L 14.3429,-234.243 L 14.1489,-234.841 L 13.8815,-235.409 L 13.5451,-235.939
 L 13.1448,-236.423 L 12.6871,-236.853 L 12.1791,-237.222 L 11.6289,-237.524 L 11.0451,-237.755 L 10.4369,-237.911
 L 9.81395,-237.99 L -9.81395,-237.99 L -10.4369,-237.911 L -11.0451,-237.755 L -11.6289,-237.524 L -12.1791,-237.222
 L -12.6871,-236.853 L -13.1448,-236.423 L -13.5,-235.993 L -13.5,-237.153 L -16.5,-237.153 L -16.5,-194.847
 L -13.5,-194.847 L -13.5,-196.007 L -13.1448,-195.577 L -12.6871,-195.147 L -12.1791,-194.778 L -11.6289,-194.476
 L -11.0451,-194.245 L -10.4369,-194.089 L -9.81395,-194.01 L 9.81395,-194.01 z
M 7.34929,-228.605 L 7.05028,-228.643 L 6.75835,-228.717 L 6.47812,-228.828 L 6.214,-228.974 L 5.97017,-229.151
 L 5.75047,-229.357 L 5.55835,-229.589 L 5.39685,-229.844 L 5.26852,-230.117 L 5.1754,-230.403 L 5.11891,-230.699
 L 5.09999,-231 L 5.11891,-231.301 L 5.1754,-231.597 L 5.26852,-231.883 L 5.39685,-232.156 L 5.55835,-232.411
 L 5.75047,-232.643 L 5.97017,-232.849 L 6.214,-233.026 L 6.47812,-233.172 L 6.75835,-233.283 L 7.05028,-233.357
 L 7.34929,-233.395 L 7.6507,-233.395 L 7.94971,-233.357 L 8.24164,-233.283 L 8.52187,-233.172 L 8.78598,-233.026
 L 9.02982,-232.849 L 9.24951,-232.643 L 9.44164,-232.411 L 9.60313,-232.156 L 9.73146,-231.883 L 9.82458,-231.597
 L 9.88107,-231.301 L 9.89999,-231 L 9.88107,-230.699 L 9.82458,-230.403 L 9.73146,-230.117 L 9.60313,-229.844
 L 9.44164,-229.589 L 9.24951,-229.357 L 9.02982,-229.151 L 8.78598,-228.974 L 8.52187,-228.828 L 8.24164,-228.717
 L 7.94971,-228.643 L 7.6507,-228.605 z
M -7.6507,-228.605 L -7.94971,-228.643 L -8.24164,-228.717 L -8.52187,-228.828 L -8.78598,-228.974 L -9.02982,-229.151
 L -9.24951,-229.357 L -9.44164,-229.589 L -9.60313,-229.844 L -9.73146,-230.117 L -9.82458,-230.403 L -9.88107,-230.699
 L -9.89999,-231 L -9.88107,-231.301 L -9.82458,-231.597 L -9.73146,-231.883 L -9.60313,-232.156 L -9.44164,-232.411
 L -9.24951,-232.643 L -9.02982,-232.849 L -8.78598,-233.026 L -8.52187,-233.172 L -8.24164,-233.283 L -7.94971,-233.357
 L -7.6507,-233.395 L -7.34929,-233.395 L -7.05028,-233.357 L -6.75835,-233.283 L -6.47812,-233.172 L -6.214,-233.026
 L -5.97017,-232.849 L -5.75047,-232.643 L -5.55835,-232.411 L -5.39685,-232.156 L -5.26852,-231.883 L -5.1754,-231.597
 L -5.11891,-231.301 L -5.09999,-231 L -5.11891,-230.699 L -5.1754,-230.403 L -5.26852,-230.117 L -5.39685,-229.844
 L -5.55835,-229.589 L -5.75047,-229.357 L -5.97017,-229.151 L -6.214,-228.974 L -6.47812,-228.828 L -6.75835,-228.717
 L -7.05028,-228.643 L -7.34929,-228.605 z
M -7.6507,-198.605 L -7.94971,-198.643 L -8.24164,-198.717 L -8.52187,-198.828 L -8.78598,-198.974 L -9.02982,-199.151
 L -9.24951,-199.357 L -9.44164,-199.589 L -9.60313,-199.844 L -9.73146,-200.117 L -9.82458,-200.403 L -9.88107,-200.699
 L -9.89999,-201 L -9.88107,-201.301 L -9.82458,-201.597 L -9.73146,-201.883 L -9.60313,-202.156 L -9.44164,-202.411
 L -9.24951,-202.643 L -9.02982,-202.849 L -8.78598,-203.026 L -8.52187,-203.172 L -8.24164,-203.283 L -7.94971,-203.357
 L -7.6507,-203.395 L -7.34929,-203.395 L -7.05028,-203.357 L -6.75835,-203.283 L -6.47812,-203.172 L -6.214,-203.026
 L -5.97017,-202.849 L -5.75047,-202.643 L -5.55835,-202.411 L -5.39685,-202.156 L -5.26852,-201.883 L -5.1754,-201.597
 L -5.11891,-201.301 L -5.09999,-201 L -5.11891,-200.699 L -5.1754,-200.403 L -5.26852,-200.117 L -5.39685,-199.844
 L -5.55835,-199.589 L -5.75047,-199.357 L -5.97017,-199.151 L -6.214,-198.974 L -6.47812,-198.828 L -6.75835,-198.717
 L -7.05028,-198.643 L -7.34929,-198.605 z
M 7.34929,-198.605 L 7.05028,-198.643 L 6.75835,-198.717 L 6.47812,-198.828 L 6.214,-198.974 L 5.97017,-199.151
 L 5.75047,-199.357 L 5.55835,-199.589 L 5.39685,-199.844 L 5.26852,-200.117 L 5.1754,-200.403 L 5.11891,-200.699
 L 5.09999,-201 L 5.11891,-201.301 L 5.1754,-201.597 L 5.26852,-201.883 L 5.39685,-202.156 L 5.55835,-202.411
 L 5.75047,-202.643 L 5.97017,-202.849 L 6.214,-203.026 L 6.47812,-203.172 L 6.75835,-203.283 L 7.05028,-203.357
 L 7.34929,-203.395 L 7.6507,-203.395 L 7.94971,-203.357 L 8.24164,-203.283 L 8.52187,-203.172 L 8.78598,-203.026
 L 9.02982,-202.849 L 9.24951,-202.643 L 9.44164,-202.411 L 9.60313,-202.156 L 9.73146,-201.883 L 9.82458,-201.597
 L 9.88107,-201.301 L 9.89999,-201 L 9.88107,-200.699 L 9.82458,-200.403 L 9.73146,-200.117 L 9.60313,-199.844
 L 9.44164,-199.589 L 9.24951,-199.357 L 9.02982,-199.151 L 8.78598,-198.974 L 8.52187,-198.828 L 8.24164,-198.717
 L 7.94971,-198.643 L 7.6507,-198.605 z
" stroke="black" fill="lightgray" stroke-width="0.5"/>
</svg>
