<?xml version="1.0" standalone="no"?>
<!DOCTYPE svg PUBLIC "-//W3C//DTD SVG 1.1//EN" "http://www.w3.org/Graphics/SVG/1.1/DTD/svg11.dtd">
<svg width="30mm" height="262mm" viewBox="-15 -509 30 262" xmlns="http://www.w3.org/2000/svg" version="1.1">
<title>OpenSCAD Model</title>
<path d="
M 10.9369,-463.589 L 11.5451,-463.745 L 12.1289,-463.976 L 12.6791,-464.278 L 13.1871,-464.647 L 13.6448,-465.077
 L 14.0451,-465.561 L 14.3815,-466.091 L 14.6489,-466.659 L 14.8429,-467.257 L 14.9606,-467.873 L 15,-468.5
 L 15,-503.5 L 14.9606,-504.127 L 14.8429,-504.743 L 14.6489,-505.341 L 14.3815,-505.909 L 14.0451,-506.439
 L 13.6448,-506.923 L 13.1871,-507.353 L 12.6791,-507.722 L 12.1289,-508.024 L 11.5451,-508.255 L 10.9369,-508.411
 L 10.3139,-508.49 L -10.3139,-508.49 L -10.9369,-508.411 L -11.5451,-508.255 L -12.1289,-508.024 L -12.6791,-507.722
 L -13.1871,-507.353 L -13.6448,-506.923 L -14.0451,-506.439 L -14.3815,-505.909 L -14.6489,-505.341 L -14.8429,-504.743
 L -14.9606,-504.127 L -15,-503.5 L -15,-468.5 L -14.9606,-467.873 L -14.8429,-467.257 L -14.6489,-466.659
 L -14.3815,-466.091 L -14.0451,-465.561 L -13.6448,-465.077 L -13.1871,-464.647 L -12.6791,-464.278 L -12.1289,-463.976
 L -11.5451,-463.745 L -10.9369,-463.589 L -10.3139,-463.51 L 10.3139,-463.51 z
M -10.0482,-464.009 L -10.6401,-464.084 L -11.2178,-464.232 L -11.7724,-464.452 L -12.2952,-464.739 L -12.7778,-465.09
 L -13.2126,-465.498 L -13.5928,-465.958 L -13.9124,-466.462 L -14.1664,-467.001 L -14.3508,-467.569 L -14.4625,-468.155
 L -14.5,-468.75 L -14.5,-503.25 L -14.4625,-503.845 L -14.3508,-504.431 L -14.1664,-504.999 L -13.9124,-505.538
 L -13.5928,-506.042 L -13.2126,-506.502 L -12.7778,-506.91 L -12.2952,-507.261 L -11.7724,-507.548 L -11.2178,-507.768
 L -10.6401,-507.916 L -10.0482,-507.991 L 10.0482,-507.991 L 10.6401,-507.916 L 11.2178,-507.768 L 11.7724,-507.548
 L 12.2952,-507.261 L 12.7778,-506.91 L 13.2126,-506.502 L 13.5928,-506.042 L 13.9124,-505.538 L 14.1664,-504.999
 L 14.3508,-504.431 L 14.4625,-503.845 L 14.5,-503.25 L 14.5,-468.75 L 14.4625,-468.155 L 14.3508,-467.569
 L 14.1664,-467.001 L 13.9124,-466.462 L 13.5928,-465.958 L 13.2126,-465.498 L 12.7778,-465.09 L 12.2952,-464.739
 L 11.7724,-464.452 L 11.2178,-464.232 L 10.6401,-464.084 L 10.0482,-464.009 z
M 10.9369,-409.589 L 11.5451,-409.745 L 12.1289,-409.976 L 12.6791,-410.278 L 13.1871,-410.647 L 13.6448,-411.077
 L 14.0451,-411.561 L 14.3815,-412.091 L 14.6489,-412.659 L 14.8429,-413.257 L 14.9606,-413.873 L 15,-414.5
 L 15,-449.5 L 14.9606,-450.127 L 14.8429,-450.743 L 14.6489,-451.341 L 14.3815,-451.909 L 14.0451,-452.439
 L 13.6448,-452.923 L 13.1871,-453.353 L 12.6791,-453.722 L 12.1289,-454.024 L 11.5451,-454.255 L 10.9369,-454.411
 L 10.3139,-454.49 L -10.3139,-454.49 L -10.9369,-454.411 L -11.5451,-454.255 L -12.1289,-454.024 L -12.6791,-453.722
 L -13.1871,-453.353 L -13.6448,-452.923 L -14.0451,-452.439 L -14.3815,-451.909 L -14.6489,-451.341 L -14.8429,-450.743
 L -14.9606,-450.127 L -15,-449.5 L -15,-414.5 L -14.9606,-413.873 L -14.8429,-413.257 L -14.6489,-412.659
 L -14.3815,-412.091 L -14.0451,-411.561 L -13.6448,-411.077 L -13.1871,-410.647 L -12.6791,-410.278 L -12.1289,-409.976
 L -11.5451,-409.745 L -10.9369,-409.589 L -10.3139,-409.51 L 10.3139,-409.51 z
M -10.0482,-410.009 L -10.6401,-410.084 L -11.2178,-410.232 L -11.7724,-410.452 L -12.2952,-410.739 L -12.7778,-411.09
 L -13.2126,-411.498 L -13.5928,-411.958 L -13.9124,-412.462 L -14.1664,-413.001 L -14.3508,-413.569 L -14.4625,-414.155
 L -14.5,-414.75 L -14.5,-449.25 L -14.4625,-449.845 L -14.3508,-450.431 L -14.1664,-450.999 L -13.9124,-451.538
 L -13.5928,-452.042 L -13.2126,-452.502 L -12.7778,-452.91 L -12.2952,-453.261 L -11.7724,-453.548 L -11.2178,-453.768
 L -10.6401,-453.916 L -10.0482,-453.991 L 10.0482,-453.991 L 10.6401,-453.916 L 11.2178,-453.768 L 11.7724,-453.548
 L 12.2952,-453.261 L 12.7778,-452.91 L 13.2126,-452.502 L 13.5928,-452.042 L 13.9124,-451.538 L 14.1664,-450.999
 L 14.3508,-450.431 L 14.4625,-449.845 L 14.5,-449.25 L 14.5,-414.75 L 14.4625,-414.155 L 14.3508,-413.569
 L 14.1664,-413.001 L 13.9124,-412.462 L 13.5928,-411.958 L 13.2126,-411.498 L 12.7778,-411.09 L 12.2952,-410.739
 L 11.7724,-410.452 L 11.2178,-410.232 L 10.6401,-410.084 L 10.0482,-410.009 z
M 10.9369,-355.589 L 11.5451,-355.745 L 12.1289,-355.976 L 12.6791,-356.278 L 13.1871,-356.647 L 13.6448,-357.077
 L 14.0451,-357.561 L 14.3815,-358.091 L 14.6489,-358.659 L 14.8429,-359.257 L 14.9606,-359.873 L 15,-360.5
 L 15,-395.5 L 14.9606,-396.127 L 14.8429,-396.743 L 14.6489,-397.341 L 14.3815,-397.909 L 14.0451,-398.439
 L 13.6448,-398.923 L 13.1871,-399.353 L 12.6791,-399.722 L 12.1289,-400.024 L 11.5451,-400.255 L 10.9369,-400.411
 L 10.3139,-400.49 L -10.3139,-400.49 L -10.9369,-400.411 L -11.5451,-400.255 L -12.1289,-400.024 L -12.6791,-399.722
 L -13.1871,-399.353 L -13.6448,-398.923 L -14.0451,-398.439 L -14.3815,-397.909 L -14.6489,-397.341 L -14.8429,-396.743
 L -14.9606,-396.127 L -15,-395.5 L -15,-360.5 L -14.9606,-359.873 L -14.8429,-359.257 L -14.6489,-358.659
 L -14.3815,-358.091 L -14.0451,-357.561 L -13.6448,-357.077 L -13.1871,-356.647 L -12.6791,-356.278 L -12.1289,-355.976
 L -11.5451,-355.745 L -10.9369,-355.589 L -10.3139,-355.51 L 10.3139,-355.51 z
M -10.0482,-356.009 L -10.6401,-356.084 L -11.2178,-356.232 L -11.7724,-356.452 L -12.2952,-356.739 L -12.7778,-357.09
 L -13.2126,-357.498 L -13.5928,-357.958 L -13.9124,-358.462 L -14.1664,-359.001 L -14.3508,-359.569 L -14.4625,-360.155
 L -14.5,-360.75 L -14.5,-395.25 L -14.4625,-395.845 L -14.3508,-396.431 L -14.1664,-396.999 L -13.9124,-397.538
 L -13.5928,-398.042 L -13.2126,-398.502 L -12.7778,-398.91 L -12.2952,-399.261 L -11.7724,-399.548 L -11.2178,-399.768
 L -10.6401,-399.916 L -10.0482,-399.991 L 10.0482,-399.991 L 10.6401,-399.916 L 11.2178,-399.768 L 11.7724,-399.548
 L 12.2952,-399.261 L 12.7778,-398.91 L 13.2126,-398.502 L 13.5928,-398.042 L 13.9124,-397.538 L 14.1664,-396.999
 L 14.3508,-396.431 L 14.4625,-395.845 L 14.5,-395.25 L 14.5,-360.75 L 14.4625,-360.155 L 14.3508,-359.569
 L 14.1664,-359.001 L 13.9124,-358.462 L 13.5928,-357.958 L 13.2126,-357.498 L 12.7778,-357.09 L 12.2952,-356.739
 L 11.7724,-356.452 L 11.2178,-356.232 L 10.6401,-356.084 L 10.0482,-356.009 z
M 10.9369,-301.589 L 11.5451,-301.745 L 12.1289,-301.976 L 12.6791,-302.278 L 13.1871,-302.647 L 13.6448,-303.077
 L 14.0451,-303.561 L 14.3815,-304.091 L 14.6489,-304.659 L 14.8429,-305.257 L 14.9606,-305.873 L 15,-306.5
 L 15,-341.5 L 14.9606,-342.127 L 14.8429,-342.743 L 14.6489,-343.341 L 14.3815,-343.909 L 14.0451,-344.439
 L 13.6448,-344.923 L 13.1871,-345.353 L 12.6791,-345.722 L 12.1289,-346.024 L 11.5451,-346.255 L 10.9369,-346.411
 L 10.3139,-346.49 L -10.3139,-346.49 L -10.9369,-346.411 L -11.5451,-346.255 L -12.1289,-346.024 L -12.6791,-345.722
 L -13.1871,-345.353 L -13.6448,-344.923 L -14.0451,-344.439 L -14.3815,-343.909 L -14.6489,-343.341 L -14.8429,-342.743
 L -14.9606,-342.127 L -15,-341.5 L -15,-306.5 L -14.9606,-305.873 L -14.8429,-305.257 L -14.6489,-304.659
 L -14.3815,-304.091 L -14.0451,-303.561 L -13.6448,-303.077 L -13.1871,-302.647 L -12.6791,-302.278 L -12.1289,-301.976
 L -11.5451,-301.745 L -10.9369,-301.589 L -10.3139,-301.51 L 10.3139,-301.51 z
M -10.0375,-302.181 L -10.6079,-302.253 L -11.1648,-302.396 L -11.6994,-302.607 L -12.2032,-302.884 L -12.6684,-303.222
 L -13.0875,-303.616 L -13.454,-304.059 L -13.7621,-304.544 L -14.0069,-305.065 L -14.1846,-305.611 L -14.2923,-306.176
 L -14.3284,-306.75 L -14.3284,-341.25 L -14.2923,-341.824 L -14.1846,-342.389 L -14.0069,-342.935 L -13.7621,-343.456
 L -13.454,-343.941 L -13.0875,-344.384 L -12.6684,-344.778 L -12.2032,-345.116 L -11.6994,-345.393 L -11.1648,-345.604
 L -10.6079,-345.747 L -10.0375,-345.819 L 10.0375,-345.819 L 10.6079,-345.747 L 11.1648,-345.604 L 11.6994,-345.393
 L 12.2032,-345.116 L 12.6684,-344.778 L 13.0875,-344.384 L 13.454,-343.941 L 13.7621,-343.456 L 14.0069,-342.935
 L 14.1846,-342.389 L 14.2923,-341.824 L 14.3284,-341.25 L 14.3284,-306.75 L 14.2923,-306.176 L 14.1846,-305.611
 L 14.0069,-305.065 L 13.7621,-304.544 L 13.454,-304.059 L 13.0875,-303.616 L 12.6684,-303.222 L 12.2032,-302.884
 L 11.6994,-302.607 L 11.1648,-302.396 L 10.6079,-302.253 L 10.0375,-302.181 z
M 10.9369,-247.589 L 11.5451,-247.745 L 12.1289,-247.976 L 12.6791,-248.278 L 13.1871,-248.647 L 13.6448,-249.077
 L 14.0451,-249.561 L 14.3815,-250.091 L 14.6489,-250.659 L 14.8429,-251.257 L 14.9606,-251.873 L 15,-252.5
 L 15,-287.5 L 14.9606,-288.127 L 14.8429,-288.743 L 14.6489,-289.341 L 14.3815,-289.909 L 14.0451,-290.439
 L 13.6448,-290.923 L 13.1871,-291.353 L 12.6791,-291.722 L 12.1289,-292.024 L 11.5451,-292.255 L 10.9369,-292.411
 L 10.3139,-292.49 L -10.3139,-292.49 L -10.9369,-292.411 L -11.5451,-292.255 L -12.1289,-292.024 L -12.6791,-291.722
 L -13.1871,-291.353 L -13.6448,-290.923 L -14.0451,-290.439 L -14.3815,-289.909 L -14.6489,-289.341 L -14.8429,-288.743
 L -14.9606,-288.127 L -15,-287.5 L -15,-252.5 L -14.9606,-251.873 L -14.8429,-251.257 L -14.6489,-250.659
 L -14.3815,-250.091 L -14.0451,-249.561 L -13.6448,-249.077 L -13.1871,-248.647 L -12.6791,-248.278 L -12.1289,-247.976
 L -11.5451,-247.745 L -10.9369,-247.589 L -10.3139,-247.51 L 10.3139,-247.51 z
M -9.88246,-250.645 L -10.1453,-250.678 L -10.4019,-250.744 L -10.6482,-250.841 L -10.8804,-250.969 L -11.0947,-251.125
 L -11.2878,-251.306 L -11.4567,-251.51 L -11.5987,-251.734 L -11.7115,-251.973 L -11.7934,-252.225 L -11.843,-252.486
 L -11.8596,-252.75 L -11.8596,-287.25 L -11.843,-287.514 L -11.7934,-287.775 L -11.7115,-288.027 L -11.5987,-288.266
 L -11.4567,-288.49 L -11.2878,-288.694 L -11.0947,-288.875 L -10.8804,-289.031 L -10.6482,-289.159 L -10.4019,-289.256
 L -10.1453,-289.322 L -9.88246,-289.355 L 9.88246,-289.355 L 10.1453,-289.322 L 10.4019,-289.256 L 10.6482,-289.159
 L 10.8804,-289.031 L 11.0947,-288.875 L 11.2878,-288.694 L 11.4567,-288.49 L 11.5987,-288.266 L 11.7115,-288.027
 L 11.7934,-287.775 L 11.843,-287.514 L 11.8596,-287.25 L 11.8596,-252.75 L 11.843,-252.486 L 11.7934,-252.225
 L 11.7115,-251.973 L 11.5987,-251.734 L 11.4567,-251.51 L 11.2878,-251.306 L 11.0947,-251.125 L 10.8804,-250.969
 L 10.6482,-250.841 L 10.4019,-250.744 L 10.1453,-250.678 L 9.88246,-250.645 z
" stroke="black" fill="lightgray" stroke-width="0.5"/>
</svg>
