solid OpenSCAD_Model
  facet normal -1 0 0
    outer loop
      vertex -22 -17 0
      vertex -22 17 1
      vertex -22 17 0
    endloop
  endfacet
  facet normal -1 -0 0
    outer loop
      vertex -22 17 1
      vertex -22 -17 0
      vertex -22 -17 1
    endloop
  endfacet
  facet normal -0.99803 -0.0627451 0
    outer loop
      vertex -21.9606 -17.6267 0
      vertex -22 -17 1
      vertex -22 -17 0
    endloop
  endfacet
  facet normal -0.99803 -0.0627451 0
    outer loop
      vertex -22 -17 1
      vertex -21.9606 -17.6267 0
      vertex -21.9606 -17.6267 1
    endloop
  endfacet
  facet normal -0.99803 0.0627451 0
    outer loop
      vertex -22 17 0
      vertex -21.9606 17.6267 1
      vertex -21.9606 17.6267 0
    endloop
  endfacet
  facet normal -0.99803 0.0627451 0
    outer loop
      vertex -21.9606 17.6267 1
      vertex -22 17 0
      vertex -22 17 1
    endloop
  endfacet
  facet normal -0 0 1
    outer loop
      vertex 21.25 15.25 1
      vertex 22 4.99013 1
      vertex 22 17 1
    endloop
  endfacet
  facet normal 0 0 1
    outer loop
      vertex 22 4.99013 1
      vertex 21.25 15.25 1
      vertex 22 -4.99013 1
    endloop
  endfacet
  facet normal -0 0 1
    outer loop
      vertex 20.8287 17.4587 1
      vertex 22 17 1
      vertex 21.9606 17.6267 1
    endloop
  endfacet
  facet normal 0 0 1
    outer loop
      vertex 21.25 -15.25 1
      vertex 22 -4.99013 1
      vertex 21.25 15.25 1
    endloop
  endfacet
  facet normal 0 0 1
    outer loop
      vertex 20.8287 17.4587 1
      vertex 21.9606 17.6267 1
      vertex 21.8429 18.2435 1
    endloop
  endfacet
  facet normal 0 0 1
    outer loop
      vertex 22 -4.99013 1
      vertex 21.25 -15.25 1
      vertex 22 -17 1
    endloop
  endfacet
  facet normal 0 0 1
    outer loop
      vertex 20.5078 18.1405 1
      vertex 21.8429 18.2435 1
      vertex 21.6489 18.8406 1
    endloop
  endfacet
  facet normal -0 0 1
    outer loop
      vertex 21.2027 -16.002 1
      vertex 22 -17 1
      vertex 21.25 -15.25 1
    endloop
  endfacet
  facet normal 0 0 1
    outer loop
      vertex 20.5078 18.1405 1
      vertex 21.6489 18.8406 1
      vertex 21.3815 19.4088 1
    endloop
  endfacet
  facet normal -0 0 1
    outer loop
      vertex 21.0615 -16.7421 1
      vertex 22 -17 1
      vertex 21.2027 -16.002 1
    endloop
  endfacet
  facet normal 0 0 1
    outer loop
      vertex 20.8287 -17.4587 1
      vertex 22 -17 1
      vertex 21.0615 -16.7421 1
    endloop
  endfacet
  facet normal 0 0 1
    outer loop
      vertex 22 17 1
      vertex 21.2027 16.002 1
      vertex 21.25 15.25 1
    endloop
  endfacet
  facet normal 0 0 1
    outer loop
      vertex 22 17 1
      vertex 21.0615 16.7421 1
      vertex 21.2027 16.002 1
    endloop
  endfacet
  facet normal 0 0 1
    outer loop
      vertex 20.1041 18.7767 1
      vertex 21.3815 19.4088 1
      vertex 21.0451 19.9389 1
    endloop
  endfacet
  facet normal 0 0 1
    outer loop
      vertex 22 17 1
      vertex 20.8287 17.4587 1
      vertex 21.0615 16.7421 1
    endloop
  endfacet
  facet normal 0 0 1
    outer loop
      vertex 19.6238 19.3573 1
      vertex 21.0451 19.9389 1
      vertex 20.6448 20.4227 1
    endloop
  endfacet
  facet normal 0 0 1
    outer loop
      vertex 21.8429 18.2435 1
      vertex 20.5078 18.1405 1
      vertex 20.8287 17.4587 1
    endloop
  endfacet
  facet normal 0 0 1
    outer loop
      vertex 19.6238 19.3573 1
      vertex 20.6448 20.4227 1
      vertex 20.1871 20.8526 1
    endloop
  endfacet
  facet normal 0 0 1
    outer loop
      vertex 21.3815 19.4088 1
      vertex 20.1041 18.7767 1
      vertex 20.5078 18.1405 1
    endloop
  endfacet
  facet normal 0 0 1
    outer loop
      vertex 19.0745 19.8731 1
      vertex 20.1871 20.8526 1
      vertex 19.6791 21.2216 1
    endloop
  endfacet
  facet normal 0 0 1
    outer loop
      vertex 21.0451 19.9389 1
      vertex 19.6238 19.3573 1
      vertex 20.1041 18.7767 1
    endloop
  endfacet
  facet normal 0 0 1
    outer loop
      vertex 18.465 20.316 1
      vertex 19.6791 21.2216 1
      vertex 19.1289 21.5241 1
    endloop
  endfacet
  facet normal 0 0 1
    outer loop
      vertex 20.1871 20.8526 1
      vertex 19.0745 19.8731 1
      vertex 19.6238 19.3573 1
    endloop
  endfacet
  facet normal 0 0 1
    outer loop
      vertex 18.465 20.316 1
      vertex 19.1289 21.5241 1
      vertex 18.5451 21.7553 1
    endloop
  endfacet
  facet normal 0 0 1
    outer loop
      vertex 19.6791 21.2216 1
      vertex 18.465 20.316 1
      vertex 19.0745 19.8731 1
    endloop
  endfacet
  facet normal 0 0 1
    outer loop
      vertex 17.8047 20.679 1
      vertex 18.5451 21.7553 1
      vertex 17.9369 21.9114 1
    endloop
  endfacet
  facet normal 0 0 1
    outer loop
      vertex 18.5451 21.7553 1
      vertex 17.8047 20.679 1
      vertex 18.465 20.316 1
    endloop
  endfacet
  facet normal 0 0 1
    outer loop
      vertex 17.1041 20.9563 1
      vertex 17.9369 21.9114 1
      vertex 17.314 21.9901 1
    endloop
  endfacet
  facet normal 0 0 1
    outer loop
      vertex 17.9369 21.9114 1
      vertex 17.1041 20.9563 1
      vertex 17.8047 20.679 1
    endloop
  endfacet
  facet normal 0 0 1
    outer loop
      vertex 17.314 21.9901 1
      vertex 16.3743 21.1437 1
      vertex 17.1041 20.9563 1
    endloop
  endfacet
  facet normal 0 0 1
    outer loop
      vertex 17.314 21.9901 1
      vertex 15.6267 21.2382 1
      vertex 16.3743 21.1437 1
    endloop
  endfacet
  facet normal 0 0 1
    outer loop
      vertex 17.314 21.9901 1
      vertex -15.6267 21.2382 1
      vertex 15.6267 21.2382 1
    endloop
  endfacet
  facet normal -0 0 1
    outer loop
      vertex -17.314 21.9901 1
      vertex -15.6267 21.2382 1
      vertex 17.314 21.9901 1
    endloop
  endfacet
  facet normal 0 0 1
    outer loop
      vertex -17.314 21.9901 1
      vertex -16.3743 21.1437 1
      vertex -15.6267 21.2382 1
    endloop
  endfacet
  facet normal 0 0 1
    outer loop
      vertex -17.314 21.9901 1
      vertex -17.1041 20.9563 1
      vertex -16.3743 21.1437 1
    endloop
  endfacet
  facet normal -0 0 1
    outer loop
      vertex -17.9369 21.9114 1
      vertex -17.1041 20.9563 1
      vertex -17.314 21.9901 1
    endloop
  endfacet
  facet normal 0 0 1
    outer loop
      vertex -17.1041 20.9563 1
      vertex -17.9369 21.9114 1
      vertex -17.8047 20.679 1
    endloop
  endfacet
  facet normal -0 0 1
    outer loop
      vertex -18.5451 21.7553 1
      vertex -17.8047 20.679 1
      vertex -17.9369 21.9114 1
    endloop
  endfacet
  facet normal 0 0 1
    outer loop
      vertex -17.8047 20.679 1
      vertex -18.5451 21.7553 1
      vertex -18.465 20.316 1
    endloop
  endfacet
  facet normal -0 0 1
    outer loop
      vertex -19.1289 21.5241 1
      vertex -18.465 20.316 1
      vertex -18.5451 21.7553 1
    endloop
  endfacet
  facet normal -0 0 1
    outer loop
      vertex -19.6791 21.2216 1
      vertex -18.465 20.316 1
      vertex -19.1289 21.5241 1
    endloop
  endfacet
  facet normal 0 0 1
    outer loop
      vertex -18.465 20.316 1
      vertex -19.6791 21.2216 1
      vertex -19.0745 19.8731 1
    endloop
  endfacet
  facet normal -0 0 1
    outer loop
      vertex -20.1871 20.8526 1
      vertex -19.0745 19.8731 1
      vertex -19.6791 21.2216 1
    endloop
  endfacet
  facet normal 0 0 1
    outer loop
      vertex -19.0745 19.8731 1
      vertex -20.1871 20.8526 1
      vertex -19.6238 19.3573 1
    endloop
  endfacet
  facet normal -0 0 1
    outer loop
      vertex -20.6448 20.4227 1
      vertex -19.6238 19.3573 1
      vertex -20.1871 20.8526 1
    endloop
  endfacet
  facet normal -0 0 1
    outer loop
      vertex -21.0451 19.9389 1
      vertex -19.6238 19.3573 1
      vertex -20.6448 20.4227 1
    endloop
  endfacet
  facet normal 0 0 1
    outer loop
      vertex -19.6238 19.3573 1
      vertex -21.0451 19.9389 1
      vertex -20.1041 18.7767 1
    endloop
  endfacet
  facet normal -0 0 1
    outer loop
      vertex -21.3815 19.4088 1
      vertex -20.1041 18.7767 1
      vertex -21.0451 19.9389 1
    endloop
  endfacet
  facet normal 0 0 1
    outer loop
      vertex -20.1041 18.7767 1
      vertex -21.3815 19.4088 1
      vertex -20.5078 18.1405 1
    endloop
  endfacet
  facet normal -0 0 1
    outer loop
      vertex -21.6489 18.8406 1
      vertex -20.5078 18.1405 1
      vertex -21.3815 19.4088 1
    endloop
  endfacet
  facet normal -0 0 1
    outer loop
      vertex -21.8429 18.2435 1
      vertex -20.5078 18.1405 1
      vertex -21.6489 18.8406 1
    endloop
  endfacet
  facet normal 0 0 1
    outer loop
      vertex -20.5078 18.1405 1
      vertex -21.8429 18.2435 1
      vertex -20.8287 17.4587 1
    endloop
  endfacet
  facet normal 0 0 1
    outer loop
      vertex -22 17 1
      vertex -20.8287 17.4587 1
      vertex -21.9606 17.6267 1
    endloop
  endfacet
  facet normal -0 0 1
    outer loop
      vertex -21.9606 17.6267 1
      vertex -20.8287 17.4587 1
      vertex -21.8429 18.2435 1
    endloop
  endfacet
  facet normal 0 0 1
    outer loop
      vertex 26.9606 0.626666 1
      vertex 26.9606 -0.626666 1
      vertex 27 0 1
    endloop
  endfacet
  facet normal 0 0 1
    outer loop
      vertex 26.8429 1.24345 1
      vertex 26.9606 -0.626666 1
      vertex 26.9606 0.626666 1
    endloop
  endfacet
  facet normal 0 0 1
    outer loop
      vertex 26.8429 1.24345 1
      vertex 26.8429 -1.24345 1
      vertex 26.9606 -0.626666 1
    endloop
  endfacet
  facet normal 0 0 1
    outer loop
      vertex 26.6489 1.84062 1
      vertex 26.8429 -1.24345 1
      vertex 26.8429 1.24345 1
    endloop
  endfacet
  facet normal 0 0 1
    outer loop
      vertex 26.6489 1.84062 1
      vertex 26.6489 -1.84062 1
      vertex 26.8429 -1.24345 1
    endloop
  endfacet
  facet normal 0 0 1
    outer loop
      vertex 26.3815 2.40877 1
      vertex 26.6489 -1.84062 1
      vertex 26.6489 1.84062 1
    endloop
  endfacet
  facet normal 0 0 1
    outer loop
      vertex 26.3815 2.40877 1
      vertex 26.3815 -2.40877 1
      vertex 26.6489 -1.84062 1
    endloop
  endfacet
  facet normal 0 0 1
    outer loop
      vertex 26.0451 2.93893 1
      vertex 26.3815 -2.40877 1
      vertex 26.3815 2.40877 1
    endloop
  endfacet
  facet normal 0 0 1
    outer loop
      vertex 26.0451 2.93893 1
      vertex 26.0451 -2.93893 1
      vertex 26.3815 -2.40877 1
    endloop
  endfacet
  facet normal 0 0 1
    outer loop
      vertex 25.6448 3.42274 1
      vertex 26.0451 -2.93893 1
      vertex 26.0451 2.93893 1
    endloop
  endfacet
  facet normal 0 0 1
    outer loop
      vertex 25.6448 3.42274 1
      vertex 25.6448 -3.42274 1
      vertex 26.0451 -2.93893 1
    endloop
  endfacet
  facet normal 0 0 1
    outer loop
      vertex 25.1871 3.85257 1
      vertex 25.6448 -3.42274 1
      vertex 25.6448 3.42274 1
    endloop
  endfacet
  facet normal 0 0 1
    outer loop
      vertex 25.1871 3.85257 1
      vertex 25.1871 -3.85257 1
      vertex 25.6448 -3.42274 1
    endloop
  endfacet
  facet normal 0 0 1
    outer loop
      vertex 24.6791 4.22164 1
      vertex 25.1871 -3.85257 1
      vertex 25.1871 3.85257 1
    endloop
  endfacet
  facet normal 0 0 1
    outer loop
      vertex 24.6791 4.22164 1
      vertex 24.6791 -4.22164 1
      vertex 25.1871 -3.85257 1
    endloop
  endfacet
  facet normal 0 0 1
    outer loop
      vertex 24.1289 4.52413 1
      vertex 24.6791 -4.22164 1
      vertex 24.6791 4.22164 1
    endloop
  endfacet
  facet normal 0 0 1
    outer loop
      vertex 24.1289 4.52413 1
      vertex 24.1289 -4.52413 1
      vertex 24.6791 -4.22164 1
    endloop
  endfacet
  facet normal 0 0 1
    outer loop
      vertex 23.5451 4.75528 1
      vertex 24.1289 -4.52413 1
      vertex 24.1289 4.52413 1
    endloop
  endfacet
  facet normal 0 0 1
    outer loop
      vertex 23.5451 4.75528 1
      vertex 23.5451 -4.75528 1
      vertex 24.1289 -4.52413 1
    endloop
  endfacet
  facet normal 0 0 1
    outer loop
      vertex 22 4.99013 1
      vertex 23.5451 4.75528 1
      vertex 22.9369 4.91144 1
    endloop
  endfacet
  facet normal 0 0 1
    outer loop
      vertex 23.5451 4.75528 1
      vertex 22 4.99013 1
      vertex 23.5451 -4.75528 1
    endloop
  endfacet
  facet normal -0 0 1
    outer loop
      vertex 22 4.99013 1
      vertex 22.9369 4.91144 1
      vertex 22.314 4.99013 1
    endloop
  endfacet
  facet normal 0 0 1
    outer loop
      vertex 22 -4.99013 1
      vertex 23.5451 -4.75528 1
      vertex 22 4.99013 1
    endloop
  endfacet
  facet normal 0 0 1
    outer loop
      vertex 23.5451 -4.75528 1
      vertex 22 -4.99013 1
      vertex 22.9369 -4.91144 1
    endloop
  endfacet
  facet normal 0 0 1
    outer loop
      vertex 22.9369 -4.91144 1
      vertex 22 -4.99013 1
      vertex 22.314 -4.99013 1
    endloop
  endfacet
  facet normal 0 0 1
    outer loop
      vertex 22 -17 1
      vertex 20.8287 -17.4587 1
      vertex 21.9606 -17.6267 1
    endloop
  endfacet
  facet normal 0 0 1
    outer loop
      vertex 21.9606 -17.6267 1
      vertex 20.8287 -17.4587 1
      vertex 21.8429 -18.2435 1
    endloop
  endfacet
  facet normal -0 0 1
    outer loop
      vertex 20.5078 -18.1405 1
      vertex 21.8429 -18.2435 1
      vertex 20.8287 -17.4587 1
    endloop
  endfacet
  facet normal 0 0 1
    outer loop
      vertex 21.8429 -18.2435 1
      vertex 20.5078 -18.1405 1
      vertex 21.6489 -18.8406 1
    endloop
  endfacet
  facet normal 0 0 1
    outer loop
      vertex 21.6489 -18.8406 1
      vertex 20.5078 -18.1405 1
      vertex 21.3815 -19.4088 1
    endloop
  endfacet
  facet normal -0 0 1
    outer loop
      vertex 20.1041 -18.7767 1
      vertex 21.3815 -19.4088 1
      vertex 20.5078 -18.1405 1
    endloop
  endfacet
  facet normal 0 0 1
    outer loop
      vertex 21.3815 -19.4088 1
      vertex 20.1041 -18.7767 1
      vertex 21.0451 -19.9389 1
    endloop
  endfacet
  facet normal -0 0 1
    outer loop
      vertex 19.6238 -19.3573 1
      vertex 21.0451 -19.9389 1
      vertex 20.1041 -18.7767 1
    endloop
  endfacet
  facet normal 0 0 1
    outer loop
      vertex 21.0451 -19.9389 1
      vertex 19.6238 -19.3573 1
      vertex 20.6448 -20.4227 1
    endloop
  endfacet
  facet normal 0 0 1
    outer loop
      vertex 20.6448 -20.4227 1
      vertex 19.6238 -19.3573 1
      vertex 20.1871 -20.8526 1
    endloop
  endfacet
  facet normal -0 0 1
    outer loop
      vertex 19.0745 -19.8731 1
      vertex 20.1871 -20.8526 1
      vertex 19.6238 -19.3573 1
    endloop
  endfacet
  facet normal 0 0 1
    outer loop
      vertex 20.1871 -20.8526 1
      vertex 19.0745 -19.8731 1
      vertex 19.6791 -21.2216 1
    endloop
  endfacet
  facet normal -0 0 1
    outer loop
      vertex 18.465 -20.316 1
      vertex 19.6791 -21.2216 1
      vertex 19.0745 -19.8731 1
    endloop
  endfacet
  facet normal 0 0 1
    outer loop
      vertex 19.6791 -21.2216 1
      vertex 18.465 -20.316 1
      vertex 19.1289 -21.5241 1
    endloop
  endfacet
  facet normal 0 0 1
    outer loop
      vertex 19.1289 -21.5241 1
      vertex 18.465 -20.316 1
      vertex 18.5451 -21.7553 1
    endloop
  endfacet
  facet normal -0 0 1
    outer loop
      vertex 17.8047 -20.679 1
      vertex 18.5451 -21.7553 1
      vertex 18.465 -20.316 1
    endloop
  endfacet
  facet normal 0 0 1
    outer loop
      vertex 18.5451 -21.7553 1
      vertex 17.8047 -20.679 1
      vertex 17.9369 -21.9114 1
    endloop
  endfacet
  facet normal -0 0 1
    outer loop
      vertex 17.1041 -20.9563 1
      vertex 17.9369 -21.9114 1
      vertex 17.8047 -20.679 1
    endloop
  endfacet
  facet normal 0 0 1
    outer loop
      vertex 17.9369 -21.9114 1
      vertex 17.1041 -20.9563 1
      vertex 17.314 -21.9901 1
    endloop
  endfacet
  facet normal -0 0 1
    outer loop
      vertex 16.3743 -21.1437 1
      vertex 17.314 -21.9901 1
      vertex 17.1041 -20.9563 1
    endloop
  endfacet
  facet normal -0 0 1
    outer loop
      vertex 15.6267 -21.2382 1
      vertex 17.314 -21.9901 1
      vertex 16.3743 -21.1437 1
    endloop
  endfacet
  facet normal -0 0 1
    outer loop
      vertex -15.6267 -21.2382 1
      vertex 17.314 -21.9901 1
      vertex 15.6267 -21.2382 1
    endloop
  endfacet
  facet normal 0 0 1
    outer loop
      vertex -15.6267 -21.2382 1
      vertex -17.314 -21.9901 1
      vertex 17.314 -21.9901 1
    endloop
  endfacet
  facet normal 0 0 1
    outer loop
      vertex -16.3743 -21.1437 1
      vertex -17.314 -21.9901 1
      vertex -15.6267 -21.2382 1
    endloop
  endfacet
  facet normal 0 0 1
    outer loop
      vertex -17.1041 -20.9563 1
      vertex -17.314 -21.9901 1
      vertex -16.3743 -21.1437 1
    endloop
  endfacet
  facet normal 0 0 1
    outer loop
      vertex -17.9369 -21.9114 1
      vertex -17.1041 -20.9563 1
      vertex -17.8047 -20.679 1
    endloop
  endfacet
  facet normal 0 0 1
    outer loop
      vertex -17.1041 -20.9563 1
      vertex -17.9369 -21.9114 1
      vertex -17.314 -21.9901 1
    endloop
  endfacet
  facet normal 0 0 1
    outer loop
      vertex -18.5451 -21.7553 1
      vertex -17.8047 -20.679 1
      vertex -18.465 -20.316 1
    endloop
  endfacet
  facet normal 0 0 1
    outer loop
      vertex -17.8047 -20.679 1
      vertex -18.5451 -21.7553 1
      vertex -17.9369 -21.9114 1
    endloop
  endfacet
  facet normal 0 0 1
    outer loop
      vertex -19.6791 -21.2216 1
      vertex -18.465 -20.316 1
      vertex -19.0745 -19.8731 1
    endloop
  endfacet
  facet normal 0 0 1
    outer loop
      vertex -18.465 -20.316 1
      vertex -19.1289 -21.5241 1
      vertex -18.5451 -21.7553 1
    endloop
  endfacet
  facet normal 0 0 1
    outer loop
      vertex -20.1871 -20.8526 1
      vertex -19.0745 -19.8731 1
      vertex -19.6238 -19.3573 1
    endloop
  endfacet
  facet normal 0 0 1
    outer loop
      vertex -18.465 -20.316 1
      vertex -19.6791 -21.2216 1
      vertex -19.1289 -21.5241 1
    endloop
  endfacet
  facet normal 0 0 1
    outer loop
      vertex -21.0451 -19.9389 1
      vertex -19.6238 -19.3573 1
      vertex -20.1041 -18.7767 1
    endloop
  endfacet
  facet normal 0 0 1
    outer loop
      vertex -19.0745 -19.8731 1
      vertex -20.1871 -20.8526 1
      vertex -19.6791 -21.2216 1
    endloop
  endfacet
  facet normal 0 0 1
    outer loop
      vertex -21.3815 -19.4088 1
      vertex -20.1041 -18.7767 1
      vertex -20.5078 -18.1405 1
    endloop
  endfacet
  facet normal 0 0 1
    outer loop
      vertex -19.6238 -19.3573 1
      vertex -20.6448 -20.4227 1
      vertex -20.1871 -20.8526 1
    endloop
  endfacet
  facet normal 0 0 1
    outer loop
      vertex -21.8429 -18.2435 1
      vertex -20.5078 -18.1405 1
      vertex -20.8287 -17.4587 1
    endloop
  endfacet
  facet normal 0 0 1
    outer loop
      vertex -19.6238 -19.3573 1
      vertex -21.0451 -19.9389 1
      vertex -20.6448 -20.4227 1
    endloop
  endfacet
  facet normal -0 0 1
    outer loop
      vertex -22 -17 1
      vertex -20.8287 -17.4587 1
      vertex -21.0615 -16.7421 1
    endloop
  endfacet
  facet normal 0 0 1
    outer loop
      vertex -22 -17 1
      vertex -21.0615 -16.7421 1
      vertex -21.2027 -16.002 1
    endloop
  endfacet
  facet normal 0 0 1
    outer loop
      vertex -22 -17 1
      vertex -21.2027 -16.002 1
      vertex -21.25 -15.25 1
    endloop
  endfacet
  facet normal 0 0 1
    outer loop
      vertex -20.1041 -18.7767 1
      vertex -21.3815 -19.4088 1
      vertex -21.0451 -19.9389 1
    endloop
  endfacet
  facet normal 0 0 1
    outer loop
      vertex -21.25 15.25 1
      vertex -22 17 1
      vertex -21.25 -15.25 1
    endloop
  endfacet
  facet normal 0 0 1
    outer loop
      vertex -20.8287 17.4587 1
      vertex -22 17 1
      vertex -21.0615 16.7421 1
    endloop
  endfacet
  facet normal 0 0 1
    outer loop
      vertex -22 -17 1
      vertex -21.25 -15.25 1
      vertex -22 17 1
    endloop
  endfacet
  facet normal 0 0 1
    outer loop
      vertex -21.0615 16.7421 1
      vertex -22 17 1
      vertex -21.2027 16.002 1
    endloop
  endfacet
  facet normal 0 0 1
    outer loop
      vertex -20.8287 -17.4587 1
      vertex -22 -17 1
      vertex -21.9606 -17.6267 1
    endloop
  endfacet
  facet normal 0 0 1
    outer loop
      vertex -21.2027 16.002 1
      vertex -22 17 1
      vertex -21.25 15.25 1
    endloop
  endfacet
  facet normal 0 0 1
    outer loop
      vertex -20.5078 -18.1405 1
      vertex -21.6489 -18.8406 1
      vertex -21.3815 -19.4088 1
    endloop
  endfacet
  facet normal 0 0 1
    outer loop
      vertex -20.5078 -18.1405 1
      vertex -21.8429 -18.2435 1
      vertex -21.6489 -18.8406 1
    endloop
  endfacet
  facet normal 0 0 1
    outer loop
      vertex -20.8287 -17.4587 1
      vertex -21.9606 -17.6267 1
      vertex -21.8429 -18.2435 1
    endloop
  endfacet
  facet normal 0 1 -0
    outer loop
      vertex 17.314 21.9901 0
      vertex -17.314 21.9901 1
      vertex 17.314 21.9901 1
    endloop
  endfacet
  facet normal 0 1 0
    outer loop
      vertex -17.314 21.9901 1
      vertex 17.314 21.9901 0
      vertex -17.314 21.9901 0
    endloop
  endfacet
  facet normal -0.368203 0.929745 0
    outer loop
      vertex -18.5451 21.7553 0
      vertex -19.1289 21.5241 1
      vertex -18.5451 21.7553 1
    endloop
  endfacet
  facet normal -0.368203 0.929745 0
    outer loop
      vertex -19.1289 21.5241 1
      vertex -18.5451 21.7553 0
      vertex -19.1289 21.5241 0
    endloop
  endfacet
  facet normal 0 -1 0
    outer loop
      vertex -17.314 -21.9901 0
      vertex 17.314 -21.9901 1
      vertex -17.314 -21.9901 1
    endloop
  endfacet
  facet normal 0 -1 -0
    outer loop
      vertex 17.314 -21.9901 1
      vertex -17.314 -21.9901 0
      vertex 17.314 -21.9901 0
    endloop
  endfacet
  facet normal 1 -0 0
    outer loop
      vertex 22 -17 1
      vertex 22 -4.99013 0
      vertex 22 -4.99013 1
    endloop
  endfacet
  facet normal 1 0 0
    outer loop
      vertex 22 -4.99013 0
      vertex 22 -17 1
      vertex 22 -17 0
    endloop
  endfacet
  facet normal 1 -0 0
    outer loop
      vertex 22 4.99013 1
      vertex 22 17 0
      vertex 22 17 1
    endloop
  endfacet
  facet normal 1 0 0
    outer loop
      vertex 22 17 0
      vertex 22 4.99013 1
      vertex 22 4.99013 0
    endloop
  endfacet
  facet normal -0.951061 0.309003 0
    outer loop
      vertex -21.8429 18.2435 0
      vertex -21.6489 18.8406 1
      vertex -21.6489 18.8406 0
    endloop
  endfacet
  facet normal -0.951061 0.309003 0
    outer loop
      vertex -21.6489 18.8406 1
      vertex -21.8429 18.2435 0
      vertex -21.8429 18.2435 1
    endloop
  endfacet
  facet normal -0.684624 0.728896 0
    outer loop
      vertex -20.1871 20.8526 0
      vertex -20.6448 20.4227 1
      vertex -20.1871 20.8526 1
    endloop
  endfacet
  facet normal -0.684624 0.728896 0
    outer loop
      vertex -20.6448 20.4227 1
      vertex -20.1871 20.8526 0
      vertex -20.6448 20.4227 0
    endloop
  endfacet
  facet normal 0.99803 0.0627451 0
    outer loop
      vertex 22 17 1
      vertex 21.9606 17.6267 0
      vertex 21.9606 17.6267 1
    endloop
  endfacet
  facet normal 0.99803 0.0627451 0
    outer loop
      vertex 21.9606 17.6267 0
      vertex 22 17 1
      vertex 22 17 0
    endloop
  endfacet
  facet normal -0.125348 -0.992113 0
    outer loop
      vertex -17.9369 -21.9114 0
      vertex -17.314 -21.9901 1
      vertex -17.9369 -21.9114 1
    endloop
  endfacet
  facet normal -0.125348 -0.992113 -0
    outer loop
      vertex -17.314 -21.9901 1
      vertex -17.9369 -21.9114 0
      vertex -17.314 -21.9901 0
    endloop
  endfacet
  facet normal 0.770462 -0.637486 0
    outer loop
      vertex 20.6448 -20.4227 1
      vertex 21.0451 -19.9389 0
      vertex 21.0451 -19.9389 1
    endloop
  endfacet
  facet normal 0.770462 -0.637486 0
    outer loop
      vertex 21.0451 -19.9389 0
      vertex 20.6448 -20.4227 1
      vertex 20.6448 -20.4227 0
    endloop
  endfacet
  facet normal -0.982276 0.187441 0
    outer loop
      vertex -21.9606 17.6267 0
      vertex -21.8429 18.2435 1
      vertex -21.8429 18.2435 0
    endloop
  endfacet
  facet normal -0.982276 0.187441 0
    outer loop
      vertex -21.8429 18.2435 1
      vertex -21.9606 17.6267 0
      vertex -21.9606 17.6267 1
    endloop
  endfacet
  facet normal -0.587698 0.80908 0
    outer loop
      vertex -19.6791 21.2216 0
      vertex -20.1871 20.8526 1
      vertex -19.6791 21.2216 1
    endloop
  endfacet
  facet normal -0.587698 0.80908 0
    outer loop
      vertex -20.1871 20.8526 1
      vertex -19.6791 21.2216 0
      vertex -20.1871 20.8526 0
    endloop
  endfacet
  facet normal 0.770462 0.637486 0
    outer loop
      vertex 21.0451 19.9389 1
      vertex 20.6448 20.4227 0
      vertex 20.6448 20.4227 1
    endloop
  endfacet
  facet normal 0.770462 0.637486 0
    outer loop
      vertex 20.6448 20.4227 0
      vertex 21.0451 19.9389 1
      vertex 21.0451 19.9389 0
    endloop
  endfacet
  facet normal -0.481784 0.87629 0
    outer loop
      vertex -19.1289 21.5241 0
      vertex -19.6791 21.2216 1
      vertex -19.1289 21.5241 1
    endloop
  endfacet
  facet normal -0.481784 0.87629 0
    outer loop
      vertex -19.6791 21.2216 1
      vertex -19.1289 21.5241 0
      vertex -19.6791 21.2216 0
    endloop
  endfacet
  facet normal -0.248601 -0.968606 0
    outer loop
      vertex -18.5451 -21.7553 0
      vertex -17.9369 -21.9114 1
      vertex -18.5451 -21.7553 1
    endloop
  endfacet
  facet normal -0.248601 -0.968606 -0
    outer loop
      vertex -17.9369 -21.9114 1
      vertex -18.5451 -21.7553 0
      vertex -17.9369 -21.9114 0
    endloop
  endfacet
  facet normal 0.951061 -0.309003 0
    outer loop
      vertex 21.6489 -18.8406 1
      vertex 21.8429 -18.2435 0
      vertex 21.8429 -18.2435 1
    endloop
  endfacet
  facet normal 0.951061 -0.309003 0
    outer loop
      vertex 21.8429 -18.2435 0
      vertex 21.6489 -18.8406 1
      vertex 21.6489 -18.8406 0
    endloop
  endfacet
  facet normal -0.770462 0.637486 0
    outer loop
      vertex -21.0451 19.9389 0
      vertex -20.6448 20.4227 1
      vertex -20.6448 20.4227 0
    endloop
  endfacet
  facet normal -0.770462 0.637486 0
    outer loop
      vertex -20.6448 20.4227 1
      vertex -21.0451 19.9389 0
      vertex -21.0451 19.9389 1
    endloop
  endfacet
  facet normal -0.904811 0.425812 0
    outer loop
      vertex -21.6489 18.8406 0
      vertex -21.3815 19.4088 1
      vertex -21.3815 19.4088 0
    endloop
  endfacet
  facet normal -0.904811 0.425812 0
    outer loop
      vertex -21.3815 19.4088 1
      vertex -21.6489 18.8406 0
      vertex -21.6489 18.8406 1
    endloop
  endfacet
  facet normal 0.951061 0.309003 0
    outer loop
      vertex 21.8429 18.2435 1
      vertex 21.6489 18.8406 0
      vertex 21.6489 18.8406 1
    endloop
  endfacet
  facet normal 0.951061 0.309003 0
    outer loop
      vertex 21.6489 18.8406 0
      vertex 21.8429 18.2435 1
      vertex 21.8429 18.2435 0
    endloop
  endfacet
  facet normal 0.481784 0.87629 -0
    outer loop
      vertex 19.6791 21.2216 0
      vertex 19.1289 21.5241 1
      vertex 19.6791 21.2216 1
    endloop
  endfacet
  facet normal 0.481784 0.87629 0
    outer loop
      vertex 19.1289 21.5241 1
      vertex 19.6791 21.2216 0
      vertex 19.1289 21.5241 0
    endloop
  endfacet
  facet normal 0.368203 0.929745 -0
    outer loop
      vertex 19.1289 21.5241 0
      vertex 18.5451 21.7553 1
      vertex 19.1289 21.5241 1
    endloop
  endfacet
  facet normal 0.368203 0.929745 0
    outer loop
      vertex 18.5451 21.7553 1
      vertex 19.1289 21.5241 0
      vertex 18.5451 21.7553 0
    endloop
  endfacet
  facet normal 0.684624 0.728896 -0
    outer loop
      vertex 20.6448 20.4227 0
      vertex 20.1871 20.8526 1
      vertex 20.6448 20.4227 1
    endloop
  endfacet
  facet normal 0.684624 0.728896 0
    outer loop
      vertex 20.1871 20.8526 1
      vertex 20.6448 20.4227 0
      vertex 20.1871 20.8526 0
    endloop
  endfacet
  facet normal -0.248601 0.968606 0
    outer loop
      vertex -17.9369 21.9114 0
      vertex -18.5451 21.7553 1
      vertex -17.9369 21.9114 1
    endloop
  endfacet
  facet normal -0.248601 0.968606 0
    outer loop
      vertex -18.5451 21.7553 1
      vertex -17.9369 21.9114 0
      vertex -18.5451 21.7553 0
    endloop
  endfacet
  facet normal -0.125348 0.992113 0
    outer loop
      vertex -17.314 21.9901 0
      vertex -17.9369 21.9114 1
      vertex -17.314 21.9901 1
    endloop
  endfacet
  facet normal -0.125348 0.992113 0
    outer loop
      vertex -17.9369 21.9114 1
      vertex -17.314 21.9901 0
      vertex -17.9369 21.9114 0
    endloop
  endfacet
  facet normal 0 0 -1
    outer loop
      vertex 17.314 -21.9901 0
      vertex 22 -4.99013 0
      vertex 22 -17 0
    endloop
  endfacet
  facet normal 0 0 -1
    outer loop
      vertex -17.314 -21.9901 0
      vertex 22 -4.99013 0
      vertex 17.314 -21.9901 0
    endloop
  endfacet
  facet normal 0 0 -1
    outer loop
      vertex 17.314 -21.9901 0
      vertex 22 -17 0
      vertex 21.9606 -17.6267 0
    endloop
  endfacet
  facet normal 0 0 -1
    outer loop
      vertex -22 -17 0
      vertex 22 -4.99013 0
      vertex -17.314 -21.9901 0
    endloop
  endfacet
  facet normal 0 0 -1
    outer loop
      vertex 17.314 -21.9901 0
      vertex 21.9606 -17.6267 0
      vertex 21.8429 -18.2435 0
    endloop
  endfacet
  facet normal 0 0 -1
    outer loop
      vertex -22 17 0
      vertex 22 4.99013 0
      vertex -22 -17 0
    endloop
  endfacet
  facet normal 0 0 -1
    outer loop
      vertex 17.314 -21.9901 0
      vertex 21.8429 -18.2435 0
      vertex 21.6489 -18.8406 0
    endloop
  endfacet
  facet normal 0 0 -1
    outer loop
      vertex 22 17 0
      vertex 17.314 21.9901 0
      vertex 21.9606 17.6267 0
    endloop
  endfacet
  facet normal 0 0 -1
    outer loop
      vertex 17.314 -21.9901 0
      vertex 21.6489 -18.8406 0
      vertex 21.3815 -19.4088 0
    endloop
  endfacet
  facet normal 0 0 -1
    outer loop
      vertex 21.9606 17.6267 0
      vertex 17.314 21.9901 0
      vertex 21.8429 18.2435 0
    endloop
  endfacet
  facet normal 0 0 -1
    outer loop
      vertex 17.314 -21.9901 0
      vertex 21.3815 -19.4088 0
      vertex 21.0451 -19.9389 0
    endloop
  endfacet
  facet normal 0 0 -1
    outer loop
      vertex 21.8429 18.2435 0
      vertex 17.314 21.9901 0
      vertex 21.6489 18.8406 0
    endloop
  endfacet
  facet normal 0 0 -1
    outer loop
      vertex 17.314 -21.9901 0
      vertex 21.0451 -19.9389 0
      vertex 20.6448 -20.4227 0
    endloop
  endfacet
  facet normal 0 0 -1
    outer loop
      vertex 21.6489 18.8406 0
      vertex 17.314 21.9901 0
      vertex 21.3815 19.4088 0
    endloop
  endfacet
  facet normal 0 0 -1
    outer loop
      vertex 17.314 -21.9901 0
      vertex 20.6448 -20.4227 0
      vertex 20.1871 -20.8526 0
    endloop
  endfacet
  facet normal 0 0 -1
    outer loop
      vertex 21.3815 19.4088 0
      vertex 17.314 21.9901 0
      vertex 21.0451 19.9389 0
    endloop
  endfacet
  facet normal 0 0 -1
    outer loop
      vertex 17.314 -21.9901 0
      vertex 20.1871 -20.8526 0
      vertex 19.6791 -21.2216 0
    endloop
  endfacet
  facet normal 0 0 -1
    outer loop
      vertex 21.0451 19.9389 0
      vertex 17.314 21.9901 0
      vertex 20.6448 20.4227 0
    endloop
  endfacet
  facet normal 0 0 -1
    outer loop
      vertex 17.314 -21.9901 0
      vertex 19.6791 -21.2216 0
      vertex 19.1289 -21.5241 0
    endloop
  endfacet
  facet normal 0 0 -1
    outer loop
      vertex 20.6448 20.4227 0
      vertex 17.314 21.9901 0
      vertex 20.1871 20.8526 0
    endloop
  endfacet
  facet normal 0 0 -1
    outer loop
      vertex 17.314 -21.9901 0
      vertex 19.1289 -21.5241 0
      vertex 18.5451 -21.7553 0
    endloop
  endfacet
  facet normal 0 0 -1
    outer loop
      vertex 20.1871 20.8526 0
      vertex 17.314 21.9901 0
      vertex 19.6791 21.2216 0
    endloop
  endfacet
  facet normal 0 0 -1
    outer loop
      vertex 17.314 -21.9901 0
      vertex 18.5451 -21.7553 0
      vertex 17.9369 -21.9114 0
    endloop
  endfacet
  facet normal 0 0 -1
    outer loop
      vertex 19.6791 21.2216 0
      vertex 17.314 21.9901 0
      vertex 19.1289 21.5241 0
    endloop
  endfacet
  facet normal 0 0 -1
    outer loop
      vertex 19.1289 21.5241 0
      vertex 17.314 21.9901 0
      vertex 18.5451 21.7553 0
    endloop
  endfacet
  facet normal 0 0 -1
    outer loop
      vertex 18.5451 21.7553 0
      vertex 17.314 21.9901 0
      vertex 17.9369 21.9114 0
    endloop
  endfacet
  facet normal -0 0 -1
    outer loop
      vertex 22 -4.99013 0
      vertex -22 -17 0
      vertex 22 4.99013 0
    endloop
  endfacet
  facet normal 0 -0 -1
    outer loop
      vertex -17.314 21.9901 0
      vertex 22 4.99013 0
      vertex -22 17 0
    endloop
  endfacet
  facet normal 0 0 -1
    outer loop
      vertex -22 -17 0
      vertex -17.314 -21.9901 0
      vertex -17.9369 -21.9114 0
    endloop
  endfacet
  facet normal 0 0 -1
    outer loop
      vertex 22 4.99013 0
      vertex 17.314 21.9901 0
      vertex 22 17 0
    endloop
  endfacet
  facet normal 0 0 -1
    outer loop
      vertex -22 -17 0
      vertex -17.9369 -21.9114 0
      vertex -18.5451 -21.7553 0
    endloop
  endfacet
  facet normal 0 0 -1
    outer loop
      vertex 22 4.99013 0
      vertex -17.314 21.9901 0
      vertex 17.314 21.9901 0
    endloop
  endfacet
  facet normal 0 0 -1
    outer loop
      vertex -22 -17 0
      vertex -18.5451 -21.7553 0
      vertex -19.1289 -21.5241 0
    endloop
  endfacet
  facet normal 0 0 -1
    outer loop
      vertex -17.314 21.9901 0
      vertex -22 17 0
      vertex -17.9369 21.9114 0
    endloop
  endfacet
  facet normal 0 0 -1
    outer loop
      vertex -22 -17 0
      vertex -19.1289 -21.5241 0
      vertex -19.6791 -21.2216 0
    endloop
  endfacet
  facet normal 0 0 -1
    outer loop
      vertex -17.9369 21.9114 0
      vertex -22 17 0
      vertex -18.5451 21.7553 0
    endloop
  endfacet
  facet normal 0 0 -1
    outer loop
      vertex -22 -17 0
      vertex -19.6791 -21.2216 0
      vertex -20.1871 -20.8526 0
    endloop
  endfacet
  facet normal 0 0 -1
    outer loop
      vertex -18.5451 21.7553 0
      vertex -22 17 0
      vertex -19.1289 21.5241 0
    endloop
  endfacet
  facet normal 0 0 -1
    outer loop
      vertex -22 -17 0
      vertex -20.1871 -20.8526 0
      vertex -20.6448 -20.4227 0
    endloop
  endfacet
  facet normal 0 0 -1
    outer loop
      vertex -19.1289 21.5241 0
      vertex -22 17 0
      vertex -19.6791 21.2216 0
    endloop
  endfacet
  facet normal 0 0 -1
    outer loop
      vertex -22 -17 0
      vertex -20.6448 -20.4227 0
      vertex -21.0451 -19.9389 0
    endloop
  endfacet
  facet normal 0 0 -1
    outer loop
      vertex -19.6791 21.2216 0
      vertex -22 17 0
      vertex -20.1871 20.8526 0
    endloop
  endfacet
  facet normal 0 0 -1
    outer loop
      vertex -22 -17 0
      vertex -21.0451 -19.9389 0
      vertex -21.3815 -19.4088 0
    endloop
  endfacet
  facet normal 0 0 -1
    outer loop
      vertex -20.1871 20.8526 0
      vertex -22 17 0
      vertex -20.6448 20.4227 0
    endloop
  endfacet
  facet normal 0 0 -1
    outer loop
      vertex -22 -17 0
      vertex -21.3815 -19.4088 0
      vertex -21.6489 -18.8406 0
    endloop
  endfacet
  facet normal 0 0 -1
    outer loop
      vertex -20.6448 20.4227 0
      vertex -22 17 0
      vertex -21.0451 19.9389 0
    endloop
  endfacet
  facet normal 0 0 -1
    outer loop
      vertex -22 -17 0
      vertex -21.6489 -18.8406 0
      vertex -21.8429 -18.2435 0
    endloop
  endfacet
  facet normal 0 0 -1
    outer loop
      vertex -21.0451 19.9389 0
      vertex -22 17 0
      vertex -21.3815 19.4088 0
    endloop
  endfacet
  facet normal 0 0 -1
    outer loop
      vertex -22 -17 0
      vertex -21.8429 -18.2435 0
      vertex -21.9606 -17.6267 0
    endloop
  endfacet
  facet normal 0 0 -1
    outer loop
      vertex -21.3815 19.4088 0
      vertex -22 17 0
      vertex -21.6489 18.8406 0
    endloop
  endfacet
  facet normal 0 0 -1
    outer loop
      vertex -21.6489 18.8406 0
      vertex -22 17 0
      vertex -21.8429 18.2435 0
    endloop
  endfacet
  facet normal 0 0 -1
    outer loop
      vertex -21.8429 18.2435 0
      vertex -22 17 0
      vertex -21.9606 17.6267 0
    endloop
  endfacet
  facet normal 0 0 -1
    outer loop
      vertex 26.9606 -0.626666 0
      vertex 26.9606 0.626666 0
      vertex 27 0 0
    endloop
  endfacet
  facet normal 0 0 -1
    outer loop
      vertex 26.8429 -1.24345 0
      vertex 26.9606 0.626666 0
      vertex 26.9606 -0.626666 0
    endloop
  endfacet
  facet normal 0 0 -1
    outer loop
      vertex 26.8429 -1.24345 0
      vertex 26.8429 1.24345 0
      vertex 26.9606 0.626666 0
    endloop
  endfacet
  facet normal 0 0 -1
    outer loop
      vertex 26.6489 -1.84062 0
      vertex 26.8429 1.24345 0
      vertex 26.8429 -1.24345 0
    endloop
  endfacet
  facet normal 0 0 -1
    outer loop
      vertex 26.6489 -1.84062 0
      vertex 26.6489 1.84062 0
      vertex 26.8429 1.24345 0
    endloop
  endfacet
  facet normal 0 0 -1
    outer loop
      vertex 26.3815 -2.40877 0
      vertex 26.6489 1.84062 0
      vertex 26.6489 -1.84062 0
    endloop
  endfacet
  facet normal 0 0 -1
    outer loop
      vertex 26.3815 -2.40877 0
      vertex 26.3815 2.40877 0
      vertex 26.6489 1.84062 0
    endloop
  endfacet
  facet normal 0 0 -1
    outer loop
      vertex 26.0451 -2.93893 0
      vertex 26.3815 2.40877 0
      vertex 26.3815 -2.40877 0
    endloop
  endfacet
  facet normal 0 0 -1
    outer loop
      vertex 26.0451 -2.93893 0
      vertex 26.0451 2.93893 0
      vertex 26.3815 2.40877 0
    endloop
  endfacet
  facet normal 0 0 -1
    outer loop
      vertex 25.6448 -3.42274 0
      vertex 26.0451 2.93893 0
      vertex 26.0451 -2.93893 0
    endloop
  endfacet
  facet normal 0 0 -1
    outer loop
      vertex 25.6448 -3.42274 0
      vertex 25.6448 3.42274 0
      vertex 26.0451 2.93893 0
    endloop
  endfacet
  facet normal 0 0 -1
    outer loop
      vertex 25.1871 -3.85257 0
      vertex 25.6448 3.42274 0
      vertex 25.6448 -3.42274 0
    endloop
  endfacet
  facet normal 0 0 -1
    outer loop
      vertex 25.1871 -3.85257 0
      vertex 25.1871 3.85257 0
      vertex 25.6448 3.42274 0
    endloop
  endfacet
  facet normal 0 0 -1
    outer loop
      vertex 24.6791 -4.22164 0
      vertex 25.1871 3.85257 0
      vertex 25.1871 -3.85257 0
    endloop
  endfacet
  facet normal 0 0 -1
    outer loop
      vertex 24.6791 -4.22164 0
      vertex 24.6791 4.22164 0
      vertex 25.1871 3.85257 0
    endloop
  endfacet
  facet normal 0 0 -1
    outer loop
      vertex 24.1289 -4.52413 0
      vertex 24.6791 4.22164 0
      vertex 24.6791 -4.22164 0
    endloop
  endfacet
  facet normal 0 0 -1
    outer loop
      vertex 24.1289 -4.52413 0
      vertex 24.1289 4.52413 0
      vertex 24.6791 4.22164 0
    endloop
  endfacet
  facet normal 0 0 -1
    outer loop
      vertex 23.5451 -4.75528 0
      vertex 24.1289 4.52413 0
      vertex 24.1289 -4.52413 0
    endloop
  endfacet
  facet normal 0 0 -1
    outer loop
      vertex 23.5451 -4.75528 0
      vertex 23.5451 4.75528 0
      vertex 24.1289 4.52413 0
    endloop
  endfacet
  facet normal 0 0 -1
    outer loop
      vertex 22 -4.99013 0
      vertex 23.5451 -4.75528 0
      vertex 22.9369 -4.91144 0
    endloop
  endfacet
  facet normal -0 0 -1
    outer loop
      vertex 23.5451 -4.75528 0
      vertex 22 -4.99013 0
      vertex 23.5451 4.75528 0
    endloop
  endfacet
  facet normal 0 0 -1
    outer loop
      vertex 22 -4.99013 0
      vertex 22.9369 -4.91144 0
      vertex 22.314 -4.99013 0
    endloop
  endfacet
  facet normal 0 0 -1
    outer loop
      vertex 22 4.99013 0
      vertex 23.5451 4.75528 0
      vertex 22 -4.99013 0
    endloop
  endfacet
  facet normal 0 0 -1
    outer loop
      vertex 23.5451 4.75528 0
      vertex 22 4.99013 0
      vertex 22.9369 4.91144 0
    endloop
  endfacet
  facet normal 0 0 -1
    outer loop
      vertex 22.9369 4.91144 0
      vertex 22 4.99013 0
      vertex 22.314 4.99013 0
    endloop
  endfacet
  facet normal -0.951061 -0.309003 0
    outer loop
      vertex -21.6489 -18.8406 0
      vertex -21.8429 -18.2435 1
      vertex -21.8429 -18.2435 0
    endloop
  endfacet
  facet normal -0.951061 -0.309003 0
    outer loop
      vertex -21.8429 -18.2435 1
      vertex -21.6489 -18.8406 0
      vertex -21.6489 -18.8406 1
    endloop
  endfacet
  facet normal -0.770462 -0.637486 0
    outer loop
      vertex -20.6448 -20.4227 0
      vertex -21.0451 -19.9389 1
      vertex -21.0451 -19.9389 0
    endloop
  endfacet
  facet normal -0.770462 -0.637486 0
    outer loop
      vertex -21.0451 -19.9389 1
      vertex -20.6448 -20.4227 0
      vertex -20.6448 -20.4227 1
    endloop
  endfacet
  facet normal -0.904811 -0.425812 0
    outer loop
      vertex -21.3815 -19.4088 0
      vertex -21.6489 -18.8406 1
      vertex -21.6489 -18.8406 0
    endloop
  endfacet
  facet normal -0.904811 -0.425812 0
    outer loop
      vertex -21.6489 -18.8406 1
      vertex -21.3815 -19.4088 0
      vertex -21.3815 -19.4088 1
    endloop
  endfacet
  facet normal -0.368203 -0.929745 0
    outer loop
      vertex -19.1289 -21.5241 0
      vertex -18.5451 -21.7553 1
      vertex -19.1289 -21.5241 1
    endloop
  endfacet
  facet normal -0.368203 -0.929745 -0
    outer loop
      vertex -18.5451 -21.7553 1
      vertex -19.1289 -21.5241 0
      vertex -18.5451 -21.7553 0
    endloop
  endfacet
  facet normal -0.684624 -0.728896 0
    outer loop
      vertex -20.6448 -20.4227 0
      vertex -20.1871 -20.8526 1
      vertex -20.6448 -20.4227 1
    endloop
  endfacet
  facet normal -0.684624 -0.728896 -0
    outer loop
      vertex -20.1871 -20.8526 1
      vertex -20.6448 -20.4227 0
      vertex -20.1871 -20.8526 0
    endloop
  endfacet
  facet normal 0.587698 -0.80908 0
    outer loop
      vertex 19.6791 -21.2216 0
      vertex 20.1871 -20.8526 1
      vertex 19.6791 -21.2216 1
    endloop
  endfacet
  facet normal 0.587698 -0.80908 0
    outer loop
      vertex 20.1871 -20.8526 1
      vertex 19.6791 -21.2216 0
      vertex 20.1871 -20.8526 0
    endloop
  endfacet
  facet normal 0.982276 -0.187441 0
    outer loop
      vertex 21.8429 -18.2435 1
      vertex 21.9606 -17.6267 0
      vertex 21.9606 -17.6267 1
    endloop
  endfacet
  facet normal 0.982276 -0.187441 0
    outer loop
      vertex 21.9606 -17.6267 0
      vertex 21.8429 -18.2435 1
      vertex 21.8429 -18.2435 0
    endloop
  endfacet
  facet normal 0.844336 -0.535814 0
    outer loop
      vertex 21.0451 -19.9389 1
      vertex 21.3815 -19.4088 0
      vertex 21.3815 -19.4088 1
    endloop
  endfacet
  facet normal 0.844336 -0.535814 0
    outer loop
      vertex 21.3815 -19.4088 0
      vertex 21.0451 -19.9389 1
      vertex 21.0451 -19.9389 0
    endloop
  endfacet
  facet normal -0.844336 0.535814 0
    outer loop
      vertex -21.3815 19.4088 0
      vertex -21.0451 19.9389 1
      vertex -21.0451 19.9389 0
    endloop
  endfacet
  facet normal -0.844336 0.535814 0
    outer loop
      vertex -21.0451 19.9389 1
      vertex -21.3815 19.4088 0
      vertex -21.3815 19.4088 1
    endloop
  endfacet
  facet normal 0.982276 0.187441 0
    outer loop
      vertex 21.9606 17.6267 1
      vertex 21.8429 18.2435 0
      vertex 21.8429 18.2435 1
    endloop
  endfacet
  facet normal 0.982276 0.187441 0
    outer loop
      vertex 21.8429 18.2435 0
      vertex 21.9606 17.6267 1
      vertex 21.9606 17.6267 0
    endloop
  endfacet
  facet normal 0.904811 0.425812 0
    outer loop
      vertex 21.6489 18.8406 1
      vertex 21.3815 19.4088 0
      vertex 21.3815 19.4088 1
    endloop
  endfacet
  facet normal 0.904811 0.425812 0
    outer loop
      vertex 21.3815 19.4088 0
      vertex 21.6489 18.8406 1
      vertex 21.6489 18.8406 0
    endloop
  endfacet
  facet normal 0.844336 0.535814 0
    outer loop
      vertex 21.3815 19.4088 1
      vertex 21.0451 19.9389 0
      vertex 21.0451 19.9389 1
    endloop
  endfacet
  facet normal 0.844336 0.535814 0
    outer loop
      vertex 21.0451 19.9389 0
      vertex 21.3815 19.4088 1
      vertex 21.3815 19.4088 0
    endloop
  endfacet
  facet normal 0.587698 0.80908 -0
    outer loop
      vertex 20.1871 20.8526 0
      vertex 19.6791 21.2216 1
      vertex 20.1871 20.8526 1
    endloop
  endfacet
  facet normal 0.587698 0.80908 0
    outer loop
      vertex 19.6791 21.2216 1
      vertex 20.1871 20.8526 0
      vertex 19.6791 21.2216 0
    endloop
  endfacet
  facet normal 0.248601 0.968606 -0
    outer loop
      vertex 18.5451 21.7553 0
      vertex 17.9369 21.9114 1
      vertex 18.5451 21.7553 1
    endloop
  endfacet
  facet normal 0.248601 0.968606 0
    outer loop
      vertex 17.9369 21.9114 1
      vertex 18.5451 21.7553 0
      vertex 17.9369 21.9114 0
    endloop
  endfacet
  facet normal 0.125348 0.992113 -0
    outer loop
      vertex 17.9369 21.9114 0
      vertex 17.314 21.9901 1
      vertex 17.9369 21.9114 1
    endloop
  endfacet
  facet normal 0.125348 0.992113 0
    outer loop
      vertex 17.314 21.9901 1
      vertex 17.9369 21.9114 0
      vertex 17.314 21.9901 0
    endloop
  endfacet
  facet normal -0.982276 -0.187441 0
    outer loop
      vertex -21.8429 -18.2435 0
      vertex -21.9606 -17.6267 1
      vertex -21.9606 -17.6267 0
    endloop
  endfacet
  facet normal -0.982276 -0.187441 0
    outer loop
      vertex -21.9606 -17.6267 1
      vertex -21.8429 -18.2435 0
      vertex -21.8429 -18.2435 1
    endloop
  endfacet
  facet normal -0.844336 -0.535814 0
    outer loop
      vertex -21.0451 -19.9389 0
      vertex -21.3815 -19.4088 1
      vertex -21.3815 -19.4088 0
    endloop
  endfacet
  facet normal -0.844336 -0.535814 0
    outer loop
      vertex -21.3815 -19.4088 1
      vertex -21.0451 -19.9389 0
      vertex -21.0451 -19.9389 1
    endloop
  endfacet
  facet normal -0.481784 -0.87629 0
    outer loop
      vertex -19.6791 -21.2216 0
      vertex -19.1289 -21.5241 1
      vertex -19.6791 -21.2216 1
    endloop
  endfacet
  facet normal -0.481784 -0.87629 -0
    outer loop
      vertex -19.1289 -21.5241 1
      vertex -19.6791 -21.2216 0
      vertex -19.1289 -21.5241 0
    endloop
  endfacet
  facet normal -0.587698 -0.80908 0
    outer loop
      vertex -20.1871 -20.8526 0
      vertex -19.6791 -21.2216 1
      vertex -20.1871 -20.8526 1
    endloop
  endfacet
  facet normal -0.587698 -0.80908 -0
    outer loop
      vertex -19.6791 -21.2216 1
      vertex -20.1871 -20.8526 0
      vertex -19.6791 -21.2216 0
    endloop
  endfacet
  facet normal 0.368203 -0.929745 0
    outer loop
      vertex 18.5451 -21.7553 0
      vertex 19.1289 -21.5241 1
      vertex 18.5451 -21.7553 1
    endloop
  endfacet
  facet normal 0.368203 -0.929745 0
    outer loop
      vertex 19.1289 -21.5241 1
      vertex 18.5451 -21.7553 0
      vertex 19.1289 -21.5241 0
    endloop
  endfacet
  facet normal 0.481784 -0.87629 0
    outer loop
      vertex 19.1289 -21.5241 0
      vertex 19.6791 -21.2216 1
      vertex 19.1289 -21.5241 1
    endloop
  endfacet
  facet normal 0.481784 -0.87629 0
    outer loop
      vertex 19.6791 -21.2216 1
      vertex 19.1289 -21.5241 0
      vertex 19.6791 -21.2216 0
    endloop
  endfacet
  facet normal 0.684624 -0.728896 0
    outer loop
      vertex 20.1871 -20.8526 0
      vertex 20.6448 -20.4227 1
      vertex 20.1871 -20.8526 1
    endloop
  endfacet
  facet normal 0.684624 -0.728896 0
    outer loop
      vertex 20.6448 -20.4227 1
      vertex 20.1871 -20.8526 0
      vertex 20.6448 -20.4227 0
    endloop
  endfacet
  facet normal 0.125348 -0.992113 0
    outer loop
      vertex 17.314 -21.9901 0
      vertex 17.9369 -21.9114 1
      vertex 17.314 -21.9901 1
    endloop
  endfacet
  facet normal 0.125348 -0.992113 0
    outer loop
      vertex 17.9369 -21.9114 1
      vertex 17.314 -21.9901 0
      vertex 17.9369 -21.9114 0
    endloop
  endfacet
  facet normal 0.99803 -0.0627451 0
    outer loop
      vertex 21.9606 -17.6267 1
      vertex 22 -17 0
      vertex 22 -17 1
    endloop
  endfacet
  facet normal 0.99803 -0.0627451 0
    outer loop
      vertex 22 -17 0
      vertex 21.9606 -17.6267 1
      vertex 21.9606 -17.6267 0
    endloop
  endfacet
  facet normal 0.904811 -0.425812 0
    outer loop
      vertex 21.3815 -19.4088 1
      vertex 21.6489 -18.8406 0
      vertex 21.6489 -18.8406 1
    endloop
  endfacet
  facet normal 0.904811 -0.425812 0
    outer loop
      vertex 21.6489 -18.8406 0
      vertex 21.3815 -19.4088 1
      vertex 21.3815 -19.4088 0
    endloop
  endfacet
  facet normal 0.248601 -0.968606 0
    outer loop
      vertex 17.9369 -21.9114 0
      vertex 18.5451 -21.7553 1
      vertex 17.9369 -21.9114 1
    endloop
  endfacet
  facet normal 0.248601 -0.968606 0
    outer loop
      vertex 18.5451 -21.7553 1
      vertex 17.9369 -21.9114 0
      vertex 18.5451 -21.7553 0
    endloop
  endfacet
  facet normal -1 0 0
    outer loop
      vertex -21.25 -15.25 1
      vertex -21.25 15.25 2
      vertex -21.25 15.25 1
    endloop
  endfacet
  facet normal -1 -0 0
    outer loop
      vertex -21.25 15.25 2
      vertex -21.25 -15.25 1
      vertex -21.25 -15.25 2
    endloop
  endfacet
  facet normal -0.998028 -0.0627749 0
    outer loop
      vertex -21.2027 -16.002 1
      vertex -21.25 -15.25 2
      vertex -21.25 -15.25 1
    endloop
  endfacet
  facet normal -0.998028 -0.0627749 0
    outer loop
      vertex -21.25 -15.25 2
      vertex -21.2027 -16.002 1
      vertex -21.2027 -16.002 2
    endloop
  endfacet
  facet normal -0.998028 0.0627749 0
    outer loop
      vertex -21.25 15.25 1
      vertex -21.2027 16.002 2
      vertex -21.2027 16.002 1
    endloop
  endfacet
  facet normal -0.998028 0.0627749 0
    outer loop
      vertex -21.2027 16.002 2
      vertex -21.25 15.25 1
      vertex -21.25 15.25 2
    endloop
  endfacet
  facet normal -0.481751 0.876308 0
    outer loop
      vertex -17.8047 20.679 1
      vertex -18.465 20.316 2
      vertex -17.8047 20.679 2
    endloop
  endfacet
  facet normal -0.481751 0.876308 0
    outer loop
      vertex -18.465 20.316 2
      vertex -17.8047 20.679 1
      vertex -18.465 20.316 1
    endloop
  endfacet
  facet normal 0 0 1
    outer loop
      vertex 15.6267 21.2382 2
      vertex 21.25 15.25 2
      vertex 21.2027 16.002 2
    endloop
  endfacet
  facet normal 0 0 1
    outer loop
      vertex -21.25 15.25 2
      vertex 21.25 15.25 2
      vertex 15.6267 21.2382 2
    endloop
  endfacet
  facet normal 0 0 1
    outer loop
      vertex 15.6267 21.2382 2
      vertex 21.2027 16.002 2
      vertex 21.0615 16.7421 2
    endloop
  endfacet
  facet normal 0 0 1
    outer loop
      vertex 21.25 15.25 2
      vertex -21.25 15.25 2
      vertex 21.25 -15.25 2
    endloop
  endfacet
  facet normal 0 0 1
    outer loop
      vertex 15.6267 21.2382 2
      vertex 21.0615 16.7421 2
      vertex 20.8287 17.4587 2
    endloop
  endfacet
  facet normal 0 0 1
    outer loop
      vertex 21.25 -15.25 2
      vertex 15.6267 -21.2382 2
      vertex 21.2027 -16.002 2
    endloop
  endfacet
  facet normal 0 0 1
    outer loop
      vertex 15.6267 21.2382 2
      vertex 20.8287 17.4587 2
      vertex 20.5078 18.1405 2
    endloop
  endfacet
  facet normal 0 0 1
    outer loop
      vertex 21.2027 -16.002 2
      vertex 15.6267 -21.2382 2
      vertex 21.0615 -16.7421 2
    endloop
  endfacet
  facet normal 0 0 1
    outer loop
      vertex 15.6267 21.2382 2
      vertex 20.5078 18.1405 2
      vertex 20.1041 18.7767 2
    endloop
  endfacet
  facet normal 0 0 1
    outer loop
      vertex 21.0615 -16.7421 2
      vertex 15.6267 -21.2382 2
      vertex 20.8287 -17.4587 2
    endloop
  endfacet
  facet normal 0 0 1
    outer loop
      vertex 15.6267 21.2382 2
      vertex 20.1041 18.7767 2
      vertex 19.6238 19.3573 2
    endloop
  endfacet
  facet normal 0 0 1
    outer loop
      vertex 20.8287 -17.4587 2
      vertex 15.6267 -21.2382 2
      vertex 20.5078 -18.1405 2
    endloop
  endfacet
  facet normal 0 0 1
    outer loop
      vertex 15.6267 21.2382 2
      vertex 19.6238 19.3573 2
      vertex 19.0745 19.8731 2
    endloop
  endfacet
  facet normal 0 0 1
    outer loop
      vertex 20.5078 -18.1405 2
      vertex 15.6267 -21.2382 2
      vertex 20.1041 -18.7767 2
    endloop
  endfacet
  facet normal 0 0 1
    outer loop
      vertex 15.6267 21.2382 2
      vertex 19.0745 19.8731 2
      vertex 18.465 20.316 2
    endloop
  endfacet
  facet normal 0 0 1
    outer loop
      vertex 20.1041 -18.7767 2
      vertex 15.6267 -21.2382 2
      vertex 19.6238 -19.3573 2
    endloop
  endfacet
  facet normal 0 0 1
    outer loop
      vertex 15.6267 21.2382 2
      vertex 18.465 20.316 2
      vertex 17.8047 20.679 2
    endloop
  endfacet
  facet normal 0 0 1
    outer loop
      vertex 19.6238 -19.3573 2
      vertex 15.6267 -21.2382 2
      vertex 19.0745 -19.8731 2
    endloop
  endfacet
  facet normal 0 0 1
    outer loop
      vertex 15.6267 21.2382 2
      vertex 17.8047 20.679 2
      vertex 17.1041 20.9563 2
    endloop
  endfacet
  facet normal 0 0 1
    outer loop
      vertex 19.0745 -19.8731 2
      vertex 15.6267 -21.2382 2
      vertex 18.465 -20.316 2
    endloop
  endfacet
  facet normal 0 0 1
    outer loop
      vertex 15.6267 21.2382 2
      vertex 17.1041 20.9563 2
      vertex 16.3743 21.1437 2
    endloop
  endfacet
  facet normal 0 0 1
    outer loop
      vertex 18.465 -20.316 2
      vertex 15.6267 -21.2382 2
      vertex 17.8047 -20.679 2
    endloop
  endfacet
  facet normal 0 0 1
    outer loop
      vertex 17.8047 -20.679 2
      vertex 15.6267 -21.2382 2
      vertex 17.1041 -20.9563 2
    endloop
  endfacet
  facet normal 0 0 1
    outer loop
      vertex 17.1041 -20.9563 2
      vertex 15.6267 -21.2382 2
      vertex 16.3743 -21.1437 2
    endloop
  endfacet
  facet normal 0 0 1
    outer loop
      vertex -21.25 15.25 2
      vertex 15.6267 21.2382 2
      vertex -15.6267 21.2382 2
    endloop
  endfacet
  facet normal 0 0 1
    outer loop
      vertex -21.25 -15.25 2
      vertex 21.25 -15.25 2
      vertex -21.25 15.25 2
    endloop
  endfacet
  facet normal 0 0 1
    outer loop
      vertex -21.25 15.25 2
      vertex -15.6267 21.2382 2
      vertex -16.3743 21.1437 2
    endloop
  endfacet
  facet normal 0 0 1
    outer loop
      vertex 21.25 -15.25 2
      vertex -21.25 -15.25 2
      vertex 15.6267 -21.2382 2
    endloop
  endfacet
  facet normal 0 0 1
    outer loop
      vertex -21.25 15.25 2
      vertex -16.3743 21.1437 2
      vertex -17.1041 20.9563 2
    endloop
  endfacet
  facet normal 0 0 1
    outer loop
      vertex 15.6267 -21.2382 2
      vertex -21.25 -15.25 2
      vertex -15.6267 -21.2382 2
    endloop
  endfacet
  facet normal 0 0 1
    outer loop
      vertex -21.25 15.25 2
      vertex -17.1041 20.9563 2
      vertex -17.8047 20.679 2
    endloop
  endfacet
  facet normal 0 0 1
    outer loop
      vertex -15.6267 -21.2382 2
      vertex -21.25 -15.25 2
      vertex -16.3743 -21.1437 2
    endloop
  endfacet
  facet normal 0 0 1
    outer loop
      vertex -21.25 15.25 2
      vertex -17.8047 20.679 2
      vertex -18.465 20.316 2
    endloop
  endfacet
  facet normal 0 0 1
    outer loop
      vertex -16.3743 -21.1437 2
      vertex -21.25 -15.25 2
      vertex -17.1041 -20.9563 2
    endloop
  endfacet
  facet normal 0 0 1
    outer loop
      vertex -21.25 15.25 2
      vertex -18.465 20.316 2
      vertex -19.0745 19.8731 2
    endloop
  endfacet
  facet normal 0 0 1
    outer loop
      vertex -17.1041 -20.9563 2
      vertex -21.25 -15.25 2
      vertex -17.8047 -20.679 2
    endloop
  endfacet
  facet normal 0 0 1
    outer loop
      vertex -21.25 15.25 2
      vertex -19.0745 19.8731 2
      vertex -19.6238 19.3573 2
    endloop
  endfacet
  facet normal 0 0 1
    outer loop
      vertex -17.8047 -20.679 2
      vertex -21.25 -15.25 2
      vertex -18.465 -20.316 2
    endloop
  endfacet
  facet normal 0 0 1
    outer loop
      vertex -21.25 15.25 2
      vertex -19.6238 19.3573 2
      vertex -20.1041 18.7767 2
    endloop
  endfacet
  facet normal 0 0 1
    outer loop
      vertex -18.465 -20.316 2
      vertex -21.25 -15.25 2
      vertex -19.0745 -19.8731 2
    endloop
  endfacet
  facet normal 0 0 1
    outer loop
      vertex -21.25 15.25 2
      vertex -20.1041 18.7767 2
      vertex -20.5078 18.1405 2
    endloop
  endfacet
  facet normal 0 0 1
    outer loop
      vertex -19.0745 -19.8731 2
      vertex -21.25 -15.25 2
      vertex -19.6238 -19.3573 2
    endloop
  endfacet
  facet normal 0 0 1
    outer loop
      vertex -21.25 15.25 2
      vertex -20.5078 18.1405 2
      vertex -20.8287 17.4587 2
    endloop
  endfacet
  facet normal 0 0 1
    outer loop
      vertex -19.6238 -19.3573 2
      vertex -21.25 -15.25 2
      vertex -20.1041 -18.7767 2
    endloop
  endfacet
  facet normal 0 0 1
    outer loop
      vertex -21.25 15.25 2
      vertex -20.8287 17.4587 2
      vertex -21.0615 16.7421 2
    endloop
  endfacet
  facet normal 0 0 1
    outer loop
      vertex -20.1041 -18.7767 2
      vertex -21.25 -15.25 2
      vertex -20.5078 -18.1405 2
    endloop
  endfacet
  facet normal 0 0 1
    outer loop
      vertex -21.25 15.25 2
      vertex -21.0615 16.7421 2
      vertex -21.2027 16.002 2
    endloop
  endfacet
  facet normal 0 0 1
    outer loop
      vertex -20.5078 -18.1405 2
      vertex -21.25 -15.25 2
      vertex -20.8287 -17.4587 2
    endloop
  endfacet
  facet normal 0 0 1
    outer loop
      vertex -20.8287 -17.4587 2
      vertex -21.25 -15.25 2
      vertex -21.0615 -16.7421 2
    endloop
  endfacet
  facet normal 0 0 1
    outer loop
      vertex -21.0615 -16.7421 2
      vertex -21.25 -15.25 2
      vertex -21.2027 -16.002 2
    endloop
  endfacet
  facet normal -0.770522 -0.637413 0
    outer loop
      vertex -19.6238 -19.3573 1
      vertex -20.1041 -18.7767 2
      vertex -20.1041 -18.7767 1
    endloop
  endfacet
  facet normal -0.770522 -0.637413 0
    outer loop
      vertex -20.1041 -18.7767 2
      vertex -19.6238 -19.3573 1
      vertex -19.6238 -19.3573 2
    endloop
  endfacet
  facet normal 0 1 -0
    outer loop
      vertex 15.6267 21.2382 1
      vertex -15.6267 21.2382 2
      vertex 15.6267 21.2382 2
    endloop
  endfacet
  facet normal 0 1 0
    outer loop
      vertex -15.6267 21.2382 2
      vertex 15.6267 21.2382 1
      vertex -15.6267 21.2382 1
    endloop
  endfacet
  facet normal 0 -1 0
    outer loop
      vertex -15.6267 -21.2382 1
      vertex 15.6267 -21.2382 2
      vertex -15.6267 -21.2382 2
    endloop
  endfacet
  facet normal 0 -1 -0
    outer loop
      vertex 15.6267 -21.2382 2
      vertex -15.6267 -21.2382 1
      vertex 15.6267 -21.2382 1
    endloop
  endfacet
  facet normal 1 -0 0
    outer loop
      vertex 21.25 -15.25 2
      vertex 21.25 15.25 1
      vertex 21.25 15.25 2
    endloop
  endfacet
  facet normal 1 0 0
    outer loop
      vertex 21.25 15.25 1
      vertex 21.25 -15.25 2
      vertex 21.25 -15.25 1
    endloop
  endfacet
  facet normal -0.904792 0.425855 0
    outer loop
      vertex -20.8287 17.4587 1
      vertex -20.5078 18.1405 2
      vertex -20.5078 18.1405 1
    endloop
  endfacet
  facet normal -0.904792 0.425855 0
    outer loop
      vertex -20.5078 18.1405 2
      vertex -20.8287 17.4587 1
      vertex -20.8287 17.4587 2
    endloop
  endfacet
  facet normal -0.951071 0.308972 0
    outer loop
      vertex -21.0615 16.7421 1
      vertex -20.8287 17.4587 2
      vertex -20.8287 17.4587 1
    endloop
  endfacet
  facet normal -0.951071 0.308972 0
    outer loop
      vertex -20.8287 17.4587 2
      vertex -21.0615 16.7421 1
      vertex -21.0615 16.7421 2
    endloop
  endfacet
  facet normal 0.998028 0.0627749 0
    outer loop
      vertex 21.25 15.25 2
      vertex 21.2027 16.002 1
      vertex 21.2027 16.002 2
    endloop
  endfacet
  facet normal 0.998028 0.0627749 0
    outer loop
      vertex 21.2027 16.002 1
      vertex 21.25 15.25 2
      vertex 21.25 15.25 1
    endloop
  endfacet
  facet normal -0.125407 -0.992105 0
    outer loop
      vertex -16.3743 -21.1437 1
      vertex -15.6267 -21.2382 2
      vertex -16.3743 -21.1437 2
    endloop
  endfacet
  facet normal -0.125407 -0.992105 -0
    outer loop
      vertex -15.6267 -21.2382 2
      vertex -16.3743 -21.1437 1
      vertex -15.6267 -21.2382 1
    endloop
  endfacet
  facet normal 0.770522 -0.637413 0
    outer loop
      vertex 19.6238 -19.3573 2
      vertex 20.1041 -18.7767 1
      vertex 20.1041 -18.7767 2
    endloop
  endfacet
  facet normal 0.770522 -0.637413 0
    outer loop
      vertex 20.1041 -18.7767 1
      vertex 19.6238 -19.3573 2
      vertex 19.6238 -19.3573 1
    endloop
  endfacet
  facet normal -0.982283 0.187405 0
    outer loop
      vertex -21.2027 16.002 1
      vertex -21.0615 16.7421 2
      vertex -21.0615 16.7421 1
    endloop
  endfacet
  facet normal -0.982283 0.187405 0
    outer loop
      vertex -21.0615 16.7421 2
      vertex -21.2027 16.002 1
      vertex -21.2027 16.002 2
    endloop
  endfacet
  facet normal -0.684528 0.728987 0
    outer loop
      vertex -19.0745 19.8731 1
      vertex -19.6238 19.3573 2
      vertex -19.0745 19.8731 2
    endloop
  endfacet
  facet normal -0.684528 0.728987 0
    outer loop
      vertex -19.6238 19.3573 2
      vertex -19.0745 19.8731 1
      vertex -19.6238 19.3573 1
    endloop
  endfacet
  facet normal -0.844355 0.535784 0
    outer loop
      vertex -20.5078 18.1405 1
      vertex -20.1041 18.7767 2
      vertex -20.1041 18.7767 1
    endloop
  endfacet
  facet normal -0.844355 0.535784 0
    outer loop
      vertex -20.1041 18.7767 2
      vertex -20.5078 18.1405 1
      vertex -20.5078 18.1405 2
    endloop
  endfacet
  facet normal -0.770522 0.637413 0
    outer loop
      vertex -20.1041 18.7767 1
      vertex -19.6238 19.3573 2
      vertex -19.6238 19.3573 1
    endloop
  endfacet
  facet normal -0.770522 0.637413 0
    outer loop
      vertex -19.6238 19.3573 2
      vertex -20.1041 18.7767 1
      vertex -20.1041 18.7767 2
    endloop
  endfacet
  facet normal 0.770522 0.637413 0
    outer loop
      vertex 20.1041 18.7767 2
      vertex 19.6238 19.3573 1
      vertex 19.6238 19.3573 2
    endloop
  endfacet
  facet normal 0.770522 0.637413 0
    outer loop
      vertex 19.6238 19.3573 1
      vertex 20.1041 18.7767 2
      vertex 20.1041 18.7767 1
    endloop
  endfacet
  facet normal -0.368025 0.929816 0
    outer loop
      vertex -17.1041 20.9563 1
      vertex -17.8047 20.679 2
      vertex -17.1041 20.9563 2
    endloop
  endfacet
  facet normal -0.368025 0.929816 0
    outer loop
      vertex -17.8047 20.679 2
      vertex -17.1041 20.9563 1
      vertex -17.8047 20.679 1
    endloop
  endfacet
  facet normal -0.125407 0.992105 0
    outer loop
      vertex -15.6267 21.2382 1
      vertex -16.3743 21.1437 2
      vertex -15.6267 21.2382 2
    endloop
  endfacet
  facet normal -0.125407 0.992105 0
    outer loop
      vertex -16.3743 21.1437 2
      vertex -15.6267 21.2382 1
      vertex -16.3743 21.1437 1
    endloop
  endfacet
  facet normal -0.904792 -0.425855 0
    outer loop
      vertex -20.5078 -18.1405 1
      vertex -20.8287 -17.4587 2
      vertex -20.8287 -17.4587 1
    endloop
  endfacet
  facet normal -0.904792 -0.425855 0
    outer loop
      vertex -20.8287 -17.4587 2
      vertex -20.5078 -18.1405 1
      vertex -20.5078 -18.1405 2
    endloop
  endfacet
  facet normal 0.951071 -0.308972 0
    outer loop
      vertex 20.8287 -17.4587 2
      vertex 21.0615 -16.7421 1
      vertex 21.0615 -16.7421 2
    endloop
  endfacet
  facet normal 0.951071 -0.308972 0
    outer loop
      vertex 21.0615 -16.7421 1
      vertex 20.8287 -17.4587 2
      vertex 20.8287 -17.4587 1
    endloop
  endfacet
  facet normal -0.587848 0.808971 0
    outer loop
      vertex -18.465 20.316 1
      vertex -19.0745 19.8731 2
      vertex -18.465 20.316 2
    endloop
  endfacet
  facet normal -0.587848 0.808971 0
    outer loop
      vertex -19.0745 19.8731 2
      vertex -18.465 20.316 1
      vertex -19.0745 19.8731 1
    endloop
  endfacet
  facet normal 0.951071 0.308972 0
    outer loop
      vertex 21.0615 16.7421 2
      vertex 20.8287 17.4587 1
      vertex 20.8287 17.4587 2
    endloop
  endfacet
  facet normal 0.951071 0.308972 0
    outer loop
      vertex 20.8287 17.4587 1
      vertex 21.0615 16.7421 2
      vertex 21.0615 16.7421 1
    endloop
  endfacet
  facet normal 0.904792 0.425855 0
    outer loop
      vertex 20.8287 17.4587 2
      vertex 20.5078 18.1405 1
      vertex 20.5078 18.1405 2
    endloop
  endfacet
  facet normal 0.904792 0.425855 0
    outer loop
      vertex 20.5078 18.1405 1
      vertex 20.8287 17.4587 2
      vertex 20.8287 17.4587 1
    endloop
  endfacet
  facet normal 0.481751 0.876308 -0
    outer loop
      vertex 18.465 20.316 1
      vertex 17.8047 20.679 2
      vertex 18.465 20.316 2
    endloop
  endfacet
  facet normal 0.481751 0.876308 0
    outer loop
      vertex 17.8047 20.679 2
      vertex 18.465 20.316 1
      vertex 17.8047 20.679 1
    endloop
  endfacet
  facet normal 0.684528 0.728987 -0
    outer loop
      vertex 19.6238 19.3573 1
      vertex 19.0745 19.8731 2
      vertex 19.6238 19.3573 2
    endloop
  endfacet
  facet normal 0.684528 0.728987 0
    outer loop
      vertex 19.0745 19.8731 2
      vertex 19.6238 19.3573 1
      vertex 19.0745 19.8731 1
    endloop
  endfacet
  facet normal 0.125407 0.992105 -0
    outer loop
      vertex 16.3743 21.1437 1
      vertex 15.6267 21.2382 2
      vertex 16.3743 21.1437 2
    endloop
  endfacet
  facet normal 0.125407 0.992105 0
    outer loop
      vertex 15.6267 21.2382 2
      vertex 16.3743 21.1437 1
      vertex 15.6267 21.2382 1
    endloop
  endfacet
  facet normal -0.248714 0.968577 0
    outer loop
      vertex -16.3743 21.1437 1
      vertex -17.1041 20.9563 2
      vertex -16.3743 21.1437 2
    endloop
  endfacet
  facet normal -0.248714 0.968577 0
    outer loop
      vertex -17.1041 20.9563 2
      vertex -16.3743 21.1437 1
      vertex -17.1041 20.9563 1
    endloop
  endfacet
  facet normal -0.951071 -0.308972 0
    outer loop
      vertex -20.8287 -17.4587 1
      vertex -21.0615 -16.7421 2
      vertex -21.0615 -16.7421 1
    endloop
  endfacet
  facet normal -0.951071 -0.308972 0
    outer loop
      vertex -21.0615 -16.7421 2
      vertex -20.8287 -17.4587 1
      vertex -20.8287 -17.4587 2
    endloop
  endfacet
  facet normal -0.844355 -0.535784 0
    outer loop
      vertex -20.1041 -18.7767 1
      vertex -20.5078 -18.1405 2
      vertex -20.5078 -18.1405 1
    endloop
  endfacet
  facet normal -0.844355 -0.535784 0
    outer loop
      vertex -20.5078 -18.1405 2
      vertex -20.1041 -18.7767 1
      vertex -20.1041 -18.7767 2
    endloop
  endfacet
  facet normal -0.684528 -0.728987 0
    outer loop
      vertex -19.6238 -19.3573 1
      vertex -19.0745 -19.8731 2
      vertex -19.6238 -19.3573 2
    endloop
  endfacet
  facet normal -0.684528 -0.728987 -0
    outer loop
      vertex -19.0745 -19.8731 2
      vertex -19.6238 -19.3573 1
      vertex -19.0745 -19.8731 1
    endloop
  endfacet
  facet normal 0.587848 -0.808971 0
    outer loop
      vertex 18.465 -20.316 1
      vertex 19.0745 -19.8731 2
      vertex 18.465 -20.316 2
    endloop
  endfacet
  facet normal 0.587848 -0.808971 0
    outer loop
      vertex 19.0745 -19.8731 2
      vertex 18.465 -20.316 1
      vertex 19.0745 -19.8731 1
    endloop
  endfacet
  facet normal 0.982283 -0.187405 0
    outer loop
      vertex 21.0615 -16.7421 2
      vertex 21.2027 -16.002 1
      vertex 21.2027 -16.002 2
    endloop
  endfacet
  facet normal 0.982283 -0.187405 0
    outer loop
      vertex 21.2027 -16.002 1
      vertex 21.0615 -16.7421 2
      vertex 21.0615 -16.7421 1
    endloop
  endfacet
  facet normal 0.904792 -0.425855 0
    outer loop
      vertex 20.5078 -18.1405 2
      vertex 20.8287 -17.4587 1
      vertex 20.8287 -17.4587 2
    endloop
  endfacet
  facet normal 0.904792 -0.425855 0
    outer loop
      vertex 20.8287 -17.4587 1
      vertex 20.5078 -18.1405 2
      vertex 20.5078 -18.1405 1
    endloop
  endfacet
  facet normal 0.982283 0.187405 0
    outer loop
      vertex 21.2027 16.002 2
      vertex 21.0615 16.7421 1
      vertex 21.0615 16.7421 2
    endloop
  endfacet
  facet normal 0.982283 0.187405 0
    outer loop
      vertex 21.0615 16.7421 1
      vertex 21.2027 16.002 2
      vertex 21.2027 16.002 1
    endloop
  endfacet
  facet normal 0.844355 0.535784 0
    outer loop
      vertex 20.5078 18.1405 2
      vertex 20.1041 18.7767 1
      vertex 20.1041 18.7767 2
    endloop
  endfacet
  facet normal 0.844355 0.535784 0
    outer loop
      vertex 20.1041 18.7767 1
      vertex 20.5078 18.1405 2
      vertex 20.5078 18.1405 1
    endloop
  endfacet
  facet normal 0.587848 0.808971 -0
    outer loop
      vertex 19.0745 19.8731 1
      vertex 18.465 20.316 2
      vertex 19.0745 19.8731 2
    endloop
  endfacet
  facet normal 0.587848 0.808971 0
    outer loop
      vertex 18.465 20.316 2
      vertex 19.0745 19.8731 1
      vertex 18.465 20.316 1
    endloop
  endfacet
  facet normal -0.982283 -0.187405 0
    outer loop
      vertex -21.0615 -16.7421 1
      vertex -21.2027 -16.002 2
      vertex -21.2027 -16.002 1
    endloop
  endfacet
  facet normal -0.982283 -0.187405 0
    outer loop
      vertex -21.2027 -16.002 2
      vertex -21.0615 -16.7421 1
      vertex -21.0615 -16.7421 2
    endloop
  endfacet
  facet normal -0.368025 -0.929816 0
    outer loop
      vertex -17.8047 -20.679 1
      vertex -17.1041 -20.9563 2
      vertex -17.8047 -20.679 2
    endloop
  endfacet
  facet normal -0.368025 -0.929816 -0
    outer loop
      vertex -17.1041 -20.9563 2
      vertex -17.8047 -20.679 1
      vertex -17.1041 -20.9563 1
    endloop
  endfacet
  facet normal -0.248714 -0.968577 0
    outer loop
      vertex -17.1041 -20.9563 1
      vertex -16.3743 -21.1437 2
      vertex -17.1041 -20.9563 2
    endloop
  endfacet
  facet normal -0.248714 -0.968577 -0
    outer loop
      vertex -16.3743 -21.1437 2
      vertex -17.1041 -20.9563 1
      vertex -16.3743 -21.1437 1
    endloop
  endfacet
  facet normal -0.481751 -0.876308 0
    outer loop
      vertex -18.465 -20.316 1
      vertex -17.8047 -20.679 2
      vertex -18.465 -20.316 2
    endloop
  endfacet
  facet normal -0.481751 -0.876308 -0
    outer loop
      vertex -17.8047 -20.679 2
      vertex -18.465 -20.316 1
      vertex -17.8047 -20.679 1
    endloop
  endfacet
  facet normal -0.587848 -0.808971 0
    outer loop
      vertex -19.0745 -19.8731 1
      vertex -18.465 -20.316 2
      vertex -19.0745 -19.8731 2
    endloop
  endfacet
  facet normal -0.587848 -0.808971 -0
    outer loop
      vertex -18.465 -20.316 2
      vertex -19.0745 -19.8731 1
      vertex -18.465 -20.316 1
    endloop
  endfacet
  facet normal 0.125407 -0.992105 0
    outer loop
      vertex 15.6267 -21.2382 1
      vertex 16.3743 -21.1437 2
      vertex 15.6267 -21.2382 2
    endloop
  endfacet
  facet normal 0.125407 -0.992105 0
    outer loop
      vertex 16.3743 -21.1437 2
      vertex 15.6267 -21.2382 1
      vertex 16.3743 -21.1437 1
    endloop
  endfacet
  facet normal 0.998028 -0.0627749 0
    outer loop
      vertex 21.2027 -16.002 2
      vertex 21.25 -15.25 1
      vertex 21.25 -15.25 2
    endloop
  endfacet
  facet normal 0.998028 -0.0627749 0
    outer loop
      vertex 21.25 -15.25 1
      vertex 21.2027 -16.002 2
      vertex 21.2027 -16.002 1
    endloop
  endfacet
  facet normal 0.844355 -0.535784 0
    outer loop
      vertex 20.1041 -18.7767 2
      vertex 20.5078 -18.1405 1
      vertex 20.5078 -18.1405 2
    endloop
  endfacet
  facet normal 0.844355 -0.535784 0
    outer loop
      vertex 20.5078 -18.1405 1
      vertex 20.1041 -18.7767 2
      vertex 20.1041 -18.7767 1
    endloop
  endfacet
  facet normal 0.248714 0.968577 -0
    outer loop
      vertex 17.1041 20.9563 1
      vertex 16.3743 21.1437 2
      vertex 17.1041 20.9563 2
    endloop
  endfacet
  facet normal 0.248714 0.968577 0
    outer loop
      vertex 16.3743 21.1437 2
      vertex 17.1041 20.9563 1
      vertex 16.3743 21.1437 1
    endloop
  endfacet
  facet normal 0.368025 0.929816 -0
    outer loop
      vertex 17.8047 20.679 1
      vertex 17.1041 20.9563 2
      vertex 17.8047 20.679 2
    endloop
  endfacet
  facet normal 0.368025 0.929816 0
    outer loop
      vertex 17.1041 20.9563 2
      vertex 17.8047 20.679 1
      vertex 17.1041 20.9563 1
    endloop
  endfacet
  facet normal 0.248714 -0.968577 0
    outer loop
      vertex 16.3743 -21.1437 1
      vertex 17.1041 -20.9563 2
      vertex 16.3743 -21.1437 2
    endloop
  endfacet
  facet normal 0.248714 -0.968577 0
    outer loop
      vertex 17.1041 -20.9563 2
      vertex 16.3743 -21.1437 1
      vertex 17.1041 -20.9563 1
    endloop
  endfacet
  facet normal 0.368025 -0.929816 0
    outer loop
      vertex 17.1041 -20.9563 1
      vertex 17.8047 -20.679 2
      vertex 17.1041 -20.9563 2
    endloop
  endfacet
  facet normal 0.368025 -0.929816 0
    outer loop
      vertex 17.8047 -20.679 2
      vertex 17.1041 -20.9563 1
      vertex 17.8047 -20.679 1
    endloop
  endfacet
  facet normal 0.481751 -0.876308 0
    outer loop
      vertex 17.8047 -20.679 1
      vertex 18.465 -20.316 2
      vertex 17.8047 -20.679 2
    endloop
  endfacet
  facet normal 0.481751 -0.876308 0
    outer loop
      vertex 18.465 -20.316 2
      vertex 17.8047 -20.679 1
      vertex 18.465 -20.316 1
    endloop
  endfacet
  facet normal 0.684528 -0.728987 0
    outer loop
      vertex 19.0745 -19.8731 1
      vertex 19.6238 -19.3573 2
      vertex 19.0745 -19.8731 2
    endloop
  endfacet
  facet normal 0.684528 -0.728987 0
    outer loop
      vertex 19.6238 -19.3573 2
      vertex 19.0745 -19.8731 1
      vertex 19.6238 -19.3573 1
    endloop
  endfacet
  facet normal 0.844364 0.53577 0
    outer loop
      vertex 26.3815 2.40877 1
      vertex 26.0451 2.93893 0
      vertex 26.0451 2.93893 1
    endloop
  endfacet
  facet normal 0.844364 0.53577 0
    outer loop
      vertex 26.0451 2.93893 0
      vertex 26.3815 2.40877 1
      vertex 26.3815 2.40877 0
    endloop
  endfacet
  facet normal 0.368135 0.929773 -0
    outer loop
      vertex 24.1289 4.52413 0
      vertex 23.5451 4.75528 1
      vertex 24.1289 4.52413 1
    endloop
  endfacet
  facet normal 0.368135 0.929773 0
    outer loop
      vertex 23.5451 4.75528 1
      vertex 24.1289 4.52413 0
      vertex 23.5451 4.75528 0
    endloop
  endfacet
  facet normal 0.982275 -0.187446 0
    outer loop
      vertex 26.8429 -1.24345 1
      vertex 26.9606 -0.626666 0
      vertex 26.9606 -0.626666 1
    endloop
  endfacet
  facet normal 0.982275 -0.187446 0
    outer loop
      vertex 26.9606 -0.626666 0
      vertex 26.8429 -1.24345 1
      vertex 26.8429 -1.24345 0
    endloop
  endfacet
  facet normal 0.982275 0.187446 0
    outer loop
      vertex 26.9606 0.626666 1
      vertex 26.8429 1.24345 0
      vertex 26.8429 1.24345 1
    endloop
  endfacet
  facet normal 0.982275 0.187446 0
    outer loop
      vertex 26.8429 1.24345 0
      vertex 26.9606 0.626666 1
      vertex 26.9606 0.626666 0
    endloop
  endfacet
  facet normal 0.684565 0.728952 -0
    outer loop
      vertex 25.6448 3.42274 0
      vertex 25.1871 3.85257 1
      vertex 25.6448 3.42274 1
    endloop
  endfacet
  facet normal 0.684565 0.728952 0
    outer loop
      vertex 25.1871 3.85257 1
      vertex 25.6448 3.42274 0
      vertex 25.1871 3.85257 0
    endloop
  endfacet
  facet normal 0 1 -0
    outer loop
      vertex 22.314 4.99013 0
      vertex 22 4.99013 1
      vertex 22.314 4.99013 1
    endloop
  endfacet
  facet normal 0 1 0
    outer loop
      vertex 22 4.99013 1
      vertex 22.314 4.99013 0
      vertex 22 4.99013 0
    endloop
  endfacet
  facet normal 0.481772 0.876297 -0
    outer loop
      vertex 24.6791 4.22164 0
      vertex 24.1289 4.52413 1
      vertex 24.6791 4.22164 1
    endloop
  endfacet
  facet normal 0.481772 0.876297 0
    outer loop
      vertex 24.1289 4.52413 1
      vertex 24.6791 4.22164 0
      vertex 24.1289 4.52413 0
    endloop
  endfacet
  facet normal 0.998029 0.0627485 0
    outer loop
      vertex 27 0 1
      vertex 26.9606 0.626666 0
      vertex 26.9606 0.626666 1
    endloop
  endfacet
  facet normal 0.998029 0.0627485 0
    outer loop
      vertex 26.9606 0.626666 0
      vertex 27 0 1
      vertex 27 0 0
    endloop
  endfacet
  facet normal 0.587771 -0.809027 0
    outer loop
      vertex 24.6791 -4.22164 0
      vertex 25.1871 -3.85257 1
      vertex 24.6791 -4.22164 1
    endloop
  endfacet
  facet normal 0.587771 -0.809027 0
    outer loop
      vertex 25.1871 -3.85257 1
      vertex 24.6791 -4.22164 0
      vertex 25.1871 -3.85257 0
    endloop
  endfacet
  facet normal 0.951072 -0.30897 0
    outer loop
      vertex 26.6489 -1.84062 1
      vertex 26.8429 -1.24345 0
      vertex 26.8429 -1.24345 1
    endloop
  endfacet
  facet normal 0.951072 -0.30897 0
    outer loop
      vertex 26.8429 -1.24345 0
      vertex 26.6489 -1.84062 1
      vertex 26.6489 -1.84062 0
    endloop
  endfacet
  facet normal 0.770468 0.637478 0
    outer loop
      vertex 26.0451 2.93893 1
      vertex 25.6448 3.42274 0
      vertex 25.6448 3.42274 1
    endloop
  endfacet
  facet normal 0.770468 0.637478 0
    outer loop
      vertex 25.6448 3.42274 0
      vertex 26.0451 2.93893 1
      vertex 26.0451 2.93893 0
    endloop
  endfacet
  facet normal 0.248691 0.968583 -0
    outer loop
      vertex 23.5451 4.75528 0
      vertex 22.9369 4.91144 1
      vertex 23.5451 4.75528 1
    endloop
  endfacet
  facet normal 0.248691 0.968583 0
    outer loop
      vertex 22.9369 4.91144 1
      vertex 23.5451 4.75528 0
      vertex 22.9369 4.91144 0
    endloop
  endfacet
  facet normal 0.125332 0.992115 -0
    outer loop
      vertex 22.9369 4.91144 0
      vertex 22.314 4.99013 1
      vertex 22.9369 4.91144 1
    endloop
  endfacet
  facet normal 0.125332 0.992115 0
    outer loop
      vertex 22.314 4.99013 1
      vertex 22.9369 4.91144 0
      vertex 22.314 4.99013 0
    endloop
  endfacet
  facet normal 0.587771 0.809027 -0
    outer loop
      vertex 25.1871 3.85257 0
      vertex 24.6791 4.22164 1
      vertex 25.1871 3.85257 1
    endloop
  endfacet
  facet normal 0.587771 0.809027 0
    outer loop
      vertex 24.6791 4.22164 1
      vertex 25.1871 3.85257 0
      vertex 24.6791 4.22164 0
    endloop
  endfacet
  facet normal 0.998029 -0.0627485 0
    outer loop
      vertex 26.9606 -0.626666 1
      vertex 27 0 0
      vertex 27 0 1
    endloop
  endfacet
  facet normal 0.998029 -0.0627485 0
    outer loop
      vertex 27 0 0
      vertex 26.9606 -0.626666 1
      vertex 26.9606 -0.626666 0
    endloop
  endfacet
  facet normal 0.248691 -0.968583 0
    outer loop
      vertex 22.9369 -4.91144 0
      vertex 23.5451 -4.75528 1
      vertex 22.9369 -4.91144 1
    endloop
  endfacet
  facet normal 0.248691 -0.968583 0
    outer loop
      vertex 23.5451 -4.75528 1
      vertex 22.9369 -4.91144 0
      vertex 23.5451 -4.75528 0
    endloop
  endfacet
  facet normal 0.481772 -0.876297 0
    outer loop
      vertex 24.1289 -4.52413 0
      vertex 24.6791 -4.22164 1
      vertex 24.1289 -4.52413 1
    endloop
  endfacet
  facet normal 0.481772 -0.876297 0
    outer loop
      vertex 24.6791 -4.22164 1
      vertex 24.1289 -4.52413 0
      vertex 24.6791 -4.22164 0
    endloop
  endfacet
  facet normal 0.904797 0.425843 0
    outer loop
      vertex 26.6489 1.84062 1
      vertex 26.3815 2.40877 0
      vertex 26.3815 2.40877 1
    endloop
  endfacet
  facet normal 0.904797 0.425843 0
    outer loop
      vertex 26.3815 2.40877 0
      vertex 26.6489 1.84062 1
      vertex 26.6489 1.84062 0
    endloop
  endfacet
  facet normal 0.951072 0.30897 0
    outer loop
      vertex 26.8429 1.24345 1
      vertex 26.6489 1.84062 0
      vertex 26.6489 1.84062 1
    endloop
  endfacet
  facet normal 0.951072 0.30897 0
    outer loop
      vertex 26.6489 1.84062 0
      vertex 26.8429 1.24345 1
      vertex 26.8429 1.24345 0
    endloop
  endfacet
  facet normal 0.770468 -0.637478 0
    outer loop
      vertex 25.6448 -3.42274 1
      vertex 26.0451 -2.93893 0
      vertex 26.0451 -2.93893 1
    endloop
  endfacet
  facet normal 0.770468 -0.637478 0
    outer loop
      vertex 26.0451 -2.93893 0
      vertex 25.6448 -3.42274 1
      vertex 25.6448 -3.42274 0
    endloop
  endfacet
  facet normal 0.844364 -0.53577 0
    outer loop
      vertex 26.0451 -2.93893 1
      vertex 26.3815 -2.40877 0
      vertex 26.3815 -2.40877 1
    endloop
  endfacet
  facet normal 0.844364 -0.53577 0
    outer loop
      vertex 26.3815 -2.40877 0
      vertex 26.0451 -2.93893 1
      vertex 26.0451 -2.93893 0
    endloop
  endfacet
  facet normal 0.904797 -0.425843 0
    outer loop
      vertex 26.3815 -2.40877 1
      vertex 26.6489 -1.84062 0
      vertex 26.6489 -1.84062 1
    endloop
  endfacet
  facet normal 0.904797 -0.425843 0
    outer loop
      vertex 26.6489 -1.84062 0
      vertex 26.3815 -2.40877 1
      vertex 26.3815 -2.40877 0
    endloop
  endfacet
  facet normal 0 -1 0
    outer loop
      vertex 22 -4.99013 0
      vertex 22.314 -4.99013 1
      vertex 22 -4.99013 1
    endloop
  endfacet
  facet normal 0 -1 -0
    outer loop
      vertex 22.314 -4.99013 1
      vertex 22 -4.99013 0
      vertex 22.314 -4.99013 0
    endloop
  endfacet
  facet normal 0.368135 -0.929773 0
    outer loop
      vertex 23.5451 -4.75528 0
      vertex 24.1289 -4.52413 1
      vertex 23.5451 -4.75528 1
    endloop
  endfacet
  facet normal 0.368135 -0.929773 0
    outer loop
      vertex 24.1289 -4.52413 1
      vertex 23.5451 -4.75528 0
      vertex 24.1289 -4.52413 0
    endloop
  endfacet
  facet normal 0.684565 -0.728952 0
    outer loop
      vertex 25.1871 -3.85257 0
      vertex 25.6448 -3.42274 1
      vertex 25.1871 -3.85257 1
    endloop
  endfacet
  facet normal 0.684565 -0.728952 0
    outer loop
      vertex 25.6448 -3.42274 1
      vertex 25.1871 -3.85257 0
      vertex 25.6448 -3.42274 0
    endloop
  endfacet
  facet normal 0.125332 -0.992115 0
    outer loop
      vertex 22.314 -4.99013 0
      vertex 22.9369 -4.91144 1
      vertex 22.314 -4.99013 1
    endloop
  endfacet
  facet normal 0.125332 -0.992115 0
    outer loop
      vertex 22.9369 -4.91144 1
      vertex 22.314 -4.99013 0
      vertex 22.9369 -4.91144 0
    endloop
  endfacet
endsolid OpenSCAD_Model
