<?xml version="1.0" standalone="no"?>
<!DOCTYPE svg PUBLIC "-//W3C//DTD SVG 1.1//EN" "http://www.w3.org/Graphics/SVG/1.1/DTD/svg11.dtd">
<svg width="30mm" height="244mm" viewBox="-15 -374 30 244" xmlns="http://www.w3.org/2000/svg" version="1.1">
<title>OpenSCAD Model</title>
<path d="
M 10.9369,-298.589 L 11.5451,-298.745 L 12.1289,-298.976 L 12.6791,-299.278 L 13.1871,-299.647 L 13.6448,-300.077
 L 14.0451,-300.561 L 14.3815,-301.091 L 14.6489,-301.659 L 14.8429,-302.257 L 14.9606,-302.873 L 15,-303.5
 L 15,-368.5 L 14.9606,-369.127 L 14.8429,-369.743 L 14.6489,-370.341 L 14.3815,-370.909 L 14.0451,-371.439
 L 13.6448,-371.923 L 13.1871,-372.353 L 12.6791,-372.722 L 12.1289,-373.024 L 11.5451,-373.255 L 10.9369,-373.411
 L 10.3139,-373.49 L -10.3139,-373.49 L -10.9369,-373.411 L -11.5451,-373.255 L -12.1289,-373.024 L -12.6791,-372.722
 L -13.1871,-372.353 L -13.6448,-371.923 L -14.0451,-371.439 L -14.3815,-370.909 L -14.6489,-370.341 L -14.8429,-369.743
 L -14.9606,-369.127 L -15,-368.5 L -15,-303.5 L -14.9606,-302.873 L -14.8429,-302.257 L -14.6489,-301.659
 L -14.3815,-301.091 L -14.0451,-300.561 L -13.6448,-300.077 L -13.1871,-299.647 L -12.6791,-299.278 L -12.1289,-298.976
 L -11.5451,-298.745 L -10.9369,-298.589 L -10.3139,-298.51 L 10.3139,-298.51 z
M -4.81104,-299.009 L -4.32086,-299.278 L -3.81287,-299.647 L -3.35515,-300.077 L -2.95491,-300.561 L -2.61845,-301.091
 L -2.3511,-301.659 L -2.15707,-302.257 L -2.03941,-302.873 L -2,-303.5 L -2,-306.5 L -2.03941,-307.127
 L -2.15707,-307.743 L -2.3511,-308.341 L -2.61845,-308.909 L -2.95491,-309.439 L -3.35515,-309.923 L -3.81287,-310.353
 L -4.32086,-310.722 L -4.87109,-311.024 L -5.45491,-311.255 L -6.06308,-311.411 L -6.68604,-311.49 L -10.3139,-311.49
 L -10.9369,-311.411 L -11.5451,-311.255 L -12.1289,-311.024 L -12.6791,-310.722 L -13.1871,-310.353 L -13.6448,-309.923
 L -14.0451,-309.439 L -14.3815,-308.909 L -14.5,-308.657 L -14.5,-368.5 L -14.4645,-369.064 L -14.3586,-369.619
 L -14.184,-370.157 L -13.9434,-370.668 L -13.6406,-371.145 L -13.2803,-371.58 L -12.8684,-371.967 L -12.4112,-372.299
 L -11.916,-372.572 L -11.3906,-372.78 L -10.8432,-372.92 L -10.2825,-372.991 L 10.2825,-372.991 L 10.8432,-372.92
 L 11.3906,-372.78 L 11.916,-372.572 L 12.4112,-372.299 L 12.8684,-371.967 L 13.2803,-371.58 L 13.6406,-371.145
 L 13.9434,-370.668 L 14.184,-370.157 L 14.3586,-369.619 L 14.4645,-369.064 L 14.5,-368.5 L 14.5,-303.5
 L 14.4645,-302.936 L 14.3586,-302.381 L 14.184,-301.843 L 13.9434,-301.332 L 13.6406,-300.855 L 13.2803,-300.42
 L 12.8684,-300.033 L 12.4112,-299.701 L 11.916,-299.428 L 11.3906,-299.22 L 10.8432,-299.08 L 10.2825,-299.009
 z
M 7.96844,-363.544 L 8.27254,-363.622 L 8.56444,-363.738 L 8.83955,-363.889 L 9.09355,-364.074 L 9.32242,-364.289
 L 9.52254,-364.531 L 9.69077,-364.796 L 9.82443,-365.08 L 9.92145,-365.378 L 9.98029,-365.687 L 10,-366
 L 9.98029,-366.313 L 9.92145,-366.622 L 9.82443,-366.92 L 9.69077,-367.204 L 9.52254,-367.469 L 9.32242,-367.711
 L 9.09355,-367.926 L 8.83955,-368.111 L 8.56444,-368.262 L 8.27254,-368.378 L 7.96844,-368.456 L 7.65697,-368.495
 L 7.34302,-368.495 L 7.03154,-368.456 L 6.72745,-368.378 L 6.43555,-368.262 L 6.16043,-368.111 L 5.90643,-367.926
 L 5.67757,-367.711 L 5.47745,-367.469 L 5.30922,-367.204 L 5.17555,-366.92 L 5.07854,-366.622 L 5.0197,-366.313
 L 5,-366 L 5.0197,-365.687 L 5.07854,-365.378 L 5.17555,-365.08 L 5.30922,-364.796 L 5.47745,-364.531
 L 5.67757,-364.289 L 5.90643,-364.074 L 6.16043,-363.889 L 6.43555,-363.738 L 6.72745,-363.622 L 7.03154,-363.544
 L 7.34302,-363.505 L 7.65697,-363.505 z
M 7.40581,-364.503 L 7.21892,-364.527 L 7.03647,-364.573 L 6.86133,-364.643 L 6.69626,-364.734 L 6.54385,-364.844
 L 6.40654,-364.973 L 6.28647,-365.118 L 6.18553,-365.277 L 6.10533,-365.448 L 6.04712,-365.627 L 6.01183,-365.812
 L 6,-366 L 6.01183,-366.188 L 6.04712,-366.373 L 6.10533,-366.552 L 6.18553,-366.723 L 6.28647,-366.882
 L 6.40654,-367.027 L 6.54385,-367.156 L 6.69626,-367.266 L 6.86133,-367.357 L 7.03647,-367.427 L 7.21892,-367.473
 L 7.40581,-367.497 L 7.59418,-367.497 L 7.78107,-367.473 L 7.96352,-367.427 L 8.13866,-367.357 L 8.30373,-367.266
 L 8.45613,-367.156 L 8.59344,-367.027 L 8.71352,-366.882 L 8.81445,-366.723 L 8.89465,-366.552 L 8.95287,-366.373
 L 8.98816,-366.188 L 9,-366 L 8.98816,-365.812 L 8.95287,-365.627 L 8.89465,-365.448 L 8.81445,-365.277
 L 8.71352,-365.118 L 8.59344,-364.973 L 8.45613,-364.844 L 8.30373,-364.734 L 8.13866,-364.643 L 7.96352,-364.573
 L 7.78107,-364.527 L 7.59418,-364.503 z
M -7.59418,-304.503 L -7.78107,-304.527 L -7.96352,-304.573 L -8.13866,-304.643 L -8.30373,-304.734 L -8.45613,-304.844
 L -8.59344,-304.973 L -8.71352,-305.118 L -8.81445,-305.277 L -8.89465,-305.448 L -8.95287,-305.627 L -8.98816,-305.812
 L -9,-306 L -8.98816,-306.188 L -8.95287,-306.373 L -8.89465,-306.552 L -8.81445,-306.723 L -8.71352,-306.882
 L -8.59344,-307.027 L -8.45613,-307.156 L -8.30373,-307.266 L -8.13866,-307.357 L -7.96352,-307.427 L -7.78107,-307.473
 L -7.59418,-307.497 L -7.40581,-307.497 L -7.21892,-307.473 L -7.03647,-307.427 L -6.86133,-307.357 L -6.69626,-307.266
 L -6.54385,-307.156 L -6.40654,-307.027 L -6.28647,-306.882 L -6.18553,-306.723 L -6.10533,-306.552 L -6.04712,-306.373
 L -6.01183,-306.188 L -6,-306 L -6.01183,-305.812 L -6.04712,-305.627 L -6.10533,-305.448 L -6.18553,-305.277
 L -6.28647,-305.118 L -6.40654,-304.973 L -6.54385,-304.844 L -6.69626,-304.734 L -6.86133,-304.643 L -7.03647,-304.573
 L -7.21892,-304.527 L -7.40581,-304.503 z
M 10.9369,-214.589 L 11.5451,-214.745 L 12.1289,-214.976 L 12.6791,-215.278 L 13.1871,-215.647 L 13.6448,-216.077
 L 14.0451,-216.561 L 14.3815,-217.091 L 14.6489,-217.659 L 14.8429,-218.257 L 14.9606,-218.873 L 15,-219.5
 L 15,-284.5 L 14.9606,-285.127 L 14.8429,-285.743 L 14.6489,-286.341 L 14.3815,-286.909 L 14.0451,-287.439
 L 13.6448,-287.923 L 13.1871,-288.353 L 12.6791,-288.722 L 12.1289,-289.024 L 11.5451,-289.255 L 10.9369,-289.411
 L 10.3139,-289.49 L -10.3139,-289.49 L -10.9369,-289.411 L -11.5451,-289.255 L -12.1289,-289.024 L -12.6791,-288.722
 L -13.1871,-288.353 L -13.6448,-287.923 L -14.0451,-287.439 L -14.3815,-286.909 L -14.6489,-286.341 L -14.8429,-285.743
 L -14.9606,-285.127 L -15,-284.5 L -15,-219.5 L -14.9606,-218.873 L -14.8429,-218.257 L -14.6489,-217.659
 L -14.3815,-217.091 L -14.0451,-216.561 L -13.6448,-216.077 L -13.1871,-215.647 L -12.6791,-215.278 L -12.1289,-214.976
 L -11.5451,-214.745 L -10.9369,-214.589 L -10.3139,-214.51 L 10.3139,-214.51 z
M -4.03568,-215.486 L -3.81287,-215.647 L -3.35515,-216.077 L -2.95491,-216.561 L -2.61845,-217.091 L -2.3511,-217.659
 L -2.15707,-218.257 L -2.03941,-218.873 L -2,-219.5 L -2,-222.5 L -2.03941,-223.127 L -2.15707,-223.743
 L -2.3511,-224.341 L -2.61845,-224.909 L -2.95491,-225.439 L -3.35515,-225.923 L -3.81287,-226.353 L -4.32086,-226.722
 L -4.87109,-227.024 L -5.45491,-227.255 L -6.06308,-227.411 L -6.68604,-227.49 L -10.3139,-227.49 L -10.9369,-227.411
 L -11.5451,-227.255 L -12.1289,-227.024 L -12.6791,-226.722 L -13.1871,-226.353 L -13.6448,-225.923 L -14.0224,-225.466
 L -14.0224,-284.5 L -13.9907,-285.004 L -13.896,-285.5 L -13.7399,-285.981 L -13.5248,-286.438 L -13.2542,-286.864
 L -12.9322,-287.254 L -12.5639,-287.599 L -12.1553,-287.896 L -11.7126,-288.14 L -11.243,-288.326 L -10.7537,-288.451
 L -10.2526,-288.514 L 4.03568,-288.514 L 3.81287,-288.353 L 3.35515,-287.923 L 2.95491,-287.439 L 2.61845,-286.909
 L 2.3511,-286.341 L 2.15707,-285.743 L 2.03941,-285.127 L 2,-284.5 L 2,-281.5 L 2.03941,-280.873
 L 2.15707,-280.257 L 2.3511,-279.659 L 2.61845,-279.091 L 2.95491,-278.561 L 3.35515,-278.077 L 3.81287,-277.647
 L 4.32086,-277.278 L 4.87109,-276.976 L 5.45491,-276.745 L 6.06308,-276.589 L 6.68604,-276.51 L 10.3139,-276.51
 L 10.9369,-276.589 L 11.5451,-276.745 L 12.1289,-276.976 L 12.6791,-277.278 L 13.1871,-277.647 L 13.6448,-278.077
 L 14.0224,-278.534 L 14.0224,-219.5 L 13.9907,-218.996 L 13.896,-218.5 L 13.7399,-218.019 L 13.5248,-217.562
 L 13.2542,-217.136 L 12.9322,-216.746 L 12.5639,-216.401 L 12.1553,-216.104 L 11.7126,-215.86 L 11.243,-215.674
 L 10.7537,-215.549 L 10.2526,-215.486 z
M 7.40581,-280.503 L 7.21892,-280.527 L 7.03647,-280.573 L 6.86133,-280.643 L 6.69626,-280.734 L 6.54385,-280.844
 L 6.40654,-280.973 L 6.28647,-281.118 L 6.18553,-281.277 L 6.10533,-281.448 L 6.04712,-281.627 L 6.01183,-281.812
 L 6,-282 L 6.01183,-282.188 L 6.04712,-282.373 L 6.10533,-282.552 L 6.18553,-282.723 L 6.28647,-282.882
 L 6.40654,-283.027 L 6.54385,-283.156 L 6.69626,-283.266 L 6.86133,-283.357 L 7.03647,-283.427 L 7.21892,-283.473
 L 7.40581,-283.497 L 7.59418,-283.497 L 7.78107,-283.473 L 7.96352,-283.427 L 8.13866,-283.357 L 8.30373,-283.266
 L 8.45613,-283.156 L 8.59344,-283.027 L 8.71352,-282.882 L 8.81445,-282.723 L 8.89465,-282.552 L 8.95287,-282.373
 L 8.98816,-282.188 L 9,-282 L 8.98816,-281.812 L 8.95287,-281.627 L 8.89465,-281.448 L 8.81445,-281.277
 L 8.71352,-281.118 L 8.59344,-280.973 L 8.45613,-280.844 L 8.30373,-280.734 L 8.13866,-280.643 L 7.96352,-280.573
 L 7.78107,-280.527 L 7.59418,-280.503 z
M -7.59418,-220.503 L -7.78107,-220.527 L -7.96352,-220.573 L -8.13866,-220.643 L -8.30373,-220.734 L -8.45613,-220.844
 L -8.59344,-220.973 L -8.71352,-221.118 L -8.81445,-221.277 L -8.89465,-221.448 L -8.95287,-221.627 L -8.98816,-221.812
 L -9,-222 L -8.98816,-222.188 L -8.95287,-222.373 L -8.89465,-222.552 L -8.81445,-222.723 L -8.71352,-222.882
 L -8.59344,-223.027 L -8.45613,-223.156 L -8.30373,-223.266 L -8.13866,-223.357 L -7.96352,-223.427 L -7.78107,-223.473
 L -7.59418,-223.497 L -7.40581,-223.497 L -7.21892,-223.473 L -7.03647,-223.427 L -6.86133,-223.357 L -6.69626,-223.266
 L -6.54385,-223.156 L -6.40654,-223.027 L -6.28647,-222.882 L -6.18553,-222.723 L -6.10533,-222.552 L -6.04712,-222.373
 L -6.01183,-222.188 L -6,-222 L -6.01183,-221.812 L -6.04712,-221.627 L -6.10533,-221.448 L -6.18553,-221.277
 L -6.28647,-221.118 L -6.40654,-220.973 L -6.54385,-220.844 L -6.69626,-220.734 L -6.86133,-220.643 L -7.03647,-220.573
 L -7.21892,-220.527 L -7.40581,-220.503 z
M 10.9369,-130.589 L 11.5451,-130.745 L 12.1289,-130.976 L 12.6791,-131.278 L 13.1871,-131.647 L 13.6448,-132.077
 L 14.0451,-132.561 L 14.3815,-133.091 L 14.6489,-133.659 L 14.8429,-134.257 L 14.9606,-134.873 L 15,-135.5
 L 15,-200.5 L 14.9606,-201.127 L 14.8429,-201.743 L 14.6489,-202.341 L 14.3815,-202.909 L 14.0451,-203.439
 L 13.6448,-203.923 L 13.1871,-204.353 L 12.6791,-204.722 L 12.1289,-205.024 L 11.5451,-205.255 L 10.9369,-205.411
 L 10.3139,-205.49 L -10.3139,-205.49 L -10.9369,-205.411 L -11.5451,-205.255 L -12.1289,-205.024 L -12.6791,-204.722
 L -13.1871,-204.353 L -13.6448,-203.923 L -14.0451,-203.439 L -14.3815,-202.909 L -14.6489,-202.341 L -14.8429,-201.743
 L -14.9606,-201.127 L -15,-200.5 L -15,-135.5 L -14.9606,-134.873 L -14.8429,-134.257 L -14.6489,-133.659
 L -14.3815,-133.091 L -14.0451,-132.561 L -13.6448,-132.077 L -13.1871,-131.647 L -12.6791,-131.278 L -12.1289,-130.976
 L -11.5451,-130.745 L -10.9369,-130.589 L -10.3139,-130.51 L 10.3139,-130.51 z
M 7.34929,-195.605 L 7.05028,-195.643 L 6.75835,-195.717 L 6.47812,-195.828 L 6.214,-195.974 L 5.97017,-196.151
 L 5.75047,-196.357 L 5.55835,-196.589 L 5.39685,-196.844 L 5.26852,-197.117 L 5.1754,-197.403 L 5.11891,-197.699
 L 5.09999,-198 L 5.11891,-198.301 L 5.1754,-198.597 L 5.26852,-198.883 L 5.39685,-199.156 L 5.55835,-199.411
 L 5.75047,-199.643 L 5.97017,-199.849 L 6.214,-200.026 L 6.47812,-200.172 L 6.75835,-200.283 L 7.05028,-200.357
 L 7.34929,-200.395 L 7.6507,-200.395 L 7.94971,-200.357 L 8.24164,-200.283 L 8.52187,-200.172 L 8.78598,-200.026
 L 9.02982,-199.849 L 9.24951,-199.643 L 9.44164,-199.411 L 9.60313,-199.156 L 9.73146,-198.883 L 9.82458,-198.597
 L 9.88107,-198.301 L 9.89999,-198 L 9.88107,-197.699 L 9.82458,-197.403 L 9.73146,-197.117 L 9.60313,-196.844
 L 9.44164,-196.589 L 9.24951,-196.357 L 9.02982,-196.151 L 8.78598,-195.974 L 8.52187,-195.828 L 8.24164,-195.717
 L 7.94971,-195.643 L 7.6507,-195.605 z
M -7.59418,-196.503 L -7.78107,-196.527 L -7.96352,-196.573 L -8.13866,-196.643 L -8.30373,-196.734 L -8.45613,-196.844
 L -8.59344,-196.973 L -8.71352,-197.118 L -8.81445,-197.277 L -8.89465,-197.448 L -8.95287,-197.627 L -8.98816,-197.812
 L -9,-198 L -8.98816,-198.188 L -8.95287,-198.373 L -8.89465,-198.552 L -8.81445,-198.723 L -8.71352,-198.882
 L -8.59344,-199.027 L -8.45613,-199.156 L -8.30373,-199.266 L -8.13866,-199.357 L -7.96352,-199.427 L -7.78107,-199.473
 L -7.59418,-199.497 L -7.40581,-199.497 L -7.21892,-199.473 L -7.03647,-199.427 L -6.86133,-199.357 L -6.69626,-199.266
 L -6.54385,-199.156 L -6.40654,-199.027 L -6.28647,-198.882 L -6.18553,-198.723 L -6.10533,-198.552 L -6.04712,-198.373
 L -6.01183,-198.188 L -6,-198 L -6.01183,-197.812 L -6.04712,-197.627 L -6.10533,-197.448 L -6.18553,-197.277
 L -6.28647,-197.118 L -6.40654,-196.973 L -6.54385,-196.844 L -6.69626,-196.734 L -6.86133,-196.643 L -7.03647,-196.573
 L -7.21892,-196.527 L -7.40581,-196.503 z
M -7.6507,-135.605 L -7.94971,-135.643 L -8.24164,-135.717 L -8.52187,-135.828 L -8.78598,-135.974 L -9.02982,-136.151
 L -9.24951,-136.357 L -9.44164,-136.589 L -9.60313,-136.844 L -9.73146,-137.117 L -9.82458,-137.403 L -9.88107,-137.699
 L -9.89999,-138 L -9.88107,-138.301 L -9.82458,-138.597 L -9.73146,-138.883 L -9.60313,-139.156 L -9.44164,-139.411
 L -9.24951,-139.643 L -9.02982,-139.849 L -8.78598,-140.026 L -8.52187,-140.172 L -8.24164,-140.283 L -7.94971,-140.357
 L -7.6507,-140.395 L -7.34929,-140.395 L -7.05028,-140.357 L -6.75835,-140.283 L -6.47812,-140.172 L -6.214,-140.026
 L -5.97017,-139.849 L -5.75047,-139.643 L -5.55835,-139.411 L -5.39685,-139.156 L -5.26852,-138.883 L -5.1754,-138.597
 L -5.11891,-138.301 L -5.09999,-138 L -5.11891,-137.699 L -5.1754,-137.403 L -5.26852,-137.117 L -5.39685,-136.844
 L -5.55835,-136.589 L -5.75047,-136.357 L -5.97017,-136.151 L -6.214,-135.974 L -6.47812,-135.828 L -6.75835,-135.717
 L -7.05028,-135.643 L -7.34929,-135.605 z
M 7.40581,-136.503 L 7.21892,-136.527 L 7.03647,-136.573 L 6.86133,-136.643 L 6.69626,-136.734 L 6.54385,-136.844
 L 6.40654,-136.973 L 6.28647,-137.118 L 6.18553,-137.277 L 6.10533,-137.448 L 6.04712,-137.627 L 6.01183,-137.812
 L 6,-138 L 6.01183,-138.188 L 6.04712,-138.373 L 6.10533,-138.552 L 6.18553,-138.723 L 6.28647,-138.882
 L 6.40654,-139.027 L 6.54385,-139.156 L 6.69626,-139.266 L 6.86133,-139.357 L 7.03647,-139.427 L 7.21892,-139.473
 L 7.40581,-139.497 L 7.59418,-139.497 L 7.78107,-139.473 L 7.96352,-139.427 L 8.13866,-139.357 L 8.30373,-139.266
 L 8.45613,-139.156 L 8.59344,-139.027 L 8.71352,-138.882 L 8.81445,-138.723 L 8.89465,-138.552 L 8.95287,-138.373
 L 8.98816,-138.188 L 9,-138 L 8.98816,-137.812 L 8.95287,-137.627 L 8.89465,-137.448 L 8.81445,-137.277
 L 8.71352,-137.118 L 8.59344,-136.973 L 8.45613,-136.844 L 8.30373,-136.734 L 8.13866,-136.643 L 7.96352,-136.573
 L 7.78107,-136.527 L 7.59418,-136.503 z
" stroke="black" fill="lightgray" stroke-width="0.5"/>
</svg>
