<?xml version="1.0" standalone="no"?>
<!DOCTYPE svg PUBLIC "-//W3C//DTD SVG 1.1//EN" "http://www.w3.org/Graphics/SVG/1.1/DTD/svg11.dtd">
<svg width="8mm" height="32mm" viewBox="-4 -52 8 32" xmlns="http://www.w3.org/2000/svg" version="1.1">
<title>OpenSCAD Model</title>
<path d="
M 1.46844,-44.5443 L 1.77254,-44.6224 L 2.06444,-44.7379 L 2.33955,-44.8892 L 2.59355,-45.0737 L 2.82242,-45.2886
 L 3.02254,-45.5305 L 3.19077,-45.7956 L 3.32443,-46.0797 L 3.42145,-46.3783 L 3.48029,-46.6867 L 3.5,-47
 L 3.5,-49 L 3.48029,-49.3133 L 3.42145,-49.6217 L 3.32443,-49.9203 L 3.19077,-50.2044 L 3.02254,-50.4695
 L 2.82242,-50.7114 L 2.59355,-50.9263 L 2.33955,-51.1108 L 2.06444,-51.2621 L 1.77254,-51.3776 L 1.46844,-51.4557
 L 1.15697,-51.4951 L -1.15697,-51.4951 L -1.46844,-51.4557 L -1.77254,-51.3776 L -2.06444,-51.2621 L -2.33955,-51.1108
 L -2.59355,-50.9263 L -2.82242,-50.7114 L -3.02254,-50.4695 L -3.19077,-50.2044 L -3.32443,-49.9203 L -3.42145,-49.6217
 L -3.48029,-49.3133 L -3.5,-49 L -3.5,-47 L -3.48029,-46.6867 L -3.42145,-46.3783 L -3.32443,-46.0797
 L -3.19077,-45.7956 L -3.02254,-45.5305 L -2.82242,-45.2886 L -2.59355,-45.0737 L -2.33955,-44.8892 L -2.06444,-44.7379
 L -1.77254,-44.6224 L -1.46844,-44.5443 L -1.15697,-44.5049 L 1.15697,-44.5049 z
M -0.0941772,-46.503 L -0.281067,-46.5266 L -0.463516,-46.5734 L -0.638657,-46.6428 L -0.803726,-46.7335 L -0.956131,-46.8442
 L -1.09344,-46.9732 L -1.21352,-47.1183 L -1.31445,-47.2774 L -1.39465,-47.4478 L -1.45287,-47.627 L -1.48816,-47.812
 L -1.5,-48 L -1.48816,-48.188 L -1.45287,-48.373 L -1.39465,-48.5522 L -1.31445,-48.7226 L -1.21352,-48.8817
 L -1.09344,-49.0268 L -0.956131,-49.1558 L -0.803726,-49.2665 L -0.638657,-49.3572 L -0.463516,-49.4266 L -0.281067,-49.4734
 L -0.0941772,-49.497 L 0.0941772,-49.497 L 0.281067,-49.4734 L 0.463516,-49.4266 L 0.638657,-49.3572 L 0.803726,-49.2665
 L 0.956131,-49.1558 L 1.09344,-49.0268 L 1.21352,-48.8817 L 1.31445,-48.7226 L 1.39465,-48.5522 L 1.45287,-48.373
 L 1.48816,-48.188 L 1.5,-48 L 1.48816,-47.812 L 1.45287,-47.627 L 1.39465,-47.4478 L 1.31445,-47.2774
 L 1.21352,-47.1183 L 1.09344,-46.9732 L 0.956131,-46.8442 L 0.803726,-46.7335 L 0.638657,-46.6428 L 0.463516,-46.5734
 L 0.281067,-46.5266 L 0.0941772,-46.503 z
M 1.46844,-20.5443 L 1.77254,-20.6224 L 2.06444,-20.7379 L 2.33955,-20.8892 L 2.59355,-21.0737 L 2.82242,-21.2886
 L 3.02254,-21.5305 L 3.19077,-21.7956 L 3.32443,-22.0797 L 3.42145,-22.3783 L 3.48029,-22.6867 L 3.5,-23
 L 3.5,-25 L 3.48029,-25.3133 L 3.42145,-25.6217 L 3.32443,-25.9203 L 3.19077,-26.2044 L 3.02254,-26.4695
 L 2.82242,-26.7114 L 2.59355,-26.9263 L 2.33955,-27.1108 L 2.06444,-27.2621 L 1.77254,-27.3776 L 1.46844,-27.4557
 L 1.15697,-27.4951 L -1.15697,-27.4951 L -1.46844,-27.4557 L -1.77254,-27.3776 L -2.06444,-27.2621 L -2.33955,-27.1108
 L -2.59355,-26.9263 L -2.82242,-26.7114 L -3.02254,-26.4695 L -3.19077,-26.2044 L -3.32443,-25.9203 L -3.42145,-25.6217
 L -3.48029,-25.3133 L -3.5,-25 L -3.5,-23 L -3.48029,-22.6867 L -3.42145,-22.3783 L -3.32443,-22.0797
 L -3.19077,-21.7956 L -3.02254,-21.5305 L -2.82242,-21.2886 L -2.59355,-21.0737 L -2.33955,-20.8892 L -2.06444,-20.7379
 L -1.77254,-20.6224 L -1.46844,-20.5443 L -1.15697,-20.5049 L 1.15697,-20.5049 z
M -0.0941772,-22.503 L -0.281067,-22.5266 L -0.463516,-22.5734 L -0.638657,-22.6428 L -0.803726,-22.7335 L -0.956131,-22.8442
 L -1.09344,-22.9732 L -1.21352,-23.1183 L -1.31445,-23.2774 L -1.39465,-23.4478 L -1.45287,-23.627 L -1.48816,-23.812
 L -1.5,-24 L -1.48816,-24.188 L -1.45287,-24.373 L -1.39465,-24.5522 L -1.31445,-24.7226 L -1.21352,-24.8817
 L -1.09344,-25.0268 L -0.956131,-25.1558 L -0.803726,-25.2665 L -0.638657,-25.3572 L -0.463516,-25.4266 L -0.281067,-25.4734
 L -0.0941772,-25.497 L 0.0941772,-25.497 L 0.281067,-25.4734 L 0.463516,-25.4266 L 0.638657,-25.3572 L 0.803726,-25.2665
 L 0.956131,-25.1558 L 1.09344,-25.0268 L 1.21352,-24.8817 L 1.31445,-24.7226 L 1.39465,-24.5522 L 1.45287,-24.373
 L 1.48816,-24.188 L 1.5,-24 L 1.48816,-23.812 L 1.45287,-23.627 L 1.39465,-23.4478 L 1.31445,-23.2774
 L 1.21352,-23.1183 L 1.09344,-22.9732 L 0.956131,-22.8442 L 0.803726,-22.7335 L 0.638657,-22.6428 L 0.463516,-22.5734
 L 0.281067,-22.5266 L 0.0941772,-22.503 z
" stroke="black" fill="lightgray" stroke-width="0.5"/>
</svg>
