<?xml version="1.0" standalone="no"?>
<!DOCTYPE svg PUBLIC "-//W3C//DTD SVG 1.1//EN" "http://www.w3.org/Graphics/SVG/1.1/DTD/svg11.dtd">
<svg width="76mm" height="186mm" viewBox="-38 -148 76 186" xmlns="http://www.w3.org/2000/svg" version="1.1">
<title>OpenSCAD Model</title>
<path d="
M 7.11519,-72.7009 L 11.7339,-73.8867 L 16.1676,-75.6422 L 20.3463,-77.9394 L 24.2041,-80.7423 L 27.6802,-84.0066
 L 30.7198,-87.6808 L 33.2749,-91.707 L 35.3052,-96.0217 L 36.7788,-100.557 L 37.6723,-105.241 L 37.9717,-110
 L 37.6723,-114.759 L 36.7788,-119.443 L 35.3052,-123.978 L 33.2749,-128.293 L 30.7198,-132.319 L 27.6802,-135.993
 L 24.2041,-139.258 L 20.3463,-142.061 L 16.1676,-144.358 L 11.7339,-146.113 L 7.11519,-147.299 L 2.38426,-147.897
 L -2.38426,-147.897 L -7.11519,-147.299 L -11.7339,-146.113 L -16.1676,-144.358 L -20.3463,-142.061 L -24.2041,-139.258
 L -27.6802,-135.993 L -30.7198,-132.319 L -33.2749,-128.293 L -35.3052,-123.978 L -36.7788,-119.443 L -37.6723,-114.759
 L -37.9717,-110 L -37.6723,-105.241 L -36.7788,-100.557 L -35.3052,-96.0217 L -33.2749,-91.707 L -30.7198,-87.6808
 L -27.6802,-84.0066 L -24.2041,-80.7423 L -20.3463,-77.9394 L -16.1676,-75.6422 L -11.7339,-73.8867 L -7.11519,-72.7009
 L -2.38426,-72.1032 L 2.38426,-72.1032 z
M -0.18837,-137.006 L -0.562134,-137.053 L -0.927048,-137.147 L -1.27733,-137.286 L -1.60747,-137.467 L -1.91226,-137.688
 L -2.1869,-137.946 L -2.42705,-138.237 L -2.62891,-138.555 L -2.78932,-138.896 L -2.90575,-139.254 L -2.97633,-139.624
 L -3,-140 L -2.97633,-140.376 L -2.90575,-140.746 L -2.78932,-141.104 L -2.62891,-141.445 L -2.42705,-141.763
 L -2.1869,-142.054 L -1.91226,-142.312 L -1.60747,-142.533 L -1.27733,-142.714 L -0.927048,-142.853 L -0.562134,-142.947
 L -0.18837,-142.994 L 0.18837,-142.994 L 0.562134,-142.947 L 0.927048,-142.853 L 1.27733,-142.714 L 1.60747,-142.533
 L 1.91226,-142.312 L 2.1869,-142.054 L 2.42705,-141.763 L 2.62891,-141.445 L 2.78932,-141.104 L 2.90575,-140.746
 L 2.97633,-140.376 L 3,-140 L 2.97633,-139.624 L 2.90575,-139.254 L 2.78932,-138.896 L 2.62891,-138.555
 L 2.42705,-138.237 L 2.1869,-137.946 L 1.91226,-137.688 L 1.60747,-137.467 L 1.27733,-137.286 L 0.927048,-137.147
 L 0.562134,-137.053 L 0.18837,-137.006 z
M -0.0941772,-131.003 L -0.281067,-131.027 L -0.463516,-131.073 L -0.638657,-131.143 L -0.803726,-131.234 L -0.956131,-131.344
 L -1.09344,-131.473 L -1.21352,-131.618 L -1.31445,-131.777 L -1.39465,-131.948 L -1.45287,-132.127 L -1.48816,-132.312
 L -1.5,-132.5 L -1.48816,-132.688 L -1.45287,-132.873 L -1.39465,-133.052 L -1.31445,-133.223 L -1.21352,-133.382
 L -1.09344,-133.527 L -0.956131,-133.656 L -0.803726,-133.766 L -0.638657,-133.857 L -0.463516,-133.927 L -0.281067,-133.973
 L -0.0941772,-133.997 L 0.0941772,-133.997 L 0.281067,-133.973 L 0.463516,-133.927 L 0.638657,-133.857 L 0.803726,-133.766
 L 0.956131,-133.656 L 1.09344,-133.527 L 1.21352,-133.382 L 1.31445,-133.223 L 1.39465,-133.052 L 1.45287,-132.873
 L 1.48816,-132.688 L 1.5,-132.5 L 1.48816,-132.312 L 1.45287,-132.127 L 1.39465,-131.948 L 1.31445,-131.777
 L 1.21352,-131.618 L 1.09344,-131.473 L 0.956131,-131.344 L 0.803726,-131.234 L 0.638657,-131.143 L 0.463516,-131.073
 L 0.281067,-131.027 L 0.0941772,-131.003 z
M 14.9058,-131.003 L 14.7189,-131.027 L 14.5365,-131.073 L 14.3613,-131.143 L 14.1963,-131.234 L 14.0439,-131.344
 L 13.9065,-131.473 L 13.7865,-131.618 L 13.6855,-131.777 L 13.6053,-131.948 L 13.5471,-132.127 L 13.5118,-132.312
 L 13.5,-132.5 L 13.5118,-132.688 L 13.5471,-132.873 L 13.6053,-133.052 L 13.6855,-133.223 L 13.7865,-133.382
 L 13.9065,-133.527 L 14.0439,-133.656 L 14.1963,-133.766 L 14.3613,-133.857 L 14.5365,-133.927 L 14.7189,-133.973
 L 14.9058,-133.997 L 15.0942,-133.997 L 15.2811,-133.973 L 15.4635,-133.927 L 15.6387,-133.857 L 15.8037,-133.766
 L 15.9561,-133.656 L 16.0934,-133.527 L 16.2135,-133.382 L 16.3145,-133.223 L 16.3947,-133.052 L 16.4529,-132.873
 L 16.4882,-132.688 L 16.5,-132.5 L 16.4882,-132.312 L 16.4529,-132.127 L 16.3947,-131.948 L 16.3145,-131.777
 L 16.2135,-131.618 L 16.0934,-131.473 L 15.9561,-131.344 L 15.8037,-131.234 L 15.6387,-131.143 L 15.4635,-131.073
 L 15.2811,-131.027 L 15.0942,-131.003 z
M -15.0942,-131.003 L -15.2811,-131.027 L -15.4635,-131.073 L -15.6387,-131.143 L -15.8037,-131.234 L -15.9561,-131.344
 L -16.0934,-131.473 L -16.2135,-131.618 L -16.3145,-131.777 L -16.3947,-131.948 L -16.4529,-132.127 L -16.4882,-132.312
 L -16.5,-132.5 L -16.4882,-132.688 L -16.4529,-132.873 L -16.3947,-133.052 L -16.3145,-133.223 L -16.2135,-133.382
 L -16.0934,-133.527 L -15.9561,-133.656 L -15.8037,-133.766 L -15.6387,-133.857 L -15.4635,-133.927 L -15.2811,-133.973
 L -15.0942,-133.997 L -14.9058,-133.997 L -14.7189,-133.973 L -14.5365,-133.927 L -14.3613,-133.857 L -14.1963,-133.766
 L -14.0439,-133.656 L -13.9065,-133.527 L -13.7865,-133.382 L -13.6855,-133.223 L -13.6053,-133.052 L -13.5471,-132.873
 L -13.5118,-132.688 L -13.5,-132.5 L -13.5118,-132.312 L -13.5471,-132.127 L -13.6053,-131.948 L -13.6855,-131.777
 L -13.7865,-131.618 L -13.9065,-131.473 L -14.0439,-131.344 L -14.1963,-131.234 L -14.3613,-131.143 L -14.5365,-131.073
 L -14.7189,-131.027 L -14.9058,-131.003 z
M -0.18837,-122.006 L -0.562134,-122.053 L -0.927048,-122.147 L -1.27733,-122.286 L -1.60747,-122.467 L -1.91226,-122.688
 L -2.1869,-122.946 L -2.42705,-123.237 L -2.62891,-123.555 L -2.78932,-123.896 L -2.90575,-124.254 L -2.97633,-124.624
 L -3,-125 L -2.97633,-125.376 L -2.90575,-125.746 L -2.78932,-126.104 L -2.62891,-126.445 L -2.42705,-126.763
 L -2.1869,-127.054 L -1.91226,-127.312 L -1.60747,-127.533 L -1.27733,-127.714 L -0.927048,-127.853 L -0.562134,-127.947
 L -0.18837,-127.994 L 0.18837,-127.994 L 0.562134,-127.947 L 0.927048,-127.853 L 1.27733,-127.714 L 1.60747,-127.533
 L 1.91226,-127.312 L 2.1869,-127.054 L 2.42705,-126.763 L 2.62891,-126.445 L 2.78932,-126.104 L 2.90575,-125.746
 L 2.97633,-125.376 L 3,-125 L 2.97633,-124.624 L 2.90575,-124.254 L 2.78932,-123.896 L 2.62891,-123.555
 L 2.42705,-123.237 L 2.1869,-122.946 L 1.91226,-122.688 L 1.60747,-122.467 L 1.27733,-122.286 L 0.927048,-122.147
 L 0.562134,-122.053 L 0.18837,-122.006 z
M 14.8116,-122.006 L 14.4379,-122.053 L 14.0729,-122.147 L 13.7227,-122.286 L 13.3925,-122.467 L 13.0877,-122.688
 L 12.8131,-122.946 L 12.5729,-123.237 L 12.3711,-123.555 L 12.2107,-123.896 L 12.0942,-124.254 L 12.0237,-124.624
 L 12,-125 L 12.0237,-125.376 L 12.0942,-125.746 L 12.2107,-126.104 L 12.3711,-126.445 L 12.5729,-126.763
 L 12.8131,-127.054 L 13.0877,-127.312 L 13.3925,-127.533 L 13.7227,-127.714 L 14.0729,-127.853 L 14.4379,-127.947
 L 14.8116,-127.994 L 15.1884,-127.994 L 15.5621,-127.947 L 15.927,-127.853 L 16.2773,-127.714 L 16.6075,-127.533
 L 16.9123,-127.312 L 17.1869,-127.054 L 17.427,-126.763 L 17.6289,-126.445 L 17.7893,-126.104 L 17.9057,-125.746
 L 17.9763,-125.376 L 18,-125 L 17.9763,-124.624 L 17.9057,-124.254 L 17.7893,-123.896 L 17.6289,-123.555
 L 17.427,-123.237 L 17.1869,-122.946 L 16.9123,-122.688 L 16.6075,-122.467 L 16.2773,-122.286 L 15.927,-122.147
 L 15.5621,-122.053 L 15.1884,-122.006 z
M -15.1884,-122.006 L -15.5621,-122.053 L -15.927,-122.147 L -16.2773,-122.286 L -16.6075,-122.467 L -16.9123,-122.688
 L -17.1869,-122.946 L -17.427,-123.237 L -17.6289,-123.555 L -17.7893,-123.896 L -17.9057,-124.254 L -17.9763,-124.624
 L -18,-125 L -17.9763,-125.376 L -17.9057,-125.746 L -17.7893,-126.104 L -17.6289,-126.445 L -17.427,-126.763
 L -17.1869,-127.054 L -16.9123,-127.312 L -16.6075,-127.533 L -16.2773,-127.714 L -15.927,-127.853 L -15.5621,-127.947
 L -15.1884,-127.994 L -14.8116,-127.994 L -14.4379,-127.947 L -14.0729,-127.853 L -13.7227,-127.714 L -13.3925,-127.533
 L -13.0877,-127.312 L -12.8131,-127.054 L -12.5729,-126.763 L -12.3711,-126.445 L -12.2107,-126.104 L -12.0942,-125.746
 L -12.0237,-125.376 L -12,-125 L -12.0237,-124.624 L -12.0942,-124.254 L -12.2107,-123.896 L -12.3711,-123.555
 L -12.5729,-123.237 L -12.8131,-122.946 L -13.0877,-122.688 L -13.3925,-122.467 L -13.7227,-122.286 L -14.0729,-122.147
 L -14.4379,-122.053 L -14.8116,-122.006 z
M 7.40581,-123.503 L 7.21892,-123.527 L 7.03647,-123.573 L 6.86133,-123.643 L 6.69626,-123.734 L 6.54385,-123.844
 L 6.40654,-123.973 L 6.28647,-124.118 L 6.18553,-124.277 L 6.10533,-124.448 L 6.04712,-124.627 L 6.01183,-124.812
 L 6,-125 L 6.01183,-125.188 L 6.04712,-125.373 L 6.10533,-125.552 L 6.18553,-125.723 L 6.28647,-125.882
 L 6.40654,-126.027 L 6.54385,-126.156 L 6.69626,-126.266 L 6.86133,-126.357 L 7.03647,-126.427 L 7.21892,-126.473
 L 7.40581,-126.497 L 7.59418,-126.497 L 7.78107,-126.473 L 7.96352,-126.427 L 8.13866,-126.357 L 8.30373,-126.266
 L 8.45613,-126.156 L 8.59344,-126.027 L 8.71352,-125.882 L 8.81445,-125.723 L 8.89465,-125.552 L 8.95287,-125.373
 L 8.98816,-125.188 L 9,-125 L 8.98816,-124.812 L 8.95287,-124.627 L 8.89465,-124.448 L 8.81445,-124.277
 L 8.71352,-124.118 L 8.59344,-123.973 L 8.45613,-123.844 L 8.30373,-123.734 L 8.13866,-123.643 L 7.96352,-123.573
 L 7.78107,-123.527 L 7.59418,-123.503 z
M -7.59418,-123.503 L -7.78107,-123.527 L -7.96352,-123.573 L -8.13866,-123.643 L -8.30373,-123.734 L -8.45613,-123.844
 L -8.59344,-123.973 L -8.71352,-124.118 L -8.81445,-124.277 L -8.89465,-124.448 L -8.95287,-124.627 L -8.98816,-124.812
 L -9,-125 L -8.98816,-125.188 L -8.95287,-125.373 L -8.89465,-125.552 L -8.81445,-125.723 L -8.71352,-125.882
 L -8.59344,-126.027 L -8.45613,-126.156 L -8.30373,-126.266 L -8.13866,-126.357 L -7.96352,-126.427 L -7.78107,-126.473
 L -7.59418,-126.497 L -7.40581,-126.497 L -7.21892,-126.473 L -7.03647,-126.427 L -6.86133,-126.357 L -6.69626,-126.266
 L -6.54385,-126.156 L -6.40654,-126.027 L -6.28647,-125.882 L -6.18553,-125.723 L -6.10533,-125.552 L -6.04712,-125.373
 L -6.01183,-125.188 L -6,-125 L -6.01183,-124.812 L -6.04712,-124.627 L -6.10533,-124.448 L -6.18553,-124.277
 L -6.28647,-124.118 L -6.40654,-123.973 L -6.54385,-123.844 L -6.69626,-123.734 L -6.86133,-123.643 L -7.03647,-123.573
 L -7.21892,-123.527 L -7.40581,-123.503 z
M -22.5942,-123.503 L -22.7811,-123.527 L -22.9635,-123.573 L -23.1387,-123.643 L -23.3037,-123.734 L -23.4561,-123.844
 L -23.5934,-123.973 L -23.7135,-124.118 L -23.8145,-124.277 L -23.8947,-124.448 L -23.9529,-124.627 L -23.9882,-124.812
 L -24,-125 L -23.9882,-125.188 L -23.9529,-125.373 L -23.8947,-125.552 L -23.8145,-125.723 L -23.7135,-125.882
 L -23.5934,-126.027 L -23.4561,-126.156 L -23.3037,-126.266 L -23.1387,-126.357 L -22.9635,-126.427 L -22.7811,-126.473
 L -22.5942,-126.497 L -22.4058,-126.497 L -22.2189,-126.473 L -22.0365,-126.427 L -21.8613,-126.357 L -21.6963,-126.266
 L -21.5439,-126.156 L -21.4065,-126.027 L -21.2865,-125.882 L -21.1855,-125.723 L -21.1053,-125.552 L -21.0471,-125.373
 L -21.0118,-125.188 L -21,-125 L -21.0118,-124.812 L -21.0471,-124.627 L -21.1053,-124.448 L -21.1855,-124.277
 L -21.2865,-124.118 L -21.4065,-123.973 L -21.5439,-123.844 L -21.6963,-123.734 L -21.8613,-123.643 L -22.0365,-123.573
 L -22.2189,-123.527 L -22.4058,-123.503 z
M 22.4058,-123.503 L 22.2189,-123.527 L 22.0365,-123.573 L 21.8613,-123.643 L 21.6963,-123.734 L 21.5439,-123.844
 L 21.4065,-123.973 L 21.2865,-124.118 L 21.1855,-124.277 L 21.1053,-124.448 L 21.0471,-124.627 L 21.0118,-124.812
 L 21,-125 L 21.0118,-125.188 L 21.0471,-125.373 L 21.1053,-125.552 L 21.1855,-125.723 L 21.2865,-125.882
 L 21.4065,-126.027 L 21.5439,-126.156 L 21.6963,-126.266 L 21.8613,-126.357 L 22.0365,-126.427 L 22.2189,-126.473
 L 22.4058,-126.497 L 22.5942,-126.497 L 22.7811,-126.473 L 22.9635,-126.427 L 23.1387,-126.357 L 23.3037,-126.266
 L 23.4561,-126.156 L 23.5934,-126.027 L 23.7135,-125.882 L 23.8145,-125.723 L 23.8947,-125.552 L 23.9529,-125.373
 L 23.9882,-125.188 L 24,-125 L 23.9882,-124.812 L 23.9529,-124.627 L 23.8947,-124.448 L 23.8145,-124.277
 L 23.7135,-124.118 L 23.5934,-123.973 L 23.4561,-123.844 L 23.3037,-123.734 L 23.1387,-123.643 L 22.9635,-123.573
 L 22.7811,-123.527 L 22.5942,-123.503 z
M -0.0941772,-116.003 L -0.281067,-116.027 L -0.463516,-116.073 L -0.638657,-116.143 L -0.803726,-116.234 L -0.956131,-116.344
 L -1.09344,-116.473 L -1.21352,-116.618 L -1.31445,-116.777 L -1.39465,-116.948 L -1.45287,-117.127 L -1.48816,-117.312
 L -1.5,-117.5 L -1.48816,-117.688 L -1.45287,-117.873 L -1.39465,-118.052 L -1.31445,-118.223 L -1.21352,-118.382
 L -1.09344,-118.527 L -0.956131,-118.656 L -0.803726,-118.766 L -0.638657,-118.857 L -0.463516,-118.927 L -0.281067,-118.973
 L -0.0941772,-118.997 L 0.0941772,-118.997 L 0.281067,-118.973 L 0.463516,-118.927 L 0.638657,-118.857 L 0.803726,-118.766
 L 0.956131,-118.656 L 1.09344,-118.527 L 1.21352,-118.382 L 1.31445,-118.223 L 1.39465,-118.052 L 1.45287,-117.873
 L 1.48816,-117.688 L 1.5,-117.5 L 1.48816,-117.312 L 1.45287,-117.127 L 1.39465,-116.948 L 1.31445,-116.777
 L 1.21352,-116.618 L 1.09344,-116.473 L 0.956131,-116.344 L 0.803726,-116.234 L 0.638657,-116.143 L 0.463516,-116.073
 L 0.281067,-116.027 L 0.0941772,-116.003 z
M -15.0942,-116.003 L -15.2811,-116.027 L -15.4635,-116.073 L -15.6387,-116.143 L -15.8037,-116.234 L -15.9561,-116.344
 L -16.0934,-116.473 L -16.2135,-116.618 L -16.3145,-116.777 L -16.3947,-116.948 L -16.4529,-117.127 L -16.4882,-117.312
 L -16.5,-117.5 L -16.4882,-117.688 L -16.4529,-117.873 L -16.3947,-118.052 L -16.3145,-118.223 L -16.2135,-118.382
 L -16.0934,-118.527 L -15.9561,-118.656 L -15.8037,-118.766 L -15.6387,-118.857 L -15.4635,-118.927 L -15.2811,-118.973
 L -15.0942,-118.997 L -14.9058,-118.997 L -14.7189,-118.973 L -14.5365,-118.927 L -14.3613,-118.857 L -14.1963,-118.766
 L -14.0439,-118.656 L -13.9065,-118.527 L -13.7865,-118.382 L -13.6855,-118.223 L -13.6053,-118.052 L -13.5471,-117.873
 L -13.5118,-117.688 L -13.5,-117.5 L -13.5118,-117.312 L -13.5471,-117.127 L -13.6053,-116.948 L -13.6855,-116.777
 L -13.7865,-116.618 L -13.9065,-116.473 L -14.0439,-116.344 L -14.1963,-116.234 L -14.3613,-116.143 L -14.5365,-116.073
 L -14.7189,-116.027 L -14.9058,-116.003 z
M 14.9058,-116.003 L 14.7189,-116.027 L 14.5365,-116.073 L 14.3613,-116.143 L 14.1963,-116.234 L 14.0439,-116.344
 L 13.9065,-116.473 L 13.7865,-116.618 L 13.6855,-116.777 L 13.6053,-116.948 L 13.5471,-117.127 L 13.5118,-117.312
 L 13.5,-117.5 L 13.5118,-117.688 L 13.5471,-117.873 L 13.6053,-118.052 L 13.6855,-118.223 L 13.7865,-118.382
 L 13.9065,-118.527 L 14.0439,-118.656 L 14.1963,-118.766 L 14.3613,-118.857 L 14.5365,-118.927 L 14.7189,-118.973
 L 14.9058,-118.997 L 15.0942,-118.997 L 15.2811,-118.973 L 15.4635,-118.927 L 15.6387,-118.857 L 15.8037,-118.766
 L 15.9561,-118.656 L 16.0934,-118.527 L 16.2135,-118.382 L 16.3145,-118.223 L 16.3947,-118.052 L 16.4529,-117.873
 L 16.4882,-117.688 L 16.5,-117.5 L 16.4882,-117.312 L 16.4529,-117.127 L 16.3947,-116.948 L 16.3145,-116.777
 L 16.2135,-116.618 L 16.0934,-116.473 L 15.9561,-116.344 L 15.8037,-116.234 L 15.6387,-116.143 L 15.4635,-116.073
 L 15.2811,-116.027 L 15.0942,-116.003 z
M -30.1884,-107.006 L -30.5621,-107.053 L -30.927,-107.147 L -31.2773,-107.286 L -31.6075,-107.467 L -31.9123,-107.688
 L -32.1869,-107.946 L -32.427,-108.237 L -32.6289,-108.555 L -32.7893,-108.896 L -32.9057,-109.254 L -32.9763,-109.624
 L -33,-110 L -32.9763,-110.376 L -32.9057,-110.746 L -32.7893,-111.104 L -32.6289,-111.445 L -32.427,-111.763
 L -32.1869,-112.054 L -31.9123,-112.312 L -31.6075,-112.533 L -31.2773,-112.714 L -30.927,-112.853 L -30.5621,-112.947
 L -30.1884,-112.994 L -29.8116,-112.994 L -29.4379,-112.947 L -29.0729,-112.853 L -28.7227,-112.714 L -28.3925,-112.533
 L -28.0877,-112.312 L -27.8131,-112.054 L -27.5729,-111.763 L -27.3711,-111.445 L -27.2107,-111.104 L -27.0942,-110.746
 L -27.0237,-110.376 L -27,-110 L -27.0237,-109.624 L -27.0942,-109.254 L -27.2107,-108.896 L -27.3711,-108.555
 L -27.5729,-108.237 L -27.8131,-107.946 L -28.0877,-107.688 L -28.3925,-107.467 L -28.7227,-107.286 L -29.0729,-107.147
 L -29.4379,-107.053 L -29.8116,-107.006 z
M -0.18837,-107.006 L -0.562134,-107.053 L -0.927048,-107.147 L -1.27733,-107.286 L -1.60747,-107.467 L -1.91226,-107.688
 L -2.1869,-107.946 L -2.42705,-108.237 L -2.62891,-108.555 L -2.78932,-108.896 L -2.90575,-109.254 L -2.97633,-109.624
 L -3,-110 L -2.97633,-110.376 L -2.90575,-110.746 L -2.78932,-111.104 L -2.62891,-111.445 L -2.42705,-111.763
 L -2.1869,-112.054 L -1.91226,-112.312 L -1.60747,-112.533 L -1.27733,-112.714 L -0.927048,-112.853 L -0.562134,-112.947
 L -0.18837,-112.994 L 0.18837,-112.994 L 0.562134,-112.947 L 0.927048,-112.853 L 1.27733,-112.714 L 1.60747,-112.533
 L 1.91226,-112.312 L 2.1869,-112.054 L 2.42705,-111.763 L 2.62891,-111.445 L 2.78932,-111.104 L 2.90575,-110.746
 L 2.97633,-110.376 L 3,-110 L 2.97633,-109.624 L 2.90575,-109.254 L 2.78932,-108.896 L 2.62891,-108.555
 L 2.42705,-108.237 L 2.1869,-107.946 L 1.91226,-107.688 L 1.60747,-107.467 L 1.27733,-107.286 L 0.927048,-107.147
 L 0.562134,-107.053 L 0.18837,-107.006 z
M -15.1884,-107.006 L -15.5621,-107.053 L -15.927,-107.147 L -16.2773,-107.286 L -16.6075,-107.467 L -16.9123,-107.688
 L -17.1869,-107.946 L -17.427,-108.237 L -17.6289,-108.555 L -17.7893,-108.896 L -17.9057,-109.254 L -17.9763,-109.624
 L -18,-110 L -17.9763,-110.376 L -17.9057,-110.746 L -17.7893,-111.104 L -17.6289,-111.445 L -17.427,-111.763
 L -17.1869,-112.054 L -16.9123,-112.312 L -16.6075,-112.533 L -16.2773,-112.714 L -15.927,-112.853 L -15.5621,-112.947
 L -15.1884,-112.994 L -14.8116,-112.994 L -14.4379,-112.947 L -14.0729,-112.853 L -13.7227,-112.714 L -13.3925,-112.533
 L -13.0877,-112.312 L -12.8131,-112.054 L -12.5729,-111.763 L -12.3711,-111.445 L -12.2107,-111.104 L -12.0942,-110.746
 L -12.0237,-110.376 L -12,-110 L -12.0237,-109.624 L -12.0942,-109.254 L -12.2107,-108.896 L -12.3711,-108.555
 L -12.5729,-108.237 L -12.8131,-107.946 L -13.0877,-107.688 L -13.3925,-107.467 L -13.7227,-107.286 L -14.0729,-107.147
 L -14.4379,-107.053 L -14.8116,-107.006 z
M 14.8116,-107.006 L 14.4379,-107.053 L 14.0729,-107.147 L 13.7227,-107.286 L 13.3925,-107.467 L 13.0877,-107.688
 L 12.8131,-107.946 L 12.5729,-108.237 L 12.3711,-108.555 L 12.2107,-108.896 L 12.0942,-109.254 L 12.0237,-109.624
 L 12,-110 L 12.0237,-110.376 L 12.0942,-110.746 L 12.2107,-111.104 L 12.3711,-111.445 L 12.5729,-111.763
 L 12.8131,-112.054 L 13.0877,-112.312 L 13.3925,-112.533 L 13.7227,-112.714 L 14.0729,-112.853 L 14.4379,-112.947
 L 14.8116,-112.994 L 15.1884,-112.994 L 15.5621,-112.947 L 15.927,-112.853 L 16.2773,-112.714 L 16.6075,-112.533
 L 16.9123,-112.312 L 17.1869,-112.054 L 17.427,-111.763 L 17.6289,-111.445 L 17.7893,-111.104 L 17.9057,-110.746
 L 17.9763,-110.376 L 18,-110 L 17.9763,-109.624 L 17.9057,-109.254 L 17.7893,-108.896 L 17.6289,-108.555
 L 17.427,-108.237 L 17.1869,-107.946 L 16.9123,-107.688 L 16.6075,-107.467 L 16.2773,-107.286 L 15.927,-107.147
 L 15.5621,-107.053 L 15.1884,-107.006 z
M 29.8116,-107.006 L 29.4379,-107.053 L 29.0729,-107.147 L 28.7227,-107.286 L 28.3925,-107.467 L 28.0877,-107.688
 L 27.8131,-107.946 L 27.5729,-108.237 L 27.3711,-108.555 L 27.2107,-108.896 L 27.0942,-109.254 L 27.0237,-109.624
 L 27,-110 L 27.0237,-110.376 L 27.0942,-110.746 L 27.2107,-111.104 L 27.3711,-111.445 L 27.5729,-111.763
 L 27.8131,-112.054 L 28.0877,-112.312 L 28.3925,-112.533 L 28.7227,-112.714 L 29.0729,-112.853 L 29.4379,-112.947
 L 29.8116,-112.994 L 30.1884,-112.994 L 30.5621,-112.947 L 30.927,-112.853 L 31.2773,-112.714 L 31.6075,-112.533
 L 31.9123,-112.312 L 32.1869,-112.054 L 32.427,-111.763 L 32.6289,-111.445 L 32.7893,-111.104 L 32.9057,-110.746
 L 32.9763,-110.376 L 33,-110 L 32.9763,-109.624 L 32.9057,-109.254 L 32.7893,-108.896 L 32.6289,-108.555
 L 32.427,-108.237 L 32.1869,-107.946 L 31.9123,-107.688 L 31.6075,-107.467 L 31.2773,-107.286 L 30.927,-107.147
 L 30.5621,-107.053 L 30.1884,-107.006 z
M 7.40581,-108.503 L 7.21892,-108.527 L 7.03647,-108.573 L 6.86133,-108.643 L 6.69626,-108.734 L 6.54385,-108.844
 L 6.40654,-108.973 L 6.28647,-109.118 L 6.18553,-109.277 L 6.10533,-109.448 L 6.04712,-109.627 L 6.01183,-109.812
 L 6,-110 L 6.01183,-110.188 L 6.04712,-110.373 L 6.10533,-110.552 L 6.18553,-110.723 L 6.28647,-110.882
 L 6.40654,-111.027 L 6.54385,-111.156 L 6.69626,-111.266 L 6.86133,-111.357 L 7.03647,-111.427 L 7.21892,-111.473
 L 7.40581,-111.497 L 8.09418,-111.497 L 8.28107,-111.473 L 8.46352,-111.427 L 8.63866,-111.357 L 8.80373,-111.266
 L 8.95613,-111.156 L 9.09344,-111.027 L 9.21352,-110.882 L 9.31445,-110.723 L 9.39465,-110.552 L 9.45287,-110.373
 L 9.48816,-110.188 L 9.5,-110 L 9.48816,-109.812 L 9.45287,-109.627 L 9.39465,-109.448 L 9.31445,-109.277
 L 9.21352,-109.118 L 9.09344,-108.973 L 8.95613,-108.844 L 8.80373,-108.734 L 8.63866,-108.643 L 8.46352,-108.573
 L 8.28107,-108.527 L 8.09418,-108.503 z
M -8.09418,-108.503 L -8.28107,-108.527 L -8.46352,-108.573 L -8.63866,-108.643 L -8.80373,-108.734 L -8.95613,-108.844
 L -9.09344,-108.973 L -9.21352,-109.118 L -9.31445,-109.277 L -9.39465,-109.448 L -9.45287,-109.627 L -9.48816,-109.812
 L -9.5,-110 L -9.48816,-110.188 L -9.45287,-110.373 L -9.39465,-110.552 L -9.31445,-110.723 L -9.21352,-110.882
 L -9.09344,-111.027 L -8.95613,-111.156 L -8.80373,-111.266 L -8.63866,-111.357 L -8.46352,-111.427 L -8.28107,-111.473
 L -8.09418,-111.497 L -7.40581,-111.497 L -7.21892,-111.473 L -7.03647,-111.427 L -6.86133,-111.357 L -6.69626,-111.266
 L -6.54385,-111.156 L -6.40654,-111.027 L -6.28647,-110.882 L -6.18553,-110.723 L -6.10533,-110.552 L -6.04712,-110.373
 L -6.01183,-110.188 L -6,-110 L -6.01183,-109.812 L -6.04712,-109.627 L -6.10533,-109.448 L -6.18553,-109.277
 L -6.28647,-109.118 L -6.40654,-108.973 L -6.54385,-108.844 L -6.69626,-108.734 L -6.86133,-108.643 L -7.03647,-108.573
 L -7.21892,-108.527 L -7.40581,-108.503 z
M -22.5942,-108.503 L -22.7811,-108.527 L -22.9635,-108.573 L -23.1387,-108.643 L -23.3037,-108.734 L -23.4561,-108.844
 L -23.5934,-108.973 L -23.7135,-109.118 L -23.8145,-109.277 L -23.8947,-109.448 L -23.9529,-109.627 L -23.9882,-109.812
 L -24,-110 L -23.9882,-110.188 L -23.9529,-110.373 L -23.8947,-110.552 L -23.8145,-110.723 L -23.7135,-110.882
 L -23.5934,-111.027 L -23.4561,-111.156 L -23.3037,-111.266 L -23.1387,-111.357 L -22.9635,-111.427 L -22.7811,-111.473
 L -22.5942,-111.497 L -22.4058,-111.497 L -22.2189,-111.473 L -22.0365,-111.427 L -21.8613,-111.357 L -21.6963,-111.266
 L -21.5439,-111.156 L -21.4065,-111.027 L -21.2865,-110.882 L -21.1855,-110.723 L -21.1053,-110.552 L -21.0471,-110.373
 L -21.0118,-110.188 L -21,-110 L -21.0118,-109.812 L -21.0471,-109.627 L -21.1053,-109.448 L -21.1855,-109.277
 L -21.2865,-109.118 L -21.4065,-108.973 L -21.5439,-108.844 L -21.6963,-108.734 L -21.8613,-108.643 L -22.0365,-108.573
 L -22.2189,-108.527 L -22.4058,-108.503 z
M 22.4058,-108.503 L 22.2189,-108.527 L 22.0365,-108.573 L 21.8613,-108.643 L 21.6963,-108.734 L 21.5439,-108.844
 L 21.4065,-108.973 L 21.2865,-109.118 L 21.1855,-109.277 L 21.1053,-109.448 L 21.0471,-109.627 L 21.0118,-109.812
 L 21,-110 L 21.0118,-110.188 L 21.0471,-110.373 L 21.1053,-110.552 L 21.1855,-110.723 L 21.2865,-110.882
 L 21.4065,-111.027 L 21.5439,-111.156 L 21.6963,-111.266 L 21.8613,-111.357 L 22.0365,-111.427 L 22.2189,-111.473
 L 22.4058,-111.497 L 22.5942,-111.497 L 22.7811,-111.473 L 22.9635,-111.427 L 23.1387,-111.357 L 23.3037,-111.266
 L 23.4561,-111.156 L 23.5934,-111.027 L 23.7135,-110.882 L 23.8145,-110.723 L 23.8947,-110.552 L 23.9529,-110.373
 L 23.9882,-110.188 L 24,-110 L 23.9882,-109.812 L 23.9529,-109.627 L 23.8947,-109.448 L 23.8145,-109.277
 L 23.7135,-109.118 L 23.5934,-108.973 L 23.4561,-108.844 L 23.3037,-108.734 L 23.1387,-108.643 L 22.9635,-108.573
 L 22.7811,-108.527 L 22.5942,-108.503 z
M 14.9058,-101.003 L 14.7189,-101.027 L 14.5365,-101.073 L 14.3613,-101.143 L 14.1963,-101.234 L 14.0439,-101.344
 L 13.9065,-101.473 L 13.7865,-101.618 L 13.6855,-101.777 L 13.6053,-101.948 L 13.5471,-102.127 L 13.5118,-102.312
 L 13.5,-102.5 L 13.5118,-102.688 L 13.5471,-102.873 L 13.6053,-103.052 L 13.6855,-103.223 L 13.7865,-103.382
 L 13.9065,-103.527 L 14.0439,-103.656 L 14.1963,-103.766 L 14.3613,-103.857 L 14.5365,-103.927 L 14.7189,-103.973
 L 14.9058,-103.997 L 15.0942,-103.997 L 15.2811,-103.973 L 15.4635,-103.927 L 15.6387,-103.857 L 15.8037,-103.766
 L 15.9561,-103.656 L 16.0934,-103.527 L 16.2135,-103.382 L 16.3145,-103.223 L 16.3947,-103.052 L 16.4529,-102.873
 L 16.4882,-102.688 L 16.5,-102.5 L 16.4882,-102.312 L 16.4529,-102.127 L 16.3947,-101.948 L 16.3145,-101.777
 L 16.2135,-101.618 L 16.0934,-101.473 L 15.9561,-101.344 L 15.8037,-101.234 L 15.6387,-101.143 L 15.4635,-101.073
 L 15.2811,-101.027 L 15.0942,-101.003 z
M -0.0941772,-101.003 L -0.281067,-101.027 L -0.463516,-101.073 L -0.638657,-101.143 L -0.803726,-101.234 L -0.956131,-101.344
 L -1.09344,-101.473 L -1.21352,-101.618 L -1.31445,-101.777 L -1.39465,-101.948 L -1.45287,-102.127 L -1.48816,-102.312
 L -1.5,-102.5 L -1.48816,-102.688 L -1.45287,-102.873 L -1.39465,-103.052 L -1.31445,-103.223 L -1.21352,-103.382
 L -1.09344,-103.527 L -0.956131,-103.656 L -0.803726,-103.766 L -0.638657,-103.857 L -0.463516,-103.927 L -0.281067,-103.973
 L -0.0941772,-103.997 L 0.0941772,-103.997 L 0.281067,-103.973 L 0.463516,-103.927 L 0.638657,-103.857 L 0.803726,-103.766
 L 0.956131,-103.656 L 1.09344,-103.527 L 1.21352,-103.382 L 1.31445,-103.223 L 1.39465,-103.052 L 1.45287,-102.873
 L 1.48816,-102.688 L 1.5,-102.5 L 1.48816,-102.312 L 1.45287,-102.127 L 1.39465,-101.948 L 1.31445,-101.777
 L 1.21352,-101.618 L 1.09344,-101.473 L 0.956131,-101.344 L 0.803726,-101.234 L 0.638657,-101.143 L 0.463516,-101.073
 L 0.281067,-101.027 L 0.0941772,-101.003 z
M -15.0942,-101.003 L -15.2811,-101.027 L -15.4635,-101.073 L -15.6387,-101.143 L -15.8037,-101.234 L -15.9561,-101.344
 L -16.0934,-101.473 L -16.2135,-101.618 L -16.3145,-101.777 L -16.3947,-101.948 L -16.4529,-102.127 L -16.4882,-102.312
 L -16.5,-102.5 L -16.4882,-102.688 L -16.4529,-102.873 L -16.3947,-103.052 L -16.3145,-103.223 L -16.2135,-103.382
 L -16.0934,-103.527 L -15.9561,-103.656 L -15.8037,-103.766 L -15.6387,-103.857 L -15.4635,-103.927 L -15.2811,-103.973
 L -15.0942,-103.997 L -14.9058,-103.997 L -14.7189,-103.973 L -14.5365,-103.927 L -14.3613,-103.857 L -14.1963,-103.766
 L -14.0439,-103.656 L -13.9065,-103.527 L -13.7865,-103.382 L -13.6855,-103.223 L -13.6053,-103.052 L -13.5471,-102.873
 L -13.5118,-102.688 L -13.5,-102.5 L -13.5118,-102.312 L -13.5471,-102.127 L -13.6053,-101.948 L -13.6855,-101.777
 L -13.7865,-101.618 L -13.9065,-101.473 L -14.0439,-101.344 L -14.1963,-101.234 L -14.3613,-101.143 L -14.5365,-101.073
 L -14.7189,-101.027 L -14.9058,-101.003 z
M -0.18837,-92.0059 L -0.562134,-92.0531 L -0.927048,-92.1468 L -1.27733,-92.2855 L -1.60747,-92.467 L -1.91226,-92.6885
 L -2.1869,-92.9464 L -2.42705,-93.2366 L -2.62891,-93.5547 L -2.78932,-93.8956 L -2.90575,-94.2539 L -2.97633,-94.624
 L -3,-95 L -2.97633,-95.376 L -2.90575,-95.7461 L -2.78932,-96.1044 L -2.62891,-96.4453 L -2.42705,-96.7634
 L -2.1869,-97.0536 L -1.91226,-97.3116 L -1.60747,-97.533 L -1.27733,-97.7145 L -0.927048,-97.8532 L -0.562134,-97.9469
 L -0.18837,-97.9941 L 0.18837,-97.9941 L 0.562134,-97.9469 L 0.927048,-97.8532 L 1.27733,-97.7145 L 1.60747,-97.533
 L 1.91226,-97.3116 L 2.1869,-97.0536 L 2.42705,-96.7634 L 2.62891,-96.4453 L 2.78932,-96.1044 L 2.90575,-95.7461
 L 2.97633,-95.376 L 3,-95 L 2.97633,-94.624 L 2.90575,-94.2539 L 2.78932,-93.8956 L 2.62891,-93.5547
 L 2.42705,-93.2366 L 2.1869,-92.9464 L 1.91226,-92.6885 L 1.60747,-92.467 L 1.27733,-92.2855 L 0.927048,-92.1468
 L 0.562134,-92.0531 L 0.18837,-92.0059 z
M -15.1884,-92.0059 L -15.5621,-92.0531 L -15.927,-92.1468 L -16.2773,-92.2855 L -16.6075,-92.467 L -16.9123,-92.6885
 L -17.1869,-92.9464 L -17.427,-93.2366 L -17.6289,-93.5547 L -17.7893,-93.8956 L -17.9057,-94.2539 L -17.9763,-94.624
 L -18,-95 L -17.9763,-95.376 L -17.9057,-95.7461 L -17.7893,-96.1044 L -17.6289,-96.4453 L -17.427,-96.7634
 L -17.1869,-97.0536 L -16.9123,-97.3116 L -16.6075,-97.533 L -16.2773,-97.7145 L -15.927,-97.8532 L -15.5621,-97.9469
 L -15.1884,-97.9941 L -14.8116,-97.9941 L -14.4379,-97.9469 L -14.0729,-97.8532 L -13.7227,-97.7145 L -13.3925,-97.533
 L -13.0877,-97.3116 L -12.8131,-97.0536 L -12.5729,-96.7634 L -12.3711,-96.4453 L -12.2107,-96.1044 L -12.0942,-95.7461
 L -12.0237,-95.376 L -12,-95 L -12.0237,-94.624 L -12.0942,-94.2539 L -12.2107,-93.8956 L -12.3711,-93.5547
 L -12.5729,-93.2366 L -12.8131,-92.9464 L -13.0877,-92.6885 L -13.3925,-92.467 L -13.7227,-92.2855 L -14.0729,-92.1468
 L -14.4379,-92.0531 L -14.8116,-92.0059 z
M 14.8116,-92.0059 L 14.4379,-92.0531 L 14.0729,-92.1468 L 13.7227,-92.2855 L 13.3925,-92.467 L 13.0877,-92.6885
 L 12.8131,-92.9464 L 12.5729,-93.2366 L 12.3711,-93.5547 L 12.2107,-93.8956 L 12.0942,-94.2539 L 12.0237,-94.624
 L 12,-95 L 12.0237,-95.376 L 12.0942,-95.7461 L 12.2107,-96.1044 L 12.3711,-96.4453 L 12.5729,-96.7634
 L 12.8131,-97.0536 L 13.0877,-97.3116 L 13.3925,-97.533 L 13.7227,-97.7145 L 14.0729,-97.8532 L 14.4379,-97.9469
 L 14.8116,-97.9941 L 15.1884,-97.9941 L 15.5621,-97.9469 L 15.927,-97.8532 L 16.2773,-97.7145 L 16.6075,-97.533
 L 16.9123,-97.3116 L 17.1869,-97.0536 L 17.427,-96.7634 L 17.6289,-96.4453 L 17.7893,-96.1044 L 17.9057,-95.7461
 L 17.9763,-95.376 L 18,-95 L 17.9763,-94.624 L 17.9057,-94.2539 L 17.7893,-93.8956 L 17.6289,-93.5547
 L 17.427,-93.2366 L 17.1869,-92.9464 L 16.9123,-92.6885 L 16.6075,-92.467 L 16.2773,-92.2855 L 15.927,-92.1468
 L 15.5621,-92.0531 L 15.1884,-92.0059 z
M 7.40581,-93.503 L 7.21892,-93.5266 L 7.03647,-93.5734 L 6.86133,-93.6428 L 6.69626,-93.7335 L 6.54385,-93.8442
 L 6.40654,-93.9732 L 6.28647,-94.1183 L 6.18553,-94.2774 L 6.10533,-94.4478 L 6.04712,-94.627 L 6.01183,-94.812
 L 6,-95 L 6.01183,-95.188 L 6.04712,-95.373 L 6.10533,-95.5522 L 6.18553,-95.7226 L 6.28647,-95.8817
 L 6.40654,-96.0268 L 6.54385,-96.1558 L 6.69626,-96.2665 L 6.86133,-96.3573 L 7.03647,-96.4266 L 7.21892,-96.4734
 L 7.40581,-96.4971 L 7.59418,-96.4971 L 7.78107,-96.4734 L 7.96352,-96.4266 L 8.13866,-96.3573 L 8.30373,-96.2665
 L 8.45613,-96.1558 L 8.59344,-96.0268 L 8.71352,-95.8817 L 8.81445,-95.7226 L 8.89465,-95.5522 L 8.95287,-95.373
 L 8.98816,-95.188 L 9,-95 L 8.98816,-94.812 L 8.95287,-94.627 L 8.89465,-94.4478 L 8.81445,-94.2774
 L 8.71352,-94.1183 L 8.59344,-93.9732 L 8.45613,-93.8442 L 8.30373,-93.7335 L 8.13866,-93.6428 L 7.96352,-93.5734
 L 7.78107,-93.5266 L 7.59418,-93.503 z
M -22.5942,-93.503 L -22.7811,-93.5266 L -22.9635,-93.5734 L -23.1387,-93.6428 L -23.3037,-93.7335 L -23.4561,-93.8442
 L -23.5934,-93.9732 L -23.7135,-94.1183 L -23.8145,-94.2774 L -23.8947,-94.4478 L -23.9529,-94.627 L -23.9882,-94.812
 L -24,-95 L -23.9882,-95.188 L -23.9529,-95.373 L -23.8947,-95.5522 L -23.8145,-95.7226 L -23.7135,-95.8817
 L -23.5934,-96.0268 L -23.4561,-96.1558 L -23.3037,-96.2665 L -23.1387,-96.3573 L -22.9635,-96.4266 L -22.7811,-96.4734
 L -22.5942,-96.4971 L -22.4058,-96.4971 L -22.2189,-96.4734 L -22.0365,-96.4266 L -21.8613,-96.3573 L -21.6963,-96.2665
 L -21.5439,-96.1558 L -21.4065,-96.0268 L -21.2865,-95.8817 L -21.1855,-95.7226 L -21.1053,-95.5522 L -21.0471,-95.373
 L -21.0118,-95.188 L -21,-95 L -21.0118,-94.812 L -21.0471,-94.627 L -21.1053,-94.4478 L -21.1855,-94.2774
 L -21.2865,-94.1183 L -21.4065,-93.9732 L -21.5439,-93.8442 L -21.6963,-93.7335 L -21.8613,-93.6428 L -22.0365,-93.5734
 L -22.2189,-93.5266 L -22.4058,-93.503 z
M -7.59418,-93.503 L -7.78107,-93.5266 L -7.96352,-93.5734 L -8.13866,-93.6428 L -8.30373,-93.7335 L -8.45613,-93.8442
 L -8.59344,-93.9732 L -8.71352,-94.1183 L -8.81445,-94.2774 L -8.89465,-94.4478 L -8.95287,-94.627 L -8.98816,-94.812
 L -9,-95 L -8.98816,-95.188 L -8.95287,-95.373 L -8.89465,-95.5522 L -8.81445,-95.7226 L -8.71352,-95.8817
 L -8.59344,-96.0268 L -8.45613,-96.1558 L -8.30373,-96.2665 L -8.13866,-96.3573 L -7.96352,-96.4266 L -7.78107,-96.4734
 L -7.59418,-96.4971 L -7.40581,-96.4971 L -7.21892,-96.4734 L -7.03647,-96.4266 L -6.86133,-96.3573 L -6.69626,-96.2665
 L -6.54385,-96.1558 L -6.40654,-96.0268 L -6.28647,-95.8817 L -6.18553,-95.7226 L -6.10533,-95.5522 L -6.04712,-95.373
 L -6.01183,-95.188 L -6,-95 L -6.01183,-94.812 L -6.04712,-94.627 L -6.10533,-94.4478 L -6.18553,-94.2774
 L -6.28647,-94.1183 L -6.40654,-93.9732 L -6.54385,-93.8442 L -6.69626,-93.7335 L -6.86133,-93.6428 L -7.03647,-93.5734
 L -7.21892,-93.5266 L -7.40581,-93.503 z
M 22.4058,-93.503 L 22.2189,-93.5266 L 22.0365,-93.5734 L 21.8613,-93.6428 L 21.6963,-93.7335 L 21.5439,-93.8442
 L 21.4065,-93.9732 L 21.2865,-94.1183 L 21.1855,-94.2774 L 21.1053,-94.4478 L 21.0471,-94.627 L 21.0118,-94.812
 L 21,-95 L 21.0118,-95.188 L 21.0471,-95.373 L 21.1053,-95.5522 L 21.1855,-95.7226 L 21.2865,-95.8817
 L 21.4065,-96.0268 L 21.5439,-96.1558 L 21.6963,-96.2665 L 21.8613,-96.3573 L 22.0365,-96.4266 L 22.2189,-96.4734
 L 22.4058,-96.4971 L 22.5942,-96.4971 L 22.7811,-96.4734 L 22.9635,-96.4266 L 23.1387,-96.3573 L 23.3037,-96.2665
 L 23.4561,-96.1558 L 23.5934,-96.0268 L 23.7135,-95.8817 L 23.8145,-95.7226 L 23.8947,-95.5522 L 23.9529,-95.373
 L 23.9882,-95.188 L 24,-95 L 23.9882,-94.812 L 23.9529,-94.627 L 23.8947,-94.4478 L 23.8145,-94.2774
 L 23.7135,-94.1183 L 23.5934,-93.9732 L 23.4561,-93.8442 L 23.3037,-93.7335 L 23.1387,-93.6428 L 22.9635,-93.5734
 L 22.7811,-93.5266 L 22.5942,-93.503 z
M -0.0941772,-86.003 L -0.281067,-86.0266 L -0.463516,-86.0734 L -0.638657,-86.1428 L -0.803726,-86.2335 L -0.956131,-86.3442
 L -1.09344,-86.4732 L -1.21352,-86.6183 L -1.31445,-86.7774 L -1.39465,-86.9478 L -1.45287,-87.127 L -1.48816,-87.312
 L -1.5,-87.5 L -1.48816,-87.688 L -1.45287,-87.873 L -1.39465,-88.0522 L -1.31445,-88.2226 L -1.21352,-88.3817
 L -1.09344,-88.5268 L -0.956131,-88.6558 L -0.803726,-88.7665 L -0.638657,-88.8573 L -0.463516,-88.9266 L -0.281067,-88.9734
 L -0.0941772,-88.997 L 0.0941772,-88.997 L 0.281067,-88.9734 L 0.463516,-88.9266 L 0.638657,-88.8573 L 0.803726,-88.7665
 L 0.956131,-88.6558 L 1.09344,-88.5268 L 1.21352,-88.3817 L 1.31445,-88.2226 L 1.39465,-88.0522 L 1.45287,-87.873
 L 1.48816,-87.688 L 1.5,-87.5 L 1.48816,-87.312 L 1.45287,-87.127 L 1.39465,-86.9478 L 1.31445,-86.7774
 L 1.21352,-86.6183 L 1.09344,-86.4732 L 0.956131,-86.3442 L 0.803726,-86.2335 L 0.638657,-86.1428 L 0.463516,-86.0734
 L 0.281067,-86.0266 L 0.0941772,-86.003 z
M -15.0942,-86.003 L -15.2811,-86.0266 L -15.4635,-86.0734 L -15.6387,-86.1428 L -15.8037,-86.2335 L -15.9561,-86.3442
 L -16.0934,-86.4732 L -16.2135,-86.6183 L -16.3145,-86.7774 L -16.3947,-86.9478 L -16.4529,-87.127 L -16.4882,-87.312
 L -16.5,-87.5 L -16.4882,-87.688 L -16.4529,-87.873 L -16.3947,-88.0522 L -16.3145,-88.2226 L -16.2135,-88.3817
 L -16.0934,-88.5268 L -15.9561,-88.6558 L -15.8037,-88.7665 L -15.6387,-88.8573 L -15.4635,-88.9266 L -15.2811,-88.9734
 L -15.0942,-88.997 L -14.9058,-88.997 L -14.7189,-88.9734 L -14.5365,-88.9266 L -14.3613,-88.8573 L -14.1963,-88.7665
 L -14.0439,-88.6558 L -13.9065,-88.5268 L -13.7865,-88.3817 L -13.6855,-88.2226 L -13.6053,-88.0522 L -13.5471,-87.873
 L -13.5118,-87.688 L -13.5,-87.5 L -13.5118,-87.312 L -13.5471,-87.127 L -13.6053,-86.9478 L -13.6855,-86.7774
 L -13.7865,-86.6183 L -13.9065,-86.4732 L -14.0439,-86.3442 L -14.1963,-86.2335 L -14.3613,-86.1428 L -14.5365,-86.0734
 L -14.7189,-86.0266 L -14.9058,-86.003 z
M 14.9058,-86.003 L 14.7189,-86.0266 L 14.5365,-86.0734 L 14.3613,-86.1428 L 14.1963,-86.2335 L 14.0439,-86.3442
 L 13.9065,-86.4732 L 13.7865,-86.6183 L 13.6855,-86.7774 L 13.6053,-86.9478 L 13.5471,-87.127 L 13.5118,-87.312
 L 13.5,-87.5 L 13.5118,-87.688 L 13.5471,-87.873 L 13.6053,-88.0522 L 13.6855,-88.2226 L 13.7865,-88.3817
 L 13.9065,-88.5268 L 14.0439,-88.6558 L 14.1963,-88.7665 L 14.3613,-88.8573 L 14.5365,-88.9266 L 14.7189,-88.9734
 L 14.9058,-88.997 L 15.0942,-88.997 L 15.2811,-88.9734 L 15.4635,-88.9266 L 15.6387,-88.8573 L 15.8037,-88.7665
 L 15.9561,-88.6558 L 16.0934,-88.5268 L 16.2135,-88.3817 L 16.3145,-88.2226 L 16.3947,-88.0522 L 16.4529,-87.873
 L 16.4882,-87.688 L 16.5,-87.5 L 16.4882,-87.312 L 16.4529,-87.127 L 16.3947,-86.9478 L 16.3145,-86.7774
 L 16.2135,-86.6183 L 16.0934,-86.4732 L 15.9561,-86.3442 L 15.8037,-86.2335 L 15.6387,-86.1428 L 15.4635,-86.0734
 L 15.2811,-86.0266 L 15.0942,-86.003 z
M -0.18837,-77.0059 L -0.562134,-77.0531 L -0.927048,-77.1468 L -1.27733,-77.2855 L -1.60747,-77.467 L -1.91226,-77.6885
 L -2.1869,-77.9464 L -2.42705,-78.2366 L -2.62891,-78.5547 L -2.78932,-78.8956 L -2.90575,-79.2539 L -2.97633,-79.624
 L -3,-80 L -2.97633,-80.376 L -2.90575,-80.7461 L -2.78932,-81.1044 L -2.62891,-81.4453 L -2.42705,-81.7634
 L -2.1869,-82.0536 L -1.91226,-82.3116 L -1.60747,-82.533 L -1.27733,-82.7145 L -0.927048,-82.8532 L -0.562134,-82.9469
 L -0.18837,-82.9941 L 0.18837,-82.9941 L 0.562134,-82.9469 L 0.927048,-82.8532 L 1.27733,-82.7145 L 1.60747,-82.533
 L 1.91226,-82.3116 L 2.1869,-82.0536 L 2.42705,-81.7634 L 2.62891,-81.4453 L 2.78932,-81.1044 L 2.90575,-80.7461
 L 2.97633,-80.376 L 3,-80 L 2.97633,-79.624 L 2.90575,-79.2539 L 2.78932,-78.8956 L 2.62891,-78.5547
 L 2.42705,-78.2366 L 2.1869,-77.9464 L 1.91226,-77.6885 L 1.60747,-77.467 L 1.27733,-77.2855 L 0.927048,-77.1468
 L 0.562134,-77.0531 L 0.18837,-77.0059 z
M 7.10208,37.2305 L 11.7123,36.0468 L 16.1378,34.2946 L 20.3088,32.0015 L 24.1595,29.2038 L 27.6292,25.9456
 L 30.6632,22.2781 L 33.2136,18.2593 L 35.2402,13.9526 L 36.711,9.42578 L 37.6029,4.75035 L 37.9018,-0
 L 37.6029,-4.75035 L 36.711,-9.42578 L 35.2402,-13.9526 L 33.2136,-18.2593 L 30.6632,-22.2781 L 27.6292,-25.9456
 L 24.1595,-29.2038 L 20.3088,-32.0015 L 16.1378,-34.2946 L 11.7123,-36.0468 L 7.10208,-37.2305 L 2.37987,-37.827
 L -2.37987,-37.827 L -7.10208,-37.2305 L -11.7123,-36.0468 L -16.1378,-34.2946 L -20.3088,-32.0015 L -24.1595,-29.2038
 L -27.6292,-25.9456 L -30.6632,-22.2781 L -33.2136,-18.2593 L -35.2402,-13.9526 L -36.711,-9.42578 L -37.6029,-4.75035
 L -37.9018,-0 L -37.6029,4.75035 L -36.711,9.42578 L -35.2402,13.9526 L -33.2136,18.2593 L -30.6632,22.2781
 L -27.6292,25.9456 L -24.1595,29.2038 L -20.3088,32.0015 L -16.1378,34.2946 L -11.7123,36.0468 L -7.10208,37.2305
 L -2.37987,37.827 L 2.37987,37.827 z
M -0.18837,-27.0059 L -0.562134,-27.0531 L -0.927048,-27.1468 L -1.27733,-27.2855 L -1.60747,-27.467 L -1.91226,-27.6884
 L -2.1869,-27.9464 L -2.42705,-28.2366 L -2.62891,-28.5547 L -2.78932,-28.8956 L -2.90575,-29.2539 L -2.97633,-29.624
 L -3,-30 L -2.97633,-30.376 L -2.90575,-30.7461 L -2.78932,-31.1044 L -2.62891,-31.4453 L -2.42705,-31.7634
 L -2.1869,-32.0536 L -1.91226,-32.3115 L -1.60747,-32.533 L -1.27733,-32.7145 L -0.927048,-32.8532 L -0.562134,-32.9469
 L -0.18837,-32.9941 L 0.18837,-32.9941 L 0.562134,-32.9469 L 0.927048,-32.8532 L 1.27733,-32.7145 L 1.60747,-32.533
 L 1.91226,-32.3115 L 2.1869,-32.0536 L 2.42705,-31.7634 L 2.62891,-31.4453 L 2.78932,-31.1044 L 2.90575,-30.7461
 L 2.97633,-30.376 L 3,-30 L 2.97633,-29.624 L 2.90575,-29.2539 L 2.78932,-28.8956 L 2.62891,-28.5547
 L 2.42705,-28.2366 L 2.1869,-27.9464 L 1.91226,-27.6884 L 1.60747,-27.467 L 1.27733,-27.2855 L 0.927048,-27.1468
 L 0.562134,-27.0531 L 0.18837,-27.0059 z
M 14.9058,-21.003 L 14.7189,-21.0266 L 14.5365,-21.0734 L 14.3613,-21.1427 L 14.1963,-21.2335 L 14.0439,-21.3442
 L 13.9065,-21.4732 L 13.7865,-21.6183 L 13.6855,-21.7774 L 13.6053,-21.9478 L 13.5471,-22.127 L 13.5118,-22.312
 L 13.5,-22.5 L 13.5118,-22.688 L 13.5471,-22.873 L 13.6053,-23.0522 L 13.6855,-23.2226 L 13.7865,-23.3817
 L 13.9065,-23.5268 L 14.0439,-23.6558 L 14.1963,-23.7665 L 14.3613,-23.8572 L 14.5365,-23.9266 L 14.7189,-23.9734
 L 14.9058,-23.997 L 15.0942,-23.997 L 15.2811,-23.9734 L 15.4635,-23.9266 L 15.6387,-23.8572 L 15.8037,-23.7665
 L 15.9561,-23.6558 L 16.0934,-23.5268 L 16.2135,-23.3817 L 16.3145,-23.2226 L 16.3947,-23.0522 L 16.4529,-22.873
 L 16.4882,-22.688 L 16.5,-22.5 L 16.4882,-22.312 L 16.4529,-22.127 L 16.3947,-21.9478 L 16.3145,-21.7774
 L 16.2135,-21.6183 L 16.0934,-21.4732 L 15.9561,-21.3442 L 15.8037,-21.2335 L 15.6387,-21.1427 L 15.4635,-21.0734
 L 15.2811,-21.0266 L 15.0942,-21.003 z
M -15.0942,-21.003 L -15.2811,-21.0266 L -15.4635,-21.0734 L -15.6387,-21.1427 L -15.8037,-21.2335 L -15.9561,-21.3442
 L -16.0934,-21.4732 L -16.2135,-21.6183 L -16.3145,-21.7774 L -16.3947,-21.9478 L -16.4529,-22.127 L -16.4882,-22.312
 L -16.5,-22.5 L -16.4882,-22.688 L -16.4529,-22.873 L -16.3947,-23.0522 L -16.3145,-23.2226 L -16.2135,-23.3817
 L -16.0934,-23.5268 L -15.9561,-23.6558 L -15.8037,-23.7665 L -15.6387,-23.8572 L -15.4635,-23.9266 L -15.2811,-23.9734
 L -15.0942,-23.997 L -14.9058,-23.997 L -14.7189,-23.9734 L -14.5365,-23.9266 L -14.3613,-23.8572 L -14.1963,-23.7665
 L -14.0439,-23.6558 L -13.9065,-23.5268 L -13.7865,-23.3817 L -13.6855,-23.2226 L -13.6053,-23.0522 L -13.5471,-22.873
 L -13.5118,-22.688 L -13.5,-22.5 L -13.5118,-22.312 L -13.5471,-22.127 L -13.6053,-21.9478 L -13.6855,-21.7774
 L -13.7865,-21.6183 L -13.9065,-21.4732 L -14.0439,-21.3442 L -14.1963,-21.2335 L -14.3613,-21.1427 L -14.5365,-21.0734
 L -14.7189,-21.0266 L -14.9058,-21.003 z
M -0.0941772,-21.003 L -0.281067,-21.0266 L -0.463516,-21.0734 L -0.638657,-21.1427 L -0.803726,-21.2335 L -0.956131,-21.3442
 L -1.09344,-21.4732 L -1.21352,-21.6183 L -1.31445,-21.7774 L -1.39465,-21.9478 L -1.45287,-22.127 L -1.48816,-22.312
 L -1.5,-22.5 L -1.48816,-22.688 L -1.45287,-22.873 L -1.39465,-23.0522 L -1.31445,-23.2226 L -1.21352,-23.3817
 L -1.09344,-23.5268 L -0.956131,-23.6558 L -0.803726,-23.7665 L -0.638657,-23.8572 L -0.463516,-23.9266 L -0.281067,-23.9734
 L -0.0941772,-23.997 L 0.0941772,-23.997 L 0.281067,-23.9734 L 0.463516,-23.9266 L 0.638657,-23.8572 L 0.803726,-23.7665
 L 0.956131,-23.6558 L 1.09344,-23.5268 L 1.21352,-23.3817 L 1.31445,-23.2226 L 1.39465,-23.0522 L 1.45287,-22.873
 L 1.48816,-22.688 L 1.5,-22.5 L 1.48816,-22.312 L 1.45287,-22.127 L 1.39465,-21.9478 L 1.31445,-21.7774
 L 1.21352,-21.6183 L 1.09344,-21.4732 L 0.956131,-21.3442 L 0.803726,-21.2335 L 0.638657,-21.1427 L 0.463516,-21.0734
 L 0.281067,-21.0266 L 0.0941772,-21.003 z
M -0.18837,-12.0059 L -0.562134,-12.0531 L -0.927048,-12.1468 L -1.27733,-12.2855 L -1.60747,-12.467 L -1.91226,-12.6884
 L -2.1869,-12.9464 L -2.42705,-13.2366 L -2.62891,-13.5547 L -2.78932,-13.8956 L -2.90575,-14.2539 L -2.97633,-14.624
 L -3,-15 L -2.97633,-15.376 L -2.90575,-15.7461 L -2.78932,-16.1044 L -2.62891,-16.4453 L -2.42705,-16.7634
 L -2.1869,-17.0536 L -1.91226,-17.3115 L -1.60747,-17.533 L -1.27733,-17.7145 L -0.927048,-17.8532 L -0.562134,-17.9469
 L -0.18837,-17.9941 L 0.18837,-17.9941 L 0.562134,-17.9469 L 0.927048,-17.8532 L 1.27733,-17.7145 L 1.60747,-17.533
 L 1.91226,-17.3115 L 2.1869,-17.0536 L 2.42705,-16.7634 L 2.62891,-16.4453 L 2.78932,-16.1044 L 2.90575,-15.7461
 L 2.97633,-15.376 L 3,-15 L 2.97633,-14.624 L 2.90575,-14.2539 L 2.78932,-13.8956 L 2.62891,-13.5547
 L 2.42705,-13.2366 L 2.1869,-12.9464 L 1.91226,-12.6884 L 1.60747,-12.467 L 1.27733,-12.2855 L 0.927048,-12.1468
 L 0.562134,-12.0531 L 0.18837,-12.0059 z
M -15.1884,-12.0059 L -15.5621,-12.0531 L -15.927,-12.1468 L -16.2773,-12.2855 L -16.6075,-12.467 L -16.9123,-12.6884
 L -17.1869,-12.9464 L -17.427,-13.2366 L -17.6289,-13.5547 L -17.7893,-13.8956 L -17.9057,-14.2539 L -17.9763,-14.624
 L -18,-15 L -17.9763,-15.376 L -17.9057,-15.7461 L -17.7893,-16.1044 L -17.6289,-16.4453 L -17.427,-16.7634
 L -17.1869,-17.0536 L -16.9123,-17.3115 L -16.6075,-17.533 L -16.2773,-17.7145 L -15.927,-17.8532 L -15.5621,-17.9469
 L -15.1884,-17.9941 L -14.8116,-17.9941 L -14.4379,-17.9469 L -14.0729,-17.8532 L -13.7227,-17.7145 L -13.3925,-17.533
 L -13.0877,-17.3115 L -12.8131,-17.0536 L -12.5729,-16.7634 L -12.3711,-16.4453 L -12.2107,-16.1044 L -12.0942,-15.7461
 L -12.0237,-15.376 L -12,-15 L -12.0237,-14.624 L -12.0942,-14.2539 L -12.2107,-13.8956 L -12.3711,-13.5547
 L -12.5729,-13.2366 L -12.8131,-12.9464 L -13.0877,-12.6884 L -13.3925,-12.467 L -13.7227,-12.2855 L -14.0729,-12.1468
 L -14.4379,-12.0531 L -14.8116,-12.0059 z
M 14.8116,-12.0059 L 14.4379,-12.0531 L 14.0729,-12.1468 L 13.7227,-12.2855 L 13.3925,-12.467 L 13.0877,-12.6884
 L 12.8131,-12.9464 L 12.5729,-13.2366 L 12.3711,-13.5547 L 12.2107,-13.8956 L 12.0942,-14.2539 L 12.0237,-14.624
 L 12,-15 L 12.0237,-15.376 L 12.0942,-15.7461 L 12.2107,-16.1044 L 12.3711,-16.4453 L 12.5729,-16.7634
 L 12.8131,-17.0536 L 13.0877,-17.3115 L 13.3925,-17.533 L 13.7227,-17.7145 L 14.0729,-17.8532 L 14.4379,-17.9469
 L 14.8116,-17.9941 L 15.1884,-17.9941 L 15.5621,-17.9469 L 15.927,-17.8532 L 16.2773,-17.7145 L 16.6075,-17.533
 L 16.9123,-17.3115 L 17.1869,-17.0536 L 17.427,-16.7634 L 17.6289,-16.4453 L 17.7893,-16.1044 L 17.9057,-15.7461
 L 17.9763,-15.376 L 18,-15 L 17.9763,-14.624 L 17.9057,-14.2539 L 17.7893,-13.8956 L 17.6289,-13.5547
 L 17.427,-13.2366 L 17.1869,-12.9464 L 16.9123,-12.6884 L 16.6075,-12.467 L 16.2773,-12.2855 L 15.927,-12.1468
 L 15.5621,-12.0531 L 15.1884,-12.0059 z
M -22.5942,-13.5029 L -22.7811,-13.5266 L -22.9635,-13.5734 L -23.1387,-13.6427 L -23.3037,-13.7335 L -23.4561,-13.8442
 L -23.5934,-13.9732 L -23.7135,-14.1183 L -23.8145,-14.2774 L -23.8947,-14.4478 L -23.9529,-14.627 L -23.9882,-14.812
 L -24,-15 L -23.9882,-15.188 L -23.9529,-15.373 L -23.8947,-15.5522 L -23.8145,-15.7226 L -23.7135,-15.8817
 L -23.5934,-16.0268 L -23.4561,-16.1558 L -23.3037,-16.2665 L -23.1387,-16.3572 L -22.9635,-16.4266 L -22.7811,-16.4734
 L -22.5942,-16.497 L -22.4058,-16.497 L -22.2189,-16.4734 L -22.0365,-16.4266 L -21.8613,-16.3572 L -21.6963,-16.2665
 L -21.5439,-16.1558 L -21.4065,-16.0268 L -21.2865,-15.8817 L -21.1855,-15.7226 L -21.1053,-15.5522 L -21.0471,-15.373
 L -21.0118,-15.188 L -21,-15 L -21.0118,-14.812 L -21.0471,-14.627 L -21.1053,-14.4478 L -21.1855,-14.2774
 L -21.2865,-14.1183 L -21.4065,-13.9732 L -21.5439,-13.8442 L -21.6963,-13.7335 L -21.8613,-13.6427 L -22.0365,-13.5734
 L -22.2189,-13.5266 L -22.4058,-13.5029 z
M 22.4058,-13.5029 L 22.2189,-13.5266 L 22.0365,-13.5734 L 21.8613,-13.6427 L 21.6963,-13.7335 L 21.5439,-13.8442
 L 21.4065,-13.9732 L 21.2865,-14.1183 L 21.1855,-14.2774 L 21.1053,-14.4478 L 21.0471,-14.627 L 21.0118,-14.812
 L 21,-15 L 21.0118,-15.188 L 21.0471,-15.373 L 21.1053,-15.5522 L 21.1855,-15.7226 L 21.2865,-15.8817
 L 21.4065,-16.0268 L 21.5439,-16.1558 L 21.6963,-16.2665 L 21.8613,-16.3572 L 22.0365,-16.4266 L 22.2189,-16.4734
 L 22.4058,-16.497 L 22.5942,-16.497 L 22.7811,-16.4734 L 22.9635,-16.4266 L 23.1387,-16.3572 L 23.3037,-16.2665
 L 23.4561,-16.1558 L 23.5934,-16.0268 L 23.7135,-15.8817 L 23.8145,-15.7226 L 23.8947,-15.5522 L 23.9529,-15.373
 L 23.9882,-15.188 L 24,-15 L 23.9882,-14.812 L 23.9529,-14.627 L 23.8947,-14.4478 L 23.8145,-14.2774
 L 23.7135,-14.1183 L 23.5934,-13.9732 L 23.4561,-13.8442 L 23.3037,-13.7335 L 23.1387,-13.6427 L 22.9635,-13.5734
 L 22.7811,-13.5266 L 22.5942,-13.5029 z
M -7.59418,-13.5029 L -7.78107,-13.5266 L -7.96352,-13.5734 L -8.13866,-13.6427 L -8.30373,-13.7335 L -8.45613,-13.8442
 L -8.59344,-13.9732 L -8.71352,-14.1183 L -8.81445,-14.2774 L -8.89465,-14.4478 L -8.95287,-14.627 L -8.98816,-14.812
 L -9,-15 L -8.98816,-15.188 L -8.95287,-15.373 L -8.89465,-15.5522 L -8.81445,-15.7226 L -8.71352,-15.8817
 L -8.59344,-16.0268 L -8.45613,-16.1558 L -8.30373,-16.2665 L -8.13866,-16.3572 L -7.96352,-16.4266 L -7.78107,-16.4734
 L -7.59418,-16.497 L -7.40581,-16.497 L -7.21892,-16.4734 L -7.03647,-16.4266 L -6.86133,-16.3572 L -6.69626,-16.2665
 L -6.54385,-16.1558 L -6.40654,-16.0268 L -6.28647,-15.8817 L -6.18553,-15.7226 L -6.10533,-15.5522 L -6.04712,-15.373
 L -6.01183,-15.188 L -6,-15 L -6.01183,-14.812 L -6.04712,-14.627 L -6.10533,-14.4478 L -6.18553,-14.2774
 L -6.28647,-14.1183 L -6.40654,-13.9732 L -6.54385,-13.8442 L -6.69626,-13.7335 L -6.86133,-13.6427 L -7.03647,-13.5734
 L -7.21892,-13.5266 L -7.40581,-13.5029 z
M 7.40581,-13.5029 L 7.21892,-13.5266 L 7.03647,-13.5734 L 6.86133,-13.6427 L 6.69626,-13.7335 L 6.54385,-13.8442
 L 6.40654,-13.9732 L 6.28647,-14.1183 L 6.18553,-14.2774 L 6.10533,-14.4478 L 6.04712,-14.627 L 6.01183,-14.812
 L 6,-15 L 6.01183,-15.188 L 6.04712,-15.373 L 6.10533,-15.5522 L 6.18553,-15.7226 L 6.28647,-15.8817
 L 6.40654,-16.0268 L 6.54385,-16.1558 L 6.69626,-16.2665 L 6.86133,-16.3572 L 7.03647,-16.4266 L 7.21892,-16.4734
 L 7.40581,-16.497 L 7.59418,-16.497 L 7.78107,-16.4734 L 7.96352,-16.4266 L 8.13866,-16.3572 L 8.30373,-16.2665
 L 8.45613,-16.1558 L 8.59344,-16.0268 L 8.71352,-15.8817 L 8.81445,-15.7226 L 8.89465,-15.5522 L 8.95287,-15.373
 L 8.98816,-15.188 L 9,-15 L 8.98816,-14.812 L 8.95287,-14.627 L 8.89465,-14.4478 L 8.81445,-14.2774
 L 8.71352,-14.1183 L 8.59344,-13.9732 L 8.45613,-13.8442 L 8.30373,-13.7335 L 8.13866,-13.6427 L 7.96352,-13.5734
 L 7.78107,-13.5266 L 7.59418,-13.5029 z
M -15.0942,-6.00294 L -15.2811,-6.02657 L -15.4635,-6.07341 L -15.6387,-6.14275 L -15.8037,-6.23351 L -15.9561,-6.34422
 L -16.0934,-6.47318 L -16.2135,-6.61832 L -16.3145,-6.77736 L -16.3947,-6.9478 L -16.4529,-7.12695 L -16.4882,-7.312
 L -16.5,-7.5 L -16.4882,-7.68799 L -16.4529,-7.87303 L -16.3947,-8.05219 L -16.3145,-8.22263 L -16.2135,-8.38167
 L -16.0934,-8.52681 L -15.9561,-8.65576 L -15.8037,-8.76648 L -15.6387,-8.85724 L -15.4635,-8.92657 L -15.2811,-8.97342
 L -15.0942,-8.99704 L -14.9058,-8.99704 L -14.7189,-8.97342 L -14.5365,-8.92657 L -14.3613,-8.85724 L -14.1963,-8.76648
 L -14.0439,-8.65576 L -13.9065,-8.52681 L -13.7865,-8.38167 L -13.6855,-8.22263 L -13.6053,-8.05219 L -13.5471,-7.87303
 L -13.5118,-7.68799 L -13.5,-7.5 L -13.5118,-7.312 L -13.5471,-7.12695 L -13.6053,-6.9478 L -13.6855,-6.77736
 L -13.7865,-6.61832 L -13.9065,-6.47318 L -14.0439,-6.34422 L -14.1963,-6.23351 L -14.3613,-6.14275 L -14.5365,-6.07341
 L -14.7189,-6.02657 L -14.9058,-6.00294 z
M 14.9058,-6.00294 L 14.7189,-6.02657 L 14.5365,-6.07341 L 14.3613,-6.14275 L 14.1963,-6.23351 L 14.0439,-6.34422
 L 13.9065,-6.47318 L 13.7865,-6.61832 L 13.6855,-6.77736 L 13.6053,-6.9478 L 13.5471,-7.12695 L 13.5118,-7.312
 L 13.5,-7.5 L 13.5118,-7.68799 L 13.5471,-7.87303 L 13.6053,-8.05219 L 13.6855,-8.22263 L 13.7865,-8.38167
 L 13.9065,-8.52681 L 14.0439,-8.65576 L 14.1963,-8.76648 L 14.3613,-8.85724 L 14.5365,-8.92657 L 14.7189,-8.97342
 L 14.9058,-8.99704 L 15.0942,-8.99704 L 15.2811,-8.97342 L 15.4635,-8.92657 L 15.6387,-8.85724 L 15.8037,-8.76648
 L 15.9561,-8.65576 L 16.0934,-8.52681 L 16.2135,-8.38167 L 16.3145,-8.22263 L 16.3947,-8.05219 L 16.4529,-7.87303
 L 16.4882,-7.68799 L 16.5,-7.5 L 16.4882,-7.312 L 16.4529,-7.12695 L 16.3947,-6.9478 L 16.3145,-6.77736
 L 16.2135,-6.61832 L 16.0934,-6.47318 L 15.9561,-6.34422 L 15.8037,-6.23351 L 15.6387,-6.14275 L 15.4635,-6.07341
 L 15.2811,-6.02657 L 15.0942,-6.00294 z
M -0.0941772,-6.00294 L -0.281067,-6.02657 L -0.463516,-6.07341 L -0.638657,-6.14275 L -0.803726,-6.23351 L -0.956131,-6.34422
 L -1.09344,-6.47318 L -1.21352,-6.61832 L -1.31445,-6.77736 L -1.39465,-6.9478 L -1.45287,-7.12695 L -1.48816,-7.312
 L -1.5,-7.5 L -1.48816,-7.68799 L -1.45287,-7.87303 L -1.39465,-8.05219 L -1.31445,-8.22263 L -1.21352,-8.38167
 L -1.09344,-8.52681 L -0.956131,-8.65576 L -0.803726,-8.76648 L -0.638657,-8.85724 L -0.463516,-8.92657 L -0.281067,-8.97342
 L -0.0941772,-8.99704 L 0.0941772,-8.99704 L 0.281067,-8.97342 L 0.463516,-8.92657 L 0.638657,-8.85724 L 0.803726,-8.76648
 L 0.956131,-8.65576 L 1.09344,-8.52681 L 1.21352,-8.38167 L 1.31445,-8.22263 L 1.39465,-8.05219 L 1.45287,-7.87303
 L 1.48816,-7.68799 L 1.5,-7.5 L 1.48816,-7.312 L 1.45287,-7.12695 L 1.39465,-6.9478 L 1.31445,-6.77736
 L 1.21352,-6.61832 L 1.09344,-6.47318 L 0.956131,-6.34422 L 0.803726,-6.23351 L 0.638657,-6.14275 L 0.463516,-6.07341
 L 0.281067,-6.02657 L 0.0941772,-6.00294 z
M -30.1884,2.99408 L -30.5621,2.94685 L -30.927,2.85316 L -31.2773,2.71448 L -31.6075,2.53297 L -31.9123,2.31154
 L -32.1869,2.05363 L -32.427,1.76335 L -32.6289,1.44525 L -32.7893,1.10437 L -32.9057,0.746063 L -32.9763,0.375992
 L -33,-0 L -32.9763,-0.375992 L -32.9057,-0.746063 L -32.7893,-1.10437 L -32.6289,-1.44525 L -32.427,-1.76335
 L -32.1869,-2.05363 L -31.9123,-2.31154 L -31.6075,-2.53297 L -31.2773,-2.71448 L -30.927,-2.85316 L -30.5621,-2.94685
 L -30.1884,-2.99408 L -29.8116,-2.99408 L -29.4379,-2.94685 L -29.0729,-2.85316 L -28.7227,-2.71448 L -28.3925,-2.53297
 L -28.0877,-2.31154 L -27.8131,-2.05363 L -27.5729,-1.76335 L -27.3711,-1.44525 L -27.2107,-1.10437 L -27.0942,-0.746063
 L -27.0237,-0.375992 L -27,-0 L -27.0237,0.375992 L -27.0942,0.746063 L -27.2107,1.10437 L -27.3711,1.44525
 L -27.5729,1.76335 L -27.8131,2.05363 L -28.0877,2.31154 L -28.3925,2.53297 L -28.7227,2.71448 L -29.0729,2.85316
 L -29.4379,2.94685 L -29.8116,2.99408 z
M 29.8116,2.99408 L 29.4379,2.94685 L 29.0729,2.85316 L 28.7227,2.71448 L 28.3925,2.53297 L 28.0877,2.31154
 L 27.8131,2.05363 L 27.5729,1.76335 L 27.3711,1.44525 L 27.2107,1.10437 L 27.0942,0.746063 L 27.0237,0.375992
 L 27,-0 L 27.0237,-0.375992 L 27.0942,-0.746063 L 27.2107,-1.10437 L 27.3711,-1.44525 L 27.5729,-1.76335
 L 27.8131,-2.05363 L 28.0877,-2.31154 L 28.3925,-2.53297 L 28.7227,-2.71448 L 29.0729,-2.85316 L 29.4379,-2.94685
 L 29.8116,-2.99408 L 30.1884,-2.99408 L 30.5621,-2.94685 L 30.927,-2.85316 L 31.2773,-2.71448 L 31.6075,-2.53297
 L 31.9123,-2.31154 L 32.1869,-2.05363 L 32.427,-1.76335 L 32.6289,-1.44525 L 32.7893,-1.10437 L 32.9057,-0.746063
 L 32.9763,-0.375992 L 33,-0 L 32.9763,0.375992 L 32.9057,0.746063 L 32.7893,1.10437 L 32.6289,1.44525
 L 32.427,1.76335 L 32.1869,2.05363 L 31.9123,2.31154 L 31.6075,2.53297 L 31.2773,2.71448 L 30.927,2.85316
 L 30.5621,2.94685 L 30.1884,2.99408 z
M -0.18837,2.99408 L -0.562134,2.94685 L -0.927048,2.85316 L -1.27733,2.71448 L -1.60747,2.53297 L -1.91226,2.31154
 L -2.1869,2.05363 L -2.42705,1.76335 L -2.62891,1.44525 L -2.78932,1.10437 L -2.90575,0.746063 L -2.97633,0.375992
 L -3,-0 L -2.97633,-0.375992 L -2.90575,-0.746063 L -2.78932,-1.10437 L -2.62891,-1.44525 L -2.42705,-1.76335
 L -2.1869,-2.05363 L -1.91226,-2.31154 L -1.60747,-2.53297 L -1.27733,-2.71448 L -0.927048,-2.85316 L -0.562134,-2.94685
 L -0.18837,-2.99408 L 0.18837,-2.99408 L 0.562134,-2.94685 L 0.927048,-2.85316 L 1.27733,-2.71448 L 1.60747,-2.53297
 L 1.91226,-2.31154 L 2.1869,-2.05363 L 2.42705,-1.76335 L 2.62891,-1.44525 L 2.78932,-1.10437 L 2.90575,-0.746063
 L 2.97633,-0.375992 L 3,-0 L 2.97633,0.375992 L 2.90575,0.746063 L 2.78932,1.10437 L 2.62891,1.44525
 L 2.42705,1.76335 L 2.1869,2.05363 L 1.91226,2.31154 L 1.60747,2.53297 L 1.27733,2.71448 L 0.927048,2.85316
 L 0.562134,2.94685 L 0.18837,2.99408 z
M -15.1884,2.99408 L -15.5621,2.94685 L -15.927,2.85316 L -16.2773,2.71448 L -16.6075,2.53297 L -16.9123,2.31154
 L -17.1869,2.05363 L -17.427,1.76335 L -17.6289,1.44525 L -17.7893,1.10437 L -17.9057,0.746063 L -17.9763,0.375992
 L -18,-0 L -17.9763,-0.375992 L -17.9057,-0.746063 L -17.7893,-1.10437 L -17.6289,-1.44525 L -17.427,-1.76335
 L -17.1869,-2.05363 L -16.9123,-2.31154 L -16.6075,-2.53297 L -16.2773,-2.71448 L -15.927,-2.85316 L -15.5621,-2.94685
 L -15.1884,-2.99408 L -14.8116,-2.99408 L -14.4379,-2.94685 L -14.0729,-2.85316 L -13.7227,-2.71448 L -13.3925,-2.53297
 L -13.0877,-2.31154 L -12.8131,-2.05363 L -12.5729,-1.76335 L -12.3711,-1.44525 L -12.2107,-1.10437 L -12.0942,-0.746063
 L -12.0237,-0.375992 L -12,-0 L -12.0237,0.375992 L -12.0942,0.746063 L -12.2107,1.10437 L -12.3711,1.44525
 L -12.5729,1.76335 L -12.8131,2.05363 L -13.0877,2.31154 L -13.3925,2.53297 L -13.7227,2.71448 L -14.0729,2.85316
 L -14.4379,2.94685 L -14.8116,2.99408 z
M 14.8116,2.99408 L 14.4379,2.94685 L 14.0729,2.85316 L 13.7227,2.71448 L 13.3925,2.53297 L 13.0877,2.31154
 L 12.8131,2.05363 L 12.5729,1.76335 L 12.3711,1.44525 L 12.2107,1.10437 L 12.0942,0.746063 L 12.0237,0.375992
 L 12,-0 L 12.0237,-0.375992 L 12.0942,-0.746063 L 12.2107,-1.10437 L 12.3711,-1.44525 L 12.5729,-1.76335
 L 12.8131,-2.05363 L 13.0877,-2.31154 L 13.3925,-2.53297 L 13.7227,-2.71448 L 14.0729,-2.85316 L 14.4379,-2.94685
 L 14.8116,-2.99408 L 15.1884,-2.99408 L 15.5621,-2.94685 L 15.927,-2.85316 L 16.2773,-2.71448 L 16.6075,-2.53297
 L 16.9123,-2.31154 L 17.1869,-2.05363 L 17.427,-1.76335 L 17.6289,-1.44525 L 17.7893,-1.10437 L 17.9057,-0.746063
 L 17.9763,-0.375992 L 18,-0 L 17.9763,0.375992 L 17.9057,0.746063 L 17.7893,1.10437 L 17.6289,1.44525
 L 17.427,1.76335 L 17.1869,2.05363 L 16.9123,2.31154 L 16.6075,2.53297 L 16.2773,2.71448 L 15.927,2.85316
 L 15.5621,2.94685 L 15.1884,2.99408 z
M -8.09418,1.49704 L -8.28107,1.47342 L -8.46352,1.42657 L -8.63866,1.35724 L -8.80373,1.26648 L -8.95613,1.15576
 L -9.09344,1.02681 L -9.21352,0.881668 L -9.31445,0.722626 L -9.39465,0.552185 L -9.45287,0.373032 L -9.48816,0.187988
 L -9.5,-0 L -9.48816,-0.187988 L -9.45287,-0.373032 L -9.39465,-0.552185 L -9.31445,-0.722626 L -9.21352,-0.881668
 L -9.09344,-1.02681 L -8.95613,-1.15576 L -8.80373,-1.26648 L -8.63866,-1.35724 L -8.46352,-1.42657 L -8.28107,-1.47342
 L -8.09418,-1.49704 L -7.40581,-1.49704 L -7.21892,-1.47342 L -7.03647,-1.42657 L -6.86133,-1.35724 L -6.69626,-1.26648
 L -6.54385,-1.15576 L -6.40654,-1.02681 L -6.28647,-0.881668 L -6.18553,-0.722626 L -6.10533,-0.552185 L -6.04712,-0.373032
 L -6.01183,-0.187988 L -6,-0 L -6.01183,0.187988 L -6.04712,0.373032 L -6.10533,0.552185 L -6.18553,0.722626
 L -6.28647,0.881668 L -6.40654,1.02681 L -6.54385,1.15576 L -6.69626,1.26648 L -6.86133,1.35724 L -7.03647,1.42657
 L -7.21892,1.47342 L -7.40581,1.49704 z
M -22.5942,1.49704 L -22.7811,1.47342 L -22.9635,1.42657 L -23.1387,1.35724 L -23.3037,1.26648 L -23.4561,1.15576
 L -23.5934,1.02681 L -23.7135,0.881668 L -23.8145,0.722626 L -23.8947,0.552185 L -23.9529,0.373032 L -23.9882,0.187988
 L -24,-0 L -23.9882,-0.187988 L -23.9529,-0.373032 L -23.8947,-0.552185 L -23.8145,-0.722626 L -23.7135,-0.881668
 L -23.5934,-1.02681 L -23.4561,-1.15576 L -23.3037,-1.26648 L -23.1387,-1.35724 L -22.9635,-1.42657 L -22.7811,-1.47342
 L -22.5942,-1.49704 L -22.4058,-1.49704 L -22.2189,-1.47342 L -22.0365,-1.42657 L -21.8613,-1.35724 L -21.6963,-1.26648
 L -21.5439,-1.15576 L -21.4065,-1.02681 L -21.2865,-0.881668 L -21.1855,-0.722626 L -21.1053,-0.552185 L -21.0471,-0.373032
 L -21.0118,-0.187988 L -21,-0 L -21.0118,0.187988 L -21.0471,0.373032 L -21.1053,0.552185 L -21.1855,0.722626
 L -21.2865,0.881668 L -21.4065,1.02681 L -21.5439,1.15576 L -21.6963,1.26648 L -21.8613,1.35724 L -22.0365,1.42657
 L -22.2189,1.47342 L -22.4058,1.49704 z
M 7.40581,1.49704 L 7.21892,1.47342 L 7.03647,1.42657 L 6.86133,1.35724 L 6.69626,1.26648 L 6.54385,1.15576
 L 6.40654,1.02681 L 6.28647,0.881668 L 6.18553,0.722626 L 6.10533,0.552185 L 6.04712,0.373032 L 6.01183,0.187988
 L 6,-0 L 6.01183,-0.187988 L 6.04712,-0.373032 L 6.10533,-0.552185 L 6.18553,-0.722626 L 6.28647,-0.881668
 L 6.40654,-1.02681 L 6.54385,-1.15576 L 6.69626,-1.26648 L 6.86133,-1.35724 L 7.03647,-1.42657 L 7.21892,-1.47342
 L 7.40581,-1.49704 L 8.09418,-1.49704 L 8.28107,-1.47342 L 8.46352,-1.42657 L 8.63866,-1.35724 L 8.80373,-1.26648
 L 8.95613,-1.15576 L 9.09344,-1.02681 L 9.21352,-0.881668 L 9.31445,-0.722626 L 9.39465,-0.552185 L 9.45287,-0.373032
 L 9.48816,-0.187988 L 9.5,-0 L 9.48816,0.187988 L 9.45287,0.373032 L 9.39465,0.552185 L 9.31445,0.722626
 L 9.21352,0.881668 L 9.09344,1.02681 L 8.95613,1.15576 L 8.80373,1.26648 L 8.63866,1.35724 L 8.46352,1.42657
 L 8.28107,1.47342 L 8.09418,1.49704 z
M 22.4058,1.49704 L 22.2189,1.47342 L 22.0365,1.42657 L 21.8613,1.35724 L 21.6963,1.26648 L 21.5439,1.15576
 L 21.4065,1.02681 L 21.2865,0.881668 L 21.1855,0.722626 L 21.1053,0.552185 L 21.0471,0.373032 L 21.0118,0.187988
 L 21,-0 L 21.0118,-0.187988 L 21.0471,-0.373032 L 21.1053,-0.552185 L 21.1855,-0.722626 L 21.2865,-0.881668
 L 21.4065,-1.02681 L 21.5439,-1.15576 L 21.6963,-1.26648 L 21.8613,-1.35724 L 22.0365,-1.42657 L 22.2189,-1.47342
 L 22.4058,-1.49704 L 22.5942,-1.49704 L 22.7811,-1.47342 L 22.9635,-1.42657 L 23.1387,-1.35724 L 23.3037,-1.26648
 L 23.4561,-1.15576 L 23.5934,-1.02681 L 23.7135,-0.881668 L 23.8145,-0.722626 L 23.8947,-0.552185 L 23.9529,-0.373032
 L 23.9882,-0.187988 L 24,-0 L 23.9882,0.187988 L 23.9529,0.373032 L 23.8947,0.552185 L 23.8145,0.722626
 L 23.7135,0.881668 L 23.5934,1.02681 L 23.4561,1.15576 L 23.3037,1.26648 L 23.1387,1.35724 L 22.9635,1.42657
 L 22.7811,1.47342 L 22.5942,1.49704 z
M -0.0941772,8.99704 L -0.281067,8.97342 L -0.463516,8.92657 L -0.638657,8.85724 L -0.803726,8.76648 L -0.956131,8.65576
 L -1.09344,8.52681 L -1.21352,8.38167 L -1.31445,8.22263 L -1.39465,8.05219 L -1.45287,7.87303 L -1.48816,7.68799
 L -1.5,7.5 L -1.48816,7.312 L -1.45287,7.12695 L -1.39465,6.9478 L -1.31445,6.77736 L -1.21352,6.61832
 L -1.09344,6.47318 L -0.956131,6.34422 L -0.803726,6.23351 L -0.638657,6.14275 L -0.463516,6.07341 L -0.281067,6.02657
 L -0.0941772,6.00294 L 0.0941772,6.00294 L 0.281067,6.02657 L 0.463516,6.07341 L 0.638657,6.14275 L 0.803726,6.23351
 L 0.956131,6.34422 L 1.09344,6.47318 L 1.21352,6.61832 L 1.31445,6.77736 L 1.39465,6.9478 L 1.45287,7.12695
 L 1.48816,7.312 L 1.5,7.5 L 1.48816,7.68799 L 1.45287,7.87303 L 1.39465,8.05219 L 1.31445,8.22263
 L 1.21352,8.38167 L 1.09344,8.52681 L 0.956131,8.65576 L 0.803726,8.76648 L 0.638657,8.85724 L 0.463516,8.92657
 L 0.281067,8.97342 L 0.0941772,8.99704 z
M 14.9058,8.99704 L 14.7189,8.97342 L 14.5365,8.92657 L 14.3613,8.85724 L 14.1963,8.76648 L 14.0439,8.65576
 L 13.9065,8.52681 L 13.7865,8.38167 L 13.6855,8.22263 L 13.6053,8.05219 L 13.5471,7.87303 L 13.5118,7.68799
 L 13.5,7.5 L 13.5118,7.312 L 13.5471,7.12695 L 13.6053,6.9478 L 13.6855,6.77736 L 13.7865,6.61832
 L 13.9065,6.47318 L 14.0439,6.34422 L 14.1963,6.23351 L 14.3613,6.14275 L 14.5365,6.07341 L 14.7189,6.02657
 L 14.9058,6.00294 L 15.0942,6.00294 L 15.2811,6.02657 L 15.4635,6.07341 L 15.6387,6.14275 L 15.8037,6.23351
 L 15.9561,6.34422 L 16.0934,6.47318 L 16.2135,6.61832 L 16.3145,6.77736 L 16.3947,6.9478 L 16.4529,7.12695
 L 16.4882,7.312 L 16.5,7.5 L 16.4882,7.68799 L 16.4529,7.87303 L 16.3947,8.05219 L 16.3145,8.22263
 L 16.2135,8.38167 L 16.0934,8.52681 L 15.9561,8.65576 L 15.8037,8.76648 L 15.6387,8.85724 L 15.4635,8.92657
 L 15.2811,8.97342 L 15.0942,8.99704 z
M -15.0942,8.99704 L -15.2811,8.97342 L -15.4635,8.92657 L -15.6387,8.85724 L -15.8037,8.76648 L -15.9561,8.65576
 L -16.0934,8.52681 L -16.2135,8.38167 L -16.3145,8.22263 L -16.3947,8.05219 L -16.4529,7.87303 L -16.4882,7.68799
 L -16.5,7.5 L -16.4882,7.312 L -16.4529,7.12695 L -16.3947,6.9478 L -16.3145,6.77736 L -16.2135,6.61832
 L -16.0934,6.47318 L -15.9561,6.34422 L -15.8037,6.23351 L -15.6387,6.14275 L -15.4635,6.07341 L -15.2811,6.02657
 L -15.0942,6.00294 L -14.9058,6.00294 L -14.7189,6.02657 L -14.5365,6.07341 L -14.3613,6.14275 L -14.1963,6.23351
 L -14.0439,6.34422 L -13.9065,6.47318 L -13.7865,6.61832 L -13.6855,6.77736 L -13.6053,6.9478 L -13.5471,7.12695
 L -13.5118,7.312 L -13.5,7.5 L -13.5118,7.68799 L -13.5471,7.87303 L -13.6053,8.05219 L -13.6855,8.22263
 L -13.7865,8.38167 L -13.9065,8.52681 L -14.0439,8.65576 L -14.1963,8.76648 L -14.3613,8.85724 L -14.5365,8.92657
 L -14.7189,8.97342 L -14.9058,8.99704 z
M -15.1884,17.9941 L -15.5621,17.9469 L -15.927,17.8532 L -16.2773,17.7145 L -16.6075,17.533 L -16.9123,17.3115
 L -17.1869,17.0536 L -17.427,16.7634 L -17.6289,16.4453 L -17.7893,16.1044 L -17.9057,15.7461 L -17.9763,15.376
 L -18,15 L -17.9763,14.624 L -17.9057,14.2539 L -17.7893,13.8956 L -17.6289,13.5547 L -17.427,13.2366
 L -17.1869,12.9464 L -16.9123,12.6884 L -16.6075,12.467 L -16.2773,12.2855 L -15.927,12.1468 L -15.5621,12.0531
 L -15.1884,12.0059 L -14.8116,12.0059 L -14.4379,12.0531 L -14.0729,12.1468 L -13.7227,12.2855 L -13.3925,12.467
 L -13.0877,12.6884 L -12.8131,12.9464 L -12.5729,13.2366 L -12.3711,13.5547 L -12.2107,13.8956 L -12.0942,14.2539
 L -12.0237,14.624 L -12,15 L -12.0237,15.376 L -12.0942,15.7461 L -12.2107,16.1044 L -12.3711,16.4453
 L -12.5729,16.7634 L -12.8131,17.0536 L -13.0877,17.3115 L -13.3925,17.533 L -13.7227,17.7145 L -14.0729,17.8532
 L -14.4379,17.9469 L -14.8116,17.9941 z
M -0.18837,17.9941 L -0.562134,17.9469 L -0.927048,17.8532 L -1.27733,17.7145 L -1.60747,17.533 L -1.91226,17.3115
 L -2.1869,17.0536 L -2.42705,16.7634 L -2.62891,16.4453 L -2.78932,16.1044 L -2.90575,15.7461 L -2.97633,15.376
 L -3,15 L -2.97633,14.624 L -2.90575,14.2539 L -2.78932,13.8956 L -2.62891,13.5547 L -2.42705,13.2366
 L -2.1869,12.9464 L -1.91226,12.6884 L -1.60747,12.467 L -1.27733,12.2855 L -0.927048,12.1468 L -0.562134,12.0531
 L -0.18837,12.0059 L 0.18837,12.0059 L 0.562134,12.0531 L 0.927048,12.1468 L 1.27733,12.2855 L 1.60747,12.467
 L 1.91226,12.6884 L 2.1869,12.9464 L 2.42705,13.2366 L 2.62891,13.5547 L 2.78932,13.8956 L 2.90575,14.2539
 L 2.97633,14.624 L 3,15 L 2.97633,15.376 L 2.90575,15.7461 L 2.78932,16.1044 L 2.62891,16.4453
 L 2.42705,16.7634 L 2.1869,17.0536 L 1.91226,17.3115 L 1.60747,17.533 L 1.27733,17.7145 L 0.927048,17.8532
 L 0.562134,17.9469 L 0.18837,17.9941 z
M 14.8116,17.9941 L 14.4379,17.9469 L 14.0729,17.8532 L 13.7227,17.7145 L 13.3925,17.533 L 13.0877,17.3115
 L 12.8131,17.0536 L 12.5729,16.7634 L 12.3711,16.4453 L 12.2107,16.1044 L 12.0942,15.7461 L 12.0237,15.376
 L 12,15 L 12.0237,14.624 L 12.0942,14.2539 L 12.2107,13.8956 L 12.3711,13.5547 L 12.5729,13.2366
 L 12.8131,12.9464 L 13.0877,12.6884 L 13.3925,12.467 L 13.7227,12.2855 L 14.0729,12.1468 L 14.4379,12.0531
 L 14.8116,12.0059 L 15.1884,12.0059 L 15.5621,12.0531 L 15.927,12.1468 L 16.2773,12.2855 L 16.6075,12.467
 L 16.9123,12.6884 L 17.1869,12.9464 L 17.427,13.2366 L 17.6289,13.5547 L 17.7893,13.8956 L 17.9057,14.2539
 L 17.9763,14.624 L 18,15 L 17.9763,15.376 L 17.9057,15.7461 L 17.7893,16.1044 L 17.6289,16.4453
 L 17.427,16.7634 L 17.1869,17.0536 L 16.9123,17.3115 L 16.6075,17.533 L 16.2773,17.7145 L 15.927,17.8532
 L 15.5621,17.9469 L 15.1884,17.9941 z
M 22.4058,16.497 L 22.2189,16.4734 L 22.0365,16.4266 L 21.8613,16.3572 L 21.6963,16.2665 L 21.5439,16.1558
 L 21.4065,16.0268 L 21.2865,15.8817 L 21.1855,15.7226 L 21.1053,15.5522 L 21.0471,15.373 L 21.0118,15.188
 L 21,15 L 21.0118,14.812 L 21.0471,14.627 L 21.1053,14.4478 L 21.1855,14.2774 L 21.2865,14.1183
 L 21.4065,13.9732 L 21.5439,13.8442 L 21.6963,13.7335 L 21.8613,13.6427 L 22.0365,13.5734 L 22.2189,13.5266
 L 22.4058,13.5029 L 22.5942,13.5029 L 22.7811,13.5266 L 22.9635,13.5734 L 23.1387,13.6427 L 23.3037,13.7335
 L 23.4561,13.8442 L 23.5934,13.9732 L 23.7135,14.1183 L 23.8145,14.2774 L 23.8947,14.4478 L 23.9529,14.627
 L 23.9882,14.812 L 24,15 L 23.9882,15.188 L 23.9529,15.373 L 23.8947,15.5522 L 23.8145,15.7226
 L 23.7135,15.8817 L 23.5934,16.0268 L 23.4561,16.1558 L 23.3037,16.2665 L 23.1387,16.3572 L 22.9635,16.4266
 L 22.7811,16.4734 L 22.5942,16.497 z
M 7.40581,16.497 L 7.21892,16.4734 L 7.03647,16.4266 L 6.86133,16.3572 L 6.69626,16.2665 L 6.54385,16.1558
 L 6.40654,16.0268 L 6.28647,15.8817 L 6.18553,15.7226 L 6.10533,15.5522 L 6.04712,15.373 L 6.01183,15.188
 L 6,15 L 6.01183,14.812 L 6.04712,14.627 L 6.10533,14.4478 L 6.18553,14.2774 L 6.28647,14.1183
 L 6.40654,13.9732 L 6.54385,13.8442 L 6.69626,13.7335 L 6.86133,13.6427 L 7.03647,13.5734 L 7.21892,13.5266
 L 7.40581,13.5029 L 7.59418,13.5029 L 7.78107,13.5266 L 7.96352,13.5734 L 8.13866,13.6427 L 8.30373,13.7335
 L 8.45613,13.8442 L 8.59344,13.9732 L 8.71352,14.1183 L 8.81445,14.2774 L 8.89465,14.4478 L 8.95287,14.627
 L 8.98816,14.812 L 9,15 L 8.98816,15.188 L 8.95287,15.373 L 8.89465,15.5522 L 8.81445,15.7226
 L 8.71352,15.8817 L 8.59344,16.0268 L 8.45613,16.1558 L 8.30373,16.2665 L 8.13866,16.3572 L 7.96352,16.4266
 L 7.78107,16.4734 L 7.59418,16.497 z
M -7.59418,16.497 L -7.78107,16.4734 L -7.96352,16.4266 L -8.13866,16.3572 L -8.30373,16.2665 L -8.45613,16.1558
 L -8.59344,16.0268 L -8.71352,15.8817 L -8.81445,15.7226 L -8.89465,15.5522 L -8.95287,15.373 L -8.98816,15.188
 L -9,15 L -8.98816,14.812 L -8.95287,14.627 L -8.89465,14.4478 L -8.81445,14.2774 L -8.71352,14.1183
 L -8.59344,13.9732 L -8.45613,13.8442 L -8.30373,13.7335 L -8.13866,13.6427 L -7.96352,13.5734 L -7.78107,13.5266
 L -7.59418,13.5029 L -7.40581,13.5029 L -7.21892,13.5266 L -7.03647,13.5734 L -6.86133,13.6427 L -6.69626,13.7335
 L -6.54385,13.8442 L -6.40654,13.9732 L -6.28647,14.1183 L -6.18553,14.2774 L -6.10533,14.4478 L -6.04712,14.627
 L -6.01183,14.812 L -6,15 L -6.01183,15.188 L -6.04712,15.373 L -6.10533,15.5522 L -6.18553,15.7226
 L -6.28647,15.8817 L -6.40654,16.0268 L -6.54385,16.1558 L -6.69626,16.2665 L -6.86133,16.3572 L -7.03647,16.4266
 L -7.21892,16.4734 L -7.40581,16.497 z
M -22.5942,16.497 L -22.7811,16.4734 L -22.9635,16.4266 L -23.1387,16.3572 L -23.3037,16.2665 L -23.4561,16.1558
 L -23.5934,16.0268 L -23.7135,15.8817 L -23.8145,15.7226 L -23.8947,15.5522 L -23.9529,15.373 L -23.9882,15.188
 L -24,15 L -23.9882,14.812 L -23.9529,14.627 L -23.8947,14.4478 L -23.8145,14.2774 L -23.7135,14.1183
 L -23.5934,13.9732 L -23.4561,13.8442 L -23.3037,13.7335 L -23.1387,13.6427 L -22.9635,13.5734 L -22.7811,13.5266
 L -22.5942,13.5029 L -22.4058,13.5029 L -22.2189,13.5266 L -22.0365,13.5734 L -21.8613,13.6427 L -21.6963,13.7335
 L -21.5439,13.8442 L -21.4065,13.9732 L -21.2865,14.1183 L -21.1855,14.2774 L -21.1053,14.4478 L -21.0471,14.627
 L -21.0118,14.812 L -21,15 L -21.0118,15.188 L -21.0471,15.373 L -21.1053,15.5522 L -21.1855,15.7226
 L -21.2865,15.8817 L -21.4065,16.0268 L -21.5439,16.1558 L -21.6963,16.2665 L -21.8613,16.3572 L -22.0365,16.4266
 L -22.2189,16.4734 L -22.4058,16.497 z
M -15.0942,23.997 L -15.2811,23.9734 L -15.4635,23.9266 L -15.6387,23.8572 L -15.8037,23.7665 L -15.9561,23.6558
 L -16.0934,23.5268 L -16.2135,23.3817 L -16.3145,23.2226 L -16.3947,23.0522 L -16.4529,22.873 L -16.4882,22.688
 L -16.5,22.5 L -16.4882,22.312 L -16.4529,22.127 L -16.3947,21.9478 L -16.3145,21.7774 L -16.2135,21.6183
 L -16.0934,21.4732 L -15.9561,21.3442 L -15.8037,21.2335 L -15.6387,21.1427 L -15.4635,21.0734 L -15.2811,21.0266
 L -15.0942,21.003 L -14.9058,21.003 L -14.7189,21.0266 L -14.5365,21.0734 L -14.3613,21.1427 L -14.1963,21.2335
 L -14.0439,21.3442 L -13.9065,21.4732 L -13.7865,21.6183 L -13.6855,21.7774 L -13.6053,21.9478 L -13.5471,22.127
 L -13.5118,22.312 L -13.5,22.5 L -13.5118,22.688 L -13.5471,22.873 L -13.6053,23.0522 L -13.6855,23.2226
 L -13.7865,23.3817 L -13.9065,23.5268 L -14.0439,23.6558 L -14.1963,23.7665 L -14.3613,23.8572 L -14.5365,23.9266
 L -14.7189,23.9734 L -14.9058,23.997 z
M 14.9058,23.997 L 14.7189,23.9734 L 14.5365,23.9266 L 14.3613,23.8572 L 14.1963,23.7665 L 14.0439,23.6558
 L 13.9065,23.5268 L 13.7865,23.3817 L 13.6855,23.2226 L 13.6053,23.0522 L 13.5471,22.873 L 13.5118,22.688
 L 13.5,22.5 L 13.5118,22.312 L 13.5471,22.127 L 13.6053,21.9478 L 13.6855,21.7774 L 13.7865,21.6183
 L 13.9065,21.4732 L 14.0439,21.3442 L 14.1963,21.2335 L 14.3613,21.1427 L 14.5365,21.0734 L 14.7189,21.0266
 L 14.9058,21.003 L 15.0942,21.003 L 15.2811,21.0266 L 15.4635,21.0734 L 15.6387,21.1427 L 15.8037,21.2335
 L 15.9561,21.3442 L 16.0934,21.4732 L 16.2135,21.6183 L 16.3145,21.7774 L 16.3947,21.9478 L 16.4529,22.127
 L 16.4882,22.312 L 16.5,22.5 L 16.4882,22.688 L 16.4529,22.873 L 16.3947,23.0522 L 16.3145,23.2226
 L 16.2135,23.3817 L 16.0934,23.5268 L 15.9561,23.6558 L 15.8037,23.7665 L 15.6387,23.8572 L 15.4635,23.9266
 L 15.2811,23.9734 L 15.0942,23.997 z
M -0.0941772,23.997 L -0.281067,23.9734 L -0.463516,23.9266 L -0.638657,23.8572 L -0.803726,23.7665 L -0.956131,23.6558
 L -1.09344,23.5268 L -1.21352,23.3817 L -1.31445,23.2226 L -1.39465,23.0522 L -1.45287,22.873 L -1.48816,22.688
 L -1.5,22.5 L -1.48816,22.312 L -1.45287,22.127 L -1.39465,21.9478 L -1.31445,21.7774 L -1.21352,21.6183
 L -1.09344,21.4732 L -0.956131,21.3442 L -0.803726,21.2335 L -0.638657,21.1427 L -0.463516,21.0734 L -0.281067,21.0266
 L -0.0941772,21.003 L 0.0941772,21.003 L 0.281067,21.0266 L 0.463516,21.0734 L 0.638657,21.1427 L 0.803726,21.2335
 L 0.956131,21.3442 L 1.09344,21.4732 L 1.21352,21.6183 L 1.31445,21.7774 L 1.39465,21.9478 L 1.45287,22.127
 L 1.48816,22.312 L 1.5,22.5 L 1.48816,22.688 L 1.45287,22.873 L 1.39465,23.0522 L 1.31445,23.2226
 L 1.21352,23.3817 L 1.09344,23.5268 L 0.956131,23.6558 L 0.803726,23.7665 L 0.638657,23.8572 L 0.463516,23.9266
 L 0.281067,23.9734 L 0.0941772,23.997 z
M -0.18837,32.9941 L -0.562134,32.9469 L -0.927048,32.8532 L -1.27733,32.7145 L -1.60747,32.533 L -1.91226,32.3115
 L -2.1869,32.0536 L -2.42705,31.7634 L -2.62891,31.4453 L -2.78932,31.1044 L -2.90575,30.7461 L -2.97633,30.376
 L -3,30 L -2.97633,29.624 L -2.90575,29.2539 L -2.78932,28.8956 L -2.62891,28.5547 L -2.42705,28.2366
 L -2.1869,27.9464 L -1.91226,27.6884 L -1.60747,27.467 L -1.27733,27.2855 L -0.927048,27.1468 L -0.562134,27.0531
 L -0.18837,27.0059 L 0.18837,27.0059 L 0.562134,27.0531 L 0.927048,27.1468 L 1.27733,27.2855 L 1.60747,27.467
 L 1.91226,27.6884 L 2.1869,27.9464 L 2.42705,28.2366 L 2.62891,28.5547 L 2.78932,28.8956 L 2.90575,29.2539
 L 2.97633,29.624 L 3,30 L 2.97633,30.376 L 2.90575,30.7461 L 2.78932,31.1044 L 2.62891,31.4453
 L 2.42705,31.7634 L 2.1869,32.0536 L 1.91226,32.3115 L 1.60747,32.533 L 1.27733,32.7145 L 0.927048,32.8532
 L 0.562134,32.9469 L 0.18837,32.9941 z
" stroke="black" fill="lightgray" stroke-width="0.5"/>
</svg>
