<?xml version="1.0" standalone="no"?>
<!DOCTYPE svg PUBLIC "-//W3C//DTD SVG 1.1//EN" "http://www.w3.org/Graphics/SVG/1.1/DTD/svg11.dtd">
<svg width="32mm" height="243mm" viewBox="-17 -458 32 243" xmlns="http://www.w3.org/2000/svg" version="1.1">
<title>OpenSCAD Model</title>
<path d="
M -13.5,-385.007 L -13.1448,-384.577 L -12.6871,-384.147 L -12.1791,-383.778 L -11.6289,-383.476 L -11.0451,-383.245
 L -10.4369,-383.089 L -9.81395,-383.01 L 9.81395,-383.01 L 10.4369,-383.089 L 11.0451,-383.245 L 11.6289,-383.476
 L 12.1791,-383.778 L 12.6871,-384.147 L 13.1448,-384.577 L 13.5451,-385.061 L 13.8815,-385.591 L 14.1489,-386.159
 L 14.3429,-386.757 L 14.4606,-387.373 L 14.5,-388 L 14.5,-452 L 14.4606,-452.627 L 14.3429,-453.243
 L 14.1489,-453.841 L 13.8815,-454.409 L 13.5451,-454.939 L 13.1448,-455.423 L 12.6871,-455.853 L 12.1791,-456.222
 L 11.6289,-456.524 L 11.0451,-456.755 L 10.4369,-456.911 L 9.81395,-456.99 L -9.81395,-456.99 L -10.4369,-456.911
 L -11.0451,-456.755 L -11.6289,-456.524 L -12.1791,-456.222 L -12.6871,-455.853 L -13.1448,-455.423 L -13.5,-454.993
 L -13.5,-457.49 L -16.5,-457.49 L -16.5,-382.51 L -13.5,-382.51 z
M -9.75116,-384.008 L -10.2495,-384.071 L -10.7361,-384.196 L -11.2031,-384.381 L -11.6433,-384.623 L -12.0497,-384.918
 L -12.4159,-385.262 L -12.7361,-385.649 L -13.0052,-386.073 L -13.2191,-386.528 L -13.3743,-387.005 L -13.4684,-387.499
 L -13.5,-388 L -13.5,-452 L -13.4684,-452.501 L -13.3743,-452.995 L -13.2191,-453.472 L -13.0052,-453.927
 L -12.7361,-454.351 L -12.4159,-454.738 L -12.0497,-455.082 L -11.6433,-455.377 L -11.2031,-455.619 L -10.7361,-455.804
 L -10.2495,-455.929 L -9.75116,-455.992 L 9.75116,-455.992 L 10.2495,-455.929 L 10.7361,-455.804 L 11.2031,-455.619
 L 11.6433,-455.377 L 12.0497,-455.082 L 12.4159,-454.738 L 12.7361,-454.351 L 13.0052,-453.927 L 13.2191,-453.472
 L 13.3743,-452.995 L 13.4684,-452.501 L 13.5,-452 L 13.5,-388 L 13.4684,-387.499 L 13.3743,-387.005
 L 13.2191,-386.528 L 13.0052,-386.073 L 12.7361,-385.649 L 12.4159,-385.262 L 12.0497,-384.918 L 11.6433,-384.623
 L 11.2031,-384.381 L 10.7361,-384.196 L 10.2495,-384.071 L 9.75116,-384.008 z
M -13.5,-301.007 L -13.1448,-300.577 L -12.6871,-300.147 L -12.1791,-299.778 L -11.6289,-299.476 L -11.0451,-299.245
 L -10.4369,-299.089 L -9.81395,-299.01 L 9.81395,-299.01 L 10.4369,-299.089 L 11.0451,-299.245 L 11.6289,-299.476
 L 12.1791,-299.778 L 12.6871,-300.147 L 13.1448,-300.577 L 13.5451,-301.061 L 13.8815,-301.591 L 14.1489,-302.159
 L 14.3429,-302.757 L 14.4606,-303.373 L 14.5,-304 L 14.5,-368 L 14.4606,-368.627 L 14.3429,-369.243
 L 14.1489,-369.841 L 13.8815,-370.409 L 13.5451,-370.939 L 13.1448,-371.423 L 12.6871,-371.853 L 12.1791,-372.222
 L 11.6289,-372.524 L 11.0451,-372.755 L 10.4369,-372.911 L 9.81395,-372.99 L -9.81395,-372.99 L -10.4369,-372.911
 L -11.0451,-372.755 L -11.6289,-372.524 L -12.1791,-372.222 L -12.6871,-371.853 L -13.1448,-371.423 L -13.5,-370.993
 L -13.5,-373.479 L -16.5,-373.479 L -16.5,-298.521 L -13.5,-298.521 z
M -9.69545,-300.893 L -10.0833,-300.942 L -10.4619,-301.039 L -10.8254,-301.183 L -11.168,-301.372 L -11.4842,-301.601
 L -11.7692,-301.869 L -12.0184,-302.17 L -12.2279,-302.5 L -12.3943,-302.854 L -12.5151,-303.226 L -12.5884,-303.61
 L -12.6129,-304 L -12.6129,-368 L -12.5884,-368.39 L -12.5151,-368.774 L -12.3943,-369.146 L -12.2279,-369.5
 L -12.0184,-369.83 L -11.7692,-370.131 L -11.4842,-370.399 L -11.168,-370.628 L -10.8254,-370.817 L -10.4619,-370.961
 L -10.0833,-371.058 L -9.69545,-371.107 L 9.69545,-371.107 L 10.0833,-371.058 L 10.4619,-370.961 L 10.8254,-370.817
 L 11.168,-370.628 L 11.4842,-370.399 L 11.7692,-370.131 L 12.0184,-369.83 L 12.2279,-369.5 L 12.3943,-369.146
 L 12.5151,-368.774 L 12.5884,-368.39 L 12.6129,-368 L 12.6129,-304 L 12.5884,-303.61 L 12.5151,-303.226
 L 12.3943,-302.854 L 12.2279,-302.5 L 12.0184,-302.17 L 11.7692,-301.869 L 11.4842,-301.601 L 11.168,-301.372
 L 10.8254,-301.183 L 10.4619,-301.039 L 10.0833,-300.942 L 9.69545,-300.893 z
M 10.4369,-215.089 L 11.0451,-215.245 L 11.6289,-215.476 L 12.1791,-215.778 L 12.6871,-216.147 L 13.1448,-216.577
 L 13.5451,-217.061 L 13.8815,-217.591 L 14.1489,-218.159 L 14.3429,-218.757 L 14.4606,-219.373 L 14.5,-220
 L 14.5,-284 L 14.4606,-284.627 L 14.3429,-285.243 L 14.1489,-285.841 L 13.8815,-286.409 L 13.5451,-286.939
 L 13.1448,-287.423 L 12.6871,-287.853 L 12.1791,-288.222 L 11.6289,-288.524 L 11.0451,-288.755 L 10.4369,-288.911
 L 9.81395,-288.99 L -9.81395,-288.99 L -10.4369,-288.911 L -11.0451,-288.755 L -11.6289,-288.524 L -12.1791,-288.222
 L -12.6871,-287.853 L -13.1448,-287.423 L -13.5,-286.993 L -13.5,-288.153 L -16.5,-288.153 L -16.5,-215.847
 L -13.5,-215.847 L -13.5,-217.007 L -13.1448,-216.577 L -12.6871,-216.147 L -12.1791,-215.778 L -11.6289,-215.476
 L -11.0451,-215.245 L -10.4369,-215.089 L -9.81395,-215.01 L 9.81395,-215.01 z
M 7.34929,-279.605 L 7.05028,-279.643 L 6.75835,-279.717 L 6.47812,-279.828 L 6.214,-279.974 L 5.97017,-280.151
 L 5.75047,-280.357 L 5.55835,-280.589 L 5.39685,-280.844 L 5.26852,-281.117 L 5.1754,-281.403 L 5.11891,-281.699
 L 5.09999,-282 L 5.11891,-282.301 L 5.1754,-282.597 L 5.26852,-282.883 L 5.39685,-283.156 L 5.55835,-283.411
 L 5.75047,-283.643 L 5.97017,-283.849 L 6.214,-284.026 L 6.47812,-284.172 L 6.75835,-284.283 L 7.05028,-284.357
 L 7.34929,-284.395 L 7.6507,-284.395 L 7.94971,-284.357 L 8.24164,-284.283 L 8.52187,-284.172 L 8.78598,-284.026
 L 9.02982,-283.849 L 9.24951,-283.643 L 9.44164,-283.411 L 9.60313,-283.156 L 9.73146,-282.883 L 9.82458,-282.597
 L 9.88107,-282.301 L 9.89999,-282 L 9.88107,-281.699 L 9.82458,-281.403 L 9.73146,-281.117 L 9.60313,-280.844
 L 9.44164,-280.589 L 9.24951,-280.357 L 9.02982,-280.151 L 8.78598,-279.974 L 8.52187,-279.828 L 8.24164,-279.717
 L 7.94971,-279.643 L 7.6507,-279.605 z
M -7.6507,-279.605 L -7.94971,-279.643 L -8.24164,-279.717 L -8.52187,-279.828 L -8.78598,-279.974 L -9.02982,-280.151
 L -9.24951,-280.357 L -9.44164,-280.589 L -9.60313,-280.844 L -9.73146,-281.117 L -9.82458,-281.403 L -9.88107,-281.699
 L -9.89999,-282 L -9.88107,-282.301 L -9.82458,-282.597 L -9.73146,-282.883 L -9.60313,-283.156 L -9.44164,-283.411
 L -9.24951,-283.643 L -9.02982,-283.849 L -8.78598,-284.026 L -8.52187,-284.172 L -8.24164,-284.283 L -7.94971,-284.357
 L -7.6507,-284.395 L -7.34929,-284.395 L -7.05028,-284.357 L -6.75835,-284.283 L -6.47812,-284.172 L -6.214,-284.026
 L -5.97017,-283.849 L -5.75047,-283.643 L -5.55835,-283.411 L -5.39685,-283.156 L -5.26852,-282.883 L -5.1754,-282.597
 L -5.11891,-282.301 L -5.09999,-282 L -5.11891,-281.699 L -5.1754,-281.403 L -5.26852,-281.117 L -5.39685,-280.844
 L -5.55835,-280.589 L -5.75047,-280.357 L -5.97017,-280.151 L -6.214,-279.974 L -6.47812,-279.828 L -6.75835,-279.717
 L -7.05028,-279.643 L -7.34929,-279.605 z
M 7.34929,-219.605 L 7.05028,-219.643 L 6.75835,-219.717 L 6.47812,-219.828 L 6.214,-219.974 L 5.97017,-220.151
 L 5.75047,-220.357 L 5.55835,-220.589 L 5.39685,-220.844 L 5.26852,-221.117 L 5.1754,-221.403 L 5.11891,-221.699
 L 5.09999,-222 L 5.11891,-222.301 L 5.1754,-222.597 L 5.26852,-222.883 L 5.39685,-223.156 L 5.55835,-223.411
 L 5.75047,-223.643 L 5.97017,-223.849 L 6.214,-224.026 L 6.47812,-224.172 L 6.75835,-224.283 L 7.05028,-224.357
 L 7.34929,-224.395 L 7.6507,-224.395 L 7.94971,-224.357 L 8.24164,-224.283 L 8.52187,-224.172 L 8.78598,-224.026
 L 9.02982,-223.849 L 9.24951,-223.643 L 9.44164,-223.411 L 9.60313,-223.156 L 9.73146,-222.883 L 9.82458,-222.597
 L 9.88107,-222.301 L 9.89999,-222 L 9.88107,-221.699 L 9.82458,-221.403 L 9.73146,-221.117 L 9.60313,-220.844
 L 9.44164,-220.589 L 9.24951,-220.357 L 9.02982,-220.151 L 8.78598,-219.974 L 8.52187,-219.828 L 8.24164,-219.717
 L 7.94971,-219.643 L 7.6507,-219.605 z
M -7.6507,-219.605 L -7.94971,-219.643 L -8.24164,-219.717 L -8.52187,-219.828 L -8.78598,-219.974 L -9.02982,-220.151
 L -9.24951,-220.357 L -9.44164,-220.589 L -9.60313,-220.844 L -9.73146,-221.117 L -9.82458,-221.403 L -9.88107,-221.699
 L -9.89999,-222 L -9.88107,-222.301 L -9.82458,-222.597 L -9.73146,-222.883 L -9.60313,-223.156 L -9.44164,-223.411
 L -9.24951,-223.643 L -9.02982,-223.849 L -8.78598,-224.026 L -8.52187,-224.172 L -8.24164,-224.283 L -7.94971,-224.357
 L -7.6507,-224.395 L -7.34929,-224.395 L -7.05028,-224.357 L -6.75835,-224.283 L -6.47812,-224.172 L -6.214,-224.026
 L -5.97017,-223.849 L -5.75047,-223.643 L -5.55835,-223.411 L -5.39685,-223.156 L -5.26852,-222.883 L -5.1754,-222.597
 L -5.11891,-222.301 L -5.09999,-222 L -5.11891,-221.699 L -5.1754,-221.403 L -5.26852,-221.117 L -5.39685,-220.844
 L -5.55835,-220.589 L -5.75047,-220.357 L -5.97017,-220.151 L -6.214,-219.974 L -6.47812,-219.828 L -6.75835,-219.717
 L -7.05028,-219.643 L -7.34929,-219.605 z
" stroke="black" fill="lightgray" stroke-width="0.5"/>
</svg>
