<?xml version="1.0" standalone="no"?>
<!DOCTYPE svg PUBLIC "-//W3C//DTD SVG 1.1//EN" "http://www.w3.org/Graphics/SVG/1.1/DTD/svg11.dtd">
<svg width="44mm" height="44mm" viewBox="-22 -22 44 44" xmlns="http://www.w3.org/2000/svg" version="1.1">
<title>OpenSCAD Model</title>
<path d="
M 18.2495,21.4291 L 18.7361,21.3042 L 19.2031,21.1193 L 19.6433,20.8773 L 20.0497,20.582 L 20.4159,20.2382
 L 20.7361,19.8511 L 21.0052,19.427 L 21.2191,18.9725 L 21.3743,18.4948 L 21.4684,18.0013 L 21.5,17.5
 L 21.5,-17.5 L 21.4684,-18.0013 L 21.3743,-18.4948 L 21.2191,-18.9725 L 21.0052,-19.427 L 20.7361,-19.8511
 L 20.4159,-20.2382 L 20.0497,-20.582 L 19.6433,-20.8773 L 19.2031,-21.1193 L 18.7361,-21.3042 L 18.2495,-21.4291
 L 17.7512,-21.4921 L -17.7512,-21.4921 L -18.2495,-21.4291 L -18.7361,-21.3042 L -19.2031,-21.1193 L -19.6433,-20.8773
 L -20.0497,-20.582 L -20.4159,-20.2382 L -20.7361,-19.8511 L -21.0052,-19.427 L -21.2191,-18.9725 L -21.3743,-18.4948
 L -21.4684,-18.0013 L -21.5,-17.5 L -21.5,17.5 L -21.4684,18.0013 L -21.3743,18.4948 L -21.2191,18.9725
 L -21.0052,19.427 L -20.7361,19.8511 L -20.4159,20.2382 L -20.0497,20.582 L -19.6433,20.8773 L -19.2031,21.1193
 L -18.7361,21.3042 L -18.2495,21.4291 L -17.7512,21.4921 L 17.7512,21.4921 z
M 14.8179,-12.1057 L 14.4566,-12.1514 L 14.1038,-12.2419 L 13.7652,-12.376 L 13.4461,-12.5514 L 13.1515,-12.7655
 L 12.886,-13.0148 L 12.6538,-13.2954 L 12.4587,-13.6029 L 12.3036,-13.9324 L 12.1911,-14.2788 L 12.1229,-14.6365
 L 12.1,-15 L 12.1229,-15.3635 L 12.1911,-15.7212 L 12.3036,-16.0676 L 12.4587,-16.3971 L 12.6538,-16.7046
 L 12.886,-16.9852 L 13.1515,-17.2345 L 13.4461,-17.4485 L 13.7652,-17.624 L 14.1038,-17.7581 L 14.4566,-17.8486
 L 14.8179,-17.8943 L 15.1821,-17.8943 L 15.5434,-17.8486 L 15.8961,-17.7581 L 16.2348,-17.624 L 16.5539,-17.4485
 L 16.8485,-17.2345 L 17.114,-16.9852 L 17.3461,-16.7046 L 17.5413,-16.3971 L 17.6964,-16.0676 L 17.8089,-15.7212
 L 17.8771,-15.3635 L 17.9,-15 L 17.8771,-14.6365 L 17.8089,-14.2788 L 17.6964,-13.9324 L 17.5413,-13.6029
 L 17.3461,-13.2954 L 17.114,-13.0148 L 16.8485,-12.7655 L 16.5539,-12.5514 L 16.2348,-12.376 L 15.8961,-12.2419
 L 15.5434,-12.1514 L 15.1821,-12.1057 z
M -15.1821,-12.1057 L -15.5434,-12.1514 L -15.8961,-12.2419 L -16.2348,-12.376 L -16.5539,-12.5514 L -16.8485,-12.7655
 L -17.114,-13.0148 L -17.3461,-13.2954 L -17.5413,-13.6029 L -17.6964,-13.9324 L -17.8089,-14.2788 L -17.8771,-14.6365
 L -17.9,-15 L -17.8771,-15.3635 L -17.8089,-15.7212 L -17.6964,-16.0676 L -17.5413,-16.3971 L -17.3461,-16.7046
 L -17.114,-16.9852 L -16.8485,-17.2345 L -16.5539,-17.4485 L -16.2348,-17.624 L -15.8961,-17.7581 L -15.5434,-17.8486
 L -15.1821,-17.8943 L -14.8179,-17.8943 L -14.4566,-17.8486 L -14.1038,-17.7581 L -13.7652,-17.624 L -13.4461,-17.4485
 L -13.1515,-17.2345 L -12.886,-16.9852 L -12.6538,-16.7046 L -12.4587,-16.3971 L -12.3036,-16.0676 L -12.1911,-15.7212
 L -12.1229,-15.3635 L -12.1,-15 L -12.1229,-14.6365 L -12.1911,-14.2788 L -12.3036,-13.9324 L -12.4587,-13.6029
 L -12.6538,-13.2954 L -12.886,-13.0148 L -13.1515,-12.7655 L -13.4461,-12.5514 L -13.7652,-12.376 L -14.1038,-12.2419
 L -14.4566,-12.1514 L -14.8179,-12.1057 z
M 12.886,16.9852 L 12.6538,16.7046 L 12.4587,16.3971 L 12.3036,16.0676 L 12.1911,15.7212 L 12.1229,15.3635
 L 12.1,15 L 12.1229,14.6365 L 12.1911,14.2788 L 12.3036,13.9324 L 12.4587,13.6029 L 12.6538,13.2954
 L 12.886,13.0148 L 13.1515,12.7655 L 13.4461,12.5514 L 13.7652,12.376 L 14.1038,12.2419 L 14.4566,12.1514
 L 14.8179,12.1057 L 15.1821,12.1057 L 15.5434,12.1514 L 15.8961,12.2419 L 16.2348,12.376 L 16.5539,12.5514
 L 16.8485,12.7655 L 17.114,13.0148 L 17.3461,13.2954 L 17.5413,13.6029 L 17.6964,13.9324 L 17.8089,14.2788
 L 17.8771,14.6365 L 17.9,15 L 17.8771,15.3635 L 17.8089,15.7212 L 17.6964,16.0676 L 17.5413,16.3971
 L 17.3461,16.7046 L 17.114,16.9852 L 16.8485,17.2345 L 16.5539,17.4485 L 16.2348,17.624 L 15.8961,17.7581
 L 15.5434,17.8486 L 15.1821,17.8943 L 14.8179,17.8943 L 14.4566,17.8486 L 14.1038,17.7581 L 13.7652,17.624
 L 13.4461,17.4485 L 13.1515,17.2345 z
M -13.7652,17.624 L -14.1038,17.7581 L -14.4566,17.8486 L -14.8179,17.8943 L -15.1821,17.8943 L -15.5434,17.8486
 L -15.8961,17.7581 L -16.2348,17.624 L -16.5539,17.4485 L -16.8485,17.2345 L -17.114,16.9852 L -17.3461,16.7046
 L -17.5413,16.3971 L -17.6964,16.0676 L -17.8089,15.7212 L -17.8771,15.3635 L -17.9,15 L -17.8771,14.6365
 L -17.8089,14.2788 L -17.6964,13.9324 L -17.5413,13.6029 L -17.3461,13.2954 L -17.114,13.0148 L -16.8485,12.7655
 L -16.5539,12.5514 L -16.2348,12.376 L -15.8961,12.2419 L -15.5434,12.1514 L -15.1821,12.1057 L -14.8179,12.1057
 L -14.4566,12.1514 L -14.1038,12.2419 L -13.7652,12.376 L -13.4461,12.5514 L -13.1515,12.7655 L -12.886,13.0148
 L -12.6538,13.2954 L -12.4587,13.6029 L -12.3036,13.9324 L -12.1911,14.2788 L -12.1229,14.6365 L -12.1,15
 L -12.1229,15.3635 L -12.1911,15.7212 L -12.3036,16.0676 L -12.4587,16.3971 L -12.6538,16.7046 L -12.886,16.9852
 L -13.1515,17.2345 L -13.4461,17.4485 z
" stroke="black" fill="lightgray" stroke-width="0.5"/>
</svg>
