  0
SECTION
  2
BLOCKS
  0
ENDSEC
  0
SECTION
  2
ENTITIES
  0
LINE
  8
0
 10
16.4684
 20
233.544
 11
16.7725
 21
233.622
  0
LINE
  8
0
 10
16.7725
 20
233.622
 11
17.0644
 21
233.738
  0
LINE
  8
0
 10
17.0644
 20
233.738
 11
17.3396
 21
233.889
  0
LINE
  8
0
 10
17.3396
 20
233.889
 11
17.5936
 21
234.074
  0
LINE
  8
0
 10
17.5936
 20
234.074
 11
17.8224
 21
234.289
  0
LINE
  8
0
 10
17.8224
 20
234.289
 11
18.0225
 21
234.531
  0
LINE
  8
0
 10
18.0225
 20
234.531
 11
18.1908
 21
234.796
  0
LINE
  8
0
 10
18.1908
 20
234.796
 11
18.3244
 21
235.08
  0
LINE
  8
0
 10
18.3244
 20
235.08
 11
18.4214
 21
235.378
  0
LINE
  8
0
 10
18.4214
 20
235.378
 11
18.4803
 21
235.687
  0
LINE
  8
0
 10
18.4803
 20
235.687
 11
18.5
 21
236
  0
LINE
  8
0
 10
18.5
 20
236
 11
18.5
 21
268
  0
LINE
  8
0
 10
18.5
 20
268
 11
18.4803
 21
268.313
  0
LINE
  8
0
 10
18.4803
 20
268.313
 11
18.4214
 21
268.622
  0
LINE
  8
0
 10
18.4214
 20
268.622
 11
18.3244
 21
268.92
  0
LINE
  8
0
 10
18.3244
 20
268.92
 11
18.1908
 21
269.204
  0
LINE
  8
0
 10
18.1908
 20
269.204
 11
18.0225
 21
269.469
  0
LINE
  8
0
 10
18.0225
 20
269.469
 11
17.8224
 21
269.711
  0
LINE
  8
0
 10
17.8224
 20
269.711
 11
17.5936
 21
269.926
  0
LINE
  8
0
 10
17.5936
 20
269.926
 11
17.3396
 21
270.111
  0
LINE
  8
0
 10
17.3396
 20
270.111
 11
17.0644
 21
270.262
  0
LINE
  8
0
 10
17.0644
 20
270.262
 11
16.7725
 21
270.378
  0
LINE
  8
0
 10
16.7725
 20
270.378
 11
16.4684
 21
270.456
  0
LINE
  8
0
 10
16.4684
 20
270.456
 11
16.157
 21
270.495
  0
LINE
  8
0
 10
16.157
 20
270.495
 11
-16.157
 21
270.495
  0
LINE
  8
0
 10
-16.157
 20
270.495
 11
-16.4684
 21
270.456
  0
LINE
  8
0
 10
-16.4684
 20
270.456
 11
-16.7725
 21
270.378
  0
LINE
  8
0
 10
-16.7725
 20
270.378
 11
-17.0644
 21
270.262
  0
LINE
  8
0
 10
-17.0644
 20
270.262
 11
-17.3396
 21
270.111
  0
LINE
  8
0
 10
-17.3396
 20
270.111
 11
-17.5936
 21
269.926
  0
LINE
  8
0
 10
-17.5936
 20
269.926
 11
-17.8224
 21
269.711
  0
LINE
  8
0
 10
-17.8224
 20
269.711
 11
-18.0225
 21
269.469
  0
LINE
  8
0
 10
-18.0225
 20
269.469
 11
-18.1908
 21
269.204
  0
LINE
  8
0
 10
-18.1908
 20
269.204
 11
-18.3244
 21
268.92
  0
LINE
  8
0
 10
-18.3244
 20
268.92
 11
-18.4214
 21
268.622
  0
LINE
  8
0
 10
-18.4214
 20
268.622
 11
-18.4803
 21
268.313
  0
LINE
  8
0
 10
-18.4803
 20
268.313
 11
-18.5
 21
268
  0
LINE
  8
0
 10
-18.5
 20
268
 11
-18.5
 21
236
  0
LINE
  8
0
 10
-18.5
 20
236
 11
-18.4803
 21
235.687
  0
LINE
  8
0
 10
-18.4803
 20
235.687
 11
-18.4214
 21
235.378
  0
LINE
  8
0
 10
-18.4214
 20
235.378
 11
-18.3244
 21
235.08
  0
LINE
  8
0
 10
-18.3244
 20
235.08
 11
-18.1908
 21
234.796
  0
LINE
  8
0
 10
-18.1908
 20
234.796
 11
-18.0225
 21
234.531
  0
LINE
  8
0
 10
-18.0225
 20
234.531
 11
-17.8224
 21
234.289
  0
LINE
  8
0
 10
-17.8224
 20
234.289
 11
-17.5936
 21
234.074
  0
LINE
  8
0
 10
-17.5936
 20
234.074
 11
-17.3396
 21
233.889
  0
LINE
  8
0
 10
-17.3396
 20
233.889
 11
-17.0644
 21
233.738
  0
LINE
  8
0
 10
-17.0644
 20
233.738
 11
-16.7725
 21
233.622
  0
LINE
  8
0
 10
-16.7725
 20
233.622
 11
-16.4684
 21
233.544
  0
LINE
  8
0
 10
-16.4684
 20
233.544
 11
-16.157
 21
233.505
  0
LINE
  8
0
 10
-16.157
 20
233.505
 11
16.157
 21
233.505
  0
LINE
  8
0
 10
16.157
 20
233.505
 11
16.4684
 21
233.544
  0
LINE
  8
0
 10
-7.59418
 20
265.503
 11
-7.78107
 21
265.527
  0
LINE
  8
0
 10
-7.78107
 20
265.527
 11
-7.96352
 21
265.573
  0
LINE
  8
0
 10
-7.96352
 20
265.573
 11
-8.13866
 21
265.643
  0
LINE
  8
0
 10
-8.13866
 20
265.643
 11
-8.30373
 21
265.734
  0
LINE
  8
0
 10
-8.30373
 20
265.734
 11
-8.45613
 21
265.844
  0
LINE
  8
0
 10
-8.45613
 20
265.844
 11
-8.59344
 21
265.973
  0
LINE
  8
0
 10
-8.59344
 20
265.973
 11
-8.71352
 21
266.118
  0
LINE
  8
0
 10
-8.71352
 20
266.118
 11
-8.81445
 21
266.277
  0
LINE
  8
0
 10
-8.81445
 20
266.277
 11
-8.89465
 21
266.448
  0
LINE
  8
0
 10
-8.89465
 20
266.448
 11
-8.95287
 21
266.627
  0
LINE
  8
0
 10
-8.95287
 20
266.627
 11
-8.98816
 21
266.812
  0
LINE
  8
0
 10
-8.98816
 20
266.812
 11
-9
 21
267
  0
LINE
  8
0
 10
-9
 20
267
 11
-8.98816
 21
267.188
  0
LINE
  8
0
 10
-8.98816
 20
267.188
 11
-8.95287
 21
267.373
  0
LINE
  8
0
 10
-8.95287
 20
267.373
 11
-8.89465
 21
267.552
  0
LINE
  8
0
 10
-8.89465
 20
267.552
 11
-8.81445
 21
267.723
  0
LINE
  8
0
 10
-8.81445
 20
267.723
 11
-8.71352
 21
267.882
  0
LINE
  8
0
 10
-8.71352
 20
267.882
 11
-8.59344
 21
268.027
  0
LINE
  8
0
 10
-8.59344
 20
268.027
 11
-8.45613
 21
268.156
  0
LINE
  8
0
 10
-8.45613
 20
268.156
 11
-8.30373
 21
268.266
  0
LINE
  8
0
 10
-8.30373
 20
268.266
 11
-8.13866
 21
268.357
  0
LINE
  8
0
 10
-8.13866
 20
268.357
 11
-7.96352
 21
268.427
  0
LINE
  8
0
 10
-7.96352
 20
268.427
 11
-7.78107
 21
268.473
  0
LINE
  8
0
 10
-7.78107
 20
268.473
 11
-7.59418
 21
268.497
  0
LINE
  8
0
 10
-7.59418
 20
268.497
 11
-7.40581
 21
268.497
  0
LINE
  8
0
 10
-7.40581
 20
268.497
 11
-7.21892
 21
268.473
  0
LINE
  8
0
 10
-7.21892
 20
268.473
 11
-7.03647
 21
268.427
  0
LINE
  8
0
 10
-7.03647
 20
268.427
 11
-6.86133
 21
268.357
  0
LINE
  8
0
 10
-6.86133
 20
268.357
 11
-6.69626
 21
268.266
  0
LINE
  8
0
 10
-6.69626
 20
268.266
 11
-6.54385
 21
268.156
  0
LINE
  8
0
 10
-6.54385
 20
268.156
 11
-6.40654
 21
268.027
  0
LINE
  8
0
 10
-6.40654
 20
268.027
 11
-6.28647
 21
267.882
  0
LINE
  8
0
 10
-6.28647
 20
267.882
 11
-6.18553
 21
267.723
  0
LINE
  8
0
 10
-6.18553
 20
267.723
 11
-6.10533
 21
267.552
  0
LINE
  8
0
 10
-6.10533
 20
267.552
 11
-6.04712
 21
267.373
  0
LINE
  8
0
 10
-6.04712
 20
267.373
 11
-6.01183
 21
267.188
  0
LINE
  8
0
 10
-6.01183
 20
267.188
 11
-6
 21
267
  0
LINE
  8
0
 10
-6
 20
267
 11
-6.01183
 21
266.812
  0
LINE
  8
0
 10
-6.01183
 20
266.812
 11
-6.04712
 21
266.627
  0
LINE
  8
0
 10
-6.04712
 20
266.627
 11
-6.10533
 21
266.448
  0
LINE
  8
0
 10
-6.10533
 20
266.448
 11
-6.18553
 21
266.277
  0
LINE
  8
0
 10
-6.18553
 20
266.277
 11
-6.28647
 21
266.118
  0
LINE
  8
0
 10
-6.28647
 20
266.118
 11
-6.40654
 21
265.973
  0
LINE
  8
0
 10
-6.40654
 20
265.973
 11
-6.54385
 21
265.844
  0
LINE
  8
0
 10
-6.54385
 20
265.844
 11
-6.69626
 21
265.734
  0
LINE
  8
0
 10
-6.69626
 20
265.734
 11
-6.86133
 21
265.643
  0
LINE
  8
0
 10
-6.86133
 20
265.643
 11
-7.03647
 21
265.573
  0
LINE
  8
0
 10
-7.03647
 20
265.573
 11
-7.21892
 21
265.527
  0
LINE
  8
0
 10
-7.21892
 20
265.527
 11
-7.40581
 21
265.503
  0
LINE
  8
0
 10
-7.40581
 20
265.503
 11
-7.59418
 21
265.503
  0
LINE
  8
0
 10
-0.0941772
 20
265.503
 11
-0.281067
 21
265.527
  0
LINE
  8
0
 10
-0.281067
 20
265.527
 11
-0.463516
 21
265.573
  0
LINE
  8
0
 10
-0.463516
 20
265.573
 11
-0.638657
 21
265.643
  0
LINE
  8
0
 10
-0.638657
 20
265.643
 11
-0.803726
 21
265.734
  0
LINE
  8
0
 10
-0.803726
 20
265.734
 11
-0.956131
 21
265.844
  0
LINE
  8
0
 10
-0.956131
 20
265.844
 11
-1.09344
 21
265.973
  0
LINE
  8
0
 10
-1.09344
 20
265.973
 11
-1.21352
 21
266.118
  0
LINE
  8
0
 10
-1.21352
 20
266.118
 11
-1.31445
 21
266.277
  0
LINE
  8
0
 10
-1.31445
 20
266.277
 11
-1.39465
 21
266.448
  0
LINE
  8
0
 10
-1.39465
 20
266.448
 11
-1.45287
 21
266.627
  0
LINE
  8
0
 10
-1.45287
 20
266.627
 11
-1.48816
 21
266.812
  0
LINE
  8
0
 10
-1.48816
 20
266.812
 11
-1.5
 21
267
  0
LINE
  8
0
 10
-1.5
 20
267
 11
-1.48816
 21
267.188
  0
LINE
  8
0
 10
-1.48816
 20
267.188
 11
-1.45287
 21
267.373
  0
LINE
  8
0
 10
-1.45287
 20
267.373
 11
-1.39465
 21
267.552
  0
LINE
  8
0
 10
-1.39465
 20
267.552
 11
-1.31445
 21
267.723
  0
LINE
  8
0
 10
-1.31445
 20
267.723
 11
-1.21352
 21
267.882
  0
LINE
  8
0
 10
-1.21352
 20
267.882
 11
-1.09344
 21
268.027
  0
LINE
  8
0
 10
-1.09344
 20
268.027
 11
-0.956131
 21
268.156
  0
LINE
  8
0
 10
-0.956131
 20
268.156
 11
-0.803726
 21
268.266
  0
LINE
  8
0
 10
-0.803726
 20
268.266
 11
-0.638657
 21
268.357
  0
LINE
  8
0
 10
-0.638657
 20
268.357
 11
-0.463516
 21
268.427
  0
LINE
  8
0
 10
-0.463516
 20
268.427
 11
-0.281067
 21
268.473
  0
LINE
  8
0
 10
-0.281067
 20
268.473
 11
-0.0941772
 21
268.497
  0
LINE
  8
0
 10
-0.0941772
 20
268.497
 11
0.0941772
 21
268.497
  0
LINE
  8
0
 10
0.0941772
 20
268.497
 11
0.281067
 21
268.473
  0
LINE
  8
0
 10
0.281067
 20
268.473
 11
0.463516
 21
268.427
  0
LINE
  8
0
 10
0.463516
 20
268.427
 11
0.638657
 21
268.357
  0
LINE
  8
0
 10
0.638657
 20
268.357
 11
0.803726
 21
268.266
  0
LINE
  8
0
 10
0.803726
 20
268.266
 11
0.956131
 21
268.156
  0
LINE
  8
0
 10
0.956131
 20
268.156
 11
1.09344
 21
268.027
  0
LINE
  8
0
 10
1.09344
 20
268.027
 11
1.21352
 21
267.882
  0
LINE
  8
0
 10
1.21352
 20
267.882
 11
1.31445
 21
267.723
  0
LINE
  8
0
 10
1.31445
 20
267.723
 11
1.39465
 21
267.552
  0
LINE
  8
0
 10
1.39465
 20
267.552
 11
1.45287
 21
267.373
  0
LINE
  8
0
 10
1.45287
 20
267.373
 11
1.48816
 21
267.188
  0
LINE
  8
0
 10
1.48816
 20
267.188
 11
1.5
 21
267
  0
LINE
  8
0
 10
1.5
 20
267
 11
1.48816
 21
266.812
  0
LINE
  8
0
 10
1.48816
 20
266.812
 11
1.45287
 21
266.627
  0
LINE
  8
0
 10
1.45287
 20
266.627
 11
1.39465
 21
266.448
  0
LINE
  8
0
 10
1.39465
 20
266.448
 11
1.31445
 21
266.277
  0
LINE
  8
0
 10
1.31445
 20
266.277
 11
1.21352
 21
266.118
  0
LINE
  8
0
 10
1.21352
 20
266.118
 11
1.09344
 21
265.973
  0
LINE
  8
0
 10
1.09344
 20
265.973
 11
0.956131
 21
265.844
  0
LINE
  8
0
 10
0.956131
 20
265.844
 11
0.803726
 21
265.734
  0
LINE
  8
0
 10
0.803726
 20
265.734
 11
0.638657
 21
265.643
  0
LINE
  8
0
 10
0.638657
 20
265.643
 11
0.463516
 21
265.573
  0
LINE
  8
0
 10
0.463516
 20
265.573
 11
0.281067
 21
265.527
  0
LINE
  8
0
 10
0.281067
 20
265.527
 11
0.0941772
 21
265.503
  0
LINE
  8
0
 10
0.0941772
 20
265.503
 11
-0.0941772
 21
265.503
  0
LINE
  8
0
 10
14.9058
 20
265.503
 11
14.7189
 21
265.527
  0
LINE
  8
0
 10
14.7189
 20
265.527
 11
14.5365
 21
265.573
  0
LINE
  8
0
 10
14.5365
 20
265.573
 11
14.3613
 21
265.643
  0
LINE
  8
0
 10
14.3613
 20
265.643
 11
14.1963
 21
265.734
  0
LINE
  8
0
 10
14.1963
 20
265.734
 11
14.0439
 21
265.844
  0
LINE
  8
0
 10
14.0439
 20
265.844
 11
13.9065
 21
265.973
  0
LINE
  8
0
 10
13.9065
 20
265.973
 11
13.7865
 21
266.118
  0
LINE
  8
0
 10
13.7865
 20
266.118
 11
13.6855
 21
266.277
  0
LINE
  8
0
 10
13.6855
 20
266.277
 11
13.6053
 21
266.448
  0
LINE
  8
0
 10
13.6053
 20
266.448
 11
13.5471
 21
266.627
  0
LINE
  8
0
 10
13.5471
 20
266.627
 11
13.5118
 21
266.812
  0
LINE
  8
0
 10
13.5118
 20
266.812
 11
13.5
 21
267
  0
LINE
  8
0
 10
13.5
 20
267
 11
13.5118
 21
267.188
  0
LINE
  8
0
 10
13.5118
 20
267.188
 11
13.5471
 21
267.373
  0
LINE
  8
0
 10
13.5471
 20
267.373
 11
13.6053
 21
267.552
  0
LINE
  8
0
 10
13.6053
 20
267.552
 11
13.6855
 21
267.723
  0
LINE
  8
0
 10
13.6855
 20
267.723
 11
13.7865
 21
267.882
  0
LINE
  8
0
 10
13.7865
 20
267.882
 11
13.9065
 21
268.027
  0
LINE
  8
0
 10
13.9065
 20
268.027
 11
14.0439
 21
268.156
  0
LINE
  8
0
 10
14.0439
 20
268.156
 11
14.1963
 21
268.266
  0
LINE
  8
0
 10
14.1963
 20
268.266
 11
14.3613
 21
268.357
  0
LINE
  8
0
 10
14.3613
 20
268.357
 11
14.5365
 21
268.427
  0
LINE
  8
0
 10
14.5365
 20
268.427
 11
14.7189
 21
268.473
  0
LINE
  8
0
 10
14.7189
 20
268.473
 11
14.9058
 21
268.497
  0
LINE
  8
0
 10
14.9058
 20
268.497
 11
15.0942
 21
268.497
  0
LINE
  8
0
 10
15.0942
 20
268.497
 11
15.2811
 21
268.473
  0
LINE
  8
0
 10
15.2811
 20
268.473
 11
15.4635
 21
268.427
  0
LINE
  8
0
 10
15.4635
 20
268.427
 11
15.6387
 21
268.357
  0
LINE
  8
0
 10
15.6387
 20
268.357
 11
15.8037
 21
268.266
  0
LINE
  8
0
 10
15.8037
 20
268.266
 11
15.9561
 21
268.156
  0
LINE
  8
0
 10
15.9561
 20
268.156
 11
16.0934
 21
268.027
  0
LINE
  8
0
 10
16.0934
 20
268.027
 11
16.2135
 21
267.882
  0
LINE
  8
0
 10
16.2135
 20
267.882
 11
16.3145
 21
267.723
  0
LINE
  8
0
 10
16.3145
 20
267.723
 11
16.3947
 21
267.552
  0
LINE
  8
0
 10
16.3947
 20
267.552
 11
16.4529
 21
267.373
  0
LINE
  8
0
 10
16.4529
 20
267.373
 11
16.4882
 21
267.188
  0
LINE
  8
0
 10
16.4882
 20
267.188
 11
16.5
 21
267
  0
LINE
  8
0
 10
16.5
 20
267
 11
16.4882
 21
266.812
  0
LINE
  8
0
 10
16.4882
 20
266.812
 11
16.4529
 21
266.627
  0
LINE
  8
0
 10
16.4529
 20
266.627
 11
16.3947
 21
266.448
  0
LINE
  8
0
 10
16.3947
 20
266.448
 11
16.3145
 21
266.277
  0
LINE
  8
0
 10
16.3145
 20
266.277
 11
16.2135
 21
266.118
  0
LINE
  8
0
 10
16.2135
 20
266.118
 11
16.0934
 21
265.973
  0
LINE
  8
0
 10
16.0934
 20
265.973
 11
15.9561
 21
265.844
  0
LINE
  8
0
 10
15.9561
 20
265.844
 11
15.8037
 21
265.734
  0
LINE
  8
0
 10
15.8037
 20
265.734
 11
15.6387
 21
265.643
  0
LINE
  8
0
 10
15.6387
 20
265.643
 11
15.4635
 21
265.573
  0
LINE
  8
0
 10
15.4635
 20
265.573
 11
15.2811
 21
265.527
  0
LINE
  8
0
 10
15.2811
 20
265.527
 11
15.0942
 21
265.503
  0
LINE
  8
0
 10
15.0942
 20
265.503
 11
14.9058
 21
265.503
  0
LINE
  8
0
 10
7.40581
 20
265.503
 11
7.21892
 21
265.527
  0
LINE
  8
0
 10
7.21892
 20
265.527
 11
7.03647
 21
265.573
  0
LINE
  8
0
 10
7.03647
 20
265.573
 11
6.86133
 21
265.643
  0
LINE
  8
0
 10
6.86133
 20
265.643
 11
6.69626
 21
265.734
  0
LINE
  8
0
 10
6.69626
 20
265.734
 11
6.54385
 21
265.844
  0
LINE
  8
0
 10
6.54385
 20
265.844
 11
6.40654
 21
265.973
  0
LINE
  8
0
 10
6.40654
 20
265.973
 11
6.28647
 21
266.118
  0
LINE
  8
0
 10
6.28647
 20
266.118
 11
6.18553
 21
266.277
  0
LINE
  8
0
 10
6.18553
 20
266.277
 11
6.10533
 21
266.448
  0
LINE
  8
0
 10
6.10533
 20
266.448
 11
6.04712
 21
266.627
  0
LINE
  8
0
 10
6.04712
 20
266.627
 11
6.01183
 21
266.812
  0
LINE
  8
0
 10
6.01183
 20
266.812
 11
6
 21
267
  0
LINE
  8
0
 10
6
 20
267
 11
6.01183
 21
267.188
  0
LINE
  8
0
 10
6.01183
 20
267.188
 11
6.04712
 21
267.373
  0
LINE
  8
0
 10
6.04712
 20
267.373
 11
6.10533
 21
267.552
  0
LINE
  8
0
 10
6.10533
 20
267.552
 11
6.18553
 21
267.723
  0
LINE
  8
0
 10
6.18553
 20
267.723
 11
6.28647
 21
267.882
  0
LINE
  8
0
 10
6.28647
 20
267.882
 11
6.40654
 21
268.027
  0
LINE
  8
0
 10
6.40654
 20
268.027
 11
6.54385
 21
268.156
  0
LINE
  8
0
 10
6.54385
 20
268.156
 11
6.69626
 21
268.266
  0
LINE
  8
0
 10
6.69626
 20
268.266
 11
6.86133
 21
268.357
  0
LINE
  8
0
 10
6.86133
 20
268.357
 11
7.03647
 21
268.427
  0
LINE
  8
0
 10
7.03647
 20
268.427
 11
7.21892
 21
268.473
  0
LINE
  8
0
 10
7.21892
 20
268.473
 11
7.40581
 21
268.497
  0
LINE
  8
0
 10
7.40581
 20
268.497
 11
7.59418
 21
268.497
  0
LINE
  8
0
 10
7.59418
 20
268.497
 11
7.78107
 21
268.473
  0
LINE
  8
0
 10
7.78107
 20
268.473
 11
7.96352
 21
268.427
  0
LINE
  8
0
 10
7.96352
 20
268.427
 11
8.13866
 21
268.357
  0
LINE
  8
0
 10
8.13866
 20
268.357
 11
8.30373
 21
268.266
  0
LINE
  8
0
 10
8.30373
 20
268.266
 11
8.45613
 21
268.156
  0
LINE
  8
0
 10
8.45613
 20
268.156
 11
8.59344
 21
268.027
  0
LINE
  8
0
 10
8.59344
 20
268.027
 11
8.71352
 21
267.882
  0
LINE
  8
0
 10
8.71352
 20
267.882
 11
8.81445
 21
267.723
  0
LINE
  8
0
 10
8.81445
 20
267.723
 11
8.89465
 21
267.552
  0
LINE
  8
0
 10
8.89465
 20
267.552
 11
8.95287
 21
267.373
  0
LINE
  8
0
 10
8.95287
 20
267.373
 11
8.98816
 21
267.188
  0
LINE
  8
0
 10
8.98816
 20
267.188
 11
9
 21
267
  0
LINE
  8
0
 10
9
 20
267
 11
8.98816
 21
266.812
  0
LINE
  8
0
 10
8.98816
 20
266.812
 11
8.95287
 21
266.627
  0
LINE
  8
0
 10
8.95287
 20
266.627
 11
8.89465
 21
266.448
  0
LINE
  8
0
 10
8.89465
 20
266.448
 11
8.81445
 21
266.277
  0
LINE
  8
0
 10
8.81445
 20
266.277
 11
8.71352
 21
266.118
  0
LINE
  8
0
 10
8.71352
 20
266.118
 11
8.59344
 21
265.973
  0
LINE
  8
0
 10
8.59344
 20
265.973
 11
8.45613
 21
265.844
  0
LINE
  8
0
 10
8.45613
 20
265.844
 11
8.30373
 21
265.734
  0
LINE
  8
0
 10
8.30373
 20
265.734
 11
8.13866
 21
265.643
  0
LINE
  8
0
 10
8.13866
 20
265.643
 11
7.96352
 21
265.573
  0
LINE
  8
0
 10
7.96352
 20
265.573
 11
7.78107
 21
265.527
  0
LINE
  8
0
 10
7.78107
 20
265.527
 11
7.59418
 21
265.503
  0
LINE
  8
0
 10
7.59418
 20
265.503
 11
7.40581
 21
265.503
  0
LINE
  8
0
 10
-15.0942
 20
265.503
 11
-15.2811
 21
265.527
  0
LINE
  8
0
 10
-15.2811
 20
265.527
 11
-15.4635
 21
265.573
  0
LINE
  8
0
 10
-15.4635
 20
265.573
 11
-15.6387
 21
265.643
  0
LINE
  8
0
 10
-15.6387
 20
265.643
 11
-15.8037
 21
265.734
  0
LINE
  8
0
 10
-15.8037
 20
265.734
 11
-15.9561
 21
265.844
  0
LINE
  8
0
 10
-15.9561
 20
265.844
 11
-16.0934
 21
265.973
  0
LINE
  8
0
 10
-16.0934
 20
265.973
 11
-16.2135
 21
266.118
  0
LINE
  8
0
 10
-16.2135
 20
266.118
 11
-16.3145
 21
266.277
  0
LINE
  8
0
 10
-16.3145
 20
266.277
 11
-16.3947
 21
266.448
  0
LINE
  8
0
 10
-16.3947
 20
266.448
 11
-16.4529
 21
266.627
  0
LINE
  8
0
 10
-16.4529
 20
266.627
 11
-16.4882
 21
266.812
  0
LINE
  8
0
 10
-16.4882
 20
266.812
 11
-16.5
 21
267
  0
LINE
  8
0
 10
-16.5
 20
267
 11
-16.4882
 21
267.188
  0
LINE
  8
0
 10
-16.4882
 20
267.188
 11
-16.4529
 21
267.373
  0
LINE
  8
0
 10
-16.4529
 20
267.373
 11
-16.3947
 21
267.552
  0
LINE
  8
0
 10
-16.3947
 20
267.552
 11
-16.3145
 21
267.723
  0
LINE
  8
0
 10
-16.3145
 20
267.723
 11
-16.2135
 21
267.882
  0
LINE
  8
0
 10
-16.2135
 20
267.882
 11
-16.0934
 21
268.027
  0
LINE
  8
0
 10
-16.0934
 20
268.027
 11
-15.9561
 21
268.156
  0
LINE
  8
0
 10
-15.9561
 20
268.156
 11
-15.8037
 21
268.266
  0
LINE
  8
0
 10
-15.8037
 20
268.266
 11
-15.6387
 21
268.357
  0
LINE
  8
0
 10
-15.6387
 20
268.357
 11
-15.4635
 21
268.427
  0
LINE
  8
0
 10
-15.4635
 20
268.427
 11
-15.2811
 21
268.473
  0
LINE
  8
0
 10
-15.2811
 20
268.473
 11
-15.0942
 21
268.497
  0
LINE
  8
0
 10
-15.0942
 20
268.497
 11
-14.9058
 21
268.497
  0
LINE
  8
0
 10
-14.9058
 20
268.497
 11
-14.7189
 21
268.473
  0
LINE
  8
0
 10
-14.7189
 20
268.473
 11
-14.5365
 21
268.427
  0
LINE
  8
0
 10
-14.5365
 20
268.427
 11
-14.3613
 21
268.357
  0
LINE
  8
0
 10
-14.3613
 20
268.357
 11
-14.1963
 21
268.266
  0
LINE
  8
0
 10
-14.1963
 20
268.266
 11
-14.0439
 21
268.156
  0
LINE
  8
0
 10
-14.0439
 20
268.156
 11
-13.9065
 21
268.027
  0
LINE
  8
0
 10
-13.9065
 20
268.027
 11
-13.7865
 21
267.882
  0
LINE
  8
0
 10
-13.7865
 20
267.882
 11
-13.6855
 21
267.723
  0
LINE
  8
0
 10
-13.6855
 20
267.723
 11
-13.6053
 21
267.552
  0
LINE
  8
0
 10
-13.6053
 20
267.552
 11
-13.5471
 21
267.373
  0
LINE
  8
0
 10
-13.5471
 20
267.373
 11
-13.5118
 21
267.188
  0
LINE
  8
0
 10
-13.5118
 20
267.188
 11
-13.5
 21
267
  0
LINE
  8
0
 10
-13.5
 20
267
 11
-13.5118
 21
266.812
  0
LINE
  8
0
 10
-13.5118
 20
266.812
 11
-13.5471
 21
266.627
  0
LINE
  8
0
 10
-13.5471
 20
266.627
 11
-13.6053
 21
266.448
  0
LINE
  8
0
 10
-13.6053
 20
266.448
 11
-13.6855
 21
266.277
  0
LINE
  8
0
 10
-13.6855
 20
266.277
 11
-13.7865
 21
266.118
  0
LINE
  8
0
 10
-13.7865
 20
266.118
 11
-13.9065
 21
265.973
  0
LINE
  8
0
 10
-13.9065
 20
265.973
 11
-14.0439
 21
265.844
  0
LINE
  8
0
 10
-14.0439
 20
265.844
 11
-14.1963
 21
265.734
  0
LINE
  8
0
 10
-14.1963
 20
265.734
 11
-14.3613
 21
265.643
  0
LINE
  8
0
 10
-14.3613
 20
265.643
 11
-14.5365
 21
265.573
  0
LINE
  8
0
 10
-14.5365
 20
265.573
 11
-14.7189
 21
265.527
  0
LINE
  8
0
 10
-14.7189
 20
265.527
 11
-14.9058
 21
265.503
  0
LINE
  8
0
 10
-14.9058
 20
265.503
 11
-15.0942
 21
265.503
  0
LINE
  8
0
 10
7.40581
 20
258.003
 11
7.21892
 21
258.027
  0
LINE
  8
0
 10
7.21892
 20
258.027
 11
7.03647
 21
258.073
  0
LINE
  8
0
 10
7.03647
 20
258.073
 11
6.86133
 21
258.143
  0
LINE
  8
0
 10
6.86133
 20
258.143
 11
6.69626
 21
258.234
  0
LINE
  8
0
 10
6.69626
 20
258.234
 11
6.54385
 21
258.344
  0
LINE
  8
0
 10
6.54385
 20
258.344
 11
6.40654
 21
258.473
  0
LINE
  8
0
 10
6.40654
 20
258.473
 11
6.28647
 21
258.618
  0
LINE
  8
0
 10
6.28647
 20
258.618
 11
6.18553
 21
258.777
  0
LINE
  8
0
 10
6.18553
 20
258.777
 11
6.10533
 21
258.948
  0
LINE
  8
0
 10
6.10533
 20
258.948
 11
6.04712
 21
259.127
  0
LINE
  8
0
 10
6.04712
 20
259.127
 11
6.01183
 21
259.312
  0
LINE
  8
0
 10
6.01183
 20
259.312
 11
6
 21
259.5
  0
LINE
  8
0
 10
6
 20
259.5
 11
6.01183
 21
259.688
  0
LINE
  8
0
 10
6.01183
 20
259.688
 11
6.04712
 21
259.873
  0
LINE
  8
0
 10
6.04712
 20
259.873
 11
6.10533
 21
260.052
  0
LINE
  8
0
 10
6.10533
 20
260.052
 11
6.18553
 21
260.223
  0
LINE
  8
0
 10
6.18553
 20
260.223
 11
6.28647
 21
260.382
  0
LINE
  8
0
 10
6.28647
 20
260.382
 11
6.40654
 21
260.527
  0
LINE
  8
0
 10
6.40654
 20
260.527
 11
6.54385
 21
260.656
  0
LINE
  8
0
 10
6.54385
 20
260.656
 11
6.69626
 21
260.766
  0
LINE
  8
0
 10
6.69626
 20
260.766
 11
6.86133
 21
260.857
  0
LINE
  8
0
 10
6.86133
 20
260.857
 11
7.03647
 21
260.927
  0
LINE
  8
0
 10
7.03647
 20
260.927
 11
7.21892
 21
260.973
  0
LINE
  8
0
 10
7.21892
 20
260.973
 11
7.40581
 21
260.997
  0
LINE
  8
0
 10
7.40581
 20
260.997
 11
7.59418
 21
260.997
  0
LINE
  8
0
 10
7.59418
 20
260.997
 11
7.78107
 21
260.973
  0
LINE
  8
0
 10
7.78107
 20
260.973
 11
7.96352
 21
260.927
  0
LINE
  8
0
 10
7.96352
 20
260.927
 11
8.13866
 21
260.857
  0
LINE
  8
0
 10
8.13866
 20
260.857
 11
8.30373
 21
260.766
  0
LINE
  8
0
 10
8.30373
 20
260.766
 11
8.45613
 21
260.656
  0
LINE
  8
0
 10
8.45613
 20
260.656
 11
8.59344
 21
260.527
  0
LINE
  8
0
 10
8.59344
 20
260.527
 11
8.71352
 21
260.382
  0
LINE
  8
0
 10
8.71352
 20
260.382
 11
8.81445
 21
260.223
  0
LINE
  8
0
 10
8.81445
 20
260.223
 11
8.89465
 21
260.052
  0
LINE
  8
0
 10
8.89465
 20
260.052
 11
8.95287
 21
259.873
  0
LINE
  8
0
 10
8.95287
 20
259.873
 11
8.98816
 21
259.688
  0
LINE
  8
0
 10
8.98816
 20
259.688
 11
9
 21
259.5
  0
LINE
  8
0
 10
9
 20
259.5
 11
8.98816
 21
259.312
  0
LINE
  8
0
 10
8.98816
 20
259.312
 11
8.95287
 21
259.127
  0
LINE
  8
0
 10
8.95287
 20
259.127
 11
8.89465
 21
258.948
  0
LINE
  8
0
 10
8.89465
 20
258.948
 11
8.81445
 21
258.777
  0
LINE
  8
0
 10
8.81445
 20
258.777
 11
8.71352
 21
258.618
  0
LINE
  8
0
 10
8.71352
 20
258.618
 11
8.59344
 21
258.473
  0
LINE
  8
0
 10
8.59344
 20
258.473
 11
8.45613
 21
258.344
  0
LINE
  8
0
 10
8.45613
 20
258.344
 11
8.30373
 21
258.234
  0
LINE
  8
0
 10
8.30373
 20
258.234
 11
8.13866
 21
258.143
  0
LINE
  8
0
 10
8.13866
 20
258.143
 11
7.96352
 21
258.073
  0
LINE
  8
0
 10
7.96352
 20
258.073
 11
7.78107
 21
258.027
  0
LINE
  8
0
 10
7.78107
 20
258.027
 11
7.59418
 21
258.003
  0
LINE
  8
0
 10
7.59418
 20
258.003
 11
7.40581
 21
258.003
  0
LINE
  8
0
 10
-0.0941772
 20
258.003
 11
-0.281067
 21
258.027
  0
LINE
  8
0
 10
-0.281067
 20
258.027
 11
-0.463516
 21
258.073
  0
LINE
  8
0
 10
-0.463516
 20
258.073
 11
-0.638657
 21
258.143
  0
LINE
  8
0
 10
-0.638657
 20
258.143
 11
-0.803726
 21
258.234
  0
LINE
  8
0
 10
-0.803726
 20
258.234
 11
-0.956131
 21
258.344
  0
LINE
  8
0
 10
-0.956131
 20
258.344
 11
-1.09344
 21
258.473
  0
LINE
  8
0
 10
-1.09344
 20
258.473
 11
-1.21352
 21
258.618
  0
LINE
  8
0
 10
-1.21352
 20
258.618
 11
-1.31445
 21
258.777
  0
LINE
  8
0
 10
-1.31445
 20
258.777
 11
-1.39465
 21
258.948
  0
LINE
  8
0
 10
-1.39465
 20
258.948
 11
-1.45287
 21
259.127
  0
LINE
  8
0
 10
-1.45287
 20
259.127
 11
-1.48816
 21
259.312
  0
LINE
  8
0
 10
-1.48816
 20
259.312
 11
-1.5
 21
259.5
  0
LINE
  8
0
 10
-1.5
 20
259.5
 11
-1.48816
 21
259.688
  0
LINE
  8
0
 10
-1.48816
 20
259.688
 11
-1.45287
 21
259.873
  0
LINE
  8
0
 10
-1.45287
 20
259.873
 11
-1.39465
 21
260.052
  0
LINE
  8
0
 10
-1.39465
 20
260.052
 11
-1.31445
 21
260.223
  0
LINE
  8
0
 10
-1.31445
 20
260.223
 11
-1.21352
 21
260.382
  0
LINE
  8
0
 10
-1.21352
 20
260.382
 11
-1.09344
 21
260.527
  0
LINE
  8
0
 10
-1.09344
 20
260.527
 11
-0.956131
 21
260.656
  0
LINE
  8
0
 10
-0.956131
 20
260.656
 11
-0.803726
 21
260.766
  0
LINE
  8
0
 10
-0.803726
 20
260.766
 11
-0.638657
 21
260.857
  0
LINE
  8
0
 10
-0.638657
 20
260.857
 11
-0.463516
 21
260.927
  0
LINE
  8
0
 10
-0.463516
 20
260.927
 11
-0.281067
 21
260.973
  0
LINE
  8
0
 10
-0.281067
 20
260.973
 11
-0.0941772
 21
260.997
  0
LINE
  8
0
 10
-0.0941772
 20
260.997
 11
0.0941772
 21
260.997
  0
LINE
  8
0
 10
0.0941772
 20
260.997
 11
0.281067
 21
260.973
  0
LINE
  8
0
 10
0.281067
 20
260.973
 11
0.463516
 21
260.927
  0
LINE
  8
0
 10
0.463516
 20
260.927
 11
0.638657
 21
260.857
  0
LINE
  8
0
 10
0.638657
 20
260.857
 11
0.803726
 21
260.766
  0
LINE
  8
0
 10
0.803726
 20
260.766
 11
0.956131
 21
260.656
  0
LINE
  8
0
 10
0.956131
 20
260.656
 11
1.09344
 21
260.527
  0
LINE
  8
0
 10
1.09344
 20
260.527
 11
1.21352
 21
260.382
  0
LINE
  8
0
 10
1.21352
 20
260.382
 11
1.31445
 21
260.223
  0
LINE
  8
0
 10
1.31445
 20
260.223
 11
1.39465
 21
260.052
  0
LINE
  8
0
 10
1.39465
 20
260.052
 11
1.45287
 21
259.873
  0
LINE
  8
0
 10
1.45287
 20
259.873
 11
1.48816
 21
259.688
  0
LINE
  8
0
 10
1.48816
 20
259.688
 11
1.5
 21
259.5
  0
LINE
  8
0
 10
1.5
 20
259.5
 11
1.48816
 21
259.312
  0
LINE
  8
0
 10
1.48816
 20
259.312
 11
1.45287
 21
259.127
  0
LINE
  8
0
 10
1.45287
 20
259.127
 11
1.39465
 21
258.948
  0
LINE
  8
0
 10
1.39465
 20
258.948
 11
1.31445
 21
258.777
  0
LINE
  8
0
 10
1.31445
 20
258.777
 11
1.21352
 21
258.618
  0
LINE
  8
0
 10
1.21352
 20
258.618
 11
1.09344
 21
258.473
  0
LINE
  8
0
 10
1.09344
 20
258.473
 11
0.956131
 21
258.344
  0
LINE
  8
0
 10
0.956131
 20
258.344
 11
0.803726
 21
258.234
  0
LINE
  8
0
 10
0.803726
 20
258.234
 11
0.638657
 21
258.143
  0
LINE
  8
0
 10
0.638657
 20
258.143
 11
0.463516
 21
258.073
  0
LINE
  8
0
 10
0.463516
 20
258.073
 11
0.281067
 21
258.027
  0
LINE
  8
0
 10
0.281067
 20
258.027
 11
0.0941772
 21
258.003
  0
LINE
  8
0
 10
0.0941772
 20
258.003
 11
-0.0941772
 21
258.003
  0
LINE
  8
0
 10
-15.0942
 20
258.003
 11
-15.2811
 21
258.027
  0
LINE
  8
0
 10
-15.2811
 20
258.027
 11
-15.4635
 21
258.073
  0
LINE
  8
0
 10
-15.4635
 20
258.073
 11
-15.6387
 21
258.143
  0
LINE
  8
0
 10
-15.6387
 20
258.143
 11
-15.8037
 21
258.234
  0
LINE
  8
0
 10
-15.8037
 20
258.234
 11
-15.9561
 21
258.344
  0
LINE
  8
0
 10
-15.9561
 20
258.344
 11
-16.0934
 21
258.473
  0
LINE
  8
0
 10
-16.0934
 20
258.473
 11
-16.2135
 21
258.618
  0
LINE
  8
0
 10
-16.2135
 20
258.618
 11
-16.3145
 21
258.777
  0
LINE
  8
0
 10
-16.3145
 20
258.777
 11
-16.3947
 21
258.948
  0
LINE
  8
0
 10
-16.3947
 20
258.948
 11
-16.4529
 21
259.127
  0
LINE
  8
0
 10
-16.4529
 20
259.127
 11
-16.4882
 21
259.312
  0
LINE
  8
0
 10
-16.4882
 20
259.312
 11
-16.5
 21
259.5
  0
LINE
  8
0
 10
-16.5
 20
259.5
 11
-16.4882
 21
259.688
  0
LINE
  8
0
 10
-16.4882
 20
259.688
 11
-16.4529
 21
259.873
  0
LINE
  8
0
 10
-16.4529
 20
259.873
 11
-16.3947
 21
260.052
  0
LINE
  8
0
 10
-16.3947
 20
260.052
 11
-16.3145
 21
260.223
  0
LINE
  8
0
 10
-16.3145
 20
260.223
 11
-16.2135
 21
260.382
  0
LINE
  8
0
 10
-16.2135
 20
260.382
 11
-16.0934
 21
260.527
  0
LINE
  8
0
 10
-16.0934
 20
260.527
 11
-15.9561
 21
260.656
  0
LINE
  8
0
 10
-15.9561
 20
260.656
 11
-15.8037
 21
260.766
  0
LINE
  8
0
 10
-15.8037
 20
260.766
 11
-15.6387
 21
260.857
  0
LINE
  8
0
 10
-15.6387
 20
260.857
 11
-15.4635
 21
260.927
  0
LINE
  8
0
 10
-15.4635
 20
260.927
 11
-15.2811
 21
260.973
  0
LINE
  8
0
 10
-15.2811
 20
260.973
 11
-15.0942
 21
260.997
  0
LINE
  8
0
 10
-15.0942
 20
260.997
 11
-14.9058
 21
260.997
  0
LINE
  8
0
 10
-14.9058
 20
260.997
 11
-14.7189
 21
260.973
  0
LINE
  8
0
 10
-14.7189
 20
260.973
 11
-14.5365
 21
260.927
  0
LINE
  8
0
 10
-14.5365
 20
260.927
 11
-14.3613
 21
260.857
  0
LINE
  8
0
 10
-14.3613
 20
260.857
 11
-14.1963
 21
260.766
  0
LINE
  8
0
 10
-14.1963
 20
260.766
 11
-14.0439
 21
260.656
  0
LINE
  8
0
 10
-14.0439
 20
260.656
 11
-13.9065
 21
260.527
  0
LINE
  8
0
 10
-13.9065
 20
260.527
 11
-13.7865
 21
260.382
  0
LINE
  8
0
 10
-13.7865
 20
260.382
 11
-13.6855
 21
260.223
  0
LINE
  8
0
 10
-13.6855
 20
260.223
 11
-13.6053
 21
260.052
  0
LINE
  8
0
 10
-13.6053
 20
260.052
 11
-13.5471
 21
259.873
  0
LINE
  8
0
 10
-13.5471
 20
259.873
 11
-13.5118
 21
259.688
  0
LINE
  8
0
 10
-13.5118
 20
259.688
 11
-13.5
 21
259.5
  0
LINE
  8
0
 10
-13.5
 20
259.5
 11
-13.5118
 21
259.312
  0
LINE
  8
0
 10
-13.5118
 20
259.312
 11
-13.5471
 21
259.127
  0
LINE
  8
0
 10
-13.5471
 20
259.127
 11
-13.6053
 21
258.948
  0
LINE
  8
0
 10
-13.6053
 20
258.948
 11
-13.6855
 21
258.777
  0
LINE
  8
0
 10
-13.6855
 20
258.777
 11
-13.7865
 21
258.618
  0
LINE
  8
0
 10
-13.7865
 20
258.618
 11
-13.9065
 21
258.473
  0
LINE
  8
0
 10
-13.9065
 20
258.473
 11
-14.0439
 21
258.344
  0
LINE
  8
0
 10
-14.0439
 20
258.344
 11
-14.1963
 21
258.234
  0
LINE
  8
0
 10
-14.1963
 20
258.234
 11
-14.3613
 21
258.143
  0
LINE
  8
0
 10
-14.3613
 20
258.143
 11
-14.5365
 21
258.073
  0
LINE
  8
0
 10
-14.5365
 20
258.073
 11
-14.7189
 21
258.027
  0
LINE
  8
0
 10
-14.7189
 20
258.027
 11
-14.9058
 21
258.003
  0
LINE
  8
0
 10
-14.9058
 20
258.003
 11
-15.0942
 21
258.003
  0
LINE
  8
0
 10
-7.59418
 20
258.003
 11
-7.78107
 21
258.027
  0
LINE
  8
0
 10
-7.78107
 20
258.027
 11
-7.96352
 21
258.073
  0
LINE
  8
0
 10
-7.96352
 20
258.073
 11
-8.13866
 21
258.143
  0
LINE
  8
0
 10
-8.13866
 20
258.143
 11
-8.30373
 21
258.234
  0
LINE
  8
0
 10
-8.30373
 20
258.234
 11
-8.45613
 21
258.344
  0
LINE
  8
0
 10
-8.45613
 20
258.344
 11
-8.59344
 21
258.473
  0
LINE
  8
0
 10
-8.59344
 20
258.473
 11
-8.71352
 21
258.618
  0
LINE
  8
0
 10
-8.71352
 20
258.618
 11
-8.81445
 21
258.777
  0
LINE
  8
0
 10
-8.81445
 20
258.777
 11
-8.89465
 21
258.948
  0
LINE
  8
0
 10
-8.89465
 20
258.948
 11
-8.95287
 21
259.127
  0
LINE
  8
0
 10
-8.95287
 20
259.127
 11
-8.98816
 21
259.312
  0
LINE
  8
0
 10
-8.98816
 20
259.312
 11
-9
 21
259.5
  0
LINE
  8
0
 10
-9
 20
259.5
 11
-8.98816
 21
259.688
  0
LINE
  8
0
 10
-8.98816
 20
259.688
 11
-8.95287
 21
259.873
  0
LINE
  8
0
 10
-8.95287
 20
259.873
 11
-8.89465
 21
260.052
  0
LINE
  8
0
 10
-8.89465
 20
260.052
 11
-8.81445
 21
260.223
  0
LINE
  8
0
 10
-8.81445
 20
260.223
 11
-8.71352
 21
260.382
  0
LINE
  8
0
 10
-8.71352
 20
260.382
 11
-8.59344
 21
260.527
  0
LINE
  8
0
 10
-8.59344
 20
260.527
 11
-8.45613
 21
260.656
  0
LINE
  8
0
 10
-8.45613
 20
260.656
 11
-8.30373
 21
260.766
  0
LINE
  8
0
 10
-8.30373
 20
260.766
 11
-8.13866
 21
260.857
  0
LINE
  8
0
 10
-8.13866
 20
260.857
 11
-7.96352
 21
260.927
  0
LINE
  8
0
 10
-7.96352
 20
260.927
 11
-7.78107
 21
260.973
  0
LINE
  8
0
 10
-7.78107
 20
260.973
 11
-7.59418
 21
260.997
  0
LINE
  8
0
 10
-7.59418
 20
260.997
 11
-7.40581
 21
260.997
  0
LINE
  8
0
 10
-7.40581
 20
260.997
 11
-7.21892
 21
260.973
  0
LINE
  8
0
 10
-7.21892
 20
260.973
 11
-7.03647
 21
260.927
  0
LINE
  8
0
 10
-7.03647
 20
260.927
 11
-6.86133
 21
260.857
  0
LINE
  8
0
 10
-6.86133
 20
260.857
 11
-6.69626
 21
260.766
  0
LINE
  8
0
 10
-6.69626
 20
260.766
 11
-6.54385
 21
260.656
  0
LINE
  8
0
 10
-6.54385
 20
260.656
 11
-6.40654
 21
260.527
  0
LINE
  8
0
 10
-6.40654
 20
260.527
 11
-6.28647
 21
260.382
  0
LINE
  8
0
 10
-6.28647
 20
260.382
 11
-6.18553
 21
260.223
  0
LINE
  8
0
 10
-6.18553
 20
260.223
 11
-6.10533
 21
260.052
  0
LINE
  8
0
 10
-6.10533
 20
260.052
 11
-6.04712
 21
259.873
  0
LINE
  8
0
 10
-6.04712
 20
259.873
 11
-6.01183
 21
259.688
  0
LINE
  8
0
 10
-6.01183
 20
259.688
 11
-6
 21
259.5
  0
LINE
  8
0
 10
-6
 20
259.5
 11
-6.01183
 21
259.312
  0
LINE
  8
0
 10
-6.01183
 20
259.312
 11
-6.04712
 21
259.127
  0
LINE
  8
0
 10
-6.04712
 20
259.127
 11
-6.10533
 21
258.948
  0
LINE
  8
0
 10
-6.10533
 20
258.948
 11
-6.18553
 21
258.777
  0
LINE
  8
0
 10
-6.18553
 20
258.777
 11
-6.28647
 21
258.618
  0
LINE
  8
0
 10
-6.28647
 20
258.618
 11
-6.40654
 21
258.473
  0
LINE
  8
0
 10
-6.40654
 20
258.473
 11
-6.54385
 21
258.344
  0
LINE
  8
0
 10
-6.54385
 20
258.344
 11
-6.69626
 21
258.234
  0
LINE
  8
0
 10
-6.69626
 20
258.234
 11
-6.86133
 21
258.143
  0
LINE
  8
0
 10
-6.86133
 20
258.143
 11
-7.03647
 21
258.073
  0
LINE
  8
0
 10
-7.03647
 20
258.073
 11
-7.21892
 21
258.027
  0
LINE
  8
0
 10
-7.21892
 20
258.027
 11
-7.40581
 21
258.003
  0
LINE
  8
0
 10
-7.40581
 20
258.003
 11
-7.59418
 21
258.003
  0
LINE
  8
0
 10
14.9058
 20
258.003
 11
14.7189
 21
258.027
  0
LINE
  8
0
 10
14.7189
 20
258.027
 11
14.5365
 21
258.073
  0
LINE
  8
0
 10
14.5365
 20
258.073
 11
14.3613
 21
258.143
  0
LINE
  8
0
 10
14.3613
 20
258.143
 11
14.1963
 21
258.234
  0
LINE
  8
0
 10
14.1963
 20
258.234
 11
14.0439
 21
258.344
  0
LINE
  8
0
 10
14.0439
 20
258.344
 11
13.9065
 21
258.473
  0
LINE
  8
0
 10
13.9065
 20
258.473
 11
13.7865
 21
258.618
  0
LINE
  8
0
 10
13.7865
 20
258.618
 11
13.6855
 21
258.777
  0
LINE
  8
0
 10
13.6855
 20
258.777
 11
13.6053
 21
258.948
  0
LINE
  8
0
 10
13.6053
 20
258.948
 11
13.5471
 21
259.127
  0
LINE
  8
0
 10
13.5471
 20
259.127
 11
13.5118
 21
259.312
  0
LINE
  8
0
 10
13.5118
 20
259.312
 11
13.5
 21
259.5
  0
LINE
  8
0
 10
13.5
 20
259.5
 11
13.5118
 21
259.688
  0
LINE
  8
0
 10
13.5118
 20
259.688
 11
13.5471
 21
259.873
  0
LINE
  8
0
 10
13.5471
 20
259.873
 11
13.6053
 21
260.052
  0
LINE
  8
0
 10
13.6053
 20
260.052
 11
13.6855
 21
260.223
  0
LINE
  8
0
 10
13.6855
 20
260.223
 11
13.7865
 21
260.382
  0
LINE
  8
0
 10
13.7865
 20
260.382
 11
13.9065
 21
260.527
  0
LINE
  8
0
 10
13.9065
 20
260.527
 11
14.0439
 21
260.656
  0
LINE
  8
0
 10
14.0439
 20
260.656
 11
14.1963
 21
260.766
  0
LINE
  8
0
 10
14.1963
 20
260.766
 11
14.3613
 21
260.857
  0
LINE
  8
0
 10
14.3613
 20
260.857
 11
14.5365
 21
260.927
  0
LINE
  8
0
 10
14.5365
 20
260.927
 11
14.7189
 21
260.973
  0
LINE
  8
0
 10
14.7189
 20
260.973
 11
14.9058
 21
260.997
  0
LINE
  8
0
 10
14.9058
 20
260.997
 11
15.0942
 21
260.997
  0
LINE
  8
0
 10
15.0942
 20
260.997
 11
15.2811
 21
260.973
  0
LINE
  8
0
 10
15.2811
 20
260.973
 11
15.4635
 21
260.927
  0
LINE
  8
0
 10
15.4635
 20
260.927
 11
15.6387
 21
260.857
  0
LINE
  8
0
 10
15.6387
 20
260.857
 11
15.8037
 21
260.766
  0
LINE
  8
0
 10
15.8037
 20
260.766
 11
15.9561
 21
260.656
  0
LINE
  8
0
 10
15.9561
 20
260.656
 11
16.0934
 21
260.527
  0
LINE
  8
0
 10
16.0934
 20
260.527
 11
16.2135
 21
260.382
  0
LINE
  8
0
 10
16.2135
 20
260.382
 11
16.3145
 21
260.223
  0
LINE
  8
0
 10
16.3145
 20
260.223
 11
16.3947
 21
260.052
  0
LINE
  8
0
 10
16.3947
 20
260.052
 11
16.4529
 21
259.873
  0
LINE
  8
0
 10
16.4529
 20
259.873
 11
16.4882
 21
259.688
  0
LINE
  8
0
 10
16.4882
 20
259.688
 11
16.5
 21
259.5
  0
LINE
  8
0
 10
16.5
 20
259.5
 11
16.4882
 21
259.312
  0
LINE
  8
0
 10
16.4882
 20
259.312
 11
16.4529
 21
259.127
  0
LINE
  8
0
 10
16.4529
 20
259.127
 11
16.3947
 21
258.948
  0
LINE
  8
0
 10
16.3947
 20
258.948
 11
16.3145
 21
258.777
  0
LINE
  8
0
 10
16.3145
 20
258.777
 11
16.2135
 21
258.618
  0
LINE
  8
0
 10
16.2135
 20
258.618
 11
16.0934
 21
258.473
  0
LINE
  8
0
 10
16.0934
 20
258.473
 11
15.9561
 21
258.344
  0
LINE
  8
0
 10
15.9561
 20
258.344
 11
15.8037
 21
258.234
  0
LINE
  8
0
 10
15.8037
 20
258.234
 11
15.6387
 21
258.143
  0
LINE
  8
0
 10
15.6387
 20
258.143
 11
15.4635
 21
258.073
  0
LINE
  8
0
 10
15.4635
 20
258.073
 11
15.2811
 21
258.027
  0
LINE
  8
0
 10
15.2811
 20
258.027
 11
15.0942
 21
258.003
  0
LINE
  8
0
 10
15.0942
 20
258.003
 11
14.9058
 21
258.003
  0
LINE
  8
0
 10
14.9058
 20
250.503
 11
14.7189
 21
250.527
  0
LINE
  8
0
 10
14.7189
 20
250.527
 11
14.5365
 21
250.573
  0
LINE
  8
0
 10
14.5365
 20
250.573
 11
14.3613
 21
250.643
  0
LINE
  8
0
 10
14.3613
 20
250.643
 11
14.1963
 21
250.734
  0
LINE
  8
0
 10
14.1963
 20
250.734
 11
14.0439
 21
250.844
  0
LINE
  8
0
 10
14.0439
 20
250.844
 11
13.9065
 21
250.973
  0
LINE
  8
0
 10
13.9065
 20
250.973
 11
13.7865
 21
251.118
  0
LINE
  8
0
 10
13.7865
 20
251.118
 11
13.6855
 21
251.277
  0
LINE
  8
0
 10
13.6855
 20
251.277
 11
13.6053
 21
251.448
  0
LINE
  8
0
 10
13.6053
 20
251.448
 11
13.5471
 21
251.627
  0
LINE
  8
0
 10
13.5471
 20
251.627
 11
13.5118
 21
251.812
  0
LINE
  8
0
 10
13.5118
 20
251.812
 11
13.5
 21
252
  0
LINE
  8
0
 10
13.5
 20
252
 11
13.5118
 21
252.188
  0
LINE
  8
0
 10
13.5118
 20
252.188
 11
13.5471
 21
252.373
  0
LINE
  8
0
 10
13.5471
 20
252.373
 11
13.6053
 21
252.552
  0
LINE
  8
0
 10
13.6053
 20
252.552
 11
13.6855
 21
252.723
  0
LINE
  8
0
 10
13.6855
 20
252.723
 11
13.7865
 21
252.882
  0
LINE
  8
0
 10
13.7865
 20
252.882
 11
13.9065
 21
253.027
  0
LINE
  8
0
 10
13.9065
 20
253.027
 11
14.0439
 21
253.156
  0
LINE
  8
0
 10
14.0439
 20
253.156
 11
14.1963
 21
253.266
  0
LINE
  8
0
 10
14.1963
 20
253.266
 11
14.3613
 21
253.357
  0
LINE
  8
0
 10
14.3613
 20
253.357
 11
14.5365
 21
253.427
  0
LINE
  8
0
 10
14.5365
 20
253.427
 11
14.7189
 21
253.473
  0
LINE
  8
0
 10
14.7189
 20
253.473
 11
14.9058
 21
253.497
  0
LINE
  8
0
 10
14.9058
 20
253.497
 11
15.0942
 21
253.497
  0
LINE
  8
0
 10
15.0942
 20
253.497
 11
15.2811
 21
253.473
  0
LINE
  8
0
 10
15.2811
 20
253.473
 11
15.4635
 21
253.427
  0
LINE
  8
0
 10
15.4635
 20
253.427
 11
15.6387
 21
253.357
  0
LINE
  8
0
 10
15.6387
 20
253.357
 11
15.8037
 21
253.266
  0
LINE
  8
0
 10
15.8037
 20
253.266
 11
15.9561
 21
253.156
  0
LINE
  8
0
 10
15.9561
 20
253.156
 11
16.0934
 21
253.027
  0
LINE
  8
0
 10
16.0934
 20
253.027
 11
16.2135
 21
252.882
  0
LINE
  8
0
 10
16.2135
 20
252.882
 11
16.3145
 21
252.723
  0
LINE
  8
0
 10
16.3145
 20
252.723
 11
16.3947
 21
252.552
  0
LINE
  8
0
 10
16.3947
 20
252.552
 11
16.4529
 21
252.373
  0
LINE
  8
0
 10
16.4529
 20
252.373
 11
16.4882
 21
252.188
  0
LINE
  8
0
 10
16.4882
 20
252.188
 11
16.5
 21
252
  0
LINE
  8
0
 10
16.5
 20
252
 11
16.4882
 21
251.812
  0
LINE
  8
0
 10
16.4882
 20
251.812
 11
16.4529
 21
251.627
  0
LINE
  8
0
 10
16.4529
 20
251.627
 11
16.3947
 21
251.448
  0
LINE
  8
0
 10
16.3947
 20
251.448
 11
16.3145
 21
251.277
  0
LINE
  8
0
 10
16.3145
 20
251.277
 11
16.2135
 21
251.118
  0
LINE
  8
0
 10
16.2135
 20
251.118
 11
16.0934
 21
250.973
  0
LINE
  8
0
 10
16.0934
 20
250.973
 11
15.9561
 21
250.844
  0
LINE
  8
0
 10
15.9561
 20
250.844
 11
15.8037
 21
250.734
  0
LINE
  8
0
 10
15.8037
 20
250.734
 11
15.6387
 21
250.643
  0
LINE
  8
0
 10
15.6387
 20
250.643
 11
15.4635
 21
250.573
  0
LINE
  8
0
 10
15.4635
 20
250.573
 11
15.2811
 21
250.527
  0
LINE
  8
0
 10
15.2811
 20
250.527
 11
15.0942
 21
250.503
  0
LINE
  8
0
 10
15.0942
 20
250.503
 11
14.9058
 21
250.503
  0
LINE
  8
0
 10
-15.0942
 20
250.503
 11
-15.2811
 21
250.527
  0
LINE
  8
0
 10
-15.2811
 20
250.527
 11
-15.4635
 21
250.573
  0
LINE
  8
0
 10
-15.4635
 20
250.573
 11
-15.6387
 21
250.643
  0
LINE
  8
0
 10
-15.6387
 20
250.643
 11
-15.8037
 21
250.734
  0
LINE
  8
0
 10
-15.8037
 20
250.734
 11
-15.9561
 21
250.844
  0
LINE
  8
0
 10
-15.9561
 20
250.844
 11
-16.0934
 21
250.973
  0
LINE
  8
0
 10
-16.0934
 20
250.973
 11
-16.2135
 21
251.118
  0
LINE
  8
0
 10
-16.2135
 20
251.118
 11
-16.3145
 21
251.277
  0
LINE
  8
0
 10
-16.3145
 20
251.277
 11
-16.3947
 21
251.448
  0
LINE
  8
0
 10
-16.3947
 20
251.448
 11
-16.4529
 21
251.627
  0
LINE
  8
0
 10
-16.4529
 20
251.627
 11
-16.4882
 21
251.812
  0
LINE
  8
0
 10
-16.4882
 20
251.812
 11
-16.5
 21
252
  0
LINE
  8
0
 10
-16.5
 20
252
 11
-16.4882
 21
252.188
  0
LINE
  8
0
 10
-16.4882
 20
252.188
 11
-16.4529
 21
252.373
  0
LINE
  8
0
 10
-16.4529
 20
252.373
 11
-16.3947
 21
252.552
  0
LINE
  8
0
 10
-16.3947
 20
252.552
 11
-16.3145
 21
252.723
  0
LINE
  8
0
 10
-16.3145
 20
252.723
 11
-16.2135
 21
252.882
  0
LINE
  8
0
 10
-16.2135
 20
252.882
 11
-16.0934
 21
253.027
  0
LINE
  8
0
 10
-16.0934
 20
253.027
 11
-15.9561
 21
253.156
  0
LINE
  8
0
 10
-15.9561
 20
253.156
 11
-15.8037
 21
253.266
  0
LINE
  8
0
 10
-15.8037
 20
253.266
 11
-15.6387
 21
253.357
  0
LINE
  8
0
 10
-15.6387
 20
253.357
 11
-15.4635
 21
253.427
  0
LINE
  8
0
 10
-15.4635
 20
253.427
 11
-15.2811
 21
253.473
  0
LINE
  8
0
 10
-15.2811
 20
253.473
 11
-15.0942
 21
253.497
  0
LINE
  8
0
 10
-15.0942
 20
253.497
 11
-14.9058
 21
253.497
  0
LINE
  8
0
 10
-14.9058
 20
253.497
 11
-14.7189
 21
253.473
  0
LINE
  8
0
 10
-14.7189
 20
253.473
 11
-14.5365
 21
253.427
  0
LINE
  8
0
 10
-14.5365
 20
253.427
 11
-14.3613
 21
253.357
  0
LINE
  8
0
 10
-14.3613
 20
253.357
 11
-14.1963
 21
253.266
  0
LINE
  8
0
 10
-14.1963
 20
253.266
 11
-14.0439
 21
253.156
  0
LINE
  8
0
 10
-14.0439
 20
253.156
 11
-13.9065
 21
253.027
  0
LINE
  8
0
 10
-13.9065
 20
253.027
 11
-13.7865
 21
252.882
  0
LINE
  8
0
 10
-13.7865
 20
252.882
 11
-13.6855
 21
252.723
  0
LINE
  8
0
 10
-13.6855
 20
252.723
 11
-13.6053
 21
252.552
  0
LINE
  8
0
 10
-13.6053
 20
252.552
 11
-13.5471
 21
252.373
  0
LINE
  8
0
 10
-13.5471
 20
252.373
 11
-13.5118
 21
252.188
  0
LINE
  8
0
 10
-13.5118
 20
252.188
 11
-13.5
 21
252
  0
LINE
  8
0
 10
-13.5
 20
252
 11
-13.5118
 21
251.812
  0
LINE
  8
0
 10
-13.5118
 20
251.812
 11
-13.5471
 21
251.627
  0
LINE
  8
0
 10
-13.5471
 20
251.627
 11
-13.6053
 21
251.448
  0
LINE
  8
0
 10
-13.6053
 20
251.448
 11
-13.6855
 21
251.277
  0
LINE
  8
0
 10
-13.6855
 20
251.277
 11
-13.7865
 21
251.118
  0
LINE
  8
0
 10
-13.7865
 20
251.118
 11
-13.9065
 21
250.973
  0
LINE
  8
0
 10
-13.9065
 20
250.973
 11
-14.0439
 21
250.844
  0
LINE
  8
0
 10
-14.0439
 20
250.844
 11
-14.1963
 21
250.734
  0
LINE
  8
0
 10
-14.1963
 20
250.734
 11
-14.3613
 21
250.643
  0
LINE
  8
0
 10
-14.3613
 20
250.643
 11
-14.5365
 21
250.573
  0
LINE
  8
0
 10
-14.5365
 20
250.573
 11
-14.7189
 21
250.527
  0
LINE
  8
0
 10
-14.7189
 20
250.527
 11
-14.9058
 21
250.503
  0
LINE
  8
0
 10
-14.9058
 20
250.503
 11
-15.0942
 21
250.503
  0
LINE
  8
0
 10
-7.59418
 20
250.503
 11
-7.78107
 21
250.527
  0
LINE
  8
0
 10
-7.78107
 20
250.527
 11
-7.96352
 21
250.573
  0
LINE
  8
0
 10
-7.96352
 20
250.573
 11
-8.13866
 21
250.643
  0
LINE
  8
0
 10
-8.13866
 20
250.643
 11
-8.30373
 21
250.734
  0
LINE
  8
0
 10
-8.30373
 20
250.734
 11
-8.45613
 21
250.844
  0
LINE
  8
0
 10
-8.45613
 20
250.844
 11
-8.59344
 21
250.973
  0
LINE
  8
0
 10
-8.59344
 20
250.973
 11
-8.71352
 21
251.118
  0
LINE
  8
0
 10
-8.71352
 20
251.118
 11
-8.81445
 21
251.277
  0
LINE
  8
0
 10
-8.81445
 20
251.277
 11
-8.89465
 21
251.448
  0
LINE
  8
0
 10
-8.89465
 20
251.448
 11
-8.95287
 21
251.627
  0
LINE
  8
0
 10
-8.95287
 20
251.627
 11
-8.98816
 21
251.812
  0
LINE
  8
0
 10
-8.98816
 20
251.812
 11
-9
 21
252
  0
LINE
  8
0
 10
-9
 20
252
 11
-8.98816
 21
252.188
  0
LINE
  8
0
 10
-8.98816
 20
252.188
 11
-8.95287
 21
252.373
  0
LINE
  8
0
 10
-8.95287
 20
252.373
 11
-8.89465
 21
252.552
  0
LINE
  8
0
 10
-8.89465
 20
252.552
 11
-8.81445
 21
252.723
  0
LINE
  8
0
 10
-8.81445
 20
252.723
 11
-8.71352
 21
252.882
  0
LINE
  8
0
 10
-8.71352
 20
252.882
 11
-8.59344
 21
253.027
  0
LINE
  8
0
 10
-8.59344
 20
253.027
 11
-8.45613
 21
253.156
  0
LINE
  8
0
 10
-8.45613
 20
253.156
 11
-8.30373
 21
253.266
  0
LINE
  8
0
 10
-8.30373
 20
253.266
 11
-8.13866
 21
253.357
  0
LINE
  8
0
 10
-8.13866
 20
253.357
 11
-7.96352
 21
253.427
  0
LINE
  8
0
 10
-7.96352
 20
253.427
 11
-7.78107
 21
253.473
  0
LINE
  8
0
 10
-7.78107
 20
253.473
 11
-7.59418
 21
253.497
  0
LINE
  8
0
 10
-7.59418
 20
253.497
 11
-7.40581
 21
253.497
  0
LINE
  8
0
 10
-7.40581
 20
253.497
 11
-7.21892
 21
253.473
  0
LINE
  8
0
 10
-7.21892
 20
253.473
 11
-7.03647
 21
253.427
  0
LINE
  8
0
 10
-7.03647
 20
253.427
 11
-6.86133
 21
253.357
  0
LINE
  8
0
 10
-6.86133
 20
253.357
 11
-6.69626
 21
253.266
  0
LINE
  8
0
 10
-6.69626
 20
253.266
 11
-6.54385
 21
253.156
  0
LINE
  8
0
 10
-6.54385
 20
253.156
 11
-6.40654
 21
253.027
  0
LINE
  8
0
 10
-6.40654
 20
253.027
 11
-6.28647
 21
252.882
  0
LINE
  8
0
 10
-6.28647
 20
252.882
 11
-6.18553
 21
252.723
  0
LINE
  8
0
 10
-6.18553
 20
252.723
 11
-6.10533
 21
252.552
  0
LINE
  8
0
 10
-6.10533
 20
252.552
 11
-6.04712
 21
252.373
  0
LINE
  8
0
 10
-6.04712
 20
252.373
 11
-6.01183
 21
252.188
  0
LINE
  8
0
 10
-6.01183
 20
252.188
 11
-6
 21
252
  0
LINE
  8
0
 10
-6
 20
252
 11
-6.01183
 21
251.812
  0
LINE
  8
0
 10
-6.01183
 20
251.812
 11
-6.04712
 21
251.627
  0
LINE
  8
0
 10
-6.04712
 20
251.627
 11
-6.10533
 21
251.448
  0
LINE
  8
0
 10
-6.10533
 20
251.448
 11
-6.18553
 21
251.277
  0
LINE
  8
0
 10
-6.18553
 20
251.277
 11
-6.28647
 21
251.118
  0
LINE
  8
0
 10
-6.28647
 20
251.118
 11
-6.40654
 21
250.973
  0
LINE
  8
0
 10
-6.40654
 20
250.973
 11
-6.54385
 21
250.844
  0
LINE
  8
0
 10
-6.54385
 20
250.844
 11
-6.69626
 21
250.734
  0
LINE
  8
0
 10
-6.69626
 20
250.734
 11
-6.86133
 21
250.643
  0
LINE
  8
0
 10
-6.86133
 20
250.643
 11
-7.03647
 21
250.573
  0
LINE
  8
0
 10
-7.03647
 20
250.573
 11
-7.21892
 21
250.527
  0
LINE
  8
0
 10
-7.21892
 20
250.527
 11
-7.40581
 21
250.503
  0
LINE
  8
0
 10
-7.40581
 20
250.503
 11
-7.59418
 21
250.503
  0
LINE
  8
0
 10
7.40581
 20
250.503
 11
7.21892
 21
250.527
  0
LINE
  8
0
 10
7.21892
 20
250.527
 11
7.03647
 21
250.573
  0
LINE
  8
0
 10
7.03647
 20
250.573
 11
6.86133
 21
250.643
  0
LINE
  8
0
 10
6.86133
 20
250.643
 11
6.69626
 21
250.734
  0
LINE
  8
0
 10
6.69626
 20
250.734
 11
6.54385
 21
250.844
  0
LINE
  8
0
 10
6.54385
 20
250.844
 11
6.40654
 21
250.973
  0
LINE
  8
0
 10
6.40654
 20
250.973
 11
6.28647
 21
251.118
  0
LINE
  8
0
 10
6.28647
 20
251.118
 11
6.18553
 21
251.277
  0
LINE
  8
0
 10
6.18553
 20
251.277
 11
6.10533
 21
251.448
  0
LINE
  8
0
 10
6.10533
 20
251.448
 11
6.04712
 21
251.627
  0
LINE
  8
0
 10
6.04712
 20
251.627
 11
6.01183
 21
251.812
  0
LINE
  8
0
 10
6.01183
 20
251.812
 11
6
 21
252
  0
LINE
  8
0
 10
6
 20
252
 11
6.01183
 21
252.188
  0
LINE
  8
0
 10
6.01183
 20
252.188
 11
6.04712
 21
252.373
  0
LINE
  8
0
 10
6.04712
 20
252.373
 11
6.10533
 21
252.552
  0
LINE
  8
0
 10
6.10533
 20
252.552
 11
6.18553
 21
252.723
  0
LINE
  8
0
 10
6.18553
 20
252.723
 11
6.28647
 21
252.882
  0
LINE
  8
0
 10
6.28647
 20
252.882
 11
6.40654
 21
253.027
  0
LINE
  8
0
 10
6.40654
 20
253.027
 11
6.54385
 21
253.156
  0
LINE
  8
0
 10
6.54385
 20
253.156
 11
6.69626
 21
253.266
  0
LINE
  8
0
 10
6.69626
 20
253.266
 11
6.86133
 21
253.357
  0
LINE
  8
0
 10
6.86133
 20
253.357
 11
7.03647
 21
253.427
  0
LINE
  8
0
 10
7.03647
 20
253.427
 11
7.21892
 21
253.473
  0
LINE
  8
0
 10
7.21892
 20
253.473
 11
7.40581
 21
253.497
  0
LINE
  8
0
 10
7.40581
 20
253.497
 11
7.59418
 21
253.497
  0
LINE
  8
0
 10
7.59418
 20
253.497
 11
7.78107
 21
253.473
  0
LINE
  8
0
 10
7.78107
 20
253.473
 11
7.96352
 21
253.427
  0
LINE
  8
0
 10
7.96352
 20
253.427
 11
8.13866
 21
253.357
  0
LINE
  8
0
 10
8.13866
 20
253.357
 11
8.30373
 21
253.266
  0
LINE
  8
0
 10
8.30373
 20
253.266
 11
8.45613
 21
253.156
  0
LINE
  8
0
 10
8.45613
 20
253.156
 11
8.59344
 21
253.027
  0
LINE
  8
0
 10
8.59344
 20
253.027
 11
8.71352
 21
252.882
  0
LINE
  8
0
 10
8.71352
 20
252.882
 11
8.81445
 21
252.723
  0
LINE
  8
0
 10
8.81445
 20
252.723
 11
8.89465
 21
252.552
  0
LINE
  8
0
 10
8.89465
 20
252.552
 11
8.95287
 21
252.373
  0
LINE
  8
0
 10
8.95287
 20
252.373
 11
8.98816
 21
252.188
  0
LINE
  8
0
 10
8.98816
 20
252.188
 11
9
 21
252
  0
LINE
  8
0
 10
9
 20
252
 11
8.98816
 21
251.812
  0
LINE
  8
0
 10
8.98816
 20
251.812
 11
8.95287
 21
251.627
  0
LINE
  8
0
 10
8.95287
 20
251.627
 11
8.89465
 21
251.448
  0
LINE
  8
0
 10
8.89465
 20
251.448
 11
8.81445
 21
251.277
  0
LINE
  8
0
 10
8.81445
 20
251.277
 11
8.71352
 21
251.118
  0
LINE
  8
0
 10
8.71352
 20
251.118
 11
8.59344
 21
250.973
  0
LINE
  8
0
 10
8.59344
 20
250.973
 11
8.45613
 21
250.844
  0
LINE
  8
0
 10
8.45613
 20
250.844
 11
8.30373
 21
250.734
  0
LINE
  8
0
 10
8.30373
 20
250.734
 11
8.13866
 21
250.643
  0
LINE
  8
0
 10
8.13866
 20
250.643
 11
7.96352
 21
250.573
  0
LINE
  8
0
 10
7.96352
 20
250.573
 11
7.78107
 21
250.527
  0
LINE
  8
0
 10
7.78107
 20
250.527
 11
7.59418
 21
250.503
  0
LINE
  8
0
 10
7.59418
 20
250.503
 11
7.40581
 21
250.503
  0
LINE
  8
0
 10
-0.0941772
 20
250.503
 11
-0.281067
 21
250.527
  0
LINE
  8
0
 10
-0.281067
 20
250.527
 11
-0.463516
 21
250.573
  0
LINE
  8
0
 10
-0.463516
 20
250.573
 11
-0.638657
 21
250.643
  0
LINE
  8
0
 10
-0.638657
 20
250.643
 11
-0.803726
 21
250.734
  0
LINE
  8
0
 10
-0.803726
 20
250.734
 11
-0.956131
 21
250.844
  0
LINE
  8
0
 10
-0.956131
 20
250.844
 11
-1.09344
 21
250.973
  0
LINE
  8
0
 10
-1.09344
 20
250.973
 11
-1.21352
 21
251.118
  0
LINE
  8
0
 10
-1.21352
 20
251.118
 11
-1.31445
 21
251.277
  0
LINE
  8
0
 10
-1.31445
 20
251.277
 11
-1.39465
 21
251.448
  0
LINE
  8
0
 10
-1.39465
 20
251.448
 11
-1.45287
 21
251.627
  0
LINE
  8
0
 10
-1.45287
 20
251.627
 11
-1.48816
 21
251.812
  0
LINE
  8
0
 10
-1.48816
 20
251.812
 11
-1.5
 21
252
  0
LINE
  8
0
 10
-1.5
 20
252
 11
-1.48816
 21
252.188
  0
LINE
  8
0
 10
-1.48816
 20
252.188
 11
-1.45287
 21
252.373
  0
LINE
  8
0
 10
-1.45287
 20
252.373
 11
-1.39465
 21
252.552
  0
LINE
  8
0
 10
-1.39465
 20
252.552
 11
-1.31445
 21
252.723
  0
LINE
  8
0
 10
-1.31445
 20
252.723
 11
-1.21352
 21
252.882
  0
LINE
  8
0
 10
-1.21352
 20
252.882
 11
-1.09344
 21
253.027
  0
LINE
  8
0
 10
-1.09344
 20
253.027
 11
-0.956131
 21
253.156
  0
LINE
  8
0
 10
-0.956131
 20
253.156
 11
-0.803726
 21
253.266
  0
LINE
  8
0
 10
-0.803726
 20
253.266
 11
-0.638657
 21
253.357
  0
LINE
  8
0
 10
-0.638657
 20
253.357
 11
-0.463516
 21
253.427
  0
LINE
  8
0
 10
-0.463516
 20
253.427
 11
-0.281067
 21
253.473
  0
LINE
  8
0
 10
-0.281067
 20
253.473
 11
-0.0941772
 21
253.497
  0
LINE
  8
0
 10
-0.0941772
 20
253.497
 11
0.0941772
 21
253.497
  0
LINE
  8
0
 10
0.0941772
 20
253.497
 11
0.281067
 21
253.473
  0
LINE
  8
0
 10
0.281067
 20
253.473
 11
0.463516
 21
253.427
  0
LINE
  8
0
 10
0.463516
 20
253.427
 11
0.638657
 21
253.357
  0
LINE
  8
0
 10
0.638657
 20
253.357
 11
0.803726
 21
253.266
  0
LINE
  8
0
 10
0.803726
 20
253.266
 11
0.956131
 21
253.156
  0
LINE
  8
0
 10
0.956131
 20
253.156
 11
1.09344
 21
253.027
  0
LINE
  8
0
 10
1.09344
 20
253.027
 11
1.21352
 21
252.882
  0
LINE
  8
0
 10
1.21352
 20
252.882
 11
1.31445
 21
252.723
  0
LINE
  8
0
 10
1.31445
 20
252.723
 11
1.39465
 21
252.552
  0
LINE
  8
0
 10
1.39465
 20
252.552
 11
1.45287
 21
252.373
  0
LINE
  8
0
 10
1.45287
 20
252.373
 11
1.48816
 21
252.188
  0
LINE
  8
0
 10
1.48816
 20
252.188
 11
1.5
 21
252
  0
LINE
  8
0
 10
1.5
 20
252
 11
1.48816
 21
251.812
  0
LINE
  8
0
 10
1.48816
 20
251.812
 11
1.45287
 21
251.627
  0
LINE
  8
0
 10
1.45287
 20
251.627
 11
1.39465
 21
251.448
  0
LINE
  8
0
 10
1.39465
 20
251.448
 11
1.31445
 21
251.277
  0
LINE
  8
0
 10
1.31445
 20
251.277
 11
1.21352
 21
251.118
  0
LINE
  8
0
 10
1.21352
 20
251.118
 11
1.09344
 21
250.973
  0
LINE
  8
0
 10
1.09344
 20
250.973
 11
0.956131
 21
250.844
  0
LINE
  8
0
 10
0.956131
 20
250.844
 11
0.803726
 21
250.734
  0
LINE
  8
0
 10
0.803726
 20
250.734
 11
0.638657
 21
250.643
  0
LINE
  8
0
 10
0.638657
 20
250.643
 11
0.463516
 21
250.573
  0
LINE
  8
0
 10
0.463516
 20
250.573
 11
0.281067
 21
250.527
  0
LINE
  8
0
 10
0.281067
 20
250.527
 11
0.0941772
 21
250.503
  0
LINE
  8
0
 10
0.0941772
 20
250.503
 11
-0.0941772
 21
250.503
  0
LINE
  8
0
 10
7.40581
 20
243.003
 11
7.21892
 21
243.027
  0
LINE
  8
0
 10
7.21892
 20
243.027
 11
7.03647
 21
243.073
  0
LINE
  8
0
 10
7.03647
 20
243.073
 11
6.86133
 21
243.143
  0
LINE
  8
0
 10
6.86133
 20
243.143
 11
6.69626
 21
243.234
  0
LINE
  8
0
 10
6.69626
 20
243.234
 11
6.54385
 21
243.344
  0
LINE
  8
0
 10
6.54385
 20
243.344
 11
6.40654
 21
243.473
  0
LINE
  8
0
 10
6.40654
 20
243.473
 11
6.28647
 21
243.618
  0
LINE
  8
0
 10
6.28647
 20
243.618
 11
6.18553
 21
243.777
  0
LINE
  8
0
 10
6.18553
 20
243.777
 11
6.10533
 21
243.948
  0
LINE
  8
0
 10
6.10533
 20
243.948
 11
6.04712
 21
244.127
  0
LINE
  8
0
 10
6.04712
 20
244.127
 11
6.01183
 21
244.312
  0
LINE
  8
0
 10
6.01183
 20
244.312
 11
6
 21
244.5
  0
LINE
  8
0
 10
6
 20
244.5
 11
6.01183
 21
244.688
  0
LINE
  8
0
 10
6.01183
 20
244.688
 11
6.04712
 21
244.873
  0
LINE
  8
0
 10
6.04712
 20
244.873
 11
6.10533
 21
245.052
  0
LINE
  8
0
 10
6.10533
 20
245.052
 11
6.18553
 21
245.223
  0
LINE
  8
0
 10
6.18553
 20
245.223
 11
6.28647
 21
245.382
  0
LINE
  8
0
 10
6.28647
 20
245.382
 11
6.40654
 21
245.527
  0
LINE
  8
0
 10
6.40654
 20
245.527
 11
6.54385
 21
245.656
  0
LINE
  8
0
 10
6.54385
 20
245.656
 11
6.69626
 21
245.766
  0
LINE
  8
0
 10
6.69626
 20
245.766
 11
6.86133
 21
245.857
  0
LINE
  8
0
 10
6.86133
 20
245.857
 11
7.03647
 21
245.927
  0
LINE
  8
0
 10
7.03647
 20
245.927
 11
7.21892
 21
245.973
  0
LINE
  8
0
 10
7.21892
 20
245.973
 11
7.40581
 21
245.997
  0
LINE
  8
0
 10
7.40581
 20
245.997
 11
7.59418
 21
245.997
  0
LINE
  8
0
 10
7.59418
 20
245.997
 11
7.78107
 21
245.973
  0
LINE
  8
0
 10
7.78107
 20
245.973
 11
7.96352
 21
245.927
  0
LINE
  8
0
 10
7.96352
 20
245.927
 11
8.13866
 21
245.857
  0
LINE
  8
0
 10
8.13866
 20
245.857
 11
8.30373
 21
245.766
  0
LINE
  8
0
 10
8.30373
 20
245.766
 11
8.45613
 21
245.656
  0
LINE
  8
0
 10
8.45613
 20
245.656
 11
8.59344
 21
245.527
  0
LINE
  8
0
 10
8.59344
 20
245.527
 11
8.71352
 21
245.382
  0
LINE
  8
0
 10
8.71352
 20
245.382
 11
8.81445
 21
245.223
  0
LINE
  8
0
 10
8.81445
 20
245.223
 11
8.89465
 21
245.052
  0
LINE
  8
0
 10
8.89465
 20
245.052
 11
8.95287
 21
244.873
  0
LINE
  8
0
 10
8.95287
 20
244.873
 11
8.98816
 21
244.688
  0
LINE
  8
0
 10
8.98816
 20
244.688
 11
9
 21
244.5
  0
LINE
  8
0
 10
9
 20
244.5
 11
8.98816
 21
244.312
  0
LINE
  8
0
 10
8.98816
 20
244.312
 11
8.95287
 21
244.127
  0
LINE
  8
0
 10
8.95287
 20
244.127
 11
8.89465
 21
243.948
  0
LINE
  8
0
 10
8.89465
 20
243.948
 11
8.81445
 21
243.777
  0
LINE
  8
0
 10
8.81445
 20
243.777
 11
8.71352
 21
243.618
  0
LINE
  8
0
 10
8.71352
 20
243.618
 11
8.59344
 21
243.473
  0
LINE
  8
0
 10
8.59344
 20
243.473
 11
8.45613
 21
243.344
  0
LINE
  8
0
 10
8.45613
 20
243.344
 11
8.30373
 21
243.234
  0
LINE
  8
0
 10
8.30373
 20
243.234
 11
8.13866
 21
243.143
  0
LINE
  8
0
 10
8.13866
 20
243.143
 11
7.96352
 21
243.073
  0
LINE
  8
0
 10
7.96352
 20
243.073
 11
7.78107
 21
243.027
  0
LINE
  8
0
 10
7.78107
 20
243.027
 11
7.59418
 21
243.003
  0
LINE
  8
0
 10
7.59418
 20
243.003
 11
7.40581
 21
243.003
  0
LINE
  8
0
 10
-0.0941772
 20
243.003
 11
-0.281067
 21
243.027
  0
LINE
  8
0
 10
-0.281067
 20
243.027
 11
-0.463516
 21
243.073
  0
LINE
  8
0
 10
-0.463516
 20
243.073
 11
-0.638657
 21
243.143
  0
LINE
  8
0
 10
-0.638657
 20
243.143
 11
-0.803726
 21
243.234
  0
LINE
  8
0
 10
-0.803726
 20
243.234
 11
-0.956131
 21
243.344
  0
LINE
  8
0
 10
-0.956131
 20
243.344
 11
-1.09344
 21
243.473
  0
LINE
  8
0
 10
-1.09344
 20
243.473
 11
-1.21352
 21
243.618
  0
LINE
  8
0
 10
-1.21352
 20
243.618
 11
-1.31445
 21
243.777
  0
LINE
  8
0
 10
-1.31445
 20
243.777
 11
-1.39465
 21
243.948
  0
LINE
  8
0
 10
-1.39465
 20
243.948
 11
-1.45287
 21
244.127
  0
LINE
  8
0
 10
-1.45287
 20
244.127
 11
-1.48816
 21
244.312
  0
LINE
  8
0
 10
-1.48816
 20
244.312
 11
-1.5
 21
244.5
  0
LINE
  8
0
 10
-1.5
 20
244.5
 11
-1.48816
 21
244.688
  0
LINE
  8
0
 10
-1.48816
 20
244.688
 11
-1.45287
 21
244.873
  0
LINE
  8
0
 10
-1.45287
 20
244.873
 11
-1.39465
 21
245.052
  0
LINE
  8
0
 10
-1.39465
 20
245.052
 11
-1.31445
 21
245.223
  0
LINE
  8
0
 10
-1.31445
 20
245.223
 11
-1.21352
 21
245.382
  0
LINE
  8
0
 10
-1.21352
 20
245.382
 11
-1.09344
 21
245.527
  0
LINE
  8
0
 10
-1.09344
 20
245.527
 11
-0.956131
 21
245.656
  0
LINE
  8
0
 10
-0.956131
 20
245.656
 11
-0.803726
 21
245.766
  0
LINE
  8
0
 10
-0.803726
 20
245.766
 11
-0.638657
 21
245.857
  0
LINE
  8
0
 10
-0.638657
 20
245.857
 11
-0.463516
 21
245.927
  0
LINE
  8
0
 10
-0.463516
 20
245.927
 11
-0.281067
 21
245.973
  0
LINE
  8
0
 10
-0.281067
 20
245.973
 11
-0.0941772
 21
245.997
  0
LINE
  8
0
 10
-0.0941772
 20
245.997
 11
0.0941772
 21
245.997
  0
LINE
  8
0
 10
0.0941772
 20
245.997
 11
0.281067
 21
245.973
  0
LINE
  8
0
 10
0.281067
 20
245.973
 11
0.463516
 21
245.927
  0
LINE
  8
0
 10
0.463516
 20
245.927
 11
0.638657
 21
245.857
  0
LINE
  8
0
 10
0.638657
 20
245.857
 11
0.803726
 21
245.766
  0
LINE
  8
0
 10
0.803726
 20
245.766
 11
0.956131
 21
245.656
  0
LINE
  8
0
 10
0.956131
 20
245.656
 11
1.09344
 21
245.527
  0
LINE
  8
0
 10
1.09344
 20
245.527
 11
1.21352
 21
245.382
  0
LINE
  8
0
 10
1.21352
 20
245.382
 11
1.31445
 21
245.223
  0
LINE
  8
0
 10
1.31445
 20
245.223
 11
1.39465
 21
245.052
  0
LINE
  8
0
 10
1.39465
 20
245.052
 11
1.45287
 21
244.873
  0
LINE
  8
0
 10
1.45287
 20
244.873
 11
1.48816
 21
244.688
  0
LINE
  8
0
 10
1.48816
 20
244.688
 11
1.5
 21
244.5
  0
LINE
  8
0
 10
1.5
 20
244.5
 11
1.48816
 21
244.312
  0
LINE
  8
0
 10
1.48816
 20
244.312
 11
1.45287
 21
244.127
  0
LINE
  8
0
 10
1.45287
 20
244.127
 11
1.39465
 21
243.948
  0
LINE
  8
0
 10
1.39465
 20
243.948
 11
1.31445
 21
243.777
  0
LINE
  8
0
 10
1.31445
 20
243.777
 11
1.21352
 21
243.618
  0
LINE
  8
0
 10
1.21352
 20
243.618
 11
1.09344
 21
243.473
  0
LINE
  8
0
 10
1.09344
 20
243.473
 11
0.956131
 21
243.344
  0
LINE
  8
0
 10
0.956131
 20
243.344
 11
0.803726
 21
243.234
  0
LINE
  8
0
 10
0.803726
 20
243.234
 11
0.638657
 21
243.143
  0
LINE
  8
0
 10
0.638657
 20
243.143
 11
0.463516
 21
243.073
  0
LINE
  8
0
 10
0.463516
 20
243.073
 11
0.281067
 21
243.027
  0
LINE
  8
0
 10
0.281067
 20
243.027
 11
0.0941772
 21
243.003
  0
LINE
  8
0
 10
0.0941772
 20
243.003
 11
-0.0941772
 21
243.003
  0
LINE
  8
0
 10
14.9058
 20
243.003
 11
14.7189
 21
243.027
  0
LINE
  8
0
 10
14.7189
 20
243.027
 11
14.5365
 21
243.073
  0
LINE
  8
0
 10
14.5365
 20
243.073
 11
14.3613
 21
243.143
  0
LINE
  8
0
 10
14.3613
 20
243.143
 11
14.1963
 21
243.234
  0
LINE
  8
0
 10
14.1963
 20
243.234
 11
14.0439
 21
243.344
  0
LINE
  8
0
 10
14.0439
 20
243.344
 11
13.9065
 21
243.473
  0
LINE
  8
0
 10
13.9065
 20
243.473
 11
13.7865
 21
243.618
  0
LINE
  8
0
 10
13.7865
 20
243.618
 11
13.6855
 21
243.777
  0
LINE
  8
0
 10
13.6855
 20
243.777
 11
13.6053
 21
243.948
  0
LINE
  8
0
 10
13.6053
 20
243.948
 11
13.5471
 21
244.127
  0
LINE
  8
0
 10
13.5471
 20
244.127
 11
13.5118
 21
244.312
  0
LINE
  8
0
 10
13.5118
 20
244.312
 11
13.5
 21
244.5
  0
LINE
  8
0
 10
13.5
 20
244.5
 11
13.5118
 21
244.688
  0
LINE
  8
0
 10
13.5118
 20
244.688
 11
13.5471
 21
244.873
  0
LINE
  8
0
 10
13.5471
 20
244.873
 11
13.6053
 21
245.052
  0
LINE
  8
0
 10
13.6053
 20
245.052
 11
13.6855
 21
245.223
  0
LINE
  8
0
 10
13.6855
 20
245.223
 11
13.7865
 21
245.382
  0
LINE
  8
0
 10
13.7865
 20
245.382
 11
13.9065
 21
245.527
  0
LINE
  8
0
 10
13.9065
 20
245.527
 11
14.0439
 21
245.656
  0
LINE
  8
0
 10
14.0439
 20
245.656
 11
14.1963
 21
245.766
  0
LINE
  8
0
 10
14.1963
 20
245.766
 11
14.3613
 21
245.857
  0
LINE
  8
0
 10
14.3613
 20
245.857
 11
14.5365
 21
245.927
  0
LINE
  8
0
 10
14.5365
 20
245.927
 11
14.7189
 21
245.973
  0
LINE
  8
0
 10
14.7189
 20
245.973
 11
14.9058
 21
245.997
  0
LINE
  8
0
 10
14.9058
 20
245.997
 11
15.0942
 21
245.997
  0
LINE
  8
0
 10
15.0942
 20
245.997
 11
15.2811
 21
245.973
  0
LINE
  8
0
 10
15.2811
 20
245.973
 11
15.4635
 21
245.927
  0
LINE
  8
0
 10
15.4635
 20
245.927
 11
15.6387
 21
245.857
  0
LINE
  8
0
 10
15.6387
 20
245.857
 11
15.8037
 21
245.766
  0
LINE
  8
0
 10
15.8037
 20
245.766
 11
15.9561
 21
245.656
  0
LINE
  8
0
 10
15.9561
 20
245.656
 11
16.0934
 21
245.527
  0
LINE
  8
0
 10
16.0934
 20
245.527
 11
16.2135
 21
245.382
  0
LINE
  8
0
 10
16.2135
 20
245.382
 11
16.3145
 21
245.223
  0
LINE
  8
0
 10
16.3145
 20
245.223
 11
16.3947
 21
245.052
  0
LINE
  8
0
 10
16.3947
 20
245.052
 11
16.4529
 21
244.873
  0
LINE
  8
0
 10
16.4529
 20
244.873
 11
16.4882
 21
244.688
  0
LINE
  8
0
 10
16.4882
 20
244.688
 11
16.5
 21
244.5
  0
LINE
  8
0
 10
16.5
 20
244.5
 11
16.4882
 21
244.312
  0
LINE
  8
0
 10
16.4882
 20
244.312
 11
16.4529
 21
244.127
  0
LINE
  8
0
 10
16.4529
 20
244.127
 11
16.3947
 21
243.948
  0
LINE
  8
0
 10
16.3947
 20
243.948
 11
16.3145
 21
243.777
  0
LINE
  8
0
 10
16.3145
 20
243.777
 11
16.2135
 21
243.618
  0
LINE
  8
0
 10
16.2135
 20
243.618
 11
16.0934
 21
243.473
  0
LINE
  8
0
 10
16.0934
 20
243.473
 11
15.9561
 21
243.344
  0
LINE
  8
0
 10
15.9561
 20
243.344
 11
15.8037
 21
243.234
  0
LINE
  8
0
 10
15.8037
 20
243.234
 11
15.6387
 21
243.143
  0
LINE
  8
0
 10
15.6387
 20
243.143
 11
15.4635
 21
243.073
  0
LINE
  8
0
 10
15.4635
 20
243.073
 11
15.2811
 21
243.027
  0
LINE
  8
0
 10
15.2811
 20
243.027
 11
15.0942
 21
243.003
  0
LINE
  8
0
 10
15.0942
 20
243.003
 11
14.9058
 21
243.003
  0
LINE
  8
0
 10
-7.59418
 20
243.003
 11
-7.78107
 21
243.027
  0
LINE
  8
0
 10
-7.78107
 20
243.027
 11
-7.96352
 21
243.073
  0
LINE
  8
0
 10
-7.96352
 20
243.073
 11
-8.13866
 21
243.143
  0
LINE
  8
0
 10
-8.13866
 20
243.143
 11
-8.30373
 21
243.234
  0
LINE
  8
0
 10
-8.30373
 20
243.234
 11
-8.45613
 21
243.344
  0
LINE
  8
0
 10
-8.45613
 20
243.344
 11
-8.59344
 21
243.473
  0
LINE
  8
0
 10
-8.59344
 20
243.473
 11
-8.71352
 21
243.618
  0
LINE
  8
0
 10
-8.71352
 20
243.618
 11
-8.81445
 21
243.777
  0
LINE
  8
0
 10
-8.81445
 20
243.777
 11
-8.89465
 21
243.948
  0
LINE
  8
0
 10
-8.89465
 20
243.948
 11
-8.95287
 21
244.127
  0
LINE
  8
0
 10
-8.95287
 20
244.127
 11
-8.98816
 21
244.312
  0
LINE
  8
0
 10
-8.98816
 20
244.312
 11
-9
 21
244.5
  0
LINE
  8
0
 10
-9
 20
244.5
 11
-8.98816
 21
244.688
  0
LINE
  8
0
 10
-8.98816
 20
244.688
 11
-8.95287
 21
244.873
  0
LINE
  8
0
 10
-8.95287
 20
244.873
 11
-8.89465
 21
245.052
  0
LINE
  8
0
 10
-8.89465
 20
245.052
 11
-8.81445
 21
245.223
  0
LINE
  8
0
 10
-8.81445
 20
245.223
 11
-8.71352
 21
245.382
  0
LINE
  8
0
 10
-8.71352
 20
245.382
 11
-8.59344
 21
245.527
  0
LINE
  8
0
 10
-8.59344
 20
245.527
 11
-8.45613
 21
245.656
  0
LINE
  8
0
 10
-8.45613
 20
245.656
 11
-8.30373
 21
245.766
  0
LINE
  8
0
 10
-8.30373
 20
245.766
 11
-8.13866
 21
245.857
  0
LINE
  8
0
 10
-8.13866
 20
245.857
 11
-7.96352
 21
245.927
  0
LINE
  8
0
 10
-7.96352
 20
245.927
 11
-7.78107
 21
245.973
  0
LINE
  8
0
 10
-7.78107
 20
245.973
 11
-7.59418
 21
245.997
  0
LINE
  8
0
 10
-7.59418
 20
245.997
 11
-7.40581
 21
245.997
  0
LINE
  8
0
 10
-7.40581
 20
245.997
 11
-7.21892
 21
245.973
  0
LINE
  8
0
 10
-7.21892
 20
245.973
 11
-7.03647
 21
245.927
  0
LINE
  8
0
 10
-7.03647
 20
245.927
 11
-6.86133
 21
245.857
  0
LINE
  8
0
 10
-6.86133
 20
245.857
 11
-6.69626
 21
245.766
  0
LINE
  8
0
 10
-6.69626
 20
245.766
 11
-6.54385
 21
245.656
  0
LINE
  8
0
 10
-6.54385
 20
245.656
 11
-6.40654
 21
245.527
  0
LINE
  8
0
 10
-6.40654
 20
245.527
 11
-6.28647
 21
245.382
  0
LINE
  8
0
 10
-6.28647
 20
245.382
 11
-6.18553
 21
245.223
  0
LINE
  8
0
 10
-6.18553
 20
245.223
 11
-6.10533
 21
245.052
  0
LINE
  8
0
 10
-6.10533
 20
245.052
 11
-6.04712
 21
244.873
  0
LINE
  8
0
 10
-6.04712
 20
244.873
 11
-6.01183
 21
244.688
  0
LINE
  8
0
 10
-6.01183
 20
244.688
 11
-6
 21
244.5
  0
LINE
  8
0
 10
-6
 20
244.5
 11
-6.01183
 21
244.312
  0
LINE
  8
0
 10
-6.01183
 20
244.312
 11
-6.04712
 21
244.127
  0
LINE
  8
0
 10
-6.04712
 20
244.127
 11
-6.10533
 21
243.948
  0
LINE
  8
0
 10
-6.10533
 20
243.948
 11
-6.18553
 21
243.777
  0
LINE
  8
0
 10
-6.18553
 20
243.777
 11
-6.28647
 21
243.618
  0
LINE
  8
0
 10
-6.28647
 20
243.618
 11
-6.40654
 21
243.473
  0
LINE
  8
0
 10
-6.40654
 20
243.473
 11
-6.54385
 21
243.344
  0
LINE
  8
0
 10
-6.54385
 20
243.344
 11
-6.69626
 21
243.234
  0
LINE
  8
0
 10
-6.69626
 20
243.234
 11
-6.86133
 21
243.143
  0
LINE
  8
0
 10
-6.86133
 20
243.143
 11
-7.03647
 21
243.073
  0
LINE
  8
0
 10
-7.03647
 20
243.073
 11
-7.21892
 21
243.027
  0
LINE
  8
0
 10
-7.21892
 20
243.027
 11
-7.40581
 21
243.003
  0
LINE
  8
0
 10
-7.40581
 20
243.003
 11
-7.59418
 21
243.003
  0
LINE
  8
0
 10
-15.0942
 20
243.003
 11
-15.2811
 21
243.027
  0
LINE
  8
0
 10
-15.2811
 20
243.027
 11
-15.4635
 21
243.073
  0
LINE
  8
0
 10
-15.4635
 20
243.073
 11
-15.6387
 21
243.143
  0
LINE
  8
0
 10
-15.6387
 20
243.143
 11
-15.8037
 21
243.234
  0
LINE
  8
0
 10
-15.8037
 20
243.234
 11
-15.9561
 21
243.344
  0
LINE
  8
0
 10
-15.9561
 20
243.344
 11
-16.0934
 21
243.473
  0
LINE
  8
0
 10
-16.0934
 20
243.473
 11
-16.2135
 21
243.618
  0
LINE
  8
0
 10
-16.2135
 20
243.618
 11
-16.3145
 21
243.777
  0
LINE
  8
0
 10
-16.3145
 20
243.777
 11
-16.3947
 21
243.948
  0
LINE
  8
0
 10
-16.3947
 20
243.948
 11
-16.4529
 21
244.127
  0
LINE
  8
0
 10
-16.4529
 20
244.127
 11
-16.4882
 21
244.312
  0
LINE
  8
0
 10
-16.4882
 20
244.312
 11
-16.5
 21
244.5
  0
LINE
  8
0
 10
-16.5
 20
244.5
 11
-16.4882
 21
244.688
  0
LINE
  8
0
 10
-16.4882
 20
244.688
 11
-16.4529
 21
244.873
  0
LINE
  8
0
 10
-16.4529
 20
244.873
 11
-16.3947
 21
245.052
  0
LINE
  8
0
 10
-16.3947
 20
245.052
 11
-16.3145
 21
245.223
  0
LINE
  8
0
 10
-16.3145
 20
245.223
 11
-16.2135
 21
245.382
  0
LINE
  8
0
 10
-16.2135
 20
245.382
 11
-16.0934
 21
245.527
  0
LINE
  8
0
 10
-16.0934
 20
245.527
 11
-15.9561
 21
245.656
  0
LINE
  8
0
 10
-15.9561
 20
245.656
 11
-15.8037
 21
245.766
  0
LINE
  8
0
 10
-15.8037
 20
245.766
 11
-15.6387
 21
245.857
  0
LINE
  8
0
 10
-15.6387
 20
245.857
 11
-15.4635
 21
245.927
  0
LINE
  8
0
 10
-15.4635
 20
245.927
 11
-15.2811
 21
245.973
  0
LINE
  8
0
 10
-15.2811
 20
245.973
 11
-15.0942
 21
245.997
  0
LINE
  8
0
 10
-15.0942
 20
245.997
 11
-14.9058
 21
245.997
  0
LINE
  8
0
 10
-14.9058
 20
245.997
 11
-14.7189
 21
245.973
  0
LINE
  8
0
 10
-14.7189
 20
245.973
 11
-14.5365
 21
245.927
  0
LINE
  8
0
 10
-14.5365
 20
245.927
 11
-14.3613
 21
245.857
  0
LINE
  8
0
 10
-14.3613
 20
245.857
 11
-14.1963
 21
245.766
  0
LINE
  8
0
 10
-14.1963
 20
245.766
 11
-14.0439
 21
245.656
  0
LINE
  8
0
 10
-14.0439
 20
245.656
 11
-13.9065
 21
245.527
  0
LINE
  8
0
 10
-13.9065
 20
245.527
 11
-13.7865
 21
245.382
  0
LINE
  8
0
 10
-13.7865
 20
245.382
 11
-13.6855
 21
245.223
  0
LINE
  8
0
 10
-13.6855
 20
245.223
 11
-13.6053
 21
245.052
  0
LINE
  8
0
 10
-13.6053
 20
245.052
 11
-13.5471
 21
244.873
  0
LINE
  8
0
 10
-13.5471
 20
244.873
 11
-13.5118
 21
244.688
  0
LINE
  8
0
 10
-13.5118
 20
244.688
 11
-13.5
 21
244.5
  0
LINE
  8
0
 10
-13.5
 20
244.5
 11
-13.5118
 21
244.312
  0
LINE
  8
0
 10
-13.5118
 20
244.312
 11
-13.5471
 21
244.127
  0
LINE
  8
0
 10
-13.5471
 20
244.127
 11
-13.6053
 21
243.948
  0
LINE
  8
0
 10
-13.6053
 20
243.948
 11
-13.6855
 21
243.777
  0
LINE
  8
0
 10
-13.6855
 20
243.777
 11
-13.7865
 21
243.618
  0
LINE
  8
0
 10
-13.7865
 20
243.618
 11
-13.9065
 21
243.473
  0
LINE
  8
0
 10
-13.9065
 20
243.473
 11
-14.0439
 21
243.344
  0
LINE
  8
0
 10
-14.0439
 20
243.344
 11
-14.1963
 21
243.234
  0
LINE
  8
0
 10
-14.1963
 20
243.234
 11
-14.3613
 21
243.143
  0
LINE
  8
0
 10
-14.3613
 20
243.143
 11
-14.5365
 21
243.073
  0
LINE
  8
0
 10
-14.5365
 20
243.073
 11
-14.7189
 21
243.027
  0
LINE
  8
0
 10
-14.7189
 20
243.027
 11
-14.9058
 21
243.003
  0
LINE
  8
0
 10
-14.9058
 20
243.003
 11
-15.0942
 21
243.003
  0
LINE
  8
0
 10
-7.59418
 20
235.503
 11
-7.78107
 21
235.527
  0
LINE
  8
0
 10
-7.78107
 20
235.527
 11
-7.96352
 21
235.573
  0
LINE
  8
0
 10
-7.96352
 20
235.573
 11
-8.13866
 21
235.643
  0
LINE
  8
0
 10
-8.13866
 20
235.643
 11
-8.30373
 21
235.734
  0
LINE
  8
0
 10
-8.30373
 20
235.734
 11
-8.45613
 21
235.844
  0
LINE
  8
0
 10
-8.45613
 20
235.844
 11
-8.59344
 21
235.973
  0
LINE
  8
0
 10
-8.59344
 20
235.973
 11
-8.71352
 21
236.118
  0
LINE
  8
0
 10
-8.71352
 20
236.118
 11
-8.81445
 21
236.277
  0
LINE
  8
0
 10
-8.81445
 20
236.277
 11
-8.89465
 21
236.448
  0
LINE
  8
0
 10
-8.89465
 20
236.448
 11
-8.95287
 21
236.627
  0
LINE
  8
0
 10
-8.95287
 20
236.627
 11
-8.98816
 21
236.812
  0
LINE
  8
0
 10
-8.98816
 20
236.812
 11
-9
 21
237
  0
LINE
  8
0
 10
-9
 20
237
 11
-8.98816
 21
237.188
  0
LINE
  8
0
 10
-8.98816
 20
237.188
 11
-8.95287
 21
237.373
  0
LINE
  8
0
 10
-8.95287
 20
237.373
 11
-8.89465
 21
237.552
  0
LINE
  8
0
 10
-8.89465
 20
237.552
 11
-8.81445
 21
237.723
  0
LINE
  8
0
 10
-8.81445
 20
237.723
 11
-8.71352
 21
237.882
  0
LINE
  8
0
 10
-8.71352
 20
237.882
 11
-8.59344
 21
238.027
  0
LINE
  8
0
 10
-8.59344
 20
238.027
 11
-8.45613
 21
238.156
  0
LINE
  8
0
 10
-8.45613
 20
238.156
 11
-8.30373
 21
238.266
  0
LINE
  8
0
 10
-8.30373
 20
238.266
 11
-8.13866
 21
238.357
  0
LINE
  8
0
 10
-8.13866
 20
238.357
 11
-7.96352
 21
238.427
  0
LINE
  8
0
 10
-7.96352
 20
238.427
 11
-7.78107
 21
238.473
  0
LINE
  8
0
 10
-7.78107
 20
238.473
 11
-7.59418
 21
238.497
  0
LINE
  8
0
 10
-7.59418
 20
238.497
 11
-7.40581
 21
238.497
  0
LINE
  8
0
 10
-7.40581
 20
238.497
 11
-7.21892
 21
238.473
  0
LINE
  8
0
 10
-7.21892
 20
238.473
 11
-7.03647
 21
238.427
  0
LINE
  8
0
 10
-7.03647
 20
238.427
 11
-6.86133
 21
238.357
  0
LINE
  8
0
 10
-6.86133
 20
238.357
 11
-6.69626
 21
238.266
  0
LINE
  8
0
 10
-6.69626
 20
238.266
 11
-6.54385
 21
238.156
  0
LINE
  8
0
 10
-6.54385
 20
238.156
 11
-6.40654
 21
238.027
  0
LINE
  8
0
 10
-6.40654
 20
238.027
 11
-6.28647
 21
237.882
  0
LINE
  8
0
 10
-6.28647
 20
237.882
 11
-6.18553
 21
237.723
  0
LINE
  8
0
 10
-6.18553
 20
237.723
 11
-6.10533
 21
237.552
  0
LINE
  8
0
 10
-6.10533
 20
237.552
 11
-6.04712
 21
237.373
  0
LINE
  8
0
 10
-6.04712
 20
237.373
 11
-6.01183
 21
237.188
  0
LINE
  8
0
 10
-6.01183
 20
237.188
 11
-6
 21
237
  0
LINE
  8
0
 10
-6
 20
237
 11
-6.01183
 21
236.812
  0
LINE
  8
0
 10
-6.01183
 20
236.812
 11
-6.04712
 21
236.627
  0
LINE
  8
0
 10
-6.04712
 20
236.627
 11
-6.10533
 21
236.448
  0
LINE
  8
0
 10
-6.10533
 20
236.448
 11
-6.18553
 21
236.277
  0
LINE
  8
0
 10
-6.18553
 20
236.277
 11
-6.28647
 21
236.118
  0
LINE
  8
0
 10
-6.28647
 20
236.118
 11
-6.40654
 21
235.973
  0
LINE
  8
0
 10
-6.40654
 20
235.973
 11
-6.54385
 21
235.844
  0
LINE
  8
0
 10
-6.54385
 20
235.844
 11
-6.69626
 21
235.734
  0
LINE
  8
0
 10
-6.69626
 20
235.734
 11
-6.86133
 21
235.643
  0
LINE
  8
0
 10
-6.86133
 20
235.643
 11
-7.03647
 21
235.573
  0
LINE
  8
0
 10
-7.03647
 20
235.573
 11
-7.21892
 21
235.527
  0
LINE
  8
0
 10
-7.21892
 20
235.527
 11
-7.40581
 21
235.503
  0
LINE
  8
0
 10
-7.40581
 20
235.503
 11
-7.59418
 21
235.503
  0
LINE
  8
0
 10
7.40581
 20
235.503
 11
7.21892
 21
235.527
  0
LINE
  8
0
 10
7.21892
 20
235.527
 11
7.03647
 21
235.573
  0
LINE
  8
0
 10
7.03647
 20
235.573
 11
6.86133
 21
235.643
  0
LINE
  8
0
 10
6.86133
 20
235.643
 11
6.69626
 21
235.734
  0
LINE
  8
0
 10
6.69626
 20
235.734
 11
6.54385
 21
235.844
  0
LINE
  8
0
 10
6.54385
 20
235.844
 11
6.40654
 21
235.973
  0
LINE
  8
0
 10
6.40654
 20
235.973
 11
6.28647
 21
236.118
  0
LINE
  8
0
 10
6.28647
 20
236.118
 11
6.18553
 21
236.277
  0
LINE
  8
0
 10
6.18553
 20
236.277
 11
6.10533
 21
236.448
  0
LINE
  8
0
 10
6.10533
 20
236.448
 11
6.04712
 21
236.627
  0
LINE
  8
0
 10
6.04712
 20
236.627
 11
6.01183
 21
236.812
  0
LINE
  8
0
 10
6.01183
 20
236.812
 11
6
 21
237
  0
LINE
  8
0
 10
6
 20
237
 11
6.01183
 21
237.188
  0
LINE
  8
0
 10
6.01183
 20
237.188
 11
6.04712
 21
237.373
  0
LINE
  8
0
 10
6.04712
 20
237.373
 11
6.10533
 21
237.552
  0
LINE
  8
0
 10
6.10533
 20
237.552
 11
6.18553
 21
237.723
  0
LINE
  8
0
 10
6.18553
 20
237.723
 11
6.28647
 21
237.882
  0
LINE
  8
0
 10
6.28647
 20
237.882
 11
6.40654
 21
238.027
  0
LINE
  8
0
 10
6.40654
 20
238.027
 11
6.54385
 21
238.156
  0
LINE
  8
0
 10
6.54385
 20
238.156
 11
6.69626
 21
238.266
  0
LINE
  8
0
 10
6.69626
 20
238.266
 11
6.86133
 21
238.357
  0
LINE
  8
0
 10
6.86133
 20
238.357
 11
7.03647
 21
238.427
  0
LINE
  8
0
 10
7.03647
 20
238.427
 11
7.21892
 21
238.473
  0
LINE
  8
0
 10
7.21892
 20
238.473
 11
7.40581
 21
238.497
  0
LINE
  8
0
 10
7.40581
 20
238.497
 11
7.59418
 21
238.497
  0
LINE
  8
0
 10
7.59418
 20
238.497
 11
7.78107
 21
238.473
  0
LINE
  8
0
 10
7.78107
 20
238.473
 11
7.96352
 21
238.427
  0
LINE
  8
0
 10
7.96352
 20
238.427
 11
8.13866
 21
238.357
  0
LINE
  8
0
 10
8.13866
 20
238.357
 11
8.30373
 21
238.266
  0
LINE
  8
0
 10
8.30373
 20
238.266
 11
8.45613
 21
238.156
  0
LINE
  8
0
 10
8.45613
 20
238.156
 11
8.59344
 21
238.027
  0
LINE
  8
0
 10
8.59344
 20
238.027
 11
8.71352
 21
237.882
  0
LINE
  8
0
 10
8.71352
 20
237.882
 11
8.81445
 21
237.723
  0
LINE
  8
0
 10
8.81445
 20
237.723
 11
8.89465
 21
237.552
  0
LINE
  8
0
 10
8.89465
 20
237.552
 11
8.95287
 21
237.373
  0
LINE
  8
0
 10
8.95287
 20
237.373
 11
8.98816
 21
237.188
  0
LINE
  8
0
 10
8.98816
 20
237.188
 11
9
 21
237
  0
LINE
  8
0
 10
9
 20
237
 11
8.98816
 21
236.812
  0
LINE
  8
0
 10
8.98816
 20
236.812
 11
8.95287
 21
236.627
  0
LINE
  8
0
 10
8.95287
 20
236.627
 11
8.89465
 21
236.448
  0
LINE
  8
0
 10
8.89465
 20
236.448
 11
8.81445
 21
236.277
  0
LINE
  8
0
 10
8.81445
 20
236.277
 11
8.71352
 21
236.118
  0
LINE
  8
0
 10
8.71352
 20
236.118
 11
8.59344
 21
235.973
  0
LINE
  8
0
 10
8.59344
 20
235.973
 11
8.45613
 21
235.844
  0
LINE
  8
0
 10
8.45613
 20
235.844
 11
8.30373
 21
235.734
  0
LINE
  8
0
 10
8.30373
 20
235.734
 11
8.13866
 21
235.643
  0
LINE
  8
0
 10
8.13866
 20
235.643
 11
7.96352
 21
235.573
  0
LINE
  8
0
 10
7.96352
 20
235.573
 11
7.78107
 21
235.527
  0
LINE
  8
0
 10
7.78107
 20
235.527
 11
7.59418
 21
235.503
  0
LINE
  8
0
 10
7.59418
 20
235.503
 11
7.40581
 21
235.503
  0
LINE
  8
0
 10
-15.0942
 20
235.503
 11
-15.2811
 21
235.527
  0
LINE
  8
0
 10
-15.2811
 20
235.527
 11
-15.4635
 21
235.573
  0
LINE
  8
0
 10
-15.4635
 20
235.573
 11
-15.6387
 21
235.643
  0
LINE
  8
0
 10
-15.6387
 20
235.643
 11
-15.8037
 21
235.734
  0
LINE
  8
0
 10
-15.8037
 20
235.734
 11
-15.9561
 21
235.844
  0
LINE
  8
0
 10
-15.9561
 20
235.844
 11
-16.0934
 21
235.973
  0
LINE
  8
0
 10
-16.0934
 20
235.973
 11
-16.2135
 21
236.118
  0
LINE
  8
0
 10
-16.2135
 20
236.118
 11
-16.3145
 21
236.277
  0
LINE
  8
0
 10
-16.3145
 20
236.277
 11
-16.3947
 21
236.448
  0
LINE
  8
0
 10
-16.3947
 20
236.448
 11
-16.4529
 21
236.627
  0
LINE
  8
0
 10
-16.4529
 20
236.627
 11
-16.4882
 21
236.812
  0
LINE
  8
0
 10
-16.4882
 20
236.812
 11
-16.5
 21
237
  0
LINE
  8
0
 10
-16.5
 20
237
 11
-16.4882
 21
237.188
  0
LINE
  8
0
 10
-16.4882
 20
237.188
 11
-16.4529
 21
237.373
  0
LINE
  8
0
 10
-16.4529
 20
237.373
 11
-16.3947
 21
237.552
  0
LINE
  8
0
 10
-16.3947
 20
237.552
 11
-16.3145
 21
237.723
  0
LINE
  8
0
 10
-16.3145
 20
237.723
 11
-16.2135
 21
237.882
  0
LINE
  8
0
 10
-16.2135
 20
237.882
 11
-16.0934
 21
238.027
  0
LINE
  8
0
 10
-16.0934
 20
238.027
 11
-15.9561
 21
238.156
  0
LINE
  8
0
 10
-15.9561
 20
238.156
 11
-15.8037
 21
238.266
  0
LINE
  8
0
 10
-15.8037
 20
238.266
 11
-15.6387
 21
238.357
  0
LINE
  8
0
 10
-15.6387
 20
238.357
 11
-15.4635
 21
238.427
  0
LINE
  8
0
 10
-15.4635
 20
238.427
 11
-15.2811
 21
238.473
  0
LINE
  8
0
 10
-15.2811
 20
238.473
 11
-15.0942
 21
238.497
  0
LINE
  8
0
 10
-15.0942
 20
238.497
 11
-14.9058
 21
238.497
  0
LINE
  8
0
 10
-14.9058
 20
238.497
 11
-14.7189
 21
238.473
  0
LINE
  8
0
 10
-14.7189
 20
238.473
 11
-14.5365
 21
238.427
  0
LINE
  8
0
 10
-14.5365
 20
238.427
 11
-14.3613
 21
238.357
  0
LINE
  8
0
 10
-14.3613
 20
238.357
 11
-14.1963
 21
238.266
  0
LINE
  8
0
 10
-14.1963
 20
238.266
 11
-14.0439
 21
238.156
  0
LINE
  8
0
 10
-14.0439
 20
238.156
 11
-13.9065
 21
238.027
  0
LINE
  8
0
 10
-13.9065
 20
238.027
 11
-13.7865
 21
237.882
  0
LINE
  8
0
 10
-13.7865
 20
237.882
 11
-13.6855
 21
237.723
  0
LINE
  8
0
 10
-13.6855
 20
237.723
 11
-13.6053
 21
237.552
  0
LINE
  8
0
 10
-13.6053
 20
237.552
 11
-13.5471
 21
237.373
  0
LINE
  8
0
 10
-13.5471
 20
237.373
 11
-13.5118
 21
237.188
  0
LINE
  8
0
 10
-13.5118
 20
237.188
 11
-13.5
 21
237
  0
LINE
  8
0
 10
-13.5
 20
237
 11
-13.5118
 21
236.812
  0
LINE
  8
0
 10
-13.5118
 20
236.812
 11
-13.5471
 21
236.627
  0
LINE
  8
0
 10
-13.5471
 20
236.627
 11
-13.6053
 21
236.448
  0
LINE
  8
0
 10
-13.6053
 20
236.448
 11
-13.6855
 21
236.277
  0
LINE
  8
0
 10
-13.6855
 20
236.277
 11
-13.7865
 21
236.118
  0
LINE
  8
0
 10
-13.7865
 20
236.118
 11
-13.9065
 21
235.973
  0
LINE
  8
0
 10
-13.9065
 20
235.973
 11
-14.0439
 21
235.844
  0
LINE
  8
0
 10
-14.0439
 20
235.844
 11
-14.1963
 21
235.734
  0
LINE
  8
0
 10
-14.1963
 20
235.734
 11
-14.3613
 21
235.643
  0
LINE
  8
0
 10
-14.3613
 20
235.643
 11
-14.5365
 21
235.573
  0
LINE
  8
0
 10
-14.5365
 20
235.573
 11
-14.7189
 21
235.527
  0
LINE
  8
0
 10
-14.7189
 20
235.527
 11
-14.9058
 21
235.503
  0
LINE
  8
0
 10
-14.9058
 20
235.503
 11
-15.0942
 21
235.503
  0
LINE
  8
0
 10
-0.0941772
 20
235.503
 11
-0.281067
 21
235.527
  0
LINE
  8
0
 10
-0.281067
 20
235.527
 11
-0.463516
 21
235.573
  0
LINE
  8
0
 10
-0.463516
 20
235.573
 11
-0.638657
 21
235.643
  0
LINE
  8
0
 10
-0.638657
 20
235.643
 11
-0.803726
 21
235.734
  0
LINE
  8
0
 10
-0.803726
 20
235.734
 11
-0.956131
 21
235.844
  0
LINE
  8
0
 10
-0.956131
 20
235.844
 11
-1.09344
 21
235.973
  0
LINE
  8
0
 10
-1.09344
 20
235.973
 11
-1.21352
 21
236.118
  0
LINE
  8
0
 10
-1.21352
 20
236.118
 11
-1.31445
 21
236.277
  0
LINE
  8
0
 10
-1.31445
 20
236.277
 11
-1.39465
 21
236.448
  0
LINE
  8
0
 10
-1.39465
 20
236.448
 11
-1.45287
 21
236.627
  0
LINE
  8
0
 10
-1.45287
 20
236.627
 11
-1.48816
 21
236.812
  0
LINE
  8
0
 10
-1.48816
 20
236.812
 11
-1.5
 21
237
  0
LINE
  8
0
 10
-1.5
 20
237
 11
-1.48816
 21
237.188
  0
LINE
  8
0
 10
-1.48816
 20
237.188
 11
-1.45287
 21
237.373
  0
LINE
  8
0
 10
-1.45287
 20
237.373
 11
-1.39465
 21
237.552
  0
LINE
  8
0
 10
-1.39465
 20
237.552
 11
-1.31445
 21
237.723
  0
LINE
  8
0
 10
-1.31445
 20
237.723
 11
-1.21352
 21
237.882
  0
LINE
  8
0
 10
-1.21352
 20
237.882
 11
-1.09344
 21
238.027
  0
LINE
  8
0
 10
-1.09344
 20
238.027
 11
-0.956131
 21
238.156
  0
LINE
  8
0
 10
-0.956131
 20
238.156
 11
-0.803726
 21
238.266
  0
LINE
  8
0
 10
-0.803726
 20
238.266
 11
-0.638657
 21
238.357
  0
LINE
  8
0
 10
-0.638657
 20
238.357
 11
-0.463516
 21
238.427
  0
LINE
  8
0
 10
-0.463516
 20
238.427
 11
-0.281067
 21
238.473
  0
LINE
  8
0
 10
-0.281067
 20
238.473
 11
-0.0941772
 21
238.497
  0
LINE
  8
0
 10
-0.0941772
 20
238.497
 11
0.0941772
 21
238.497
  0
LINE
  8
0
 10
0.0941772
 20
238.497
 11
0.281067
 21
238.473
  0
LINE
  8
0
 10
0.281067
 20
238.473
 11
0.463516
 21
238.427
  0
LINE
  8
0
 10
0.463516
 20
238.427
 11
0.638657
 21
238.357
  0
LINE
  8
0
 10
0.638657
 20
238.357
 11
0.803726
 21
238.266
  0
LINE
  8
0
 10
0.803726
 20
238.266
 11
0.956131
 21
238.156
  0
LINE
  8
0
 10
0.956131
 20
238.156
 11
1.09344
 21
238.027
  0
LINE
  8
0
 10
1.09344
 20
238.027
 11
1.21352
 21
237.882
  0
LINE
  8
0
 10
1.21352
 20
237.882
 11
1.31445
 21
237.723
  0
LINE
  8
0
 10
1.31445
 20
237.723
 11
1.39465
 21
237.552
  0
LINE
  8
0
 10
1.39465
 20
237.552
 11
1.45287
 21
237.373
  0
LINE
  8
0
 10
1.45287
 20
237.373
 11
1.48816
 21
237.188
  0
LINE
  8
0
 10
1.48816
 20
237.188
 11
1.5
 21
237
  0
LINE
  8
0
 10
1.5
 20
237
 11
1.48816
 21
236.812
  0
LINE
  8
0
 10
1.48816
 20
236.812
 11
1.45287
 21
236.627
  0
LINE
  8
0
 10
1.45287
 20
236.627
 11
1.39465
 21
236.448
  0
LINE
  8
0
 10
1.39465
 20
236.448
 11
1.31445
 21
236.277
  0
LINE
  8
0
 10
1.31445
 20
236.277
 11
1.21352
 21
236.118
  0
LINE
  8
0
 10
1.21352
 20
236.118
 11
1.09344
 21
235.973
  0
LINE
  8
0
 10
1.09344
 20
235.973
 11
0.956131
 21
235.844
  0
LINE
  8
0
 10
0.956131
 20
235.844
 11
0.803726
 21
235.734
  0
LINE
  8
0
 10
0.803726
 20
235.734
 11
0.638657
 21
235.643
  0
LINE
  8
0
 10
0.638657
 20
235.643
 11
0.463516
 21
235.573
  0
LINE
  8
0
 10
0.463516
 20
235.573
 11
0.281067
 21
235.527
  0
LINE
  8
0
 10
0.281067
 20
235.527
 11
0.0941772
 21
235.503
  0
LINE
  8
0
 10
0.0941772
 20
235.503
 11
-0.0941772
 21
235.503
  0
LINE
  8
0
 10
14.9058
 20
235.503
 11
14.7189
 21
235.527
  0
LINE
  8
0
 10
14.7189
 20
235.527
 11
14.5365
 21
235.573
  0
LINE
  8
0
 10
14.5365
 20
235.573
 11
14.3613
 21
235.643
  0
LINE
  8
0
 10
14.3613
 20
235.643
 11
14.1963
 21
235.734
  0
LINE
  8
0
 10
14.1963
 20
235.734
 11
14.0439
 21
235.844
  0
LINE
  8
0
 10
14.0439
 20
235.844
 11
13.9065
 21
235.973
  0
LINE
  8
0
 10
13.9065
 20
235.973
 11
13.7865
 21
236.118
  0
LINE
  8
0
 10
13.7865
 20
236.118
 11
13.6855
 21
236.277
  0
LINE
  8
0
 10
13.6855
 20
236.277
 11
13.6053
 21
236.448
  0
LINE
  8
0
 10
13.6053
 20
236.448
 11
13.5471
 21
236.627
  0
LINE
  8
0
 10
13.5471
 20
236.627
 11
13.5118
 21
236.812
  0
LINE
  8
0
 10
13.5118
 20
236.812
 11
13.5
 21
237
  0
LINE
  8
0
 10
13.5
 20
237
 11
13.5118
 21
237.188
  0
LINE
  8
0
 10
13.5118
 20
237.188
 11
13.5471
 21
237.373
  0
LINE
  8
0
 10
13.5471
 20
237.373
 11
13.6053
 21
237.552
  0
LINE
  8
0
 10
13.6053
 20
237.552
 11
13.6855
 21
237.723
  0
LINE
  8
0
 10
13.6855
 20
237.723
 11
13.7865
 21
237.882
  0
LINE
  8
0
 10
13.7865
 20
237.882
 11
13.9065
 21
238.027
  0
LINE
  8
0
 10
13.9065
 20
238.027
 11
14.0439
 21
238.156
  0
LINE
  8
0
 10
14.0439
 20
238.156
 11
14.1963
 21
238.266
  0
LINE
  8
0
 10
14.1963
 20
238.266
 11
14.3613
 21
238.357
  0
LINE
  8
0
 10
14.3613
 20
238.357
 11
14.5365
 21
238.427
  0
LINE
  8
0
 10
14.5365
 20
238.427
 11
14.7189
 21
238.473
  0
LINE
  8
0
 10
14.7189
 20
238.473
 11
14.9058
 21
238.497
  0
LINE
  8
0
 10
14.9058
 20
238.497
 11
15.0942
 21
238.497
  0
LINE
  8
0
 10
15.0942
 20
238.497
 11
15.2811
 21
238.473
  0
LINE
  8
0
 10
15.2811
 20
238.473
 11
15.4635
 21
238.427
  0
LINE
  8
0
 10
15.4635
 20
238.427
 11
15.6387
 21
238.357
  0
LINE
  8
0
 10
15.6387
 20
238.357
 11
15.8037
 21
238.266
  0
LINE
  8
0
 10
15.8037
 20
238.266
 11
15.9561
 21
238.156
  0
LINE
  8
0
 10
15.9561
 20
238.156
 11
16.0934
 21
238.027
  0
LINE
  8
0
 10
16.0934
 20
238.027
 11
16.2135
 21
237.882
  0
LINE
  8
0
 10
16.2135
 20
237.882
 11
16.3145
 21
237.723
  0
LINE
  8
0
 10
16.3145
 20
237.723
 11
16.3947
 21
237.552
  0
LINE
  8
0
 10
16.3947
 20
237.552
 11
16.4529
 21
237.373
  0
LINE
  8
0
 10
16.4529
 20
237.373
 11
16.4882
 21
237.188
  0
LINE
  8
0
 10
16.4882
 20
237.188
 11
16.5
 21
237
  0
LINE
  8
0
 10
16.5
 20
237
 11
16.4882
 21
236.812
  0
LINE
  8
0
 10
16.4882
 20
236.812
 11
16.4529
 21
236.627
  0
LINE
  8
0
 10
16.4529
 20
236.627
 11
16.3947
 21
236.448
  0
LINE
  8
0
 10
16.3947
 20
236.448
 11
16.3145
 21
236.277
  0
LINE
  8
0
 10
16.3145
 20
236.277
 11
16.2135
 21
236.118
  0
LINE
  8
0
 10
16.2135
 20
236.118
 11
16.0934
 21
235.973
  0
LINE
  8
0
 10
16.0934
 20
235.973
 11
15.9561
 21
235.844
  0
LINE
  8
0
 10
15.9561
 20
235.844
 11
15.8037
 21
235.734
  0
LINE
  8
0
 10
15.8037
 20
235.734
 11
15.6387
 21
235.643
  0
LINE
  8
0
 10
15.6387
 20
235.643
 11
15.4635
 21
235.573
  0
LINE
  8
0
 10
15.4635
 20
235.573
 11
15.2811
 21
235.527
  0
LINE
  8
0
 10
15.2811
 20
235.527
 11
15.0942
 21
235.503
  0
LINE
  8
0
 10
15.0942
 20
235.503
 11
14.9058
 21
235.503
  0
LINE
  8
0
 10
16.4684
 20
149.544
 11
16.7725
 21
149.622
  0
LINE
  8
0
 10
16.7725
 20
149.622
 11
17.0644
 21
149.738
  0
LINE
  8
0
 10
17.0644
 20
149.738
 11
17.3396
 21
149.889
  0
LINE
  8
0
 10
17.3396
 20
149.889
 11
17.5936
 21
150.074
  0
LINE
  8
0
 10
17.5936
 20
150.074
 11
17.8224
 21
150.289
  0
LINE
  8
0
 10
17.8224
 20
150.289
 11
18.0225
 21
150.531
  0
LINE
  8
0
 10
18.0225
 20
150.531
 11
18.1908
 21
150.796
  0
LINE
  8
0
 10
18.1908
 20
150.796
 11
18.3244
 21
151.08
  0
LINE
  8
0
 10
18.3244
 20
151.08
 11
18.4214
 21
151.378
  0
LINE
  8
0
 10
18.4214
 20
151.378
 11
18.4803
 21
151.687
  0
LINE
  8
0
 10
18.4803
 20
151.687
 11
18.5
 21
152
  0
LINE
  8
0
 10
18.5
 20
152
 11
18.5
 21
184
  0
LINE
  8
0
 10
18.5
 20
184
 11
18.4803
 21
184.313
  0
LINE
  8
0
 10
18.4803
 20
184.313
 11
18.4214
 21
184.622
  0
LINE
  8
0
 10
18.4214
 20
184.622
 11
18.3244
 21
184.92
  0
LINE
  8
0
 10
18.3244
 20
184.92
 11
18.1908
 21
185.204
  0
LINE
  8
0
 10
18.1908
 20
185.204
 11
18.0225
 21
185.469
  0
LINE
  8
0
 10
18.0225
 20
185.469
 11
17.8224
 21
185.711
  0
LINE
  8
0
 10
17.8224
 20
185.711
 11
17.5936
 21
185.926
  0
LINE
  8
0
 10
17.5936
 20
185.926
 11
17.3396
 21
186.111
  0
LINE
  8
0
 10
17.3396
 20
186.111
 11
17.0644
 21
186.262
  0
LINE
  8
0
 10
17.0644
 20
186.262
 11
16.7725
 21
186.378
  0
LINE
  8
0
 10
16.7725
 20
186.378
 11
16.4684
 21
186.456
  0
LINE
  8
0
 10
16.4684
 20
186.456
 11
16.157
 21
186.495
  0
LINE
  8
0
 10
16.157
 20
186.495
 11
-16.157
 21
186.495
  0
LINE
  8
0
 10
-16.157
 20
186.495
 11
-16.4684
 21
186.456
  0
LINE
  8
0
 10
-16.4684
 20
186.456
 11
-16.7725
 21
186.378
  0
LINE
  8
0
 10
-16.7725
 20
186.378
 11
-17.0644
 21
186.262
  0
LINE
  8
0
 10
-17.0644
 20
186.262
 11
-17.3396
 21
186.111
  0
LINE
  8
0
 10
-17.3396
 20
186.111
 11
-17.5936
 21
185.926
  0
LINE
  8
0
 10
-17.5936
 20
185.926
 11
-17.8224
 21
185.711
  0
LINE
  8
0
 10
-17.8224
 20
185.711
 11
-18.0225
 21
185.469
  0
LINE
  8
0
 10
-18.0225
 20
185.469
 11
-18.1908
 21
185.204
  0
LINE
  8
0
 10
-18.1908
 20
185.204
 11
-18.3244
 21
184.92
  0
LINE
  8
0
 10
-18.3244
 20
184.92
 11
-18.4214
 21
184.622
  0
LINE
  8
0
 10
-18.4214
 20
184.622
 11
-18.4803
 21
184.313
  0
LINE
  8
0
 10
-18.4803
 20
184.313
 11
-18.5
 21
184
  0
LINE
  8
0
 10
-18.5
 20
184
 11
-18.5
 21
152
  0
LINE
  8
0
 10
-18.5
 20
152
 11
-18.4803
 21
151.687
  0
LINE
  8
0
 10
-18.4803
 20
151.687
 11
-18.4214
 21
151.378
  0
LINE
  8
0
 10
-18.4214
 20
151.378
 11
-18.3244
 21
151.08
  0
LINE
  8
0
 10
-18.3244
 20
151.08
 11
-18.1908
 21
150.796
  0
LINE
  8
0
 10
-18.1908
 20
150.796
 11
-18.0225
 21
150.531
  0
LINE
  8
0
 10
-18.0225
 20
150.531
 11
-17.8224
 21
150.289
  0
LINE
  8
0
 10
-17.8224
 20
150.289
 11
-17.5936
 21
150.074
  0
LINE
  8
0
 10
-17.5936
 20
150.074
 11
-17.3396
 21
149.889
  0
LINE
  8
0
 10
-17.3396
 20
149.889
 11
-17.0644
 21
149.738
  0
LINE
  8
0
 10
-17.0644
 20
149.738
 11
-16.7725
 21
149.622
  0
LINE
  8
0
 10
-16.7725
 20
149.622
 11
-16.4684
 21
149.544
  0
LINE
  8
0
 10
-16.4684
 20
149.544
 11
-16.157
 21
149.505
  0
LINE
  8
0
 10
-16.157
 20
149.505
 11
16.157
 21
149.505
  0
LINE
  8
0
 10
16.157
 20
149.505
 11
16.4684
 21
149.544
  0
LINE
  8
0
 10
-7.59418
 20
181.503
 11
-7.78107
 21
181.527
  0
LINE
  8
0
 10
-7.78107
 20
181.527
 11
-7.96352
 21
181.573
  0
LINE
  8
0
 10
-7.96352
 20
181.573
 11
-8.13866
 21
181.643
  0
LINE
  8
0
 10
-8.13866
 20
181.643
 11
-8.30373
 21
181.734
  0
LINE
  8
0
 10
-8.30373
 20
181.734
 11
-8.45613
 21
181.844
  0
LINE
  8
0
 10
-8.45613
 20
181.844
 11
-8.59344
 21
181.973
  0
LINE
  8
0
 10
-8.59344
 20
181.973
 11
-8.71352
 21
182.118
  0
LINE
  8
0
 10
-8.71352
 20
182.118
 11
-8.81445
 21
182.277
  0
LINE
  8
0
 10
-8.81445
 20
182.277
 11
-8.89465
 21
182.448
  0
LINE
  8
0
 10
-8.89465
 20
182.448
 11
-8.95287
 21
182.627
  0
LINE
  8
0
 10
-8.95287
 20
182.627
 11
-8.98816
 21
182.812
  0
LINE
  8
0
 10
-8.98816
 20
182.812
 11
-9
 21
183
  0
LINE
  8
0
 10
-9
 20
183
 11
-8.98816
 21
183.188
  0
LINE
  8
0
 10
-8.98816
 20
183.188
 11
-8.95287
 21
183.373
  0
LINE
  8
0
 10
-8.95287
 20
183.373
 11
-8.89465
 21
183.552
  0
LINE
  8
0
 10
-8.89465
 20
183.552
 11
-8.81445
 21
183.723
  0
LINE
  8
0
 10
-8.81445
 20
183.723
 11
-8.71352
 21
183.882
  0
LINE
  8
0
 10
-8.71352
 20
183.882
 11
-8.59344
 21
184.027
  0
LINE
  8
0
 10
-8.59344
 20
184.027
 11
-8.45613
 21
184.156
  0
LINE
  8
0
 10
-8.45613
 20
184.156
 11
-8.30373
 21
184.266
  0
LINE
  8
0
 10
-8.30373
 20
184.266
 11
-8.13866
 21
184.357
  0
LINE
  8
0
 10
-8.13866
 20
184.357
 11
-7.96352
 21
184.427
  0
LINE
  8
0
 10
-7.96352
 20
184.427
 11
-7.78107
 21
184.473
  0
LINE
  8
0
 10
-7.78107
 20
184.473
 11
-7.59418
 21
184.497
  0
LINE
  8
0
 10
-7.59418
 20
184.497
 11
-7.40581
 21
184.497
  0
LINE
  8
0
 10
-7.40581
 20
184.497
 11
-7.21892
 21
184.473
  0
LINE
  8
0
 10
-7.21892
 20
184.473
 11
-7.03647
 21
184.427
  0
LINE
  8
0
 10
-7.03647
 20
184.427
 11
-6.86133
 21
184.357
  0
LINE
  8
0
 10
-6.86133
 20
184.357
 11
-6.69626
 21
184.266
  0
LINE
  8
0
 10
-6.69626
 20
184.266
 11
-6.54385
 21
184.156
  0
LINE
  8
0
 10
-6.54385
 20
184.156
 11
-6.40654
 21
184.027
  0
LINE
  8
0
 10
-6.40654
 20
184.027
 11
-6.28647
 21
183.882
  0
LINE
  8
0
 10
-6.28647
 20
183.882
 11
-6.18553
 21
183.723
  0
LINE
  8
0
 10
-6.18553
 20
183.723
 11
-6.10533
 21
183.552
  0
LINE
  8
0
 10
-6.10533
 20
183.552
 11
-6.04712
 21
183.373
  0
LINE
  8
0
 10
-6.04712
 20
183.373
 11
-6.01183
 21
183.188
  0
LINE
  8
0
 10
-6.01183
 20
183.188
 11
-6
 21
183
  0
LINE
  8
0
 10
-6
 20
183
 11
-6.01183
 21
182.812
  0
LINE
  8
0
 10
-6.01183
 20
182.812
 11
-6.04712
 21
182.627
  0
LINE
  8
0
 10
-6.04712
 20
182.627
 11
-6.10533
 21
182.448
  0
LINE
  8
0
 10
-6.10533
 20
182.448
 11
-6.18553
 21
182.277
  0
LINE
  8
0
 10
-6.18553
 20
182.277
 11
-6.28647
 21
182.118
  0
LINE
  8
0
 10
-6.28647
 20
182.118
 11
-6.40654
 21
181.973
  0
LINE
  8
0
 10
-6.40654
 20
181.973
 11
-6.54385
 21
181.844
  0
LINE
  8
0
 10
-6.54385
 20
181.844
 11
-6.69626
 21
181.734
  0
LINE
  8
0
 10
-6.69626
 20
181.734
 11
-6.86133
 21
181.643
  0
LINE
  8
0
 10
-6.86133
 20
181.643
 11
-7.03647
 21
181.573
  0
LINE
  8
0
 10
-7.03647
 20
181.573
 11
-7.21892
 21
181.527
  0
LINE
  8
0
 10
-7.21892
 20
181.527
 11
-7.40581
 21
181.503
  0
LINE
  8
0
 10
-7.40581
 20
181.503
 11
-7.59418
 21
181.503
  0
LINE
  8
0
 10
-0.0941772
 20
181.503
 11
-0.281067
 21
181.527
  0
LINE
  8
0
 10
-0.281067
 20
181.527
 11
-0.463516
 21
181.573
  0
LINE
  8
0
 10
-0.463516
 20
181.573
 11
-0.638657
 21
181.643
  0
LINE
  8
0
 10
-0.638657
 20
181.643
 11
-0.803726
 21
181.734
  0
LINE
  8
0
 10
-0.803726
 20
181.734
 11
-0.956131
 21
181.844
  0
LINE
  8
0
 10
-0.956131
 20
181.844
 11
-1.09344
 21
181.973
  0
LINE
  8
0
 10
-1.09344
 20
181.973
 11
-1.21352
 21
182.118
  0
LINE
  8
0
 10
-1.21352
 20
182.118
 11
-1.31445
 21
182.277
  0
LINE
  8
0
 10
-1.31445
 20
182.277
 11
-1.39465
 21
182.448
  0
LINE
  8
0
 10
-1.39465
 20
182.448
 11
-1.45287
 21
182.627
  0
LINE
  8
0
 10
-1.45287
 20
182.627
 11
-1.48816
 21
182.812
  0
LINE
  8
0
 10
-1.48816
 20
182.812
 11
-1.5
 21
183
  0
LINE
  8
0
 10
-1.5
 20
183
 11
-1.48816
 21
183.188
  0
LINE
  8
0
 10
-1.48816
 20
183.188
 11
-1.45287
 21
183.373
  0
LINE
  8
0
 10
-1.45287
 20
183.373
 11
-1.39465
 21
183.552
  0
LINE
  8
0
 10
-1.39465
 20
183.552
 11
-1.31445
 21
183.723
  0
LINE
  8
0
 10
-1.31445
 20
183.723
 11
-1.21352
 21
183.882
  0
LINE
  8
0
 10
-1.21352
 20
183.882
 11
-1.09344
 21
184.027
  0
LINE
  8
0
 10
-1.09344
 20
184.027
 11
-0.956131
 21
184.156
  0
LINE
  8
0
 10
-0.956131
 20
184.156
 11
-0.803726
 21
184.266
  0
LINE
  8
0
 10
-0.803726
 20
184.266
 11
-0.638657
 21
184.357
  0
LINE
  8
0
 10
-0.638657
 20
184.357
 11
-0.463516
 21
184.427
  0
LINE
  8
0
 10
-0.463516
 20
184.427
 11
-0.281067
 21
184.473
  0
LINE
  8
0
 10
-0.281067
 20
184.473
 11
-0.0941772
 21
184.497
  0
LINE
  8
0
 10
-0.0941772
 20
184.497
 11
0.0941772
 21
184.497
  0
LINE
  8
0
 10
0.0941772
 20
184.497
 11
0.281067
 21
184.473
  0
LINE
  8
0
 10
0.281067
 20
184.473
 11
0.463516
 21
184.427
  0
LINE
  8
0
 10
0.463516
 20
184.427
 11
0.638657
 21
184.357
  0
LINE
  8
0
 10
0.638657
 20
184.357
 11
0.803726
 21
184.266
  0
LINE
  8
0
 10
0.803726
 20
184.266
 11
0.956131
 21
184.156
  0
LINE
  8
0
 10
0.956131
 20
184.156
 11
1.09344
 21
184.027
  0
LINE
  8
0
 10
1.09344
 20
184.027
 11
1.21352
 21
183.882
  0
LINE
  8
0
 10
1.21352
 20
183.882
 11
1.31445
 21
183.723
  0
LINE
  8
0
 10
1.31445
 20
183.723
 11
1.39465
 21
183.552
  0
LINE
  8
0
 10
1.39465
 20
183.552
 11
1.45287
 21
183.373
  0
LINE
  8
0
 10
1.45287
 20
183.373
 11
1.48816
 21
183.188
  0
LINE
  8
0
 10
1.48816
 20
183.188
 11
1.5
 21
183
  0
LINE
  8
0
 10
1.5
 20
183
 11
1.48816
 21
182.812
  0
LINE
  8
0
 10
1.48816
 20
182.812
 11
1.45287
 21
182.627
  0
LINE
  8
0
 10
1.45287
 20
182.627
 11
1.39465
 21
182.448
  0
LINE
  8
0
 10
1.39465
 20
182.448
 11
1.31445
 21
182.277
  0
LINE
  8
0
 10
1.31445
 20
182.277
 11
1.21352
 21
182.118
  0
LINE
  8
0
 10
1.21352
 20
182.118
 11
1.09344
 21
181.973
  0
LINE
  8
0
 10
1.09344
 20
181.973
 11
0.956131
 21
181.844
  0
LINE
  8
0
 10
0.956131
 20
181.844
 11
0.803726
 21
181.734
  0
LINE
  8
0
 10
0.803726
 20
181.734
 11
0.638657
 21
181.643
  0
LINE
  8
0
 10
0.638657
 20
181.643
 11
0.463516
 21
181.573
  0
LINE
  8
0
 10
0.463516
 20
181.573
 11
0.281067
 21
181.527
  0
LINE
  8
0
 10
0.281067
 20
181.527
 11
0.0941772
 21
181.503
  0
LINE
  8
0
 10
0.0941772
 20
181.503
 11
-0.0941772
 21
181.503
  0
LINE
  8
0
 10
14.9058
 20
181.503
 11
14.7189
 21
181.527
  0
LINE
  8
0
 10
14.7189
 20
181.527
 11
14.5365
 21
181.573
  0
LINE
  8
0
 10
14.5365
 20
181.573
 11
14.3613
 21
181.643
  0
LINE
  8
0
 10
14.3613
 20
181.643
 11
14.1963
 21
181.734
  0
LINE
  8
0
 10
14.1963
 20
181.734
 11
14.0439
 21
181.844
  0
LINE
  8
0
 10
14.0439
 20
181.844
 11
13.9065
 21
181.973
  0
LINE
  8
0
 10
13.9065
 20
181.973
 11
13.7865
 21
182.118
  0
LINE
  8
0
 10
13.7865
 20
182.118
 11
13.6855
 21
182.277
  0
LINE
  8
0
 10
13.6855
 20
182.277
 11
13.6053
 21
182.448
  0
LINE
  8
0
 10
13.6053
 20
182.448
 11
13.5471
 21
182.627
  0
LINE
  8
0
 10
13.5471
 20
182.627
 11
13.5118
 21
182.812
  0
LINE
  8
0
 10
13.5118
 20
182.812
 11
13.5
 21
183
  0
LINE
  8
0
 10
13.5
 20
183
 11
13.5118
 21
183.188
  0
LINE
  8
0
 10
13.5118
 20
183.188
 11
13.5471
 21
183.373
  0
LINE
  8
0
 10
13.5471
 20
183.373
 11
13.6053
 21
183.552
  0
LINE
  8
0
 10
13.6053
 20
183.552
 11
13.6855
 21
183.723
  0
LINE
  8
0
 10
13.6855
 20
183.723
 11
13.7865
 21
183.882
  0
LINE
  8
0
 10
13.7865
 20
183.882
 11
13.9065
 21
184.027
  0
LINE
  8
0
 10
13.9065
 20
184.027
 11
14.0439
 21
184.156
  0
LINE
  8
0
 10
14.0439
 20
184.156
 11
14.1963
 21
184.266
  0
LINE
  8
0
 10
14.1963
 20
184.266
 11
14.3613
 21
184.357
  0
LINE
  8
0
 10
14.3613
 20
184.357
 11
14.5365
 21
184.427
  0
LINE
  8
0
 10
14.5365
 20
184.427
 11
14.7189
 21
184.473
  0
LINE
  8
0
 10
14.7189
 20
184.473
 11
14.9058
 21
184.497
  0
LINE
  8
0
 10
14.9058
 20
184.497
 11
15.0942
 21
184.497
  0
LINE
  8
0
 10
15.0942
 20
184.497
 11
15.2811
 21
184.473
  0
LINE
  8
0
 10
15.2811
 20
184.473
 11
15.4635
 21
184.427
  0
LINE
  8
0
 10
15.4635
 20
184.427
 11
15.6387
 21
184.357
  0
LINE
  8
0
 10
15.6387
 20
184.357
 11
15.8037
 21
184.266
  0
LINE
  8
0
 10
15.8037
 20
184.266
 11
15.9561
 21
184.156
  0
LINE
  8
0
 10
15.9561
 20
184.156
 11
16.0934
 21
184.027
  0
LINE
  8
0
 10
16.0934
 20
184.027
 11
16.2135
 21
183.882
  0
LINE
  8
0
 10
16.2135
 20
183.882
 11
16.3145
 21
183.723
  0
LINE
  8
0
 10
16.3145
 20
183.723
 11
16.3947
 21
183.552
  0
LINE
  8
0
 10
16.3947
 20
183.552
 11
16.4529
 21
183.373
  0
LINE
  8
0
 10
16.4529
 20
183.373
 11
16.4882
 21
183.188
  0
LINE
  8
0
 10
16.4882
 20
183.188
 11
16.5
 21
183
  0
LINE
  8
0
 10
16.5
 20
183
 11
16.4882
 21
182.812
  0
LINE
  8
0
 10
16.4882
 20
182.812
 11
16.4529
 21
182.627
  0
LINE
  8
0
 10
16.4529
 20
182.627
 11
16.3947
 21
182.448
  0
LINE
  8
0
 10
16.3947
 20
182.448
 11
16.3145
 21
182.277
  0
LINE
  8
0
 10
16.3145
 20
182.277
 11
16.2135
 21
182.118
  0
LINE
  8
0
 10
16.2135
 20
182.118
 11
16.0934
 21
181.973
  0
LINE
  8
0
 10
16.0934
 20
181.973
 11
15.9561
 21
181.844
  0
LINE
  8
0
 10
15.9561
 20
181.844
 11
15.8037
 21
181.734
  0
LINE
  8
0
 10
15.8037
 20
181.734
 11
15.6387
 21
181.643
  0
LINE
  8
0
 10
15.6387
 20
181.643
 11
15.4635
 21
181.573
  0
LINE
  8
0
 10
15.4635
 20
181.573
 11
15.2811
 21
181.527
  0
LINE
  8
0
 10
15.2811
 20
181.527
 11
15.0942
 21
181.503
  0
LINE
  8
0
 10
15.0942
 20
181.503
 11
14.9058
 21
181.503
  0
LINE
  8
0
 10
7.40581
 20
181.503
 11
7.21892
 21
181.527
  0
LINE
  8
0
 10
7.21892
 20
181.527
 11
7.03647
 21
181.573
  0
LINE
  8
0
 10
7.03647
 20
181.573
 11
6.86133
 21
181.643
  0
LINE
  8
0
 10
6.86133
 20
181.643
 11
6.69626
 21
181.734
  0
LINE
  8
0
 10
6.69626
 20
181.734
 11
6.54385
 21
181.844
  0
LINE
  8
0
 10
6.54385
 20
181.844
 11
6.40654
 21
181.973
  0
LINE
  8
0
 10
6.40654
 20
181.973
 11
6.28647
 21
182.118
  0
LINE
  8
0
 10
6.28647
 20
182.118
 11
6.18553
 21
182.277
  0
LINE
  8
0
 10
6.18553
 20
182.277
 11
6.10533
 21
182.448
  0
LINE
  8
0
 10
6.10533
 20
182.448
 11
6.04712
 21
182.627
  0
LINE
  8
0
 10
6.04712
 20
182.627
 11
6.01183
 21
182.812
  0
LINE
  8
0
 10
6.01183
 20
182.812
 11
6
 21
183
  0
LINE
  8
0
 10
6
 20
183
 11
6.01183
 21
183.188
  0
LINE
  8
0
 10
6.01183
 20
183.188
 11
6.04712
 21
183.373
  0
LINE
  8
0
 10
6.04712
 20
183.373
 11
6.10533
 21
183.552
  0
LINE
  8
0
 10
6.10533
 20
183.552
 11
6.18553
 21
183.723
  0
LINE
  8
0
 10
6.18553
 20
183.723
 11
6.28647
 21
183.882
  0
LINE
  8
0
 10
6.28647
 20
183.882
 11
6.40654
 21
184.027
  0
LINE
  8
0
 10
6.40654
 20
184.027
 11
6.54385
 21
184.156
  0
LINE
  8
0
 10
6.54385
 20
184.156
 11
6.69626
 21
184.266
  0
LINE
  8
0
 10
6.69626
 20
184.266
 11
6.86133
 21
184.357
  0
LINE
  8
0
 10
6.86133
 20
184.357
 11
7.03647
 21
184.427
  0
LINE
  8
0
 10
7.03647
 20
184.427
 11
7.21892
 21
184.473
  0
LINE
  8
0
 10
7.21892
 20
184.473
 11
7.40581
 21
184.497
  0
LINE
  8
0
 10
7.40581
 20
184.497
 11
7.59418
 21
184.497
  0
LINE
  8
0
 10
7.59418
 20
184.497
 11
7.78107
 21
184.473
  0
LINE
  8
0
 10
7.78107
 20
184.473
 11
7.96352
 21
184.427
  0
LINE
  8
0
 10
7.96352
 20
184.427
 11
8.13866
 21
184.357
  0
LINE
  8
0
 10
8.13866
 20
184.357
 11
8.30373
 21
184.266
  0
LINE
  8
0
 10
8.30373
 20
184.266
 11
8.45613
 21
184.156
  0
LINE
  8
0
 10
8.45613
 20
184.156
 11
8.59344
 21
184.027
  0
LINE
  8
0
 10
8.59344
 20
184.027
 11
8.71352
 21
183.882
  0
LINE
  8
0
 10
8.71352
 20
183.882
 11
8.81445
 21
183.723
  0
LINE
  8
0
 10
8.81445
 20
183.723
 11
8.89465
 21
183.552
  0
LINE
  8
0
 10
8.89465
 20
183.552
 11
8.95287
 21
183.373
  0
LINE
  8
0
 10
8.95287
 20
183.373
 11
8.98816
 21
183.188
  0
LINE
  8
0
 10
8.98816
 20
183.188
 11
9
 21
183
  0
LINE
  8
0
 10
9
 20
183
 11
8.98816
 21
182.812
  0
LINE
  8
0
 10
8.98816
 20
182.812
 11
8.95287
 21
182.627
  0
LINE
  8
0
 10
8.95287
 20
182.627
 11
8.89465
 21
182.448
  0
LINE
  8
0
 10
8.89465
 20
182.448
 11
8.81445
 21
182.277
  0
LINE
  8
0
 10
8.81445
 20
182.277
 11
8.71352
 21
182.118
  0
LINE
  8
0
 10
8.71352
 20
182.118
 11
8.59344
 21
181.973
  0
LINE
  8
0
 10
8.59344
 20
181.973
 11
8.45613
 21
181.844
  0
LINE
  8
0
 10
8.45613
 20
181.844
 11
8.30373
 21
181.734
  0
LINE
  8
0
 10
8.30373
 20
181.734
 11
8.13866
 21
181.643
  0
LINE
  8
0
 10
8.13866
 20
181.643
 11
7.96352
 21
181.573
  0
LINE
  8
0
 10
7.96352
 20
181.573
 11
7.78107
 21
181.527
  0
LINE
  8
0
 10
7.78107
 20
181.527
 11
7.59418
 21
181.503
  0
LINE
  8
0
 10
7.59418
 20
181.503
 11
7.40581
 21
181.503
  0
LINE
  8
0
 10
-15.0942
 20
181.503
 11
-15.2811
 21
181.527
  0
LINE
  8
0
 10
-15.2811
 20
181.527
 11
-15.4635
 21
181.573
  0
LINE
  8
0
 10
-15.4635
 20
181.573
 11
-15.6387
 21
181.643
  0
LINE
  8
0
 10
-15.6387
 20
181.643
 11
-15.8037
 21
181.734
  0
LINE
  8
0
 10
-15.8037
 20
181.734
 11
-15.9561
 21
181.844
  0
LINE
  8
0
 10
-15.9561
 20
181.844
 11
-16.0934
 21
181.973
  0
LINE
  8
0
 10
-16.0934
 20
181.973
 11
-16.2135
 21
182.118
  0
LINE
  8
0
 10
-16.2135
 20
182.118
 11
-16.3145
 21
182.277
  0
LINE
  8
0
 10
-16.3145
 20
182.277
 11
-16.3947
 21
182.448
  0
LINE
  8
0
 10
-16.3947
 20
182.448
 11
-16.4529
 21
182.627
  0
LINE
  8
0
 10
-16.4529
 20
182.627
 11
-16.4882
 21
182.812
  0
LINE
  8
0
 10
-16.4882
 20
182.812
 11
-16.5
 21
183
  0
LINE
  8
0
 10
-16.5
 20
183
 11
-16.4882
 21
183.188
  0
LINE
  8
0
 10
-16.4882
 20
183.188
 11
-16.4529
 21
183.373
  0
LINE
  8
0
 10
-16.4529
 20
183.373
 11
-16.3947
 21
183.552
  0
LINE
  8
0
 10
-16.3947
 20
183.552
 11
-16.3145
 21
183.723
  0
LINE
  8
0
 10
-16.3145
 20
183.723
 11
-16.2135
 21
183.882
  0
LINE
  8
0
 10
-16.2135
 20
183.882
 11
-16.0934
 21
184.027
  0
LINE
  8
0
 10
-16.0934
 20
184.027
 11
-15.9561
 21
184.156
  0
LINE
  8
0
 10
-15.9561
 20
184.156
 11
-15.8037
 21
184.266
  0
LINE
  8
0
 10
-15.8037
 20
184.266
 11
-15.6387
 21
184.357
  0
LINE
  8
0
 10
-15.6387
 20
184.357
 11
-15.4635
 21
184.427
  0
LINE
  8
0
 10
-15.4635
 20
184.427
 11
-15.2811
 21
184.473
  0
LINE
  8
0
 10
-15.2811
 20
184.473
 11
-15.0942
 21
184.497
  0
LINE
  8
0
 10
-15.0942
 20
184.497
 11
-14.9058
 21
184.497
  0
LINE
  8
0
 10
-14.9058
 20
184.497
 11
-14.7189
 21
184.473
  0
LINE
  8
0
 10
-14.7189
 20
184.473
 11
-14.5365
 21
184.427
  0
LINE
  8
0
 10
-14.5365
 20
184.427
 11
-14.3613
 21
184.357
  0
LINE
  8
0
 10
-14.3613
 20
184.357
 11
-14.1963
 21
184.266
  0
LINE
  8
0
 10
-14.1963
 20
184.266
 11
-14.0439
 21
184.156
  0
LINE
  8
0
 10
-14.0439
 20
184.156
 11
-13.9065
 21
184.027
  0
LINE
  8
0
 10
-13.9065
 20
184.027
 11
-13.7865
 21
183.882
  0
LINE
  8
0
 10
-13.7865
 20
183.882
 11
-13.6855
 21
183.723
  0
LINE
  8
0
 10
-13.6855
 20
183.723
 11
-13.6053
 21
183.552
  0
LINE
  8
0
 10
-13.6053
 20
183.552
 11
-13.5471
 21
183.373
  0
LINE
  8
0
 10
-13.5471
 20
183.373
 11
-13.5118
 21
183.188
  0
LINE
  8
0
 10
-13.5118
 20
183.188
 11
-13.5
 21
183
  0
LINE
  8
0
 10
-13.5
 20
183
 11
-13.5118
 21
182.812
  0
LINE
  8
0
 10
-13.5118
 20
182.812
 11
-13.5471
 21
182.627
  0
LINE
  8
0
 10
-13.5471
 20
182.627
 11
-13.6053
 21
182.448
  0
LINE
  8
0
 10
-13.6053
 20
182.448
 11
-13.6855
 21
182.277
  0
LINE
  8
0
 10
-13.6855
 20
182.277
 11
-13.7865
 21
182.118
  0
LINE
  8
0
 10
-13.7865
 20
182.118
 11
-13.9065
 21
181.973
  0
LINE
  8
0
 10
-13.9065
 20
181.973
 11
-14.0439
 21
181.844
  0
LINE
  8
0
 10
-14.0439
 20
181.844
 11
-14.1963
 21
181.734
  0
LINE
  8
0
 10
-14.1963
 20
181.734
 11
-14.3613
 21
181.643
  0
LINE
  8
0
 10
-14.3613
 20
181.643
 11
-14.5365
 21
181.573
  0
LINE
  8
0
 10
-14.5365
 20
181.573
 11
-14.7189
 21
181.527
  0
LINE
  8
0
 10
-14.7189
 20
181.527
 11
-14.9058
 21
181.503
  0
LINE
  8
0
 10
-14.9058
 20
181.503
 11
-15.0942
 21
181.503
  0
LINE
  8
0
 10
7.40581
 20
174.003
 11
7.21892
 21
174.027
  0
LINE
  8
0
 10
7.21892
 20
174.027
 11
7.03647
 21
174.073
  0
LINE
  8
0
 10
7.03647
 20
174.073
 11
6.86133
 21
174.143
  0
LINE
  8
0
 10
6.86133
 20
174.143
 11
6.69626
 21
174.234
  0
LINE
  8
0
 10
6.69626
 20
174.234
 11
6.54385
 21
174.344
  0
LINE
  8
0
 10
6.54385
 20
174.344
 11
6.40654
 21
174.473
  0
LINE
  8
0
 10
6.40654
 20
174.473
 11
6.28647
 21
174.618
  0
LINE
  8
0
 10
6.28647
 20
174.618
 11
6.18553
 21
174.777
  0
LINE
  8
0
 10
6.18553
 20
174.777
 11
6.10533
 21
174.948
  0
LINE
  8
0
 10
6.10533
 20
174.948
 11
6.04712
 21
175.127
  0
LINE
  8
0
 10
6.04712
 20
175.127
 11
6.01183
 21
175.312
  0
LINE
  8
0
 10
6.01183
 20
175.312
 11
6
 21
175.5
  0
LINE
  8
0
 10
6
 20
175.5
 11
6.01183
 21
175.688
  0
LINE
  8
0
 10
6.01183
 20
175.688
 11
6.04712
 21
175.873
  0
LINE
  8
0
 10
6.04712
 20
175.873
 11
6.10533
 21
176.052
  0
LINE
  8
0
 10
6.10533
 20
176.052
 11
6.18553
 21
176.223
  0
LINE
  8
0
 10
6.18553
 20
176.223
 11
6.28647
 21
176.382
  0
LINE
  8
0
 10
6.28647
 20
176.382
 11
6.40654
 21
176.527
  0
LINE
  8
0
 10
6.40654
 20
176.527
 11
6.54385
 21
176.656
  0
LINE
  8
0
 10
6.54385
 20
176.656
 11
6.69626
 21
176.766
  0
LINE
  8
0
 10
6.69626
 20
176.766
 11
6.86133
 21
176.857
  0
LINE
  8
0
 10
6.86133
 20
176.857
 11
7.03647
 21
176.927
  0
LINE
  8
0
 10
7.03647
 20
176.927
 11
7.21892
 21
176.973
  0
LINE
  8
0
 10
7.21892
 20
176.973
 11
7.40581
 21
176.997
  0
LINE
  8
0
 10
7.40581
 20
176.997
 11
7.59418
 21
176.997
  0
LINE
  8
0
 10
7.59418
 20
176.997
 11
7.78107
 21
176.973
  0
LINE
  8
0
 10
7.78107
 20
176.973
 11
7.96352
 21
176.927
  0
LINE
  8
0
 10
7.96352
 20
176.927
 11
8.13866
 21
176.857
  0
LINE
  8
0
 10
8.13866
 20
176.857
 11
8.30373
 21
176.766
  0
LINE
  8
0
 10
8.30373
 20
176.766
 11
8.45613
 21
176.656
  0
LINE
  8
0
 10
8.45613
 20
176.656
 11
8.59344
 21
176.527
  0
LINE
  8
0
 10
8.59344
 20
176.527
 11
8.71352
 21
176.382
  0
LINE
  8
0
 10
8.71352
 20
176.382
 11
8.81445
 21
176.223
  0
LINE
  8
0
 10
8.81445
 20
176.223
 11
8.89465
 21
176.052
  0
LINE
  8
0
 10
8.89465
 20
176.052
 11
8.95287
 21
175.873
  0
LINE
  8
0
 10
8.95287
 20
175.873
 11
8.98816
 21
175.688
  0
LINE
  8
0
 10
8.98816
 20
175.688
 11
9
 21
175.5
  0
LINE
  8
0
 10
9
 20
175.5
 11
8.98816
 21
175.312
  0
LINE
  8
0
 10
8.98816
 20
175.312
 11
8.95287
 21
175.127
  0
LINE
  8
0
 10
8.95287
 20
175.127
 11
8.89465
 21
174.948
  0
LINE
  8
0
 10
8.89465
 20
174.948
 11
8.81445
 21
174.777
  0
LINE
  8
0
 10
8.81445
 20
174.777
 11
8.71352
 21
174.618
  0
LINE
  8
0
 10
8.71352
 20
174.618
 11
8.59344
 21
174.473
  0
LINE
  8
0
 10
8.59344
 20
174.473
 11
8.45613
 21
174.344
  0
LINE
  8
0
 10
8.45613
 20
174.344
 11
8.30373
 21
174.234
  0
LINE
  8
0
 10
8.30373
 20
174.234
 11
8.13866
 21
174.143
  0
LINE
  8
0
 10
8.13866
 20
174.143
 11
7.96352
 21
174.073
  0
LINE
  8
0
 10
7.96352
 20
174.073
 11
7.78107
 21
174.027
  0
LINE
  8
0
 10
7.78107
 20
174.027
 11
7.59418
 21
174.003
  0
LINE
  8
0
 10
7.59418
 20
174.003
 11
7.40581
 21
174.003
  0
LINE
  8
0
 10
-0.0941772
 20
174.003
 11
-0.281067
 21
174.027
  0
LINE
  8
0
 10
-0.281067
 20
174.027
 11
-0.463516
 21
174.073
  0
LINE
  8
0
 10
-0.463516
 20
174.073
 11
-0.638657
 21
174.143
  0
LINE
  8
0
 10
-0.638657
 20
174.143
 11
-0.803726
 21
174.234
  0
LINE
  8
0
 10
-0.803726
 20
174.234
 11
-0.956131
 21
174.344
  0
LINE
  8
0
 10
-0.956131
 20
174.344
 11
-1.09344
 21
174.473
  0
LINE
  8
0
 10
-1.09344
 20
174.473
 11
-1.21352
 21
174.618
  0
LINE
  8
0
 10
-1.21352
 20
174.618
 11
-1.31445
 21
174.777
  0
LINE
  8
0
 10
-1.31445
 20
174.777
 11
-1.39465
 21
174.948
  0
LINE
  8
0
 10
-1.39465
 20
174.948
 11
-1.45287
 21
175.127
  0
LINE
  8
0
 10
-1.45287
 20
175.127
 11
-1.48816
 21
175.312
  0
LINE
  8
0
 10
-1.48816
 20
175.312
 11
-1.5
 21
175.5
  0
LINE
  8
0
 10
-1.5
 20
175.5
 11
-1.48816
 21
175.688
  0
LINE
  8
0
 10
-1.48816
 20
175.688
 11
-1.45287
 21
175.873
  0
LINE
  8
0
 10
-1.45287
 20
175.873
 11
-1.39465
 21
176.052
  0
LINE
  8
0
 10
-1.39465
 20
176.052
 11
-1.31445
 21
176.223
  0
LINE
  8
0
 10
-1.31445
 20
176.223
 11
-1.21352
 21
176.382
  0
LINE
  8
0
 10
-1.21352
 20
176.382
 11
-1.09344
 21
176.527
  0
LINE
  8
0
 10
-1.09344
 20
176.527
 11
-0.956131
 21
176.656
  0
LINE
  8
0
 10
-0.956131
 20
176.656
 11
-0.803726
 21
176.766
  0
LINE
  8
0
 10
-0.803726
 20
176.766
 11
-0.638657
 21
176.857
  0
LINE
  8
0
 10
-0.638657
 20
176.857
 11
-0.463516
 21
176.927
  0
LINE
  8
0
 10
-0.463516
 20
176.927
 11
-0.281067
 21
176.973
  0
LINE
  8
0
 10
-0.281067
 20
176.973
 11
-0.0941772
 21
176.997
  0
LINE
  8
0
 10
-0.0941772
 20
176.997
 11
0.0941772
 21
176.997
  0
LINE
  8
0
 10
0.0941772
 20
176.997
 11
0.281067
 21
176.973
  0
LINE
  8
0
 10
0.281067
 20
176.973
 11
0.463516
 21
176.927
  0
LINE
  8
0
 10
0.463516
 20
176.927
 11
0.638657
 21
176.857
  0
LINE
  8
0
 10
0.638657
 20
176.857
 11
0.803726
 21
176.766
  0
LINE
  8
0
 10
0.803726
 20
176.766
 11
0.956131
 21
176.656
  0
LINE
  8
0
 10
0.956131
 20
176.656
 11
1.09344
 21
176.527
  0
LINE
  8
0
 10
1.09344
 20
176.527
 11
1.21352
 21
176.382
  0
LINE
  8
0
 10
1.21352
 20
176.382
 11
1.31445
 21
176.223
  0
LINE
  8
0
 10
1.31445
 20
176.223
 11
1.39465
 21
176.052
  0
LINE
  8
0
 10
1.39465
 20
176.052
 11
1.45287
 21
175.873
  0
LINE
  8
0
 10
1.45287
 20
175.873
 11
1.48816
 21
175.688
  0
LINE
  8
0
 10
1.48816
 20
175.688
 11
1.5
 21
175.5
  0
LINE
  8
0
 10
1.5
 20
175.5
 11
1.48816
 21
175.312
  0
LINE
  8
0
 10
1.48816
 20
175.312
 11
1.45287
 21
175.127
  0
LINE
  8
0
 10
1.45287
 20
175.127
 11
1.39465
 21
174.948
  0
LINE
  8
0
 10
1.39465
 20
174.948
 11
1.31445
 21
174.777
  0
LINE
  8
0
 10
1.31445
 20
174.777
 11
1.21352
 21
174.618
  0
LINE
  8
0
 10
1.21352
 20
174.618
 11
1.09344
 21
174.473
  0
LINE
  8
0
 10
1.09344
 20
174.473
 11
0.956131
 21
174.344
  0
LINE
  8
0
 10
0.956131
 20
174.344
 11
0.803726
 21
174.234
  0
LINE
  8
0
 10
0.803726
 20
174.234
 11
0.638657
 21
174.143
  0
LINE
  8
0
 10
0.638657
 20
174.143
 11
0.463516
 21
174.073
  0
LINE
  8
0
 10
0.463516
 20
174.073
 11
0.281067
 21
174.027
  0
LINE
  8
0
 10
0.281067
 20
174.027
 11
0.0941772
 21
174.003
  0
LINE
  8
0
 10
0.0941772
 20
174.003
 11
-0.0941772
 21
174.003
  0
LINE
  8
0
 10
-15.0942
 20
174.003
 11
-15.2811
 21
174.027
  0
LINE
  8
0
 10
-15.2811
 20
174.027
 11
-15.4635
 21
174.073
  0
LINE
  8
0
 10
-15.4635
 20
174.073
 11
-15.6387
 21
174.143
  0
LINE
  8
0
 10
-15.6387
 20
174.143
 11
-15.8037
 21
174.234
  0
LINE
  8
0
 10
-15.8037
 20
174.234
 11
-15.9561
 21
174.344
  0
LINE
  8
0
 10
-15.9561
 20
174.344
 11
-16.0934
 21
174.473
  0
LINE
  8
0
 10
-16.0934
 20
174.473
 11
-16.2135
 21
174.618
  0
LINE
  8
0
 10
-16.2135
 20
174.618
 11
-16.3145
 21
174.777
  0
LINE
  8
0
 10
-16.3145
 20
174.777
 11
-16.3947
 21
174.948
  0
LINE
  8
0
 10
-16.3947
 20
174.948
 11
-16.4529
 21
175.127
  0
LINE
  8
0
 10
-16.4529
 20
175.127
 11
-16.4882
 21
175.312
  0
LINE
  8
0
 10
-16.4882
 20
175.312
 11
-16.5
 21
175.5
  0
LINE
  8
0
 10
-16.5
 20
175.5
 11
-16.4882
 21
175.688
  0
LINE
  8
0
 10
-16.4882
 20
175.688
 11
-16.4529
 21
175.873
  0
LINE
  8
0
 10
-16.4529
 20
175.873
 11
-16.3947
 21
176.052
  0
LINE
  8
0
 10
-16.3947
 20
176.052
 11
-16.3145
 21
176.223
  0
LINE
  8
0
 10
-16.3145
 20
176.223
 11
-16.2135
 21
176.382
  0
LINE
  8
0
 10
-16.2135
 20
176.382
 11
-16.0934
 21
176.527
  0
LINE
  8
0
 10
-16.0934
 20
176.527
 11
-15.9561
 21
176.656
  0
LINE
  8
0
 10
-15.9561
 20
176.656
 11
-15.8037
 21
176.766
  0
LINE
  8
0
 10
-15.8037
 20
176.766
 11
-15.6387
 21
176.857
  0
LINE
  8
0
 10
-15.6387
 20
176.857
 11
-15.4635
 21
176.927
  0
LINE
  8
0
 10
-15.4635
 20
176.927
 11
-15.2811
 21
176.973
  0
LINE
  8
0
 10
-15.2811
 20
176.973
 11
-15.0942
 21
176.997
  0
LINE
  8
0
 10
-15.0942
 20
176.997
 11
-14.9058
 21
176.997
  0
LINE
  8
0
 10
-14.9058
 20
176.997
 11
-14.7189
 21
176.973
  0
LINE
  8
0
 10
-14.7189
 20
176.973
 11
-14.5365
 21
176.927
  0
LINE
  8
0
 10
-14.5365
 20
176.927
 11
-14.3613
 21
176.857
  0
LINE
  8
0
 10
-14.3613
 20
176.857
 11
-14.1963
 21
176.766
  0
LINE
  8
0
 10
-14.1963
 20
176.766
 11
-14.0439
 21
176.656
  0
LINE
  8
0
 10
-14.0439
 20
176.656
 11
-13.9065
 21
176.527
  0
LINE
  8
0
 10
-13.9065
 20
176.527
 11
-13.7865
 21
176.382
  0
LINE
  8
0
 10
-13.7865
 20
176.382
 11
-13.6855
 21
176.223
  0
LINE
  8
0
 10
-13.6855
 20
176.223
 11
-13.6053
 21
176.052
  0
LINE
  8
0
 10
-13.6053
 20
176.052
 11
-13.5471
 21
175.873
  0
LINE
  8
0
 10
-13.5471
 20
175.873
 11
-13.5118
 21
175.688
  0
LINE
  8
0
 10
-13.5118
 20
175.688
 11
-13.5
 21
175.5
  0
LINE
  8
0
 10
-13.5
 20
175.5
 11
-13.5118
 21
175.312
  0
LINE
  8
0
 10
-13.5118
 20
175.312
 11
-13.5471
 21
175.127
  0
LINE
  8
0
 10
-13.5471
 20
175.127
 11
-13.6053
 21
174.948
  0
LINE
  8
0
 10
-13.6053
 20
174.948
 11
-13.6855
 21
174.777
  0
LINE
  8
0
 10
-13.6855
 20
174.777
 11
-13.7865
 21
174.618
  0
LINE
  8
0
 10
-13.7865
 20
174.618
 11
-13.9065
 21
174.473
  0
LINE
  8
0
 10
-13.9065
 20
174.473
 11
-14.0439
 21
174.344
  0
LINE
  8
0
 10
-14.0439
 20
174.344
 11
-14.1963
 21
174.234
  0
LINE
  8
0
 10
-14.1963
 20
174.234
 11
-14.3613
 21
174.143
  0
LINE
  8
0
 10
-14.3613
 20
174.143
 11
-14.5365
 21
174.073
  0
LINE
  8
0
 10
-14.5365
 20
174.073
 11
-14.7189
 21
174.027
  0
LINE
  8
0
 10
-14.7189
 20
174.027
 11
-14.9058
 21
174.003
  0
LINE
  8
0
 10
-14.9058
 20
174.003
 11
-15.0942
 21
174.003
  0
LINE
  8
0
 10
-7.59418
 20
174.003
 11
-7.78107
 21
174.027
  0
LINE
  8
0
 10
-7.78107
 20
174.027
 11
-7.96352
 21
174.073
  0
LINE
  8
0
 10
-7.96352
 20
174.073
 11
-8.13866
 21
174.143
  0
LINE
  8
0
 10
-8.13866
 20
174.143
 11
-8.30373
 21
174.234
  0
LINE
  8
0
 10
-8.30373
 20
174.234
 11
-8.45613
 21
174.344
  0
LINE
  8
0
 10
-8.45613
 20
174.344
 11
-8.59344
 21
174.473
  0
LINE
  8
0
 10
-8.59344
 20
174.473
 11
-8.71352
 21
174.618
  0
LINE
  8
0
 10
-8.71352
 20
174.618
 11
-8.81445
 21
174.777
  0
LINE
  8
0
 10
-8.81445
 20
174.777
 11
-8.89465
 21
174.948
  0
LINE
  8
0
 10
-8.89465
 20
174.948
 11
-8.95287
 21
175.127
  0
LINE
  8
0
 10
-8.95287
 20
175.127
 11
-8.98816
 21
175.312
  0
LINE
  8
0
 10
-8.98816
 20
175.312
 11
-9
 21
175.5
  0
LINE
  8
0
 10
-9
 20
175.5
 11
-8.98816
 21
175.688
  0
LINE
  8
0
 10
-8.98816
 20
175.688
 11
-8.95287
 21
175.873
  0
LINE
  8
0
 10
-8.95287
 20
175.873
 11
-8.89465
 21
176.052
  0
LINE
  8
0
 10
-8.89465
 20
176.052
 11
-8.81445
 21
176.223
  0
LINE
  8
0
 10
-8.81445
 20
176.223
 11
-8.71352
 21
176.382
  0
LINE
  8
0
 10
-8.71352
 20
176.382
 11
-8.59344
 21
176.527
  0
LINE
  8
0
 10
-8.59344
 20
176.527
 11
-8.45613
 21
176.656
  0
LINE
  8
0
 10
-8.45613
 20
176.656
 11
-8.30373
 21
176.766
  0
LINE
  8
0
 10
-8.30373
 20
176.766
 11
-8.13866
 21
176.857
  0
LINE
  8
0
 10
-8.13866
 20
176.857
 11
-7.96352
 21
176.927
  0
LINE
  8
0
 10
-7.96352
 20
176.927
 11
-7.78107
 21
176.973
  0
LINE
  8
0
 10
-7.78107
 20
176.973
 11
-7.59418
 21
176.997
  0
LINE
  8
0
 10
-7.59418
 20
176.997
 11
-7.40581
 21
176.997
  0
LINE
  8
0
 10
-7.40581
 20
176.997
 11
-7.21892
 21
176.973
  0
LINE
  8
0
 10
-7.21892
 20
176.973
 11
-7.03647
 21
176.927
  0
LINE
  8
0
 10
-7.03647
 20
176.927
 11
-6.86133
 21
176.857
  0
LINE
  8
0
 10
-6.86133
 20
176.857
 11
-6.69626
 21
176.766
  0
LINE
  8
0
 10
-6.69626
 20
176.766
 11
-6.54385
 21
176.656
  0
LINE
  8
0
 10
-6.54385
 20
176.656
 11
-6.40654
 21
176.527
  0
LINE
  8
0
 10
-6.40654
 20
176.527
 11
-6.28647
 21
176.382
  0
LINE
  8
0
 10
-6.28647
 20
176.382
 11
-6.18553
 21
176.223
  0
LINE
  8
0
 10
-6.18553
 20
176.223
 11
-6.10533
 21
176.052
  0
LINE
  8
0
 10
-6.10533
 20
176.052
 11
-6.04712
 21
175.873
  0
LINE
  8
0
 10
-6.04712
 20
175.873
 11
-6.01183
 21
175.688
  0
LINE
  8
0
 10
-6.01183
 20
175.688
 11
-6
 21
175.5
  0
LINE
  8
0
 10
-6
 20
175.5
 11
-6.01183
 21
175.312
  0
LINE
  8
0
 10
-6.01183
 20
175.312
 11
-6.04712
 21
175.127
  0
LINE
  8
0
 10
-6.04712
 20
175.127
 11
-6.10533
 21
174.948
  0
LINE
  8
0
 10
-6.10533
 20
174.948
 11
-6.18553
 21
174.777
  0
LINE
  8
0
 10
-6.18553
 20
174.777
 11
-6.28647
 21
174.618
  0
LINE
  8
0
 10
-6.28647
 20
174.618
 11
-6.40654
 21
174.473
  0
LINE
  8
0
 10
-6.40654
 20
174.473
 11
-6.54385
 21
174.344
  0
LINE
  8
0
 10
-6.54385
 20
174.344
 11
-6.69626
 21
174.234
  0
LINE
  8
0
 10
-6.69626
 20
174.234
 11
-6.86133
 21
174.143
  0
LINE
  8
0
 10
-6.86133
 20
174.143
 11
-7.03647
 21
174.073
  0
LINE
  8
0
 10
-7.03647
 20
174.073
 11
-7.21892
 21
174.027
  0
LINE
  8
0
 10
-7.21892
 20
174.027
 11
-7.40581
 21
174.003
  0
LINE
  8
0
 10
-7.40581
 20
174.003
 11
-7.59418
 21
174.003
  0
LINE
  8
0
 10
14.9058
 20
174.003
 11
14.7189
 21
174.027
  0
LINE
  8
0
 10
14.7189
 20
174.027
 11
14.5365
 21
174.073
  0
LINE
  8
0
 10
14.5365
 20
174.073
 11
14.3613
 21
174.143
  0
LINE
  8
0
 10
14.3613
 20
174.143
 11
14.1963
 21
174.234
  0
LINE
  8
0
 10
14.1963
 20
174.234
 11
14.0439
 21
174.344
  0
LINE
  8
0
 10
14.0439
 20
174.344
 11
13.9065
 21
174.473
  0
LINE
  8
0
 10
13.9065
 20
174.473
 11
13.7865
 21
174.618
  0
LINE
  8
0
 10
13.7865
 20
174.618
 11
13.6855
 21
174.777
  0
LINE
  8
0
 10
13.6855
 20
174.777
 11
13.6053
 21
174.948
  0
LINE
  8
0
 10
13.6053
 20
174.948
 11
13.5471
 21
175.127
  0
LINE
  8
0
 10
13.5471
 20
175.127
 11
13.5118
 21
175.312
  0
LINE
  8
0
 10
13.5118
 20
175.312
 11
13.5
 21
175.5
  0
LINE
  8
0
 10
13.5
 20
175.5
 11
13.5118
 21
175.688
  0
LINE
  8
0
 10
13.5118
 20
175.688
 11
13.5471
 21
175.873
  0
LINE
  8
0
 10
13.5471
 20
175.873
 11
13.6053
 21
176.052
  0
LINE
  8
0
 10
13.6053
 20
176.052
 11
13.6855
 21
176.223
  0
LINE
  8
0
 10
13.6855
 20
176.223
 11
13.7865
 21
176.382
  0
LINE
  8
0
 10
13.7865
 20
176.382
 11
13.9065
 21
176.527
  0
LINE
  8
0
 10
13.9065
 20
176.527
 11
14.0439
 21
176.656
  0
LINE
  8
0
 10
14.0439
 20
176.656
 11
14.1963
 21
176.766
  0
LINE
  8
0
 10
14.1963
 20
176.766
 11
14.3613
 21
176.857
  0
LINE
  8
0
 10
14.3613
 20
176.857
 11
14.5365
 21
176.927
  0
LINE
  8
0
 10
14.5365
 20
176.927
 11
14.7189
 21
176.973
  0
LINE
  8
0
 10
14.7189
 20
176.973
 11
14.9058
 21
176.997
  0
LINE
  8
0
 10
14.9058
 20
176.997
 11
15.0942
 21
176.997
  0
LINE
  8
0
 10
15.0942
 20
176.997
 11
15.2811
 21
176.973
  0
LINE
  8
0
 10
15.2811
 20
176.973
 11
15.4635
 21
176.927
  0
LINE
  8
0
 10
15.4635
 20
176.927
 11
15.6387
 21
176.857
  0
LINE
  8
0
 10
15.6387
 20
176.857
 11
15.8037
 21
176.766
  0
LINE
  8
0
 10
15.8037
 20
176.766
 11
15.9561
 21
176.656
  0
LINE
  8
0
 10
15.9561
 20
176.656
 11
16.0934
 21
176.527
  0
LINE
  8
0
 10
16.0934
 20
176.527
 11
16.2135
 21
176.382
  0
LINE
  8
0
 10
16.2135
 20
176.382
 11
16.3145
 21
176.223
  0
LINE
  8
0
 10
16.3145
 20
176.223
 11
16.3947
 21
176.052
  0
LINE
  8
0
 10
16.3947
 20
176.052
 11
16.4529
 21
175.873
  0
LINE
  8
0
 10
16.4529
 20
175.873
 11
16.4882
 21
175.688
  0
LINE
  8
0
 10
16.4882
 20
175.688
 11
16.5
 21
175.5
  0
LINE
  8
0
 10
16.5
 20
175.5
 11
16.4882
 21
175.312
  0
LINE
  8
0
 10
16.4882
 20
175.312
 11
16.4529
 21
175.127
  0
LINE
  8
0
 10
16.4529
 20
175.127
 11
16.3947
 21
174.948
  0
LINE
  8
0
 10
16.3947
 20
174.948
 11
16.3145
 21
174.777
  0
LINE
  8
0
 10
16.3145
 20
174.777
 11
16.2135
 21
174.618
  0
LINE
  8
0
 10
16.2135
 20
174.618
 11
16.0934
 21
174.473
  0
LINE
  8
0
 10
16.0934
 20
174.473
 11
15.9561
 21
174.344
  0
LINE
  8
0
 10
15.9561
 20
174.344
 11
15.8037
 21
174.234
  0
LINE
  8
0
 10
15.8037
 20
174.234
 11
15.6387
 21
174.143
  0
LINE
  8
0
 10
15.6387
 20
174.143
 11
15.4635
 21
174.073
  0
LINE
  8
0
 10
15.4635
 20
174.073
 11
15.2811
 21
174.027
  0
LINE
  8
0
 10
15.2811
 20
174.027
 11
15.0942
 21
174.003
  0
LINE
  8
0
 10
15.0942
 20
174.003
 11
14.9058
 21
174.003
  0
LINE
  8
0
 10
14.9058
 20
166.503
 11
14.7189
 21
166.527
  0
LINE
  8
0
 10
14.7189
 20
166.527
 11
14.5365
 21
166.573
  0
LINE
  8
0
 10
14.5365
 20
166.573
 11
14.3613
 21
166.643
  0
LINE
  8
0
 10
14.3613
 20
166.643
 11
14.1963
 21
166.734
  0
LINE
  8
0
 10
14.1963
 20
166.734
 11
14.0439
 21
166.844
  0
LINE
  8
0
 10
14.0439
 20
166.844
 11
13.9065
 21
166.973
  0
LINE
  8
0
 10
13.9065
 20
166.973
 11
13.7865
 21
167.118
  0
LINE
  8
0
 10
13.7865
 20
167.118
 11
13.6855
 21
167.277
  0
LINE
  8
0
 10
13.6855
 20
167.277
 11
13.6053
 21
167.448
  0
LINE
  8
0
 10
13.6053
 20
167.448
 11
13.5471
 21
167.627
  0
LINE
  8
0
 10
13.5471
 20
167.627
 11
13.5118
 21
167.812
  0
LINE
  8
0
 10
13.5118
 20
167.812
 11
13.5
 21
168
  0
LINE
  8
0
 10
13.5
 20
168
 11
13.5118
 21
168.188
  0
LINE
  8
0
 10
13.5118
 20
168.188
 11
13.5471
 21
168.373
  0
LINE
  8
0
 10
13.5471
 20
168.373
 11
13.6053
 21
168.552
  0
LINE
  8
0
 10
13.6053
 20
168.552
 11
13.6855
 21
168.723
  0
LINE
  8
0
 10
13.6855
 20
168.723
 11
13.7865
 21
168.882
  0
LINE
  8
0
 10
13.7865
 20
168.882
 11
13.9065
 21
169.027
  0
LINE
  8
0
 10
13.9065
 20
169.027
 11
14.0439
 21
169.156
  0
LINE
  8
0
 10
14.0439
 20
169.156
 11
14.1963
 21
169.266
  0
LINE
  8
0
 10
14.1963
 20
169.266
 11
14.3613
 21
169.357
  0
LINE
  8
0
 10
14.3613
 20
169.357
 11
14.5365
 21
169.427
  0
LINE
  8
0
 10
14.5365
 20
169.427
 11
14.7189
 21
169.473
  0
LINE
  8
0
 10
14.7189
 20
169.473
 11
14.9058
 21
169.497
  0
LINE
  8
0
 10
14.9058
 20
169.497
 11
15.0942
 21
169.497
  0
LINE
  8
0
 10
15.0942
 20
169.497
 11
15.2811
 21
169.473
  0
LINE
  8
0
 10
15.2811
 20
169.473
 11
15.4635
 21
169.427
  0
LINE
  8
0
 10
15.4635
 20
169.427
 11
15.6387
 21
169.357
  0
LINE
  8
0
 10
15.6387
 20
169.357
 11
15.8037
 21
169.266
  0
LINE
  8
0
 10
15.8037
 20
169.266
 11
15.9561
 21
169.156
  0
LINE
  8
0
 10
15.9561
 20
169.156
 11
16.0934
 21
169.027
  0
LINE
  8
0
 10
16.0934
 20
169.027
 11
16.2135
 21
168.882
  0
LINE
  8
0
 10
16.2135
 20
168.882
 11
16.3145
 21
168.723
  0
LINE
  8
0
 10
16.3145
 20
168.723
 11
16.3947
 21
168.552
  0
LINE
  8
0
 10
16.3947
 20
168.552
 11
16.4529
 21
168.373
  0
LINE
  8
0
 10
16.4529
 20
168.373
 11
16.4882
 21
168.188
  0
LINE
  8
0
 10
16.4882
 20
168.188
 11
16.5
 21
168
  0
LINE
  8
0
 10
16.5
 20
168
 11
16.4882
 21
167.812
  0
LINE
  8
0
 10
16.4882
 20
167.812
 11
16.4529
 21
167.627
  0
LINE
  8
0
 10
16.4529
 20
167.627
 11
16.3947
 21
167.448
  0
LINE
  8
0
 10
16.3947
 20
167.448
 11
16.3145
 21
167.277
  0
LINE
  8
0
 10
16.3145
 20
167.277
 11
16.2135
 21
167.118
  0
LINE
  8
0
 10
16.2135
 20
167.118
 11
16.0934
 21
166.973
  0
LINE
  8
0
 10
16.0934
 20
166.973
 11
15.9561
 21
166.844
  0
LINE
  8
0
 10
15.9561
 20
166.844
 11
15.8037
 21
166.734
  0
LINE
  8
0
 10
15.8037
 20
166.734
 11
15.6387
 21
166.643
  0
LINE
  8
0
 10
15.6387
 20
166.643
 11
15.4635
 21
166.573
  0
LINE
  8
0
 10
15.4635
 20
166.573
 11
15.2811
 21
166.527
  0
LINE
  8
0
 10
15.2811
 20
166.527
 11
15.0942
 21
166.503
  0
LINE
  8
0
 10
15.0942
 20
166.503
 11
14.9058
 21
166.503
  0
LINE
  8
0
 10
-15.0942
 20
166.503
 11
-15.2811
 21
166.527
  0
LINE
  8
0
 10
-15.2811
 20
166.527
 11
-15.4635
 21
166.573
  0
LINE
  8
0
 10
-15.4635
 20
166.573
 11
-15.6387
 21
166.643
  0
LINE
  8
0
 10
-15.6387
 20
166.643
 11
-15.8037
 21
166.734
  0
LINE
  8
0
 10
-15.8037
 20
166.734
 11
-15.9561
 21
166.844
  0
LINE
  8
0
 10
-15.9561
 20
166.844
 11
-16.0934
 21
166.973
  0
LINE
  8
0
 10
-16.0934
 20
166.973
 11
-16.2135
 21
167.118
  0
LINE
  8
0
 10
-16.2135
 20
167.118
 11
-16.3145
 21
167.277
  0
LINE
  8
0
 10
-16.3145
 20
167.277
 11
-16.3947
 21
167.448
  0
LINE
  8
0
 10
-16.3947
 20
167.448
 11
-16.4529
 21
167.627
  0
LINE
  8
0
 10
-16.4529
 20
167.627
 11
-16.4882
 21
167.812
  0
LINE
  8
0
 10
-16.4882
 20
167.812
 11
-16.5
 21
168
  0
LINE
  8
0
 10
-16.5
 20
168
 11
-16.4882
 21
168.188
  0
LINE
  8
0
 10
-16.4882
 20
168.188
 11
-16.4529
 21
168.373
  0
LINE
  8
0
 10
-16.4529
 20
168.373
 11
-16.3947
 21
168.552
  0
LINE
  8
0
 10
-16.3947
 20
168.552
 11
-16.3145
 21
168.723
  0
LINE
  8
0
 10
-16.3145
 20
168.723
 11
-16.2135
 21
168.882
  0
LINE
  8
0
 10
-16.2135
 20
168.882
 11
-16.0934
 21
169.027
  0
LINE
  8
0
 10
-16.0934
 20
169.027
 11
-15.9561
 21
169.156
  0
LINE
  8
0
 10
-15.9561
 20
169.156
 11
-15.8037
 21
169.266
  0
LINE
  8
0
 10
-15.8037
 20
169.266
 11
-15.6387
 21
169.357
  0
LINE
  8
0
 10
-15.6387
 20
169.357
 11
-15.4635
 21
169.427
  0
LINE
  8
0
 10
-15.4635
 20
169.427
 11
-15.2811
 21
169.473
  0
LINE
  8
0
 10
-15.2811
 20
169.473
 11
-15.0942
 21
169.497
  0
LINE
  8
0
 10
-15.0942
 20
169.497
 11
-14.9058
 21
169.497
  0
LINE
  8
0
 10
-14.9058
 20
169.497
 11
-14.7189
 21
169.473
  0
LINE
  8
0
 10
-14.7189
 20
169.473
 11
-14.5365
 21
169.427
  0
LINE
  8
0
 10
-14.5365
 20
169.427
 11
-14.3613
 21
169.357
  0
LINE
  8
0
 10
-14.3613
 20
169.357
 11
-14.1963
 21
169.266
  0
LINE
  8
0
 10
-14.1963
 20
169.266
 11
-14.0439
 21
169.156
  0
LINE
  8
0
 10
-14.0439
 20
169.156
 11
-13.9065
 21
169.027
  0
LINE
  8
0
 10
-13.9065
 20
169.027
 11
-13.7865
 21
168.882
  0
LINE
  8
0
 10
-13.7865
 20
168.882
 11
-13.6855
 21
168.723
  0
LINE
  8
0
 10
-13.6855
 20
168.723
 11
-13.6053
 21
168.552
  0
LINE
  8
0
 10
-13.6053
 20
168.552
 11
-13.5471
 21
168.373
  0
LINE
  8
0
 10
-13.5471
 20
168.373
 11
-13.5118
 21
168.188
  0
LINE
  8
0
 10
-13.5118
 20
168.188
 11
-13.5
 21
168
  0
LINE
  8
0
 10
-13.5
 20
168
 11
-13.5118
 21
167.812
  0
LINE
  8
0
 10
-13.5118
 20
167.812
 11
-13.5471
 21
167.627
  0
LINE
  8
0
 10
-13.5471
 20
167.627
 11
-13.6053
 21
167.448
  0
LINE
  8
0
 10
-13.6053
 20
167.448
 11
-13.6855
 21
167.277
  0
LINE
  8
0
 10
-13.6855
 20
167.277
 11
-13.7865
 21
167.118
  0
LINE
  8
0
 10
-13.7865
 20
167.118
 11
-13.9065
 21
166.973
  0
LINE
  8
0
 10
-13.9065
 20
166.973
 11
-14.0439
 21
166.844
  0
LINE
  8
0
 10
-14.0439
 20
166.844
 11
-14.1963
 21
166.734
  0
LINE
  8
0
 10
-14.1963
 20
166.734
 11
-14.3613
 21
166.643
  0
LINE
  8
0
 10
-14.3613
 20
166.643
 11
-14.5365
 21
166.573
  0
LINE
  8
0
 10
-14.5365
 20
166.573
 11
-14.7189
 21
166.527
  0
LINE
  8
0
 10
-14.7189
 20
166.527
 11
-14.9058
 21
166.503
  0
LINE
  8
0
 10
-14.9058
 20
166.503
 11
-15.0942
 21
166.503
  0
LINE
  8
0
 10
-7.59418
 20
166.503
 11
-7.78107
 21
166.527
  0
LINE
  8
0
 10
-7.78107
 20
166.527
 11
-7.96352
 21
166.573
  0
LINE
  8
0
 10
-7.96352
 20
166.573
 11
-8.13866
 21
166.643
  0
LINE
  8
0
 10
-8.13866
 20
166.643
 11
-8.30373
 21
166.734
  0
LINE
  8
0
 10
-8.30373
 20
166.734
 11
-8.45613
 21
166.844
  0
LINE
  8
0
 10
-8.45613
 20
166.844
 11
-8.59344
 21
166.973
  0
LINE
  8
0
 10
-8.59344
 20
166.973
 11
-8.71352
 21
167.118
  0
LINE
  8
0
 10
-8.71352
 20
167.118
 11
-8.81445
 21
167.277
  0
LINE
  8
0
 10
-8.81445
 20
167.277
 11
-8.89465
 21
167.448
  0
LINE
  8
0
 10
-8.89465
 20
167.448
 11
-8.95287
 21
167.627
  0
LINE
  8
0
 10
-8.95287
 20
167.627
 11
-8.98816
 21
167.812
  0
LINE
  8
0
 10
-8.98816
 20
167.812
 11
-9
 21
168
  0
LINE
  8
0
 10
-9
 20
168
 11
-8.98816
 21
168.188
  0
LINE
  8
0
 10
-8.98816
 20
168.188
 11
-8.95287
 21
168.373
  0
LINE
  8
0
 10
-8.95287
 20
168.373
 11
-8.89465
 21
168.552
  0
LINE
  8
0
 10
-8.89465
 20
168.552
 11
-8.81445
 21
168.723
  0
LINE
  8
0
 10
-8.81445
 20
168.723
 11
-8.71352
 21
168.882
  0
LINE
  8
0
 10
-8.71352
 20
168.882
 11
-8.59344
 21
169.027
  0
LINE
  8
0
 10
-8.59344
 20
169.027
 11
-8.45613
 21
169.156
  0
LINE
  8
0
 10
-8.45613
 20
169.156
 11
-8.30373
 21
169.266
  0
LINE
  8
0
 10
-8.30373
 20
169.266
 11
-8.13866
 21
169.357
  0
LINE
  8
0
 10
-8.13866
 20
169.357
 11
-7.96352
 21
169.427
  0
LINE
  8
0
 10
-7.96352
 20
169.427
 11
-7.78107
 21
169.473
  0
LINE
  8
0
 10
-7.78107
 20
169.473
 11
-7.59418
 21
169.497
  0
LINE
  8
0
 10
-7.59418
 20
169.497
 11
-7.40581
 21
169.497
  0
LINE
  8
0
 10
-7.40581
 20
169.497
 11
-7.21892
 21
169.473
  0
LINE
  8
0
 10
-7.21892
 20
169.473
 11
-7.03647
 21
169.427
  0
LINE
  8
0
 10
-7.03647
 20
169.427
 11
-6.86133
 21
169.357
  0
LINE
  8
0
 10
-6.86133
 20
169.357
 11
-6.69626
 21
169.266
  0
LINE
  8
0
 10
-6.69626
 20
169.266
 11
-6.54385
 21
169.156
  0
LINE
  8
0
 10
-6.54385
 20
169.156
 11
-6.40654
 21
169.027
  0
LINE
  8
0
 10
-6.40654
 20
169.027
 11
-6.28647
 21
168.882
  0
LINE
  8
0
 10
-6.28647
 20
168.882
 11
-6.18553
 21
168.723
  0
LINE
  8
0
 10
-6.18553
 20
168.723
 11
-6.10533
 21
168.552
  0
LINE
  8
0
 10
-6.10533
 20
168.552
 11
-6.04712
 21
168.373
  0
LINE
  8
0
 10
-6.04712
 20
168.373
 11
-6.01183
 21
168.188
  0
LINE
  8
0
 10
-6.01183
 20
168.188
 11
-6
 21
168
  0
LINE
  8
0
 10
-6
 20
168
 11
-6.01183
 21
167.812
  0
LINE
  8
0
 10
-6.01183
 20
167.812
 11
-6.04712
 21
167.627
  0
LINE
  8
0
 10
-6.04712
 20
167.627
 11
-6.10533
 21
167.448
  0
LINE
  8
0
 10
-6.10533
 20
167.448
 11
-6.18553
 21
167.277
  0
LINE
  8
0
 10
-6.18553
 20
167.277
 11
-6.28647
 21
167.118
  0
LINE
  8
0
 10
-6.28647
 20
167.118
 11
-6.40654
 21
166.973
  0
LINE
  8
0
 10
-6.40654
 20
166.973
 11
-6.54385
 21
166.844
  0
LINE
  8
0
 10
-6.54385
 20
166.844
 11
-6.69626
 21
166.734
  0
LINE
  8
0
 10
-6.69626
 20
166.734
 11
-6.86133
 21
166.643
  0
LINE
  8
0
 10
-6.86133
 20
166.643
 11
-7.03647
 21
166.573
  0
LINE
  8
0
 10
-7.03647
 20
166.573
 11
-7.21892
 21
166.527
  0
LINE
  8
0
 10
-7.21892
 20
166.527
 11
-7.40581
 21
166.503
  0
LINE
  8
0
 10
-7.40581
 20
166.503
 11
-7.59418
 21
166.503
  0
LINE
  8
0
 10
7.40581
 20
166.503
 11
7.21892
 21
166.527
  0
LINE
  8
0
 10
7.21892
 20
166.527
 11
7.03647
 21
166.573
  0
LINE
  8
0
 10
7.03647
 20
166.573
 11
6.86133
 21
166.643
  0
LINE
  8
0
 10
6.86133
 20
166.643
 11
6.69626
 21
166.734
  0
LINE
  8
0
 10
6.69626
 20
166.734
 11
6.54385
 21
166.844
  0
LINE
  8
0
 10
6.54385
 20
166.844
 11
6.40654
 21
166.973
  0
LINE
  8
0
 10
6.40654
 20
166.973
 11
6.28647
 21
167.118
  0
LINE
  8
0
 10
6.28647
 20
167.118
 11
6.18553
 21
167.277
  0
LINE
  8
0
 10
6.18553
 20
167.277
 11
6.10533
 21
167.448
  0
LINE
  8
0
 10
6.10533
 20
167.448
 11
6.04712
 21
167.627
  0
LINE
  8
0
 10
6.04712
 20
167.627
 11
6.01183
 21
167.812
  0
LINE
  8
0
 10
6.01183
 20
167.812
 11
6
 21
168
  0
LINE
  8
0
 10
6
 20
168
 11
6.01183
 21
168.188
  0
LINE
  8
0
 10
6.01183
 20
168.188
 11
6.04712
 21
168.373
  0
LINE
  8
0
 10
6.04712
 20
168.373
 11
6.10533
 21
168.552
  0
LINE
  8
0
 10
6.10533
 20
168.552
 11
6.18553
 21
168.723
  0
LINE
  8
0
 10
6.18553
 20
168.723
 11
6.28647
 21
168.882
  0
LINE
  8
0
 10
6.28647
 20
168.882
 11
6.40654
 21
169.027
  0
LINE
  8
0
 10
6.40654
 20
169.027
 11
6.54385
 21
169.156
  0
LINE
  8
0
 10
6.54385
 20
169.156
 11
6.69626
 21
169.266
  0
LINE
  8
0
 10
6.69626
 20
169.266
 11
6.86133
 21
169.357
  0
LINE
  8
0
 10
6.86133
 20
169.357
 11
7.03647
 21
169.427
  0
LINE
  8
0
 10
7.03647
 20
169.427
 11
7.21892
 21
169.473
  0
LINE
  8
0
 10
7.21892
 20
169.473
 11
7.40581
 21
169.497
  0
LINE
  8
0
 10
7.40581
 20
169.497
 11
7.59418
 21
169.497
  0
LINE
  8
0
 10
7.59418
 20
169.497
 11
7.78107
 21
169.473
  0
LINE
  8
0
 10
7.78107
 20
169.473
 11
7.96352
 21
169.427
  0
LINE
  8
0
 10
7.96352
 20
169.427
 11
8.13866
 21
169.357
  0
LINE
  8
0
 10
8.13866
 20
169.357
 11
8.30373
 21
169.266
  0
LINE
  8
0
 10
8.30373
 20
169.266
 11
8.45613
 21
169.156
  0
LINE
  8
0
 10
8.45613
 20
169.156
 11
8.59344
 21
169.027
  0
LINE
  8
0
 10
8.59344
 20
169.027
 11
8.71352
 21
168.882
  0
LINE
  8
0
 10
8.71352
 20
168.882
 11
8.81445
 21
168.723
  0
LINE
  8
0
 10
8.81445
 20
168.723
 11
8.89465
 21
168.552
  0
LINE
  8
0
 10
8.89465
 20
168.552
 11
8.95287
 21
168.373
  0
LINE
  8
0
 10
8.95287
 20
168.373
 11
8.98816
 21
168.188
  0
LINE
  8
0
 10
8.98816
 20
168.188
 11
9
 21
168
  0
LINE
  8
0
 10
9
 20
168
 11
8.98816
 21
167.812
  0
LINE
  8
0
 10
8.98816
 20
167.812
 11
8.95287
 21
167.627
  0
LINE
  8
0
 10
8.95287
 20
167.627
 11
8.89465
 21
167.448
  0
LINE
  8
0
 10
8.89465
 20
167.448
 11
8.81445
 21
167.277
  0
LINE
  8
0
 10
8.81445
 20
167.277
 11
8.71352
 21
167.118
  0
LINE
  8
0
 10
8.71352
 20
167.118
 11
8.59344
 21
166.973
  0
LINE
  8
0
 10
8.59344
 20
166.973
 11
8.45613
 21
166.844
  0
LINE
  8
0
 10
8.45613
 20
166.844
 11
8.30373
 21
166.734
  0
LINE
  8
0
 10
8.30373
 20
166.734
 11
8.13866
 21
166.643
  0
LINE
  8
0
 10
8.13866
 20
166.643
 11
7.96352
 21
166.573
  0
LINE
  8
0
 10
7.96352
 20
166.573
 11
7.78107
 21
166.527
  0
LINE
  8
0
 10
7.78107
 20
166.527
 11
7.59418
 21
166.503
  0
LINE
  8
0
 10
7.59418
 20
166.503
 11
7.40581
 21
166.503
  0
LINE
  8
0
 10
-0.0941772
 20
166.503
 11
-0.281067
 21
166.527
  0
LINE
  8
0
 10
-0.281067
 20
166.527
 11
-0.463516
 21
166.573
  0
LINE
  8
0
 10
-0.463516
 20
166.573
 11
-0.638657
 21
166.643
  0
LINE
  8
0
 10
-0.638657
 20
166.643
 11
-0.803726
 21
166.734
  0
LINE
  8
0
 10
-0.803726
 20
166.734
 11
-0.956131
 21
166.844
  0
LINE
  8
0
 10
-0.956131
 20
166.844
 11
-1.09344
 21
166.973
  0
LINE
  8
0
 10
-1.09344
 20
166.973
 11
-1.21352
 21
167.118
  0
LINE
  8
0
 10
-1.21352
 20
167.118
 11
-1.31445
 21
167.277
  0
LINE
  8
0
 10
-1.31445
 20
167.277
 11
-1.39465
 21
167.448
  0
LINE
  8
0
 10
-1.39465
 20
167.448
 11
-1.45287
 21
167.627
  0
LINE
  8
0
 10
-1.45287
 20
167.627
 11
-1.48816
 21
167.812
  0
LINE
  8
0
 10
-1.48816
 20
167.812
 11
-1.5
 21
168
  0
LINE
  8
0
 10
-1.5
 20
168
 11
-1.48816
 21
168.188
  0
LINE
  8
0
 10
-1.48816
 20
168.188
 11
-1.45287
 21
168.373
  0
LINE
  8
0
 10
-1.45287
 20
168.373
 11
-1.39465
 21
168.552
  0
LINE
  8
0
 10
-1.39465
 20
168.552
 11
-1.31445
 21
168.723
  0
LINE
  8
0
 10
-1.31445
 20
168.723
 11
-1.21352
 21
168.882
  0
LINE
  8
0
 10
-1.21352
 20
168.882
 11
-1.09344
 21
169.027
  0
LINE
  8
0
 10
-1.09344
 20
169.027
 11
-0.956131
 21
169.156
  0
LINE
  8
0
 10
-0.956131
 20
169.156
 11
-0.803726
 21
169.266
  0
LINE
  8
0
 10
-0.803726
 20
169.266
 11
-0.638657
 21
169.357
  0
LINE
  8
0
 10
-0.638657
 20
169.357
 11
-0.463516
 21
169.427
  0
LINE
  8
0
 10
-0.463516
 20
169.427
 11
-0.281067
 21
169.473
  0
LINE
  8
0
 10
-0.281067
 20
169.473
 11
-0.0941772
 21
169.497
  0
LINE
  8
0
 10
-0.0941772
 20
169.497
 11
0.0941772
 21
169.497
  0
LINE
  8
0
 10
0.0941772
 20
169.497
 11
0.281067
 21
169.473
  0
LINE
  8
0
 10
0.281067
 20
169.473
 11
0.463516
 21
169.427
  0
LINE
  8
0
 10
0.463516
 20
169.427
 11
0.638657
 21
169.357
  0
LINE
  8
0
 10
0.638657
 20
169.357
 11
0.803726
 21
169.266
  0
LINE
  8
0
 10
0.803726
 20
169.266
 11
0.956131
 21
169.156
  0
LINE
  8
0
 10
0.956131
 20
169.156
 11
1.09344
 21
169.027
  0
LINE
  8
0
 10
1.09344
 20
169.027
 11
1.21352
 21
168.882
  0
LINE
  8
0
 10
1.21352
 20
168.882
 11
1.31445
 21
168.723
  0
LINE
  8
0
 10
1.31445
 20
168.723
 11
1.39465
 21
168.552
  0
LINE
  8
0
 10
1.39465
 20
168.552
 11
1.45287
 21
168.373
  0
LINE
  8
0
 10
1.45287
 20
168.373
 11
1.48816
 21
168.188
  0
LINE
  8
0
 10
1.48816
 20
168.188
 11
1.5
 21
168
  0
LINE
  8
0
 10
1.5
 20
168
 11
1.48816
 21
167.812
  0
LINE
  8
0
 10
1.48816
 20
167.812
 11
1.45287
 21
167.627
  0
LINE
  8
0
 10
1.45287
 20
167.627
 11
1.39465
 21
167.448
  0
LINE
  8
0
 10
1.39465
 20
167.448
 11
1.31445
 21
167.277
  0
LINE
  8
0
 10
1.31445
 20
167.277
 11
1.21352
 21
167.118
  0
LINE
  8
0
 10
1.21352
 20
167.118
 11
1.09344
 21
166.973
  0
LINE
  8
0
 10
1.09344
 20
166.973
 11
0.956131
 21
166.844
  0
LINE
  8
0
 10
0.956131
 20
166.844
 11
0.803726
 21
166.734
  0
LINE
  8
0
 10
0.803726
 20
166.734
 11
0.638657
 21
166.643
  0
LINE
  8
0
 10
0.638657
 20
166.643
 11
0.463516
 21
166.573
  0
LINE
  8
0
 10
0.463516
 20
166.573
 11
0.281067
 21
166.527
  0
LINE
  8
0
 10
0.281067
 20
166.527
 11
0.0941772
 21
166.503
  0
LINE
  8
0
 10
0.0941772
 20
166.503
 11
-0.0941772
 21
166.503
  0
LINE
  8
0
 10
-0.0941772
 20
159.003
 11
-0.281067
 21
159.027
  0
LINE
  8
0
 10
-0.281067
 20
159.027
 11
-0.463516
 21
159.073
  0
LINE
  8
0
 10
-0.463516
 20
159.073
 11
-0.638657
 21
159.143
  0
LINE
  8
0
 10
-0.638657
 20
159.143
 11
-0.803726
 21
159.234
  0
LINE
  8
0
 10
-0.803726
 20
159.234
 11
-0.956131
 21
159.344
  0
LINE
  8
0
 10
-0.956131
 20
159.344
 11
-1.09344
 21
159.473
  0
LINE
  8
0
 10
-1.09344
 20
159.473
 11
-1.21352
 21
159.618
  0
LINE
  8
0
 10
-1.21352
 20
159.618
 11
-1.31445
 21
159.777
  0
LINE
  8
0
 10
-1.31445
 20
159.777
 11
-1.39465
 21
159.948
  0
LINE
  8
0
 10
-1.39465
 20
159.948
 11
-1.45287
 21
160.127
  0
LINE
  8
0
 10
-1.45287
 20
160.127
 11
-1.48816
 21
160.312
  0
LINE
  8
0
 10
-1.48816
 20
160.312
 11
-1.5
 21
160.5
  0
LINE
  8
0
 10
-1.5
 20
160.5
 11
-1.48816
 21
160.688
  0
LINE
  8
0
 10
-1.48816
 20
160.688
 11
-1.45287
 21
160.873
  0
LINE
  8
0
 10
-1.45287
 20
160.873
 11
-1.39465
 21
161.052
  0
LINE
  8
0
 10
-1.39465
 20
161.052
 11
-1.31445
 21
161.223
  0
LINE
  8
0
 10
-1.31445
 20
161.223
 11
-1.21352
 21
161.382
  0
LINE
  8
0
 10
-1.21352
 20
161.382
 11
-1.09344
 21
161.527
  0
LINE
  8
0
 10
-1.09344
 20
161.527
 11
-0.956131
 21
161.656
  0
LINE
  8
0
 10
-0.956131
 20
161.656
 11
-0.803726
 21
161.766
  0
LINE
  8
0
 10
-0.803726
 20
161.766
 11
-0.638657
 21
161.857
  0
LINE
  8
0
 10
-0.638657
 20
161.857
 11
-0.463516
 21
161.927
  0
LINE
  8
0
 10
-0.463516
 20
161.927
 11
-0.281067
 21
161.973
  0
LINE
  8
0
 10
-0.281067
 20
161.973
 11
-0.0941772
 21
161.997
  0
LINE
  8
0
 10
-0.0941772
 20
161.997
 11
0.0941772
 21
161.997
  0
LINE
  8
0
 10
0.0941772
 20
161.997
 11
0.281067
 21
161.973
  0
LINE
  8
0
 10
0.281067
 20
161.973
 11
0.463516
 21
161.927
  0
LINE
  8
0
 10
0.463516
 20
161.927
 11
0.638657
 21
161.857
  0
LINE
  8
0
 10
0.638657
 20
161.857
 11
0.803726
 21
161.766
  0
LINE
  8
0
 10
0.803726
 20
161.766
 11
0.956131
 21
161.656
  0
LINE
  8
0
 10
0.956131
 20
161.656
 11
1.09344
 21
161.527
  0
LINE
  8
0
 10
1.09344
 20
161.527
 11
1.21352
 21
161.382
  0
LINE
  8
0
 10
1.21352
 20
161.382
 11
1.31445
 21
161.223
  0
LINE
  8
0
 10
1.31445
 20
161.223
 11
1.39465
 21
161.052
  0
LINE
  8
0
 10
1.39465
 20
161.052
 11
1.45287
 21
160.873
  0
LINE
  8
0
 10
1.45287
 20
160.873
 11
1.48816
 21
160.688
  0
LINE
  8
0
 10
1.48816
 20
160.688
 11
1.5
 21
160.5
  0
LINE
  8
0
 10
1.5
 20
160.5
 11
1.48816
 21
160.312
  0
LINE
  8
0
 10
1.48816
 20
160.312
 11
1.45287
 21
160.127
  0
LINE
  8
0
 10
1.45287
 20
160.127
 11
1.39465
 21
159.948
  0
LINE
  8
0
 10
1.39465
 20
159.948
 11
1.31445
 21
159.777
  0
LINE
  8
0
 10
1.31445
 20
159.777
 11
1.21352
 21
159.618
  0
LINE
  8
0
 10
1.21352
 20
159.618
 11
1.09344
 21
159.473
  0
LINE
  8
0
 10
1.09344
 20
159.473
 11
0.956131
 21
159.344
  0
LINE
  8
0
 10
0.956131
 20
159.344
 11
0.803726
 21
159.234
  0
LINE
  8
0
 10
0.803726
 20
159.234
 11
0.638657
 21
159.143
  0
LINE
  8
0
 10
0.638657
 20
159.143
 11
0.463516
 21
159.073
  0
LINE
  8
0
 10
0.463516
 20
159.073
 11
0.281067
 21
159.027
  0
LINE
  8
0
 10
0.281067
 20
159.027
 11
0.0941772
 21
159.003
  0
LINE
  8
0
 10
0.0941772
 20
159.003
 11
-0.0941772
 21
159.003
  0
LINE
  8
0
 10
14.9058
 20
159.003
 11
14.7189
 21
159.027
  0
LINE
  8
0
 10
14.7189
 20
159.027
 11
14.5365
 21
159.073
  0
LINE
  8
0
 10
14.5365
 20
159.073
 11
14.3613
 21
159.143
  0
LINE
  8
0
 10
14.3613
 20
159.143
 11
14.1963
 21
159.234
  0
LINE
  8
0
 10
14.1963
 20
159.234
 11
14.0439
 21
159.344
  0
LINE
  8
0
 10
14.0439
 20
159.344
 11
13.9065
 21
159.473
  0
LINE
  8
0
 10
13.9065
 20
159.473
 11
13.7865
 21
159.618
  0
LINE
  8
0
 10
13.7865
 20
159.618
 11
13.6855
 21
159.777
  0
LINE
  8
0
 10
13.6855
 20
159.777
 11
13.6053
 21
159.948
  0
LINE
  8
0
 10
13.6053
 20
159.948
 11
13.5471
 21
160.127
  0
LINE
  8
0
 10
13.5471
 20
160.127
 11
13.5118
 21
160.312
  0
LINE
  8
0
 10
13.5118
 20
160.312
 11
13.5
 21
160.5
  0
LINE
  8
0
 10
13.5
 20
160.5
 11
13.5118
 21
160.688
  0
LINE
  8
0
 10
13.5118
 20
160.688
 11
13.5471
 21
160.873
  0
LINE
  8
0
 10
13.5471
 20
160.873
 11
13.6053
 21
161.052
  0
LINE
  8
0
 10
13.6053
 20
161.052
 11
13.6855
 21
161.223
  0
LINE
  8
0
 10
13.6855
 20
161.223
 11
13.7865
 21
161.382
  0
LINE
  8
0
 10
13.7865
 20
161.382
 11
13.9065
 21
161.527
  0
LINE
  8
0
 10
13.9065
 20
161.527
 11
14.0439
 21
161.656
  0
LINE
  8
0
 10
14.0439
 20
161.656
 11
14.1963
 21
161.766
  0
LINE
  8
0
 10
14.1963
 20
161.766
 11
14.3613
 21
161.857
  0
LINE
  8
0
 10
14.3613
 20
161.857
 11
14.5365
 21
161.927
  0
LINE
  8
0
 10
14.5365
 20
161.927
 11
14.7189
 21
161.973
  0
LINE
  8
0
 10
14.7189
 20
161.973
 11
14.9058
 21
161.997
  0
LINE
  8
0
 10
14.9058
 20
161.997
 11
15.0942
 21
161.997
  0
LINE
  8
0
 10
15.0942
 20
161.997
 11
15.2811
 21
161.973
  0
LINE
  8
0
 10
15.2811
 20
161.973
 11
15.4635
 21
161.927
  0
LINE
  8
0
 10
15.4635
 20
161.927
 11
15.6387
 21
161.857
  0
LINE
  8
0
 10
15.6387
 20
161.857
 11
15.8037
 21
161.766
  0
LINE
  8
0
 10
15.8037
 20
161.766
 11
15.9561
 21
161.656
  0
LINE
  8
0
 10
15.9561
 20
161.656
 11
16.0934
 21
161.527
  0
LINE
  8
0
 10
16.0934
 20
161.527
 11
16.2135
 21
161.382
  0
LINE
  8
0
 10
16.2135
 20
161.382
 11
16.3145
 21
161.223
  0
LINE
  8
0
 10
16.3145
 20
161.223
 11
16.3947
 21
161.052
  0
LINE
  8
0
 10
16.3947
 20
161.052
 11
16.4529
 21
160.873
  0
LINE
  8
0
 10
16.4529
 20
160.873
 11
16.4882
 21
160.688
  0
LINE
  8
0
 10
16.4882
 20
160.688
 11
16.5
 21
160.5
  0
LINE
  8
0
 10
16.5
 20
160.5
 11
16.4882
 21
160.312
  0
LINE
  8
0
 10
16.4882
 20
160.312
 11
16.4529
 21
160.127
  0
LINE
  8
0
 10
16.4529
 20
160.127
 11
16.3947
 21
159.948
  0
LINE
  8
0
 10
16.3947
 20
159.948
 11
16.3145
 21
159.777
  0
LINE
  8
0
 10
16.3145
 20
159.777
 11
16.2135
 21
159.618
  0
LINE
  8
0
 10
16.2135
 20
159.618
 11
16.0934
 21
159.473
  0
LINE
  8
0
 10
16.0934
 20
159.473
 11
15.9561
 21
159.344
  0
LINE
  8
0
 10
15.9561
 20
159.344
 11
15.8037
 21
159.234
  0
LINE
  8
0
 10
15.8037
 20
159.234
 11
15.6387
 21
159.143
  0
LINE
  8
0
 10
15.6387
 20
159.143
 11
15.4635
 21
159.073
  0
LINE
  8
0
 10
15.4635
 20
159.073
 11
15.2811
 21
159.027
  0
LINE
  8
0
 10
15.2811
 20
159.027
 11
15.0942
 21
159.003
  0
LINE
  8
0
 10
15.0942
 20
159.003
 11
14.9058
 21
159.003
  0
LINE
  8
0
 10
-7.59418
 20
159.003
 11
-7.78107
 21
159.027
  0
LINE
  8
0
 10
-7.78107
 20
159.027
 11
-7.96352
 21
159.073
  0
LINE
  8
0
 10
-7.96352
 20
159.073
 11
-8.13866
 21
159.143
  0
LINE
  8
0
 10
-8.13866
 20
159.143
 11
-8.30373
 21
159.234
  0
LINE
  8
0
 10
-8.30373
 20
159.234
 11
-8.45613
 21
159.344
  0
LINE
  8
0
 10
-8.45613
 20
159.344
 11
-8.59344
 21
159.473
  0
LINE
  8
0
 10
-8.59344
 20
159.473
 11
-8.71352
 21
159.618
  0
LINE
  8
0
 10
-8.71352
 20
159.618
 11
-8.81445
 21
159.777
  0
LINE
  8
0
 10
-8.81445
 20
159.777
 11
-8.89465
 21
159.948
  0
LINE
  8
0
 10
-8.89465
 20
159.948
 11
-8.95287
 21
160.127
  0
LINE
  8
0
 10
-8.95287
 20
160.127
 11
-8.98816
 21
160.312
  0
LINE
  8
0
 10
-8.98816
 20
160.312
 11
-9
 21
160.5
  0
LINE
  8
0
 10
-9
 20
160.5
 11
-8.98816
 21
160.688
  0
LINE
  8
0
 10
-8.98816
 20
160.688
 11
-8.95287
 21
160.873
  0
LINE
  8
0
 10
-8.95287
 20
160.873
 11
-8.89465
 21
161.052
  0
LINE
  8
0
 10
-8.89465
 20
161.052
 11
-8.81445
 21
161.223
  0
LINE
  8
0
 10
-8.81445
 20
161.223
 11
-8.71352
 21
161.382
  0
LINE
  8
0
 10
-8.71352
 20
161.382
 11
-8.59344
 21
161.527
  0
LINE
  8
0
 10
-8.59344
 20
161.527
 11
-8.45613
 21
161.656
  0
LINE
  8
0
 10
-8.45613
 20
161.656
 11
-8.30373
 21
161.766
  0
LINE
  8
0
 10
-8.30373
 20
161.766
 11
-8.13866
 21
161.857
  0
LINE
  8
0
 10
-8.13866
 20
161.857
 11
-7.96352
 21
161.927
  0
LINE
  8
0
 10
-7.96352
 20
161.927
 11
-7.78107
 21
161.973
  0
LINE
  8
0
 10
-7.78107
 20
161.973
 11
-7.59418
 21
161.997
  0
LINE
  8
0
 10
-7.59418
 20
161.997
 11
-7.40581
 21
161.997
  0
LINE
  8
0
 10
-7.40581
 20
161.997
 11
-7.21892
 21
161.973
  0
LINE
  8
0
 10
-7.21892
 20
161.973
 11
-7.03647
 21
161.927
  0
LINE
  8
0
 10
-7.03647
 20
161.927
 11
-6.86133
 21
161.857
  0
LINE
  8
0
 10
-6.86133
 20
161.857
 11
-6.69626
 21
161.766
  0
LINE
  8
0
 10
-6.69626
 20
161.766
 11
-6.54385
 21
161.656
  0
LINE
  8
0
 10
-6.54385
 20
161.656
 11
-6.40654
 21
161.527
  0
LINE
  8
0
 10
-6.40654
 20
161.527
 11
-6.28647
 21
161.382
  0
LINE
  8
0
 10
-6.28647
 20
161.382
 11
-6.18553
 21
161.223
  0
LINE
  8
0
 10
-6.18553
 20
161.223
 11
-6.10533
 21
161.052
  0
LINE
  8
0
 10
-6.10533
 20
161.052
 11
-6.04712
 21
160.873
  0
LINE
  8
0
 10
-6.04712
 20
160.873
 11
-6.01183
 21
160.688
  0
LINE
  8
0
 10
-6.01183
 20
160.688
 11
-6
 21
160.5
  0
LINE
  8
0
 10
-6
 20
160.5
 11
-6.01183
 21
160.312
  0
LINE
  8
0
 10
-6.01183
 20
160.312
 11
-6.04712
 21
160.127
  0
LINE
  8
0
 10
-6.04712
 20
160.127
 11
-6.10533
 21
159.948
  0
LINE
  8
0
 10
-6.10533
 20
159.948
 11
-6.18553
 21
159.777
  0
LINE
  8
0
 10
-6.18553
 20
159.777
 11
-6.28647
 21
159.618
  0
LINE
  8
0
 10
-6.28647
 20
159.618
 11
-6.40654
 21
159.473
  0
LINE
  8
0
 10
-6.40654
 20
159.473
 11
-6.54385
 21
159.344
  0
LINE
  8
0
 10
-6.54385
 20
159.344
 11
-6.69626
 21
159.234
  0
LINE
  8
0
 10
-6.69626
 20
159.234
 11
-6.86133
 21
159.143
  0
LINE
  8
0
 10
-6.86133
 20
159.143
 11
-7.03647
 21
159.073
  0
LINE
  8
0
 10
-7.03647
 20
159.073
 11
-7.21892
 21
159.027
  0
LINE
  8
0
 10
-7.21892
 20
159.027
 11
-7.40581
 21
159.003
  0
LINE
  8
0
 10
-7.40581
 20
159.003
 11
-7.59418
 21
159.003
  0
LINE
  8
0
 10
-15.0942
 20
159.003
 11
-15.2811
 21
159.027
  0
LINE
  8
0
 10
-15.2811
 20
159.027
 11
-15.4635
 21
159.073
  0
LINE
  8
0
 10
-15.4635
 20
159.073
 11
-15.6387
 21
159.143
  0
LINE
  8
0
 10
-15.6387
 20
159.143
 11
-15.8037
 21
159.234
  0
LINE
  8
0
 10
-15.8037
 20
159.234
 11
-15.9561
 21
159.344
  0
LINE
  8
0
 10
-15.9561
 20
159.344
 11
-16.0934
 21
159.473
  0
LINE
  8
0
 10
-16.0934
 20
159.473
 11
-16.2135
 21
159.618
  0
LINE
  8
0
 10
-16.2135
 20
159.618
 11
-16.3145
 21
159.777
  0
LINE
  8
0
 10
-16.3145
 20
159.777
 11
-16.3947
 21
159.948
  0
LINE
  8
0
 10
-16.3947
 20
159.948
 11
-16.4529
 21
160.127
  0
LINE
  8
0
 10
-16.4529
 20
160.127
 11
-16.4882
 21
160.312
  0
LINE
  8
0
 10
-16.4882
 20
160.312
 11
-16.5
 21
160.5
  0
LINE
  8
0
 10
-16.5
 20
160.5
 11
-16.4882
 21
160.688
  0
LINE
  8
0
 10
-16.4882
 20
160.688
 11
-16.4529
 21
160.873
  0
LINE
  8
0
 10
-16.4529
 20
160.873
 11
-16.3947
 21
161.052
  0
LINE
  8
0
 10
-16.3947
 20
161.052
 11
-16.3145
 21
161.223
  0
LINE
  8
0
 10
-16.3145
 20
161.223
 11
-16.2135
 21
161.382
  0
LINE
  8
0
 10
-16.2135
 20
161.382
 11
-16.0934
 21
161.527
  0
LINE
  8
0
 10
-16.0934
 20
161.527
 11
-15.9561
 21
161.656
  0
LINE
  8
0
 10
-15.9561
 20
161.656
 11
-15.8037
 21
161.766
  0
LINE
  8
0
 10
-15.8037
 20
161.766
 11
-15.6387
 21
161.857
  0
LINE
  8
0
 10
-15.6387
 20
161.857
 11
-15.4635
 21
161.927
  0
LINE
  8
0
 10
-15.4635
 20
161.927
 11
-15.2811
 21
161.973
  0
LINE
  8
0
 10
-15.2811
 20
161.973
 11
-15.0942
 21
161.997
  0
LINE
  8
0
 10
-15.0942
 20
161.997
 11
-14.9058
 21
161.997
  0
LINE
  8
0
 10
-14.9058
 20
161.997
 11
-14.7189
 21
161.973
  0
LINE
  8
0
 10
-14.7189
 20
161.973
 11
-14.5365
 21
161.927
  0
LINE
  8
0
 10
-14.5365
 20
161.927
 11
-14.3613
 21
161.857
  0
LINE
  8
0
 10
-14.3613
 20
161.857
 11
-14.1963
 21
161.766
  0
LINE
  8
0
 10
-14.1963
 20
161.766
 11
-14.0439
 21
161.656
  0
LINE
  8
0
 10
-14.0439
 20
161.656
 11
-13.9065
 21
161.527
  0
LINE
  8
0
 10
-13.9065
 20
161.527
 11
-13.7865
 21
161.382
  0
LINE
  8
0
 10
-13.7865
 20
161.382
 11
-13.6855
 21
161.223
  0
LINE
  8
0
 10
-13.6855
 20
161.223
 11
-13.6053
 21
161.052
  0
LINE
  8
0
 10
-13.6053
 20
161.052
 11
-13.5471
 21
160.873
  0
LINE
  8
0
 10
-13.5471
 20
160.873
 11
-13.5118
 21
160.688
  0
LINE
  8
0
 10
-13.5118
 20
160.688
 11
-13.5
 21
160.5
  0
LINE
  8
0
 10
-13.5
 20
160.5
 11
-13.5118
 21
160.312
  0
LINE
  8
0
 10
-13.5118
 20
160.312
 11
-13.5471
 21
160.127
  0
LINE
  8
0
 10
-13.5471
 20
160.127
 11
-13.6053
 21
159.948
  0
LINE
  8
0
 10
-13.6053
 20
159.948
 11
-13.6855
 21
159.777
  0
LINE
  8
0
 10
-13.6855
 20
159.777
 11
-13.7865
 21
159.618
  0
LINE
  8
0
 10
-13.7865
 20
159.618
 11
-13.9065
 21
159.473
  0
LINE
  8
0
 10
-13.9065
 20
159.473
 11
-14.0439
 21
159.344
  0
LINE
  8
0
 10
-14.0439
 20
159.344
 11
-14.1963
 21
159.234
  0
LINE
  8
0
 10
-14.1963
 20
159.234
 11
-14.3613
 21
159.143
  0
LINE
  8
0
 10
-14.3613
 20
159.143
 11
-14.5365
 21
159.073
  0
LINE
  8
0
 10
-14.5365
 20
159.073
 11
-14.7189
 21
159.027
  0
LINE
  8
0
 10
-14.7189
 20
159.027
 11
-14.9058
 21
159.003
  0
LINE
  8
0
 10
-14.9058
 20
159.003
 11
-15.0942
 21
159.003
  0
LINE
  8
0
 10
7.40581
 20
159.003
 11
7.21892
 21
159.027
  0
LINE
  8
0
 10
7.21892
 20
159.027
 11
7.03647
 21
159.073
  0
LINE
  8
0
 10
7.03647
 20
159.073
 11
6.86133
 21
159.143
  0
LINE
  8
0
 10
6.86133
 20
159.143
 11
6.69626
 21
159.234
  0
LINE
  8
0
 10
6.69626
 20
159.234
 11
6.54385
 21
159.344
  0
LINE
  8
0
 10
6.54385
 20
159.344
 11
6.40654
 21
159.473
  0
LINE
  8
0
 10
6.40654
 20
159.473
 11
6.28647
 21
159.618
  0
LINE
  8
0
 10
6.28647
 20
159.618
 11
6.18553
 21
159.777
  0
LINE
  8
0
 10
6.18553
 20
159.777
 11
6.10533
 21
159.948
  0
LINE
  8
0
 10
6.10533
 20
159.948
 11
6.04712
 21
160.127
  0
LINE
  8
0
 10
6.04712
 20
160.127
 11
6.01183
 21
160.312
  0
LINE
  8
0
 10
6.01183
 20
160.312
 11
6
 21
160.5
  0
LINE
  8
0
 10
6
 20
160.5
 11
6.01183
 21
160.688
  0
LINE
  8
0
 10
6.01183
 20
160.688
 11
6.04712
 21
160.873
  0
LINE
  8
0
 10
6.04712
 20
160.873
 11
6.10533
 21
161.052
  0
LINE
  8
0
 10
6.10533
 20
161.052
 11
6.18553
 21
161.223
  0
LINE
  8
0
 10
6.18553
 20
161.223
 11
6.28647
 21
161.382
  0
LINE
  8
0
 10
6.28647
 20
161.382
 11
6.40654
 21
161.527
  0
LINE
  8
0
 10
6.40654
 20
161.527
 11
6.54385
 21
161.656
  0
LINE
  8
0
 10
6.54385
 20
161.656
 11
6.69626
 21
161.766
  0
LINE
  8
0
 10
6.69626
 20
161.766
 11
6.86133
 21
161.857
  0
LINE
  8
0
 10
6.86133
 20
161.857
 11
7.03647
 21
161.927
  0
LINE
  8
0
 10
7.03647
 20
161.927
 11
7.21892
 21
161.973
  0
LINE
  8
0
 10
7.21892
 20
161.973
 11
7.40581
 21
161.997
  0
LINE
  8
0
 10
7.40581
 20
161.997
 11
7.59418
 21
161.997
  0
LINE
  8
0
 10
7.59418
 20
161.997
 11
7.78107
 21
161.973
  0
LINE
  8
0
 10
7.78107
 20
161.973
 11
7.96352
 21
161.927
  0
LINE
  8
0
 10
7.96352
 20
161.927
 11
8.13866
 21
161.857
  0
LINE
  8
0
 10
8.13866
 20
161.857
 11
8.30373
 21
161.766
  0
LINE
  8
0
 10
8.30373
 20
161.766
 11
8.45613
 21
161.656
  0
LINE
  8
0
 10
8.45613
 20
161.656
 11
8.59344
 21
161.527
  0
LINE
  8
0
 10
8.59344
 20
161.527
 11
8.71352
 21
161.382
  0
LINE
  8
0
 10
8.71352
 20
161.382
 11
8.81445
 21
161.223
  0
LINE
  8
0
 10
8.81445
 20
161.223
 11
8.89465
 21
161.052
  0
LINE
  8
0
 10
8.89465
 20
161.052
 11
8.95287
 21
160.873
  0
LINE
  8
0
 10
8.95287
 20
160.873
 11
8.98816
 21
160.688
  0
LINE
  8
0
 10
8.98816
 20
160.688
 11
9
 21
160.5
  0
LINE
  8
0
 10
9
 20
160.5
 11
8.98816
 21
160.312
  0
LINE
  8
0
 10
8.98816
 20
160.312
 11
8.95287
 21
160.127
  0
LINE
  8
0
 10
8.95287
 20
160.127
 11
8.89465
 21
159.948
  0
LINE
  8
0
 10
8.89465
 20
159.948
 11
8.81445
 21
159.777
  0
LINE
  8
0
 10
8.81445
 20
159.777
 11
8.71352
 21
159.618
  0
LINE
  8
0
 10
8.71352
 20
159.618
 11
8.59344
 21
159.473
  0
LINE
  8
0
 10
8.59344
 20
159.473
 11
8.45613
 21
159.344
  0
LINE
  8
0
 10
8.45613
 20
159.344
 11
8.30373
 21
159.234
  0
LINE
  8
0
 10
8.30373
 20
159.234
 11
8.13866
 21
159.143
  0
LINE
  8
0
 10
8.13866
 20
159.143
 11
7.96352
 21
159.073
  0
LINE
  8
0
 10
7.96352
 20
159.073
 11
7.78107
 21
159.027
  0
LINE
  8
0
 10
7.78107
 20
159.027
 11
7.59418
 21
159.003
  0
LINE
  8
0
 10
7.59418
 20
159.003
 11
7.40581
 21
159.003
  0
LINE
  8
0
 10
-0.0941772
 20
151.503
 11
-0.281067
 21
151.527
  0
LINE
  8
0
 10
-0.281067
 20
151.527
 11
-0.463516
 21
151.573
  0
LINE
  8
0
 10
-0.463516
 20
151.573
 11
-0.638657
 21
151.643
  0
LINE
  8
0
 10
-0.638657
 20
151.643
 11
-0.803726
 21
151.734
  0
LINE
  8
0
 10
-0.803726
 20
151.734
 11
-0.956131
 21
151.844
  0
LINE
  8
0
 10
-0.956131
 20
151.844
 11
-1.09344
 21
151.973
  0
LINE
  8
0
 10
-1.09344
 20
151.973
 11
-1.21352
 21
152.118
  0
LINE
  8
0
 10
-1.21352
 20
152.118
 11
-1.31445
 21
152.277
  0
LINE
  8
0
 10
-1.31445
 20
152.277
 11
-1.39465
 21
152.448
  0
LINE
  8
0
 10
-1.39465
 20
152.448
 11
-1.45287
 21
152.627
  0
LINE
  8
0
 10
-1.45287
 20
152.627
 11
-1.48816
 21
152.812
  0
LINE
  8
0
 10
-1.48816
 20
152.812
 11
-1.5
 21
153
  0
LINE
  8
0
 10
-1.5
 20
153
 11
-1.48816
 21
153.188
  0
LINE
  8
0
 10
-1.48816
 20
153.188
 11
-1.45287
 21
153.373
  0
LINE
  8
0
 10
-1.45287
 20
153.373
 11
-1.39465
 21
153.552
  0
LINE
  8
0
 10
-1.39465
 20
153.552
 11
-1.31445
 21
153.723
  0
LINE
  8
0
 10
-1.31445
 20
153.723
 11
-1.21352
 21
153.882
  0
LINE
  8
0
 10
-1.21352
 20
153.882
 11
-1.09344
 21
154.027
  0
LINE
  8
0
 10
-1.09344
 20
154.027
 11
-0.956131
 21
154.156
  0
LINE
  8
0
 10
-0.956131
 20
154.156
 11
-0.803726
 21
154.266
  0
LINE
  8
0
 10
-0.803726
 20
154.266
 11
-0.638657
 21
154.357
  0
LINE
  8
0
 10
-0.638657
 20
154.357
 11
-0.463516
 21
154.427
  0
LINE
  8
0
 10
-0.463516
 20
154.427
 11
-0.281067
 21
154.473
  0
LINE
  8
0
 10
-0.281067
 20
154.473
 11
-0.0941772
 21
154.497
  0
LINE
  8
0
 10
-0.0941772
 20
154.497
 11
0.0941772
 21
154.497
  0
LINE
  8
0
 10
0.0941772
 20
154.497
 11
0.281067
 21
154.473
  0
LINE
  8
0
 10
0.281067
 20
154.473
 11
0.463516
 21
154.427
  0
LINE
  8
0
 10
0.463516
 20
154.427
 11
0.638657
 21
154.357
  0
LINE
  8
0
 10
0.638657
 20
154.357
 11
0.803726
 21
154.266
  0
LINE
  8
0
 10
0.803726
 20
154.266
 11
0.956131
 21
154.156
  0
LINE
  8
0
 10
0.956131
 20
154.156
 11
1.09344
 21
154.027
  0
LINE
  8
0
 10
1.09344
 20
154.027
 11
1.21352
 21
153.882
  0
LINE
  8
0
 10
1.21352
 20
153.882
 11
1.31445
 21
153.723
  0
LINE
  8
0
 10
1.31445
 20
153.723
 11
1.39465
 21
153.552
  0
LINE
  8
0
 10
1.39465
 20
153.552
 11
1.45287
 21
153.373
  0
LINE
  8
0
 10
1.45287
 20
153.373
 11
1.48816
 21
153.188
  0
LINE
  8
0
 10
1.48816
 20
153.188
 11
1.5
 21
153
  0
LINE
  8
0
 10
1.5
 20
153
 11
1.48816
 21
152.812
  0
LINE
  8
0
 10
1.48816
 20
152.812
 11
1.45287
 21
152.627
  0
LINE
  8
0
 10
1.45287
 20
152.627
 11
1.39465
 21
152.448
  0
LINE
  8
0
 10
1.39465
 20
152.448
 11
1.31445
 21
152.277
  0
LINE
  8
0
 10
1.31445
 20
152.277
 11
1.21352
 21
152.118
  0
LINE
  8
0
 10
1.21352
 20
152.118
 11
1.09344
 21
151.973
  0
LINE
  8
0
 10
1.09344
 20
151.973
 11
0.956131
 21
151.844
  0
LINE
  8
0
 10
0.956131
 20
151.844
 11
0.803726
 21
151.734
  0
LINE
  8
0
 10
0.803726
 20
151.734
 11
0.638657
 21
151.643
  0
LINE
  8
0
 10
0.638657
 20
151.643
 11
0.463516
 21
151.573
  0
LINE
  8
0
 10
0.463516
 20
151.573
 11
0.281067
 21
151.527
  0
LINE
  8
0
 10
0.281067
 20
151.527
 11
0.0941772
 21
151.503
  0
LINE
  8
0
 10
0.0941772
 20
151.503
 11
-0.0941772
 21
151.503
  0
LINE
  8
0
 10
14.9058
 20
151.503
 11
14.7189
 21
151.527
  0
LINE
  8
0
 10
14.7189
 20
151.527
 11
14.5365
 21
151.573
  0
LINE
  8
0
 10
14.5365
 20
151.573
 11
14.3613
 21
151.643
  0
LINE
  8
0
 10
14.3613
 20
151.643
 11
14.1963
 21
151.734
  0
LINE
  8
0
 10
14.1963
 20
151.734
 11
14.0439
 21
151.844
  0
LINE
  8
0
 10
14.0439
 20
151.844
 11
13.9065
 21
151.973
  0
LINE
  8
0
 10
13.9065
 20
151.973
 11
13.7865
 21
152.118
  0
LINE
  8
0
 10
13.7865
 20
152.118
 11
13.6855
 21
152.277
  0
LINE
  8
0
 10
13.6855
 20
152.277
 11
13.6053
 21
152.448
  0
LINE
  8
0
 10
13.6053
 20
152.448
 11
13.5471
 21
152.627
  0
LINE
  8
0
 10
13.5471
 20
152.627
 11
13.5118
 21
152.812
  0
LINE
  8
0
 10
13.5118
 20
152.812
 11
13.5
 21
153
  0
LINE
  8
0
 10
13.5
 20
153
 11
13.5118
 21
153.188
  0
LINE
  8
0
 10
13.5118
 20
153.188
 11
13.5471
 21
153.373
  0
LINE
  8
0
 10
13.5471
 20
153.373
 11
13.6053
 21
153.552
  0
LINE
  8
0
 10
13.6053
 20
153.552
 11
13.6855
 21
153.723
  0
LINE
  8
0
 10
13.6855
 20
153.723
 11
13.7865
 21
153.882
  0
LINE
  8
0
 10
13.7865
 20
153.882
 11
13.9065
 21
154.027
  0
LINE
  8
0
 10
13.9065
 20
154.027
 11
14.0439
 21
154.156
  0
LINE
  8
0
 10
14.0439
 20
154.156
 11
14.1963
 21
154.266
  0
LINE
  8
0
 10
14.1963
 20
154.266
 11
14.3613
 21
154.357
  0
LINE
  8
0
 10
14.3613
 20
154.357
 11
14.5365
 21
154.427
  0
LINE
  8
0
 10
14.5365
 20
154.427
 11
14.7189
 21
154.473
  0
LINE
  8
0
 10
14.7189
 20
154.473
 11
14.9058
 21
154.497
  0
LINE
  8
0
 10
14.9058
 20
154.497
 11
15.0942
 21
154.497
  0
LINE
  8
0
 10
15.0942
 20
154.497
 11
15.2811
 21
154.473
  0
LINE
  8
0
 10
15.2811
 20
154.473
 11
15.4635
 21
154.427
  0
LINE
  8
0
 10
15.4635
 20
154.427
 11
15.6387
 21
154.357
  0
LINE
  8
0
 10
15.6387
 20
154.357
 11
15.8037
 21
154.266
  0
LINE
  8
0
 10
15.8037
 20
154.266
 11
15.9561
 21
154.156
  0
LINE
  8
0
 10
15.9561
 20
154.156
 11
16.0934
 21
154.027
  0
LINE
  8
0
 10
16.0934
 20
154.027
 11
16.2135
 21
153.882
  0
LINE
  8
0
 10
16.2135
 20
153.882
 11
16.3145
 21
153.723
  0
LINE
  8
0
 10
16.3145
 20
153.723
 11
16.3947
 21
153.552
  0
LINE
  8
0
 10
16.3947
 20
153.552
 11
16.4529
 21
153.373
  0
LINE
  8
0
 10
16.4529
 20
153.373
 11
16.4882
 21
153.188
  0
LINE
  8
0
 10
16.4882
 20
153.188
 11
16.5
 21
153
  0
LINE
  8
0
 10
16.5
 20
153
 11
16.4882
 21
152.812
  0
LINE
  8
0
 10
16.4882
 20
152.812
 11
16.4529
 21
152.627
  0
LINE
  8
0
 10
16.4529
 20
152.627
 11
16.3947
 21
152.448
  0
LINE
  8
0
 10
16.3947
 20
152.448
 11
16.3145
 21
152.277
  0
LINE
  8
0
 10
16.3145
 20
152.277
 11
16.2135
 21
152.118
  0
LINE
  8
0
 10
16.2135
 20
152.118
 11
16.0934
 21
151.973
  0
LINE
  8
0
 10
16.0934
 20
151.973
 11
15.9561
 21
151.844
  0
LINE
  8
0
 10
15.9561
 20
151.844
 11
15.8037
 21
151.734
  0
LINE
  8
0
 10
15.8037
 20
151.734
 11
15.6387
 21
151.643
  0
LINE
  8
0
 10
15.6387
 20
151.643
 11
15.4635
 21
151.573
  0
LINE
  8
0
 10
15.4635
 20
151.573
 11
15.2811
 21
151.527
  0
LINE
  8
0
 10
15.2811
 20
151.527
 11
15.0942
 21
151.503
  0
LINE
  8
0
 10
15.0942
 20
151.503
 11
14.9058
 21
151.503
  0
LINE
  8
0
 10
-7.59418
 20
151.503
 11
-7.78107
 21
151.527
  0
LINE
  8
0
 10
-7.78107
 20
151.527
 11
-7.96352
 21
151.573
  0
LINE
  8
0
 10
-7.96352
 20
151.573
 11
-8.13866
 21
151.643
  0
LINE
  8
0
 10
-8.13866
 20
151.643
 11
-8.30373
 21
151.734
  0
LINE
  8
0
 10
-8.30373
 20
151.734
 11
-8.45613
 21
151.844
  0
LINE
  8
0
 10
-8.45613
 20
151.844
 11
-8.59344
 21
151.973
  0
LINE
  8
0
 10
-8.59344
 20
151.973
 11
-8.71352
 21
152.118
  0
LINE
  8
0
 10
-8.71352
 20
152.118
 11
-8.81445
 21
152.277
  0
LINE
  8
0
 10
-8.81445
 20
152.277
 11
-8.89465
 21
152.448
  0
LINE
  8
0
 10
-8.89465
 20
152.448
 11
-8.95287
 21
152.627
  0
LINE
  8
0
 10
-8.95287
 20
152.627
 11
-8.98816
 21
152.812
  0
LINE
  8
0
 10
-8.98816
 20
152.812
 11
-9
 21
153
  0
LINE
  8
0
 10
-9
 20
153
 11
-8.98816
 21
153.188
  0
LINE
  8
0
 10
-8.98816
 20
153.188
 11
-8.95287
 21
153.373
  0
LINE
  8
0
 10
-8.95287
 20
153.373
 11
-8.89465
 21
153.552
  0
LINE
  8
0
 10
-8.89465
 20
153.552
 11
-8.81445
 21
153.723
  0
LINE
  8
0
 10
-8.81445
 20
153.723
 11
-8.71352
 21
153.882
  0
LINE
  8
0
 10
-8.71352
 20
153.882
 11
-8.59344
 21
154.027
  0
LINE
  8
0
 10
-8.59344
 20
154.027
 11
-8.45613
 21
154.156
  0
LINE
  8
0
 10
-8.45613
 20
154.156
 11
-8.30373
 21
154.266
  0
LINE
  8
0
 10
-8.30373
 20
154.266
 11
-8.13866
 21
154.357
  0
LINE
  8
0
 10
-8.13866
 20
154.357
 11
-7.96352
 21
154.427
  0
LINE
  8
0
 10
-7.96352
 20
154.427
 11
-7.78107
 21
154.473
  0
LINE
  8
0
 10
-7.78107
 20
154.473
 11
-7.59418
 21
154.497
  0
LINE
  8
0
 10
-7.59418
 20
154.497
 11
-7.40581
 21
154.497
  0
LINE
  8
0
 10
-7.40581
 20
154.497
 11
-7.21892
 21
154.473
  0
LINE
  8
0
 10
-7.21892
 20
154.473
 11
-7.03647
 21
154.427
  0
LINE
  8
0
 10
-7.03647
 20
154.427
 11
-6.86133
 21
154.357
  0
LINE
  8
0
 10
-6.86133
 20
154.357
 11
-6.69626
 21
154.266
  0
LINE
  8
0
 10
-6.69626
 20
154.266
 11
-6.54385
 21
154.156
  0
LINE
  8
0
 10
-6.54385
 20
154.156
 11
-6.40654
 21
154.027
  0
LINE
  8
0
 10
-6.40654
 20
154.027
 11
-6.28647
 21
153.882
  0
LINE
  8
0
 10
-6.28647
 20
153.882
 11
-6.18553
 21
153.723
  0
LINE
  8
0
 10
-6.18553
 20
153.723
 11
-6.10533
 21
153.552
  0
LINE
  8
0
 10
-6.10533
 20
153.552
 11
-6.04712
 21
153.373
  0
LINE
  8
0
 10
-6.04712
 20
153.373
 11
-6.01183
 21
153.188
  0
LINE
  8
0
 10
-6.01183
 20
153.188
 11
-6
 21
153
  0
LINE
  8
0
 10
-6
 20
153
 11
-6.01183
 21
152.812
  0
LINE
  8
0
 10
-6.01183
 20
152.812
 11
-6.04712
 21
152.627
  0
LINE
  8
0
 10
-6.04712
 20
152.627
 11
-6.10533
 21
152.448
  0
LINE
  8
0
 10
-6.10533
 20
152.448
 11
-6.18553
 21
152.277
  0
LINE
  8
0
 10
-6.18553
 20
152.277
 11
-6.28647
 21
152.118
  0
LINE
  8
0
 10
-6.28647
 20
152.118
 11
-6.40654
 21
151.973
  0
LINE
  8
0
 10
-6.40654
 20
151.973
 11
-6.54385
 21
151.844
  0
LINE
  8
0
 10
-6.54385
 20
151.844
 11
-6.69626
 21
151.734
  0
LINE
  8
0
 10
-6.69626
 20
151.734
 11
-6.86133
 21
151.643
  0
LINE
  8
0
 10
-6.86133
 20
151.643
 11
-7.03647
 21
151.573
  0
LINE
  8
0
 10
-7.03647
 20
151.573
 11
-7.21892
 21
151.527
  0
LINE
  8
0
 10
-7.21892
 20
151.527
 11
-7.40581
 21
151.503
  0
LINE
  8
0
 10
-7.40581
 20
151.503
 11
-7.59418
 21
151.503
  0
LINE
  8
0
 10
7.40581
 20
151.503
 11
7.21892
 21
151.527
  0
LINE
  8
0
 10
7.21892
 20
151.527
 11
7.03647
 21
151.573
  0
LINE
  8
0
 10
7.03647
 20
151.573
 11
6.86133
 21
151.643
  0
LINE
  8
0
 10
6.86133
 20
151.643
 11
6.69626
 21
151.734
  0
LINE
  8
0
 10
6.69626
 20
151.734
 11
6.54385
 21
151.844
  0
LINE
  8
0
 10
6.54385
 20
151.844
 11
6.40654
 21
151.973
  0
LINE
  8
0
 10
6.40654
 20
151.973
 11
6.28647
 21
152.118
  0
LINE
  8
0
 10
6.28647
 20
152.118
 11
6.18553
 21
152.277
  0
LINE
  8
0
 10
6.18553
 20
152.277
 11
6.10533
 21
152.448
  0
LINE
  8
0
 10
6.10533
 20
152.448
 11
6.04712
 21
152.627
  0
LINE
  8
0
 10
6.04712
 20
152.627
 11
6.01183
 21
152.812
  0
LINE
  8
0
 10
6.01183
 20
152.812
 11
6
 21
153
  0
LINE
  8
0
 10
6
 20
153
 11
6.01183
 21
153.188
  0
LINE
  8
0
 10
6.01183
 20
153.188
 11
6.04712
 21
153.373
  0
LINE
  8
0
 10
6.04712
 20
153.373
 11
6.10533
 21
153.552
  0
LINE
  8
0
 10
6.10533
 20
153.552
 11
6.18553
 21
153.723
  0
LINE
  8
0
 10
6.18553
 20
153.723
 11
6.28647
 21
153.882
  0
LINE
  8
0
 10
6.28647
 20
153.882
 11
6.40654
 21
154.027
  0
LINE
  8
0
 10
6.40654
 20
154.027
 11
6.54385
 21
154.156
  0
LINE
  8
0
 10
6.54385
 20
154.156
 11
6.69626
 21
154.266
  0
LINE
  8
0
 10
6.69626
 20
154.266
 11
6.86133
 21
154.357
  0
LINE
  8
0
 10
6.86133
 20
154.357
 11
7.03647
 21
154.427
  0
LINE
  8
0
 10
7.03647
 20
154.427
 11
7.21892
 21
154.473
  0
LINE
  8
0
 10
7.21892
 20
154.473
 11
7.40581
 21
154.497
  0
LINE
  8
0
 10
7.40581
 20
154.497
 11
7.59418
 21
154.497
  0
LINE
  8
0
 10
7.59418
 20
154.497
 11
7.78107
 21
154.473
  0
LINE
  8
0
 10
7.78107
 20
154.473
 11
7.96352
 21
154.427
  0
LINE
  8
0
 10
7.96352
 20
154.427
 11
8.13866
 21
154.357
  0
LINE
  8
0
 10
8.13866
 20
154.357
 11
8.30373
 21
154.266
  0
LINE
  8
0
 10
8.30373
 20
154.266
 11
8.45613
 21
154.156
  0
LINE
  8
0
 10
8.45613
 20
154.156
 11
8.59344
 21
154.027
  0
LINE
  8
0
 10
8.59344
 20
154.027
 11
8.71352
 21
153.882
  0
LINE
  8
0
 10
8.71352
 20
153.882
 11
8.81445
 21
153.723
  0
LINE
  8
0
 10
8.81445
 20
153.723
 11
8.89465
 21
153.552
  0
LINE
  8
0
 10
8.89465
 20
153.552
 11
8.95287
 21
153.373
  0
LINE
  8
0
 10
8.95287
 20
153.373
 11
8.98816
 21
153.188
  0
LINE
  8
0
 10
8.98816
 20
153.188
 11
9
 21
153
  0
LINE
  8
0
 10
9
 20
153
 11
8.98816
 21
152.812
  0
LINE
  8
0
 10
8.98816
 20
152.812
 11
8.95287
 21
152.627
  0
LINE
  8
0
 10
8.95287
 20
152.627
 11
8.89465
 21
152.448
  0
LINE
  8
0
 10
8.89465
 20
152.448
 11
8.81445
 21
152.277
  0
LINE
  8
0
 10
8.81445
 20
152.277
 11
8.71352
 21
152.118
  0
LINE
  8
0
 10
8.71352
 20
152.118
 11
8.59344
 21
151.973
  0
LINE
  8
0
 10
8.59344
 20
151.973
 11
8.45613
 21
151.844
  0
LINE
  8
0
 10
8.45613
 20
151.844
 11
8.30373
 21
151.734
  0
LINE
  8
0
 10
8.30373
 20
151.734
 11
8.13866
 21
151.643
  0
LINE
  8
0
 10
8.13866
 20
151.643
 11
7.96352
 21
151.573
  0
LINE
  8
0
 10
7.96352
 20
151.573
 11
7.78107
 21
151.527
  0
LINE
  8
0
 10
7.78107
 20
151.527
 11
7.59418
 21
151.503
  0
LINE
  8
0
 10
7.59418
 20
151.503
 11
7.40581
 21
151.503
  0
LINE
  8
0
 10
-15.0942
 20
151.503
 11
-15.2811
 21
151.527
  0
LINE
  8
0
 10
-15.2811
 20
151.527
 11
-15.4635
 21
151.573
  0
LINE
  8
0
 10
-15.4635
 20
151.573
 11
-15.6387
 21
151.643
  0
LINE
  8
0
 10
-15.6387
 20
151.643
 11
-15.8037
 21
151.734
  0
LINE
  8
0
 10
-15.8037
 20
151.734
 11
-15.9561
 21
151.844
  0
LINE
  8
0
 10
-15.9561
 20
151.844
 11
-16.0934
 21
151.973
  0
LINE
  8
0
 10
-16.0934
 20
151.973
 11
-16.2135
 21
152.118
  0
LINE
  8
0
 10
-16.2135
 20
152.118
 11
-16.3145
 21
152.277
  0
LINE
  8
0
 10
-16.3145
 20
152.277
 11
-16.3947
 21
152.448
  0
LINE
  8
0
 10
-16.3947
 20
152.448
 11
-16.4529
 21
152.627
  0
LINE
  8
0
 10
-16.4529
 20
152.627
 11
-16.4882
 21
152.812
  0
LINE
  8
0
 10
-16.4882
 20
152.812
 11
-16.5
 21
153
  0
LINE
  8
0
 10
-16.5
 20
153
 11
-16.4882
 21
153.188
  0
LINE
  8
0
 10
-16.4882
 20
153.188
 11
-16.4529
 21
153.373
  0
LINE
  8
0
 10
-16.4529
 20
153.373
 11
-16.3947
 21
153.552
  0
LINE
  8
0
 10
-16.3947
 20
153.552
 11
-16.3145
 21
153.723
  0
LINE
  8
0
 10
-16.3145
 20
153.723
 11
-16.2135
 21
153.882
  0
LINE
  8
0
 10
-16.2135
 20
153.882
 11
-16.0934
 21
154.027
  0
LINE
  8
0
 10
-16.0934
 20
154.027
 11
-15.9561
 21
154.156
  0
LINE
  8
0
 10
-15.9561
 20
154.156
 11
-15.8037
 21
154.266
  0
LINE
  8
0
 10
-15.8037
 20
154.266
 11
-15.6387
 21
154.357
  0
LINE
  8
0
 10
-15.6387
 20
154.357
 11
-15.4635
 21
154.427
  0
LINE
  8
0
 10
-15.4635
 20
154.427
 11
-15.2811
 21
154.473
  0
LINE
  8
0
 10
-15.2811
 20
154.473
 11
-15.0942
 21
154.497
  0
LINE
  8
0
 10
-15.0942
 20
154.497
 11
-14.9058
 21
154.497
  0
LINE
  8
0
 10
-14.9058
 20
154.497
 11
-14.7189
 21
154.473
  0
LINE
  8
0
 10
-14.7189
 20
154.473
 11
-14.5365
 21
154.427
  0
LINE
  8
0
 10
-14.5365
 20
154.427
 11
-14.3613
 21
154.357
  0
LINE
  8
0
 10
-14.3613
 20
154.357
 11
-14.1963
 21
154.266
  0
LINE
  8
0
 10
-14.1963
 20
154.266
 11
-14.0439
 21
154.156
  0
LINE
  8
0
 10
-14.0439
 20
154.156
 11
-13.9065
 21
154.027
  0
LINE
  8
0
 10
-13.9065
 20
154.027
 11
-13.7865
 21
153.882
  0
LINE
  8
0
 10
-13.7865
 20
153.882
 11
-13.6855
 21
153.723
  0
LINE
  8
0
 10
-13.6855
 20
153.723
 11
-13.6053
 21
153.552
  0
LINE
  8
0
 10
-13.6053
 20
153.552
 11
-13.5471
 21
153.373
  0
LINE
  8
0
 10
-13.5471
 20
153.373
 11
-13.5118
 21
153.188
  0
LINE
  8
0
 10
-13.5118
 20
153.188
 11
-13.5
 21
153
  0
LINE
  8
0
 10
-13.5
 20
153
 11
-13.5118
 21
152.812
  0
LINE
  8
0
 10
-13.5118
 20
152.812
 11
-13.5471
 21
152.627
  0
LINE
  8
0
 10
-13.5471
 20
152.627
 11
-13.6053
 21
152.448
  0
LINE
  8
0
 10
-13.6053
 20
152.448
 11
-13.6855
 21
152.277
  0
LINE
  8
0
 10
-13.6855
 20
152.277
 11
-13.7865
 21
152.118
  0
LINE
  8
0
 10
-13.7865
 20
152.118
 11
-13.9065
 21
151.973
  0
LINE
  8
0
 10
-13.9065
 20
151.973
 11
-14.0439
 21
151.844
  0
LINE
  8
0
 10
-14.0439
 20
151.844
 11
-14.1963
 21
151.734
  0
LINE
  8
0
 10
-14.1963
 20
151.734
 11
-14.3613
 21
151.643
  0
LINE
  8
0
 10
-14.3613
 20
151.643
 11
-14.5365
 21
151.573
  0
LINE
  8
0
 10
-14.5365
 20
151.573
 11
-14.7189
 21
151.527
  0
LINE
  8
0
 10
-14.7189
 20
151.527
 11
-14.9058
 21
151.503
  0
LINE
  8
0
 10
-14.9058
 20
151.503
 11
-15.0942
 21
151.503
  0
ENDSEC
  0
SECTION
  2
OBJECTS
  0
DICTIONARY
  0
ENDSEC
  0
EOF
