<?xml version="1.0" standalone="no"?>
<!DOCTYPE svg PUBLIC "-//W3C//DTD SVG 1.1//EN" "http://www.w3.org/Graphics/SVG/1.1/DTD/svg11.dtd">
<svg width="60mm" height="60mm" viewBox="-30 -30 60 60" xmlns="http://www.w3.org/2000/svg" version="1.1">
<title>OpenSCAD Model</title>
<path d="
M 25.4369,29.4114 L 26.0451,29.2553 L 26.6289,29.0241 L 27.1791,28.7216 L 27.6871,28.3526 L 28.1448,27.9227
 L 28.5451,27.4389 L 28.8815,26.9088 L 29.1489,26.3406 L 29.3429,25.7434 L 29.4606,25.1267 L 29.5,24.5
 L 29.5,-24.5 L 29.4606,-25.1267 L 29.3429,-25.7434 L 29.1489,-26.3406 L 28.8815,-26.9088 L 28.5451,-27.4389
 L 28.1448,-27.9227 L 27.6871,-28.3526 L 27.1791,-28.7216 L 26.6289,-29.0241 L 26.0451,-29.2553 L 25.4369,-29.4114
 L 24.8139,-29.4901 L -24.8139,-29.4901 L -25.4369,-29.4114 L -26.0451,-29.2553 L -26.6289,-29.0241 L -27.1791,-28.7216
 L -27.6871,-28.3526 L -28.1448,-27.9227 L -28.5451,-27.4389 L -28.8815,-26.9088 L -29.1489,-26.3406 L -29.3429,-25.7434
 L -29.4606,-25.1267 L -29.5,-24.5 L -29.5,24.5 L -29.4606,25.1267 L -29.3429,25.7434 L -29.1489,26.3406
 L -28.8815,26.9088 L -28.5451,27.4389 L -28.1448,27.9227 L -27.6871,28.3526 L -27.1791,28.7216 L -26.6289,29.0241
 L -26.0451,29.2553 L -25.4369,29.4114 L -24.8139,29.4901 L 24.8139,29.4901 z
M -22.6884,-19.5059 L -23.0621,-19.5531 L -23.427,-19.6468 L -23.7773,-19.7855 L -24.1075,-19.967 L -24.4123,-20.1884
 L -24.6869,-20.4464 L -24.927,-20.7366 L -25.1289,-21.0547 L -25.2893,-21.3956 L -25.4057,-21.7539 L -25.4763,-22.124
 L -25.5,-22.5 L -25.4763,-22.876 L -25.4057,-23.2461 L -25.2893,-23.6044 L -25.1289,-23.9453 L -24.927,-24.2634
 L -24.6869,-24.5536 L -24.4123,-24.8115 L -24.1075,-25.033 L -23.7773,-25.2145 L -23.427,-25.3532 L -23.0621,-25.4469
 L -22.6884,-25.4941 L -22.3116,-25.4941 L -21.9379,-25.4469 L -21.5729,-25.3532 L -21.2227,-25.2145 L -20.8925,-25.033
 L -20.5877,-24.8115 L -20.3131,-24.5536 L -20.0729,-24.2634 L -19.8711,-23.9453 L -19.7107,-23.6044 L -19.5942,-23.2461
 L -19.5237,-22.876 L -19.5,-22.5 L -19.5237,-22.124 L -19.5942,-21.7539 L -19.7107,-21.3956 L -19.8711,-21.0547
 L -20.0729,-20.7366 L -20.3131,-20.4464 L -20.5877,-20.1884 L -20.8925,-19.967 L -21.2227,-19.7855 L -21.5729,-19.6468
 L -21.9379,-19.5531 L -22.3116,-19.5059 z
M -7.68837,-19.5059 L -8.06213,-19.5531 L -8.42705,-19.6468 L -8.77733,-19.7855 L -9.10747,-19.967 L -9.41226,-20.1884
 L -9.6869,-20.4464 L -9.92705,-20.7366 L -10.1289,-21.0547 L -10.2893,-21.3956 L -10.4057,-21.7539 L -10.4763,-22.124
 L -10.5,-22.5 L -10.4763,-22.876 L -10.4057,-23.2461 L -10.2893,-23.6044 L -10.1289,-23.9453 L -9.92705,-24.2634
 L -9.6869,-24.5536 L -9.41226,-24.8115 L -9.10747,-25.033 L -8.77733,-25.2145 L -8.42705,-25.3532 L -8.06213,-25.4469
 L -7.68837,-25.4941 L -7.31161,-25.4941 L -6.93785,-25.4469 L -6.57294,-25.3532 L -6.22266,-25.2145 L -5.89252,-25.033
 L -5.58772,-24.8115 L -5.31308,-24.5536 L -5.07294,-24.2634 L -4.87108,-23.9453 L -4.71066,-23.6044 L -4.59424,-23.2461
 L -4.52365,-22.876 L -4.5,-22.5 L -4.52365,-22.124 L -4.59424,-21.7539 L -4.71066,-21.3956 L -4.87108,-21.0547
 L -5.07294,-20.7366 L -5.31308,-20.4464 L -5.58772,-20.1884 L -5.89252,-19.967 L -6.22266,-19.7855 L -6.57294,-19.6468
 L -6.93785,-19.5531 L -7.31161,-19.5059 z
M 7.31161,-19.5059 L 6.93785,-19.5531 L 6.57294,-19.6468 L 6.22266,-19.7855 L 5.89252,-19.967 L 5.58772,-20.1884
 L 5.31308,-20.4464 L 5.07294,-20.7366 L 4.87108,-21.0547 L 4.71066,-21.3956 L 4.59424,-21.7539 L 4.52365,-22.124
 L 4.5,-22.5 L 4.52365,-22.876 L 4.59424,-23.2461 L 4.71066,-23.6044 L 4.87108,-23.9453 L 5.07294,-24.2634
 L 5.31308,-24.5536 L 5.58772,-24.8115 L 5.89252,-25.033 L 6.22266,-25.2145 L 6.57294,-25.3532 L 6.93785,-25.4469
 L 7.31161,-25.4941 L 7.68837,-25.4941 L 8.06213,-25.4469 L 8.42705,-25.3532 L 8.77733,-25.2145 L 9.10747,-25.033
 L 9.41226,-24.8115 L 9.6869,-24.5536 L 9.92705,-24.2634 L 10.1289,-23.9453 L 10.2893,-23.6044 L 10.4057,-23.2461
 L 10.4763,-22.876 L 10.5,-22.5 L 10.4763,-22.124 L 10.4057,-21.7539 L 10.2893,-21.3956 L 10.1289,-21.0547
 L 9.92705,-20.7366 L 9.6869,-20.4464 L 9.41226,-20.1884 L 9.10747,-19.967 L 8.77733,-19.7855 L 8.42705,-19.6468
 L 8.06213,-19.5531 L 7.68837,-19.5059 z
M 22.3116,-19.5059 L 21.9379,-19.5531 L 21.5729,-19.6468 L 21.2227,-19.7855 L 20.8925,-19.967 L 20.5877,-20.1884
 L 20.3131,-20.4464 L 20.0729,-20.7366 L 19.8711,-21.0547 L 19.7107,-21.3956 L 19.5942,-21.7539 L 19.5237,-22.124
 L 19.5,-22.5 L 19.5237,-22.876 L 19.5942,-23.2461 L 19.7107,-23.6044 L 19.8711,-23.9453 L 20.0729,-24.2634
 L 20.3131,-24.5536 L 20.5877,-24.8115 L 20.8925,-25.033 L 21.2227,-25.2145 L 21.5729,-25.3532 L 21.9379,-25.4469
 L 22.3116,-25.4941 L 22.6884,-25.4941 L 23.0621,-25.4469 L 23.427,-25.3532 L 23.7773,-25.2145 L 24.1075,-25.033
 L 24.4123,-24.8115 L 24.6869,-24.5536 L 24.927,-24.2634 L 25.1289,-23.9453 L 25.2893,-23.6044 L 25.4057,-23.2461
 L 25.4763,-22.876 L 25.5,-22.5 L 25.4763,-22.124 L 25.4057,-21.7539 L 25.2893,-21.3956 L 25.1289,-21.0547
 L 24.927,-20.7366 L 24.6869,-20.4464 L 24.4123,-20.1884 L 24.1075,-19.967 L 23.7773,-19.7855 L 23.427,-19.6468
 L 23.0621,-19.5531 L 22.6884,-19.5059 z
M 22.3116,-4.50591 L 21.9379,-4.55313 L 21.5729,-4.64682 L 21.2227,-4.78551 L 20.8925,-4.96701 L 20.5877,-5.18845
 L 20.3131,-5.44635 L 20.0729,-5.73663 L 19.8711,-6.05473 L 19.7107,-6.39561 L 19.5942,-6.75392 L 19.5237,-7.12399
 L 19.5,-7.5 L 19.5237,-7.87599 L 19.5942,-8.24606 L 19.7107,-8.60437 L 19.8711,-8.94525 L 20.0729,-9.26335
 L 20.3131,-9.55363 L 20.5877,-9.81154 L 20.8925,-10.033 L 21.2227,-10.2145 L 21.5729,-10.3532 L 21.9379,-10.4469
 L 22.3116,-10.4941 L 22.6884,-10.4941 L 23.0621,-10.4469 L 23.427,-10.3532 L 23.7773,-10.2145 L 24.1075,-10.033
 L 24.4123,-9.81154 L 24.6869,-9.55363 L 24.927,-9.26335 L 25.1289,-8.94525 L 25.2893,-8.60437 L 25.4057,-8.24606
 L 25.4763,-7.87599 L 25.5,-7.5 L 25.4763,-7.12399 L 25.4057,-6.75392 L 25.2893,-6.39561 L 25.1289,-6.05473
 L 24.927,-5.73663 L 24.6869,-5.44635 L 24.4123,-5.18845 L 24.1075,-4.96701 L 23.7773,-4.78551 L 23.427,-4.64682
 L 23.0621,-4.55313 L 22.6884,-4.50591 z
M -22.6884,-4.50591 L -23.0621,-4.55313 L -23.427,-4.64682 L -23.7773,-4.78551 L -24.1075,-4.96701 L -24.4123,-5.18845
 L -24.6869,-5.44635 L -24.927,-5.73663 L -25.1289,-6.05473 L -25.2893,-6.39561 L -25.4057,-6.75392 L -25.4763,-7.12399
 L -25.5,-7.5 L -25.4763,-7.87599 L -25.4057,-8.24606 L -25.2893,-8.60437 L -25.1289,-8.94525 L -24.927,-9.26335
 L -24.6869,-9.55363 L -24.4123,-9.81154 L -24.1075,-10.033 L -23.7773,-10.2145 L -23.427,-10.3532 L -23.0621,-10.4469
 L -22.6884,-10.4941 L -22.3116,-10.4941 L -21.9379,-10.4469 L -21.5729,-10.3532 L -21.2227,-10.2145 L -20.8925,-10.033
 L -20.5877,-9.81154 L -20.3131,-9.55363 L -20.0729,-9.26335 L -19.8711,-8.94525 L -19.7107,-8.60437 L -19.5942,-8.24606
 L -19.5237,-7.87599 L -19.5,-7.5 L -19.5237,-7.12399 L -19.5942,-6.75392 L -19.7107,-6.39561 L -19.8711,-6.05473
 L -20.0729,-5.73663 L -20.3131,-5.44635 L -20.5877,-5.18845 L -20.8925,-4.96701 L -21.2227,-4.78551 L -21.5729,-4.64682
 L -21.9379,-4.55313 L -22.3116,-4.50591 z
M -7.68837,-4.50591 L -8.06213,-4.55313 L -8.42705,-4.64682 L -8.77733,-4.78551 L -9.10747,-4.96701 L -9.41226,-5.18845
 L -9.6869,-5.44635 L -9.92705,-5.73663 L -10.1289,-6.05473 L -10.2893,-6.39561 L -10.4057,-6.75392 L -10.4763,-7.12399
 L -10.5,-7.5 L -10.4763,-7.87599 L -10.4057,-8.24606 L -10.2893,-8.60437 L -10.1289,-8.94525 L -9.92705,-9.26335
 L -9.6869,-9.55363 L -9.41226,-9.81154 L -9.10747,-10.033 L -8.77733,-10.2145 L -8.42705,-10.3532 L -8.06213,-10.4469
 L -7.68837,-10.4941 L -7.31161,-10.4941 L -6.93785,-10.4469 L -6.57294,-10.3532 L -6.22266,-10.2145 L -5.89252,-10.033
 L -5.58772,-9.81154 L -5.31308,-9.55363 L -5.07294,-9.26335 L -4.87108,-8.94525 L -4.71066,-8.60437 L -4.59424,-8.24606
 L -4.52365,-7.87599 L -4.5,-7.5 L -4.52365,-7.12399 L -4.59424,-6.75392 L -4.71066,-6.39561 L -4.87108,-6.05473
 L -5.07294,-5.73663 L -5.31308,-5.44635 L -5.58772,-5.18845 L -5.89252,-4.96701 L -6.22266,-4.78551 L -6.57294,-4.64682
 L -6.93785,-4.55313 L -7.31161,-4.50591 z
M 7.31161,-4.50591 L 6.93785,-4.55313 L 6.57294,-4.64682 L 6.22266,-4.78551 L 5.89252,-4.96701 L 5.58772,-5.18845
 L 5.31308,-5.44635 L 5.07294,-5.73663 L 4.87108,-6.05473 L 4.71066,-6.39561 L 4.59424,-6.75392 L 4.52365,-7.12399
 L 4.5,-7.5 L 4.52365,-7.87599 L 4.59424,-8.24606 L 4.71066,-8.60437 L 4.87108,-8.94525 L 5.07294,-9.26335
 L 5.31308,-9.55363 L 5.58772,-9.81154 L 5.89252,-10.033 L 6.22266,-10.2145 L 6.57294,-10.3532 L 6.93785,-10.4469
 L 7.31161,-10.4941 L 7.68837,-10.4941 L 8.06213,-10.4469 L 8.42705,-10.3532 L 8.77733,-10.2145 L 9.10747,-10.033
 L 9.41226,-9.81154 L 9.6869,-9.55363 L 9.92705,-9.26335 L 10.1289,-8.94525 L 10.2893,-8.60437 L 10.4057,-8.24606
 L 10.4763,-7.87599 L 10.5,-7.5 L 10.4763,-7.12399 L 10.4057,-6.75392 L 10.2893,-6.39561 L 10.1289,-6.05473
 L 9.92705,-5.73663 L 9.6869,-5.44635 L 9.41226,-5.18845 L 9.10747,-4.96701 L 8.77733,-4.78551 L 8.42705,-4.64682
 L 8.06213,-4.55313 L 7.68837,-4.50591 z
M 22.3116,10.4941 L 21.9379,10.4469 L 21.5729,10.3532 L 21.2227,10.2145 L 20.8925,10.033 L 20.5877,9.81154
 L 20.3131,9.55363 L 20.0729,9.26335 L 19.8711,8.94525 L 19.7107,8.60437 L 19.5942,8.24606 L 19.5237,7.87599
 L 19.5,7.5 L 19.5237,7.12399 L 19.5942,6.75392 L 19.7107,6.39561 L 19.8711,6.05473 L 20.0729,5.73663
 L 20.3131,5.44635 L 20.5877,5.18845 L 20.8925,4.96701 L 21.2227,4.78551 L 21.5729,4.64682 L 21.9379,4.55313
 L 22.3116,4.50591 L 22.6884,4.50591 L 23.0621,4.55313 L 23.427,4.64682 L 23.7773,4.78551 L 24.1075,4.96701
 L 24.4123,5.18845 L 24.6869,5.44635 L 24.927,5.73663 L 25.1289,6.05473 L 25.2893,6.39561 L 25.4057,6.75392
 L 25.4763,7.12399 L 25.5,7.5 L 25.4763,7.87599 L 25.4057,8.24606 L 25.2893,8.60437 L 25.1289,8.94525
 L 24.927,9.26335 L 24.6869,9.55363 L 24.4123,9.81154 L 24.1075,10.033 L 23.7773,10.2145 L 23.427,10.3532
 L 23.0621,10.4469 L 22.6884,10.4941 z
M -22.6884,10.4941 L -23.0621,10.4469 L -23.427,10.3532 L -23.7773,10.2145 L -24.1075,10.033 L -24.4123,9.81154
 L -24.6869,9.55363 L -24.927,9.26335 L -25.1289,8.94525 L -25.2893,8.60437 L -25.4057,8.24606 L -25.4763,7.87599
 L -25.5,7.5 L -25.4763,7.12399 L -25.4057,6.75392 L -25.2893,6.39561 L -25.1289,6.05473 L -24.927,5.73663
 L -24.6869,5.44635 L -24.4123,5.18845 L -24.1075,4.96701 L -23.7773,4.78551 L -23.427,4.64682 L -23.0621,4.55313
 L -22.6884,4.50591 L -22.3116,4.50591 L -21.9379,4.55313 L -21.5729,4.64682 L -21.2227,4.78551 L -20.8925,4.96701
 L -20.5877,5.18845 L -20.3131,5.44635 L -20.0729,5.73663 L -19.8711,6.05473 L -19.7107,6.39561 L -19.5942,6.75392
 L -19.5237,7.12399 L -19.5,7.5 L -19.5237,7.87599 L -19.5942,8.24606 L -19.7107,8.60437 L -19.8711,8.94525
 L -20.0729,9.26335 L -20.3131,9.55363 L -20.5877,9.81154 L -20.8925,10.033 L -21.2227,10.2145 L -21.5729,10.3532
 L -21.9379,10.4469 L -22.3116,10.4941 z
M 7.31161,10.4941 L 6.93785,10.4469 L 6.57294,10.3532 L 6.22266,10.2145 L 5.89252,10.033 L 5.58772,9.81154
 L 5.31308,9.55363 L 5.07294,9.26335 L 4.87108,8.94525 L 4.71066,8.60437 L 4.59424,8.24606 L 4.52365,7.87599
 L 4.5,7.5 L 4.52365,7.12399 L 4.59424,6.75392 L 4.71066,6.39561 L 4.87108,6.05473 L 5.07294,5.73663
 L 5.31308,5.44635 L 5.58772,5.18845 L 5.89252,4.96701 L 6.22266,4.78551 L 6.57294,4.64682 L 6.93785,4.55313
 L 7.31161,4.50591 L 7.68837,4.50591 L 8.06213,4.55313 L 8.42705,4.64682 L 8.77733,4.78551 L 9.10747,4.96701
 L 9.41226,5.18845 L 9.6869,5.44635 L 9.92705,5.73663 L 10.1289,6.05473 L 10.2893,6.39561 L 10.4057,6.75392
 L 10.4763,7.12399 L 10.5,7.5 L 10.4763,7.87599 L 10.4057,8.24606 L 10.2893,8.60437 L 10.1289,8.94525
 L 9.92705,9.26335 L 9.6869,9.55363 L 9.41226,9.81154 L 9.10747,10.033 L 8.77733,10.2145 L 8.42705,10.3532
 L 8.06213,10.4469 L 7.68837,10.4941 z
M -7.68837,10.4941 L -8.06213,10.4469 L -8.42705,10.3532 L -8.77733,10.2145 L -9.10747,10.033 L -9.41226,9.81154
 L -9.6869,9.55363 L -9.92705,9.26335 L -10.1289,8.94525 L -10.2893,8.60437 L -10.4057,8.24606 L -10.4763,7.87599
 L -10.5,7.5 L -10.4763,7.12399 L -10.4057,6.75392 L -10.2893,6.39561 L -10.1289,6.05473 L -9.92705,5.73663
 L -9.6869,5.44635 L -9.41226,5.18845 L -9.10747,4.96701 L -8.77733,4.78551 L -8.42705,4.64682 L -8.06213,4.55313
 L -7.68837,4.50591 L -7.31161,4.50591 L -6.93785,4.55313 L -6.57294,4.64682 L -6.22266,4.78551 L -5.89252,4.96701
 L -5.58772,5.18845 L -5.31308,5.44635 L -5.07294,5.73663 L -4.87108,6.05473 L -4.71066,6.39561 L -4.59424,6.75392
 L -4.52365,7.12399 L -4.5,7.5 L -4.52365,7.87599 L -4.59424,8.24606 L -4.71066,8.60437 L -4.87108,8.94525
 L -5.07294,9.26335 L -5.31308,9.55363 L -5.58772,9.81154 L -5.89252,10.033 L -6.22266,10.2145 L -6.57294,10.3532
 L -6.93785,10.4469 L -7.31161,10.4941 z
M -22.6884,25.4941 L -23.0621,25.4469 L -23.427,25.3532 L -23.7773,25.2145 L -24.1075,25.033 L -24.4123,24.8115
 L -24.6869,24.5536 L -24.927,24.2634 L -25.1289,23.9453 L -25.2893,23.6044 L -25.4057,23.2461 L -25.4763,22.876
 L -25.5,22.5 L -25.4763,22.124 L -25.4057,21.7539 L -25.2893,21.3956 L -25.1289,21.0547 L -24.927,20.7366
 L -24.6869,20.4464 L -24.4123,20.1884 L -24.1075,19.967 L -23.7773,19.7855 L -23.427,19.6468 L -23.0621,19.5531
 L -22.6884,19.5059 L -22.3116,19.5059 L -21.9379,19.5531 L -21.5729,19.6468 L -21.2227,19.7855 L -20.8925,19.967
 L -20.5877,20.1884 L -20.3131,20.4464 L -20.0729,20.7366 L -19.8711,21.0547 L -19.7107,21.3956 L -19.5942,21.7539
 L -19.5237,22.124 L -19.5,22.5 L -19.5237,22.876 L -19.5942,23.2461 L -19.7107,23.6044 L -19.8711,23.9453
 L -20.0729,24.2634 L -20.3131,24.5536 L -20.5877,24.8115 L -20.8925,25.033 L -21.2227,25.2145 L -21.5729,25.3532
 L -21.9379,25.4469 L -22.3116,25.4941 z
M 22.3116,25.4941 L 21.9379,25.4469 L 21.5729,25.3532 L 21.2227,25.2145 L 20.8925,25.033 L 20.5877,24.8115
 L 20.3131,24.5536 L 20.0729,24.2634 L 19.8711,23.9453 L 19.7107,23.6044 L 19.5942,23.2461 L 19.5237,22.876
 L 19.5,22.5 L 19.5237,22.124 L 19.5942,21.7539 L 19.7107,21.3956 L 19.8711,21.0547 L 20.0729,20.7366
 L 20.3131,20.4464 L 20.5877,20.1884 L 20.8925,19.967 L 21.2227,19.7855 L 21.5729,19.6468 L 21.9379,19.5531
 L 22.3116,19.5059 L 22.6884,19.5059 L 23.0621,19.5531 L 23.427,19.6468 L 23.7773,19.7855 L 24.1075,19.967
 L 24.4123,20.1884 L 24.6869,20.4464 L 24.927,20.7366 L 25.1289,21.0547 L 25.2893,21.3956 L 25.4057,21.7539
 L 25.4763,22.124 L 25.5,22.5 L 25.4763,22.876 L 25.4057,23.2461 L 25.2893,23.6044 L 25.1289,23.9453
 L 24.927,24.2634 L 24.6869,24.5536 L 24.4123,24.8115 L 24.1075,25.033 L 23.7773,25.2145 L 23.427,25.3532
 L 23.0621,25.4469 L 22.6884,25.4941 z
M 7.31161,25.4941 L 6.93785,25.4469 L 6.57294,25.3532 L 6.22266,25.2145 L 5.89252,25.033 L 5.58772,24.8115
 L 5.31308,24.5536 L 5.07294,24.2634 L 4.87108,23.9453 L 4.71066,23.6044 L 4.59424,23.2461 L 4.52365,22.876
 L 4.5,22.5 L 4.52365,22.124 L 4.59424,21.7539 L 4.71066,21.3956 L 4.87108,21.0547 L 5.07294,20.7366
 L 5.31308,20.4464 L 5.58772,20.1884 L 5.89252,19.967 L 6.22266,19.7855 L 6.57294,19.6468 L 6.93785,19.5531
 L 7.31161,19.5059 L 7.68837,19.5059 L 8.06213,19.5531 L 8.42705,19.6468 L 8.77733,19.7855 L 9.10747,19.967
 L 9.41226,20.1884 L 9.6869,20.4464 L 9.92705,20.7366 L 10.1289,21.0547 L 10.2893,21.3956 L 10.4057,21.7539
 L 10.4763,22.124 L 10.5,22.5 L 10.4763,22.876 L 10.4057,23.2461 L 10.2893,23.6044 L 10.1289,23.9453
 L 9.92705,24.2634 L 9.6869,24.5536 L 9.41226,24.8115 L 9.10747,25.033 L 8.77733,25.2145 L 8.42705,25.3532
 L 8.06213,25.4469 L 7.68837,25.4941 z
M -7.68837,25.4941 L -8.06213,25.4469 L -8.42705,25.3532 L -8.77733,25.2145 L -9.10747,25.033 L -9.41226,24.8115
 L -9.6869,24.5536 L -9.92705,24.2634 L -10.1289,23.9453 L -10.2893,23.6044 L -10.4057,23.2461 L -10.4763,22.876
 L -10.5,22.5 L -10.4763,22.124 L -10.4057,21.7539 L -10.2893,21.3956 L -10.1289,21.0547 L -9.92705,20.7366
 L -9.6869,20.4464 L -9.41226,20.1884 L -9.10747,19.967 L -8.77733,19.7855 L -8.42705,19.6468 L -8.06213,19.5531
 L -7.68837,19.5059 L -7.31161,19.5059 L -6.93785,19.5531 L -6.57294,19.6468 L -6.22266,19.7855 L -5.89252,19.967
 L -5.58772,20.1884 L -5.31308,20.4464 L -5.07294,20.7366 L -4.87108,21.0547 L -4.71066,21.3956 L -4.59424,21.7539
 L -4.52365,22.124 L -4.5,22.5 L -4.52365,22.876 L -4.59424,23.2461 L -4.71066,23.6044 L -4.87108,23.9453
 L -5.07294,24.2634 L -5.31308,24.5536 L -5.58772,24.8115 L -5.89252,25.033 L -6.22266,25.2145 L -6.57294,25.3532
 L -6.93785,25.4469 L -7.31161,25.4941 z
" stroke="black" fill="lightgray" stroke-width="0.5"/>
</svg>
