<?xml version="1.0" standalone="no"?>
<!DOCTYPE svg PUBLIC "-//W3C//DTD SVG 1.1//EN" "http://www.w3.org/Graphics/SVG/1.1/DTD/svg11.dtd">
<svg width="30mm" height="147mm" viewBox="-15 -249 30 147" xmlns="http://www.w3.org/2000/svg" version="1.1">
<title>OpenSCAD Model</title>
<path d="
M 10.9369,-219.089 L 11.5451,-219.245 L 12.1289,-219.476 L 12.6791,-219.778 L 13.1871,-220.147 L 13.6448,-220.577
 L 14.0451,-221.061 L 14.3815,-221.591 L 14.6489,-222.159 L 14.8429,-222.757 L 14.9606,-223.373 L 15,-224
 L 15,-244 L 14.9606,-244.627 L 14.8429,-245.243 L 14.6489,-245.841 L 14.3815,-246.409 L 14.0451,-246.939
 L 13.6448,-247.423 L 13.1871,-247.853 L 12.6791,-248.222 L 12.1289,-248.524 L 11.5451,-248.755 L 10.9369,-248.911
 L 10.3139,-248.99 L -10.3139,-248.99 L -10.9369,-248.911 L -11.5451,-248.755 L -12.1289,-248.524 L -12.6791,-248.222
 L -13.1871,-247.853 L -13.6448,-247.423 L -14.0451,-246.939 L -14.3815,-246.409 L -14.6489,-245.841 L -14.8429,-245.243
 L -14.9606,-244.627 L -15,-244 L -15,-224 L -14.9606,-223.373 L -14.8429,-222.757 L -14.6489,-222.159
 L -14.3815,-221.591 L -14.0451,-221.061 L -13.6448,-220.577 L -13.1871,-220.147 L -12.6791,-219.778 L -12.1289,-219.476
 L -11.5451,-219.245 L -10.9369,-219.089 L -10.3139,-219.01 L 10.3139,-219.01 z
M -4.81104,-219.509 L -4.32086,-219.778 L -3.81287,-220.147 L -3.35515,-220.577 L -2.95491,-221.061 L -2.61845,-221.591
 L -2.3511,-222.159 L -2.15707,-222.757 L -2.03941,-223.373 L -2,-224 L -2,-227 L -2.03941,-227.627
 L -2.15707,-228.243 L -2.3511,-228.841 L -2.61845,-229.409 L -2.95491,-229.939 L -3.35515,-230.423 L -3.81287,-230.853
 L -4.32086,-231.222 L -4.87109,-231.524 L -5.45491,-231.755 L -6.06308,-231.911 L -6.68604,-231.99 L -10.3139,-231.99
 L -10.9369,-231.911 L -11.5451,-231.755 L -12.1289,-231.524 L -12.6791,-231.222 L -13.1871,-230.853 L -13.6448,-230.423
 L -14.0451,-229.939 L -14.3815,-229.409 L -14.5,-229.157 L -14.5,-244 L -14.4645,-244.564 L -14.3586,-245.119
 L -14.184,-245.657 L -13.9434,-246.168 L -13.6406,-246.645 L -13.2803,-247.08 L -12.8684,-247.467 L -12.4112,-247.799
 L -11.916,-248.072 L -11.3906,-248.28 L -10.8432,-248.42 L -10.2825,-248.491 L 10.2825,-248.491 L 10.8432,-248.42
 L 11.3906,-248.28 L 11.916,-248.072 L 12.4112,-247.799 L 12.8684,-247.467 L 13.2803,-247.08 L 13.6406,-246.645
 L 13.9434,-246.168 L 14.184,-245.657 L 14.3586,-245.119 L 14.4645,-244.564 L 14.5,-244 L 14.5,-224
 L 14.4645,-223.436 L 14.3586,-222.881 L 14.184,-222.343 L 13.9434,-221.832 L 13.6406,-221.355 L 13.2803,-220.92
 L 12.8684,-220.533 L 12.4112,-220.201 L 11.916,-219.928 L 11.3906,-219.72 L 10.8432,-219.58 L 10.2825,-219.509
 z
M 7.96844,-239.044 L 8.27254,-239.122 L 8.56444,-239.238 L 8.83955,-239.389 L 9.09355,-239.574 L 9.32242,-239.789
 L 9.52254,-240.031 L 9.69077,-240.296 L 9.82443,-240.58 L 9.92145,-240.878 L 9.98029,-241.187 L 10,-241.5
 L 9.98029,-241.813 L 9.92145,-242.122 L 9.82443,-242.42 L 9.69077,-242.704 L 9.52254,-242.969 L 9.32242,-243.211
 L 9.09355,-243.426 L 8.83955,-243.611 L 8.56444,-243.762 L 8.27254,-243.878 L 7.96844,-243.956 L 7.65697,-243.995
 L 7.34302,-243.995 L 7.03154,-243.956 L 6.72745,-243.878 L 6.43555,-243.762 L 6.16043,-243.611 L 5.90643,-243.426
 L 5.67757,-243.211 L 5.47745,-242.969 L 5.30922,-242.704 L 5.17555,-242.42 L 5.07854,-242.122 L 5.0197,-241.813
 L 5,-241.5 L 5.0197,-241.187 L 5.07854,-240.878 L 5.17555,-240.58 L 5.30922,-240.296 L 5.47745,-240.031
 L 5.67757,-239.789 L 5.90643,-239.574 L 6.16043,-239.389 L 6.43555,-239.238 L 6.72745,-239.122 L 7.03154,-239.044
 L 7.34302,-239.005 L 7.65697,-239.005 z
M 7.40581,-240.003 L 7.21892,-240.027 L 7.03647,-240.073 L 6.86133,-240.143 L 6.69626,-240.234 L 6.54385,-240.344
 L 6.40654,-240.473 L 6.28647,-240.618 L 6.18553,-240.777 L 6.10533,-240.948 L 6.04712,-241.127 L 6.01183,-241.312
 L 6,-241.5 L 6.01183,-241.688 L 6.04712,-241.873 L 6.10533,-242.052 L 6.18553,-242.223 L 6.28647,-242.382
 L 6.40654,-242.527 L 6.54385,-242.656 L 6.69626,-242.766 L 6.86133,-242.857 L 7.03647,-242.927 L 7.21892,-242.973
 L 7.40581,-242.997 L 7.59418,-242.997 L 7.78107,-242.973 L 7.96352,-242.927 L 8.13866,-242.857 L 8.30373,-242.766
 L 8.45613,-242.656 L 8.59344,-242.527 L 8.71352,-242.382 L 8.81445,-242.223 L 8.89465,-242.052 L 8.95287,-241.873
 L 8.98816,-241.688 L 9,-241.5 L 8.98816,-241.312 L 8.95287,-241.127 L 8.89465,-240.948 L 8.81445,-240.777
 L 8.71352,-240.618 L 8.59344,-240.473 L 8.45613,-240.344 L 8.30373,-240.234 L 8.13866,-240.143 L 7.96352,-240.073
 L 7.78107,-240.027 L 7.59418,-240.003 z
M -7.59418,-225.003 L -7.78107,-225.027 L -7.96352,-225.073 L -8.13866,-225.143 L -8.30373,-225.234 L -8.45613,-225.344
 L -8.59344,-225.473 L -8.71352,-225.618 L -8.81445,-225.777 L -8.89465,-225.948 L -8.95287,-226.127 L -8.98816,-226.312
 L -9,-226.5 L -8.98816,-226.688 L -8.95287,-226.873 L -8.89465,-227.052 L -8.81445,-227.223 L -8.71352,-227.382
 L -8.59344,-227.527 L -8.45613,-227.656 L -8.30373,-227.766 L -8.13866,-227.857 L -7.96352,-227.927 L -7.78107,-227.973
 L -7.59418,-227.997 L -7.40581,-227.997 L -7.21892,-227.973 L -7.03647,-227.927 L -6.86133,-227.857 L -6.69626,-227.766
 L -6.54385,-227.656 L -6.40654,-227.527 L -6.28647,-227.382 L -6.18553,-227.223 L -6.10533,-227.052 L -6.04712,-226.873
 L -6.01183,-226.688 L -6,-226.5 L -6.01183,-226.312 L -6.04712,-226.127 L -6.10533,-225.948 L -6.18553,-225.777
 L -6.28647,-225.618 L -6.40654,-225.473 L -6.54385,-225.344 L -6.69626,-225.234 L -6.86133,-225.143 L -7.03647,-225.073
 L -7.21892,-225.027 L -7.40581,-225.003 z
M 10.9369,-180.089 L 11.5451,-180.245 L 12.1289,-180.476 L 12.6791,-180.778 L 13.1871,-181.147 L 13.6448,-181.577
 L 14.0451,-182.061 L 14.3815,-182.591 L 14.6489,-183.159 L 14.8429,-183.757 L 14.9606,-184.373 L 15,-185
 L 15,-205 L 14.9606,-205.627 L 14.8429,-206.243 L 14.6489,-206.841 L 14.3815,-207.409 L 14.0451,-207.939
 L 13.6448,-208.423 L 13.1871,-208.853 L 12.6791,-209.222 L 12.1289,-209.524 L 11.5451,-209.755 L 10.9369,-209.911
 L 10.3139,-209.99 L -10.3139,-209.99 L -10.9369,-209.911 L -11.5451,-209.755 L -12.1289,-209.524 L -12.6791,-209.222
 L -13.1871,-208.853 L -13.6448,-208.423 L -14.0451,-207.939 L -14.3815,-207.409 L -14.6489,-206.841 L -14.8429,-206.243
 L -14.9606,-205.627 L -15,-205 L -15,-185 L -14.9606,-184.373 L -14.8429,-183.757 L -14.6489,-183.159
 L -14.3815,-182.591 L -14.0451,-182.061 L -13.6448,-181.577 L -13.1871,-181.147 L -12.6791,-180.778 L -12.1289,-180.476
 L -11.5451,-180.245 L -10.9369,-180.089 L -10.3139,-180.01 L 10.3139,-180.01 z
M -4.81104,-180.509 L -4.32086,-180.778 L -3.81287,-181.147 L -3.35515,-181.577 L -2.95491,-182.061 L -2.61845,-182.591
 L -2.3511,-183.159 L -2.15707,-183.757 L -2.03941,-184.373 L -2,-185 L -2,-188 L -2.03941,-188.627
 L -2.15707,-189.243 L -2.3511,-189.841 L -2.61845,-190.409 L -2.95491,-190.939 L -3.35515,-191.423 L -3.81287,-191.853
 L -4.32086,-192.222 L -4.87109,-192.524 L -5.45491,-192.755 L -6.06308,-192.911 L -6.68604,-192.99 L -10.3139,-192.99
 L -10.9369,-192.911 L -11.5451,-192.755 L -12.1289,-192.524 L -12.6791,-192.222 L -13.1871,-191.853 L -13.6448,-191.423
 L -14.0451,-190.939 L -14.3815,-190.409 L -14.5,-190.157 L -14.5,-205 L -14.4645,-205.564 L -14.3586,-206.119
 L -14.184,-206.657 L -13.9434,-207.168 L -13.6406,-207.645 L -13.2803,-208.08 L -12.8684,-208.467 L -12.4112,-208.799
 L -11.916,-209.072 L -11.3906,-209.28 L -10.8432,-209.42 L -10.2825,-209.491 L 10.2825,-209.491 L 10.8432,-209.42
 L 11.3906,-209.28 L 11.916,-209.072 L 12.4112,-208.799 L 12.8684,-208.467 L 13.2803,-208.08 L 13.6406,-207.645
 L 13.9434,-207.168 L 14.184,-206.657 L 14.3586,-206.119 L 14.4645,-205.564 L 14.5,-205 L 14.5,-185
 L 14.4645,-184.436 L 14.3586,-183.881 L 14.184,-183.343 L 13.9434,-182.832 L 13.6406,-182.355 L 13.2803,-181.92
 L 12.8684,-181.533 L 12.4112,-181.201 L 11.916,-180.928 L 11.3906,-180.72 L 10.8432,-180.58 L 10.2825,-180.509
 z
M 7.96844,-200.044 L 8.27254,-200.122 L 8.56444,-200.238 L 8.83955,-200.389 L 9.09355,-200.574 L 9.32242,-200.789
 L 9.52254,-201.031 L 9.69077,-201.296 L 9.82443,-201.58 L 9.92145,-201.878 L 9.98029,-202.187 L 10,-202.5
 L 9.98029,-202.813 L 9.92145,-203.122 L 9.82443,-203.42 L 9.69077,-203.704 L 9.52254,-203.969 L 9.32242,-204.211
 L 9.09355,-204.426 L 8.83955,-204.611 L 8.56444,-204.762 L 8.27254,-204.878 L 7.96844,-204.956 L 7.65697,-204.995
 L 7.34302,-204.995 L 7.03154,-204.956 L 6.72745,-204.878 L 6.43555,-204.762 L 6.16043,-204.611 L 5.90643,-204.426
 L 5.67757,-204.211 L 5.47745,-203.969 L 5.30922,-203.704 L 5.17555,-203.42 L 5.07854,-203.122 L 5.0197,-202.813
 L 5,-202.5 L 5.0197,-202.187 L 5.07854,-201.878 L 5.17555,-201.58 L 5.30922,-201.296 L 5.47745,-201.031
 L 5.67757,-200.789 L 5.90643,-200.574 L 6.16043,-200.389 L 6.43555,-200.238 L 6.72745,-200.122 L 7.03154,-200.044
 L 7.34302,-200.005 L 7.65697,-200.005 z
M 7.40581,-201.003 L 7.21892,-201.027 L 7.03647,-201.073 L 6.86133,-201.143 L 6.69626,-201.234 L 6.54385,-201.344
 L 6.40654,-201.473 L 6.28647,-201.618 L 6.18553,-201.777 L 6.10533,-201.948 L 6.04712,-202.127 L 6.01183,-202.312
 L 6,-202.5 L 6.01183,-202.688 L 6.04712,-202.873 L 6.10533,-203.052 L 6.18553,-203.223 L 6.28647,-203.382
 L 6.40654,-203.527 L 6.54385,-203.656 L 6.69626,-203.766 L 6.86133,-203.857 L 7.03647,-203.927 L 7.21892,-203.973
 L 7.40581,-203.997 L 7.59418,-203.997 L 7.78107,-203.973 L 7.96352,-203.927 L 8.13866,-203.857 L 8.30373,-203.766
 L 8.45613,-203.656 L 8.59344,-203.527 L 8.71352,-203.382 L 8.81445,-203.223 L 8.89465,-203.052 L 8.95287,-202.873
 L 8.98816,-202.688 L 9,-202.5 L 8.98816,-202.312 L 8.95287,-202.127 L 8.89465,-201.948 L 8.81445,-201.777
 L 8.71352,-201.618 L 8.59344,-201.473 L 8.45613,-201.344 L 8.30373,-201.234 L 8.13866,-201.143 L 7.96352,-201.073
 L 7.78107,-201.027 L 7.59418,-201.003 z
M -7.59418,-186.003 L -7.78107,-186.027 L -7.96352,-186.073 L -8.13866,-186.143 L -8.30373,-186.234 L -8.45613,-186.344
 L -8.59344,-186.473 L -8.71352,-186.618 L -8.81445,-186.777 L -8.89465,-186.948 L -8.95287,-187.127 L -8.98816,-187.312
 L -9,-187.5 L -8.98816,-187.688 L -8.95287,-187.873 L -8.89465,-188.052 L -8.81445,-188.223 L -8.71352,-188.382
 L -8.59344,-188.527 L -8.45613,-188.656 L -8.30373,-188.766 L -8.13866,-188.857 L -7.96352,-188.927 L -7.78107,-188.973
 L -7.59418,-188.997 L -7.40581,-188.997 L -7.21892,-188.973 L -7.03647,-188.927 L -6.86133,-188.857 L -6.69626,-188.766
 L -6.54385,-188.656 L -6.40654,-188.527 L -6.28647,-188.382 L -6.18553,-188.223 L -6.10533,-188.052 L -6.04712,-187.873
 L -6.01183,-187.688 L -6,-187.5 L -6.01183,-187.312 L -6.04712,-187.127 L -6.10533,-186.948 L -6.18553,-186.777
 L -6.28647,-186.618 L -6.40654,-186.473 L -6.54385,-186.344 L -6.69626,-186.234 L -6.86133,-186.143 L -7.03647,-186.073
 L -7.21892,-186.027 L -7.40581,-186.003 z
M 10.9369,-141.089 L 11.5451,-141.245 L 12.1289,-141.476 L 12.6791,-141.778 L 13.1871,-142.147 L 13.6448,-142.577
 L 14.0451,-143.061 L 14.3815,-143.591 L 14.6489,-144.159 L 14.8429,-144.757 L 14.9606,-145.373 L 15,-146
 L 15,-166 L 14.9606,-166.627 L 14.8429,-167.243 L 14.6489,-167.841 L 14.3815,-168.409 L 14.0451,-168.939
 L 13.6448,-169.423 L 13.1871,-169.853 L 12.6791,-170.222 L 12.1289,-170.524 L 11.5451,-170.755 L 10.9369,-170.911
 L 10.3139,-170.99 L -10.3139,-170.99 L -10.9369,-170.911 L -11.5451,-170.755 L -12.1289,-170.524 L -12.6791,-170.222
 L -13.1871,-169.853 L -13.6448,-169.423 L -14.0451,-168.939 L -14.3815,-168.409 L -14.6489,-167.841 L -14.8429,-167.243
 L -14.9606,-166.627 L -15,-166 L -15,-146 L -14.9606,-145.373 L -14.8429,-144.757 L -14.6489,-144.159
 L -14.3815,-143.591 L -14.0451,-143.061 L -13.6448,-142.577 L -13.1871,-142.147 L -12.6791,-141.778 L -12.1289,-141.476
 L -11.5451,-141.245 L -10.9369,-141.089 L -10.3139,-141.01 L 10.3139,-141.01 z
M -4.03568,-141.986 L -3.81287,-142.147 L -3.35515,-142.577 L -2.95491,-143.061 L -2.61845,-143.591 L -2.3511,-144.159
 L -2.15707,-144.757 L -2.03941,-145.373 L -2,-146 L -2,-149 L -2.03941,-149.627 L -2.15707,-150.243
 L -2.3511,-150.841 L -2.61845,-151.409 L -2.95491,-151.939 L -3.35515,-152.423 L -3.81287,-152.853 L -4.32086,-153.222
 L -4.87109,-153.524 L -5.45491,-153.755 L -6.06308,-153.911 L -6.68604,-153.99 L -10.3139,-153.99 L -10.9369,-153.911
 L -11.5451,-153.755 L -12.1289,-153.524 L -12.6791,-153.222 L -13.1871,-152.853 L -13.6448,-152.423 L -14.0224,-151.966
 L -14.0224,-166 L -13.9907,-166.504 L -13.896,-167 L -13.7399,-167.481 L -13.5248,-167.938 L -13.2542,-168.364
 L -12.9322,-168.754 L -12.5639,-169.099 L -12.1553,-169.396 L -11.7126,-169.64 L -11.243,-169.826 L -10.7537,-169.951
 L -10.2526,-170.014 L 4.03568,-170.014 L 3.81287,-169.853 L 3.35515,-169.423 L 2.95491,-168.939 L 2.61845,-168.409
 L 2.3511,-167.841 L 2.15707,-167.243 L 2.03941,-166.627 L 2,-166 L 2,-163 L 2.03941,-162.373
 L 2.15707,-161.757 L 2.3511,-161.159 L 2.61845,-160.591 L 2.95491,-160.061 L 3.35515,-159.577 L 3.81287,-159.147
 L 4.32086,-158.778 L 4.87109,-158.476 L 5.45491,-158.245 L 6.06308,-158.089 L 6.68604,-158.01 L 10.3139,-158.01
 L 10.9369,-158.089 L 11.5451,-158.245 L 12.1289,-158.476 L 12.6791,-158.778 L 13.1871,-159.147 L 13.6448,-159.577
 L 14.0224,-160.034 L 14.0224,-146 L 13.9907,-145.496 L 13.896,-145 L 13.7399,-144.519 L 13.5248,-144.062
 L 13.2542,-143.636 L 12.9322,-143.246 L 12.5639,-142.901 L 12.1553,-142.604 L 11.7126,-142.36 L 11.243,-142.174
 L 10.7537,-142.049 L 10.2526,-141.986 z
M 7.40581,-162.003 L 7.21892,-162.027 L 7.03647,-162.073 L 6.86133,-162.143 L 6.69626,-162.234 L 6.54385,-162.344
 L 6.40654,-162.473 L 6.28647,-162.618 L 6.18553,-162.777 L 6.10533,-162.948 L 6.04712,-163.127 L 6.01183,-163.312
 L 6,-163.5 L 6.01183,-163.688 L 6.04712,-163.873 L 6.10533,-164.052 L 6.18553,-164.223 L 6.28647,-164.382
 L 6.40654,-164.527 L 6.54385,-164.656 L 6.69626,-164.766 L 6.86133,-164.857 L 7.03647,-164.927 L 7.21892,-164.973
 L 7.40581,-164.997 L 7.59418,-164.997 L 7.78107,-164.973 L 7.96352,-164.927 L 8.13866,-164.857 L 8.30373,-164.766
 L 8.45613,-164.656 L 8.59344,-164.527 L 8.71352,-164.382 L 8.81445,-164.223 L 8.89465,-164.052 L 8.95287,-163.873
 L 8.98816,-163.688 L 9,-163.5 L 8.98816,-163.312 L 8.95287,-163.127 L 8.89465,-162.948 L 8.81445,-162.777
 L 8.71352,-162.618 L 8.59344,-162.473 L 8.45613,-162.344 L 8.30373,-162.234 L 8.13866,-162.143 L 7.96352,-162.073
 L 7.78107,-162.027 L 7.59418,-162.003 z
M -7.59418,-147.003 L -7.78107,-147.027 L -7.96352,-147.073 L -8.13866,-147.143 L -8.30373,-147.234 L -8.45613,-147.344
 L -8.59344,-147.473 L -8.71352,-147.618 L -8.81445,-147.777 L -8.89465,-147.948 L -8.95287,-148.127 L -8.98816,-148.312
 L -9,-148.5 L -8.98816,-148.688 L -8.95287,-148.873 L -8.89465,-149.052 L -8.81445,-149.223 L -8.71352,-149.382
 L -8.59344,-149.527 L -8.45613,-149.656 L -8.30373,-149.766 L -8.13866,-149.857 L -7.96352,-149.927 L -7.78107,-149.973
 L -7.59418,-149.997 L -7.40581,-149.997 L -7.21892,-149.973 L -7.03647,-149.927 L -6.86133,-149.857 L -6.69626,-149.766
 L -6.54385,-149.656 L -6.40654,-149.527 L -6.28647,-149.382 L -6.18553,-149.223 L -6.10533,-149.052 L -6.04712,-148.873
 L -6.01183,-148.688 L -6,-148.5 L -6.01183,-148.312 L -6.04712,-148.127 L -6.10533,-147.948 L -6.18553,-147.777
 L -6.28647,-147.618 L -6.40654,-147.473 L -6.54385,-147.344 L -6.69626,-147.234 L -6.86133,-147.143 L -7.03647,-147.073
 L -7.21892,-147.027 L -7.40581,-147.003 z
M 10.9369,-102.089 L 11.5451,-102.245 L 12.1289,-102.476 L 12.6791,-102.778 L 13.1871,-103.147 L 13.6448,-103.577
 L 14.0451,-104.061 L 14.3815,-104.591 L 14.6489,-105.159 L 14.8429,-105.757 L 14.9606,-106.373 L 15,-107
 L 15,-127 L 14.9606,-127.627 L 14.8429,-128.243 L 14.6489,-128.841 L 14.3815,-129.409 L 14.0451,-129.939
 L 13.6448,-130.423 L 13.1871,-130.853 L 12.6791,-131.222 L 12.1289,-131.524 L 11.5451,-131.755 L 10.9369,-131.911
 L 10.3139,-131.99 L -10.3139,-131.99 L -10.9369,-131.911 L -11.5451,-131.755 L -12.1289,-131.524 L -12.6791,-131.222
 L -13.1871,-130.853 L -13.6448,-130.423 L -14.0451,-129.939 L -14.3815,-129.409 L -14.6489,-128.841 L -14.8429,-128.243
 L -14.9606,-127.627 L -15,-127 L -15,-107 L -14.9606,-106.373 L -14.8429,-105.757 L -14.6489,-105.159
 L -14.3815,-104.591 L -14.0451,-104.061 L -13.6448,-103.577 L -13.1871,-103.147 L -12.6791,-102.778 L -12.1289,-102.476
 L -11.5451,-102.245 L -10.9369,-102.089 L -10.3139,-102.01 L 10.3139,-102.01 z
M 7.34929,-122.105 L 7.05028,-122.143 L 6.75835,-122.217 L 6.47812,-122.328 L 6.214,-122.474 L 5.97017,-122.651
 L 5.75047,-122.857 L 5.55835,-123.089 L 5.39685,-123.344 L 5.26852,-123.617 L 5.1754,-123.903 L 5.11891,-124.199
 L 5.09999,-124.5 L 5.11891,-124.801 L 5.1754,-125.097 L 5.26852,-125.383 L 5.39685,-125.656 L 5.55835,-125.911
 L 5.75047,-126.143 L 5.97017,-126.349 L 6.214,-126.526 L 6.47812,-126.672 L 6.75835,-126.783 L 7.05028,-126.857
 L 7.34929,-126.895 L 7.6507,-126.895 L 7.94971,-126.857 L 8.24164,-126.783 L 8.52187,-126.672 L 8.78598,-126.526
 L 9.02982,-126.349 L 9.24951,-126.143 L 9.44164,-125.911 L 9.60313,-125.656 L 9.73146,-125.383 L 9.82458,-125.097
 L 9.88107,-124.801 L 9.89999,-124.5 L 9.88107,-124.199 L 9.82458,-123.903 L 9.73146,-123.617 L 9.60313,-123.344
 L 9.44164,-123.089 L 9.24951,-122.857 L 9.02982,-122.651 L 8.78598,-122.474 L 8.52187,-122.328 L 8.24164,-122.217
 L 7.94971,-122.143 L 7.6507,-122.105 z
M -7.59418,-123.003 L -7.78107,-123.027 L -7.96352,-123.073 L -8.13866,-123.143 L -8.30373,-123.234 L -8.45613,-123.344
 L -8.59344,-123.473 L -8.71352,-123.618 L -8.81445,-123.777 L -8.89465,-123.948 L -8.95287,-124.127 L -8.98816,-124.312
 L -9,-124.5 L -8.98816,-124.688 L -8.95287,-124.873 L -8.89465,-125.052 L -8.81445,-125.223 L -8.71352,-125.382
 L -8.59344,-125.527 L -8.45613,-125.656 L -8.30373,-125.766 L -8.13866,-125.857 L -7.96352,-125.927 L -7.78107,-125.973
 L -7.59418,-125.997 L -7.40581,-125.997 L -7.21892,-125.973 L -7.03647,-125.927 L -6.86133,-125.857 L -6.69626,-125.766
 L -6.54385,-125.656 L -6.40654,-125.527 L -6.28647,-125.382 L -6.18553,-125.223 L -6.10533,-125.052 L -6.04712,-124.873
 L -6.01183,-124.688 L -6,-124.5 L -6.01183,-124.312 L -6.04712,-124.127 L -6.10533,-123.948 L -6.18553,-123.777
 L -6.28647,-123.618 L -6.40654,-123.473 L -6.54385,-123.344 L -6.69626,-123.234 L -6.86133,-123.143 L -7.03647,-123.073
 L -7.21892,-123.027 L -7.40581,-123.003 z
M -7.6507,-107.105 L -7.94971,-107.143 L -8.24164,-107.217 L -8.52187,-107.328 L -8.78598,-107.474 L -9.02982,-107.651
 L -9.24951,-107.857 L -9.44164,-108.089 L -9.60313,-108.344 L -9.73146,-108.617 L -9.82458,-108.903 L -9.88107,-109.199
 L -9.89999,-109.5 L -9.88107,-109.801 L -9.82458,-110.097 L -9.73146,-110.383 L -9.60313,-110.656 L -9.44164,-110.911
 L -9.24951,-111.143 L -9.02982,-111.349 L -8.78598,-111.526 L -8.52187,-111.672 L -8.24164,-111.783 L -7.94971,-111.857
 L -7.6507,-111.895 L -7.34929,-111.895 L -7.05028,-111.857 L -6.75835,-111.783 L -6.47812,-111.672 L -6.214,-111.526
 L -5.97017,-111.349 L -5.75047,-111.143 L -5.55835,-110.911 L -5.39685,-110.656 L -5.26852,-110.383 L -5.1754,-110.097
 L -5.11891,-109.801 L -5.09999,-109.5 L -5.11891,-109.199 L -5.1754,-108.903 L -5.26852,-108.617 L -5.39685,-108.344
 L -5.55835,-108.089 L -5.75047,-107.857 L -5.97017,-107.651 L -6.214,-107.474 L -6.47812,-107.328 L -6.75835,-107.217
 L -7.05028,-107.143 L -7.34929,-107.105 z
M 7.40581,-108.003 L 7.21892,-108.027 L 7.03647,-108.073 L 6.86133,-108.143 L 6.69626,-108.234 L 6.54385,-108.344
 L 6.40654,-108.473 L 6.28647,-108.618 L 6.18553,-108.777 L 6.10533,-108.948 L 6.04712,-109.127 L 6.01183,-109.312
 L 6,-109.5 L 6.01183,-109.688 L 6.04712,-109.873 L 6.10533,-110.052 L 6.18553,-110.223 L 6.28647,-110.382
 L 6.40654,-110.527 L 6.54385,-110.656 L 6.69626,-110.766 L 6.86133,-110.857 L 7.03647,-110.927 L 7.21892,-110.973
 L 7.40581,-110.997 L 7.59418,-110.997 L 7.78107,-110.973 L 7.96352,-110.927 L 8.13866,-110.857 L 8.30373,-110.766
 L 8.45613,-110.656 L 8.59344,-110.527 L 8.71352,-110.382 L 8.81445,-110.223 L 8.89465,-110.052 L 8.95287,-109.873
 L 8.98816,-109.688 L 9,-109.5 L 8.98816,-109.312 L 8.95287,-109.127 L 8.89465,-108.948 L 8.81445,-108.777
 L 8.71352,-108.618 L 8.59344,-108.473 L 8.45613,-108.344 L 8.30373,-108.234 L 8.13866,-108.143 L 7.96352,-108.073
 L 7.78107,-108.027 L 7.59418,-108.003 z
" stroke="black" fill="lightgray" stroke-width="0.5"/>
</svg>
