<?xml version="1.0" standalone="no"?>
<!DOCTYPE svg PUBLIC "-//W3C//DTD SVG 1.1//EN" "http://www.w3.org/Graphics/SVG/1.1/DTD/svg11.dtd">
<svg width="46mm" height="208mm" viewBox="-23 -347 46 208" xmlns="http://www.w3.org/2000/svg" version="1.1">
<title>OpenSCAD Model</title>
<path d="
M 18.4369,-301.589 L 19.0451,-301.745 L 19.6289,-301.976 L 20.1791,-302.278 L 20.6871,-302.647 L 21.1448,-303.077
 L 21.5451,-303.561 L 21.8815,-304.091 L 22.1489,-304.659 L 22.3429,-305.257 L 22.4606,-305.873 L 22.5,-306.5
 L 22.5,-341.5 L 22.4606,-342.127 L 22.3429,-342.743 L 22.1489,-343.341 L 21.8815,-343.909 L 21.5451,-344.439
 L 21.1448,-344.923 L 20.6871,-345.353 L 20.1791,-345.722 L 19.6289,-346.024 L 19.0451,-346.255 L 18.4369,-346.411
 L 17.8139,-346.49 L -17.8139,-346.49 L -18.4369,-346.411 L -19.0451,-346.255 L -19.6289,-346.024 L -20.1791,-345.722
 L -20.6871,-345.353 L -21.1448,-344.923 L -21.5451,-344.439 L -21.8815,-343.909 L -22.1489,-343.341 L -22.3429,-342.743
 L -22.4606,-342.127 L -22.5,-341.5 L -22.5,-306.5 L -22.4606,-305.873 L -22.3429,-305.257 L -22.1489,-304.659
 L -21.8815,-304.091 L -21.5451,-303.561 L -21.1448,-303.077 L -20.6871,-302.647 L -20.1791,-302.278 L -19.6289,-301.976
 L -19.0451,-301.745 L -18.4369,-301.589 L -17.8139,-301.51 L 17.8139,-301.51 z
M -17.5482,-302.009 L -18.1401,-302.084 L -18.7178,-302.232 L -19.2724,-302.452 L -19.7952,-302.739 L -20.2778,-303.09
 L -20.7126,-303.498 L -21.0928,-303.958 L -21.4124,-304.462 L -21.6664,-305.001 L -21.8508,-305.569 L -21.9625,-306.155
 L -22,-306.75 L -22,-341.25 L -21.9625,-341.845 L -21.8508,-342.431 L -21.6664,-342.999 L -21.4124,-343.538
 L -21.0928,-344.042 L -20.7126,-344.502 L -20.2778,-344.91 L -19.7952,-345.261 L -19.2724,-345.548 L -18.7178,-345.768
 L -18.1401,-345.916 L -17.5482,-345.991 L 17.5482,-345.991 L 18.1401,-345.916 L 18.7178,-345.768 L 19.2724,-345.548
 L 19.7952,-345.261 L 20.2778,-344.91 L 20.7126,-344.502 L 21.0928,-344.042 L 21.4124,-343.538 L 21.6664,-342.999
 L 21.8508,-342.431 L 21.9625,-341.845 L 22,-341.25 L 22,-306.75 L 21.9625,-306.155 L 21.8508,-305.569
 L 21.6664,-305.001 L 21.4124,-304.462 L 21.0928,-303.958 L 20.7126,-303.498 L 20.2778,-303.09 L 19.7952,-302.739
 L 19.2724,-302.452 L 18.7178,-302.232 L 18.1401,-302.084 L 17.5482,-302.009 z
M 18.4369,-247.589 L 19.0451,-247.745 L 19.6289,-247.976 L 20.1791,-248.278 L 20.6871,-248.647 L 21.1448,-249.077
 L 21.5451,-249.561 L 21.8815,-250.091 L 22.1489,-250.659 L 22.3429,-251.257 L 22.4606,-251.873 L 22.5,-252.5
 L 22.5,-287.5 L 22.4606,-288.127 L 22.3429,-288.743 L 22.1489,-289.341 L 21.8815,-289.909 L 21.5451,-290.439
 L 21.1448,-290.923 L 20.6871,-291.353 L 20.1791,-291.722 L 19.6289,-292.024 L 19.0451,-292.255 L 18.4369,-292.411
 L 17.8139,-292.49 L -17.8139,-292.49 L -18.4369,-292.411 L -19.0451,-292.255 L -19.6289,-292.024 L -20.1791,-291.722
 L -20.6871,-291.353 L -21.1448,-290.923 L -21.5451,-290.439 L -21.8815,-289.909 L -22.1489,-289.341 L -22.3429,-288.743
 L -22.4606,-288.127 L -22.5,-287.5 L -22.5,-252.5 L -22.4606,-251.873 L -22.3429,-251.257 L -22.1489,-250.659
 L -21.8815,-250.091 L -21.5451,-249.561 L -21.1448,-249.077 L -20.6871,-248.647 L -20.1791,-248.278 L -19.6289,-247.976
 L -19.0451,-247.745 L -18.4369,-247.589 L -17.8139,-247.51 L 17.8139,-247.51 z
M -17.5482,-248.009 L -18.1401,-248.084 L -18.7178,-248.232 L -19.2724,-248.452 L -19.7952,-248.739 L -20.2778,-249.09
 L -20.7126,-249.498 L -21.0928,-249.958 L -21.4124,-250.462 L -21.6664,-251.001 L -21.8508,-251.569 L -21.9625,-252.155
 L -22,-252.75 L -22,-287.25 L -21.9625,-287.845 L -21.8508,-288.431 L -21.6664,-288.999 L -21.4124,-289.538
 L -21.0928,-290.042 L -20.7126,-290.502 L -20.2778,-290.91 L -19.7952,-291.261 L -19.2724,-291.548 L -18.7178,-291.768
 L -18.1401,-291.916 L -17.5482,-291.991 L 17.5482,-291.991 L 18.1401,-291.916 L 18.7178,-291.768 L 19.2724,-291.548
 L 19.7952,-291.261 L 20.2778,-290.91 L 20.7126,-290.502 L 21.0928,-290.042 L 21.4124,-289.538 L 21.6664,-288.999
 L 21.8508,-288.431 L 21.9625,-287.845 L 22,-287.25 L 22,-252.75 L 21.9625,-252.155 L 21.8508,-251.569
 L 21.6664,-251.001 L 21.4124,-250.462 L 21.0928,-249.958 L 20.7126,-249.498 L 20.2778,-249.09 L 19.7952,-248.739
 L 19.2724,-248.452 L 18.7178,-248.232 L 18.1401,-248.084 L 17.5482,-248.009 z
M 18.4369,-193.589 L 19.0451,-193.745 L 19.6289,-193.976 L 20.1791,-194.278 L 20.6871,-194.647 L 21.1448,-195.077
 L 21.5451,-195.561 L 21.8815,-196.091 L 22.1489,-196.659 L 22.3429,-197.257 L 22.4606,-197.873 L 22.5,-198.5
 L 22.5,-233.5 L 22.4606,-234.127 L 22.3429,-234.743 L 22.1489,-235.341 L 21.8815,-235.909 L 21.5451,-236.439
 L 21.1448,-236.923 L 20.6871,-237.353 L 20.1791,-237.722 L 19.6289,-238.024 L 19.0451,-238.255 L 18.4369,-238.411
 L 17.8139,-238.49 L -17.8139,-238.49 L -18.4369,-238.411 L -19.0451,-238.255 L -19.6289,-238.024 L -20.1791,-237.722
 L -20.6871,-237.353 L -21.1448,-236.923 L -21.5451,-236.439 L -21.8815,-235.909 L -22.1489,-235.341 L -22.3429,-234.743
 L -22.4606,-234.127 L -22.5,-233.5 L -22.5,-198.5 L -22.4606,-197.873 L -22.3429,-197.257 L -22.1489,-196.659
 L -21.8815,-196.091 L -21.5451,-195.561 L -21.1448,-195.077 L -20.6871,-194.647 L -20.1791,-194.278 L -19.6289,-193.976
 L -19.0451,-193.745 L -18.4369,-193.589 L -17.8139,-193.51 L 17.8139,-193.51 z
M -17.493,-194.888 L -17.9751,-194.949 L -18.4457,-195.07 L -18.8975,-195.249 L -19.3234,-195.483 L -19.7165,-195.769
 L -20.0707,-196.101 L -20.3805,-196.476 L -20.6408,-196.886 L -20.8477,-197.326 L -20.9979,-197.788 L -21.089,-198.265
 L -21.1195,-198.75 L -21.1195,-233.25 L -21.089,-233.735 L -20.9979,-234.212 L -20.8477,-234.674 L -20.6408,-235.114
 L -20.3805,-235.524 L -20.0707,-235.899 L -19.7165,-236.231 L -19.3234,-236.517 L -18.8975,-236.751 L -18.4457,-236.93
 L -17.9751,-237.051 L -17.493,-237.112 L 17.493,-237.112 L 17.9751,-237.051 L 18.4457,-236.93 L 18.8975,-236.751
 L 19.3234,-236.517 L 19.7165,-236.231 L 20.0707,-235.899 L 20.3805,-235.524 L 20.6408,-235.114 L 20.8477,-234.674
 L 20.9979,-234.212 L 21.089,-233.735 L 21.1195,-233.25 L 21.1195,-198.75 L 21.089,-198.265 L 20.9979,-197.788
 L 20.8477,-197.326 L 20.6408,-196.886 L 20.3805,-196.476 L 20.0707,-196.101 L 19.7165,-195.769 L 19.3234,-195.483
 L 18.8975,-195.249 L 18.4457,-195.07 L 17.9751,-194.949 L 17.493,-194.888 z
M 18.4369,-139.589 L 19.0451,-139.745 L 19.6289,-139.976 L 20.1791,-140.278 L 20.6871,-140.647 L 21.1448,-141.077
 L 21.5451,-141.561 L 21.8815,-142.091 L 22.1489,-142.659 L 22.3429,-143.257 L 22.4606,-143.873 L 22.5,-144.5
 L 22.5,-179.5 L 22.4606,-180.127 L 22.3429,-180.743 L 22.1489,-181.341 L 21.8815,-181.909 L 21.5451,-182.439
 L 21.1448,-182.923 L 20.6871,-183.353 L 20.1791,-183.722 L 19.6289,-184.024 L 19.0451,-184.255 L 18.4369,-184.411
 L 17.8139,-184.49 L -17.8139,-184.49 L -18.4369,-184.411 L -19.0451,-184.255 L -19.6289,-184.024 L -20.1791,-183.722
 L -20.6871,-183.353 L -21.1448,-182.923 L -21.5451,-182.439 L -21.8815,-181.909 L -22.1489,-181.341 L -22.3429,-180.743
 L -22.4606,-180.127 L -22.5,-179.5 L -22.5,-144.5 L -22.4606,-143.873 L -22.3429,-143.257 L -22.1489,-142.659
 L -21.8815,-142.091 L -21.5451,-141.561 L -21.1448,-141.077 L -20.6871,-140.647 L -20.1791,-140.278 L -19.6289,-139.976
 L -19.0451,-139.745 L -18.4369,-139.589 L -17.8139,-139.51 L 17.8139,-139.51 z
M 14.9058,-175.503 L 14.7189,-175.527 L 14.5365,-175.573 L 14.3613,-175.643 L 14.1963,-175.734 L 14.0439,-175.844
 L 13.9065,-175.973 L 13.7865,-176.118 L 13.6855,-176.277 L 13.6053,-176.448 L 13.5471,-176.627 L 13.5118,-176.812
 L 13.5,-177 L 13.5118,-177.188 L 13.5471,-177.373 L 13.6053,-177.552 L 13.6855,-177.723 L 13.7865,-177.882
 L 13.9065,-178.027 L 14.0439,-178.156 L 14.1963,-178.266 L 14.3613,-178.357 L 14.5365,-178.427 L 14.7189,-178.473
 L 14.9058,-178.497 L 15.0942,-178.497 L 15.2811,-178.473 L 15.4635,-178.427 L 15.6387,-178.357 L 15.8037,-178.266
 L 15.9561,-178.156 L 16.0934,-178.027 L 16.2135,-177.882 L 16.3145,-177.723 L 16.3947,-177.552 L 16.4529,-177.373
 L 16.4882,-177.188 L 16.5,-177 L 16.4882,-176.812 L 16.4529,-176.627 L 16.3947,-176.448 L 16.3145,-176.277
 L 16.2135,-176.118 L 16.0934,-175.973 L 15.9561,-175.844 L 15.8037,-175.734 L 15.6387,-175.643 L 15.4635,-175.573
 L 15.2811,-175.527 L 15.0942,-175.503 z
M -15.0942,-175.503 L -15.2811,-175.527 L -15.4635,-175.573 L -15.6387,-175.643 L -15.8037,-175.734 L -15.9561,-175.844
 L -16.0934,-175.973 L -16.2135,-176.118 L -16.3145,-176.277 L -16.3947,-176.448 L -16.4529,-176.627 L -16.4882,-176.812
 L -16.5,-177 L -16.4882,-177.188 L -16.4529,-177.373 L -16.3947,-177.552 L -16.3145,-177.723 L -16.2135,-177.882
 L -16.0934,-178.027 L -15.9561,-178.156 L -15.8037,-178.266 L -15.6387,-178.357 L -15.4635,-178.427 L -15.2811,-178.473
 L -15.0942,-178.497 L -14.9058,-178.497 L -14.7189,-178.473 L -14.5365,-178.427 L -14.3613,-178.357 L -14.1963,-178.266
 L -14.0439,-178.156 L -13.9065,-178.027 L -13.7865,-177.882 L -13.6855,-177.723 L -13.6053,-177.552 L -13.5471,-177.373
 L -13.5118,-177.188 L -13.5,-177 L -13.5118,-176.812 L -13.5471,-176.627 L -13.6053,-176.448 L -13.6855,-176.277
 L -13.7865,-176.118 L -13.9065,-175.973 L -14.0439,-175.844 L -14.1963,-175.734 L -14.3613,-175.643 L -14.5365,-175.573
 L -14.7189,-175.527 L -14.9058,-175.503 z
M 14.9058,-145.503 L 14.7189,-145.527 L 14.5365,-145.573 L 14.3613,-145.643 L 14.1963,-145.734 L 14.0439,-145.844
 L 13.9065,-145.973 L 13.7865,-146.118 L 13.6855,-146.277 L 13.6053,-146.448 L 13.5471,-146.627 L 13.5118,-146.812
 L 13.5,-147 L 13.5118,-147.188 L 13.5471,-147.373 L 13.6053,-147.552 L 13.6855,-147.723 L 13.7865,-147.882
 L 13.9065,-148.027 L 14.0439,-148.156 L 14.1963,-148.266 L 14.3613,-148.357 L 14.5365,-148.427 L 14.7189,-148.473
 L 14.9058,-148.497 L 15.0942,-148.497 L 15.2811,-148.473 L 15.4635,-148.427 L 15.6387,-148.357 L 15.8037,-148.266
 L 15.9561,-148.156 L 16.0934,-148.027 L 16.2135,-147.882 L 16.3145,-147.723 L 16.3947,-147.552 L 16.4529,-147.373
 L 16.4882,-147.188 L 16.5,-147 L 16.4882,-146.812 L 16.4529,-146.627 L 16.3947,-146.448 L 16.3145,-146.277
 L 16.2135,-146.118 L 16.0934,-145.973 L 15.9561,-145.844 L 15.8037,-145.734 L 15.6387,-145.643 L 15.4635,-145.573
 L 15.2811,-145.527 L 15.0942,-145.503 z
M -15.0942,-145.503 L -15.2811,-145.527 L -15.4635,-145.573 L -15.6387,-145.643 L -15.8037,-145.734 L -15.9561,-145.844
 L -16.0934,-145.973 L -16.2135,-146.118 L -16.3145,-146.277 L -16.3947,-146.448 L -16.4529,-146.627 L -16.4882,-146.812
 L -16.5,-147 L -16.4882,-147.188 L -16.4529,-147.373 L -16.3947,-147.552 L -16.3145,-147.723 L -16.2135,-147.882
 L -16.0934,-148.027 L -15.9561,-148.156 L -15.8037,-148.266 L -15.6387,-148.357 L -15.4635,-148.427 L -15.2811,-148.473
 L -15.0942,-148.497 L -14.9058,-148.497 L -14.7189,-148.473 L -14.5365,-148.427 L -14.3613,-148.357 L -14.1963,-148.266
 L -14.0439,-148.156 L -13.9065,-148.027 L -13.7865,-147.882 L -13.6855,-147.723 L -13.6053,-147.552 L -13.5471,-147.373
 L -13.5118,-147.188 L -13.5,-147 L -13.5118,-146.812 L -13.5471,-146.627 L -13.6053,-146.448 L -13.6855,-146.277
 L -13.7865,-146.118 L -13.9065,-145.973 L -14.0439,-145.844 L -14.1963,-145.734 L -14.3613,-145.643 L -14.5365,-145.573
 L -14.7189,-145.527 L -14.9058,-145.503 z
" stroke="black" fill="lightgray" stroke-width="0.5"/>
</svg>
