<?xml version="1.0" standalone="no"?>
<!DOCTYPE svg PUBLIC "-//W3C//DTD SVG 1.1//EN" "http://www.w3.org/Graphics/SVG/1.1/DTD/svg11.dtd">
<svg width="60mm" height="336mm" viewBox="-30 -651 60 336" xmlns="http://www.w3.org/2000/svg" version="1.1">
<title>OpenSCAD Model</title>
<path d="
M 25.4369,-591.589 L 26.0451,-591.745 L 26.6289,-591.976 L 27.1791,-592.278 L 27.6871,-592.647 L 28.1448,-593.077
 L 28.5451,-593.561 L 28.8815,-594.091 L 29.1489,-594.659 L 29.3429,-595.257 L 29.4606,-595.873 L 29.5,-596.5
 L 29.5,-645.5 L 29.4606,-646.127 L 29.3429,-646.743 L 29.1489,-647.341 L 28.8815,-647.909 L 28.5451,-648.439
 L 28.1448,-648.923 L 27.6871,-649.353 L 27.1791,-649.722 L 26.6289,-650.024 L 26.0451,-650.255 L 25.4369,-650.411
 L 24.8139,-650.49 L -24.8139,-650.49 L -25.4369,-650.411 L -26.0451,-650.255 L -26.6289,-650.024 L -27.1791,-649.722
 L -27.6871,-649.353 L -28.1448,-648.923 L -28.5451,-648.439 L -28.8815,-647.909 L -29.1489,-647.341 L -29.3429,-646.743
 L -29.4606,-646.127 L -29.5,-645.5 L -29.5,-596.5 L -29.4606,-595.873 L -29.3429,-595.257 L -29.1489,-594.659
 L -28.8815,-594.091 L -28.5451,-593.561 L -28.1448,-593.077 L -27.6871,-592.647 L -27.1791,-592.278 L -26.6289,-591.976
 L -26.0451,-591.745 L -25.4369,-591.589 L -24.8139,-591.51 L 24.8139,-591.51 z
M -24.7512,-592.508 L -25.2495,-592.571 L -25.7361,-592.696 L -26.2031,-592.881 L -26.6433,-593.123 L -27.0497,-593.418
 L -27.4159,-593.762 L -27.7361,-594.149 L -28.0052,-594.573 L -28.2191,-595.028 L -28.3743,-595.505 L -28.4684,-595.999
 L -28.5,-596.5 L -28.5,-645.5 L -28.4684,-646.001 L -28.3743,-646.495 L -28.2191,-646.972 L -28.0052,-647.427
 L -27.7361,-647.851 L -27.4159,-648.238 L -27.0497,-648.582 L -26.6433,-648.877 L -26.2031,-649.119 L -25.7361,-649.304
 L -25.2495,-649.429 L -24.7512,-649.492 L 24.7512,-649.492 L 25.2495,-649.429 L 25.7361,-649.304 L 26.2031,-649.119
 L 26.6433,-648.877 L 27.0497,-648.582 L 27.4159,-648.238 L 27.7361,-647.851 L 28.0052,-647.427 L 28.2191,-646.972
 L 28.3743,-646.495 L 28.4684,-646.001 L 28.5,-645.5 L 28.5,-596.5 L 28.4684,-595.999 L 28.3743,-595.505
 L 28.2191,-595.028 L 28.0052,-594.573 L 27.7361,-594.149 L 27.4159,-593.762 L 27.0497,-593.418 L 26.6433,-593.123
 L 26.2031,-592.881 L 25.7361,-592.696 L 25.2495,-592.571 L 24.7512,-592.508 z
M 25.4369,-522.589 L 26.0451,-522.745 L 26.6289,-522.976 L 27.1791,-523.278 L 27.6871,-523.647 L 28.1448,-524.077
 L 28.5451,-524.561 L 28.8815,-525.091 L 29.1489,-525.659 L 29.3429,-526.257 L 29.4606,-526.873 L 29.5,-527.5
 L 29.5,-576.5 L 29.4606,-577.127 L 29.3429,-577.743 L 29.1489,-578.341 L 28.8815,-578.909 L 28.5451,-579.439
 L 28.1448,-579.923 L 27.6871,-580.353 L 27.1791,-580.722 L 26.6289,-581.024 L 26.0451,-581.255 L 25.4369,-581.411
 L 24.8139,-581.49 L -24.8139,-581.49 L -25.4369,-581.411 L -26.0451,-581.255 L -26.6289,-581.024 L -27.1791,-580.722
 L -27.6871,-580.353 L -28.1448,-579.923 L -28.5451,-579.439 L -28.8815,-578.909 L -29.1489,-578.341 L -29.3429,-577.743
 L -29.4606,-577.127 L -29.5,-576.5 L -29.5,-527.5 L -29.4606,-526.873 L -29.3429,-526.257 L -29.1489,-525.659
 L -28.8815,-525.091 L -28.5451,-524.561 L -28.1448,-524.077 L -27.6871,-523.647 L -27.1791,-523.278 L -26.6289,-522.976
 L -26.0451,-522.745 L -25.4369,-522.589 L -24.8139,-522.51 L 24.8139,-522.51 z
M -24.7512,-523.508 L -25.2495,-523.571 L -25.7361,-523.696 L -26.2031,-523.881 L -26.6433,-524.123 L -27.0497,-524.418
 L -27.4159,-524.762 L -27.7361,-525.149 L -28.0052,-525.573 L -28.2191,-526.028 L -28.3743,-526.505 L -28.4684,-526.999
 L -28.5,-527.5 L -28.5,-576.5 L -28.4684,-577.001 L -28.3743,-577.495 L -28.2191,-577.972 L -28.0052,-578.427
 L -27.7361,-578.851 L -27.4159,-579.238 L -27.0497,-579.582 L -26.6433,-579.877 L -26.2031,-580.119 L -25.7361,-580.304
 L -25.2495,-580.429 L -24.7512,-580.492 L 24.7512,-580.492 L 25.2495,-580.429 L 25.7361,-580.304 L 26.2031,-580.119
 L 26.6433,-579.877 L 27.0497,-579.582 L 27.4159,-579.238 L 27.7361,-578.851 L 28.0052,-578.427 L 28.2191,-577.972
 L 28.3743,-577.495 L 28.4684,-577.001 L 28.5,-576.5 L 28.5,-527.5 L 28.4684,-526.999 L 28.3743,-526.505
 L 28.2191,-526.028 L 28.0052,-525.573 L 27.7361,-525.149 L 27.4159,-524.762 L 27.0497,-524.418 L 26.6433,-524.123
 L 26.2031,-523.881 L 25.7361,-523.696 L 25.2495,-523.571 L 24.7512,-523.508 z
M 25.4369,-453.589 L 26.0451,-453.745 L 26.6289,-453.976 L 27.1791,-454.278 L 27.6871,-454.647 L 28.1448,-455.077
 L 28.5451,-455.561 L 28.8815,-456.091 L 29.1489,-456.659 L 29.3429,-457.257 L 29.4606,-457.873 L 29.5,-458.5
 L 29.5,-507.5 L 29.4606,-508.127 L 29.3429,-508.743 L 29.1489,-509.341 L 28.8815,-509.909 L 28.5451,-510.439
 L 28.1448,-510.923 L 27.6871,-511.353 L 27.1791,-511.722 L 26.6289,-512.024 L 26.0451,-512.255 L 25.4369,-512.411
 L 24.8139,-512.49 L -24.8139,-512.49 L -25.4369,-512.411 L -26.0451,-512.255 L -26.6289,-512.024 L -27.1791,-511.722
 L -27.6871,-511.353 L -28.1448,-510.923 L -28.5451,-510.439 L -28.8815,-509.909 L -29.1489,-509.341 L -29.3429,-508.743
 L -29.4606,-508.127 L -29.5,-507.5 L -29.5,-458.5 L -29.4606,-457.873 L -29.3429,-457.257 L -29.1489,-456.659
 L -28.8815,-456.091 L -28.5451,-455.561 L -28.1448,-455.077 L -27.6871,-454.647 L -27.1791,-454.278 L -26.6289,-453.976
 L -26.0451,-453.745 L -25.4369,-453.589 L -24.8139,-453.51 L 24.8139,-453.51 z
M -24.7512,-454.508 L -25.2495,-454.571 L -25.7361,-454.696 L -26.2031,-454.881 L -26.6433,-455.123 L -27.0497,-455.418
 L -27.4159,-455.762 L -27.7361,-456.149 L -28.0052,-456.573 L -28.2191,-457.028 L -28.3743,-457.505 L -28.4684,-457.999
 L -28.5,-458.5 L -28.5,-507.5 L -28.4684,-508.001 L -28.3743,-508.495 L -28.2191,-508.972 L -28.0052,-509.427
 L -27.7361,-509.851 L -27.4159,-510.238 L -27.0497,-510.582 L -26.6433,-510.877 L -26.2031,-511.119 L -25.7361,-511.304
 L -25.2495,-511.429 L -24.7512,-511.492 L 24.7512,-511.492 L 25.2495,-511.429 L 25.7361,-511.304 L 26.2031,-511.119
 L 26.6433,-510.877 L 27.0497,-510.582 L 27.4159,-510.238 L 27.7361,-509.851 L 28.0052,-509.427 L 28.2191,-508.972
 L 28.3743,-508.495 L 28.4684,-508.001 L 28.5,-507.5 L 28.5,-458.5 L 28.4684,-457.999 L 28.3743,-457.505
 L 28.2191,-457.028 L 28.0052,-456.573 L 27.7361,-456.149 L 27.4159,-455.762 L 27.0497,-455.418 L 26.6433,-455.123
 L 26.2031,-454.881 L 25.7361,-454.696 L 25.2495,-454.571 L 24.7512,-454.508 z
M 25.4369,-315.589 L 26.0451,-315.745 L 26.6289,-315.976 L 27.1791,-316.278 L 27.6871,-316.647 L 28.1448,-317.077
 L 28.5451,-317.561 L 28.8815,-318.091 L 29.1489,-318.659 L 29.3429,-319.257 L 29.4606,-319.873 L 29.5,-320.5
 L 29.5,-369.5 L 29.4606,-370.127 L 29.3429,-370.743 L 29.1489,-371.341 L 28.8815,-371.909 L 28.5451,-372.439
 L 28.1448,-372.923 L 27.6871,-373.353 L 27.1791,-373.722 L 26.6289,-374.024 L 26.0451,-374.255 L 25.4369,-374.411
 L 24.8139,-374.49 L -24.8139,-374.49 L -25.4369,-374.411 L -26.0451,-374.255 L -26.6289,-374.024 L -27.1791,-373.722
 L -27.6871,-373.353 L -28.1448,-372.923 L -28.5451,-372.439 L -28.8815,-371.909 L -29.1489,-371.341 L -29.3429,-370.743
 L -29.4606,-370.127 L -29.5,-369.5 L -29.5,-320.5 L -29.4606,-319.873 L -29.3429,-319.257 L -29.1489,-318.659
 L -28.8815,-318.091 L -28.5451,-317.561 L -28.1448,-317.077 L -27.6871,-316.647 L -27.1791,-316.278 L -26.6289,-315.976
 L -26.0451,-315.745 L -25.4369,-315.589 L -24.8139,-315.51 L 24.8139,-315.51 z
M 22.3493,-365.105 L 22.0503,-365.143 L 21.7583,-365.217 L 21.4781,-365.328 L 21.214,-365.474 L 20.9702,-365.651
 L 20.7505,-365.857 L 20.5583,-366.089 L 20.3969,-366.344 L 20.2685,-366.617 L 20.1754,-366.903 L 20.1189,-367.199
 L 20.1,-367.5 L 20.1189,-367.801 L 20.1754,-368.097 L 20.2685,-368.383 L 20.3969,-368.656 L 20.5583,-368.911
 L 20.7505,-369.143 L 20.9702,-369.349 L 21.214,-369.526 L 21.4781,-369.672 L 21.7583,-369.783 L 22.0503,-369.857
 L 22.3493,-369.895 L 22.6507,-369.895 L 22.9497,-369.857 L 23.2416,-369.783 L 23.5219,-369.672 L 23.786,-369.526
 L 24.0298,-369.349 L 24.2495,-369.143 L 24.4416,-368.911 L 24.6031,-368.656 L 24.7315,-368.383 L 24.8246,-368.097
 L 24.8811,-367.801 L 24.9,-367.5 L 24.8811,-367.199 L 24.8246,-366.903 L 24.7315,-366.617 L 24.6031,-366.344
 L 24.4416,-366.089 L 24.2495,-365.857 L 24.0298,-365.651 L 23.786,-365.474 L 23.5219,-365.328 L 23.2416,-365.217
 L 22.9497,-365.143 L 22.6507,-365.105 z
M -22.6507,-365.105 L -22.9497,-365.143 L -23.2416,-365.217 L -23.5219,-365.328 L -23.786,-365.474 L -24.0298,-365.651
 L -24.2495,-365.857 L -24.4416,-366.089 L -24.6031,-366.344 L -24.7315,-366.617 L -24.8246,-366.903 L -24.8811,-367.199
 L -24.9,-367.5 L -24.8811,-367.801 L -24.8246,-368.097 L -24.7315,-368.383 L -24.6031,-368.656 L -24.4416,-368.911
 L -24.2495,-369.143 L -24.0298,-369.349 L -23.786,-369.526 L -23.5219,-369.672 L -23.2416,-369.783 L -22.9497,-369.857
 L -22.6507,-369.895 L -22.3493,-369.895 L -22.0503,-369.857 L -21.7583,-369.783 L -21.4781,-369.672 L -21.214,-369.526
 L -20.9702,-369.349 L -20.7505,-369.143 L -20.5583,-368.911 L -20.3969,-368.656 L -20.2685,-368.383 L -20.1754,-368.097
 L -20.1189,-367.801 L -20.1,-367.5 L -20.1189,-367.199 L -20.1754,-366.903 L -20.2685,-366.617 L -20.3969,-366.344
 L -20.5583,-366.089 L -20.7505,-365.857 L -20.9702,-365.651 L -21.214,-365.474 L -21.4781,-365.328 L -21.7583,-365.217
 L -22.0503,-365.143 L -22.3493,-365.105 z
M -22.6507,-320.105 L -22.9497,-320.143 L -23.2416,-320.217 L -23.5219,-320.328 L -23.786,-320.474 L -24.0298,-320.651
 L -24.2495,-320.857 L -24.4416,-321.089 L -24.6031,-321.344 L -24.7315,-321.617 L -24.8246,-321.903 L -24.8811,-322.199
 L -24.9,-322.5 L -24.8811,-322.801 L -24.8246,-323.097 L -24.7315,-323.383 L -24.6031,-323.656 L -24.4416,-323.911
 L -24.2495,-324.143 L -24.0298,-324.349 L -23.786,-324.526 L -23.5219,-324.672 L -23.2416,-324.783 L -22.9497,-324.857
 L -22.6507,-324.895 L -22.3493,-324.895 L -22.0503,-324.857 L -21.7583,-324.783 L -21.4781,-324.672 L -21.214,-324.526
 L -20.9702,-324.349 L -20.7505,-324.143 L -20.5583,-323.911 L -20.3969,-323.656 L -20.2685,-323.383 L -20.1754,-323.097
 L -20.1189,-322.801 L -20.1,-322.5 L -20.1189,-322.199 L -20.1754,-321.903 L -20.2685,-321.617 L -20.3969,-321.344
 L -20.5583,-321.089 L -20.7505,-320.857 L -20.9702,-320.651 L -21.214,-320.474 L -21.4781,-320.328 L -21.7583,-320.217
 L -22.0503,-320.143 L -22.3493,-320.105 z
M 22.3493,-320.105 L 22.0503,-320.143 L 21.7583,-320.217 L 21.4781,-320.328 L 21.214,-320.474 L 20.9702,-320.651
 L 20.7505,-320.857 L 20.5583,-321.089 L 20.3969,-321.344 L 20.2685,-321.617 L 20.1754,-321.903 L 20.1189,-322.199
 L 20.1,-322.5 L 20.1189,-322.801 L 20.1754,-323.097 L 20.2685,-323.383 L 20.3969,-323.656 L 20.5583,-323.911
 L 20.7505,-324.143 L 20.9702,-324.349 L 21.214,-324.526 L 21.4781,-324.672 L 21.7583,-324.783 L 22.0503,-324.857
 L 22.3493,-324.895 L 22.6507,-324.895 L 22.9497,-324.857 L 23.2416,-324.783 L 23.5219,-324.672 L 23.786,-324.526
 L 24.0298,-324.349 L 24.2495,-324.143 L 24.4416,-323.911 L 24.6031,-323.656 L 24.7315,-323.383 L 24.8246,-323.097
 L 24.8811,-322.801 L 24.9,-322.5 L 24.8811,-322.199 L 24.8246,-321.903 L 24.7315,-321.617 L 24.6031,-321.344
 L 24.4416,-321.089 L 24.2495,-320.857 L 24.0298,-320.651 L 23.786,-320.474 L 23.5219,-320.328 L 23.2416,-320.217
 L 22.9497,-320.143 L 22.6507,-320.105 z
M -28.5451,-386.561 L -28.1448,-386.077 L -27.6871,-385.647 L -27.1791,-385.278 L -26.6289,-384.976 L -26.0451,-384.745
 L -25.4369,-384.589 L -24.8139,-384.51 L 24.8139,-384.51 L 25.4369,-384.589 L 26.0451,-384.745 L 26.6289,-384.976
 L 27.1791,-385.278 L 27.6871,-385.647 L 28.1448,-386.077 L 28.5451,-386.561 L 28.8815,-387.091 L 29.1489,-387.659
 L 29.3429,-388.257 L 29.4606,-388.873 L 29.5,-389.5 L 29.5,-438.5 L 29.4606,-439.127 L 29.3429,-439.743
 L 29.1489,-440.341 L 28.8815,-440.909 L 28.5451,-441.439 L 28.1448,-441.923 L 27.6871,-442.353 L 27.1791,-442.722
 L 26.6289,-443.024 L 26.0451,-443.255 L 25.4369,-443.411 L 24.8139,-443.49 L -24.8139,-443.49 L -25.4369,-443.411
 L -26.0451,-443.255 L -26.6289,-443.024 L -27.1791,-442.722 L -27.6871,-442.353 L -28.1448,-441.923 L -28.5451,-441.439
 L -28.8815,-440.909 L -29.1489,-440.341 L -29.3429,-439.743 L -29.4606,-439.127 L -29.5,-438.5 L -29.5,-389.5
 L -29.4606,-388.873 L -29.3429,-388.257 L -29.1489,-387.659 L -28.8815,-387.091 z
M -27.5884,-389.11 L -27.6129,-389.5 L -27.6129,-438.5 L -27.5884,-438.89 L -27.5151,-439.274 L -27.3943,-439.646
 L -27.2279,-440 L -27.0184,-440.33 L -26.7692,-440.631 L -26.4842,-440.899 L -26.168,-441.128 L -25.8254,-441.317
 L -25.4619,-441.461 L -25.0833,-441.558 L -24.6954,-441.607 L 24.6954,-441.607 L 25.0833,-441.558 L 25.4619,-441.461
 L 25.8254,-441.317 L 26.168,-441.128 L 26.4842,-440.899 L 26.7692,-440.631 L 27.0184,-440.33 L 27.2279,-440
 L 27.3943,-439.646 L 27.5151,-439.274 L 27.5884,-438.89 L 27.6129,-438.5 L 27.6129,-389.5 L 27.5884,-389.11
 L 27.5151,-388.726 L 27.3943,-388.354 L 27.2279,-388 L 27.0184,-387.67 L 26.7692,-387.369 L 26.4842,-387.101
 L 26.168,-386.872 L 25.8254,-386.683 L 25.4619,-386.539 L 25.0833,-386.442 L 24.6954,-386.393 L -24.6954,-386.393
 L -25.0833,-386.442 L -25.4619,-386.539 L -25.8254,-386.683 L -26.168,-386.872 L -26.4842,-387.101 L -26.7692,-387.369
 L -27.0184,-387.67 L -27.2279,-388 L -27.3943,-388.354 L -27.5151,-388.726 z
" stroke="black" fill="lightgray" stroke-width="0.5"/>
</svg>
