  0
SECTION
  2
BLOCKS
  0
ENDSEC
  0
SECTION
  2
ENTITIES
  0
LINE
  8
0
 10
25.4369
 20
297.589
 11
26.0451
 21
297.745
  0
LINE
  8
0
 10
26.0451
 20
297.745
 11
26.6289
 21
297.976
  0
LINE
  8
0
 10
26.6289
 20
297.976
 11
27.1791
 21
298.278
  0
LINE
  8
0
 10
27.1791
 20
298.278
 11
27.6871
 21
298.647
  0
LINE
  8
0
 10
27.6871
 20
298.647
 11
28.1448
 21
299.077
  0
LINE
  8
0
 10
28.1448
 20
299.077
 11
28.5451
 21
299.561
  0
LINE
  8
0
 10
28.5451
 20
299.561
 11
28.8815
 21
300.091
  0
LINE
  8
0
 10
28.8815
 20
300.091
 11
29.1489
 21
300.659
  0
LINE
  8
0
 10
29.1489
 20
300.659
 11
29.3429
 21
301.257
  0
LINE
  8
0
 10
29.3429
 20
301.257
 11
29.4606
 21
301.873
  0
LINE
  8
0
 10
29.4606
 20
301.873
 11
29.5
 21
302.5
  0
LINE
  8
0
 10
29.5
 20
302.5
 11
29.5
 21
321.5
  0
LINE
  8
0
 10
29.5
 20
321.5
 11
29.4606
 21
322.127
  0
LINE
  8
0
 10
29.4606
 20
322.127
 11
29.3429
 21
322.743
  0
LINE
  8
0
 10
29.3429
 20
322.743
 11
29.1489
 21
323.341
  0
LINE
  8
0
 10
29.1489
 20
323.341
 11
28.8815
 21
323.909
  0
LINE
  8
0
 10
28.8815
 20
323.909
 11
28.5451
 21
324.439
  0
LINE
  8
0
 10
28.5451
 20
324.439
 11
28.1448
 21
324.923
  0
LINE
  8
0
 10
28.1448
 20
324.923
 11
27.6871
 21
325.353
  0
LINE
  8
0
 10
27.6871
 20
325.353
 11
27.1791
 21
325.722
  0
LINE
  8
0
 10
27.1791
 20
325.722
 11
26.6289
 21
326.024
  0
LINE
  8
0
 10
26.6289
 20
326.024
 11
26.0451
 21
326.255
  0
LINE
  8
0
 10
26.0451
 20
326.255
 11
25.4369
 21
326.411
  0
LINE
  8
0
 10
25.4369
 20
326.411
 11
24.8139
 21
326.49
  0
LINE
  8
0
 10
24.8139
 20
326.49
 11
-24.8139
 21
326.49
  0
LINE
  8
0
 10
-24.8139
 20
326.49
 11
-25.4369
 21
326.411
  0
LINE
  8
0
 10
-25.4369
 20
326.411
 11
-26.0451
 21
326.255
  0
LINE
  8
0
 10
-26.0451
 20
326.255
 11
-26.6289
 21
326.024
  0
LINE
  8
0
 10
-26.6289
 20
326.024
 11
-27.1791
 21
325.722
  0
LINE
  8
0
 10
-27.1791
 20
325.722
 11
-27.6871
 21
325.353
  0
LINE
  8
0
 10
-27.6871
 20
325.353
 11
-28.1448
 21
324.923
  0
LINE
  8
0
 10
-28.1448
 20
324.923
 11
-28.5451
 21
324.439
  0
LINE
  8
0
 10
-28.5451
 20
324.439
 11
-28.8815
 21
323.909
  0
LINE
  8
0
 10
-28.8815
 20
323.909
 11
-29.1489
 21
323.341
  0
LINE
  8
0
 10
-29.1489
 20
323.341
 11
-29.3429
 21
322.743
  0
LINE
  8
0
 10
-29.3429
 20
322.743
 11
-29.4606
 21
322.127
  0
LINE
  8
0
 10
-29.4606
 20
322.127
 11
-29.5
 21
321.5
  0
LINE
  8
0
 10
-29.5
 20
321.5
 11
-29.5
 21
302.5
  0
LINE
  8
0
 10
-29.5
 20
302.5
 11
-29.4606
 21
301.873
  0
LINE
  8
0
 10
-29.4606
 20
301.873
 11
-29.3429
 21
301.257
  0
LINE
  8
0
 10
-29.3429
 20
301.257
 11
-29.1489
 21
300.659
  0
LINE
  8
0
 10
-29.1489
 20
300.659
 11
-28.8815
 21
300.091
  0
LINE
  8
0
 10
-28.8815
 20
300.091
 11
-28.5451
 21
299.561
  0
LINE
  8
0
 10
-28.5451
 20
299.561
 11
-28.1448
 21
299.077
  0
LINE
  8
0
 10
-28.1448
 20
299.077
 11
-27.6871
 21
298.647
  0
LINE
  8
0
 10
-27.6871
 20
298.647
 11
-27.1791
 21
298.278
  0
LINE
  8
0
 10
-27.1791
 20
298.278
 11
-26.6289
 21
297.976
  0
LINE
  8
0
 10
-26.6289
 20
297.976
 11
-26.0451
 21
297.745
  0
LINE
  8
0
 10
-26.0451
 20
297.745
 11
-25.4369
 21
297.589
  0
LINE
  8
0
 10
-25.4369
 20
297.589
 11
-24.8139
 21
297.51
  0
LINE
  8
0
 10
-24.8139
 20
297.51
 11
24.8139
 21
297.51
  0
LINE
  8
0
 10
24.8139
 20
297.51
 11
25.4369
 21
297.589
  0
LINE
  8
0
 10
-24.7512
 20
298.508
 11
-25.2495
 21
298.571
  0
LINE
  8
0
 10
-25.2495
 20
298.571
 11
-25.7361
 21
298.696
  0
LINE
  8
0
 10
-25.7361
 20
298.696
 11
-26.2031
 21
298.881
  0
LINE
  8
0
 10
-26.2031
 20
298.881
 11
-26.6433
 21
299.123
  0
LINE
  8
0
 10
-26.6433
 20
299.123
 11
-27.0497
 21
299.418
  0
LINE
  8
0
 10
-27.0497
 20
299.418
 11
-27.4159
 21
299.762
  0
LINE
  8
0
 10
-27.4159
 20
299.762
 11
-27.7361
 21
300.149
  0
LINE
  8
0
 10
-27.7361
 20
300.149
 11
-28.0052
 21
300.573
  0
LINE
  8
0
 10
-28.0052
 20
300.573
 11
-28.2191
 21
301.028
  0
LINE
  8
0
 10
-28.2191
 20
301.028
 11
-28.3743
 21
301.505
  0
LINE
  8
0
 10
-28.3743
 20
301.505
 11
-28.4684
 21
301.999
  0
LINE
  8
0
 10
-28.4684
 20
301.999
 11
-28.5
 21
302.5
  0
LINE
  8
0
 10
-28.5
 20
302.5
 11
-28.5
 21
321.5
  0
LINE
  8
0
 10
-28.5
 20
321.5
 11
-28.4684
 21
322.001
  0
LINE
  8
0
 10
-28.4684
 20
322.001
 11
-28.3743
 21
322.495
  0
LINE
  8
0
 10
-28.3743
 20
322.495
 11
-28.2191
 21
322.972
  0
LINE
  8
0
 10
-28.2191
 20
322.972
 11
-28.0052
 21
323.427
  0
LINE
  8
0
 10
-28.0052
 20
323.427
 11
-27.7361
 21
323.851
  0
LINE
  8
0
 10
-27.7361
 20
323.851
 11
-27.4159
 21
324.238
  0
LINE
  8
0
 10
-27.4159
 20
324.238
 11
-27.0497
 21
324.582
  0
LINE
  8
0
 10
-27.0497
 20
324.582
 11
-26.6433
 21
324.877
  0
LINE
  8
0
 10
-26.6433
 20
324.877
 11
-26.2031
 21
325.119
  0
LINE
  8
0
 10
-26.2031
 20
325.119
 11
-25.7361
 21
325.304
  0
LINE
  8
0
 10
-25.7361
 20
325.304
 11
-25.2495
 21
325.429
  0
LINE
  8
0
 10
-25.2495
 20
325.429
 11
-24.7512
 21
325.492
  0
LINE
  8
0
 10
-24.7512
 20
325.492
 11
24.7512
 21
325.492
  0
LINE
  8
0
 10
24.7512
 20
325.492
 11
25.2495
 21
325.429
  0
LINE
  8
0
 10
25.2495
 20
325.429
 11
25.7361
 21
325.304
  0
LINE
  8
0
 10
25.7361
 20
325.304
 11
26.2031
 21
325.119
  0
LINE
  8
0
 10
26.2031
 20
325.119
 11
26.6433
 21
324.877
  0
LINE
  8
0
 10
26.6433
 20
324.877
 11
27.0497
 21
324.582
  0
LINE
  8
0
 10
27.0497
 20
324.582
 11
27.4159
 21
324.238
  0
LINE
  8
0
 10
27.4159
 20
324.238
 11
27.7361
 21
323.851
  0
LINE
  8
0
 10
27.7361
 20
323.851
 11
28.0052
 21
323.427
  0
LINE
  8
0
 10
28.0052
 20
323.427
 11
28.2191
 21
322.972
  0
LINE
  8
0
 10
28.2191
 20
322.972
 11
28.3743
 21
322.495
  0
LINE
  8
0
 10
28.3743
 20
322.495
 11
28.4684
 21
322.001
  0
LINE
  8
0
 10
28.4684
 20
322.001
 11
28.5
 21
321.5
  0
LINE
  8
0
 10
28.5
 20
321.5
 11
28.5
 21
302.5
  0
LINE
  8
0
 10
28.5
 20
302.5
 11
28.4684
 21
301.999
  0
LINE
  8
0
 10
28.4684
 20
301.999
 11
28.3743
 21
301.505
  0
LINE
  8
0
 10
28.3743
 20
301.505
 11
28.2191
 21
301.028
  0
LINE
  8
0
 10
28.2191
 20
301.028
 11
28.0052
 21
300.573
  0
LINE
  8
0
 10
28.0052
 20
300.573
 11
27.7361
 21
300.149
  0
LINE
  8
0
 10
27.7361
 20
300.149
 11
27.4159
 21
299.762
  0
LINE
  8
0
 10
27.4159
 20
299.762
 11
27.0497
 21
299.418
  0
LINE
  8
0
 10
27.0497
 20
299.418
 11
26.6433
 21
299.123
  0
LINE
  8
0
 10
26.6433
 20
299.123
 11
26.2031
 21
298.881
  0
LINE
  8
0
 10
26.2031
 20
298.881
 11
25.7361
 21
298.696
  0
LINE
  8
0
 10
25.7361
 20
298.696
 11
25.2495
 21
298.571
  0
LINE
  8
0
 10
25.2495
 20
298.571
 11
24.7512
 21
298.508
  0
LINE
  8
0
 10
24.7512
 20
298.508
 11
-24.7512
 21
298.508
  0
LINE
  8
0
 10
25.4369
 20
258.589
 11
26.0451
 21
258.745
  0
LINE
  8
0
 10
26.0451
 20
258.745
 11
26.6289
 21
258.976
  0
LINE
  8
0
 10
26.6289
 20
258.976
 11
27.1791
 21
259.278
  0
LINE
  8
0
 10
27.1791
 20
259.278
 11
27.6871
 21
259.647
  0
LINE
  8
0
 10
27.6871
 20
259.647
 11
28.1448
 21
260.077
  0
LINE
  8
0
 10
28.1448
 20
260.077
 11
28.5451
 21
260.561
  0
LINE
  8
0
 10
28.5451
 20
260.561
 11
28.8815
 21
261.091
  0
LINE
  8
0
 10
28.8815
 20
261.091
 11
29.1489
 21
261.659
  0
LINE
  8
0
 10
29.1489
 20
261.659
 11
29.3429
 21
262.257
  0
LINE
  8
0
 10
29.3429
 20
262.257
 11
29.4606
 21
262.873
  0
LINE
  8
0
 10
29.4606
 20
262.873
 11
29.5
 21
263.5
  0
LINE
  8
0
 10
29.5
 20
263.5
 11
29.5
 21
282.5
  0
LINE
  8
0
 10
29.5
 20
282.5
 11
29.4606
 21
283.127
  0
LINE
  8
0
 10
29.4606
 20
283.127
 11
29.3429
 21
283.743
  0
LINE
  8
0
 10
29.3429
 20
283.743
 11
29.1489
 21
284.341
  0
LINE
  8
0
 10
29.1489
 20
284.341
 11
28.8815
 21
284.909
  0
LINE
  8
0
 10
28.8815
 20
284.909
 11
28.5451
 21
285.439
  0
LINE
  8
0
 10
28.5451
 20
285.439
 11
28.1448
 21
285.923
  0
LINE
  8
0
 10
28.1448
 20
285.923
 11
27.6871
 21
286.353
  0
LINE
  8
0
 10
27.6871
 20
286.353
 11
27.1791
 21
286.722
  0
LINE
  8
0
 10
27.1791
 20
286.722
 11
26.6289
 21
287.024
  0
LINE
  8
0
 10
26.6289
 20
287.024
 11
26.0451
 21
287.255
  0
LINE
  8
0
 10
26.0451
 20
287.255
 11
25.4369
 21
287.411
  0
LINE
  8
0
 10
25.4369
 20
287.411
 11
24.8139
 21
287.49
  0
LINE
  8
0
 10
24.8139
 20
287.49
 11
-24.8139
 21
287.49
  0
LINE
  8
0
 10
-24.8139
 20
287.49
 11
-25.4369
 21
287.411
  0
LINE
  8
0
 10
-25.4369
 20
287.411
 11
-26.0451
 21
287.255
  0
LINE
  8
0
 10
-26.0451
 20
287.255
 11
-26.6289
 21
287.024
  0
LINE
  8
0
 10
-26.6289
 20
287.024
 11
-27.1791
 21
286.722
  0
LINE
  8
0
 10
-27.1791
 20
286.722
 11
-27.6871
 21
286.353
  0
LINE
  8
0
 10
-27.6871
 20
286.353
 11
-28.1448
 21
285.923
  0
LINE
  8
0
 10
-28.1448
 20
285.923
 11
-28.5451
 21
285.439
  0
LINE
  8
0
 10
-28.5451
 20
285.439
 11
-28.8815
 21
284.909
  0
LINE
  8
0
 10
-28.8815
 20
284.909
 11
-29.1489
 21
284.341
  0
LINE
  8
0
 10
-29.1489
 20
284.341
 11
-29.3429
 21
283.743
  0
LINE
  8
0
 10
-29.3429
 20
283.743
 11
-29.4606
 21
283.127
  0
LINE
  8
0
 10
-29.4606
 20
283.127
 11
-29.5
 21
282.5
  0
LINE
  8
0
 10
-29.5
 20
282.5
 11
-29.5
 21
263.5
  0
LINE
  8
0
 10
-29.5
 20
263.5
 11
-29.4606
 21
262.873
  0
LINE
  8
0
 10
-29.4606
 20
262.873
 11
-29.3429
 21
262.257
  0
LINE
  8
0
 10
-29.3429
 20
262.257
 11
-29.1489
 21
261.659
  0
LINE
  8
0
 10
-29.1489
 20
261.659
 11
-28.8815
 21
261.091
  0
LINE
  8
0
 10
-28.8815
 20
261.091
 11
-28.5451
 21
260.561
  0
LINE
  8
0
 10
-28.5451
 20
260.561
 11
-28.1448
 21
260.077
  0
LINE
  8
0
 10
-28.1448
 20
260.077
 11
-27.6871
 21
259.647
  0
LINE
  8
0
 10
-27.6871
 20
259.647
 11
-27.1791
 21
259.278
  0
LINE
  8
0
 10
-27.1791
 20
259.278
 11
-26.6289
 21
258.976
  0
LINE
  8
0
 10
-26.6289
 20
258.976
 11
-26.0451
 21
258.745
  0
LINE
  8
0
 10
-26.0451
 20
258.745
 11
-25.4369
 21
258.589
  0
LINE
  8
0
 10
-25.4369
 20
258.589
 11
-24.8139
 21
258.51
  0
LINE
  8
0
 10
-24.8139
 20
258.51
 11
24.8139
 21
258.51
  0
LINE
  8
0
 10
24.8139
 20
258.51
 11
25.4369
 21
258.589
  0
LINE
  8
0
 10
-24.7512
 20
259.508
 11
-25.2495
 21
259.571
  0
LINE
  8
0
 10
-25.2495
 20
259.571
 11
-25.7361
 21
259.696
  0
LINE
  8
0
 10
-25.7361
 20
259.696
 11
-26.2031
 21
259.881
  0
LINE
  8
0
 10
-26.2031
 20
259.881
 11
-26.6433
 21
260.123
  0
LINE
  8
0
 10
-26.6433
 20
260.123
 11
-27.0497
 21
260.418
  0
LINE
  8
0
 10
-27.0497
 20
260.418
 11
-27.4159
 21
260.762
  0
LINE
  8
0
 10
-27.4159
 20
260.762
 11
-27.7361
 21
261.149
  0
LINE
  8
0
 10
-27.7361
 20
261.149
 11
-28.0052
 21
261.573
  0
LINE
  8
0
 10
-28.0052
 20
261.573
 11
-28.2191
 21
262.028
  0
LINE
  8
0
 10
-28.2191
 20
262.028
 11
-28.3743
 21
262.505
  0
LINE
  8
0
 10
-28.3743
 20
262.505
 11
-28.4684
 21
262.999
  0
LINE
  8
0
 10
-28.4684
 20
262.999
 11
-28.5
 21
263.5
  0
LINE
  8
0
 10
-28.5
 20
263.5
 11
-28.5
 21
282.5
  0
LINE
  8
0
 10
-28.5
 20
282.5
 11
-28.4684
 21
283.001
  0
LINE
  8
0
 10
-28.4684
 20
283.001
 11
-28.3743
 21
283.495
  0
LINE
  8
0
 10
-28.3743
 20
283.495
 11
-28.2191
 21
283.972
  0
LINE
  8
0
 10
-28.2191
 20
283.972
 11
-28.0052
 21
284.427
  0
LINE
  8
0
 10
-28.0052
 20
284.427
 11
-27.7361
 21
284.851
  0
LINE
  8
0
 10
-27.7361
 20
284.851
 11
-27.4159
 21
285.238
  0
LINE
  8
0
 10
-27.4159
 20
285.238
 11
-27.0497
 21
285.582
  0
LINE
  8
0
 10
-27.0497
 20
285.582
 11
-26.6433
 21
285.877
  0
LINE
  8
0
 10
-26.6433
 20
285.877
 11
-26.2031
 21
286.119
  0
LINE
  8
0
 10
-26.2031
 20
286.119
 11
-25.7361
 21
286.304
  0
LINE
  8
0
 10
-25.7361
 20
286.304
 11
-25.2495
 21
286.429
  0
LINE
  8
0
 10
-25.2495
 20
286.429
 11
-24.7512
 21
286.492
  0
LINE
  8
0
 10
-24.7512
 20
286.492
 11
24.7512
 21
286.492
  0
LINE
  8
0
 10
24.7512
 20
286.492
 11
25.2495
 21
286.429
  0
LINE
  8
0
 10
25.2495
 20
286.429
 11
25.7361
 21
286.304
  0
LINE
  8
0
 10
25.7361
 20
286.304
 11
26.2031
 21
286.119
  0
LINE
  8
0
 10
26.2031
 20
286.119
 11
26.6433
 21
285.877
  0
LINE
  8
0
 10
26.6433
 20
285.877
 11
27.0497
 21
285.582
  0
LINE
  8
0
 10
27.0497
 20
285.582
 11
27.4159
 21
285.238
  0
LINE
  8
0
 10
27.4159
 20
285.238
 11
27.7361
 21
284.851
  0
LINE
  8
0
 10
27.7361
 20
284.851
 11
28.0052
 21
284.427
  0
LINE
  8
0
 10
28.0052
 20
284.427
 11
28.2191
 21
283.972
  0
LINE
  8
0
 10
28.2191
 20
283.972
 11
28.3743
 21
283.495
  0
LINE
  8
0
 10
28.3743
 20
283.495
 11
28.4684
 21
283.001
  0
LINE
  8
0
 10
28.4684
 20
283.001
 11
28.5
 21
282.5
  0
LINE
  8
0
 10
28.5
 20
282.5
 11
28.5
 21
263.5
  0
LINE
  8
0
 10
28.5
 20
263.5
 11
28.4684
 21
262.999
  0
LINE
  8
0
 10
28.4684
 20
262.999
 11
28.3743
 21
262.505
  0
LINE
  8
0
 10
28.3743
 20
262.505
 11
28.2191
 21
262.028
  0
LINE
  8
0
 10
28.2191
 20
262.028
 11
28.0052
 21
261.573
  0
LINE
  8
0
 10
28.0052
 20
261.573
 11
27.7361
 21
261.149
  0
LINE
  8
0
 10
27.7361
 20
261.149
 11
27.4159
 21
260.762
  0
LINE
  8
0
 10
27.4159
 20
260.762
 11
27.0497
 21
260.418
  0
LINE
  8
0
 10
27.0497
 20
260.418
 11
26.6433
 21
260.123
  0
LINE
  8
0
 10
26.6433
 20
260.123
 11
26.2031
 21
259.881
  0
LINE
  8
0
 10
26.2031
 20
259.881
 11
25.7361
 21
259.696
  0
LINE
  8
0
 10
25.7361
 20
259.696
 11
25.2495
 21
259.571
  0
LINE
  8
0
 10
25.2495
 20
259.571
 11
24.7512
 21
259.508
  0
LINE
  8
0
 10
24.7512
 20
259.508
 11
-24.7512
 21
259.508
  0
LINE
  8
0
 10
25.4369
 20
219.589
 11
26.0451
 21
219.745
  0
LINE
  8
0
 10
26.0451
 20
219.745
 11
26.6289
 21
219.976
  0
LINE
  8
0
 10
26.6289
 20
219.976
 11
27.1791
 21
220.278
  0
LINE
  8
0
 10
27.1791
 20
220.278
 11
27.6871
 21
220.647
  0
LINE
  8
0
 10
27.6871
 20
220.647
 11
28.1448
 21
221.077
  0
LINE
  8
0
 10
28.1448
 20
221.077
 11
28.5451
 21
221.561
  0
LINE
  8
0
 10
28.5451
 20
221.561
 11
28.8815
 21
222.091
  0
LINE
  8
0
 10
28.8815
 20
222.091
 11
29.1489
 21
222.659
  0
LINE
  8
0
 10
29.1489
 20
222.659
 11
29.3429
 21
223.257
  0
LINE
  8
0
 10
29.3429
 20
223.257
 11
29.4606
 21
223.873
  0
LINE
  8
0
 10
29.4606
 20
223.873
 11
29.5
 21
224.5
  0
LINE
  8
0
 10
29.5
 20
224.5
 11
29.5
 21
243.5
  0
LINE
  8
0
 10
29.5
 20
243.5
 11
29.4606
 21
244.127
  0
LINE
  8
0
 10
29.4606
 20
244.127
 11
29.3429
 21
244.743
  0
LINE
  8
0
 10
29.3429
 20
244.743
 11
29.1489
 21
245.341
  0
LINE
  8
0
 10
29.1489
 20
245.341
 11
28.8815
 21
245.909
  0
LINE
  8
0
 10
28.8815
 20
245.909
 11
28.5451
 21
246.439
  0
LINE
  8
0
 10
28.5451
 20
246.439
 11
28.1448
 21
246.923
  0
LINE
  8
0
 10
28.1448
 20
246.923
 11
27.6871
 21
247.353
  0
LINE
  8
0
 10
27.6871
 20
247.353
 11
27.1791
 21
247.722
  0
LINE
  8
0
 10
27.1791
 20
247.722
 11
26.6289
 21
248.024
  0
LINE
  8
0
 10
26.6289
 20
248.024
 11
26.0451
 21
248.255
  0
LINE
  8
0
 10
26.0451
 20
248.255
 11
25.4369
 21
248.411
  0
LINE
  8
0
 10
25.4369
 20
248.411
 11
24.8139
 21
248.49
  0
LINE
  8
0
 10
24.8139
 20
248.49
 11
-24.8139
 21
248.49
  0
LINE
  8
0
 10
-24.8139
 20
248.49
 11
-25.4369
 21
248.411
  0
LINE
  8
0
 10
-25.4369
 20
248.411
 11
-26.0451
 21
248.255
  0
LINE
  8
0
 10
-26.0451
 20
248.255
 11
-26.6289
 21
248.024
  0
LINE
  8
0
 10
-26.6289
 20
248.024
 11
-27.1791
 21
247.722
  0
LINE
  8
0
 10
-27.1791
 20
247.722
 11
-27.6871
 21
247.353
  0
LINE
  8
0
 10
-27.6871
 20
247.353
 11
-28.1448
 21
246.923
  0
LINE
  8
0
 10
-28.1448
 20
246.923
 11
-28.5451
 21
246.439
  0
LINE
  8
0
 10
-28.5451
 20
246.439
 11
-28.8815
 21
245.909
  0
LINE
  8
0
 10
-28.8815
 20
245.909
 11
-29.1489
 21
245.341
  0
LINE
  8
0
 10
-29.1489
 20
245.341
 11
-29.3429
 21
244.743
  0
LINE
  8
0
 10
-29.3429
 20
244.743
 11
-29.4606
 21
244.127
  0
LINE
  8
0
 10
-29.4606
 20
244.127
 11
-29.5
 21
243.5
  0
LINE
  8
0
 10
-29.5
 20
243.5
 11
-29.5
 21
224.5
  0
LINE
  8
0
 10
-29.5
 20
224.5
 11
-29.4606
 21
223.873
  0
LINE
  8
0
 10
-29.4606
 20
223.873
 11
-29.3429
 21
223.257
  0
LINE
  8
0
 10
-29.3429
 20
223.257
 11
-29.1489
 21
222.659
  0
LINE
  8
0
 10
-29.1489
 20
222.659
 11
-28.8815
 21
222.091
  0
LINE
  8
0
 10
-28.8815
 20
222.091
 11
-28.5451
 21
221.561
  0
LINE
  8
0
 10
-28.5451
 20
221.561
 11
-28.1448
 21
221.077
  0
LINE
  8
0
 10
-28.1448
 20
221.077
 11
-27.6871
 21
220.647
  0
LINE
  8
0
 10
-27.6871
 20
220.647
 11
-27.1791
 21
220.278
  0
LINE
  8
0
 10
-27.1791
 20
220.278
 11
-26.6289
 21
219.976
  0
LINE
  8
0
 10
-26.6289
 20
219.976
 11
-26.0451
 21
219.745
  0
LINE
  8
0
 10
-26.0451
 20
219.745
 11
-25.4369
 21
219.589
  0
LINE
  8
0
 10
-25.4369
 20
219.589
 11
-24.8139
 21
219.51
  0
LINE
  8
0
 10
-24.8139
 20
219.51
 11
24.8139
 21
219.51
  0
LINE
  8
0
 10
24.8139
 20
219.51
 11
25.4369
 21
219.589
  0
LINE
  8
0
 10
-24.7432
 20
220.635
 11
-25.2256
 21
220.696
  0
LINE
  8
0
 10
-25.2256
 20
220.696
 11
-25.6967
 21
220.817
  0
LINE
  8
0
 10
-25.6967
 20
220.817
 11
-26.1489
 21
220.996
  0
LINE
  8
0
 10
-26.1489
 20
220.996
 11
-26.5751
 21
221.23
  0
LINE
  8
0
 10
-26.5751
 20
221.23
 11
-26.9685
 21
221.516
  0
LINE
  8
0
 10
-26.9685
 20
221.516
 11
-27.323
 21
221.849
  0
LINE
  8
0
 10
-27.323
 20
221.849
 11
-27.633
 21
222.224
  0
LINE
  8
0
 10
-27.633
 20
222.224
 11
-27.8936
 21
222.634
  0
LINE
  8
0
 10
-27.8936
 20
222.634
 11
-28.1007
 21
223.074
  0
LINE
  8
0
 10
-28.1007
 20
223.074
 11
-28.251
 21
223.537
  0
LINE
  8
0
 10
-28.251
 20
223.537
 11
-28.3421
 21
224.015
  0
LINE
  8
0
 10
-28.3421
 20
224.015
 11
-28.3726
 21
224.5
  0
LINE
  8
0
 10
-28.3726
 20
224.5
 11
-28.3726
 21
243.5
  0
LINE
  8
0
 10
-28.3726
 20
243.5
 11
-28.3421
 21
243.985
  0
LINE
  8
0
 10
-28.3421
 20
243.985
 11
-28.251
 21
244.463
  0
LINE
  8
0
 10
-28.251
 20
244.463
 11
-28.1007
 21
244.926
  0
LINE
  8
0
 10
-28.1007
 20
244.926
 11
-27.8936
 21
245.366
  0
LINE
  8
0
 10
-27.8936
 20
245.366
 11
-27.633
 21
245.776
  0
LINE
  8
0
 10
-27.633
 20
245.776
 11
-27.323
 21
246.151
  0
LINE
  8
0
 10
-27.323
 20
246.151
 11
-26.9685
 21
246.484
  0
LINE
  8
0
 10
-26.9685
 20
246.484
 11
-26.5751
 21
246.77
  0
LINE
  8
0
 10
-26.5751
 20
246.77
 11
-26.1489
 21
247.004
  0
LINE
  8
0
 10
-26.1489
 20
247.004
 11
-25.6967
 21
247.183
  0
LINE
  8
0
 10
-25.6967
 20
247.183
 11
-25.2256
 21
247.304
  0
LINE
  8
0
 10
-25.2256
 20
247.304
 11
-24.7432
 21
247.365
  0
LINE
  8
0
 10
-24.7432
 20
247.365
 11
24.7432
 21
247.365
  0
LINE
  8
0
 10
24.7432
 20
247.365
 11
25.2256
 21
247.304
  0
LINE
  8
0
 10
25.2256
 20
247.304
 11
25.6967
 21
247.183
  0
LINE
  8
0
 10
25.6967
 20
247.183
 11
26.1489
 21
247.004
  0
LINE
  8
0
 10
26.1489
 20
247.004
 11
26.5751
 21
246.77
  0
LINE
  8
0
 10
26.5751
 20
246.77
 11
26.9685
 21
246.484
  0
LINE
  8
0
 10
26.9685
 20
246.484
 11
27.323
 21
246.151
  0
LINE
  8
0
 10
27.323
 20
246.151
 11
27.633
 21
245.776
  0
LINE
  8
0
 10
27.633
 20
245.776
 11
27.8936
 21
245.366
  0
LINE
  8
0
 10
27.8936
 20
245.366
 11
28.1007
 21
244.926
  0
LINE
  8
0
 10
28.1007
 20
244.926
 11
28.251
 21
244.463
  0
LINE
  8
0
 10
28.251
 20
244.463
 11
28.3421
 21
243.985
  0
LINE
  8
0
 10
28.3421
 20
243.985
 11
28.3726
 21
243.5
  0
LINE
  8
0
 10
28.3726
 20
243.5
 11
28.3726
 21
224.5
  0
LINE
  8
0
 10
28.3726
 20
224.5
 11
28.3421
 21
224.015
  0
LINE
  8
0
 10
28.3421
 20
224.015
 11
28.251
 21
223.537
  0
LINE
  8
0
 10
28.251
 20
223.537
 11
28.1007
 21
223.074
  0
LINE
  8
0
 10
28.1007
 20
223.074
 11
27.8936
 21
222.634
  0
LINE
  8
0
 10
27.8936
 20
222.634
 11
27.633
 21
222.224
  0
LINE
  8
0
 10
27.633
 20
222.224
 11
27.323
 21
221.849
  0
LINE
  8
0
 10
27.323
 20
221.849
 11
26.9685
 21
221.516
  0
LINE
  8
0
 10
26.9685
 20
221.516
 11
26.5751
 21
221.23
  0
LINE
  8
0
 10
26.5751
 20
221.23
 11
26.1489
 21
220.996
  0
LINE
  8
0
 10
26.1489
 20
220.996
 11
25.6967
 21
220.817
  0
LINE
  8
0
 10
25.6967
 20
220.817
 11
25.2256
 21
220.696
  0
LINE
  8
0
 10
25.2256
 20
220.696
 11
24.7432
 21
220.635
  0
LINE
  8
0
 10
24.7432
 20
220.635
 11
-24.7432
 21
220.635
  0
LINE
  8
0
 10
25.4369
 20
180.589
 11
26.0451
 21
180.745
  0
LINE
  8
0
 10
26.0451
 20
180.745
 11
26.6289
 21
180.976
  0
LINE
  8
0
 10
26.6289
 20
180.976
 11
27.1791
 21
181.278
  0
LINE
  8
0
 10
27.1791
 20
181.278
 11
27.6871
 21
181.647
  0
LINE
  8
0
 10
27.6871
 20
181.647
 11
28.1448
 21
182.077
  0
LINE
  8
0
 10
28.1448
 20
182.077
 11
28.5451
 21
182.561
  0
LINE
  8
0
 10
28.5451
 20
182.561
 11
28.8815
 21
183.091
  0
LINE
  8
0
 10
28.8815
 20
183.091
 11
29.1489
 21
183.659
  0
LINE
  8
0
 10
29.1489
 20
183.659
 11
29.3429
 21
184.257
  0
LINE
  8
0
 10
29.3429
 20
184.257
 11
29.4606
 21
184.873
  0
LINE
  8
0
 10
29.4606
 20
184.873
 11
29.5
 21
185.5
  0
LINE
  8
0
 10
29.5
 20
185.5
 11
29.5
 21
204.5
  0
LINE
  8
0
 10
29.5
 20
204.5
 11
29.4606
 21
205.127
  0
LINE
  8
0
 10
29.4606
 20
205.127
 11
29.3429
 21
205.743
  0
LINE
  8
0
 10
29.3429
 20
205.743
 11
29.1489
 21
206.341
  0
LINE
  8
0
 10
29.1489
 20
206.341
 11
28.8815
 21
206.909
  0
LINE
  8
0
 10
28.8815
 20
206.909
 11
28.5451
 21
207.439
  0
LINE
  8
0
 10
28.5451
 20
207.439
 11
28.1448
 21
207.923
  0
LINE
  8
0
 10
28.1448
 20
207.923
 11
27.6871
 21
208.353
  0
LINE
  8
0
 10
27.6871
 20
208.353
 11
27.1791
 21
208.722
  0
LINE
  8
0
 10
27.1791
 20
208.722
 11
26.6289
 21
209.024
  0
LINE
  8
0
 10
26.6289
 20
209.024
 11
26.0451
 21
209.255
  0
LINE
  8
0
 10
26.0451
 20
209.255
 11
25.4369
 21
209.411
  0
LINE
  8
0
 10
25.4369
 20
209.411
 11
24.8139
 21
209.49
  0
LINE
  8
0
 10
24.8139
 20
209.49
 11
-24.8139
 21
209.49
  0
LINE
  8
0
 10
-24.8139
 20
209.49
 11
-25.4369
 21
209.411
  0
LINE
  8
0
 10
-25.4369
 20
209.411
 11
-26.0451
 21
209.255
  0
LINE
  8
0
 10
-26.0451
 20
209.255
 11
-26.6289
 21
209.024
  0
LINE
  8
0
 10
-26.6289
 20
209.024
 11
-27.1791
 21
208.722
  0
LINE
  8
0
 10
-27.1791
 20
208.722
 11
-27.6871
 21
208.353
  0
LINE
  8
0
 10
-27.6871
 20
208.353
 11
-28.1448
 21
207.923
  0
LINE
  8
0
 10
-28.1448
 20
207.923
 11
-28.5451
 21
207.439
  0
LINE
  8
0
 10
-28.5451
 20
207.439
 11
-28.8815
 21
206.909
  0
LINE
  8
0
 10
-28.8815
 20
206.909
 11
-29.1489
 21
206.341
  0
LINE
  8
0
 10
-29.1489
 20
206.341
 11
-29.3429
 21
205.743
  0
LINE
  8
0
 10
-29.3429
 20
205.743
 11
-29.4606
 21
205.127
  0
LINE
  8
0
 10
-29.4606
 20
205.127
 11
-29.5
 21
204.5
  0
LINE
  8
0
 10
-29.5
 20
204.5
 11
-29.5
 21
185.5
  0
LINE
  8
0
 10
-29.5
 20
185.5
 11
-29.4606
 21
184.873
  0
LINE
  8
0
 10
-29.4606
 20
184.873
 11
-29.3429
 21
184.257
  0
LINE
  8
0
 10
-29.3429
 20
184.257
 11
-29.1489
 21
183.659
  0
LINE
  8
0
 10
-29.1489
 20
183.659
 11
-28.8815
 21
183.091
  0
LINE
  8
0
 10
-28.8815
 20
183.091
 11
-28.5451
 21
182.561
  0
LINE
  8
0
 10
-28.5451
 20
182.561
 11
-28.1448
 21
182.077
  0
LINE
  8
0
 10
-28.1448
 20
182.077
 11
-27.6871
 21
181.647
  0
LINE
  8
0
 10
-27.6871
 20
181.647
 11
-27.1791
 21
181.278
  0
LINE
  8
0
 10
-27.1791
 20
181.278
 11
-26.6289
 21
180.976
  0
LINE
  8
0
 10
-26.6289
 20
180.976
 11
-26.0451
 21
180.745
  0
LINE
  8
0
 10
-26.0451
 20
180.745
 11
-25.4369
 21
180.589
  0
LINE
  8
0
 10
-25.4369
 20
180.589
 11
-24.8139
 21
180.51
  0
LINE
  8
0
 10
-24.8139
 20
180.51
 11
24.8139
 21
180.51
  0
LINE
  8
0
 10
24.8139
 20
180.51
 11
25.4369
 21
180.589
  0
LINE
  8
0
 10
25.4369
 20
141.589
 11
26.0451
 21
141.745
  0
LINE
  8
0
 10
26.0451
 20
141.745
 11
26.6289
 21
141.976
  0
LINE
  8
0
 10
26.6289
 20
141.976
 11
27.1791
 21
142.278
  0
LINE
  8
0
 10
27.1791
 20
142.278
 11
27.6871
 21
142.647
  0
LINE
  8
0
 10
27.6871
 20
142.647
 11
28.1448
 21
143.077
  0
LINE
  8
0
 10
28.1448
 20
143.077
 11
28.5451
 21
143.561
  0
LINE
  8
0
 10
28.5451
 20
143.561
 11
28.8815
 21
144.091
  0
LINE
  8
0
 10
28.8815
 20
144.091
 11
29.1489
 21
144.659
  0
LINE
  8
0
 10
29.1489
 20
144.659
 11
29.3429
 21
145.257
  0
LINE
  8
0
 10
29.3429
 20
145.257
 11
29.4606
 21
145.873
  0
LINE
  8
0
 10
29.4606
 20
145.873
 11
29.5
 21
146.5
  0
LINE
  8
0
 10
29.5
 20
146.5
 11
29.5
 21
165.5
  0
LINE
  8
0
 10
29.5
 20
165.5
 11
29.4606
 21
166.127
  0
LINE
  8
0
 10
29.4606
 20
166.127
 11
29.3429
 21
166.743
  0
LINE
  8
0
 10
29.3429
 20
166.743
 11
29.1489
 21
167.341
  0
LINE
  8
0
 10
29.1489
 20
167.341
 11
28.8815
 21
167.909
  0
LINE
  8
0
 10
28.8815
 20
167.909
 11
28.5451
 21
168.439
  0
LINE
  8
0
 10
28.5451
 20
168.439
 11
28.1448
 21
168.923
  0
LINE
  8
0
 10
28.1448
 20
168.923
 11
27.6871
 21
169.353
  0
LINE
  8
0
 10
27.6871
 20
169.353
 11
27.1791
 21
169.722
  0
LINE
  8
0
 10
27.1791
 20
169.722
 11
26.6289
 21
170.024
  0
LINE
  8
0
 10
26.6289
 20
170.024
 11
26.0451
 21
170.255
  0
LINE
  8
0
 10
26.0451
 20
170.255
 11
25.4369
 21
170.411
  0
LINE
  8
0
 10
25.4369
 20
170.411
 11
24.8139
 21
170.49
  0
LINE
  8
0
 10
24.8139
 20
170.49
 11
-24.8139
 21
170.49
  0
LINE
  8
0
 10
-24.8139
 20
170.49
 11
-25.4369
 21
170.411
  0
LINE
  8
0
 10
-25.4369
 20
170.411
 11
-26.0451
 21
170.255
  0
LINE
  8
0
 10
-26.0451
 20
170.255
 11
-26.6289
 21
170.024
  0
LINE
  8
0
 10
-26.6289
 20
170.024
 11
-27.1791
 21
169.722
  0
LINE
  8
0
 10
-27.1791
 20
169.722
 11
-27.6871
 21
169.353
  0
LINE
  8
0
 10
-27.6871
 20
169.353
 11
-28.1448
 21
168.923
  0
LINE
  8
0
 10
-28.1448
 20
168.923
 11
-28.5451
 21
168.439
  0
LINE
  8
0
 10
-28.5451
 20
168.439
 11
-28.8815
 21
167.909
  0
LINE
  8
0
 10
-28.8815
 20
167.909
 11
-29.1489
 21
167.341
  0
LINE
  8
0
 10
-29.1489
 20
167.341
 11
-29.3429
 21
166.743
  0
LINE
  8
0
 10
-29.3429
 20
166.743
 11
-29.4606
 21
166.127
  0
LINE
  8
0
 10
-29.4606
 20
166.127
 11
-29.5
 21
165.5
  0
LINE
  8
0
 10
-29.5
 20
165.5
 11
-29.5
 21
146.5
  0
LINE
  8
0
 10
-29.5
 20
146.5
 11
-29.4606
 21
145.873
  0
LINE
  8
0
 10
-29.4606
 20
145.873
 11
-29.3429
 21
145.257
  0
LINE
  8
0
 10
-29.3429
 20
145.257
 11
-29.1489
 21
144.659
  0
LINE
  8
0
 10
-29.1489
 20
144.659
 11
-28.8815
 21
144.091
  0
LINE
  8
0
 10
-28.8815
 20
144.091
 11
-28.5451
 21
143.561
  0
LINE
  8
0
 10
-28.5451
 20
143.561
 11
-28.1448
 21
143.077
  0
LINE
  8
0
 10
-28.1448
 20
143.077
 11
-27.6871
 21
142.647
  0
LINE
  8
0
 10
-27.6871
 20
142.647
 11
-27.1791
 21
142.278
  0
LINE
  8
0
 10
-27.1791
 20
142.278
 11
-26.6289
 21
141.976
  0
LINE
  8
0
 10
-26.6289
 20
141.976
 11
-26.0451
 21
141.745
  0
LINE
  8
0
 10
-26.0451
 20
141.745
 11
-25.4369
 21
141.589
  0
LINE
  8
0
 10
-25.4369
 20
141.589
 11
-24.8139
 21
141.51
  0
LINE
  8
0
 10
-24.8139
 20
141.51
 11
24.8139
 21
141.51
  0
LINE
  8
0
 10
24.8139
 20
141.51
 11
25.4369
 21
141.589
  0
LINE
  8
0
 10
22.3493
 20
161.105
 11
22.0503
 21
161.143
  0
LINE
  8
0
 10
22.0503
 20
161.143
 11
21.7583
 21
161.217
  0
LINE
  8
0
 10
21.7583
 20
161.217
 11
21.4781
 21
161.328
  0
LINE
  8
0
 10
21.4781
 20
161.328
 11
21.214
 21
161.474
  0
LINE
  8
0
 10
21.214
 20
161.474
 11
20.9702
 21
161.651
  0
LINE
  8
0
 10
20.9702
 20
161.651
 11
20.7505
 21
161.857
  0
LINE
  8
0
 10
20.7505
 20
161.857
 11
20.5583
 21
162.089
  0
LINE
  8
0
 10
20.5583
 20
162.089
 11
20.3969
 21
162.344
  0
LINE
  8
0
 10
20.3969
 20
162.344
 11
20.2685
 21
162.617
  0
LINE
  8
0
 10
20.2685
 20
162.617
 11
20.1754
 21
162.903
  0
LINE
  8
0
 10
20.1754
 20
162.903
 11
20.1189
 21
163.199
  0
LINE
  8
0
 10
20.1189
 20
163.199
 11
20.1
 21
163.5
  0
LINE
  8
0
 10
20.1
 20
163.5
 11
20.1189
 21
163.801
  0
LINE
  8
0
 10
20.1189
 20
163.801
 11
20.1754
 21
164.097
  0
LINE
  8
0
 10
20.1754
 20
164.097
 11
20.2685
 21
164.383
  0
LINE
  8
0
 10
20.2685
 20
164.383
 11
20.3969
 21
164.656
  0
LINE
  8
0
 10
20.3969
 20
164.656
 11
20.5583
 21
164.911
  0
LINE
  8
0
 10
20.5583
 20
164.911
 11
20.7505
 21
165.143
  0
LINE
  8
0
 10
20.7505
 20
165.143
 11
20.9702
 21
165.349
  0
LINE
  8
0
 10
20.9702
 20
165.349
 11
21.214
 21
165.526
  0
LINE
  8
0
 10
21.214
 20
165.526
 11
21.4781
 21
165.672
  0
LINE
  8
0
 10
21.4781
 20
165.672
 11
21.7583
 21
165.783
  0
LINE
  8
0
 10
21.7583
 20
165.783
 11
22.0503
 21
165.857
  0
LINE
  8
0
 10
22.0503
 20
165.857
 11
22.3493
 21
165.895
  0
LINE
  8
0
 10
22.3493
 20
165.895
 11
22.6507
 21
165.895
  0
LINE
  8
0
 10
22.6507
 20
165.895
 11
22.9497
 21
165.857
  0
LINE
  8
0
 10
22.9497
 20
165.857
 11
23.2416
 21
165.783
  0
LINE
  8
0
 10
23.2416
 20
165.783
 11
23.5219
 21
165.672
  0
LINE
  8
0
 10
23.5219
 20
165.672
 11
23.786
 21
165.526
  0
LINE
  8
0
 10
23.786
 20
165.526
 11
24.0298
 21
165.349
  0
LINE
  8
0
 10
24.0298
 20
165.349
 11
24.2495
 21
165.143
  0
LINE
  8
0
 10
24.2495
 20
165.143
 11
24.4416
 21
164.911
  0
LINE
  8
0
 10
24.4416
 20
164.911
 11
24.6031
 21
164.656
  0
LINE
  8
0
 10
24.6031
 20
164.656
 11
24.7315
 21
164.383
  0
LINE
  8
0
 10
24.7315
 20
164.383
 11
24.8246
 21
164.097
  0
LINE
  8
0
 10
24.8246
 20
164.097
 11
24.8811
 21
163.801
  0
LINE
  8
0
 10
24.8811
 20
163.801
 11
24.9
 21
163.5
  0
LINE
  8
0
 10
24.9
 20
163.5
 11
24.8811
 21
163.199
  0
LINE
  8
0
 10
24.8811
 20
163.199
 11
24.8246
 21
162.903
  0
LINE
  8
0
 10
24.8246
 20
162.903
 11
24.7315
 21
162.617
  0
LINE
  8
0
 10
24.7315
 20
162.617
 11
24.6031
 21
162.344
  0
LINE
  8
0
 10
24.6031
 20
162.344
 11
24.4416
 21
162.089
  0
LINE
  8
0
 10
24.4416
 20
162.089
 11
24.2495
 21
161.857
  0
LINE
  8
0
 10
24.2495
 20
161.857
 11
24.0298
 21
161.651
  0
LINE
  8
0
 10
24.0298
 20
161.651
 11
23.786
 21
161.474
  0
LINE
  8
0
 10
23.786
 20
161.474
 11
23.5219
 21
161.328
  0
LINE
  8
0
 10
23.5219
 20
161.328
 11
23.2416
 21
161.217
  0
LINE
  8
0
 10
23.2416
 20
161.217
 11
22.9497
 21
161.143
  0
LINE
  8
0
 10
22.9497
 20
161.143
 11
22.6507
 21
161.105
  0
LINE
  8
0
 10
22.6507
 20
161.105
 11
22.3493
 21
161.105
  0
LINE
  8
0
 10
-22.6507
 20
161.105
 11
-22.9497
 21
161.143
  0
LINE
  8
0
 10
-22.9497
 20
161.143
 11
-23.2416
 21
161.217
  0
LINE
  8
0
 10
-23.2416
 20
161.217
 11
-23.5219
 21
161.328
  0
LINE
  8
0
 10
-23.5219
 20
161.328
 11
-23.786
 21
161.474
  0
LINE
  8
0
 10
-23.786
 20
161.474
 11
-24.0298
 21
161.651
  0
LINE
  8
0
 10
-24.0298
 20
161.651
 11
-24.2495
 21
161.857
  0
LINE
  8
0
 10
-24.2495
 20
161.857
 11
-24.4416
 21
162.089
  0
LINE
  8
0
 10
-24.4416
 20
162.089
 11
-24.6031
 21
162.344
  0
LINE
  8
0
 10
-24.6031
 20
162.344
 11
-24.7315
 21
162.617
  0
LINE
  8
0
 10
-24.7315
 20
162.617
 11
-24.8246
 21
162.903
  0
LINE
  8
0
 10
-24.8246
 20
162.903
 11
-24.8811
 21
163.199
  0
LINE
  8
0
 10
-24.8811
 20
163.199
 11
-24.9
 21
163.5
  0
LINE
  8
0
 10
-24.9
 20
163.5
 11
-24.8811
 21
163.801
  0
LINE
  8
0
 10
-24.8811
 20
163.801
 11
-24.8246
 21
164.097
  0
LINE
  8
0
 10
-24.8246
 20
164.097
 11
-24.7315
 21
164.383
  0
LINE
  8
0
 10
-24.7315
 20
164.383
 11
-24.6031
 21
164.656
  0
LINE
  8
0
 10
-24.6031
 20
164.656
 11
-24.4416
 21
164.911
  0
LINE
  8
0
 10
-24.4416
 20
164.911
 11
-24.2495
 21
165.143
  0
LINE
  8
0
 10
-24.2495
 20
165.143
 11
-24.0298
 21
165.349
  0
LINE
  8
0
 10
-24.0298
 20
165.349
 11
-23.786
 21
165.526
  0
LINE
  8
0
 10
-23.786
 20
165.526
 11
-23.5219
 21
165.672
  0
LINE
  8
0
 10
-23.5219
 20
165.672
 11
-23.2416
 21
165.783
  0
LINE
  8
0
 10
-23.2416
 20
165.783
 11
-22.9497
 21
165.857
  0
LINE
  8
0
 10
-22.9497
 20
165.857
 11
-22.6507
 21
165.895
  0
LINE
  8
0
 10
-22.6507
 20
165.895
 11
-22.3493
 21
165.895
  0
LINE
  8
0
 10
-22.3493
 20
165.895
 11
-22.0503
 21
165.857
  0
LINE
  8
0
 10
-22.0503
 20
165.857
 11
-21.7583
 21
165.783
  0
LINE
  8
0
 10
-21.7583
 20
165.783
 11
-21.4781
 21
165.672
  0
LINE
  8
0
 10
-21.4781
 20
165.672
 11
-21.214
 21
165.526
  0
LINE
  8
0
 10
-21.214
 20
165.526
 11
-20.9702
 21
165.349
  0
LINE
  8
0
 10
-20.9702
 20
165.349
 11
-20.7505
 21
165.143
  0
LINE
  8
0
 10
-20.7505
 20
165.143
 11
-20.5583
 21
164.911
  0
LINE
  8
0
 10
-20.5583
 20
164.911
 11
-20.3969
 21
164.656
  0
LINE
  8
0
 10
-20.3969
 20
164.656
 11
-20.2685
 21
164.383
  0
LINE
  8
0
 10
-20.2685
 20
164.383
 11
-20.1754
 21
164.097
  0
LINE
  8
0
 10
-20.1754
 20
164.097
 11
-20.1189
 21
163.801
  0
LINE
  8
0
 10
-20.1189
 20
163.801
 11
-20.1
 21
163.5
  0
LINE
  8
0
 10
-20.1
 20
163.5
 11
-20.1189
 21
163.199
  0
LINE
  8
0
 10
-20.1189
 20
163.199
 11
-20.1754
 21
162.903
  0
LINE
  8
0
 10
-20.1754
 20
162.903
 11
-20.2685
 21
162.617
  0
LINE
  8
0
 10
-20.2685
 20
162.617
 11
-20.3969
 21
162.344
  0
LINE
  8
0
 10
-20.3969
 20
162.344
 11
-20.5583
 21
162.089
  0
LINE
  8
0
 10
-20.5583
 20
162.089
 11
-20.7505
 21
161.857
  0
LINE
  8
0
 10
-20.7505
 20
161.857
 11
-20.9702
 21
161.651
  0
LINE
  8
0
 10
-20.9702
 20
161.651
 11
-21.214
 21
161.474
  0
LINE
  8
0
 10
-21.214
 20
161.474
 11
-21.4781
 21
161.328
  0
LINE
  8
0
 10
-21.4781
 20
161.328
 11
-21.7583
 21
161.217
  0
LINE
  8
0
 10
-21.7583
 20
161.217
 11
-22.0503
 21
161.143
  0
LINE
  8
0
 10
-22.0503
 20
161.143
 11
-22.3493
 21
161.105
  0
LINE
  8
0
 10
-22.3493
 20
161.105
 11
-22.6507
 21
161.105
  0
LINE
  8
0
 10
-22.6507
 20
146.105
 11
-22.9497
 21
146.143
  0
LINE
  8
0
 10
-22.9497
 20
146.143
 11
-23.2416
 21
146.217
  0
LINE
  8
0
 10
-23.2416
 20
146.217
 11
-23.5219
 21
146.328
  0
LINE
  8
0
 10
-23.5219
 20
146.328
 11
-23.786
 21
146.474
  0
LINE
  8
0
 10
-23.786
 20
146.474
 11
-24.0298
 21
146.651
  0
LINE
  8
0
 10
-24.0298
 20
146.651
 11
-24.2495
 21
146.857
  0
LINE
  8
0
 10
-24.2495
 20
146.857
 11
-24.4416
 21
147.089
  0
LINE
  8
0
 10
-24.4416
 20
147.089
 11
-24.6031
 21
147.344
  0
LINE
  8
0
 10
-24.6031
 20
147.344
 11
-24.7315
 21
147.617
  0
LINE
  8
0
 10
-24.7315
 20
147.617
 11
-24.8246
 21
147.903
  0
LINE
  8
0
 10
-24.8246
 20
147.903
 11
-24.8811
 21
148.199
  0
LINE
  8
0
 10
-24.8811
 20
148.199
 11
-24.9
 21
148.5
  0
LINE
  8
0
 10
-24.9
 20
148.5
 11
-24.8811
 21
148.801
  0
LINE
  8
0
 10
-24.8811
 20
148.801
 11
-24.8246
 21
149.097
  0
LINE
  8
0
 10
-24.8246
 20
149.097
 11
-24.7315
 21
149.383
  0
LINE
  8
0
 10
-24.7315
 20
149.383
 11
-24.6031
 21
149.656
  0
LINE
  8
0
 10
-24.6031
 20
149.656
 11
-24.4416
 21
149.911
  0
LINE
  8
0
 10
-24.4416
 20
149.911
 11
-24.2495
 21
150.143
  0
LINE
  8
0
 10
-24.2495
 20
150.143
 11
-24.0298
 21
150.349
  0
LINE
  8
0
 10
-24.0298
 20
150.349
 11
-23.786
 21
150.526
  0
LINE
  8
0
 10
-23.786
 20
150.526
 11
-23.5219
 21
150.672
  0
LINE
  8
0
 10
-23.5219
 20
150.672
 11
-23.2416
 21
150.783
  0
LINE
  8
0
 10
-23.2416
 20
150.783
 11
-22.9497
 21
150.857
  0
LINE
  8
0
 10
-22.9497
 20
150.857
 11
-22.6507
 21
150.895
  0
LINE
  8
0
 10
-22.6507
 20
150.895
 11
-22.3493
 21
150.895
  0
LINE
  8
0
 10
-22.3493
 20
150.895
 11
-22.0503
 21
150.857
  0
LINE
  8
0
 10
-22.0503
 20
150.857
 11
-21.7583
 21
150.783
  0
LINE
  8
0
 10
-21.7583
 20
150.783
 11
-21.4781
 21
150.672
  0
LINE
  8
0
 10
-21.4781
 20
150.672
 11
-21.214
 21
150.526
  0
LINE
  8
0
 10
-21.214
 20
150.526
 11
-20.9702
 21
150.349
  0
LINE
  8
0
 10
-20.9702
 20
150.349
 11
-20.7505
 21
150.143
  0
LINE
  8
0
 10
-20.7505
 20
150.143
 11
-20.5583
 21
149.911
  0
LINE
  8
0
 10
-20.5583
 20
149.911
 11
-20.3969
 21
149.656
  0
LINE
  8
0
 10
-20.3969
 20
149.656
 11
-20.2685
 21
149.383
  0
LINE
  8
0
 10
-20.2685
 20
149.383
 11
-20.1754
 21
149.097
  0
LINE
  8
0
 10
-20.1754
 20
149.097
 11
-20.1189
 21
148.801
  0
LINE
  8
0
 10
-20.1189
 20
148.801
 11
-20.1
 21
148.5
  0
LINE
  8
0
 10
-20.1
 20
148.5
 11
-20.1189
 21
148.199
  0
LINE
  8
0
 10
-20.1189
 20
148.199
 11
-20.1754
 21
147.903
  0
LINE
  8
0
 10
-20.1754
 20
147.903
 11
-20.2685
 21
147.617
  0
LINE
  8
0
 10
-20.2685
 20
147.617
 11
-20.3969
 21
147.344
  0
LINE
  8
0
 10
-20.3969
 20
147.344
 11
-20.5583
 21
147.089
  0
LINE
  8
0
 10
-20.5583
 20
147.089
 11
-20.7505
 21
146.857
  0
LINE
  8
0
 10
-20.7505
 20
146.857
 11
-20.9702
 21
146.651
  0
LINE
  8
0
 10
-20.9702
 20
146.651
 11
-21.214
 21
146.474
  0
LINE
  8
0
 10
-21.214
 20
146.474
 11
-21.4781
 21
146.328
  0
LINE
  8
0
 10
-21.4781
 20
146.328
 11
-21.7583
 21
146.217
  0
LINE
  8
0
 10
-21.7583
 20
146.217
 11
-22.0503
 21
146.143
  0
LINE
  8
0
 10
-22.0503
 20
146.143
 11
-22.3493
 21
146.105
  0
LINE
  8
0
 10
-22.3493
 20
146.105
 11
-22.6507
 21
146.105
  0
LINE
  8
0
 10
22.3493
 20
146.105
 11
22.0503
 21
146.143
  0
LINE
  8
0
 10
22.0503
 20
146.143
 11
21.7583
 21
146.217
  0
LINE
  8
0
 10
21.7583
 20
146.217
 11
21.4781
 21
146.328
  0
LINE
  8
0
 10
21.4781
 20
146.328
 11
21.214
 21
146.474
  0
LINE
  8
0
 10
21.214
 20
146.474
 11
20.9702
 21
146.651
  0
LINE
  8
0
 10
20.9702
 20
146.651
 11
20.7505
 21
146.857
  0
LINE
  8
0
 10
20.7505
 20
146.857
 11
20.5583
 21
147.089
  0
LINE
  8
0
 10
20.5583
 20
147.089
 11
20.3969
 21
147.344
  0
LINE
  8
0
 10
20.3969
 20
147.344
 11
20.2685
 21
147.617
  0
LINE
  8
0
 10
20.2685
 20
147.617
 11
20.1754
 21
147.903
  0
LINE
  8
0
 10
20.1754
 20
147.903
 11
20.1189
 21
148.199
  0
LINE
  8
0
 10
20.1189
 20
148.199
 11
20.1
 21
148.5
  0
LINE
  8
0
 10
20.1
 20
148.5
 11
20.1189
 21
148.801
  0
LINE
  8
0
 10
20.1189
 20
148.801
 11
20.1754
 21
149.097
  0
LINE
  8
0
 10
20.1754
 20
149.097
 11
20.2685
 21
149.383
  0
LINE
  8
0
 10
20.2685
 20
149.383
 11
20.3969
 21
149.656
  0
LINE
  8
0
 10
20.3969
 20
149.656
 11
20.5583
 21
149.911
  0
LINE
  8
0
 10
20.5583
 20
149.911
 11
20.7505
 21
150.143
  0
LINE
  8
0
 10
20.7505
 20
150.143
 11
20.9702
 21
150.349
  0
LINE
  8
0
 10
20.9702
 20
150.349
 11
21.214
 21
150.526
  0
LINE
  8
0
 10
21.214
 20
150.526
 11
21.4781
 21
150.672
  0
LINE
  8
0
 10
21.4781
 20
150.672
 11
21.7583
 21
150.783
  0
LINE
  8
0
 10
21.7583
 20
150.783
 11
22.0503
 21
150.857
  0
LINE
  8
0
 10
22.0503
 20
150.857
 11
22.3493
 21
150.895
  0
LINE
  8
0
 10
22.3493
 20
150.895
 11
22.6507
 21
150.895
  0
LINE
  8
0
 10
22.6507
 20
150.895
 11
22.9497
 21
150.857
  0
LINE
  8
0
 10
22.9497
 20
150.857
 11
23.2416
 21
150.783
  0
LINE
  8
0
 10
23.2416
 20
150.783
 11
23.5219
 21
150.672
  0
LINE
  8
0
 10
23.5219
 20
150.672
 11
23.786
 21
150.526
  0
LINE
  8
0
 10
23.786
 20
150.526
 11
24.0298
 21
150.349
  0
LINE
  8
0
 10
24.0298
 20
150.349
 11
24.2495
 21
150.143
  0
LINE
  8
0
 10
24.2495
 20
150.143
 11
24.4416
 21
149.911
  0
LINE
  8
0
 10
24.4416
 20
149.911
 11
24.6031
 21
149.656
  0
LINE
  8
0
 10
24.6031
 20
149.656
 11
24.7315
 21
149.383
  0
LINE
  8
0
 10
24.7315
 20
149.383
 11
24.8246
 21
149.097
  0
LINE
  8
0
 10
24.8246
 20
149.097
 11
24.8811
 21
148.801
  0
LINE
  8
0
 10
24.8811
 20
148.801
 11
24.9
 21
148.5
  0
LINE
  8
0
 10
24.9
 20
148.5
 11
24.8811
 21
148.199
  0
LINE
  8
0
 10
24.8811
 20
148.199
 11
24.8246
 21
147.903
  0
LINE
  8
0
 10
24.8246
 20
147.903
 11
24.7315
 21
147.617
  0
LINE
  8
0
 10
24.7315
 20
147.617
 11
24.6031
 21
147.344
  0
LINE
  8
0
 10
24.6031
 20
147.344
 11
24.4416
 21
147.089
  0
LINE
  8
0
 10
24.4416
 20
147.089
 11
24.2495
 21
146.857
  0
LINE
  8
0
 10
24.2495
 20
146.857
 11
24.0298
 21
146.651
  0
LINE
  8
0
 10
24.0298
 20
146.651
 11
23.786
 21
146.474
  0
LINE
  8
0
 10
23.786
 20
146.474
 11
23.5219
 21
146.328
  0
LINE
  8
0
 10
23.5219
 20
146.328
 11
23.2416
 21
146.217
  0
LINE
  8
0
 10
23.2416
 20
146.217
 11
22.9497
 21
146.143
  0
LINE
  8
0
 10
22.9497
 20
146.143
 11
22.6507
 21
146.105
  0
LINE
  8
0
 10
22.6507
 20
146.105
 11
22.3493
 21
146.105
  0
ENDSEC
  0
SECTION
  2
OBJECTS
  0
DICTIONARY
  0
ENDSEC
  0
EOF
