<?xml version="1.0" standalone="no"?>
<!DOCTYPE svg PUBLIC "-//W3C//DTD SVG 1.1//EN" "http://www.w3.org/Graphics/SVG/1.1/DTD/svg11.dtd">
<svg width="76mm" height="327mm" viewBox="-39 -542 76 327" xmlns="http://www.w3.org/2000/svg" version="1.1">
<title>OpenSCAD Model</title>
<path d="
M -36,-469.007 L -35.6448,-468.577 L -35.1871,-468.147 L -34.6791,-467.778 L -34.1289,-467.476 L -33.5451,-467.245
 L -32.9369,-467.089 L -32.3139,-467.01 L 32.3139,-467.01 L 32.9369,-467.089 L 33.5451,-467.245 L 34.1289,-467.476
 L 34.6791,-467.778 L 35.1871,-468.147 L 35.6448,-468.577 L 36.0451,-469.061 L 36.3815,-469.591 L 36.6489,-470.159
 L 36.8429,-470.757 L 36.9606,-471.373 L 37,-472 L 37,-536 L 36.9606,-536.627 L 36.8429,-537.243
 L 36.6489,-537.841 L 36.3815,-538.409 L 36.0451,-538.939 L 35.6448,-539.423 L 35.1871,-539.853 L 34.6791,-540.222
 L 34.1289,-540.524 L 33.5451,-540.755 L 32.9369,-540.911 L 32.3139,-540.99 L -32.3139,-540.99 L -32.9369,-540.911
 L -33.5451,-540.755 L -34.1289,-540.524 L -34.6791,-540.222 L -35.1871,-539.853 L -35.6448,-539.423 L -36,-538.993
 L -36,-541.49 L -39,-541.49 L -39,-466.51 L -36,-466.51 z
M -32.2512,-468.008 L -32.7495,-468.071 L -33.2361,-468.196 L -33.7031,-468.381 L -34.1433,-468.623 L -34.5497,-468.918
 L -34.9159,-469.262 L -35.2361,-469.649 L -35.5052,-470.073 L -35.7191,-470.528 L -35.8743,-471.005 L -35.9685,-471.499
 L -36,-472 L -36,-536 L -35.9685,-536.501 L -35.8743,-536.995 L -35.7191,-537.472 L -35.5052,-537.927
 L -35.2361,-538.351 L -34.9159,-538.738 L -34.5497,-539.082 L -34.1433,-539.377 L -33.7031,-539.619 L -33.2361,-539.804
 L -32.7495,-539.929 L -32.2512,-539.992 L 32.2512,-539.992 L 32.7495,-539.929 L 33.2361,-539.804 L 33.7031,-539.619
 L 34.1433,-539.377 L 34.5497,-539.082 L 34.9159,-538.738 L 35.2361,-538.351 L 35.5052,-537.927 L 35.7191,-537.472
 L 35.8743,-536.995 L 35.9685,-536.501 L 36,-536 L 36,-472 L 35.9685,-471.499 L 35.8743,-471.005
 L 35.7191,-470.528 L 35.5052,-470.073 L 35.2361,-469.649 L 34.9159,-469.262 L 34.5497,-468.918 L 34.1433,-468.623
 L 33.7031,-468.381 L 33.2361,-468.196 L 32.7495,-468.071 L 32.2512,-468.008 z
M -36,-385.007 L -35.6448,-384.577 L -35.1871,-384.147 L -34.6791,-383.778 L -34.1289,-383.476 L -33.5451,-383.245
 L -32.9369,-383.089 L -32.3139,-383.01 L 32.3139,-383.01 L 32.9369,-383.089 L 33.5451,-383.245 L 34.1289,-383.476
 L 34.6791,-383.778 L 35.1871,-384.147 L 35.6448,-384.577 L 36.0451,-385.061 L 36.3815,-385.591 L 36.6489,-386.159
 L 36.8429,-386.757 L 36.9606,-387.373 L 37,-388 L 37,-452 L 36.9606,-452.627 L 36.8429,-453.243
 L 36.6489,-453.841 L 36.3815,-454.409 L 36.0451,-454.939 L 35.6448,-455.423 L 35.1871,-455.853 L 34.6791,-456.222
 L 34.1289,-456.524 L 33.5451,-456.755 L 32.9369,-456.911 L 32.3139,-456.99 L -32.3139,-456.99 L -32.9369,-456.911
 L -33.5451,-456.755 L -34.1289,-456.524 L -34.6791,-456.222 L -35.1871,-455.853 L -35.6448,-455.423 L -36,-454.993
 L -36,-457.49 L -39,-457.49 L -39,-382.51 L -36,-382.51 z
M -32.2432,-384.135 L -32.7256,-384.196 L -33.1967,-384.317 L -33.6489,-384.496 L -34.0751,-384.73 L -34.4685,-385.016
 L -34.823,-385.349 L -35.133,-385.724 L -35.3936,-386.134 L -35.6007,-386.574 L -35.751,-387.037 L -35.8421,-387.515
 L -35.8726,-388 L -35.8726,-452 L -35.8421,-452.485 L -35.751,-452.963 L -35.6007,-453.426 L -35.3936,-453.866
 L -35.133,-454.276 L -34.823,-454.651 L -34.4685,-454.984 L -34.0751,-455.27 L -33.6489,-455.504 L -33.1967,-455.683
 L -32.7256,-455.804 L -32.2432,-455.865 L 32.2432,-455.865 L 32.7256,-455.804 L 33.1967,-455.683 L 33.6489,-455.504
 L 34.0751,-455.27 L 34.4685,-454.984 L 34.823,-454.651 L 35.133,-454.276 L 35.3936,-453.866 L 35.6007,-453.426
 L 35.751,-452.963 L 35.8421,-452.485 L 35.8726,-452 L 35.8726,-388 L 35.8421,-387.515 L 35.751,-387.037
 L 35.6007,-386.574 L 35.3936,-386.134 L 35.133,-385.724 L 34.823,-385.349 L 34.4685,-385.016 L 34.0751,-384.73
 L 33.6489,-384.496 L 33.1967,-384.317 L 32.7256,-384.196 L 32.2432,-384.135 z
M -36,-301.007 L -35.6448,-300.577 L -35.1871,-300.147 L -34.6791,-299.778 L -34.1289,-299.476 L -33.5451,-299.245
 L -32.9369,-299.089 L -32.3139,-299.01 L 32.3139,-299.01 L 32.9369,-299.089 L 33.5451,-299.245 L 34.1289,-299.476
 L 34.6791,-299.778 L 35.1871,-300.147 L 35.6448,-300.577 L 36.0451,-301.061 L 36.3815,-301.591 L 36.6489,-302.159
 L 36.8429,-302.757 L 36.9606,-303.373 L 37,-304 L 37,-368 L 36.9606,-368.627 L 36.8429,-369.243
 L 36.6489,-369.841 L 36.3815,-370.409 L 36.0451,-370.939 L 35.6448,-371.423 L 35.1871,-371.853 L 34.6791,-372.222
 L 34.1289,-372.524 L 33.5451,-372.755 L 32.9369,-372.911 L 32.3139,-372.99 L -32.3139,-372.99 L -32.9369,-372.911
 L -33.5451,-372.755 L -34.1289,-372.524 L -34.6791,-372.222 L -35.1871,-371.853 L -35.6448,-371.423 L -36,-370.993
 L -36,-373.115 L -39,-373.115 L -39,-298.885 L -36,-298.885 z
M 32.9369,-215.089 L 33.5451,-215.245 L 34.1289,-215.476 L 34.6791,-215.778 L 35.1871,-216.147 L 35.6448,-216.577
 L 36.0451,-217.061 L 36.3815,-217.591 L 36.6489,-218.159 L 36.8429,-218.757 L 36.9606,-219.373 L 37,-220
 L 37,-284 L 36.9606,-284.627 L 36.8429,-285.243 L 36.6489,-285.841 L 36.3815,-286.409 L 36.0451,-286.939
 L 35.6448,-287.423 L 35.1871,-287.853 L 34.6791,-288.222 L 34.1289,-288.524 L 33.5451,-288.755 L 32.9369,-288.911
 L 32.3139,-288.99 L -32.3139,-288.99 L -32.9369,-288.911 L -33.5451,-288.755 L -34.1289,-288.524 L -34.6791,-288.222
 L -35.1871,-287.853 L -35.6448,-287.423 L -36.0451,-286.939 L -36.3815,-286.409 L -36.6489,-285.841 L -36.7777,-285.444
 L -39,-285.444 L -39,-218.556 L -36.7777,-218.556 L -36.6489,-218.159 L -36.3815,-217.591 L -36.0451,-217.061
 L -35.6448,-216.577 L -35.1871,-216.147 L -34.6791,-215.778 L -34.1289,-215.476 L -33.5451,-215.245 L -32.9369,-215.089
 L -32.3139,-215.01 L 32.3139,-215.01 z
M -30.1507,-279.605 L -30.4497,-279.643 L -30.7416,-279.717 L -31.0219,-279.828 L -31.286,-279.974 L -31.5298,-280.151
 L -31.7495,-280.357 L -31.9416,-280.589 L -32.1031,-280.844 L -32.2315,-281.117 L -32.3246,-281.403 L -32.3811,-281.699
 L -32.4,-282 L -32.3811,-282.301 L -32.3246,-282.597 L -32.2315,-282.883 L -32.1031,-283.156 L -31.9416,-283.411
 L -31.7495,-283.643 L -31.5298,-283.849 L -31.286,-284.026 L -31.0219,-284.172 L -30.7416,-284.283 L -30.4497,-284.357
 L -30.1507,-284.395 L -29.8493,-284.395 L -29.5503,-284.357 L -29.2583,-284.283 L -28.9781,-284.172 L -28.714,-284.026
 L -28.4702,-283.849 L -28.2505,-283.643 L -28.0583,-283.411 L -27.8969,-283.156 L -27.7685,-282.883 L -27.6754,-282.597
 L -27.6189,-282.301 L -27.6,-282 L -27.6189,-281.699 L -27.6754,-281.403 L -27.7685,-281.117 L -27.8969,-280.844
 L -28.0583,-280.589 L -28.2505,-280.357 L -28.4702,-280.151 L -28.714,-279.974 L -28.9781,-279.828 L -29.2583,-279.717
 L -29.5503,-279.643 L -29.8493,-279.605 z
M 29.8493,-279.605 L 29.5503,-279.643 L 29.2583,-279.717 L 28.9781,-279.828 L 28.714,-279.974 L 28.4702,-280.151
 L 28.2505,-280.357 L 28.0583,-280.589 L 27.8969,-280.844 L 27.7685,-281.117 L 27.6754,-281.403 L 27.6189,-281.699
 L 27.6,-282 L 27.6189,-282.301 L 27.6754,-282.597 L 27.7685,-282.883 L 27.8969,-283.156 L 28.0583,-283.411
 L 28.2505,-283.643 L 28.4702,-283.849 L 28.714,-284.026 L 28.9781,-284.172 L 29.2583,-284.283 L 29.5503,-284.357
 L 29.8493,-284.395 L 30.1507,-284.395 L 30.4497,-284.357 L 30.7416,-284.283 L 31.0219,-284.172 L 31.286,-284.026
 L 31.5298,-283.849 L 31.7495,-283.643 L 31.9416,-283.411 L 32.1031,-283.156 L 32.2315,-282.883 L 32.3246,-282.597
 L 32.3811,-282.301 L 32.4,-282 L 32.3811,-281.699 L 32.3246,-281.403 L 32.2315,-281.117 L 32.1031,-280.844
 L 31.9416,-280.589 L 31.7495,-280.357 L 31.5298,-280.151 L 31.286,-279.974 L 31.0219,-279.828 L 30.7416,-279.717
 L 30.4497,-279.643 L 30.1507,-279.605 z
M -30.1507,-219.605 L -30.4497,-219.643 L -30.7416,-219.717 L -31.0219,-219.828 L -31.286,-219.974 L -31.5298,-220.151
 L -31.7495,-220.357 L -31.9416,-220.589 L -32.1031,-220.844 L -32.2315,-221.117 L -32.3246,-221.403 L -32.3811,-221.699
 L -32.4,-222 L -32.3811,-222.301 L -32.3246,-222.597 L -32.2315,-222.883 L -32.1031,-223.156 L -31.9416,-223.411
 L -31.7495,-223.643 L -31.5298,-223.849 L -31.286,-224.026 L -31.0219,-224.172 L -30.7416,-224.283 L -30.4497,-224.357
 L -30.1507,-224.395 L -29.8493,-224.395 L -29.5503,-224.357 L -29.2583,-224.283 L -28.9781,-224.172 L -28.714,-224.026
 L -28.4702,-223.849 L -28.2505,-223.643 L -28.0583,-223.411 L -27.8969,-223.156 L -27.7685,-222.883 L -27.6754,-222.597
 L -27.6189,-222.301 L -27.6,-222 L -27.6189,-221.699 L -27.6754,-221.403 L -27.7685,-221.117 L -27.8969,-220.844
 L -28.0583,-220.589 L -28.2505,-220.357 L -28.4702,-220.151 L -28.714,-219.974 L -28.9781,-219.828 L -29.2583,-219.717
 L -29.5503,-219.643 L -29.8493,-219.605 z
M 29.8493,-219.605 L 29.5503,-219.643 L 29.2583,-219.717 L 28.9781,-219.828 L 28.714,-219.974 L 28.4702,-220.151
 L 28.2505,-220.357 L 28.0583,-220.589 L 27.8969,-220.844 L 27.7685,-221.117 L 27.6754,-221.403 L 27.6189,-221.699
 L 27.6,-222 L 27.6189,-222.301 L 27.6754,-222.597 L 27.7685,-222.883 L 27.8969,-223.156 L 28.0583,-223.411
 L 28.2505,-223.643 L 28.4702,-223.849 L 28.714,-224.026 L 28.9781,-224.172 L 29.2583,-224.283 L 29.5503,-224.357
 L 29.8493,-224.395 L 30.1507,-224.395 L 30.4497,-224.357 L 30.7416,-224.283 L 31.0219,-224.172 L 31.286,-224.026
 L 31.5298,-223.849 L 31.7495,-223.643 L 31.9416,-223.411 L 32.1031,-223.156 L 32.2315,-222.883 L 32.3246,-222.597
 L 32.3811,-222.301 L 32.4,-222 L 32.3811,-221.699 L 32.3246,-221.403 L 32.2315,-221.117 L 32.1031,-220.844
 L 31.9416,-220.589 L 31.7495,-220.357 L 31.5298,-220.151 L 31.286,-219.974 L 31.0219,-219.828 L 30.7416,-219.717
 L 30.4497,-219.643 L 30.1507,-219.605 z
" stroke="black" fill="lightgray" stroke-width="0.5"/>
</svg>
