<?xml version="1.0" standalone="no"?>
<!DOCTYPE svg PUBLIC "-//W3C//DTD SVG 1.1//EN" "http://www.w3.org/Graphics/SVG/1.1/DTD/svg11.dtd">
<svg width="16mm" height="13mm" viewBox="-8 -16 16 13" xmlns="http://www.w3.org/2000/svg" version="1.1">
<title>OpenSCAD Model</title>
<path d="
M 7.50099,-9.5 L 3.75049,-15.996 L -3.75049,-15.996 L -7.50099,-9.5 L -3.75049,-3.00395 L 3.75049,-3.00395
 z
M -0.25116,-5.5079 L -0.749512,-5.57086 L -1.23605,-5.69579 L -1.70311,-5.88071 L -2.1433,-6.1227 L -2.54968,-6.41795
 L -2.91586,-6.76183 L -3.23605,-7.14886 L -3.50522,-7.573 L -3.7191,-8.02751 L -3.87433,-8.50525 L -3.96844,-8.99867
 L -4,-9.5 L -3.96844,-10.0013 L -3.87433,-10.4948 L -3.7191,-10.9725 L -3.50522,-11.427 L -3.23605,-11.8511
 L -2.91586,-12.2382 L -2.54968,-12.582 L -2.1433,-12.8773 L -1.70311,-13.1193 L -1.23605,-13.3042 L -0.749512,-13.4291
 L -0.25116,-13.4921 L 0.25116,-13.4921 L 0.749512,-13.4291 L 1.23605,-13.3042 L 1.70311,-13.1193 L 2.1433,-12.8773
 L 2.54968,-12.582 L 2.91586,-12.2382 L 3.23605,-11.8511 L 3.50522,-11.427 L 3.7191,-10.9725 L 3.87433,-10.4948
 L 3.96844,-10.0013 L 4,-9.5 L 3.96844,-8.99867 L 3.87433,-8.50525 L 3.7191,-8.02751 L 3.50522,-7.573
 L 3.23605,-7.14886 L 2.91586,-6.76183 L 2.54968,-6.41795 L 2.1433,-6.1227 L 1.70311,-5.88071 L 1.23605,-5.69579
 L 0.749512,-5.57086 L 0.25116,-5.5079 z
" stroke="black" fill="lightgray" stroke-width="0.5"/>
</svg>
