<?xml version="1.0" standalone="no"?>
<!DOCTYPE svg PUBLIC "-//W3C//DTD SVG 1.1//EN" "http://www.w3.org/Graphics/SVG/1.1/DTD/svg11.dtd">
<svg width="60mm" height="8mm" viewBox="-30 -28 60 8" xmlns="http://www.w3.org/2000/svg" version="1.1">
<title>OpenSCAD Model</title>
<path d="
M 27.7184,-20.5443 L 28.0225,-20.6224 L 28.3144,-20.7379 L 28.5896,-20.8892 L 28.8436,-21.0737 L 29.0724,-21.2886
 L 29.2725,-21.5305 L 29.4408,-21.7956 L 29.5744,-22.0797 L 29.6714,-22.3783 L 29.7303,-22.6867 L 29.75,-23
 L 29.75,-25 L 29.7303,-25.3133 L 29.6714,-25.6217 L 29.5744,-25.9203 L 29.4408,-26.2044 L 29.2725,-26.4695
 L 29.0724,-26.7114 L 28.8436,-26.9263 L 28.5896,-27.1108 L 28.3144,-27.2621 L 28.0225,-27.3776 L 27.7184,-27.4557
 L 27.407,-27.4951 L -27.407,-27.4951 L -27.7184,-27.4557 L -28.0225,-27.3776 L -28.3144,-27.2621 L -28.5896,-27.1108
 L -28.8436,-26.9263 L -29.0724,-26.7114 L -29.2725,-26.4695 L -29.4408,-26.2044 L -29.5744,-25.9203 L -29.6714,-25.6217
 L -29.7303,-25.3133 L -29.75,-25 L -29.75,-23 L -29.7303,-22.6867 L -29.6714,-22.3783 L -29.5744,-22.0797
 L -29.4408,-21.7956 L -29.2725,-21.5305 L -29.0724,-21.2886 L -28.8436,-21.0737 L -28.5896,-20.8892 L -28.3144,-20.7379
 L -28.0225,-20.6224 L -27.7184,-20.5443 L -27.407,-20.5049 L 27.407,-20.5049 z
M 26.1558,-22.503 L 25.9689,-22.5266 L 25.7865,-22.5734 L 25.6113,-22.6428 L 25.4463,-22.7335 L 25.2939,-22.8442
 L 25.1565,-22.9732 L 25.0365,-23.1183 L 24.9355,-23.2774 L 24.8553,-23.4478 L 24.7971,-23.627 L 24.7618,-23.812
 L 24.75,-24 L 24.7618,-24.188 L 24.7971,-24.373 L 24.8553,-24.5522 L 24.9355,-24.7226 L 25.0365,-24.8817
 L 25.1565,-25.0268 L 25.2939,-25.1558 L 25.4463,-25.2665 L 25.6113,-25.3572 L 25.7865,-25.4266 L 25.9689,-25.4734
 L 26.1558,-25.497 L 26.3442,-25.497 L 26.5311,-25.4734 L 26.7135,-25.4266 L 26.8887,-25.3572 L 27.0537,-25.2665
 L 27.2061,-25.1558 L 27.3434,-25.0268 L 27.4635,-24.8817 L 27.5645,-24.7226 L 27.6447,-24.5522 L 27.7029,-24.373
 L 27.7382,-24.188 L 27.75,-24 L 27.7382,-23.812 L 27.7029,-23.627 L 27.6447,-23.4478 L 27.5645,-23.2774
 L 27.4635,-23.1183 L 27.3434,-22.9732 L 27.2061,-22.8442 L 27.0537,-22.7335 L 26.8887,-22.6428 L 26.7135,-22.5734
 L 26.5311,-22.5266 L 26.3442,-22.503 z
M 18.6558,-22.503 L 18.4689,-22.5266 L 18.2865,-22.5734 L 18.1113,-22.6428 L 17.9463,-22.7335 L 17.7939,-22.8442
 L 17.6565,-22.9732 L 17.5365,-23.1183 L 17.4355,-23.2774 L 17.3553,-23.4478 L 17.2971,-23.627 L 17.2618,-23.812
 L 17.25,-24 L 17.2618,-24.188 L 17.2971,-24.373 L 17.3553,-24.5522 L 17.4355,-24.7226 L 17.5365,-24.8817
 L 17.6565,-25.0268 L 17.7939,-25.1558 L 17.9463,-25.2665 L 18.1113,-25.3572 L 18.2865,-25.4266 L 18.4689,-25.4734
 L 18.6558,-25.497 L 18.8442,-25.497 L 19.0311,-25.4734 L 19.2135,-25.4266 L 19.3887,-25.3572 L 19.5537,-25.2665
 L 19.7061,-25.1558 L 19.8434,-25.0268 L 19.9635,-24.8817 L 20.0645,-24.7226 L 20.1447,-24.5522 L 20.2029,-24.373
 L 20.2382,-24.188 L 20.25,-24 L 20.2382,-23.812 L 20.2029,-23.627 L 20.1447,-23.4478 L 20.0645,-23.2774
 L 19.9635,-23.1183 L 19.8434,-22.9732 L 19.7061,-22.8442 L 19.5537,-22.7335 L 19.3887,-22.6428 L 19.2135,-22.5734
 L 19.0311,-22.5266 L 18.8442,-22.503 z
M 11.1558,-22.503 L 10.9689,-22.5266 L 10.7865,-22.5734 L 10.6113,-22.6428 L 10.4463,-22.7335 L 10.2939,-22.8442
 L 10.1565,-22.9732 L 10.0365,-23.1183 L 9.93553,-23.2774 L 9.85533,-23.4478 L 9.79712,-23.627 L 9.76183,-23.812
 L 9.75,-24 L 9.76183,-24.188 L 9.79712,-24.373 L 9.85533,-24.5522 L 9.93553,-24.7226 L 10.0365,-24.8817
 L 10.1565,-25.0268 L 10.2939,-25.1558 L 10.4463,-25.2665 L 10.6113,-25.3572 L 10.7865,-25.4266 L 10.9689,-25.4734
 L 11.1558,-25.497 L 11.3442,-25.497 L 11.5311,-25.4734 L 11.7135,-25.4266 L 11.8887,-25.3572 L 12.0537,-25.2665
 L 12.2061,-25.1558 L 12.3434,-25.0268 L 12.4635,-24.8817 L 12.5645,-24.7226 L 12.6447,-24.5522 L 12.7029,-24.373
 L 12.7382,-24.188 L 12.75,-24 L 12.7382,-23.812 L 12.7029,-23.627 L 12.6447,-23.4478 L 12.5645,-23.2774
 L 12.4635,-23.1183 L 12.3434,-22.9732 L 12.2061,-22.8442 L 12.0537,-22.7335 L 11.8887,-22.6428 L 11.7135,-22.5734
 L 11.5311,-22.5266 L 11.3442,-22.503 z
M -11.3442,-22.503 L -11.5311,-22.5266 L -11.7135,-22.5734 L -11.8887,-22.6428 L -12.0537,-22.7335 L -12.2061,-22.8442
 L -12.3434,-22.9732 L -12.4635,-23.1183 L -12.5645,-23.2774 L -12.6447,-23.4478 L -12.7029,-23.627 L -12.7382,-23.812
 L -12.75,-24 L -12.7382,-24.188 L -12.7029,-24.373 L -12.6447,-24.5522 L -12.5645,-24.7226 L -12.4635,-24.8817
 L -12.3434,-25.0268 L -12.2061,-25.1558 L -12.0537,-25.2665 L -11.8887,-25.3572 L -11.7135,-25.4266 L -11.5311,-25.4734
 L -11.3442,-25.497 L -11.1558,-25.497 L -10.9689,-25.4734 L -10.7865,-25.4266 L -10.6113,-25.3572 L -10.4463,-25.2665
 L -10.2939,-25.1558 L -10.1565,-25.0268 L -10.0365,-24.8817 L -9.93553,-24.7226 L -9.85533,-24.5522 L -9.79712,-24.373
 L -9.76183,-24.188 L -9.75,-24 L -9.76183,-23.812 L -9.79712,-23.627 L -9.85533,-23.4478 L -9.93553,-23.2774
 L -10.0365,-23.1183 L -10.1565,-22.9732 L -10.2939,-22.8442 L -10.4463,-22.7335 L -10.6113,-22.6428 L -10.7865,-22.5734
 L -10.9689,-22.5266 L -11.1558,-22.503 z
M -3.84418,-22.503 L -4.03107,-22.5266 L -4.21352,-22.5734 L -4.38866,-22.6428 L -4.55373,-22.7335 L -4.70613,-22.8442
 L -4.84344,-22.9732 L -4.96352,-23.1183 L -5.06445,-23.2774 L -5.14465,-23.4478 L -5.20287,-23.627 L -5.23816,-23.812
 L -5.25,-24 L -5.23816,-24.188 L -5.20287,-24.373 L -5.14465,-24.5522 L -5.06445,-24.7226 L -4.96352,-24.8817
 L -4.84344,-25.0268 L -4.70613,-25.1558 L -4.55373,-25.2665 L -4.38866,-25.3572 L -4.21352,-25.4266 L -4.03107,-25.4734
 L -3.84418,-25.497 L -3.65581,-25.497 L -3.46892,-25.4734 L -3.28647,-25.4266 L -3.11133,-25.3572 L -2.94626,-25.2665
 L -2.79385,-25.1558 L -2.65654,-25.0268 L -2.53647,-24.8817 L -2.43553,-24.7226 L -2.35533,-24.5522 L -2.29712,-24.373
 L -2.26183,-24.188 L -2.25,-24 L -2.26183,-23.812 L -2.29712,-23.627 L -2.35533,-23.4478 L -2.43553,-23.2774
 L -2.53647,-23.1183 L -2.65654,-22.9732 L -2.79385,-22.8442 L -2.94626,-22.7335 L -3.11133,-22.6428 L -3.28647,-22.5734
 L -3.46892,-22.5266 L -3.65581,-22.503 z
M -26.3442,-22.503 L -26.5311,-22.5266 L -26.7135,-22.5734 L -26.8887,-22.6428 L -27.0537,-22.7335 L -27.2061,-22.8442
 L -27.3434,-22.9732 L -27.4635,-23.1183 L -27.5645,-23.2774 L -27.6447,-23.4478 L -27.7029,-23.627 L -27.7382,-23.812
 L -27.75,-24 L -27.7382,-24.188 L -27.7029,-24.373 L -27.6447,-24.5522 L -27.5645,-24.7226 L -27.4635,-24.8817
 L -27.3434,-25.0268 L -27.2061,-25.1558 L -27.0537,-25.2665 L -26.8887,-25.3572 L -26.7135,-25.4266 L -26.5311,-25.4734
 L -26.3442,-25.497 L -26.1558,-25.497 L -25.9689,-25.4734 L -25.7865,-25.4266 L -25.6113,-25.3572 L -25.4463,-25.2665
 L -25.2939,-25.1558 L -25.1565,-25.0268 L -25.0365,-24.8817 L -24.9355,-24.7226 L -24.8553,-24.5522 L -24.7971,-24.373
 L -24.7618,-24.188 L -24.75,-24 L -24.7618,-23.812 L -24.7971,-23.627 L -24.8553,-23.4478 L -24.9355,-23.2774
 L -25.0365,-23.1183 L -25.1565,-22.9732 L -25.2939,-22.8442 L -25.4463,-22.7335 L -25.6113,-22.6428 L -25.7865,-22.5734
 L -25.9689,-22.5266 L -26.1558,-22.503 z
M -18.8442,-22.503 L -19.0311,-22.5266 L -19.2135,-22.5734 L -19.3887,-22.6428 L -19.5537,-22.7335 L -19.7061,-22.8442
 L -19.8434,-22.9732 L -19.9635,-23.1183 L -20.0645,-23.2774 L -20.1447,-23.4478 L -20.2029,-23.627 L -20.2382,-23.812
 L -20.25,-24 L -20.2382,-24.188 L -20.2029,-24.373 L -20.1447,-24.5522 L -20.0645,-24.7226 L -19.9635,-24.8817
 L -19.8434,-25.0268 L -19.7061,-25.1558 L -19.5537,-25.2665 L -19.3887,-25.3572 L -19.2135,-25.4266 L -19.0311,-25.4734
 L -18.8442,-25.497 L -18.6558,-25.497 L -18.4689,-25.4734 L -18.2865,-25.4266 L -18.1113,-25.3572 L -17.9463,-25.2665
 L -17.7939,-25.1558 L -17.6565,-25.0268 L -17.5365,-24.8817 L -17.4355,-24.7226 L -17.3553,-24.5522 L -17.2971,-24.373
 L -17.2618,-24.188 L -17.25,-24 L -17.2618,-23.812 L -17.2971,-23.627 L -17.3553,-23.4478 L -17.4355,-23.2774
 L -17.5365,-23.1183 L -17.6565,-22.9732 L -17.7939,-22.8442 L -17.9463,-22.7335 L -18.1113,-22.6428 L -18.2865,-22.5734
 L -18.4689,-22.5266 L -18.6558,-22.503 z
M 3.65581,-22.503 L 3.46892,-22.5266 L 3.28647,-22.5734 L 3.11133,-22.6428 L 2.94626,-22.7335 L 2.79385,-22.8442
 L 2.65654,-22.9732 L 2.53647,-23.1183 L 2.43553,-23.2774 L 2.35533,-23.4478 L 2.29712,-23.627 L 2.26183,-23.812
 L 2.25,-24 L 2.26183,-24.188 L 2.29712,-24.373 L 2.35533,-24.5522 L 2.43553,-24.7226 L 2.53647,-24.8817
 L 2.65654,-25.0268 L 2.79385,-25.1558 L 2.94626,-25.2665 L 3.11133,-25.3572 L 3.28647,-25.4266 L 3.46892,-25.4734
 L 3.65581,-25.497 L 3.84418,-25.497 L 4.03107,-25.4734 L 4.21352,-25.4266 L 4.38866,-25.3572 L 4.55373,-25.2665
 L 4.70613,-25.1558 L 4.84344,-25.0268 L 4.96352,-24.8817 L 5.06445,-24.7226 L 5.14465,-24.5522 L 5.20287,-24.373
 L 5.23816,-24.188 L 5.25,-24 L 5.23816,-23.812 L 5.20287,-23.627 L 5.14465,-23.4478 L 5.06445,-23.2774
 L 4.96352,-23.1183 L 4.84344,-22.9732 L 4.70613,-22.8442 L 4.55373,-22.7335 L 4.38866,-22.6428 L 4.21352,-22.5734
 L 4.03107,-22.5266 L 3.84418,-22.503 z
" stroke="black" fill="lightgray" stroke-width="0.5"/>
</svg>
