<?xml version="1.0" standalone="no"?>
<!DOCTYPE svg PUBLIC "-//W3C//DTD SVG 1.1//EN" "http://www.w3.org/Graphics/SVG/1.1/DTD/svg11.dtd">
<svg width="30mm" height="38mm" viewBox="-15 -79 30 38" xmlns="http://www.w3.org/2000/svg" version="1.1">
<title>OpenSCAD Model</title>
<path d="
M 10.4369,-65.0886 L 11.0451,-65.2447 L 11.6289,-65.4759 L 12.1791,-65.7784 L 12.6871,-66.1474 L 13.1448,-66.5773
 L 13.5451,-67.0611 L 13.8815,-67.5912 L 14.1489,-68.1594 L 14.3429,-68.7566 L 14.4606,-69.3733 L 14.5,-70
 L 14.5,-74 L 14.4606,-74.6267 L 14.3429,-75.2434 L 14.1489,-75.8406 L 13.8815,-76.4088 L 13.5451,-76.9389
 L 13.1448,-77.4227 L 12.6871,-77.8526 L 12.1791,-78.2216 L 11.6289,-78.5241 L 11.0451,-78.7553 L 10.4369,-78.9114
 L 9.81395,-78.9901 L -9.81395,-78.9901 L -10.4369,-78.9114 L -11.0451,-78.7553 L -11.6289,-78.5241 L -12.1791,-78.2216
 L -12.6871,-77.8526 L -13.1448,-77.4227 L -13.5451,-76.9389 L -13.8815,-76.4088 L -14.1489,-75.8406 L -14.3429,-75.2434
 L -14.4606,-74.6267 L -14.5,-74 L -14.5,-70 L -14.4606,-69.3733 L -14.3429,-68.7566 L -14.1489,-68.1594
 L -13.8815,-67.5912 L -13.5451,-67.0611 L -13.1448,-66.5773 L -12.6871,-66.1474 L -12.1791,-65.7784 L -11.6289,-65.4759
 L -11.0451,-65.2447 L -10.4369,-65.0886 L -9.81395,-65.0099 L 9.81395,-65.0099 z
M -7.74837,-68.0522 L -8.2412,-68.1145 L -8.72234,-68.238 L -9.1842,-68.4209 L -9.61952,-68.6602 L -10.0214,-68.9522
 L -10.3835,-69.2922 L -10.7001,-69.675 L -10.9663,-70.0944 L -11.1778,-70.5439 L -11.3313,-71.0163 L -11.4244,-71.5042
 L -11.4556,-72 L -11.4244,-72.4958 L -11.3313,-72.9837 L -11.1778,-73.4561 L -10.9663,-73.9056 L -10.7001,-74.325
 L -10.3835,-74.7078 L -10.0214,-75.0478 L -9.61952,-75.3398 L -9.1842,-75.5791 L -8.72234,-75.762 L -8.2412,-75.8855
 L -7.74837,-75.9478 L 7.74837,-75.9478 L 8.2412,-75.8855 L 8.72234,-75.762 L 9.1842,-75.5791 L 9.61952,-75.3398
 L 10.0214,-75.0478 L 10.3835,-74.7078 L 10.7001,-74.325 L 10.9663,-73.9056 L 11.1778,-73.4561 L 11.3313,-72.9837
 L 11.4244,-72.4958 L 11.4556,-72 L 11.4244,-71.5042 L 11.3313,-71.0163 L 11.1778,-70.5439 L 10.9663,-70.0944
 L 10.7001,-69.675 L 10.3835,-69.2922 L 10.0214,-68.9522 L 9.61952,-68.6602 L 9.1842,-68.4209 L 8.72234,-68.238
 L 8.2412,-68.1145 L 7.74837,-68.0522 z
M 10.4369,-41.0886 L 11.0451,-41.2447 L 11.6289,-41.4759 L 12.1791,-41.7784 L 12.6871,-42.1474 L 13.1448,-42.5773
 L 13.5451,-43.0611 L 13.8815,-43.5912 L 14.1489,-44.1594 L 14.3429,-44.7566 L 14.4606,-45.3733 L 14.5,-46
 L 14.5,-50 L 14.4606,-50.6267 L 14.3429,-51.2434 L 14.1489,-51.8406 L 13.8815,-52.4088 L 13.5451,-52.9389
 L 13.1448,-53.4227 L 12.6871,-53.8526 L 12.1791,-54.2216 L 11.6289,-54.5241 L 11.0451,-54.7553 L 10.4369,-54.9114
 L 9.81395,-54.9901 L -9.81395,-54.9901 L -10.4369,-54.9114 L -11.0451,-54.7553 L -11.6289,-54.5241 L -12.1791,-54.2216
 L -12.6871,-53.8526 L -13.1448,-53.4227 L -13.5451,-52.9389 L -13.8815,-52.4088 L -14.1489,-51.8406 L -14.3429,-51.2434
 L -14.4606,-50.6267 L -14.5,-50 L -14.5,-46 L -14.4606,-45.3733 L -14.3429,-44.7566 L -14.1489,-44.1594
 L -13.8815,-43.5912 L -13.5451,-43.0611 L -13.1448,-42.5773 L -12.6871,-42.1474 L -12.1791,-41.7784 L -11.6289,-41.4759
 L -11.0451,-41.2447 L -10.4369,-41.0886 L -9.81395,-41.0099 L 9.81395,-41.0099 z
M -7.6507,-45.6047 L -7.94971,-45.6425 L -8.24164,-45.7175 L -8.52187,-45.8284 L -8.78598,-45.9736 L -9.02982,-46.1508
 L -9.24951,-46.3571 L -9.44164,-46.5893 L -9.60313,-46.8438 L -9.73146,-47.1165 L -9.82458,-47.4032 L -9.88107,-47.6992
 L -9.89999,-48 L -9.88107,-48.3008 L -9.82458,-48.5968 L -9.73146,-48.8835 L -9.60313,-49.1562 L -9.44164,-49.4107
 L -9.24951,-49.6429 L -9.02982,-49.8492 L -8.78598,-50.0264 L -8.52187,-50.1716 L -8.24164,-50.2825 L -7.94971,-50.3575
 L -7.6507,-50.3953 L -7.34929,-50.3953 L -7.05028,-50.3575 L -6.75835,-50.2825 L -6.47812,-50.1716 L -6.214,-50.0264
 L -5.97017,-49.8492 L -5.75047,-49.6429 L -5.55835,-49.4107 L -5.39685,-49.1562 L -5.26852,-48.8835 L -5.1754,-48.5968
 L -5.11891,-48.3008 L -5.09999,-48 L -5.11891,-47.6992 L -5.1754,-47.4032 L -5.26852,-47.1165 L -5.39685,-46.8438
 L -5.55835,-46.5893 L -5.75047,-46.3571 L -5.97017,-46.1508 L -6.214,-45.9736 L -6.47812,-45.8284 L -6.75835,-45.7175
 L -7.05028,-45.6425 L -7.34929,-45.6047 z
M 7.34929,-45.6047 L 7.05028,-45.6425 L 6.75835,-45.7175 L 6.47812,-45.8284 L 6.214,-45.9736 L 5.97017,-46.1508
 L 5.75047,-46.3571 L 5.55835,-46.5893 L 5.39685,-46.8438 L 5.26852,-47.1165 L 5.1754,-47.4032 L 5.11891,-47.6992
 L 5.09999,-48 L 5.11891,-48.3008 L 5.1754,-48.5968 L 5.26852,-48.8835 L 5.39685,-49.1562 L 5.55835,-49.4107
 L 5.75047,-49.6429 L 5.97017,-49.8492 L 6.214,-50.0264 L 6.47812,-50.1716 L 6.75835,-50.2825 L 7.05028,-50.3575
 L 7.34929,-50.3953 L 7.6507,-50.3953 L 7.94971,-50.3575 L 8.24164,-50.2825 L 8.52187,-50.1716 L 8.78598,-50.0264
 L 9.02982,-49.8492 L 9.24951,-49.6429 L 9.44164,-49.4107 L 9.60313,-49.1562 L 9.73146,-48.8835 L 9.82458,-48.5968
 L 9.88107,-48.3008 L 9.89999,-48 L 9.88107,-47.6992 L 9.82458,-47.4032 L 9.73146,-47.1165 L 9.60313,-46.8438
 L 9.44164,-46.5893 L 9.24951,-46.3571 L 9.02982,-46.1508 L 8.78598,-45.9736 L 8.52187,-45.8284 L 8.24164,-45.7175
 L 7.94971,-45.6425 L 7.6507,-45.6047 z
" stroke="black" fill="lightgray" stroke-width="0.5"/>
</svg>
