<?xml version="1.0" standalone="no"?>
<!DOCTYPE svg PUBLIC "-//W3C//DTD SVG 1.1//EN" "http://www.w3.org/Graphics/SVG/1.1/DTD/svg11.dtd">
<svg width="60mm" height="93mm" viewBox="-30 -93 60 93" xmlns="http://www.w3.org/2000/svg" version="1.1">
<title>OpenSCAD Model</title>
<path d="
M 29.5,-87.5 L 29.4606,-88.1267 L 29.3429,-88.7434 L 29.1489,-89.3406 L 28.8815,-89.9088 L 28.5451,-90.4389
 L 28.1448,-90.9227 L 27.6871,-91.3526 L 27.1791,-91.7216 L 26.6289,-92.0241 L 26.0451,-92.2553 L 25.4369,-92.4114
 L 24.8139,-92.4901 L -24.8139,-92.4901 L -25.4369,-92.4114 L -26.0451,-92.2553 L -26.6289,-92.0241 L -27.1791,-91.7216
 L -27.6871,-91.3526 L -28.1448,-90.9227 L -28.5451,-90.4389 L -28.8815,-89.9088 L -29.1489,-89.3406 L -29.3429,-88.7434
 L -29.4606,-88.1267 L -29.5,-87.5 L -29.5,-72 L 29.5,-72 z
M 22.3116,-82.5059 L 21.9379,-82.5531 L 21.5729,-82.6468 L 21.2227,-82.7855 L 20.8925,-82.967 L 20.5877,-83.1884
 L 20.3131,-83.4464 L 20.0729,-83.7366 L 19.8711,-84.0547 L 19.7107,-84.3956 L 19.5942,-84.7539 L 19.5237,-85.124
 L 19.5,-85.5 L 19.5237,-85.876 L 19.5942,-86.2461 L 19.7107,-86.6044 L 19.8711,-86.9453 L 20.0729,-87.2634
 L 20.3131,-87.5536 L 20.5877,-87.8115 L 20.8925,-88.033 L 21.2227,-88.2145 L 21.5729,-88.3532 L 21.9379,-88.4469
 L 22.3116,-88.4941 L 22.6884,-88.4941 L 23.0621,-88.4469 L 23.427,-88.3532 L 23.7773,-88.2145 L 24.1075,-88.033
 L 24.4123,-87.8115 L 24.6869,-87.5536 L 24.927,-87.2634 L 25.1289,-86.9453 L 25.2893,-86.6044 L 25.4057,-86.2461
 L 25.4763,-85.876 L 25.5,-85.5 L 25.4763,-85.124 L 25.4057,-84.7539 L 25.2893,-84.3956 L 25.1289,-84.0547
 L 24.927,-83.7366 L 24.6869,-83.4464 L 24.4123,-83.1884 L 24.1075,-82.967 L 23.7773,-82.7855 L 23.427,-82.6468
 L 23.0621,-82.5531 L 22.6884,-82.5059 z
M 7.31161,-82.5059 L 6.93785,-82.5531 L 6.57294,-82.6468 L 6.22266,-82.7855 L 5.89252,-82.967 L 5.58772,-83.1884
 L 5.31308,-83.4464 L 5.07294,-83.7366 L 4.87108,-84.0547 L 4.71066,-84.3956 L 4.59424,-84.7539 L 4.52365,-85.124
 L 4.5,-85.5 L 4.52365,-85.876 L 4.59424,-86.2461 L 4.71066,-86.6044 L 4.87108,-86.9453 L 5.07294,-87.2634
 L 5.31308,-87.5536 L 5.58772,-87.8115 L 5.89252,-88.033 L 6.22266,-88.2145 L 6.57294,-88.3532 L 6.93785,-88.4469
 L 7.31161,-88.4941 L 7.68837,-88.4941 L 8.06213,-88.4469 L 8.42705,-88.3532 L 8.77733,-88.2145 L 9.10747,-88.033
 L 9.41226,-87.8115 L 9.6869,-87.5536 L 9.92705,-87.2634 L 10.1289,-86.9453 L 10.2893,-86.6044 L 10.4057,-86.2461
 L 10.4763,-85.876 L 10.5,-85.5 L 10.4763,-85.124 L 10.4057,-84.7539 L 10.2893,-84.3956 L 10.1289,-84.0547
 L 9.92705,-83.7366 L 9.6869,-83.4464 L 9.41226,-83.1884 L 9.10747,-82.967 L 8.77733,-82.7855 L 8.42705,-82.6468
 L 8.06213,-82.5531 L 7.68837,-82.5059 z
M -7.68837,-82.5059 L -8.06213,-82.5531 L -8.42705,-82.6468 L -8.77733,-82.7855 L -9.10747,-82.967 L -9.41226,-83.1884
 L -9.6869,-83.4464 L -9.92705,-83.7366 L -10.1289,-84.0547 L -10.2893,-84.3956 L -10.4057,-84.7539 L -10.4763,-85.124
 L -10.5,-85.5 L -10.4763,-85.876 L -10.4057,-86.2461 L -10.2893,-86.6044 L -10.1289,-86.9453 L -9.92705,-87.2634
 L -9.6869,-87.5536 L -9.41226,-87.8115 L -9.10747,-88.033 L -8.77733,-88.2145 L -8.42705,-88.3532 L -8.06213,-88.4469
 L -7.68837,-88.4941 L -7.31161,-88.4941 L -6.93785,-88.4469 L -6.57294,-88.3532 L -6.22266,-88.2145 L -5.89252,-88.033
 L -5.58772,-87.8115 L -5.31308,-87.5536 L -5.07294,-87.2634 L -4.87108,-86.9453 L -4.71066,-86.6044 L -4.59424,-86.2461
 L -4.52365,-85.876 L -4.5,-85.5 L -4.52365,-85.124 L -4.59424,-84.7539 L -4.71066,-84.3956 L -4.87108,-84.0547
 L -5.07294,-83.7366 L -5.31308,-83.4464 L -5.58772,-83.1884 L -5.89252,-82.967 L -6.22266,-82.7855 L -6.57294,-82.6468
 L -6.93785,-82.5531 L -7.31161,-82.5059 z
M -22.6884,-82.5059 L -23.0621,-82.5531 L -23.427,-82.6468 L -23.7773,-82.7855 L -24.1075,-82.967 L -24.4123,-83.1884
 L -24.6869,-83.4464 L -24.927,-83.7366 L -25.1289,-84.0547 L -25.2893,-84.3956 L -25.4057,-84.7539 L -25.4763,-85.124
 L -25.5,-85.5 L -25.4763,-85.876 L -25.4057,-86.2461 L -25.2893,-86.6044 L -25.1289,-86.9453 L -24.927,-87.2634
 L -24.6869,-87.5536 L -24.4123,-87.8115 L -24.1075,-88.033 L -23.7773,-88.2145 L -23.427,-88.3532 L -23.0621,-88.4469
 L -22.6884,-88.4941 L -22.3116,-88.4941 L -21.9379,-88.4469 L -21.5729,-88.3532 L -21.2227,-88.2145 L -20.8925,-88.033
 L -20.5877,-87.8115 L -20.3131,-87.5536 L -20.0729,-87.2634 L -19.8711,-86.9453 L -19.7107,-86.6044 L -19.5942,-86.2461
 L -19.5237,-85.876 L -19.5,-85.5 L -19.5237,-85.124 L -19.5942,-84.7539 L -19.7107,-84.3956 L -19.8711,-84.0547
 L -20.0729,-83.7366 L -20.3131,-83.4464 L -20.5877,-83.1884 L -20.8925,-82.967 L -21.2227,-82.7855 L -21.5729,-82.6468
 L -21.9379,-82.5531 L -22.3116,-82.5059 z
M 14.8556,-83.2045 L 14.569,-83.2407 L 14.2893,-83.3126 L 14.0207,-83.4189 L 13.7676,-83.558 L 13.5339,-83.7278
 L 13.3234,-83.9255 L 13.1393,-84.1481 L 12.9845,-84.392 L 12.8615,-84.6533 L 12.7722,-84.928 L 12.7181,-85.2117
 L 12.7,-85.5 L 12.7181,-85.7883 L 12.7722,-86.072 L 12.8615,-86.3467 L 12.9845,-86.608 L 13.1393,-86.8519
 L 13.3234,-87.0744 L 13.5339,-87.2722 L 13.7676,-87.4419 L 14.0207,-87.5811 L 14.2893,-87.6874 L 14.569,-87.7592
 L 14.8556,-87.7955 L 15.1444,-87.7955 L 15.431,-87.7592 L 15.7107,-87.6874 L 15.9793,-87.5811 L 16.2324,-87.4419
 L 16.4661,-87.2722 L 16.6766,-87.0744 L 16.8607,-86.8519 L 17.0155,-86.608 L 17.1385,-86.3467 L 17.2277,-86.072
 L 17.2819,-85.7883 L 17.3,-85.5 L 17.2819,-85.2117 L 17.2277,-84.928 L 17.1385,-84.6533 L 17.0155,-84.392
 L 16.8607,-84.1481 L 16.6766,-83.9255 L 16.4661,-83.7278 L 16.2324,-83.558 L 15.9793,-83.4189 L 15.7107,-83.3126
 L 15.431,-83.2407 L 15.1444,-83.2045 z
M -0.144409,-83.2045 L -0.430969,-83.2407 L -0.710724,-83.3126 L -0.979279,-83.4189 L -1.23239,-83.558 L -1.46606,-83.7278
 L -1.67662,-83.9255 L -1.86073,-84.1481 L -2.0155,-84.392 L -2.13847,-84.6533 L -2.22774,-84.928 L -2.28186,-85.2117
 L -2.29999,-85.5 L -2.28186,-85.7883 L -2.22774,-86.072 L -2.13847,-86.3467 L -2.0155,-86.608 L -1.86073,-86.8519
 L -1.67662,-87.0744 L -1.46606,-87.2722 L -1.23239,-87.4419 L -0.979279,-87.5811 L -0.710724,-87.6874 L -0.430969,-87.7592
 L -0.144409,-87.7955 L 0.144409,-87.7955 L 0.430969,-87.7592 L 0.710724,-87.6874 L 0.979279,-87.5811 L 1.23239,-87.4419
 L 1.46606,-87.2722 L 1.67662,-87.0744 L 1.86073,-86.8519 L 2.0155,-86.608 L 2.13847,-86.3467 L 2.22774,-86.072
 L 2.28186,-85.7883 L 2.29999,-85.5 L 2.28186,-85.2117 L 2.22774,-84.928 L 2.13847,-84.6533 L 2.0155,-84.392
 L 1.86073,-84.1481 L 1.67662,-83.9255 L 1.46606,-83.7278 L 1.23239,-83.558 L 0.979279,-83.4189 L 0.710724,-83.3126
 L 0.430969,-83.2407 L 0.144409,-83.2045 z
M -15.1444,-83.2045 L -15.431,-83.2407 L -15.7107,-83.3126 L -15.9793,-83.4189 L -16.2324,-83.558 L -16.4661,-83.7278
 L -16.6766,-83.9255 L -16.8607,-84.1481 L -17.0155,-84.392 L -17.1385,-84.6533 L -17.2277,-84.928 L -17.2819,-85.2117
 L -17.3,-85.5 L -17.2819,-85.7883 L -17.2277,-86.072 L -17.1385,-86.3467 L -17.0155,-86.608 L -16.8607,-86.8519
 L -16.6766,-87.0744 L -16.4661,-87.2722 L -16.2324,-87.4419 L -15.9793,-87.5811 L -15.7107,-87.6874 L -15.431,-87.7592
 L -15.1444,-87.7955 L -14.8556,-87.7955 L -14.569,-87.7592 L -14.2893,-87.6874 L -14.0207,-87.5811 L -13.7676,-87.4419
 L -13.5339,-87.2722 L -13.3234,-87.0744 L -13.1393,-86.8519 L -12.9845,-86.608 L -12.8615,-86.3467 L -12.7722,-86.072
 L -12.7181,-85.7883 L -12.7,-85.5 L -12.7181,-85.2117 L -12.7722,-84.928 L -12.8615,-84.6533 L -12.9845,-84.392
 L -13.1393,-84.1481 L -13.3234,-83.9255 L -13.5339,-83.7278 L -13.7676,-83.558 L -14.0207,-83.4189 L -14.2893,-83.3126
 L -14.569,-83.2407 L -14.8556,-83.2045 z
M 18.9858,-75.6 L 18.9858,-81 L 26.0142,-81 L 26.0142,-75.6 z
M -26.0142,-75.6 L -26.0142,-81 L -18.9858,-81 L -18.9858,-75.6 z
M 3.98581,-75.6 L 3.98581,-81 L 11.0142,-81 L 11.0142,-75.6 z
M -11.0142,-75.6 L -11.0142,-81 L -3.98581,-81 L -3.98581,-75.6 z
M -25.0307,-51.6 L -27.7462,-51.6 L -27.7462,-57 L -25.0307,-57 L -25.0307,-59.9 L -25.1289,-60.0547
 L -25.2893,-60.3956 L -25.4057,-60.7539 L -25.4763,-61.124 L -25.5,-61.5 L -25.4763,-61.876 L -25.4057,-62.2461
 L -25.2893,-62.6044 L -25.1289,-62.9453 L -24.927,-63.2634 L -24.6869,-63.5536 L -24.4123,-63.8115 L -24.1075,-64.033
 L -23.7773,-64.2145 L -23.427,-64.3532 L -23.0621,-64.4469 L -22.6884,-64.4941 L -22.3116,-64.4941 L -21.9379,-64.4469
 L -21.5729,-64.3532 L -21.2227,-64.2145 L -20.8925,-64.033 L -20.5877,-63.8115 L -20.3131,-63.5536 L -20.0729,-63.2634
 L -19.8711,-62.9453 L -19.7107,-62.6044 L -19.5942,-62.2461 L -19.5237,-61.876 L -19.5,-61.5 L -19.5237,-61.124
 L -19.5942,-60.7539 L -19.7107,-60.3956 L -19.8711,-60.0547 L -19.9693,-59.9 L -19.9693,-57 L -17.2538,-57
 L -17.2538,-51.6 L -19.9693,-51.6 L -19.9693,-48 L -10.0307,-48 L -10.0307,-51.6 L -12.7462,-51.6
 L -12.7462,-57 L -10.0307,-57 L -10.0307,-59.9 L -10.1289,-60.0547 L -10.2893,-60.3956 L -10.4057,-60.7539
 L -10.4763,-61.124 L -10.5,-61.5 L -10.4763,-61.876 L -10.4057,-62.2461 L -10.2893,-62.6044 L -10.1289,-62.9453
 L -9.92705,-63.2634 L -9.6869,-63.5536 L -9.41226,-63.8115 L -9.10747,-64.033 L -8.77733,-64.2145 L -8.42705,-64.3532
 L -8.06213,-64.4469 L -7.68837,-64.4941 L -7.31161,-64.4941 L -6.93785,-64.4469 L -6.57294,-64.3532 L -6.22266,-64.2145
 L -5.89252,-64.033 L -5.58772,-63.8115 L -5.31308,-63.5536 L -5.07294,-63.2634 L -4.87108,-62.9453 L -4.71066,-62.6044
 L -4.59424,-62.2461 L -4.52365,-61.876 L -4.5,-61.5 L -4.52365,-61.124 L -4.59424,-60.7539 L -4.71066,-60.3956
 L -4.87108,-60.0547 L -4.96927,-59.9 L -4.96927,-57 L -2.25375,-57 L -2.25375,-51.6 L -4.96927,-51.6
 L -4.96927,-48 L 4.96927,-48 L 4.96927,-51.6 L 2.25375,-51.6 L 2.25375,-57 L 4.96927,-57
 L 4.96927,-59.9 L 4.87108,-60.0547 L 4.71066,-60.3956 L 4.59424,-60.7539 L 4.52365,-61.124 L 4.5,-61.5
 L 4.52365,-61.876 L 4.59424,-62.2461 L 4.71066,-62.6044 L 4.87108,-62.9453 L 5.07294,-63.2634 L 5.31308,-63.5536
 L 5.58772,-63.8115 L 5.89252,-64.033 L 6.22266,-64.2145 L 6.57294,-64.3532 L 6.93785,-64.4469 L 7.31161,-64.4941
 L 7.68837,-64.4941 L 8.06213,-64.4469 L 8.42705,-64.3532 L 8.77733,-64.2145 L 9.10747,-64.033 L 9.41226,-63.8115
 L 9.6869,-63.5536 L 9.92705,-63.2634 L 10.1289,-62.9453 L 10.2893,-62.6044 L 10.4057,-62.2461 L 10.4763,-61.876
 L 10.5,-61.5 L 10.4763,-61.124 L 10.4057,-60.7539 L 10.2893,-60.3956 L 10.1289,-60.0547 L 10.0307,-59.9
 L 10.0307,-57 L 12.7462,-57 L 12.7462,-51.6 L 10.0307,-51.6 L 10.0307,-48 L 19.9693,-48
 L 19.9693,-51.6 L 17.2538,-51.6 L 17.2538,-57 L 19.9693,-57 L 19.9693,-59.9 L 19.8711,-60.0547
 L 19.7107,-60.3956 L 19.5942,-60.7539 L 19.5237,-61.124 L 19.5,-61.5 L 19.5237,-61.876 L 19.5942,-62.2461
 L 19.7107,-62.6044 L 19.8711,-62.9453 L 20.0729,-63.2634 L 20.3131,-63.5536 L 20.5877,-63.8115 L 20.8925,-64.033
 L 21.2227,-64.2145 L 21.5729,-64.3532 L 21.9379,-64.4469 L 22.3116,-64.4941 L 22.6884,-64.4941 L 23.0621,-64.4469
 L 23.427,-64.3532 L 23.7773,-64.2145 L 24.1075,-64.033 L 24.4123,-63.8115 L 24.6869,-63.5536 L 24.927,-63.2634
 L 25.1289,-62.9453 L 25.2893,-62.6044 L 25.4057,-62.2461 L 25.4763,-61.876 L 25.5,-61.5 L 25.4763,-61.124
 L 25.4057,-60.7539 L 25.2893,-60.3956 L 25.1289,-60.0547 L 25.0307,-59.9 L 25.0307,-57 L 27.7462,-57
 L 27.7462,-51.6 L 25.0307,-51.6 L 25.0307,-48 L 29.5,-48 L 29.5,-63.5 L 29.4606,-64.1267
 L 29.3429,-64.7434 L 29.1489,-65.3406 L 28.8815,-65.9088 L 28.5451,-66.4389 L 28.1448,-66.9227 L 27.6871,-67.3526
 L 27.1791,-67.7216 L 26.6289,-68.0241 L 26.0451,-68.2553 L 25.4369,-68.4114 L 24.8139,-68.4901 L -24.8139,-68.4901
 L -25.4369,-68.4114 L -26.0451,-68.2553 L -26.6289,-68.0241 L -27.1791,-67.7216 L -27.6871,-67.3526 L -28.1448,-66.9227
 L -28.5451,-66.4389 L -28.8815,-65.9088 L -29.1489,-65.3406 L -29.3429,-64.7434 L -29.4606,-64.1267 L -29.5,-63.5
 L -29.5,-48 L -25.0307,-48 z
M -1.58675,-58.7517 L -3.17349,-61.5 L -1.58675,-64.2483 L 1.58675,-64.2483 L 3.17349,-61.5 L 1.58675,-58.7517
 z
M 13.4133,-58.7517 L 11.8265,-61.5 L 13.4133,-64.2483 L 16.5867,-64.2483 L 18.1735,-61.5 L 16.5867,-58.7517
 z
M -16.5867,-58.7517 L -18.1735,-61.5 L -16.5867,-64.2483 L -13.4133,-64.2483 L -11.8265,-61.5 L -13.4133,-58.7517
 z
M -25.0942,-27.6 L -27.804,-27.6 L -27.804,-33 L -25.0942,-33 L -25.0942,-36 L -25.1289,-36.0547
 L -25.2893,-36.3956 L -25.4057,-36.7539 L -25.4763,-37.124 L -25.5,-37.5 L -25.4763,-37.876 L -25.4057,-38.2461
 L -25.2893,-38.6044 L -25.1289,-38.9453 L -24.927,-39.2634 L -24.6869,-39.5536 L -24.4123,-39.8115 L -24.1075,-40.033
 L -23.7773,-40.2145 L -23.427,-40.3532 L -23.0621,-40.4469 L -22.6884,-40.4941 L -22.3116,-40.4941 L -21.9379,-40.4469
 L -21.5729,-40.3532 L -21.2227,-40.2145 L -20.8925,-40.033 L -20.5877,-39.8115 L -20.3131,-39.5536 L -20.0729,-39.2634
 L -19.8711,-38.9453 L -19.7107,-38.6044 L -19.5942,-38.2461 L -19.5237,-37.876 L -19.5,-37.5 L -19.5237,-37.124
 L -19.5942,-36.7539 L -19.7107,-36.3956 L -19.8711,-36.0547 L -19.9058,-36 L -19.9058,-33 L -17.196,-33
 L -17.196,-27.6 L -19.9058,-27.6 L -19.9058,-24 L -10.0942,-24 L -10.0942,-27.6 L -12.804,-27.6
 L -12.804,-33 L -10.0942,-33 L -10.0942,-36 L -10.1289,-36.0547 L -10.2893,-36.3956 L -10.4057,-36.7539
 L -10.4763,-37.124 L -10.5,-37.5 L -10.4763,-37.876 L -10.4057,-38.2461 L -10.2893,-38.6044 L -10.1289,-38.9453
 L -9.92705,-39.2634 L -9.6869,-39.5536 L -9.41226,-39.8115 L -9.10747,-40.033 L -8.77733,-40.2145 L -8.42705,-40.3532
 L -8.06213,-40.4469 L -7.68837,-40.4941 L -7.31161,-40.4941 L -6.93785,-40.4469 L -6.57294,-40.3532 L -6.22266,-40.2145
 L -5.89252,-40.033 L -5.58772,-39.8115 L -5.31308,-39.5536 L -5.07294,-39.2634 L -4.87108,-38.9453 L -4.71066,-38.6044
 L -4.59424,-38.2461 L -4.52365,-37.876 L -4.5,-37.5 L -4.52365,-37.124 L -4.59424,-36.7539 L -4.71066,-36.3956
 L -4.87108,-36.0547 L -4.90581,-36 L -4.90581,-33 L -2.19603,-33 L -2.19603,-27.6 L -4.90581,-27.6
 L -4.90581,-24 L 4.90581,-24 L 4.90581,-27.6 L 2.19603,-27.6 L 2.19603,-33 L 4.90581,-33
 L 4.90581,-36 L 4.87108,-36.0547 L 4.71066,-36.3956 L 4.59424,-36.7539 L 4.52365,-37.124 L 4.5,-37.5
 L 4.52365,-37.876 L 4.59424,-38.2461 L 4.71066,-38.6044 L 4.87108,-38.9453 L 5.07294,-39.2634 L 5.31308,-39.5536
 L 5.58772,-39.8115 L 5.89252,-40.033 L 6.22266,-40.2145 L 6.57294,-40.3532 L 6.93785,-40.4469 L 7.31161,-40.4941
 L 7.68837,-40.4941 L 8.06213,-40.4469 L 8.42705,-40.3532 L 8.77733,-40.2145 L 9.10747,-40.033 L 9.41226,-39.8115
 L 9.6869,-39.5536 L 9.92705,-39.2634 L 10.1289,-38.9453 L 10.2893,-38.6044 L 10.4057,-38.2461 L 10.4763,-37.876
 L 10.5,-37.5 L 10.4763,-37.124 L 10.4057,-36.7539 L 10.2893,-36.3956 L 10.1289,-36.0547 L 10.0942,-36
 L 10.0942,-33 L 12.804,-33 L 12.804,-27.6 L 10.0942,-27.6 L 10.0942,-24 L 19.9058,-24
 L 19.9058,-27.6 L 17.196,-27.6 L 17.196,-33 L 19.9058,-33 L 19.9058,-36 L 19.8711,-36.0547
 L 19.7107,-36.3956 L 19.5942,-36.7539 L 19.5237,-37.124 L 19.5,-37.5 L 19.5237,-37.876 L 19.5942,-38.2461
 L 19.7107,-38.6044 L 19.8711,-38.9453 L 20.0729,-39.2634 L 20.3131,-39.5536 L 20.5877,-39.8115 L 20.8925,-40.033
 L 21.2227,-40.2145 L 21.5729,-40.3532 L 21.9379,-40.4469 L 22.3116,-40.4941 L 22.6884,-40.4941 L 23.0621,-40.4469
 L 23.427,-40.3532 L 23.7773,-40.2145 L 24.1075,-40.033 L 24.4123,-39.8115 L 24.6869,-39.5536 L 24.927,-39.2634
 L 25.1289,-38.9453 L 25.2893,-38.6044 L 25.4057,-38.2461 L 25.4763,-37.876 L 25.5,-37.5 L 25.4763,-37.124
 L 25.4057,-36.7539 L 25.2893,-36.3956 L 25.1289,-36.0547 L 25.0942,-36 L 25.0942,-33 L 27.804,-33
 L 27.804,-27.6 L 25.0942,-27.6 L 25.0942,-24 L 29.5,-24 L 29.5,-39.5 L 29.4606,-40.1267
 L 29.3429,-40.7434 L 29.1489,-41.3406 L 28.8815,-41.9088 L 28.5451,-42.4389 L 28.1448,-42.9227 L 27.6871,-43.3526
 L 27.1791,-43.7216 L 26.6289,-44.0241 L 26.0451,-44.2553 L 25.4369,-44.4114 L 24.8139,-44.4901 L -24.8139,-44.4901
 L -25.4369,-44.4114 L -26.0451,-44.2553 L -26.6289,-44.0241 L -27.1791,-43.7216 L -27.6871,-43.3526 L -28.1448,-42.9227
 L -28.5451,-42.4389 L -28.8815,-41.9088 L -29.1489,-41.3406 L -29.3429,-40.7434 L -29.4606,-40.1267 L -29.5,-39.5
 L -29.5,-24 L -25.0942,-24 z
M 13.4133,-34.7517 L 11.8265,-37.5 L 13.4133,-40.2483 L 16.5867,-40.2483 L 18.1735,-37.5 L 16.5867,-34.7517
 z
M -16.5867,-34.7517 L -18.1735,-37.5 L -16.5867,-40.2483 L -13.4133,-40.2483 L -11.8265,-37.5 L -13.4133,-34.7517
 z
M -1.58675,-34.7517 L -3.17349,-37.5 L -1.58675,-40.2483 L 1.58675,-40.2483 L 3.17349,-37.5 L 1.58675,-34.7517
 z
M 29.5,-15.5 L 29.4606,-16.1267 L 29.3429,-16.7434 L 29.1489,-17.3406 L 28.8815,-17.9088 L 28.5451,-18.4389
 L 28.1448,-18.9227 L 27.6871,-19.3526 L 27.1791,-19.7216 L 26.6289,-20.0241 L 26.0451,-20.2553 L 25.4369,-20.4114
 L 24.8139,-20.4901 L -24.8139,-20.4901 L -25.4369,-20.4114 L -26.0451,-20.2553 L -26.6289,-20.0241 L -27.1791,-19.7216
 L -27.6871,-19.3526 L -28.1448,-18.9227 L -28.5451,-18.4389 L -28.8815,-17.9088 L -29.1489,-17.3406 L -29.3429,-16.7434
 L -29.4606,-16.1267 L -29.5,-15.5 L -29.5,-0 L 29.5,-0 z
M -7.68837,-10.5059 L -8.06213,-10.5531 L -8.42705,-10.6468 L -8.77733,-10.7855 L -9.10747,-10.967 L -9.41226,-11.1884
 L -9.6869,-11.4464 L -9.92705,-11.7366 L -10.1289,-12.0547 L -10.2893,-12.3956 L -10.4057,-12.7539 L -10.4763,-13.124
 L -10.5,-13.5 L -10.4763,-13.876 L -10.4057,-14.2461 L -10.2893,-14.6044 L -10.1289,-14.9453 L -9.92705,-15.2634
 L -9.6869,-15.5536 L -9.41226,-15.8115 L -9.10747,-16.033 L -8.77733,-16.2145 L -8.42705,-16.3532 L -8.06213,-16.4469
 L -7.68837,-16.4941 L -7.31161,-16.4941 L -6.93785,-16.4469 L -6.57294,-16.3532 L -6.22266,-16.2145 L -5.89252,-16.033
 L -5.58772,-15.8115 L -5.31308,-15.5536 L -5.07294,-15.2634 L -4.87108,-14.9453 L -4.71066,-14.6044 L -4.59424,-14.2461
 L -4.52365,-13.876 L -4.5,-13.5 L -4.52365,-13.124 L -4.59424,-12.7539 L -4.71066,-12.3956 L -4.87108,-12.0547
 L -5.07294,-11.7366 L -5.31308,-11.4464 L -5.58772,-11.1884 L -5.89252,-10.967 L -6.22266,-10.7855 L -6.57294,-10.6468
 L -6.93785,-10.5531 L -7.31161,-10.5059 z
M 7.31161,-10.5059 L 6.93785,-10.5531 L 6.57294,-10.6468 L 6.22266,-10.7855 L 5.89252,-10.967 L 5.58772,-11.1884
 L 5.31308,-11.4464 L 5.07294,-11.7366 L 4.87108,-12.0547 L 4.71066,-12.3956 L 4.59424,-12.7539 L 4.52365,-13.124
 L 4.5,-13.5 L 4.52365,-13.876 L 4.59424,-14.2461 L 4.71066,-14.6044 L 4.87108,-14.9453 L 5.07294,-15.2634
 L 5.31308,-15.5536 L 5.58772,-15.8115 L 5.89252,-16.033 L 6.22266,-16.2145 L 6.57294,-16.3532 L 6.93785,-16.4469
 L 7.31161,-16.4941 L 7.68837,-16.4941 L 8.06213,-16.4469 L 8.42705,-16.3532 L 8.77733,-16.2145 L 9.10747,-16.033
 L 9.41226,-15.8115 L 9.6869,-15.5536 L 9.92705,-15.2634 L 10.1289,-14.9453 L 10.2893,-14.6044 L 10.4057,-14.2461
 L 10.4763,-13.876 L 10.5,-13.5 L 10.4763,-13.124 L 10.4057,-12.7539 L 10.2893,-12.3956 L 10.1289,-12.0547
 L 9.92705,-11.7366 L 9.6869,-11.4464 L 9.41226,-11.1884 L 9.10747,-10.967 L 8.77733,-10.7855 L 8.42705,-10.6468
 L 8.06213,-10.5531 L 7.68837,-10.5059 z
M -22.6884,-10.5059 L -23.0621,-10.5531 L -23.427,-10.6468 L -23.7773,-10.7855 L -24.1075,-10.967 L -24.4123,-11.1884
 L -24.6869,-11.4464 L -24.927,-11.7366 L -25.1289,-12.0547 L -25.2893,-12.3956 L -25.4057,-12.7539 L -25.4763,-13.124
 L -25.5,-13.5 L -25.4763,-13.876 L -25.4057,-14.2461 L -25.2893,-14.6044 L -25.1289,-14.9453 L -24.927,-15.2634
 L -24.6869,-15.5536 L -24.4123,-15.8115 L -24.1075,-16.033 L -23.7773,-16.2145 L -23.427,-16.3532 L -23.0621,-16.4469
 L -22.6884,-16.4941 L -22.3116,-16.4941 L -21.9379,-16.4469 L -21.5729,-16.3532 L -21.2227,-16.2145 L -20.8925,-16.033
 L -20.5877,-15.8115 L -20.3131,-15.5536 L -20.0729,-15.2634 L -19.8711,-14.9453 L -19.7107,-14.6044 L -19.5942,-14.2461
 L -19.5237,-13.876 L -19.5,-13.5 L -19.5237,-13.124 L -19.5942,-12.7539 L -19.7107,-12.3956 L -19.8711,-12.0547
 L -20.0729,-11.7366 L -20.3131,-11.4464 L -20.5877,-11.1884 L -20.8925,-10.967 L -21.2227,-10.7855 L -21.5729,-10.6468
 L -21.9379,-10.5531 L -22.3116,-10.5059 z
M 22.3116,-10.5059 L 21.9379,-10.5531 L 21.5729,-10.6468 L 21.2227,-10.7855 L 20.8925,-10.967 L 20.5877,-11.1884
 L 20.3131,-11.4464 L 20.0729,-11.7366 L 19.8711,-12.0547 L 19.7107,-12.3956 L 19.5942,-12.7539 L 19.5237,-13.124
 L 19.5,-13.5 L 19.5237,-13.876 L 19.5942,-14.2461 L 19.7107,-14.6044 L 19.8711,-14.9453 L 20.0729,-15.2634
 L 20.3131,-15.5536 L 20.5877,-15.8115 L 20.8925,-16.033 L 21.2227,-16.2145 L 21.5729,-16.3532 L 21.9379,-16.4469
 L 22.3116,-16.4941 L 22.6884,-16.4941 L 23.0621,-16.4469 L 23.427,-16.3532 L 23.7773,-16.2145 L 24.1075,-16.033
 L 24.4123,-15.8115 L 24.6869,-15.5536 L 24.927,-15.2634 L 25.1289,-14.9453 L 25.2893,-14.6044 L 25.4057,-14.2461
 L 25.4763,-13.876 L 25.5,-13.5 L 25.4763,-13.124 L 25.4057,-12.7539 L 25.2893,-12.3956 L 25.1289,-12.0547
 L 24.927,-11.7366 L 24.6869,-11.4464 L 24.4123,-11.1884 L 24.1075,-10.967 L 23.7773,-10.7855 L 23.427,-10.6468
 L 23.0621,-10.5531 L 22.6884,-10.5059 z
M -0.144409,-11.2045 L -0.430969,-11.2407 L -0.710724,-11.3126 L -0.979279,-11.4189 L -1.23239,-11.558 L -1.46606,-11.7278
 L -1.67662,-11.9255 L -1.86073,-12.1481 L -2.0155,-12.392 L -2.13847,-12.6533 L -2.22774,-12.928 L -2.28186,-13.2117
 L -2.29999,-13.5 L -2.28186,-13.7883 L -2.22774,-14.072 L -2.13847,-14.3467 L -2.0155,-14.608 L -1.86073,-14.8519
 L -1.67662,-15.0744 L -1.46606,-15.2722 L -1.23239,-15.4419 L -0.979279,-15.5811 L -0.710724,-15.6874 L -0.430969,-15.7592
 L -0.144409,-15.7955 L 0.144409,-15.7955 L 0.430969,-15.7592 L 0.710724,-15.6874 L 0.979279,-15.5811 L 1.23239,-15.4419
 L 1.46606,-15.2722 L 1.67662,-15.0744 L 1.86073,-14.8519 L 2.0155,-14.608 L 2.13847,-14.3467 L 2.22774,-14.072
 L 2.28186,-13.7883 L 2.29999,-13.5 L 2.28186,-13.2117 L 2.22774,-12.928 L 2.13847,-12.6533 L 2.0155,-12.392
 L 1.86073,-12.1481 L 1.67662,-11.9255 L 1.46606,-11.7278 L 1.23239,-11.558 L 0.979279,-11.4189 L 0.710724,-11.3126
 L 0.430969,-11.2407 L 0.144409,-11.2045 z
M 14.8556,-11.2045 L 14.569,-11.2407 L 14.2893,-11.3126 L 14.0207,-11.4189 L 13.7676,-11.558 L 13.5339,-11.7278
 L 13.3234,-11.9255 L 13.1393,-12.1481 L 12.9845,-12.392 L 12.8615,-12.6533 L 12.7722,-12.928 L 12.7181,-13.2117
 L 12.7,-13.5 L 12.7181,-13.7883 L 12.7722,-14.072 L 12.8615,-14.3467 L 12.9845,-14.608 L 13.1393,-14.8519
 L 13.3234,-15.0744 L 13.5339,-15.2722 L 13.7676,-15.4419 L 14.0207,-15.5811 L 14.2893,-15.6874 L 14.569,-15.7592
 L 14.8556,-15.7955 L 15.1444,-15.7955 L 15.431,-15.7592 L 15.7107,-15.6874 L 15.9793,-15.5811 L 16.2324,-15.4419
 L 16.4661,-15.2722 L 16.6766,-15.0744 L 16.8607,-14.8519 L 17.0155,-14.608 L 17.1385,-14.3467 L 17.2277,-14.072
 L 17.2819,-13.7883 L 17.3,-13.5 L 17.2819,-13.2117 L 17.2277,-12.928 L 17.1385,-12.6533 L 17.0155,-12.392
 L 16.8607,-12.1481 L 16.6766,-11.9255 L 16.4661,-11.7278 L 16.2324,-11.558 L 15.9793,-11.4189 L 15.7107,-11.3126
 L 15.431,-11.2407 L 15.1444,-11.2045 z
M -15.1444,-11.2045 L -15.431,-11.2407 L -15.7107,-11.3126 L -15.9793,-11.4189 L -16.2324,-11.558 L -16.4661,-11.7278
 L -16.6766,-11.9255 L -16.8607,-12.1481 L -17.0155,-12.392 L -17.1385,-12.6533 L -17.2277,-12.928 L -17.2819,-13.2117
 L -17.3,-13.5 L -17.2819,-13.7883 L -17.2277,-14.072 L -17.1385,-14.3467 L -17.0155,-14.608 L -16.8607,-14.8519
 L -16.6766,-15.0744 L -16.4661,-15.2722 L -16.2324,-15.4419 L -15.9793,-15.5811 L -15.7107,-15.6874 L -15.431,-15.7592
 L -15.1444,-15.7955 L -14.8556,-15.7955 L -14.569,-15.7592 L -14.2893,-15.6874 L -14.0207,-15.5811 L -13.7676,-15.4419
 L -13.5339,-15.2722 L -13.3234,-15.0744 L -13.1393,-14.8519 L -12.9845,-14.608 L -12.8615,-14.3467 L -12.7722,-14.072
 L -12.7181,-13.7883 L -12.7,-13.5 L -12.7181,-13.2117 L -12.7722,-12.928 L -12.8615,-12.6533 L -12.9845,-12.392
 L -13.1393,-12.1481 L -13.3234,-11.9255 L -13.5339,-11.7278 L -13.7676,-11.558 L -14.0207,-11.4189 L -14.2893,-11.3126
 L -14.569,-11.2407 L -14.8556,-11.2045 z
M -26.0719,-3.59999 L -26.0719,-9 L -18.9281,-9 L -18.9281,-3.59999 z
M -11.0719,-3.59999 L -11.0719,-9 L -3.92809,-9 L -3.92809,-3.59999 z
M 3.92809,-3.59999 L 3.92809,-9 L 11.0719,-9 L 11.0719,-3.59999 z
M 18.9281,-3.59999 L 18.9281,-9 L 26.0719,-9 L 26.0719,-3.59999 z
" stroke="black" fill="lightgray" stroke-width="0.5"/>
</svg>
