  0
SECTION
  2
BLOCKS
  0
ENDSEC
  0
SECTION
  2
ENTITIES
  0
LINE
  8
0
 10
5.21844
 20
44.5443
 11
5.52254
 21
44.6224
  0
LINE
  8
0
 10
5.52254
 20
44.6224
 11
5.81444
 21
44.7379
  0
LINE
  8
0
 10
5.81444
 20
44.7379
 11
6.08955
 21
44.8892
  0
LINE
  8
0
 10
6.08955
 20
44.8892
 11
6.34355
 21
45.0737
  0
LINE
  8
0
 10
6.34355
 20
45.0737
 11
6.57242
 21
45.2886
  0
LINE
  8
0
 10
6.57242
 20
45.2886
 11
6.77254
 21
45.5305
  0
LINE
  8
0
 10
6.77254
 20
45.5305
 11
6.94077
 21
45.7956
  0
LINE
  8
0
 10
6.94077
 20
45.7956
 11
7.07443
 21
46.0797
  0
LINE
  8
0
 10
7.07443
 20
46.0797
 11
7.17145
 21
46.3783
  0
LINE
  8
0
 10
7.17145
 20
46.3783
 11
7.23029
 21
46.6867
  0
LINE
  8
0
 10
7.23029
 20
46.6867
 11
7.25
 21
47
  0
LINE
  8
0
 10
7.25
 20
47
 11
7.25
 21
49
  0
LINE
  8
0
 10
7.25
 20
49
 11
7.23029
 21
49.3133
  0
LINE
  8
0
 10
7.23029
 20
49.3133
 11
7.17145
 21
49.6217
  0
LINE
  8
0
 10
7.17145
 20
49.6217
 11
7.07443
 21
49.9203
  0
LINE
  8
0
 10
7.07443
 20
49.9203
 11
6.94077
 21
50.2044
  0
LINE
  8
0
 10
6.94077
 20
50.2044
 11
6.77254
 21
50.4695
  0
LINE
  8
0
 10
6.77254
 20
50.4695
 11
6.57242
 21
50.7114
  0
LINE
  8
0
 10
6.57242
 20
50.7114
 11
6.34355
 21
50.9263
  0
LINE
  8
0
 10
6.34355
 20
50.9263
 11
6.08955
 21
51.1108
  0
LINE
  8
0
 10
6.08955
 20
51.1108
 11
5.81444
 21
51.2621
  0
LINE
  8
0
 10
5.81444
 20
51.2621
 11
5.52254
 21
51.3776
  0
LINE
  8
0
 10
5.52254
 20
51.3776
 11
5.21844
 21
51.4557
  0
LINE
  8
0
 10
5.21844
 20
51.4557
 11
4.90697
 21
51.4951
  0
LINE
  8
0
 10
4.90697
 20
51.4951
 11
-4.90697
 21
51.4951
  0
LINE
  8
0
 10
-4.90697
 20
51.4951
 11
-5.21844
 21
51.4557
  0
LINE
  8
0
 10
-5.21844
 20
51.4557
 11
-5.52254
 21
51.3776
  0
LINE
  8
0
 10
-5.52254
 20
51.3776
 11
-5.81444
 21
51.2621
  0
LINE
  8
0
 10
-5.81444
 20
51.2621
 11
-6.08955
 21
51.1108
  0
LINE
  8
0
 10
-6.08955
 20
51.1108
 11
-6.34355
 21
50.9263
  0
LINE
  8
0
 10
-6.34355
 20
50.9263
 11
-6.57242
 21
50.7114
  0
LINE
  8
0
 10
-6.57242
 20
50.7114
 11
-6.77254
 21
50.4695
  0
LINE
  8
0
 10
-6.77254
 20
50.4695
 11
-6.94077
 21
50.2044
  0
LINE
  8
0
 10
-6.94077
 20
50.2044
 11
-7.07443
 21
49.9203
  0
LINE
  8
0
 10
-7.07443
 20
49.9203
 11
-7.17145
 21
49.6217
  0
LINE
  8
0
 10
-7.17145
 20
49.6217
 11
-7.23029
 21
49.3133
  0
LINE
  8
0
 10
-7.23029
 20
49.3133
 11
-7.25
 21
49
  0
LINE
  8
0
 10
-7.25
 20
49
 11
-7.25
 21
47
  0
LINE
  8
0
 10
-7.25
 20
47
 11
-7.23029
 21
46.6867
  0
LINE
  8
0
 10
-7.23029
 20
46.6867
 11
-7.17145
 21
46.3783
  0
LINE
  8
0
 10
-7.17145
 20
46.3783
 11
-7.07443
 21
46.0797
  0
LINE
  8
0
 10
-7.07443
 20
46.0797
 11
-6.94077
 21
45.7956
  0
LINE
  8
0
 10
-6.94077
 20
45.7956
 11
-6.77254
 21
45.5305
  0
LINE
  8
0
 10
-6.77254
 20
45.5305
 11
-6.57242
 21
45.2886
  0
LINE
  8
0
 10
-6.57242
 20
45.2886
 11
-6.34355
 21
45.0737
  0
LINE
  8
0
 10
-6.34355
 20
45.0737
 11
-6.08955
 21
44.8892
  0
LINE
  8
0
 10
-6.08955
 20
44.8892
 11
-5.81444
 21
44.7379
  0
LINE
  8
0
 10
-5.81444
 20
44.7379
 11
-5.52254
 21
44.6224
  0
LINE
  8
0
 10
-5.52254
 20
44.6224
 11
-5.21844
 21
44.5443
  0
LINE
  8
0
 10
-5.21844
 20
44.5443
 11
-4.90697
 21
44.5049
  0
LINE
  8
0
 10
-4.90697
 20
44.5049
 11
4.90697
 21
44.5049
  0
LINE
  8
0
 10
4.90697
 20
44.5049
 11
5.21844
 21
44.5443
  0
LINE
  8
0
 10
3.65581
 20
46.503
 11
3.46892
 21
46.5266
  0
LINE
  8
0
 10
3.46892
 20
46.5266
 11
3.28647
 21
46.5734
  0
LINE
  8
0
 10
3.28647
 20
46.5734
 11
3.11133
 21
46.6428
  0
LINE
  8
0
 10
3.11133
 20
46.6428
 11
2.94626
 21
46.7335
  0
LINE
  8
0
 10
2.94626
 20
46.7335
 11
2.79385
 21
46.8442
  0
LINE
  8
0
 10
2.79385
 20
46.8442
 11
2.65654
 21
46.9732
  0
LINE
  8
0
 10
2.65654
 20
46.9732
 11
2.53647
 21
47.1183
  0
LINE
  8
0
 10
2.53647
 20
47.1183
 11
2.43553
 21
47.2774
  0
LINE
  8
0
 10
2.43553
 20
47.2774
 11
2.35533
 21
47.4478
  0
LINE
  8
0
 10
2.35533
 20
47.4478
 11
2.29712
 21
47.627
  0
LINE
  8
0
 10
2.29712
 20
47.627
 11
2.26183
 21
47.812
  0
LINE
  8
0
 10
2.26183
 20
47.812
 11
2.25
 21
48
  0
LINE
  8
0
 10
2.25
 20
48
 11
2.26183
 21
48.188
  0
LINE
  8
0
 10
2.26183
 20
48.188
 11
2.29712
 21
48.373
  0
LINE
  8
0
 10
2.29712
 20
48.373
 11
2.35533
 21
48.5522
  0
LINE
  8
0
 10
2.35533
 20
48.5522
 11
2.43553
 21
48.7226
  0
LINE
  8
0
 10
2.43553
 20
48.7226
 11
2.53647
 21
48.8817
  0
LINE
  8
0
 10
2.53647
 20
48.8817
 11
2.65654
 21
49.0268
  0
LINE
  8
0
 10
2.65654
 20
49.0268
 11
2.79385
 21
49.1558
  0
LINE
  8
0
 10
2.79385
 20
49.1558
 11
2.94626
 21
49.2665
  0
LINE
  8
0
 10
2.94626
 20
49.2665
 11
3.11133
 21
49.3572
  0
LINE
  8
0
 10
3.11133
 20
49.3572
 11
3.28647
 21
49.4266
  0
LINE
  8
0
 10
3.28647
 20
49.4266
 11
3.46892
 21
49.4734
  0
LINE
  8
0
 10
3.46892
 20
49.4734
 11
3.65581
 21
49.497
  0
LINE
  8
0
 10
3.65581
 20
49.497
 11
3.84418
 21
49.497
  0
LINE
  8
0
 10
3.84418
 20
49.497
 11
4.03107
 21
49.4734
  0
LINE
  8
0
 10
4.03107
 20
49.4734
 11
4.21352
 21
49.4266
  0
LINE
  8
0
 10
4.21352
 20
49.4266
 11
4.38866
 21
49.3572
  0
LINE
  8
0
 10
4.38866
 20
49.3572
 11
4.55373
 21
49.2665
  0
LINE
  8
0
 10
4.55373
 20
49.2665
 11
4.70613
 21
49.1558
  0
LINE
  8
0
 10
4.70613
 20
49.1558
 11
4.84344
 21
49.0268
  0
LINE
  8
0
 10
4.84344
 20
49.0268
 11
4.96352
 21
48.8817
  0
LINE
  8
0
 10
4.96352
 20
48.8817
 11
5.06445
 21
48.7226
  0
LINE
  8
0
 10
5.06445
 20
48.7226
 11
5.14465
 21
48.5522
  0
LINE
  8
0
 10
5.14465
 20
48.5522
 11
5.20287
 21
48.373
  0
LINE
  8
0
 10
5.20287
 20
48.373
 11
5.23816
 21
48.188
  0
LINE
  8
0
 10
5.23816
 20
48.188
 11
5.25
 21
48
  0
LINE
  8
0
 10
5.25
 20
48
 11
5.23816
 21
47.812
  0
LINE
  8
0
 10
5.23816
 20
47.812
 11
5.20287
 21
47.627
  0
LINE
  8
0
 10
5.20287
 20
47.627
 11
5.14465
 21
47.4478
  0
LINE
  8
0
 10
5.14465
 20
47.4478
 11
5.06445
 21
47.2774
  0
LINE
  8
0
 10
5.06445
 20
47.2774
 11
4.96352
 21
47.1183
  0
LINE
  8
0
 10
4.96352
 20
47.1183
 11
4.84344
 21
46.9732
  0
LINE
  8
0
 10
4.84344
 20
46.9732
 11
4.70613
 21
46.8442
  0
LINE
  8
0
 10
4.70613
 20
46.8442
 11
4.55373
 21
46.7335
  0
LINE
  8
0
 10
4.55373
 20
46.7335
 11
4.38866
 21
46.6428
  0
LINE
  8
0
 10
4.38866
 20
46.6428
 11
4.21352
 21
46.5734
  0
LINE
  8
0
 10
4.21352
 20
46.5734
 11
4.03107
 21
46.5266
  0
LINE
  8
0
 10
4.03107
 20
46.5266
 11
3.84418
 21
46.503
  0
LINE
  8
0
 10
3.84418
 20
46.503
 11
3.65581
 21
46.503
  0
LINE
  8
0
 10
-3.84418
 20
46.503
 11
-4.03107
 21
46.5266
  0
LINE
  8
0
 10
-4.03107
 20
46.5266
 11
-4.21352
 21
46.5734
  0
LINE
  8
0
 10
-4.21352
 20
46.5734
 11
-4.38866
 21
46.6428
  0
LINE
  8
0
 10
-4.38866
 20
46.6428
 11
-4.55373
 21
46.7335
  0
LINE
  8
0
 10
-4.55373
 20
46.7335
 11
-4.70613
 21
46.8442
  0
LINE
  8
0
 10
-4.70613
 20
46.8442
 11
-4.84344
 21
46.9732
  0
LINE
  8
0
 10
-4.84344
 20
46.9732
 11
-4.96352
 21
47.1183
  0
LINE
  8
0
 10
-4.96352
 20
47.1183
 11
-5.06445
 21
47.2774
  0
LINE
  8
0
 10
-5.06445
 20
47.2774
 11
-5.14465
 21
47.4478
  0
LINE
  8
0
 10
-5.14465
 20
47.4478
 11
-5.20287
 21
47.627
  0
LINE
  8
0
 10
-5.20287
 20
47.627
 11
-5.23816
 21
47.812
  0
LINE
  8
0
 10
-5.23816
 20
47.812
 11
-5.25
 21
48
  0
LINE
  8
0
 10
-5.25
 20
48
 11
-5.23816
 21
48.188
  0
LINE
  8
0
 10
-5.23816
 20
48.188
 11
-5.20287
 21
48.373
  0
LINE
  8
0
 10
-5.20287
 20
48.373
 11
-5.14465
 21
48.5522
  0
LINE
  8
0
 10
-5.14465
 20
48.5522
 11
-5.06445
 21
48.7226
  0
LINE
  8
0
 10
-5.06445
 20
48.7226
 11
-4.96352
 21
48.8817
  0
LINE
  8
0
 10
-4.96352
 20
48.8817
 11
-4.84344
 21
49.0268
  0
LINE
  8
0
 10
-4.84344
 20
49.0268
 11
-4.70613
 21
49.1558
  0
LINE
  8
0
 10
-4.70613
 20
49.1558
 11
-4.55373
 21
49.2665
  0
LINE
  8
0
 10
-4.55373
 20
49.2665
 11
-4.38866
 21
49.3572
  0
LINE
  8
0
 10
-4.38866
 20
49.3572
 11
-4.21352
 21
49.4266
  0
LINE
  8
0
 10
-4.21352
 20
49.4266
 11
-4.03107
 21
49.4734
  0
LINE
  8
0
 10
-4.03107
 20
49.4734
 11
-3.84418
 21
49.497
  0
LINE
  8
0
 10
-3.84418
 20
49.497
 11
-3.65581
 21
49.497
  0
LINE
  8
0
 10
-3.65581
 20
49.497
 11
-3.46892
 21
49.4734
  0
LINE
  8
0
 10
-3.46892
 20
49.4734
 11
-3.28647
 21
49.4266
  0
LINE
  8
0
 10
-3.28647
 20
49.4266
 11
-3.11133
 21
49.3572
  0
LINE
  8
0
 10
-3.11133
 20
49.3572
 11
-2.94626
 21
49.2665
  0
LINE
  8
0
 10
-2.94626
 20
49.2665
 11
-2.79385
 21
49.1558
  0
LINE
  8
0
 10
-2.79385
 20
49.1558
 11
-2.65654
 21
49.0268
  0
LINE
  8
0
 10
-2.65654
 20
49.0268
 11
-2.53647
 21
48.8817
  0
LINE
  8
0
 10
-2.53647
 20
48.8817
 11
-2.43553
 21
48.7226
  0
LINE
  8
0
 10
-2.43553
 20
48.7226
 11
-2.35533
 21
48.5522
  0
LINE
  8
0
 10
-2.35533
 20
48.5522
 11
-2.29712
 21
48.373
  0
LINE
  8
0
 10
-2.29712
 20
48.373
 11
-2.26183
 21
48.188
  0
LINE
  8
0
 10
-2.26183
 20
48.188
 11
-2.25
 21
48
  0
LINE
  8
0
 10
-2.25
 20
48
 11
-2.26183
 21
47.812
  0
LINE
  8
0
 10
-2.26183
 20
47.812
 11
-2.29712
 21
47.627
  0
LINE
  8
0
 10
-2.29712
 20
47.627
 11
-2.35533
 21
47.4478
  0
LINE
  8
0
 10
-2.35533
 20
47.4478
 11
-2.43553
 21
47.2774
  0
LINE
  8
0
 10
-2.43553
 20
47.2774
 11
-2.53647
 21
47.1183
  0
LINE
  8
0
 10
-2.53647
 20
47.1183
 11
-2.65654
 21
46.9732
  0
LINE
  8
0
 10
-2.65654
 20
46.9732
 11
-2.79385
 21
46.8442
  0
LINE
  8
0
 10
-2.79385
 20
46.8442
 11
-2.94626
 21
46.7335
  0
LINE
  8
0
 10
-2.94626
 20
46.7335
 11
-3.11133
 21
46.6428
  0
LINE
  8
0
 10
-3.11133
 20
46.6428
 11
-3.28647
 21
46.5734
  0
LINE
  8
0
 10
-3.28647
 20
46.5734
 11
-3.46892
 21
46.5266
  0
LINE
  8
0
 10
-3.46892
 20
46.5266
 11
-3.65581
 21
46.503
  0
LINE
  8
0
 10
-3.65581
 20
46.503
 11
-3.84418
 21
46.503
  0
LINE
  8
0
 10
5.21844
 20
20.5443
 11
5.52254
 21
20.6224
  0
LINE
  8
0
 10
5.52254
 20
20.6224
 11
5.81444
 21
20.7379
  0
LINE
  8
0
 10
5.81444
 20
20.7379
 11
6.08955
 21
20.8892
  0
LINE
  8
0
 10
6.08955
 20
20.8892
 11
6.34355
 21
21.0737
  0
LINE
  8
0
 10
6.34355
 20
21.0737
 11
6.57242
 21
21.2886
  0
LINE
  8
0
 10
6.57242
 20
21.2886
 11
6.77254
 21
21.5305
  0
LINE
  8
0
 10
6.77254
 20
21.5305
 11
6.94077
 21
21.7956
  0
LINE
  8
0
 10
6.94077
 20
21.7956
 11
7.07443
 21
22.0797
  0
LINE
  8
0
 10
7.07443
 20
22.0797
 11
7.17145
 21
22.3783
  0
LINE
  8
0
 10
7.17145
 20
22.3783
 11
7.23029
 21
22.6867
  0
LINE
  8
0
 10
7.23029
 20
22.6867
 11
7.25
 21
23
  0
LINE
  8
0
 10
7.25
 20
23
 11
7.25
 21
25
  0
LINE
  8
0
 10
7.25
 20
25
 11
7.23029
 21
25.3133
  0
LINE
  8
0
 10
7.23029
 20
25.3133
 11
7.17145
 21
25.6217
  0
LINE
  8
0
 10
7.17145
 20
25.6217
 11
7.07443
 21
25.9203
  0
LINE
  8
0
 10
7.07443
 20
25.9203
 11
6.94077
 21
26.2044
  0
LINE
  8
0
 10
6.94077
 20
26.2044
 11
6.77254
 21
26.4695
  0
LINE
  8
0
 10
6.77254
 20
26.4695
 11
6.57242
 21
26.7114
  0
LINE
  8
0
 10
6.57242
 20
26.7114
 11
6.34355
 21
26.9263
  0
LINE
  8
0
 10
6.34355
 20
26.9263
 11
6.08955
 21
27.1108
  0
LINE
  8
0
 10
6.08955
 20
27.1108
 11
5.81444
 21
27.2621
  0
LINE
  8
0
 10
5.81444
 20
27.2621
 11
5.52254
 21
27.3776
  0
LINE
  8
0
 10
5.52254
 20
27.3776
 11
5.21844
 21
27.4557
  0
LINE
  8
0
 10
5.21844
 20
27.4557
 11
4.90697
 21
27.4951
  0
LINE
  8
0
 10
4.90697
 20
27.4951
 11
-4.90697
 21
27.4951
  0
LINE
  8
0
 10
-4.90697
 20
27.4951
 11
-5.21844
 21
27.4557
  0
LINE
  8
0
 10
-5.21844
 20
27.4557
 11
-5.52254
 21
27.3776
  0
LINE
  8
0
 10
-5.52254
 20
27.3776
 11
-5.81444
 21
27.2621
  0
LINE
  8
0
 10
-5.81444
 20
27.2621
 11
-6.08955
 21
27.1108
  0
LINE
  8
0
 10
-6.08955
 20
27.1108
 11
-6.34355
 21
26.9263
  0
LINE
  8
0
 10
-6.34355
 20
26.9263
 11
-6.57242
 21
26.7114
  0
LINE
  8
0
 10
-6.57242
 20
26.7114
 11
-6.77254
 21
26.4695
  0
LINE
  8
0
 10
-6.77254
 20
26.4695
 11
-6.94077
 21
26.2044
  0
LINE
  8
0
 10
-6.94077
 20
26.2044
 11
-7.07443
 21
25.9203
  0
LINE
  8
0
 10
-7.07443
 20
25.9203
 11
-7.17145
 21
25.6217
  0
LINE
  8
0
 10
-7.17145
 20
25.6217
 11
-7.23029
 21
25.3133
  0
LINE
  8
0
 10
-7.23029
 20
25.3133
 11
-7.25
 21
25
  0
LINE
  8
0
 10
-7.25
 20
25
 11
-7.25
 21
23
  0
LINE
  8
0
 10
-7.25
 20
23
 11
-7.23029
 21
22.6867
  0
LINE
  8
0
 10
-7.23029
 20
22.6867
 11
-7.17145
 21
22.3783
  0
LINE
  8
0
 10
-7.17145
 20
22.3783
 11
-7.07443
 21
22.0797
  0
LINE
  8
0
 10
-7.07443
 20
22.0797
 11
-6.94077
 21
21.7956
  0
LINE
  8
0
 10
-6.94077
 20
21.7956
 11
-6.77254
 21
21.5305
  0
LINE
  8
0
 10
-6.77254
 20
21.5305
 11
-6.57242
 21
21.2886
  0
LINE
  8
0
 10
-6.57242
 20
21.2886
 11
-6.34355
 21
21.0737
  0
LINE
  8
0
 10
-6.34355
 20
21.0737
 11
-6.08955
 21
20.8892
  0
LINE
  8
0
 10
-6.08955
 20
20.8892
 11
-5.81444
 21
20.7379
  0
LINE
  8
0
 10
-5.81444
 20
20.7379
 11
-5.52254
 21
20.6224
  0
LINE
  8
0
 10
-5.52254
 20
20.6224
 11
-5.21844
 21
20.5443
  0
LINE
  8
0
 10
-5.21844
 20
20.5443
 11
-4.90697
 21
20.5049
  0
LINE
  8
0
 10
-4.90697
 20
20.5049
 11
4.90697
 21
20.5049
  0
LINE
  8
0
 10
4.90697
 20
20.5049
 11
5.21844
 21
20.5443
  0
LINE
  8
0
 10
3.65581
 20
22.503
 11
3.46892
 21
22.5266
  0
LINE
  8
0
 10
3.46892
 20
22.5266
 11
3.28647
 21
22.5734
  0
LINE
  8
0
 10
3.28647
 20
22.5734
 11
3.11133
 21
22.6428
  0
LINE
  8
0
 10
3.11133
 20
22.6428
 11
2.94626
 21
22.7335
  0
LINE
  8
0
 10
2.94626
 20
22.7335
 11
2.79385
 21
22.8442
  0
LINE
  8
0
 10
2.79385
 20
22.8442
 11
2.65654
 21
22.9732
  0
LINE
  8
0
 10
2.65654
 20
22.9732
 11
2.53647
 21
23.1183
  0
LINE
  8
0
 10
2.53647
 20
23.1183
 11
2.43553
 21
23.2774
  0
LINE
  8
0
 10
2.43553
 20
23.2774
 11
2.35533
 21
23.4478
  0
LINE
  8
0
 10
2.35533
 20
23.4478
 11
2.29712
 21
23.627
  0
LINE
  8
0
 10
2.29712
 20
23.627
 11
2.26183
 21
23.812
  0
LINE
  8
0
 10
2.26183
 20
23.812
 11
2.25
 21
24
  0
LINE
  8
0
 10
2.25
 20
24
 11
2.26183
 21
24.188
  0
LINE
  8
0
 10
2.26183
 20
24.188
 11
2.29712
 21
24.373
  0
LINE
  8
0
 10
2.29712
 20
24.373
 11
2.35533
 21
24.5522
  0
LINE
  8
0
 10
2.35533
 20
24.5522
 11
2.43553
 21
24.7226
  0
LINE
  8
0
 10
2.43553
 20
24.7226
 11
2.53647
 21
24.8817
  0
LINE
  8
0
 10
2.53647
 20
24.8817
 11
2.65654
 21
25.0268
  0
LINE
  8
0
 10
2.65654
 20
25.0268
 11
2.79385
 21
25.1558
  0
LINE
  8
0
 10
2.79385
 20
25.1558
 11
2.94626
 21
25.2665
  0
LINE
  8
0
 10
2.94626
 20
25.2665
 11
3.11133
 21
25.3572
  0
LINE
  8
0
 10
3.11133
 20
25.3572
 11
3.28647
 21
25.4266
  0
LINE
  8
0
 10
3.28647
 20
25.4266
 11
3.46892
 21
25.4734
  0
LINE
  8
0
 10
3.46892
 20
25.4734
 11
3.65581
 21
25.497
  0
LINE
  8
0
 10
3.65581
 20
25.497
 11
3.84418
 21
25.497
  0
LINE
  8
0
 10
3.84418
 20
25.497
 11
4.03107
 21
25.4734
  0
LINE
  8
0
 10
4.03107
 20
25.4734
 11
4.21352
 21
25.4266
  0
LINE
  8
0
 10
4.21352
 20
25.4266
 11
4.38866
 21
25.3572
  0
LINE
  8
0
 10
4.38866
 20
25.3572
 11
4.55373
 21
25.2665
  0
LINE
  8
0
 10
4.55373
 20
25.2665
 11
4.70613
 21
25.1558
  0
LINE
  8
0
 10
4.70613
 20
25.1558
 11
4.84344
 21
25.0268
  0
LINE
  8
0
 10
4.84344
 20
25.0268
 11
4.96352
 21
24.8817
  0
LINE
  8
0
 10
4.96352
 20
24.8817
 11
5.06445
 21
24.7226
  0
LINE
  8
0
 10
5.06445
 20
24.7226
 11
5.14465
 21
24.5522
  0
LINE
  8
0
 10
5.14465
 20
24.5522
 11
5.20287
 21
24.373
  0
LINE
  8
0
 10
5.20287
 20
24.373
 11
5.23816
 21
24.188
  0
LINE
  8
0
 10
5.23816
 20
24.188
 11
5.25
 21
24
  0
LINE
  8
0
 10
5.25
 20
24
 11
5.23816
 21
23.812
  0
LINE
  8
0
 10
5.23816
 20
23.812
 11
5.20287
 21
23.627
  0
LINE
  8
0
 10
5.20287
 20
23.627
 11
5.14465
 21
23.4478
  0
LINE
  8
0
 10
5.14465
 20
23.4478
 11
5.06445
 21
23.2774
  0
LINE
  8
0
 10
5.06445
 20
23.2774
 11
4.96352
 21
23.1183
  0
LINE
  8
0
 10
4.96352
 20
23.1183
 11
4.84344
 21
22.9732
  0
LINE
  8
0
 10
4.84344
 20
22.9732
 11
4.70613
 21
22.8442
  0
LINE
  8
0
 10
4.70613
 20
22.8442
 11
4.55373
 21
22.7335
  0
LINE
  8
0
 10
4.55373
 20
22.7335
 11
4.38866
 21
22.6428
  0
LINE
  8
0
 10
4.38866
 20
22.6428
 11
4.21352
 21
22.5734
  0
LINE
  8
0
 10
4.21352
 20
22.5734
 11
4.03107
 21
22.5266
  0
LINE
  8
0
 10
4.03107
 20
22.5266
 11
3.84418
 21
22.503
  0
LINE
  8
0
 10
3.84418
 20
22.503
 11
3.65581
 21
22.503
  0
LINE
  8
0
 10
-3.84418
 20
22.503
 11
-4.03107
 21
22.5266
  0
LINE
  8
0
 10
-4.03107
 20
22.5266
 11
-4.21352
 21
22.5734
  0
LINE
  8
0
 10
-4.21352
 20
22.5734
 11
-4.38866
 21
22.6428
  0
LINE
  8
0
 10
-4.38866
 20
22.6428
 11
-4.55373
 21
22.7335
  0
LINE
  8
0
 10
-4.55373
 20
22.7335
 11
-4.70613
 21
22.8442
  0
LINE
  8
0
 10
-4.70613
 20
22.8442
 11
-4.84344
 21
22.9732
  0
LINE
  8
0
 10
-4.84344
 20
22.9732
 11
-4.96352
 21
23.1183
  0
LINE
  8
0
 10
-4.96352
 20
23.1183
 11
-5.06445
 21
23.2774
  0
LINE
  8
0
 10
-5.06445
 20
23.2774
 11
-5.14465
 21
23.4478
  0
LINE
  8
0
 10
-5.14465
 20
23.4478
 11
-5.20287
 21
23.627
  0
LINE
  8
0
 10
-5.20287
 20
23.627
 11
-5.23816
 21
23.812
  0
LINE
  8
0
 10
-5.23816
 20
23.812
 11
-5.25
 21
24
  0
LINE
  8
0
 10
-5.25
 20
24
 11
-5.23816
 21
24.188
  0
LINE
  8
0
 10
-5.23816
 20
24.188
 11
-5.20287
 21
24.373
  0
LINE
  8
0
 10
-5.20287
 20
24.373
 11
-5.14465
 21
24.5522
  0
LINE
  8
0
 10
-5.14465
 20
24.5522
 11
-5.06445
 21
24.7226
  0
LINE
  8
0
 10
-5.06445
 20
24.7226
 11
-4.96352
 21
24.8817
  0
LINE
  8
0
 10
-4.96352
 20
24.8817
 11
-4.84344
 21
25.0268
  0
LINE
  8
0
 10
-4.84344
 20
25.0268
 11
-4.70613
 21
25.1558
  0
LINE
  8
0
 10
-4.70613
 20
25.1558
 11
-4.55373
 21
25.2665
  0
LINE
  8
0
 10
-4.55373
 20
25.2665
 11
-4.38866
 21
25.3572
  0
LINE
  8
0
 10
-4.38866
 20
25.3572
 11
-4.21352
 21
25.4266
  0
LINE
  8
0
 10
-4.21352
 20
25.4266
 11
-4.03107
 21
25.4734
  0
LINE
  8
0
 10
-4.03107
 20
25.4734
 11
-3.84418
 21
25.497
  0
LINE
  8
0
 10
-3.84418
 20
25.497
 11
-3.65581
 21
25.497
  0
LINE
  8
0
 10
-3.65581
 20
25.497
 11
-3.46892
 21
25.4734
  0
LINE
  8
0
 10
-3.46892
 20
25.4734
 11
-3.28647
 21
25.4266
  0
LINE
  8
0
 10
-3.28647
 20
25.4266
 11
-3.11133
 21
25.3572
  0
LINE
  8
0
 10
-3.11133
 20
25.3572
 11
-2.94626
 21
25.2665
  0
LINE
  8
0
 10
-2.94626
 20
25.2665
 11
-2.79385
 21
25.1558
  0
LINE
  8
0
 10
-2.79385
 20
25.1558
 11
-2.65654
 21
25.0268
  0
LINE
  8
0
 10
-2.65654
 20
25.0268
 11
-2.53647
 21
24.8817
  0
LINE
  8
0
 10
-2.53647
 20
24.8817
 11
-2.43553
 21
24.7226
  0
LINE
  8
0
 10
-2.43553
 20
24.7226
 11
-2.35533
 21
24.5522
  0
LINE
  8
0
 10
-2.35533
 20
24.5522
 11
-2.29712
 21
24.373
  0
LINE
  8
0
 10
-2.29712
 20
24.373
 11
-2.26183
 21
24.188
  0
LINE
  8
0
 10
-2.26183
 20
24.188
 11
-2.25
 21
24
  0
LINE
  8
0
 10
-2.25
 20
24
 11
-2.26183
 21
23.812
  0
LINE
  8
0
 10
-2.26183
 20
23.812
 11
-2.29712
 21
23.627
  0
LINE
  8
0
 10
-2.29712
 20
23.627
 11
-2.35533
 21
23.4478
  0
LINE
  8
0
 10
-2.35533
 20
23.4478
 11
-2.43553
 21
23.2774
  0
LINE
  8
0
 10
-2.43553
 20
23.2774
 11
-2.53647
 21
23.1183
  0
LINE
  8
0
 10
-2.53647
 20
23.1183
 11
-2.65654
 21
22.9732
  0
LINE
  8
0
 10
-2.65654
 20
22.9732
 11
-2.79385
 21
22.8442
  0
LINE
  8
0
 10
-2.79385
 20
22.8442
 11
-2.94626
 21
22.7335
  0
LINE
  8
0
 10
-2.94626
 20
22.7335
 11
-3.11133
 21
22.6428
  0
LINE
  8
0
 10
-3.11133
 20
22.6428
 11
-3.28647
 21
22.5734
  0
LINE
  8
0
 10
-3.28647
 20
22.5734
 11
-3.46892
 21
22.5266
  0
LINE
  8
0
 10
-3.46892
 20
22.5266
 11
-3.65581
 21
22.503
  0
LINE
  8
0
 10
-3.65581
 20
22.503
 11
-3.84418
 21
22.503
  0
ENDSEC
  0
SECTION
  2
OBJECTS
  0
DICTIONARY
  0
ENDSEC
  0
EOF
