solid OpenSCAD_Model
  facet normal -0.998026 -0.0628013 0
    outer loop
      vertex -2.25 0 0
      vertex -2.26183 0.188 9
      vertex -2.26183 0.188 0
    endloop
  endfacet
  facet normal -0.998026 -0.0628013 0
    outer loop
      vertex -2.26183 0.188 9
      vertex -2.25 0 0
      vertex -2.25 0 9
    endloop
  endfacet
  facet normal 0.998026 -0.0628013 0
    outer loop
      vertex -5.25 0 9
      vertex -5.23817 0.188 0
      vertex -5.23817 0.188 9
    endloop
  endfacet
  facet normal 0.998026 -0.0628013 0
    outer loop
      vertex -5.23817 0.188 0
      vertex -5.25 0 9
      vertex -5.25 0 0
    endloop
  endfacet
  facet normal 0 -1 0
    outer loop
      vertex -3.84418 1.49704 0
      vertex -3.65581 1.49704 9
      vertex -3.84418 1.49704 9
    endloop
  endfacet
  facet normal 0 -1 -0
    outer loop
      vertex -3.65581 1.49704 9
      vertex -3.84418 1.49704 0
      vertex -3.65581 1.49704 0
    endloop
  endfacet
  facet normal 0 1 -0
    outer loop
      vertex -3.65581 -1.49704 0
      vertex -3.84418 -1.49704 9
      vertex -3.65581 -1.49704 9
    endloop
  endfacet
  facet normal 0 1 0
    outer loop
      vertex -3.84418 -1.49704 9
      vertex -3.65581 -1.49704 0
      vertex -3.84418 -1.49704 0
    endloop
  endfacet
  facet normal -0.684568 -0.728949 0
    outer loop
      vertex -2.79386 1.15577 0
      vertex -2.65655 1.02682 9
      vertex -2.79386 1.15577 9
    endloop
  endfacet
  facet normal -0.684568 -0.728949 -0
    outer loop
      vertex -2.65655 1.02682 9
      vertex -2.79386 1.15577 0
      vertex -2.65655 1.02682 0
    endloop
  endfacet
  facet normal 0.684568 -0.728949 0
    outer loop
      vertex -4.84345 1.02682 0
      vertex -4.70614 1.15577 9
      vertex -4.84345 1.02682 9
    endloop
  endfacet
  facet normal 0.684568 -0.728949 0
    outer loop
      vertex -4.70614 1.15577 9
      vertex -4.84345 1.02682 0
      vertex -4.70614 1.15577 0
    endloop
  endfacet
  facet normal 0.368093 -0.929789 0
    outer loop
      vertex -4.38867 1.35724 0
      vertex -4.21352 1.42658 9
      vertex -4.38867 1.35724 9
    endloop
  endfacet
  facet normal 0.368093 -0.929789 0
    outer loop
      vertex -4.21352 1.42658 9
      vertex -4.38867 1.35724 0
      vertex -4.21352 1.42658 0
    endloop
  endfacet
  facet normal -0.904838 -0.425756 0
    outer loop
      vertex -2.35534 0.552186 0
      vertex -2.43554 0.722631 9
      vertex -2.43554 0.722631 0
    endloop
  endfacet
  facet normal -0.904838 -0.425756 0
    outer loop
      vertex -2.43554 0.722631 9
      vertex -2.35534 0.552186 0
      vertex -2.35534 0.552186 9
    endloop
  endfacet
  facet normal -0.982294 -0.187345 0
    outer loop
      vertex -2.26183 0.188 0
      vertex -2.29712 0.373034 9
      vertex -2.29712 0.373034 0
    endloop
  endfacet
  facet normal -0.982294 -0.187345 0
    outer loop
      vertex -2.29712 0.373034 9
      vertex -2.26183 0.188 0
      vertex -2.26183 0.188 9
    endloop
  endfacet
  facet normal -0.368112 -0.929782 0
    outer loop
      vertex -3.28647 1.42658 0
      vertex -3.11133 1.35724 9
      vertex -3.28647 1.42658 9
    endloop
  endfacet
  facet normal -0.368112 -0.929782 -0
    outer loop
      vertex -3.11133 1.35724 9
      vertex -3.28647 1.42658 0
      vertex -3.11133 1.35724 0
    endloop
  endfacet
  facet normal -0.248701 -0.96858 0
    outer loop
      vertex -3.46893 1.47343 0
      vertex -3.28647 1.42658 9
      vertex -3.46893 1.47343 9
    endloop
  endfacet
  facet normal -0.248701 -0.96858 -0
    outer loop
      vertex -3.28647 1.42658 9
      vertex -3.46893 1.47343 0
      vertex -3.28647 1.42658 0
    endloop
  endfacet
  facet normal -0.481762 -0.876302 0
    outer loop
      vertex -3.11133 1.35724 0
      vertex -2.94626 1.26649 9
      vertex -3.11133 1.35724 9
    endloop
  endfacet
  facet normal -0.481762 -0.876302 -0
    outer loop
      vertex -2.94626 1.26649 9
      vertex -3.11133 1.35724 0
      vertex -2.94626 1.26649 0
    endloop
  endfacet
  facet normal 0.904838 -0.425756 0
    outer loop
      vertex -5.14466 0.552186 9
      vertex -5.06446 0.722631 0
      vertex -5.06446 0.722631 9
    endloop
  endfacet
  facet normal 0.904838 -0.425756 0
    outer loop
      vertex -5.06446 0.722631 0
      vertex -5.14466 0.552186 9
      vertex -5.14466 0.552186 0
    endloop
  endfacet
  facet normal 0.951057 -0.309017 0
    outer loop
      vertex -5.20287 0.373034 9
      vertex -5.14466 0.552186 0
      vertex -5.14466 0.552186 9
    endloop
  endfacet
  facet normal 0.951057 -0.309017 0
    outer loop
      vertex -5.14466 0.552186 0
      vertex -5.20287 0.373034 9
      vertex -5.20287 0.373034 0
    endloop
  endfacet
  facet normal 0.125335 -0.992115 0
    outer loop
      vertex -4.03107 1.47343 0
      vertex -3.84418 1.49704 9
      vertex -4.03107 1.47343 9
    endloop
  endfacet
  facet normal 0.125335 -0.992115 0
    outer loop
      vertex -3.84418 1.49704 9
      vertex -4.03107 1.47343 0
      vertex -3.84418 1.49704 0
    endloop
  endfacet
  facet normal -0.982294 0.187345 0
    outer loop
      vertex -2.29712 -0.373034 0
      vertex -2.26183 -0.188 9
      vertex -2.26183 -0.188 0
    endloop
  endfacet
  facet normal -0.982294 0.187345 0
    outer loop
      vertex -2.26183 -0.188 9
      vertex -2.29712 -0.373034 0
      vertex -2.29712 -0.373034 9
    endloop
  endfacet
  facet normal -0.125341 0.992114 0
    outer loop
      vertex -3.46893 -1.47343 0
      vertex -3.65581 -1.49704 9
      vertex -3.46893 -1.47343 9
    endloop
  endfacet
  facet normal -0.125341 0.992114 0
    outer loop
      vertex -3.65581 -1.49704 9
      vertex -3.46893 -1.47343 0
      vertex -3.65581 -1.49704 0
    endloop
  endfacet
  facet normal -0.368112 0.929782 0
    outer loop
      vertex -3.11133 -1.35724 0
      vertex -3.28647 -1.42658 9
      vertex -3.11133 -1.35724 9
    endloop
  endfacet
  facet normal -0.368112 0.929782 0
    outer loop
      vertex -3.28647 -1.42658 9
      vertex -3.11133 -1.35724 0
      vertex -3.28647 -1.42658 0
    endloop
  endfacet
  facet normal -0.951041 -0.309065 0
    outer loop
      vertex -2.29712 0.373034 0
      vertex -2.35534 0.552186 9
      vertex -2.35534 0.552186 0
    endloop
  endfacet
  facet normal -0.951041 -0.309065 0
    outer loop
      vertex -2.35534 0.552186 9
      vertex -2.29712 0.373034 0
      vertex -2.29712 0.373034 9
    endloop
  endfacet
  facet normal -0.770492 -0.63745 0
    outer loop
      vertex -2.53647 0.881678 0
      vertex -2.65655 1.02682 9
      vertex -2.65655 1.02682 0
    endloop
  endfacet
  facet normal -0.770492 -0.63745 0
    outer loop
      vertex -2.65655 1.02682 9
      vertex -2.53647 0.881678 0
      vertex -2.53647 0.881678 9
    endloop
  endfacet
  facet normal -0.844338 -0.535811 0
    outer loop
      vertex -2.43554 0.722631 0
      vertex -2.53647 0.881678 9
      vertex -2.53647 0.881678 0
    endloop
  endfacet
  facet normal -0.844338 -0.535811 0
    outer loop
      vertex -2.53647 0.881678 9
      vertex -2.43554 0.722631 0
      vertex -2.43554 0.722631 9
    endloop
  endfacet
  facet normal -0.125341 -0.992114 0
    outer loop
      vertex -3.65581 1.49704 0
      vertex -3.46893 1.47343 9
      vertex -3.65581 1.49704 9
    endloop
  endfacet
  facet normal -0.125341 -0.992114 -0
    outer loop
      vertex -3.46893 1.47343 9
      vertex -3.65581 1.49704 0
      vertex -3.46893 1.47343 0
    endloop
  endfacet
  facet normal -0.587768 -0.80903 0
    outer loop
      vertex -2.94626 1.26649 0
      vertex -2.79386 1.15577 9
      vertex -2.94626 1.26649 9
    endloop
  endfacet
  facet normal -0.587768 -0.80903 -0
    outer loop
      vertex -2.79386 1.15577 9
      vertex -2.94626 1.26649 0
      vertex -2.79386 1.15577 0
    endloop
  endfacet
  facet normal 0.844314 -0.535848 0
    outer loop
      vertex -5.06446 0.722631 9
      vertex -4.96352 0.881678 0
      vertex -4.96352 0.881678 9
    endloop
  endfacet
  facet normal 0.844314 -0.535848 0
    outer loop
      vertex -4.96352 0.881678 0
      vertex -5.06446 0.722631 9
      vertex -5.06446 0.722631 0
    endloop
  endfacet
  facet normal 0.770518 -0.637418 0
    outer loop
      vertex -4.96352 0.881678 9
      vertex -4.84345 1.02682 0
      vertex -4.84345 1.02682 9
    endloop
  endfacet
  facet normal 0.770518 -0.637418 0
    outer loop
      vertex -4.84345 1.02682 0
      vertex -4.96352 0.881678 9
      vertex -4.96352 0.881678 0
    endloop
  endfacet
  facet normal 0.982284 -0.187396 0
    outer loop
      vertex -5.23817 0.188 9
      vertex -5.20287 0.373034 0
      vertex -5.20287 0.373034 9
    endloop
  endfacet
  facet normal 0.982284 -0.187396 0
    outer loop
      vertex -5.20287 0.373034 0
      vertex -5.23817 0.188 9
      vertex -5.23817 0.188 0
    endloop
  endfacet
  facet normal 0.481762 -0.876302 0
    outer loop
      vertex -4.55374 1.26649 0
      vertex -4.38867 1.35724 9
      vertex -4.55374 1.26649 9
    endloop
  endfacet
  facet normal 0.481762 -0.876302 0
    outer loop
      vertex -4.38867 1.35724 9
      vertex -4.55374 1.26649 0
      vertex -4.38867 1.35724 0
    endloop
  endfacet
  facet normal 0.587768 -0.80903 0
    outer loop
      vertex -4.70614 1.15577 0
      vertex -4.55374 1.26649 9
      vertex -4.70614 1.15577 9
    endloop
  endfacet
  facet normal 0.587768 -0.80903 0
    outer loop
      vertex -4.55374 1.26649 9
      vertex -4.70614 1.15577 0
      vertex -4.55374 1.26649 0
    endloop
  endfacet
  facet normal 0.248714 -0.968577 0
    outer loop
      vertex -4.21352 1.42658 0
      vertex -4.03107 1.47343 9
      vertex -4.21352 1.42658 9
    endloop
  endfacet
  facet normal 0.248714 -0.968577 0
    outer loop
      vertex -4.03107 1.47343 9
      vertex -4.21352 1.42658 0
      vertex -4.03107 1.47343 0
    endloop
  endfacet
  facet normal -0.998026 0.0628013 0
    outer loop
      vertex -2.26183 -0.188 0
      vertex -2.25 0 9
      vertex -2.25 0 0
    endloop
  endfacet
  facet normal -0.998026 0.0628013 0
    outer loop
      vertex -2.25 0 9
      vertex -2.26183 -0.188 0
      vertex -2.26183 -0.188 9
    endloop
  endfacet
  facet normal -0.481762 0.876302 0
    outer loop
      vertex -2.94626 -1.26649 0
      vertex -3.11133 -1.35724 9
      vertex -2.94626 -1.26649 9
    endloop
  endfacet
  facet normal -0.481762 0.876302 0
    outer loop
      vertex -3.11133 -1.35724 9
      vertex -2.94626 -1.26649 0
      vertex -3.11133 -1.35724 0
    endloop
  endfacet
  facet normal -0.684568 0.728949 0
    outer loop
      vertex -2.65655 -1.02682 0
      vertex -2.79386 -1.15577 9
      vertex -2.65655 -1.02682 9
    endloop
  endfacet
  facet normal -0.684568 0.728949 0
    outer loop
      vertex -2.79386 -1.15577 9
      vertex -2.65655 -1.02682 0
      vertex -2.79386 -1.15577 0
    endloop
  endfacet
  facet normal -0.904838 0.425756 0
    outer loop
      vertex -2.43554 -0.722631 0
      vertex -2.35534 -0.552186 9
      vertex -2.35534 -0.552186 0
    endloop
  endfacet
  facet normal -0.904838 0.425756 0
    outer loop
      vertex -2.35534 -0.552186 9
      vertex -2.43554 -0.722631 0
      vertex -2.43554 -0.722631 9
    endloop
  endfacet
  facet normal -0.770492 0.63745 0
    outer loop
      vertex -2.65655 -1.02682 0
      vertex -2.53647 -0.881678 9
      vertex -2.53647 -0.881678 0
    endloop
  endfacet
  facet normal -0.770492 0.63745 0
    outer loop
      vertex -2.53647 -0.881678 9
      vertex -2.65655 -1.02682 0
      vertex -2.65655 -1.02682 9
    endloop
  endfacet
  facet normal 0.684568 0.728949 -0
    outer loop
      vertex -4.70614 -1.15577 0
      vertex -4.84345 -1.02682 9
      vertex -4.70614 -1.15577 9
    endloop
  endfacet
  facet normal 0.684568 0.728949 0
    outer loop
      vertex -4.84345 -1.02682 9
      vertex -4.70614 -1.15577 0
      vertex -4.84345 -1.02682 0
    endloop
  endfacet
  facet normal 0.844314 0.535848 0
    outer loop
      vertex -4.96352 -0.881678 9
      vertex -5.06446 -0.722631 0
      vertex -5.06446 -0.722631 9
    endloop
  endfacet
  facet normal 0.844314 0.535848 0
    outer loop
      vertex -5.06446 -0.722631 0
      vertex -4.96352 -0.881678 9
      vertex -4.96352 -0.881678 0
    endloop
  endfacet
  facet normal 0.951057 0.309017 0
    outer loop
      vertex -5.14466 -0.552186 9
      vertex -5.20287 -0.373034 0
      vertex -5.20287 -0.373034 9
    endloop
  endfacet
  facet normal 0.951057 0.309017 0
    outer loop
      vertex -5.20287 -0.373034 0
      vertex -5.14466 -0.552186 9
      vertex -5.14466 -0.552186 0
    endloop
  endfacet
  facet normal -0.248701 0.96858 0
    outer loop
      vertex -3.28647 -1.42658 0
      vertex -3.46893 -1.47343 9
      vertex -3.28647 -1.42658 9
    endloop
  endfacet
  facet normal -0.248701 0.96858 0
    outer loop
      vertex -3.46893 -1.47343 9
      vertex -3.28647 -1.42658 0
      vertex -3.46893 -1.47343 0
    endloop
  endfacet
  facet normal -0.587768 0.80903 0
    outer loop
      vertex -2.79386 -1.15577 0
      vertex -2.94626 -1.26649 9
      vertex -2.79386 -1.15577 9
    endloop
  endfacet
  facet normal -0.587768 0.80903 0
    outer loop
      vertex -2.94626 -1.26649 9
      vertex -2.79386 -1.15577 0
      vertex -2.94626 -1.26649 0
    endloop
  endfacet
  facet normal -0.951041 0.309065 0
    outer loop
      vertex -2.35534 -0.552186 0
      vertex -2.29712 -0.373034 9
      vertex -2.29712 -0.373034 0
    endloop
  endfacet
  facet normal -0.951041 0.309065 0
    outer loop
      vertex -2.29712 -0.373034 9
      vertex -2.35534 -0.552186 0
      vertex -2.35534 -0.552186 9
    endloop
  endfacet
  facet normal -0.844338 0.535811 0
    outer loop
      vertex -2.53647 -0.881678 0
      vertex -2.43554 -0.722631 9
      vertex -2.43554 -0.722631 0
    endloop
  endfacet
  facet normal -0.844338 0.535811 0
    outer loop
      vertex -2.43554 -0.722631 9
      vertex -2.53647 -0.881678 0
      vertex -2.53647 -0.881678 9
    endloop
  endfacet
  facet normal 0.368093 0.929789 -0
    outer loop
      vertex -4.21352 -1.42658 0
      vertex -4.38867 -1.35724 9
      vertex -4.21352 -1.42658 9
    endloop
  endfacet
  facet normal 0.368093 0.929789 0
    outer loop
      vertex -4.38867 -1.35724 9
      vertex -4.21352 -1.42658 0
      vertex -4.38867 -1.35724 0
    endloop
  endfacet
  facet normal 0.248714 0.968577 -0
    outer loop
      vertex -4.03107 -1.47343 0
      vertex -4.21352 -1.42658 9
      vertex -4.03107 -1.47343 9
    endloop
  endfacet
  facet normal 0.248714 0.968577 0
    outer loop
      vertex -4.21352 -1.42658 9
      vertex -4.03107 -1.47343 0
      vertex -4.21352 -1.42658 0
    endloop
  endfacet
  facet normal 0.770518 0.637418 0
    outer loop
      vertex -4.84345 -1.02682 9
      vertex -4.96352 -0.881678 0
      vertex -4.96352 -0.881678 9
    endloop
  endfacet
  facet normal 0.770518 0.637418 0
    outer loop
      vertex -4.96352 -0.881678 0
      vertex -4.84345 -1.02682 9
      vertex -4.84345 -1.02682 0
    endloop
  endfacet
  facet normal 0.904838 0.425756 0
    outer loop
      vertex -5.06446 -0.722631 9
      vertex -5.14466 -0.552186 0
      vertex -5.14466 -0.552186 9
    endloop
  endfacet
  facet normal 0.904838 0.425756 0
    outer loop
      vertex -5.14466 -0.552186 0
      vertex -5.06446 -0.722631 9
      vertex -5.06446 -0.722631 0
    endloop
  endfacet
  facet normal 0.982284 0.187396 0
    outer loop
      vertex -5.20287 -0.373034 9
      vertex -5.23817 -0.188 0
      vertex -5.23817 -0.188 9
    endloop
  endfacet
  facet normal 0.982284 0.187396 0
    outer loop
      vertex -5.23817 -0.188 0
      vertex -5.20287 -0.373034 9
      vertex -5.20287 -0.373034 0
    endloop
  endfacet
  facet normal 0.998026 0.0628013 0
    outer loop
      vertex -5.23817 -0.188 9
      vertex -5.25 0 0
      vertex -5.25 0 9
    endloop
  endfacet
  facet normal 0.998026 0.0628013 0
    outer loop
      vertex -5.25 0 0
      vertex -5.23817 -0.188 9
      vertex -5.23817 -0.188 0
    endloop
  endfacet
  facet normal 0.125335 0.992115 -0
    outer loop
      vertex -3.84418 -1.49704 0
      vertex -4.03107 -1.47343 9
      vertex -3.84418 -1.49704 9
    endloop
  endfacet
  facet normal 0.125335 0.992115 0
    outer loop
      vertex -4.03107 -1.47343 9
      vertex -3.84418 -1.49704 0
      vertex -4.03107 -1.47343 0
    endloop
  endfacet
  facet normal 0.481762 0.876302 -0
    outer loop
      vertex -4.38867 -1.35724 0
      vertex -4.55374 -1.26649 9
      vertex -4.38867 -1.35724 9
    endloop
  endfacet
  facet normal 0.481762 0.876302 0
    outer loop
      vertex -4.55374 -1.26649 9
      vertex -4.38867 -1.35724 0
      vertex -4.55374 -1.26649 0
    endloop
  endfacet
  facet normal 0.587768 0.80903 -0
    outer loop
      vertex -4.55374 -1.26649 0
      vertex -4.70614 -1.15577 9
      vertex -4.55374 -1.26649 9
    endloop
  endfacet
  facet normal 0.587768 0.80903 0
    outer loop
      vertex -4.70614 -1.15577 9
      vertex -4.55374 -1.26649 0
      vertex -4.70614 -1.15577 0
    endloop
  endfacet
  facet normal -0.998026 -0.0628013 0
    outer loop
      vertex 5.25 0 0
      vertex 5.23817 0.188 9
      vertex 5.23817 0.188 0
    endloop
  endfacet
  facet normal -0.998026 -0.0628013 0
    outer loop
      vertex 5.23817 0.188 9
      vertex 5.25 0 0
      vertex 5.25 0 9
    endloop
  endfacet
  facet normal 0.998026 0.0628013 0
    outer loop
      vertex 2.26183 -0.188 9
      vertex 2.25 0 0
      vertex 2.25 0 9
    endloop
  endfacet
  facet normal 0.998026 0.0628013 0
    outer loop
      vertex 2.25 0 0
      vertex 2.26183 -0.188 9
      vertex 2.26183 -0.188 0
    endloop
  endfacet
  facet normal 0.125341 -0.992114 0
    outer loop
      vertex 3.46893 1.47343 0
      vertex 3.65581 1.49704 9
      vertex 3.46893 1.47343 9
    endloop
  endfacet
  facet normal 0.125341 -0.992114 0
    outer loop
      vertex 3.65581 1.49704 9
      vertex 3.46893 1.47343 0
      vertex 3.65581 1.49704 0
    endloop
  endfacet
  facet normal -0.125335 0.992115 0
    outer loop
      vertex 4.03107 -1.47343 0
      vertex 3.84418 -1.49704 9
      vertex 4.03107 -1.47343 9
    endloop
  endfacet
  facet normal -0.125335 0.992115 0
    outer loop
      vertex 3.84418 -1.49704 9
      vertex 4.03107 -1.47343 0
      vertex 3.84418 -1.49704 0
    endloop
  endfacet
  facet normal -0.684568 -0.728949 0
    outer loop
      vertex 4.70614 1.15577 0
      vertex 4.84345 1.02682 9
      vertex 4.70614 1.15577 9
    endloop
  endfacet
  facet normal -0.684568 -0.728949 -0
    outer loop
      vertex 4.84345 1.02682 9
      vertex 4.70614 1.15577 0
      vertex 4.84345 1.02682 0
    endloop
  endfacet
  facet normal 0.770492 -0.63745 0
    outer loop
      vertex 2.53647 0.881678 9
      vertex 2.65655 1.02682 0
      vertex 2.65655 1.02682 9
    endloop
  endfacet
  facet normal 0.770492 -0.63745 0
    outer loop
      vertex 2.65655 1.02682 0
      vertex 2.53647 0.881678 9
      vertex 2.53647 0.881678 0
    endloop
  endfacet
  facet normal 0.481762 -0.876302 0
    outer loop
      vertex 2.94626 1.26649 0
      vertex 3.11133 1.35724 9
      vertex 2.94626 1.26649 9
    endloop
  endfacet
  facet normal 0.481762 -0.876302 0
    outer loop
      vertex 3.11133 1.35724 9
      vertex 2.94626 1.26649 0
      vertex 3.11133 1.35724 0
    endloop
  endfacet
  facet normal -0.951057 0.309017 0
    outer loop
      vertex 5.14466 -0.552186 0
      vertex 5.20287 -0.373034 9
      vertex 5.20287 -0.373034 0
    endloop
  endfacet
  facet normal -0.951057 0.309017 0
    outer loop
      vertex 5.20287 -0.373034 9
      vertex 5.14466 -0.552186 0
      vertex 5.14466 -0.552186 9
    endloop
  endfacet
  facet normal -0.904838 -0.425756 0
    outer loop
      vertex 5.14466 0.552186 0
      vertex 5.06446 0.722631 9
      vertex 5.06446 0.722631 0
    endloop
  endfacet
  facet normal -0.904838 -0.425756 0
    outer loop
      vertex 5.06446 0.722631 9
      vertex 5.14466 0.552186 0
      vertex 5.14466 0.552186 9
    endloop
  endfacet
  facet normal -0.982284 -0.187396 0
    outer loop
      vertex 5.23817 0.188 0
      vertex 5.20287 0.373034 9
      vertex 5.20287 0.373034 0
    endloop
  endfacet
  facet normal -0.982284 -0.187396 0
    outer loop
      vertex 5.20287 0.373034 9
      vertex 5.23817 0.188 0
      vertex 5.23817 0.188 9
    endloop
  endfacet
  facet normal -0.248714 -0.968577 0
    outer loop
      vertex 4.03107 1.47343 0
      vertex 4.21352 1.42658 9
      vertex 4.03107 1.47343 9
    endloop
  endfacet
  facet normal -0.248714 -0.968577 -0
    outer loop
      vertex 4.21352 1.42658 9
      vertex 4.03107 1.47343 0
      vertex 4.21352 1.42658 0
    endloop
  endfacet
  facet normal -0.125335 -0.992115 0
    outer loop
      vertex 3.84418 1.49704 0
      vertex 4.03107 1.47343 9
      vertex 3.84418 1.49704 9
    endloop
  endfacet
  facet normal -0.125335 -0.992115 -0
    outer loop
      vertex 4.03107 1.47343 9
      vertex 3.84418 1.49704 0
      vertex 4.03107 1.47343 0
    endloop
  endfacet
  facet normal -0.481762 -0.876302 0
    outer loop
      vertex 4.38867 1.35724 0
      vertex 4.55374 1.26649 9
      vertex 4.38867 1.35724 9
    endloop
  endfacet
  facet normal -0.481762 -0.876302 -0
    outer loop
      vertex 4.55374 1.26649 9
      vertex 4.38867 1.35724 0
      vertex 4.55374 1.26649 0
    endloop
  endfacet
  facet normal 0.951041 -0.309065 0
    outer loop
      vertex 2.29712 0.373034 9
      vertex 2.35534 0.552186 0
      vertex 2.35534 0.552186 9
    endloop
  endfacet
  facet normal 0.951041 -0.309065 0
    outer loop
      vertex 2.35534 0.552186 0
      vertex 2.29712 0.373034 9
      vertex 2.29712 0.373034 0
    endloop
  endfacet
  facet normal 0.844338 -0.535811 0
    outer loop
      vertex 2.43554 0.722631 9
      vertex 2.53647 0.881678 0
      vertex 2.53647 0.881678 9
    endloop
  endfacet
  facet normal 0.844338 -0.535811 0
    outer loop
      vertex 2.53647 0.881678 0
      vertex 2.43554 0.722631 9
      vertex 2.43554 0.722631 0
    endloop
  endfacet
  facet normal 0.982294 -0.187345 0
    outer loop
      vertex 2.26183 0.188 9
      vertex 2.29712 0.373034 0
      vertex 2.29712 0.373034 9
    endloop
  endfacet
  facet normal 0.982294 -0.187345 0
    outer loop
      vertex 2.29712 0.373034 0
      vertex 2.26183 0.188 9
      vertex 2.26183 0.188 0
    endloop
  endfacet
  facet normal 0.587768 -0.80903 0
    outer loop
      vertex 2.79386 1.15577 0
      vertex 2.94626 1.26649 9
      vertex 2.79386 1.15577 9
    endloop
  endfacet
  facet normal 0.587768 -0.80903 0
    outer loop
      vertex 2.94626 1.26649 9
      vertex 2.79386 1.15577 0
      vertex 2.94626 1.26649 0
    endloop
  endfacet
  facet normal 0.248701 -0.96858 0
    outer loop
      vertex 3.28647 1.42658 0
      vertex 3.46893 1.47343 9
      vertex 3.28647 1.42658 9
    endloop
  endfacet
  facet normal 0.248701 -0.96858 0
    outer loop
      vertex 3.46893 1.47343 9
      vertex 3.28647 1.42658 0
      vertex 3.46893 1.47343 0
    endloop
  endfacet
  facet normal -0.248714 0.968577 0
    outer loop
      vertex 4.21352 -1.42658 0
      vertex 4.03107 -1.47343 9
      vertex 4.21352 -1.42658 9
    endloop
  endfacet
  facet normal -0.248714 0.968577 0
    outer loop
      vertex 4.03107 -1.47343 9
      vertex 4.21352 -1.42658 0
      vertex 4.03107 -1.47343 0
    endloop
  endfacet
  facet normal -0.481762 0.876302 0
    outer loop
      vertex 4.55374 -1.26649 0
      vertex 4.38867 -1.35724 9
      vertex 4.55374 -1.26649 9
    endloop
  endfacet
  facet normal -0.481762 0.876302 0
    outer loop
      vertex 4.38867 -1.35724 9
      vertex 4.55374 -1.26649 0
      vertex 4.38867 -1.35724 0
    endloop
  endfacet
  facet normal -0.951057 -0.309017 0
    outer loop
      vertex 5.20287 0.373034 0
      vertex 5.14466 0.552186 9
      vertex 5.14466 0.552186 0
    endloop
  endfacet
  facet normal -0.951057 -0.309017 0
    outer loop
      vertex 5.14466 0.552186 9
      vertex 5.20287 0.373034 0
      vertex 5.20287 0.373034 9
    endloop
  endfacet
  facet normal -0.770518 -0.637418 0
    outer loop
      vertex 4.96352 0.881678 0
      vertex 4.84345 1.02682 9
      vertex 4.84345 1.02682 0
    endloop
  endfacet
  facet normal -0.770518 -0.637418 0
    outer loop
      vertex 4.84345 1.02682 9
      vertex 4.96352 0.881678 0
      vertex 4.96352 0.881678 9
    endloop
  endfacet
  facet normal -0.844314 -0.535848 0
    outer loop
      vertex 5.06446 0.722631 0
      vertex 4.96352 0.881678 9
      vertex 4.96352 0.881678 0
    endloop
  endfacet
  facet normal -0.844314 -0.535848 0
    outer loop
      vertex 4.96352 0.881678 9
      vertex 5.06446 0.722631 0
      vertex 5.06446 0.722631 9
    endloop
  endfacet
  facet normal 0 -1 0
    outer loop
      vertex 3.65581 1.49704 0
      vertex 3.84418 1.49704 9
      vertex 3.65581 1.49704 9
    endloop
  endfacet
  facet normal 0 -1 -0
    outer loop
      vertex 3.84418 1.49704 9
      vertex 3.65581 1.49704 0
      vertex 3.84418 1.49704 0
    endloop
  endfacet
  facet normal -0.368093 -0.929789 0
    outer loop
      vertex 4.21352 1.42658 0
      vertex 4.38867 1.35724 9
      vertex 4.21352 1.42658 9
    endloop
  endfacet
  facet normal -0.368093 -0.929789 -0
    outer loop
      vertex 4.38867 1.35724 9
      vertex 4.21352 1.42658 0
      vertex 4.38867 1.35724 0
    endloop
  endfacet
  facet normal -0.587768 -0.80903 0
    outer loop
      vertex 4.55374 1.26649 0
      vertex 4.70614 1.15577 9
      vertex 4.55374 1.26649 9
    endloop
  endfacet
  facet normal -0.587768 -0.80903 -0
    outer loop
      vertex 4.70614 1.15577 9
      vertex 4.55374 1.26649 0
      vertex 4.70614 1.15577 0
    endloop
  endfacet
  facet normal 0.904838 -0.425756 0
    outer loop
      vertex 2.35534 0.552186 9
      vertex 2.43554 0.722631 0
      vertex 2.43554 0.722631 9
    endloop
  endfacet
  facet normal 0.904838 -0.425756 0
    outer loop
      vertex 2.43554 0.722631 0
      vertex 2.35534 0.552186 9
      vertex 2.35534 0.552186 0
    endloop
  endfacet
  facet normal 0.998026 -0.0628013 0
    outer loop
      vertex 2.25 0 9
      vertex 2.26183 0.188 0
      vertex 2.26183 0.188 9
    endloop
  endfacet
  facet normal 0.998026 -0.0628013 0
    outer loop
      vertex 2.26183 0.188 0
      vertex 2.25 0 9
      vertex 2.25 0 0
    endloop
  endfacet
  facet normal 0.684568 -0.728949 0
    outer loop
      vertex 2.65655 1.02682 0
      vertex 2.79386 1.15577 9
      vertex 2.65655 1.02682 9
    endloop
  endfacet
  facet normal 0.684568 -0.728949 0
    outer loop
      vertex 2.79386 1.15577 9
      vertex 2.65655 1.02682 0
      vertex 2.79386 1.15577 0
    endloop
  endfacet
  facet normal 0.368112 -0.929782 0
    outer loop
      vertex 3.11133 1.35724 0
      vertex 3.28647 1.42658 9
      vertex 3.11133 1.35724 9
    endloop
  endfacet
  facet normal 0.368112 -0.929782 0
    outer loop
      vertex 3.28647 1.42658 9
      vertex 3.11133 1.35724 0
      vertex 3.28647 1.42658 0
    endloop
  endfacet
  facet normal -0.998026 0.0628013 0
    outer loop
      vertex 5.23817 -0.188 0
      vertex 5.25 0 9
      vertex 5.25 0 0
    endloop
  endfacet
  facet normal -0.998026 0.0628013 0
    outer loop
      vertex 5.25 0 9
      vertex 5.23817 -0.188 0
      vertex 5.23817 -0.188 9
    endloop
  endfacet
  facet normal -0.844314 0.535848 0
    outer loop
      vertex 4.96352 -0.881678 0
      vertex 5.06446 -0.722631 9
      vertex 5.06446 -0.722631 0
    endloop
  endfacet
  facet normal -0.844314 0.535848 0
    outer loop
      vertex 5.06446 -0.722631 9
      vertex 4.96352 -0.881678 0
      vertex 4.96352 -0.881678 9
    endloop
  endfacet
  facet normal -0.982284 0.187396 0
    outer loop
      vertex 5.20287 -0.373034 0
      vertex 5.23817 -0.188 9
      vertex 5.23817 -0.188 0
    endloop
  endfacet
  facet normal -0.982284 0.187396 0
    outer loop
      vertex 5.23817 -0.188 9
      vertex 5.20287 -0.373034 0
      vertex 5.20287 -0.373034 9
    endloop
  endfacet
  facet normal 0.587768 0.80903 -0
    outer loop
      vertex 2.94626 -1.26649 0
      vertex 2.79386 -1.15577 9
      vertex 2.94626 -1.26649 9
    endloop
  endfacet
  facet normal 0.587768 0.80903 0
    outer loop
      vertex 2.79386 -1.15577 9
      vertex 2.94626 -1.26649 0
      vertex 2.79386 -1.15577 0
    endloop
  endfacet
  facet normal 0.844338 0.535811 0
    outer loop
      vertex 2.53647 -0.881678 9
      vertex 2.43554 -0.722631 0
      vertex 2.43554 -0.722631 9
    endloop
  endfacet
  facet normal 0.844338 0.535811 0
    outer loop
      vertex 2.43554 -0.722631 0
      vertex 2.53647 -0.881678 9
      vertex 2.53647 -0.881678 0
    endloop
  endfacet
  facet normal 0.684568 0.728949 -0
    outer loop
      vertex 2.79386 -1.15577 0
      vertex 2.65655 -1.02682 9
      vertex 2.79386 -1.15577 9
    endloop
  endfacet
  facet normal 0.684568 0.728949 0
    outer loop
      vertex 2.65655 -1.02682 9
      vertex 2.79386 -1.15577 0
      vertex 2.65655 -1.02682 0
    endloop
  endfacet
  facet normal -0.587768 0.80903 0
    outer loop
      vertex 4.70614 -1.15577 0
      vertex 4.55374 -1.26649 9
      vertex 4.70614 -1.15577 9
    endloop
  endfacet
  facet normal -0.587768 0.80903 0
    outer loop
      vertex 4.55374 -1.26649 9
      vertex 4.70614 -1.15577 0
      vertex 4.55374 -1.26649 0
    endloop
  endfacet
  facet normal -0.904838 0.425756 0
    outer loop
      vertex 5.06446 -0.722631 0
      vertex 5.14466 -0.552186 9
      vertex 5.14466 -0.552186 0
    endloop
  endfacet
  facet normal -0.904838 0.425756 0
    outer loop
      vertex 5.14466 -0.552186 9
      vertex 5.06446 -0.722631 0
      vertex 5.06446 -0.722631 9
    endloop
  endfacet
  facet normal 0.951041 0.309065 0
    outer loop
      vertex 2.35534 -0.552186 9
      vertex 2.29712 -0.373034 0
      vertex 2.29712 -0.373034 9
    endloop
  endfacet
  facet normal 0.951041 0.309065 0
    outer loop
      vertex 2.29712 -0.373034 0
      vertex 2.35534 -0.552186 9
      vertex 2.35534 -0.552186 0
    endloop
  endfacet
  facet normal 0.982294 0.187345 0
    outer loop
      vertex 2.29712 -0.373034 9
      vertex 2.26183 -0.188 0
      vertex 2.26183 -0.188 9
    endloop
  endfacet
  facet normal 0.982294 0.187345 0
    outer loop
      vertex 2.26183 -0.188 0
      vertex 2.29712 -0.373034 9
      vertex 2.29712 -0.373034 0
    endloop
  endfacet
  facet normal 0.904838 0.425756 0
    outer loop
      vertex 2.43554 -0.722631 9
      vertex 2.35534 -0.552186 0
      vertex 2.35534 -0.552186 9
    endloop
  endfacet
  facet normal 0.904838 0.425756 0
    outer loop
      vertex 2.35534 -0.552186 0
      vertex 2.43554 -0.722631 9
      vertex 2.43554 -0.722631 0
    endloop
  endfacet
  facet normal -0.684568 0.728949 0
    outer loop
      vertex 4.84345 -1.02682 0
      vertex 4.70614 -1.15577 9
      vertex 4.84345 -1.02682 9
    endloop
  endfacet
  facet normal -0.684568 0.728949 0
    outer loop
      vertex 4.70614 -1.15577 9
      vertex 4.84345 -1.02682 0
      vertex 4.70614 -1.15577 0
    endloop
  endfacet
  facet normal -0.368093 0.929789 0
    outer loop
      vertex 4.38867 -1.35724 0
      vertex 4.21352 -1.42658 9
      vertex 4.38867 -1.35724 9
    endloop
  endfacet
  facet normal -0.368093 0.929789 0
    outer loop
      vertex 4.21352 -1.42658 9
      vertex 4.38867 -1.35724 0
      vertex 4.21352 -1.42658 0
    endloop
  endfacet
  facet normal 0 1 -0
    outer loop
      vertex 3.84418 -1.49704 0
      vertex 3.65581 -1.49704 9
      vertex 3.84418 -1.49704 9
    endloop
  endfacet
  facet normal 0 1 0
    outer loop
      vertex 3.65581 -1.49704 9
      vertex 3.84418 -1.49704 0
      vertex 3.65581 -1.49704 0
    endloop
  endfacet
  facet normal 0.248701 0.96858 -0
    outer loop
      vertex 3.46893 -1.47343 0
      vertex 3.28647 -1.42658 9
      vertex 3.46893 -1.47343 9
    endloop
  endfacet
  facet normal 0.248701 0.96858 0
    outer loop
      vertex 3.28647 -1.42658 9
      vertex 3.46893 -1.47343 0
      vertex 3.28647 -1.42658 0
    endloop
  endfacet
  facet normal 0.125341 0.992114 -0
    outer loop
      vertex 3.65581 -1.49704 0
      vertex 3.46893 -1.47343 9
      vertex 3.65581 -1.49704 9
    endloop
  endfacet
  facet normal 0.125341 0.992114 0
    outer loop
      vertex 3.46893 -1.47343 9
      vertex 3.65581 -1.49704 0
      vertex 3.46893 -1.47343 0
    endloop
  endfacet
  facet normal 0.770492 0.63745 0
    outer loop
      vertex 2.65655 -1.02682 9
      vertex 2.53647 -0.881678 0
      vertex 2.53647 -0.881678 9
    endloop
  endfacet
  facet normal 0.770492 0.63745 0
    outer loop
      vertex 2.53647 -0.881678 0
      vertex 2.65655 -1.02682 9
      vertex 2.65655 -1.02682 0
    endloop
  endfacet
  facet normal -0.770518 0.637418 0
    outer loop
      vertex 4.84345 -1.02682 0
      vertex 4.96352 -0.881678 9
      vertex 4.96352 -0.881678 0
    endloop
  endfacet
  facet normal -0.770518 0.637418 0
    outer loop
      vertex 4.96352 -0.881678 9
      vertex 4.84345 -1.02682 0
      vertex 4.84345 -1.02682 9
    endloop
  endfacet
  facet normal 0.368112 0.929782 -0
    outer loop
      vertex 3.28647 -1.42658 0
      vertex 3.11133 -1.35724 9
      vertex 3.28647 -1.42658 9
    endloop
  endfacet
  facet normal 0.368112 0.929782 0
    outer loop
      vertex 3.11133 -1.35724 9
      vertex 3.28647 -1.42658 0
      vertex 3.11133 -1.35724 0
    endloop
  endfacet
  facet normal 0.481762 0.876302 -0
    outer loop
      vertex 3.11133 -1.35724 0
      vertex 2.94626 -1.26649 9
      vertex 3.11133 -1.35724 9
    endloop
  endfacet
  facet normal 0.481762 0.876302 0
    outer loop
      vertex 2.94626 -1.26649 9
      vertex 3.11133 -1.35724 0
      vertex 2.94626 -1.26649 0
    endloop
  endfacet
  facet normal -1 0 0
    outer loop
      vertex -7.25 -1 0
      vertex -7.25 1 9
      vertex -7.25 1 0
    endloop
  endfacet
  facet normal -1 -0 0
    outer loop
      vertex -7.25 1 9
      vertex -7.25 -1 0
      vertex -7.25 -1 9
    endloop
  endfacet
  facet normal -0.998027 -0.0627808 0
    outer loop
      vertex -7.23029 -1.31333 0
      vertex -7.25 -1 9
      vertex -7.25 -1 0
    endloop
  endfacet
  facet normal -0.998027 -0.0627808 0
    outer loop
      vertex -7.25 -1 9
      vertex -7.23029 -1.31333 0
      vertex -7.23029 -1.31333 9
    endloop
  endfacet
  facet normal -0.998027 0.0627808 0
    outer loop
      vertex -7.25 1 0
      vertex -7.23029 1.31333 9
      vertex -7.23029 1.31333 0
    endloop
  endfacet
  facet normal -0.998027 0.0627808 0
    outer loop
      vertex -7.23029 1.31333 9
      vertex -7.25 1 0
      vertex -7.25 1 9
    endloop
  endfacet
  facet normal 0 0 1
    outer loop
      vertex 5.14466 0.552186 9
      vertex 7.25 1 9
      vertex 7.23029 1.31333 9
    endloop
  endfacet
  facet normal 0 0 1
    outer loop
      vertex 7.25 1 9
      vertex 5.25 0 9
      vertex 7.25 -1 9
    endloop
  endfacet
  facet normal 0 0 1
    outer loop
      vertex 5.06446 0.722631 9
      vertex 7.23029 1.31333 9
      vertex 7.17146 1.62172 9
    endloop
  endfacet
  facet normal -0 0 1
    outer loop
      vertex 5.23817 -0.188 9
      vertex 7.25 -1 9
      vertex 5.25 0 9
    endloop
  endfacet
  facet normal 0 0 1
    outer loop
      vertex 5.06446 0.722631 9
      vertex 7.17146 1.62172 9
      vertex 7.07444 1.92031 9
    endloop
  endfacet
  facet normal -0 0 1
    outer loop
      vertex 5.20287 -0.373034 9
      vertex 7.25 -1 9
      vertex 5.23817 -0.188 9
    endloop
  endfacet
  facet normal 0 0 1
    outer loop
      vertex 4.96352 0.881678 9
      vertex 7.07444 1.92031 9
      vertex 6.94077 2.20438 9
    endloop
  endfacet
  facet normal -0 0 1
    outer loop
      vertex 5.14466 -0.552186 9
      vertex 7.25 -1 9
      vertex 5.20287 -0.373034 9
    endloop
  endfacet
  facet normal 0 0 1
    outer loop
      vertex 4.96352 0.881678 9
      vertex 6.94077 2.20438 9
      vertex 6.77254 2.46946 9
    endloop
  endfacet
  facet normal 0 0 1
    outer loop
      vertex 7.25 -1 9
      vertex 5.14466 -0.552186 9
      vertex 7.23029 -1.31333 9
    endloop
  endfacet
  facet normal 0 0 1
    outer loop
      vertex 4.84345 1.02682 9
      vertex 6.77254 2.46946 9
      vertex 6.57242 2.71137 9
    endloop
  endfacet
  facet normal -0 0 1
    outer loop
      vertex 5.06446 -0.722631 9
      vertex 7.23029 -1.31333 9
      vertex 5.14466 -0.552186 9
    endloop
  endfacet
  facet normal 0 0 1
    outer loop
      vertex 4.84345 1.02682 9
      vertex 6.57242 2.71137 9
      vertex 6.34356 2.92628 9
    endloop
  endfacet
  facet normal 0 0 1
    outer loop
      vertex 7.23029 -1.31333 9
      vertex 5.06446 -0.722631 9
      vertex 7.17146 -1.62172 9
    endloop
  endfacet
  facet normal 0 0 1
    outer loop
      vertex 4.70614 1.15577 9
      vertex 6.34356 2.92628 9
      vertex 6.08957 3.11082 9
    endloop
  endfacet
  facet normal 0 0 1
    outer loop
      vertex 7.17146 -1.62172 9
      vertex 5.06446 -0.722631 9
      vertex 7.07444 -1.92031 9
    endloop
  endfacet
  facet normal 0 0 1
    outer loop
      vertex 4.70614 1.15577 9
      vertex 6.08957 3.11082 9
      vertex 5.81445 3.26207 9
    endloop
  endfacet
  facet normal -0 0 1
    outer loop
      vertex 4.96352 -0.881678 9
      vertex 7.07444 -1.92031 9
      vertex 5.06446 -0.722631 9
    endloop
  endfacet
  facet normal 0 0 1
    outer loop
      vertex 4.55374 1.26649 9
      vertex 5.81445 3.26207 9
      vertex 5.52254 3.37764 9
    endloop
  endfacet
  facet normal 0 0 1
    outer loop
      vertex 7.07444 -1.92031 9
      vertex 4.96352 -0.881678 9
      vertex 6.94077 -2.20438 9
    endloop
  endfacet
  facet normal 0 0 1
    outer loop
      vertex 6.94077 -2.20438 9
      vertex 4.96352 -0.881678 9
      vertex 6.77254 -2.46946 9
    endloop
  endfacet
  facet normal 0 0 1
    outer loop
      vertex 7.25 1 9
      vertex 5.23817 0.188 9
      vertex 5.25 0 9
    endloop
  endfacet
  facet normal 0 0 1
    outer loop
      vertex 4.55374 1.26649 9
      vertex 5.52254 3.37764 9
      vertex 5.21845 3.45572 9
    endloop
  endfacet
  facet normal 0 0 1
    outer loop
      vertex 7.25 1 9
      vertex 5.20287 0.373034 9
      vertex 5.23817 0.188 9
    endloop
  endfacet
  facet normal 0 0 1
    outer loop
      vertex 7.25 1 9
      vertex 5.14466 0.552186 9
      vertex 5.20287 0.373034 9
    endloop
  endfacet
  facet normal 0 0 1
    outer loop
      vertex 7.23029 1.31333 9
      vertex 5.06446 0.722631 9
      vertex 5.14466 0.552186 9
    endloop
  endfacet
  facet normal 0 0 1
    outer loop
      vertex 7.07444 1.92031 9
      vertex 4.96352 0.881678 9
      vertex 5.06446 0.722631 9
    endloop
  endfacet
  facet normal 0 0 1
    outer loop
      vertex 4.38867 1.35724 9
      vertex 5.21845 3.45572 9
      vertex 4.90698 3.49507 9
    endloop
  endfacet
  facet normal 0 0 1
    outer loop
      vertex 6.77254 2.46946 9
      vertex 4.84345 1.02682 9
      vertex 4.96352 0.881678 9
    endloop
  endfacet
  facet normal 0 0 1
    outer loop
      vertex 6.34356 2.92628 9
      vertex 4.70614 1.15577 9
      vertex 4.84345 1.02682 9
    endloop
  endfacet
  facet normal 0 0 1
    outer loop
      vertex 5.81445 3.26207 9
      vertex 4.55374 1.26649 9
      vertex 4.70614 1.15577 9
    endloop
  endfacet
  facet normal 0 0 1
    outer loop
      vertex 5.21845 3.45572 9
      vertex 4.38867 1.35724 9
      vertex 4.55374 1.26649 9
    endloop
  endfacet
  facet normal 0 0 1
    outer loop
      vertex 4.90698 3.49507 9
      vertex 4.21352 1.42658 9
      vertex 4.38867 1.35724 9
    endloop
  endfacet
  facet normal 0 0 1
    outer loop
      vertex 4.90698 3.49507 9
      vertex 4.03107 1.47343 9
      vertex 4.21352 1.42658 9
    endloop
  endfacet
  facet normal 0 0 1
    outer loop
      vertex 4.90698 3.49507 9
      vertex 3.84418 1.49704 9
      vertex 4.03107 1.47343 9
    endloop
  endfacet
  facet normal 0 0 1
    outer loop
      vertex 4.90698 3.49507 9
      vertex 3.65581 1.49704 9
      vertex 3.84418 1.49704 9
    endloop
  endfacet
  facet normal 0 0 1
    outer loop
      vertex 4.90698 3.49507 9
      vertex 3.46893 1.47343 9
      vertex 3.65581 1.49704 9
    endloop
  endfacet
  facet normal 0 0 1
    outer loop
      vertex 4.90698 3.49507 9
      vertex 3.28647 1.42658 9
      vertex 3.46893 1.47343 9
    endloop
  endfacet
  facet normal 0 0 1
    outer loop
      vertex 4.90698 3.49507 9
      vertex 3.11133 1.35724 9
      vertex 3.28647 1.42658 9
    endloop
  endfacet
  facet normal 0 0 1
    outer loop
      vertex 4.90698 3.49507 9
      vertex 2.94626 1.26649 9
      vertex 3.11133 1.35724 9
    endloop
  endfacet
  facet normal 0 0 1
    outer loop
      vertex -2.94626 1.26649 9
      vertex 2.94626 1.26649 9
      vertex 4.90698 3.49507 9
    endloop
  endfacet
  facet normal 0 0 1
    outer loop
      vertex 2.94626 1.26649 9
      vertex -2.94626 1.26649 9
      vertex 2.79386 1.15577 9
    endloop
  endfacet
  facet normal 0 0 1
    outer loop
      vertex 2.26183 0.188 9
      vertex -2.25 0 9
      vertex 2.25 0 9
    endloop
  endfacet
  facet normal 0 0 1
    outer loop
      vertex -2.26183 0.188 9
      vertex 2.26183 0.188 9
      vertex 2.29712 0.373034 9
    endloop
  endfacet
  facet normal 0 0 1
    outer loop
      vertex -2.29712 0.373034 9
      vertex 2.29712 0.373034 9
      vertex 2.35534 0.552186 9
    endloop
  endfacet
  facet normal 0 0 1
    outer loop
      vertex -2.35534 0.552186 9
      vertex 2.35534 0.552186 9
      vertex 2.43554 0.722631 9
    endloop
  endfacet
  facet normal 0 0 1
    outer loop
      vertex -2.43554 0.722631 9
      vertex 2.43554 0.722631 9
      vertex 2.53647 0.881678 9
    endloop
  endfacet
  facet normal 0 0 1
    outer loop
      vertex -2.53647 0.881678 9
      vertex 2.53647 0.881678 9
      vertex 2.65655 1.02682 9
    endloop
  endfacet
  facet normal 0 -0 1
    outer loop
      vertex -2.79386 1.15577 9
      vertex 2.79386 1.15577 9
      vertex -2.94626 1.26649 9
    endloop
  endfacet
  facet normal 0 0 1
    outer loop
      vertex 2.26183 0.188 9
      vertex -2.26183 0.188 9
      vertex -2.25 0 9
    endloop
  endfacet
  facet normal 0 0 1
    outer loop
      vertex 2.29712 0.373034 9
      vertex -2.29712 0.373034 9
      vertex -2.26183 0.188 9
    endloop
  endfacet
  facet normal 0 0 1
    outer loop
      vertex 2.35534 0.552186 9
      vertex -2.35534 0.552186 9
      vertex -2.29712 0.373034 9
    endloop
  endfacet
  facet normal 0 0 1
    outer loop
      vertex 2.43554 0.722631 9
      vertex -2.43554 0.722631 9
      vertex -2.35534 0.552186 9
    endloop
  endfacet
  facet normal 0 0 1
    outer loop
      vertex 2.53647 0.881678 9
      vertex -2.53647 0.881678 9
      vertex -2.43554 0.722631 9
    endloop
  endfacet
  facet normal 0 0 1
    outer loop
      vertex 2.65655 1.02682 9
      vertex -2.65655 1.02682 9
      vertex -2.53647 0.881678 9
    endloop
  endfacet
  facet normal 0 0 1
    outer loop
      vertex 2.65655 1.02682 9
      vertex -2.79386 1.15577 9
      vertex -2.65655 1.02682 9
    endloop
  endfacet
  facet normal 0 0 1
    outer loop
      vertex 2.79386 1.15577 9
      vertex -2.79386 1.15577 9
      vertex 2.65655 1.02682 9
    endloop
  endfacet
  facet normal -0 0 1
    outer loop
      vertex -4.90698 3.49507 9
      vertex -2.94626 1.26649 9
      vertex 4.90698 3.49507 9
    endloop
  endfacet
  facet normal 0 0 1
    outer loop
      vertex -2.94626 1.26649 9
      vertex -4.90698 3.49507 9
      vertex -3.11133 1.35724 9
    endloop
  endfacet
  facet normal 0 0 1
    outer loop
      vertex -3.11133 1.35724 9
      vertex -4.90698 3.49507 9
      vertex -3.28647 1.42658 9
    endloop
  endfacet
  facet normal 0 0 1
    outer loop
      vertex -3.28647 1.42658 9
      vertex -4.90698 3.49507 9
      vertex -3.46893 1.47343 9
    endloop
  endfacet
  facet normal 0 0 1
    outer loop
      vertex -3.46893 1.47343 9
      vertex -4.90698 3.49507 9
      vertex -3.65581 1.49704 9
    endloop
  endfacet
  facet normal 0 0 1
    outer loop
      vertex -3.65581 1.49704 9
      vertex -4.90698 3.49507 9
      vertex -3.84418 1.49704 9
    endloop
  endfacet
  facet normal 0 0 1
    outer loop
      vertex -3.84418 1.49704 9
      vertex -4.90698 3.49507 9
      vertex -4.03107 1.47343 9
    endloop
  endfacet
  facet normal 0 0 1
    outer loop
      vertex -4.90698 3.49507 9
      vertex -4.21352 1.42658 9
      vertex -4.03107 1.47343 9
    endloop
  endfacet
  facet normal 0 0 1
    outer loop
      vertex -4.90698 3.49507 9
      vertex -4.38867 1.35724 9
      vertex -4.21352 1.42658 9
    endloop
  endfacet
  facet normal -0 0 1
    outer loop
      vertex -5.21845 3.45572 9
      vertex -4.38867 1.35724 9
      vertex -4.90698 3.49507 9
    endloop
  endfacet
  facet normal 0 0 1
    outer loop
      vertex -4.38867 1.35724 9
      vertex -5.21845 3.45572 9
      vertex -4.55374 1.26649 9
    endloop
  endfacet
  facet normal -0 0 1
    outer loop
      vertex -5.52254 3.37764 9
      vertex -4.55374 1.26649 9
      vertex -5.21845 3.45572 9
    endloop
  endfacet
  facet normal -0 0 1
    outer loop
      vertex -5.81445 3.26207 9
      vertex -4.55374 1.26649 9
      vertex -5.52254 3.37764 9
    endloop
  endfacet
  facet normal 0 0 1
    outer loop
      vertex -4.55374 1.26649 9
      vertex -5.81445 3.26207 9
      vertex -4.70614 1.15577 9
    endloop
  endfacet
  facet normal -0 0 1
    outer loop
      vertex -6.08957 3.11082 9
      vertex -4.70614 1.15577 9
      vertex -5.81445 3.26207 9
    endloop
  endfacet
  facet normal -0 0 1
    outer loop
      vertex -6.34356 2.92628 9
      vertex -4.70614 1.15577 9
      vertex -6.08957 3.11082 9
    endloop
  endfacet
  facet normal 0 0 1
    outer loop
      vertex -4.70614 1.15577 9
      vertex -6.34356 2.92628 9
      vertex -4.84345 1.02682 9
    endloop
  endfacet
  facet normal -0 0 1
    outer loop
      vertex -6.57242 2.71137 9
      vertex -4.84345 1.02682 9
      vertex -6.34356 2.92628 9
    endloop
  endfacet
  facet normal -0 0 1
    outer loop
      vertex -6.77254 2.46946 9
      vertex -4.84345 1.02682 9
      vertex -6.57242 2.71137 9
    endloop
  endfacet
  facet normal 0 0 1
    outer loop
      vertex -4.84345 1.02682 9
      vertex -6.77254 2.46946 9
      vertex -4.96352 0.881678 9
    endloop
  endfacet
  facet normal -0 0 1
    outer loop
      vertex 4.84345 -1.02682 9
      vertex 6.77254 -2.46946 9
      vertex 4.96352 -0.881678 9
    endloop
  endfacet
  facet normal 0 0 1
    outer loop
      vertex 6.77254 -2.46946 9
      vertex 4.84345 -1.02682 9
      vertex 6.57242 -2.71137 9
    endloop
  endfacet
  facet normal 0 0 1
    outer loop
      vertex 6.57242 -2.71137 9
      vertex 4.84345 -1.02682 9
      vertex 6.34356 -2.92628 9
    endloop
  endfacet
  facet normal -0 0 1
    outer loop
      vertex 4.70614 -1.15577 9
      vertex 6.34356 -2.92628 9
      vertex 4.84345 -1.02682 9
    endloop
  endfacet
  facet normal 0 0 1
    outer loop
      vertex 6.34356 -2.92628 9
      vertex 4.70614 -1.15577 9
      vertex 6.08957 -3.11082 9
    endloop
  endfacet
  facet normal 0 0 1
    outer loop
      vertex 6.08957 -3.11082 9
      vertex 4.70614 -1.15577 9
      vertex 5.81445 -3.26207 9
    endloop
  endfacet
  facet normal -0 0 1
    outer loop
      vertex 4.55374 -1.26649 9
      vertex 5.81445 -3.26207 9
      vertex 4.70614 -1.15577 9
    endloop
  endfacet
  facet normal 0 0 1
    outer loop
      vertex 5.81445 -3.26207 9
      vertex 4.55374 -1.26649 9
      vertex 5.52254 -3.37764 9
    endloop
  endfacet
  facet normal 0 0 1
    outer loop
      vertex 5.52254 -3.37764 9
      vertex 4.55374 -1.26649 9
      vertex 5.21845 -3.45572 9
    endloop
  endfacet
  facet normal -0 0 1
    outer loop
      vertex 4.38867 -1.35724 9
      vertex 5.21845 -3.45572 9
      vertex 4.55374 -1.26649 9
    endloop
  endfacet
  facet normal 0 0 1
    outer loop
      vertex 5.21845 -3.45572 9
      vertex 4.38867 -1.35724 9
      vertex 4.90698 -3.49507 9
    endloop
  endfacet
  facet normal -0 0 1
    outer loop
      vertex 4.21352 -1.42658 9
      vertex 4.90698 -3.49507 9
      vertex 4.38867 -1.35724 9
    endloop
  endfacet
  facet normal -0 0 1
    outer loop
      vertex 4.03107 -1.47343 9
      vertex 4.90698 -3.49507 9
      vertex 4.21352 -1.42658 9
    endloop
  endfacet
  facet normal -0 0 1
    outer loop
      vertex 3.84418 -1.49704 9
      vertex 4.90698 -3.49507 9
      vertex 4.03107 -1.47343 9
    endloop
  endfacet
  facet normal -0 0 1
    outer loop
      vertex 3.65581 -1.49704 9
      vertex 4.90698 -3.49507 9
      vertex 3.84418 -1.49704 9
    endloop
  endfacet
  facet normal 0 0 1
    outer loop
      vertex 3.46893 -1.47343 9
      vertex 4.90698 -3.49507 9
      vertex 3.65581 -1.49704 9
    endloop
  endfacet
  facet normal 0 0 1
    outer loop
      vertex 3.28647 -1.42658 9
      vertex 4.90698 -3.49507 9
      vertex 3.46893 -1.47343 9
    endloop
  endfacet
  facet normal 0 0 1
    outer loop
      vertex 3.11133 -1.35724 9
      vertex 4.90698 -3.49507 9
      vertex 3.28647 -1.42658 9
    endloop
  endfacet
  facet normal 0 0 1
    outer loop
      vertex 2.94626 -1.26649 9
      vertex 4.90698 -3.49507 9
      vertex 3.11133 -1.35724 9
    endloop
  endfacet
  facet normal 0 0 1
    outer loop
      vertex -2.94626 -1.26649 9
      vertex 2.94626 -1.26649 9
      vertex 2.79386 -1.15577 9
    endloop
  endfacet
  facet normal 0 0 1
    outer loop
      vertex -2.79386 -1.15577 9
      vertex 2.79386 -1.15577 9
      vertex 2.65655 -1.02682 9
    endloop
  endfacet
  facet normal -0 0 1
    outer loop
      vertex -2.25 0 9
      vertex 2.26183 -0.188 9
      vertex 2.25 0 9
    endloop
  endfacet
  facet normal 0 0 1
    outer loop
      vertex -2.26183 -0.188 9
      vertex 2.26183 -0.188 9
      vertex -2.25 0 9
    endloop
  endfacet
  facet normal 0 0 1
    outer loop
      vertex 2.26183 -0.188 9
      vertex -2.26183 -0.188 9
      vertex 2.29712 -0.373034 9
    endloop
  endfacet
  facet normal 0 0 1
    outer loop
      vertex -2.29712 -0.373034 9
      vertex 2.29712 -0.373034 9
      vertex -2.26183 -0.188 9
    endloop
  endfacet
  facet normal 0 0 1
    outer loop
      vertex 2.29712 -0.373034 9
      vertex -2.29712 -0.373034 9
      vertex 2.35534 -0.552186 9
    endloop
  endfacet
  facet normal 0 0 1
    outer loop
      vertex -2.35534 -0.552186 9
      vertex 2.35534 -0.552186 9
      vertex -2.29712 -0.373034 9
    endloop
  endfacet
  facet normal 0 0 1
    outer loop
      vertex 2.35534 -0.552186 9
      vertex -2.35534 -0.552186 9
      vertex 2.43554 -0.722631 9
    endloop
  endfacet
  facet normal 0 0 1
    outer loop
      vertex -2.43554 -0.722631 9
      vertex 2.43554 -0.722631 9
      vertex -2.35534 -0.552186 9
    endloop
  endfacet
  facet normal 0 0 1
    outer loop
      vertex 2.43554 -0.722631 9
      vertex -2.43554 -0.722631 9
      vertex 2.53647 -0.881678 9
    endloop
  endfacet
  facet normal 0 0 1
    outer loop
      vertex -2.53647 -0.881678 9
      vertex 2.53647 -0.881678 9
      vertex -2.43554 -0.722631 9
    endloop
  endfacet
  facet normal 0 0 1
    outer loop
      vertex 2.53647 -0.881678 9
      vertex -2.53647 -0.881678 9
      vertex 2.65655 -1.02682 9
    endloop
  endfacet
  facet normal 0 0 1
    outer loop
      vertex -2.65655 -1.02682 9
      vertex 2.65655 -1.02682 9
      vertex -2.53647 -0.881678 9
    endloop
  endfacet
  facet normal 0 0 1
    outer loop
      vertex -2.79386 -1.15577 9
      vertex 2.65655 -1.02682 9
      vertex -2.65655 -1.02682 9
    endloop
  endfacet
  facet normal 0 0 1
    outer loop
      vertex 2.79386 -1.15577 9
      vertex -2.79386 -1.15577 9
      vertex -2.94626 -1.26649 9
    endloop
  endfacet
  facet normal 0 0 1
    outer loop
      vertex 2.94626 -1.26649 9
      vertex -2.94626 -1.26649 9
      vertex 4.90698 -3.49507 9
    endloop
  endfacet
  facet normal 0 0 1
    outer loop
      vertex -4.90698 -3.49507 9
      vertex -2.94626 -1.26649 9
      vertex -3.11133 -1.35724 9
    endloop
  endfacet
  facet normal 0 0 1
    outer loop
      vertex -4.90698 -3.49507 9
      vertex -3.11133 -1.35724 9
      vertex -3.28647 -1.42658 9
    endloop
  endfacet
  facet normal 0 0 1
    outer loop
      vertex -4.90698 -3.49507 9
      vertex -3.28647 -1.42658 9
      vertex -3.46893 -1.47343 9
    endloop
  endfacet
  facet normal 0 0 1
    outer loop
      vertex -4.90698 -3.49507 9
      vertex -3.46893 -1.47343 9
      vertex -3.65581 -1.49704 9
    endloop
  endfacet
  facet normal 0 0 1
    outer loop
      vertex -4.90698 -3.49507 9
      vertex -3.65581 -1.49704 9
      vertex -3.84418 -1.49704 9
    endloop
  endfacet
  facet normal 0 0 1
    outer loop
      vertex -4.90698 -3.49507 9
      vertex -3.84418 -1.49704 9
      vertex -4.03107 -1.47343 9
    endloop
  endfacet
  facet normal 0 0 1
    outer loop
      vertex -2.94626 -1.26649 9
      vertex -4.90698 -3.49507 9
      vertex 4.90698 -3.49507 9
    endloop
  endfacet
  facet normal 0 0 1
    outer loop
      vertex -4.21352 -1.42658 9
      vertex -4.90698 -3.49507 9
      vertex -4.03107 -1.47343 9
    endloop
  endfacet
  facet normal 0 0 1
    outer loop
      vertex -4.38867 -1.35724 9
      vertex -4.90698 -3.49507 9
      vertex -4.21352 -1.42658 9
    endloop
  endfacet
  facet normal 0 0 1
    outer loop
      vertex -5.21845 -3.45572 9
      vertex -4.38867 -1.35724 9
      vertex -4.55374 -1.26649 9
    endloop
  endfacet
  facet normal 0 0 1
    outer loop
      vertex -5.81445 -3.26207 9
      vertex -4.55374 -1.26649 9
      vertex -4.70614 -1.15577 9
    endloop
  endfacet
  facet normal 0 0 1
    outer loop
      vertex -6.34356 -2.92628 9
      vertex -4.70614 -1.15577 9
      vertex -4.84345 -1.02682 9
    endloop
  endfacet
  facet normal 0 0 1
    outer loop
      vertex -6.77254 -2.46946 9
      vertex -4.84345 -1.02682 9
      vertex -4.96352 -0.881678 9
    endloop
  endfacet
  facet normal 0 0 1
    outer loop
      vertex -7.07444 -1.92031 9
      vertex -4.96352 -0.881678 9
      vertex -5.06446 -0.722631 9
    endloop
  endfacet
  facet normal 0 0 1
    outer loop
      vertex -7.23029 -1.31333 9
      vertex -5.06446 -0.722631 9
      vertex -5.14466 -0.552186 9
    endloop
  endfacet
  facet normal 0 0 1
    outer loop
      vertex -7.25 -1 9
      vertex -5.14466 -0.552186 9
      vertex -5.20287 -0.373034 9
    endloop
  endfacet
  facet normal 0 0 1
    outer loop
      vertex -4.38867 -1.35724 9
      vertex -5.21845 -3.45572 9
      vertex -4.90698 -3.49507 9
    endloop
  endfacet
  facet normal 0 0 1
    outer loop
      vertex -7.25 -1 9
      vertex -5.20287 -0.373034 9
      vertex -5.23817 -0.188 9
    endloop
  endfacet
  facet normal 0 0 1
    outer loop
      vertex -7.25 -1 9
      vertex -5.23817 -0.188 9
      vertex -5.25 0 9
    endloop
  endfacet
  facet normal -0 0 1
    outer loop
      vertex -6.94077 2.20438 9
      vertex -4.96352 0.881678 9
      vertex -6.77254 2.46946 9
    endloop
  endfacet
  facet normal 0 0 1
    outer loop
      vertex -7.25 -1 9
      vertex -5.25 0 9
      vertex -7.25 1 9
    endloop
  endfacet
  facet normal -0 0 1
    outer loop
      vertex -7.07444 1.92031 9
      vertex -4.96352 0.881678 9
      vertex -6.94077 2.20438 9
    endloop
  endfacet
  facet normal 0 0 1
    outer loop
      vertex -5.14466 -0.552186 9
      vertex -7.25 -1 9
      vertex -7.23029 -1.31333 9
    endloop
  endfacet
  facet normal 0 0 1
    outer loop
      vertex -4.96352 0.881678 9
      vertex -7.07444 1.92031 9
      vertex -5.06446 0.722631 9
    endloop
  endfacet
  facet normal 0 0 1
    outer loop
      vertex -4.55374 -1.26649 9
      vertex -5.52254 -3.37764 9
      vertex -5.21845 -3.45572 9
    endloop
  endfacet
  facet normal -0 0 1
    outer loop
      vertex -7.17146 1.62172 9
      vertex -5.06446 0.722631 9
      vertex -7.07444 1.92031 9
    endloop
  endfacet
  facet normal 0 0 1
    outer loop
      vertex -4.55374 -1.26649 9
      vertex -5.81445 -3.26207 9
      vertex -5.52254 -3.37764 9
    endloop
  endfacet
  facet normal -0 0 1
    outer loop
      vertex -7.23029 1.31333 9
      vertex -5.06446 0.722631 9
      vertex -7.17146 1.62172 9
    endloop
  endfacet
  facet normal 0 0 1
    outer loop
      vertex -4.70614 -1.15577 9
      vertex -6.08957 -3.11082 9
      vertex -5.81445 -3.26207 9
    endloop
  endfacet
  facet normal 0 0 1
    outer loop
      vertex -5.06446 0.722631 9
      vertex -7.23029 1.31333 9
      vertex -5.14466 0.552186 9
    endloop
  endfacet
  facet normal 0 0 1
    outer loop
      vertex -4.70614 -1.15577 9
      vertex -6.34356 -2.92628 9
      vertex -6.08957 -3.11082 9
    endloop
  endfacet
  facet normal -0 0 1
    outer loop
      vertex -7.25 1 9
      vertex -5.14466 0.552186 9
      vertex -7.23029 1.31333 9
    endloop
  endfacet
  facet normal 0 0 1
    outer loop
      vertex -4.84345 -1.02682 9
      vertex -6.57242 -2.71137 9
      vertex -6.34356 -2.92628 9
    endloop
  endfacet
  facet normal 0 0 1
    outer loop
      vertex -5.14466 0.552186 9
      vertex -7.25 1 9
      vertex -5.20287 0.373034 9
    endloop
  endfacet
  facet normal 0 0 1
    outer loop
      vertex -4.84345 -1.02682 9
      vertex -6.77254 -2.46946 9
      vertex -6.57242 -2.71137 9
    endloop
  endfacet
  facet normal 0 0 1
    outer loop
      vertex -5.20287 0.373034 9
      vertex -7.25 1 9
      vertex -5.23817 0.188 9
    endloop
  endfacet
  facet normal 0 0 1
    outer loop
      vertex -4.96352 -0.881678 9
      vertex -6.94077 -2.20438 9
      vertex -6.77254 -2.46946 9
    endloop
  endfacet
  facet normal 0 0 1
    outer loop
      vertex -5.23817 0.188 9
      vertex -7.25 1 9
      vertex -5.25 0 9
    endloop
  endfacet
  facet normal 0 0 1
    outer loop
      vertex -4.96352 -0.881678 9
      vertex -7.07444 -1.92031 9
      vertex -6.94077 -2.20438 9
    endloop
  endfacet
  facet normal 0 0 1
    outer loop
      vertex -5.06446 -0.722631 9
      vertex -7.17146 -1.62172 9
      vertex -7.07444 -1.92031 9
    endloop
  endfacet
  facet normal 0 0 1
    outer loop
      vertex -5.06446 -0.722631 9
      vertex -7.23029 -1.31333 9
      vertex -7.17146 -1.62172 9
    endloop
  endfacet
  facet normal 0 1 -0
    outer loop
      vertex 4.90698 3.49507 0
      vertex -4.90698 3.49507 9
      vertex 4.90698 3.49507 9
    endloop
  endfacet
  facet normal 0 1 0
    outer loop
      vertex -4.90698 3.49507 9
      vertex 4.90698 3.49507 0
      vertex -4.90698 3.49507 0
    endloop
  endfacet
  facet normal -0.844321 0.535838 0
    outer loop
      vertex -6.94077 2.20438 0
      vertex -6.77254 2.46946 9
      vertex -6.77254 2.46946 0
    endloop
  endfacet
  facet normal -0.844321 0.535838 0
    outer loop
      vertex -6.77254 2.46946 9
      vertex -6.94077 2.20438 0
      vertex -6.94077 2.20438 9
    endloop
  endfacet
  facet normal -0.12534 -0.992114 0
    outer loop
      vertex -5.21845 -3.45572 0
      vertex -4.90698 -3.49507 9
      vertex -5.21845 -3.45572 9
    endloop
  endfacet
  facet normal -0.12534 -0.992114 -0
    outer loop
      vertex -4.90698 -3.49507 9
      vertex -5.21845 -3.45572 0
      vertex -4.90698 -3.49507 0
    endloop
  endfacet
  facet normal 0.12534 -0.992114 0
    outer loop
      vertex 4.90698 -3.49507 0
      vertex 5.21845 -3.45572 9
      vertex 4.90698 -3.49507 9
    endloop
  endfacet
  facet normal 0.12534 -0.992114 0
    outer loop
      vertex 5.21845 -3.45572 9
      vertex 4.90698 -3.49507 0
      vertex 5.21845 -3.45572 0
    endloop
  endfacet
  facet normal 0.844321 -0.535838 0
    outer loop
      vertex 6.77254 -2.46946 9
      vertex 6.94077 -2.20438 0
      vertex 6.94077 -2.20438 9
    endloop
  endfacet
  facet normal 0.844321 -0.535838 0
    outer loop
      vertex 6.94077 -2.20438 0
      vertex 6.77254 -2.46946 9
      vertex 6.77254 -2.46946 0
    endloop
  endfacet
  facet normal 0.12534 0.992114 -0
    outer loop
      vertex 5.21845 3.45572 0
      vertex 4.90698 3.49507 9
      vertex 5.21845 3.45572 9
    endloop
  endfacet
  facet normal 0.12534 0.992114 0
    outer loop
      vertex 4.90698 3.49507 9
      vertex 5.21845 3.45572 0
      vertex 4.90698 3.49507 0
    endloop
  endfacet
  facet normal 1 -0 0
    outer loop
      vertex 7.25 -1 9
      vertex 7.25 1 0
      vertex 7.25 1 9
    endloop
  endfacet
  facet normal 1 0 0
    outer loop
      vertex 7.25 1 0
      vertex 7.25 -1 9
      vertex 7.25 -1 0
    endloop
  endfacet
  facet normal -0.481757 0.876305 0
    outer loop
      vertex -5.81445 3.26207 0
      vertex -6.08957 3.11082 9
      vertex -5.81445 3.26207 9
    endloop
  endfacet
  facet normal -0.481757 0.876305 0
    outer loop
      vertex -6.08957 3.11082 9
      vertex -5.81445 3.26207 0
      vertex -6.08957 3.11082 0
    endloop
  endfacet
  facet normal 0 0 -1
    outer loop
      vertex 5.14466 -0.552186 0
      vertex 7.25 -1 0
      vertex 7.23029 -1.31333 0
    endloop
  endfacet
  facet normal 0 0 -1
    outer loop
      vertex 7.25 -1 0
      vertex 5.25 0 0
      vertex 7.25 1 0
    endloop
  endfacet
  facet normal 0 0 -1
    outer loop
      vertex 5.06446 -0.722631 0
      vertex 7.23029 -1.31333 0
      vertex 7.17146 -1.62172 0
    endloop
  endfacet
  facet normal 0 0 -1
    outer loop
      vertex 5.23817 0.188 0
      vertex 7.25 1 0
      vertex 5.25 0 0
    endloop
  endfacet
  facet normal 0 0 -1
    outer loop
      vertex 5.06446 -0.722631 0
      vertex 7.17146 -1.62172 0
      vertex 7.07444 -1.92031 0
    endloop
  endfacet
  facet normal 0 0 -1
    outer loop
      vertex 5.20287 0.373034 0
      vertex 7.25 1 0
      vertex 5.23817 0.188 0
    endloop
  endfacet
  facet normal 0 0 -1
    outer loop
      vertex 4.96352 -0.881678 0
      vertex 7.07444 -1.92031 0
      vertex 6.94077 -2.20438 0
    endloop
  endfacet
  facet normal 0 0 -1
    outer loop
      vertex 5.14466 0.552186 0
      vertex 7.25 1 0
      vertex 5.20287 0.373034 0
    endloop
  endfacet
  facet normal 0 0 -1
    outer loop
      vertex 4.96352 -0.881678 0
      vertex 6.94077 -2.20438 0
      vertex 6.77254 -2.46946 0
    endloop
  endfacet
  facet normal -0 0 -1
    outer loop
      vertex 7.25 1 0
      vertex 5.14466 0.552186 0
      vertex 7.23029 1.31333 0
    endloop
  endfacet
  facet normal 0 0 -1
    outer loop
      vertex 4.84345 -1.02682 0
      vertex 6.77254 -2.46946 0
      vertex 6.57242 -2.71137 0
    endloop
  endfacet
  facet normal 0 0 -1
    outer loop
      vertex 5.06446 0.722631 0
      vertex 7.23029 1.31333 0
      vertex 5.14466 0.552186 0
    endloop
  endfacet
  facet normal 0 0 -1
    outer loop
      vertex 4.84345 -1.02682 0
      vertex 6.57242 -2.71137 0
      vertex 6.34356 -2.92628 0
    endloop
  endfacet
  facet normal -0 0 -1
    outer loop
      vertex 7.23029 1.31333 0
      vertex 5.06446 0.722631 0
      vertex 7.17146 1.62172 0
    endloop
  endfacet
  facet normal 0 0 -1
    outer loop
      vertex 4.70614 -1.15577 0
      vertex 6.34356 -2.92628 0
      vertex 6.08957 -3.11082 0
    endloop
  endfacet
  facet normal -0 0 -1
    outer loop
      vertex 7.17146 1.62172 0
      vertex 5.06446 0.722631 0
      vertex 7.07444 1.92031 0
    endloop
  endfacet
  facet normal 0 0 -1
    outer loop
      vertex 4.70614 -1.15577 0
      vertex 6.08957 -3.11082 0
      vertex 5.81445 -3.26207 0
    endloop
  endfacet
  facet normal 0 0 -1
    outer loop
      vertex 4.96352 0.881678 0
      vertex 7.07444 1.92031 0
      vertex 5.06446 0.722631 0
    endloop
  endfacet
  facet normal 0 0 -1
    outer loop
      vertex 4.55374 -1.26649 0
      vertex 5.81445 -3.26207 0
      vertex 5.52254 -3.37764 0
    endloop
  endfacet
  facet normal -0 0 -1
    outer loop
      vertex 7.07444 1.92031 0
      vertex 4.96352 0.881678 0
      vertex 6.94077 2.20438 0
    endloop
  endfacet
  facet normal -0 0 -1
    outer loop
      vertex 6.94077 2.20438 0
      vertex 4.96352 0.881678 0
      vertex 6.77254 2.46946 0
    endloop
  endfacet
  facet normal 0 0 -1
    outer loop
      vertex 7.25 -1 0
      vertex 5.23817 -0.188 0
      vertex 5.25 0 0
    endloop
  endfacet
  facet normal 0 0 -1
    outer loop
      vertex 4.55374 -1.26649 0
      vertex 5.52254 -3.37764 0
      vertex 5.21845 -3.45572 0
    endloop
  endfacet
  facet normal 0 0 -1
    outer loop
      vertex 7.25 -1 0
      vertex 5.20287 -0.373034 0
      vertex 5.23817 -0.188 0
    endloop
  endfacet
  facet normal 0 0 -1
    outer loop
      vertex 7.25 -1 0
      vertex 5.14466 -0.552186 0
      vertex 5.20287 -0.373034 0
    endloop
  endfacet
  facet normal 0 0 -1
    outer loop
      vertex 7.23029 -1.31333 0
      vertex 5.06446 -0.722631 0
      vertex 5.14466 -0.552186 0
    endloop
  endfacet
  facet normal 0 0 -1
    outer loop
      vertex 7.07444 -1.92031 0
      vertex 4.96352 -0.881678 0
      vertex 5.06446 -0.722631 0
    endloop
  endfacet
  facet normal 0 0 -1
    outer loop
      vertex 4.38867 -1.35724 0
      vertex 5.21845 -3.45572 0
      vertex 4.90698 -3.49507 0
    endloop
  endfacet
  facet normal 0 0 -1
    outer loop
      vertex 6.77254 -2.46946 0
      vertex 4.84345 -1.02682 0
      vertex 4.96352 -0.881678 0
    endloop
  endfacet
  facet normal 0 0 -1
    outer loop
      vertex 6.34356 -2.92628 0
      vertex 4.70614 -1.15577 0
      vertex 4.84345 -1.02682 0
    endloop
  endfacet
  facet normal 0 0 -1
    outer loop
      vertex 5.81445 -3.26207 0
      vertex 4.55374 -1.26649 0
      vertex 4.70614 -1.15577 0
    endloop
  endfacet
  facet normal 0 0 -1
    outer loop
      vertex 5.21845 -3.45572 0
      vertex 4.38867 -1.35724 0
      vertex 4.55374 -1.26649 0
    endloop
  endfacet
  facet normal 0 0 -1
    outer loop
      vertex 4.90698 -3.49507 0
      vertex 4.21352 -1.42658 0
      vertex 4.38867 -1.35724 0
    endloop
  endfacet
  facet normal 0 0 -1
    outer loop
      vertex 4.90698 -3.49507 0
      vertex 4.03107 -1.47343 0
      vertex 4.21352 -1.42658 0
    endloop
  endfacet
  facet normal 0 0 -1
    outer loop
      vertex 4.90698 -3.49507 0
      vertex 3.84418 -1.49704 0
      vertex 4.03107 -1.47343 0
    endloop
  endfacet
  facet normal 0 0 -1
    outer loop
      vertex 4.90698 -3.49507 0
      vertex 3.65581 -1.49704 0
      vertex 3.84418 -1.49704 0
    endloop
  endfacet
  facet normal 0 0 -1
    outer loop
      vertex 4.90698 -3.49507 0
      vertex 3.46893 -1.47343 0
      vertex 3.65581 -1.49704 0
    endloop
  endfacet
  facet normal 0 0 -1
    outer loop
      vertex 4.90698 -3.49507 0
      vertex 3.28647 -1.42658 0
      vertex 3.46893 -1.47343 0
    endloop
  endfacet
  facet normal 0 0 -1
    outer loop
      vertex 4.90698 -3.49507 0
      vertex 3.11133 -1.35724 0
      vertex 3.28647 -1.42658 0
    endloop
  endfacet
  facet normal 0 0 -1
    outer loop
      vertex 4.90698 -3.49507 0
      vertex 2.94626 -1.26649 0
      vertex 3.11133 -1.35724 0
    endloop
  endfacet
  facet normal 0 0 -1
    outer loop
      vertex -2.94626 -1.26649 0
      vertex 2.94626 -1.26649 0
      vertex 4.90698 -3.49507 0
    endloop
  endfacet
  facet normal 0 0 -1
    outer loop
      vertex 2.94626 -1.26649 0
      vertex -2.94626 -1.26649 0
      vertex 2.79386 -1.15577 0
    endloop
  endfacet
  facet normal 0 0 -1
    outer loop
      vertex 2.26183 -0.188 0
      vertex -2.25 0 0
      vertex 2.25 0 0
    endloop
  endfacet
  facet normal 0 0 -1
    outer loop
      vertex -2.26183 -0.188 0
      vertex 2.26183 -0.188 0
      vertex 2.29712 -0.373034 0
    endloop
  endfacet
  facet normal 0 0 -1
    outer loop
      vertex -2.29712 -0.373034 0
      vertex 2.29712 -0.373034 0
      vertex 2.35534 -0.552186 0
    endloop
  endfacet
  facet normal 0 0 -1
    outer loop
      vertex -2.35534 -0.552186 0
      vertex 2.35534 -0.552186 0
      vertex 2.43554 -0.722631 0
    endloop
  endfacet
  facet normal 0 0 -1
    outer loop
      vertex -2.43554 -0.722631 0
      vertex 2.43554 -0.722631 0
      vertex 2.53647 -0.881678 0
    endloop
  endfacet
  facet normal 0 0 -1
    outer loop
      vertex -2.53647 -0.881678 0
      vertex 2.53647 -0.881678 0
      vertex 2.65655 -1.02682 0
    endloop
  endfacet
  facet normal 0 -0 -1
    outer loop
      vertex -2.79386 -1.15577 0
      vertex 2.79386 -1.15577 0
      vertex -2.94626 -1.26649 0
    endloop
  endfacet
  facet normal 0 0 -1
    outer loop
      vertex 2.26183 -0.188 0
      vertex -2.26183 -0.188 0
      vertex -2.25 0 0
    endloop
  endfacet
  facet normal 0 0 -1
    outer loop
      vertex 2.29712 -0.373034 0
      vertex -2.29712 -0.373034 0
      vertex -2.26183 -0.188 0
    endloop
  endfacet
  facet normal 0 0 -1
    outer loop
      vertex 2.35534 -0.552186 0
      vertex -2.35534 -0.552186 0
      vertex -2.29712 -0.373034 0
    endloop
  endfacet
  facet normal 0 0 -1
    outer loop
      vertex 2.43554 -0.722631 0
      vertex -2.43554 -0.722631 0
      vertex -2.35534 -0.552186 0
    endloop
  endfacet
  facet normal 0 0 -1
    outer loop
      vertex 2.53647 -0.881678 0
      vertex -2.53647 -0.881678 0
      vertex -2.43554 -0.722631 0
    endloop
  endfacet
  facet normal 0 0 -1
    outer loop
      vertex 2.65655 -1.02682 0
      vertex -2.65655 -1.02682 0
      vertex -2.53647 -0.881678 0
    endloop
  endfacet
  facet normal -0 0 -1
    outer loop
      vertex 2.65655 -1.02682 0
      vertex -2.79386 -1.15577 0
      vertex -2.65655 -1.02682 0
    endloop
  endfacet
  facet normal 0 0 -1
    outer loop
      vertex 2.79386 -1.15577 0
      vertex -2.79386 -1.15577 0
      vertex 2.65655 -1.02682 0
    endloop
  endfacet
  facet normal 0 0 -1
    outer loop
      vertex -4.90698 -3.49507 0
      vertex -2.94626 -1.26649 0
      vertex 4.90698 -3.49507 0
    endloop
  endfacet
  facet normal 0 0 -1
    outer loop
      vertex -2.94626 -1.26649 0
      vertex -4.90698 -3.49507 0
      vertex -3.11133 -1.35724 0
    endloop
  endfacet
  facet normal 0 0 -1
    outer loop
      vertex -3.11133 -1.35724 0
      vertex -4.90698 -3.49507 0
      vertex -3.28647 -1.42658 0
    endloop
  endfacet
  facet normal 0 0 -1
    outer loop
      vertex -3.28647 -1.42658 0
      vertex -4.90698 -3.49507 0
      vertex -3.46893 -1.47343 0
    endloop
  endfacet
  facet normal 0 0 -1
    outer loop
      vertex -3.46893 -1.47343 0
      vertex -4.90698 -3.49507 0
      vertex -3.65581 -1.49704 0
    endloop
  endfacet
  facet normal -0 0 -1
    outer loop
      vertex -3.65581 -1.49704 0
      vertex -4.90698 -3.49507 0
      vertex -3.84418 -1.49704 0
    endloop
  endfacet
  facet normal -0 0 -1
    outer loop
      vertex -3.84418 -1.49704 0
      vertex -4.90698 -3.49507 0
      vertex -4.03107 -1.47343 0
    endloop
  endfacet
  facet normal 0 0 -1
    outer loop
      vertex -4.90698 -3.49507 0
      vertex -4.21352 -1.42658 0
      vertex -4.03107 -1.47343 0
    endloop
  endfacet
  facet normal 0 0 -1
    outer loop
      vertex -4.90698 -3.49507 0
      vertex -4.38867 -1.35724 0
      vertex -4.21352 -1.42658 0
    endloop
  endfacet
  facet normal 0 0 -1
    outer loop
      vertex -5.21845 -3.45572 0
      vertex -4.38867 -1.35724 0
      vertex -4.90698 -3.49507 0
    endloop
  endfacet
  facet normal -0 0 -1
    outer loop
      vertex -4.38867 -1.35724 0
      vertex -5.21845 -3.45572 0
      vertex -4.55374 -1.26649 0
    endloop
  endfacet
  facet normal 0 0 -1
    outer loop
      vertex -5.52254 -3.37764 0
      vertex -4.55374 -1.26649 0
      vertex -5.21845 -3.45572 0
    endloop
  endfacet
  facet normal 0 0 -1
    outer loop
      vertex -5.81445 -3.26207 0
      vertex -4.55374 -1.26649 0
      vertex -5.52254 -3.37764 0
    endloop
  endfacet
  facet normal -0 0 -1
    outer loop
      vertex -4.55374 -1.26649 0
      vertex -5.81445 -3.26207 0
      vertex -4.70614 -1.15577 0
    endloop
  endfacet
  facet normal 0 0 -1
    outer loop
      vertex -6.08957 -3.11082 0
      vertex -4.70614 -1.15577 0
      vertex -5.81445 -3.26207 0
    endloop
  endfacet
  facet normal 0 0 -1
    outer loop
      vertex -6.34356 -2.92628 0
      vertex -4.70614 -1.15577 0
      vertex -6.08957 -3.11082 0
    endloop
  endfacet
  facet normal -0 0 -1
    outer loop
      vertex -4.70614 -1.15577 0
      vertex -6.34356 -2.92628 0
      vertex -4.84345 -1.02682 0
    endloop
  endfacet
  facet normal 0 0 -1
    outer loop
      vertex -6.57242 -2.71137 0
      vertex -4.84345 -1.02682 0
      vertex -6.34356 -2.92628 0
    endloop
  endfacet
  facet normal 0 0 -1
    outer loop
      vertex -6.77254 -2.46946 0
      vertex -4.84345 -1.02682 0
      vertex -6.57242 -2.71137 0
    endloop
  endfacet
  facet normal -0 0 -1
    outer loop
      vertex -4.84345 -1.02682 0
      vertex -6.77254 -2.46946 0
      vertex -4.96352 -0.881678 0
    endloop
  endfacet
  facet normal 0 0 -1
    outer loop
      vertex 4.84345 1.02682 0
      vertex 6.77254 2.46946 0
      vertex 4.96352 0.881678 0
    endloop
  endfacet
  facet normal -0 0 -1
    outer loop
      vertex 6.77254 2.46946 0
      vertex 4.84345 1.02682 0
      vertex 6.57242 2.71137 0
    endloop
  endfacet
  facet normal -0 0 -1
    outer loop
      vertex 6.57242 2.71137 0
      vertex 4.84345 1.02682 0
      vertex 6.34356 2.92628 0
    endloop
  endfacet
  facet normal 0 0 -1
    outer loop
      vertex 4.70614 1.15577 0
      vertex 6.34356 2.92628 0
      vertex 4.84345 1.02682 0
    endloop
  endfacet
  facet normal -0 0 -1
    outer loop
      vertex 6.34356 2.92628 0
      vertex 4.70614 1.15577 0
      vertex 6.08957 3.11082 0
    endloop
  endfacet
  facet normal -0 0 -1
    outer loop
      vertex 6.08957 3.11082 0
      vertex 4.70614 1.15577 0
      vertex 5.81445 3.26207 0
    endloop
  endfacet
  facet normal 0 0 -1
    outer loop
      vertex 4.55374 1.26649 0
      vertex 5.81445 3.26207 0
      vertex 4.70614 1.15577 0
    endloop
  endfacet
  facet normal -0 0 -1
    outer loop
      vertex 5.81445 3.26207 0
      vertex 4.55374 1.26649 0
      vertex 5.52254 3.37764 0
    endloop
  endfacet
  facet normal -0 0 -1
    outer loop
      vertex 5.52254 3.37764 0
      vertex 4.55374 1.26649 0
      vertex 5.21845 3.45572 0
    endloop
  endfacet
  facet normal 0 0 -1
    outer loop
      vertex 4.38867 1.35724 0
      vertex 5.21845 3.45572 0
      vertex 4.55374 1.26649 0
    endloop
  endfacet
  facet normal -0 0 -1
    outer loop
      vertex 5.21845 3.45572 0
      vertex 4.38867 1.35724 0
      vertex 4.90698 3.49507 0
    endloop
  endfacet
  facet normal 0 0 -1
    outer loop
      vertex 4.21352 1.42658 0
      vertex 4.90698 3.49507 0
      vertex 4.38867 1.35724 0
    endloop
  endfacet
  facet normal 0 0 -1
    outer loop
      vertex 4.03107 1.47343 0
      vertex 4.90698 3.49507 0
      vertex 4.21352 1.42658 0
    endloop
  endfacet
  facet normal 0 0 -1
    outer loop
      vertex 3.84418 1.49704 0
      vertex 4.90698 3.49507 0
      vertex 4.03107 1.47343 0
    endloop
  endfacet
  facet normal 0 0 -1
    outer loop
      vertex 3.65581 1.49704 0
      vertex 4.90698 3.49507 0
      vertex 3.84418 1.49704 0
    endloop
  endfacet
  facet normal 0 0 -1
    outer loop
      vertex 3.46893 1.47343 0
      vertex 4.90698 3.49507 0
      vertex 3.65581 1.49704 0
    endloop
  endfacet
  facet normal 0 0 -1
    outer loop
      vertex 3.28647 1.42658 0
      vertex 4.90698 3.49507 0
      vertex 3.46893 1.47343 0
    endloop
  endfacet
  facet normal 0 0 -1
    outer loop
      vertex 3.11133 1.35724 0
      vertex 4.90698 3.49507 0
      vertex 3.28647 1.42658 0
    endloop
  endfacet
  facet normal 0 0 -1
    outer loop
      vertex 2.94626 1.26649 0
      vertex 4.90698 3.49507 0
      vertex 3.11133 1.35724 0
    endloop
  endfacet
  facet normal 0 0 -1
    outer loop
      vertex -2.94626 1.26649 0
      vertex 2.94626 1.26649 0
      vertex 2.79386 1.15577 0
    endloop
  endfacet
  facet normal 0 0 -1
    outer loop
      vertex -2.79386 1.15577 0
      vertex 2.79386 1.15577 0
      vertex 2.65655 1.02682 0
    endloop
  endfacet
  facet normal 0 0 -1
    outer loop
      vertex -2.25 0 0
      vertex 2.26183 0.188 0
      vertex 2.25 0 0
    endloop
  endfacet
  facet normal 0 0 -1
    outer loop
      vertex -2.26183 0.188 0
      vertex 2.26183 0.188 0
      vertex -2.25 0 0
    endloop
  endfacet
  facet normal 0 0 -1
    outer loop
      vertex 2.26183 0.188 0
      vertex -2.26183 0.188 0
      vertex 2.29712 0.373034 0
    endloop
  endfacet
  facet normal 0 0 -1
    outer loop
      vertex -2.29712 0.373034 0
      vertex 2.29712 0.373034 0
      vertex -2.26183 0.188 0
    endloop
  endfacet
  facet normal 0 0 -1
    outer loop
      vertex 2.29712 0.373034 0
      vertex -2.29712 0.373034 0
      vertex 2.35534 0.552186 0
    endloop
  endfacet
  facet normal 0 0 -1
    outer loop
      vertex -2.35534 0.552186 0
      vertex 2.35534 0.552186 0
      vertex -2.29712 0.373034 0
    endloop
  endfacet
  facet normal 0 0 -1
    outer loop
      vertex 2.35534 0.552186 0
      vertex -2.35534 0.552186 0
      vertex 2.43554 0.722631 0
    endloop
  endfacet
  facet normal 0 0 -1
    outer loop
      vertex -2.43554 0.722631 0
      vertex 2.43554 0.722631 0
      vertex -2.35534 0.552186 0
    endloop
  endfacet
  facet normal 0 0 -1
    outer loop
      vertex 2.43554 0.722631 0
      vertex -2.43554 0.722631 0
      vertex 2.53647 0.881678 0
    endloop
  endfacet
  facet normal 0 0 -1
    outer loop
      vertex -2.53647 0.881678 0
      vertex 2.53647 0.881678 0
      vertex -2.43554 0.722631 0
    endloop
  endfacet
  facet normal 0 0 -1
    outer loop
      vertex 2.53647 0.881678 0
      vertex -2.53647 0.881678 0
      vertex 2.65655 1.02682 0
    endloop
  endfacet
  facet normal 0 0 -1
    outer loop
      vertex -2.65655 1.02682 0
      vertex 2.65655 1.02682 0
      vertex -2.53647 0.881678 0
    endloop
  endfacet
  facet normal 0 0 -1
    outer loop
      vertex -2.79386 1.15577 0
      vertex 2.65655 1.02682 0
      vertex -2.65655 1.02682 0
    endloop
  endfacet
  facet normal 0 0 -1
    outer loop
      vertex 2.79386 1.15577 0
      vertex -2.79386 1.15577 0
      vertex -2.94626 1.26649 0
    endloop
  endfacet
  facet normal 0 0 -1
    outer loop
      vertex 2.94626 1.26649 0
      vertex -2.94626 1.26649 0
      vertex 4.90698 3.49507 0
    endloop
  endfacet
  facet normal 0 0 -1
    outer loop
      vertex -4.90698 3.49507 0
      vertex -2.94626 1.26649 0
      vertex -3.11133 1.35724 0
    endloop
  endfacet
  facet normal 0 0 -1
    outer loop
      vertex -4.90698 3.49507 0
      vertex -3.11133 1.35724 0
      vertex -3.28647 1.42658 0
    endloop
  endfacet
  facet normal 0 0 -1
    outer loop
      vertex -4.90698 3.49507 0
      vertex -3.28647 1.42658 0
      vertex -3.46893 1.47343 0
    endloop
  endfacet
  facet normal 0 0 -1
    outer loop
      vertex -4.90698 3.49507 0
      vertex -3.46893 1.47343 0
      vertex -3.65581 1.49704 0
    endloop
  endfacet
  facet normal 0 0 -1
    outer loop
      vertex -4.90698 3.49507 0
      vertex -3.65581 1.49704 0
      vertex -3.84418 1.49704 0
    endloop
  endfacet
  facet normal 0 0 -1
    outer loop
      vertex -4.90698 3.49507 0
      vertex -3.84418 1.49704 0
      vertex -4.03107 1.47343 0
    endloop
  endfacet
  facet normal 0 0 -1
    outer loop
      vertex -2.94626 1.26649 0
      vertex -4.90698 3.49507 0
      vertex 4.90698 3.49507 0
    endloop
  endfacet
  facet normal 0 0 -1
    outer loop
      vertex -4.21352 1.42658 0
      vertex -4.90698 3.49507 0
      vertex -4.03107 1.47343 0
    endloop
  endfacet
  facet normal 0 0 -1
    outer loop
      vertex -4.38867 1.35724 0
      vertex -4.90698 3.49507 0
      vertex -4.21352 1.42658 0
    endloop
  endfacet
  facet normal 0 0 -1
    outer loop
      vertex -5.21845 3.45572 0
      vertex -4.38867 1.35724 0
      vertex -4.55374 1.26649 0
    endloop
  endfacet
  facet normal 0 0 -1
    outer loop
      vertex -5.81445 3.26207 0
      vertex -4.55374 1.26649 0
      vertex -4.70614 1.15577 0
    endloop
  endfacet
  facet normal 0 0 -1
    outer loop
      vertex -6.34356 2.92628 0
      vertex -4.70614 1.15577 0
      vertex -4.84345 1.02682 0
    endloop
  endfacet
  facet normal 0 0 -1
    outer loop
      vertex -6.77254 2.46946 0
      vertex -4.84345 1.02682 0
      vertex -4.96352 0.881678 0
    endloop
  endfacet
  facet normal 0 0 -1
    outer loop
      vertex -7.07444 1.92031 0
      vertex -4.96352 0.881678 0
      vertex -5.06446 0.722631 0
    endloop
  endfacet
  facet normal 0 0 -1
    outer loop
      vertex -7.23029 1.31333 0
      vertex -5.06446 0.722631 0
      vertex -5.14466 0.552186 0
    endloop
  endfacet
  facet normal 0 0 -1
    outer loop
      vertex -7.25 1 0
      vertex -5.14466 0.552186 0
      vertex -5.20287 0.373034 0
    endloop
  endfacet
  facet normal 0 0 -1
    outer loop
      vertex -4.38867 1.35724 0
      vertex -5.21845 3.45572 0
      vertex -4.90698 3.49507 0
    endloop
  endfacet
  facet normal 0 0 -1
    outer loop
      vertex -7.25 1 0
      vertex -5.20287 0.373034 0
      vertex -5.23817 0.188 0
    endloop
  endfacet
  facet normal 0 0 -1
    outer loop
      vertex -7.25 1 0
      vertex -5.23817 0.188 0
      vertex -5.25 0 0
    endloop
  endfacet
  facet normal 0 0 -1
    outer loop
      vertex -6.94077 -2.20438 0
      vertex -4.96352 -0.881678 0
      vertex -6.77254 -2.46946 0
    endloop
  endfacet
  facet normal 0 0 -1
    outer loop
      vertex -7.25 1 0
      vertex -5.25 0 0
      vertex -7.25 -1 0
    endloop
  endfacet
  facet normal 0 0 -1
    outer loop
      vertex -7.07444 -1.92031 0
      vertex -4.96352 -0.881678 0
      vertex -6.94077 -2.20438 0
    endloop
  endfacet
  facet normal 0 0 -1
    outer loop
      vertex -5.14466 0.552186 0
      vertex -7.25 1 0
      vertex -7.23029 1.31333 0
    endloop
  endfacet
  facet normal -0 0 -1
    outer loop
      vertex -4.96352 -0.881678 0
      vertex -7.07444 -1.92031 0
      vertex -5.06446 -0.722631 0
    endloop
  endfacet
  facet normal 0 0 -1
    outer loop
      vertex -4.55374 1.26649 0
      vertex -5.52254 3.37764 0
      vertex -5.21845 3.45572 0
    endloop
  endfacet
  facet normal 0 0 -1
    outer loop
      vertex -7.17146 -1.62172 0
      vertex -5.06446 -0.722631 0
      vertex -7.07444 -1.92031 0
    endloop
  endfacet
  facet normal 0 0 -1
    outer loop
      vertex -4.55374 1.26649 0
      vertex -5.81445 3.26207 0
      vertex -5.52254 3.37764 0
    endloop
  endfacet
  facet normal 0 0 -1
    outer loop
      vertex -7.23029 -1.31333 0
      vertex -5.06446 -0.722631 0
      vertex -7.17146 -1.62172 0
    endloop
  endfacet
  facet normal 0 0 -1
    outer loop
      vertex -4.70614 1.15577 0
      vertex -6.08957 3.11082 0
      vertex -5.81445 3.26207 0
    endloop
  endfacet
  facet normal -0 0 -1
    outer loop
      vertex -5.06446 -0.722631 0
      vertex -7.23029 -1.31333 0
      vertex -5.14466 -0.552186 0
    endloop
  endfacet
  facet normal 0 0 -1
    outer loop
      vertex -4.70614 1.15577 0
      vertex -6.34356 2.92628 0
      vertex -6.08957 3.11082 0
    endloop
  endfacet
  facet normal 0 0 -1
    outer loop
      vertex -7.25 -1 0
      vertex -5.14466 -0.552186 0
      vertex -7.23029 -1.31333 0
    endloop
  endfacet
  facet normal 0 0 -1
    outer loop
      vertex -4.84345 1.02682 0
      vertex -6.57242 2.71137 0
      vertex -6.34356 2.92628 0
    endloop
  endfacet
  facet normal -0 0 -1
    outer loop
      vertex -5.14466 -0.552186 0
      vertex -7.25 -1 0
      vertex -5.20287 -0.373034 0
    endloop
  endfacet
  facet normal 0 0 -1
    outer loop
      vertex -4.84345 1.02682 0
      vertex -6.77254 2.46946 0
      vertex -6.57242 2.71137 0
    endloop
  endfacet
  facet normal -0 0 -1
    outer loop
      vertex -5.20287 -0.373034 0
      vertex -7.25 -1 0
      vertex -5.23817 -0.188 0
    endloop
  endfacet
  facet normal 0 0 -1
    outer loop
      vertex -4.96352 0.881678 0
      vertex -6.94077 2.20438 0
      vertex -6.77254 2.46946 0
    endloop
  endfacet
  facet normal -0 0 -1
    outer loop
      vertex -5.23817 -0.188 0
      vertex -7.25 -1 0
      vertex -5.25 0 0
    endloop
  endfacet
  facet normal 0 0 -1
    outer loop
      vertex -4.96352 0.881678 0
      vertex -7.07444 1.92031 0
      vertex -6.94077 2.20438 0
    endloop
  endfacet
  facet normal 0 0 -1
    outer loop
      vertex -5.06446 0.722631 0
      vertex -7.17146 1.62172 0
      vertex -7.07444 1.92031 0
    endloop
  endfacet
  facet normal 0 0 -1
    outer loop
      vertex -5.06446 0.722631 0
      vertex -7.23029 1.31333 0
      vertex -7.17146 1.62172 0
    endloop
  endfacet
  facet normal -0.982286 -0.187386 0
    outer loop
      vertex -7.17146 -1.62172 0
      vertex -7.23029 -1.31333 9
      vertex -7.23029 -1.31333 0
    endloop
  endfacet
  facet normal -0.982286 -0.187386 0
    outer loop
      vertex -7.23029 -1.31333 9
      vertex -7.17146 -1.62172 0
      vertex -7.17146 -1.62172 9
    endloop
  endfacet
  facet normal -0.770522 -0.637414 0
    outer loop
      vertex -6.57242 -2.71137 0
      vertex -6.77254 -2.46946 9
      vertex -6.77254 -2.46946 0
    endloop
  endfacet
  facet normal -0.770522 -0.637414 0
    outer loop
      vertex -6.77254 -2.46946 9
      vertex -6.57242 -2.71137 0
      vertex -6.57242 -2.71137 9
    endloop
  endfacet
  facet normal -0.904831 -0.425771 0
    outer loop
      vertex -6.94077 -2.20438 0
      vertex -7.07444 -1.92031 9
      vertex -7.07444 -1.92031 0
    endloop
  endfacet
  facet normal -0.904831 -0.425771 0
    outer loop
      vertex -7.07444 -1.92031 9
      vertex -6.94077 -2.20438 0
      vertex -6.94077 -2.20438 9
    endloop
  endfacet
  facet normal 0 -1 0
    outer loop
      vertex -4.90698 -3.49507 0
      vertex 4.90698 -3.49507 9
      vertex -4.90698 -3.49507 9
    endloop
  endfacet
  facet normal 0 -1 -0
    outer loop
      vertex 4.90698 -3.49507 9
      vertex -4.90698 -3.49507 0
      vertex 4.90698 -3.49507 0
    endloop
  endfacet
  facet normal 0.481757 0.876305 -0
    outer loop
      vertex 6.08957 3.11082 0
      vertex 5.81445 3.26207 9
      vertex 6.08957 3.11082 9
    endloop
  endfacet
  facet normal 0.481757 0.876305 0
    outer loop
      vertex 5.81445 3.26207 9
      vertex 6.08957 3.11082 0
      vertex 5.81445 3.26207 0
    endloop
  endfacet
  facet normal 0.951054 0.309023 0
    outer loop
      vertex 7.17146 1.62172 9
      vertex 7.07444 1.92031 0
      vertex 7.07444 1.92031 9
    endloop
  endfacet
  facet normal 0.951054 0.309023 0
    outer loop
      vertex 7.07444 1.92031 0
      vertex 7.17146 1.62172 9
      vertex 7.17146 1.62172 0
    endloop
  endfacet
  facet normal 0.998027 -0.0627808 0
    outer loop
      vertex 7.23029 -1.31333 9
      vertex 7.25 -1 0
      vertex 7.25 -1 9
    endloop
  endfacet
  facet normal 0.998027 -0.0627808 0
    outer loop
      vertex 7.25 -1 0
      vertex 7.23029 -1.31333 9
      vertex 7.23029 -1.31333 0
    endloop
  endfacet
  facet normal -0.770522 0.637414 0
    outer loop
      vertex -6.77254 2.46946 0
      vertex -6.57242 2.71137 9
      vertex -6.57242 2.71137 0
    endloop
  endfacet
  facet normal -0.770522 0.637414 0
    outer loop
      vertex -6.57242 2.71137 9
      vertex -6.77254 2.46946 0
      vertex -6.77254 2.46946 9
    endloop
  endfacet
  facet normal -0.684541 0.728975 0
    outer loop
      vertex -6.34356 2.92628 0
      vertex -6.57242 2.71137 9
      vertex -6.34356 2.92628 9
    endloop
  endfacet
  facet normal -0.684541 0.728975 0
    outer loop
      vertex -6.57242 2.71137 9
      vertex -6.34356 2.92628 0
      vertex -6.57242 2.71137 0
    endloop
  endfacet
  facet normal -0.587797 0.809009 0
    outer loop
      vertex -6.08957 3.11082 0
      vertex -6.34356 2.92628 9
      vertex -6.08957 3.11082 9
    endloop
  endfacet
  facet normal -0.587797 0.809009 0
    outer loop
      vertex -6.34356 2.92628 9
      vertex -6.08957 3.11082 0
      vertex -6.34356 2.92628 0
    endloop
  endfacet
  facet normal -0.36811 0.929782 0
    outer loop
      vertex -5.52254 3.37764 0
      vertex -5.81445 3.26207 9
      vertex -5.52254 3.37764 9
    endloop
  endfacet
  facet normal -0.36811 0.929782 0
    outer loop
      vertex -5.81445 3.26207 9
      vertex -5.52254 3.37764 0
      vertex -5.81445 3.26207 0
    endloop
  endfacet
  facet normal -0.248699 0.968581 0
    outer loop
      vertex -5.21845 3.45572 0
      vertex -5.52254 3.37764 9
      vertex -5.21845 3.45572 9
    endloop
  endfacet
  facet normal -0.248699 0.968581 0
    outer loop
      vertex -5.52254 3.37764 9
      vertex -5.21845 3.45572 0
      vertex -5.52254 3.37764 0
    endloop
  endfacet
  facet normal -0.12534 0.992114 0
    outer loop
      vertex -4.90698 3.49507 0
      vertex -5.21845 3.45572 9
      vertex -4.90698 3.49507 9
    endloop
  endfacet
  facet normal -0.12534 0.992114 0
    outer loop
      vertex -5.21845 3.45572 9
      vertex -4.90698 3.49507 0
      vertex -5.21845 3.45572 0
    endloop
  endfacet
  facet normal -0.982286 0.187386 0
    outer loop
      vertex -7.23029 1.31333 0
      vertex -7.17146 1.62172 9
      vertex -7.17146 1.62172 0
    endloop
  endfacet
  facet normal -0.982286 0.187386 0
    outer loop
      vertex -7.17146 1.62172 9
      vertex -7.23029 1.31333 0
      vertex -7.23029 1.31333 9
    endloop
  endfacet
  facet normal -0.951054 0.309023 0
    outer loop
      vertex -7.17146 1.62172 0
      vertex -7.07444 1.92031 9
      vertex -7.07444 1.92031 0
    endloop
  endfacet
  facet normal -0.951054 0.309023 0
    outer loop
      vertex -7.07444 1.92031 9
      vertex -7.17146 1.62172 0
      vertex -7.17146 1.62172 9
    endloop
  endfacet
  facet normal -0.904831 0.425771 0
    outer loop
      vertex -7.07444 1.92031 0
      vertex -6.94077 2.20438 9
      vertex -6.94077 2.20438 0
    endloop
  endfacet
  facet normal -0.904831 0.425771 0
    outer loop
      vertex -6.94077 2.20438 9
      vertex -7.07444 1.92031 0
      vertex -7.07444 1.92031 9
    endloop
  endfacet
  facet normal -0.844321 -0.535838 0
    outer loop
      vertex -6.77254 -2.46946 0
      vertex -6.94077 -2.20438 9
      vertex -6.94077 -2.20438 0
    endloop
  endfacet
  facet normal -0.844321 -0.535838 0
    outer loop
      vertex -6.94077 -2.20438 9
      vertex -6.77254 -2.46946 0
      vertex -6.77254 -2.46946 9
    endloop
  endfacet
  facet normal -0.684541 -0.728975 0
    outer loop
      vertex -6.57242 -2.71137 0
      vertex -6.34356 -2.92628 9
      vertex -6.57242 -2.71137 9
    endloop
  endfacet
  facet normal -0.684541 -0.728975 -0
    outer loop
      vertex -6.34356 -2.92628 9
      vertex -6.57242 -2.71137 0
      vertex -6.34356 -2.92628 0
    endloop
  endfacet
  facet normal -0.36811 -0.929782 0
    outer loop
      vertex -5.81445 -3.26207 0
      vertex -5.52254 -3.37764 9
      vertex -5.81445 -3.26207 9
    endloop
  endfacet
  facet normal -0.36811 -0.929782 -0
    outer loop
      vertex -5.52254 -3.37764 9
      vertex -5.81445 -3.26207 0
      vertex -5.52254 -3.37764 0
    endloop
  endfacet
  facet normal -0.587797 -0.809009 0
    outer loop
      vertex -6.34356 -2.92628 0
      vertex -6.08957 -3.11082 9
      vertex -6.34356 -2.92628 9
    endloop
  endfacet
  facet normal -0.587797 -0.809009 -0
    outer loop
      vertex -6.08957 -3.11082 9
      vertex -6.34356 -2.92628 0
      vertex -6.08957 -3.11082 0
    endloop
  endfacet
  facet normal 0.951054 -0.309023 0
    outer loop
      vertex 7.07444 -1.92031 9
      vertex 7.17146 -1.62172 0
      vertex 7.17146 -1.62172 9
    endloop
  endfacet
  facet normal 0.951054 -0.309023 0
    outer loop
      vertex 7.17146 -1.62172 0
      vertex 7.07444 -1.92031 9
      vertex 7.07444 -1.92031 0
    endloop
  endfacet
  facet normal 0.904831 -0.425771 0
    outer loop
      vertex 6.94077 -2.20438 9
      vertex 7.07444 -1.92031 0
      vertex 7.07444 -1.92031 9
    endloop
  endfacet
  facet normal 0.904831 -0.425771 0
    outer loop
      vertex 7.07444 -1.92031 0
      vertex 6.94077 -2.20438 9
      vertex 6.94077 -2.20438 0
    endloop
  endfacet
  facet normal 0.684541 -0.728975 0
    outer loop
      vertex 6.34356 -2.92628 0
      vertex 6.57242 -2.71137 9
      vertex 6.34356 -2.92628 9
    endloop
  endfacet
  facet normal 0.684541 -0.728975 0
    outer loop
      vertex 6.57242 -2.71137 9
      vertex 6.34356 -2.92628 0
      vertex 6.57242 -2.71137 0
    endloop
  endfacet
  facet normal 0.481757 -0.876305 0
    outer loop
      vertex 5.81445 -3.26207 0
      vertex 6.08957 -3.11082 9
      vertex 5.81445 -3.26207 9
    endloop
  endfacet
  facet normal 0.481757 -0.876305 0
    outer loop
      vertex 6.08957 -3.11082 9
      vertex 5.81445 -3.26207 0
      vertex 6.08957 -3.11082 0
    endloop
  endfacet
  facet normal 0.248699 -0.968581 0
    outer loop
      vertex 5.21845 -3.45572 0
      vertex 5.52254 -3.37764 9
      vertex 5.21845 -3.45572 9
    endloop
  endfacet
  facet normal 0.248699 -0.968581 0
    outer loop
      vertex 5.52254 -3.37764 9
      vertex 5.21845 -3.45572 0
      vertex 5.52254 -3.37764 0
    endloop
  endfacet
  facet normal 0.684541 0.728975 -0
    outer loop
      vertex 6.57242 2.71137 0
      vertex 6.34356 2.92628 9
      vertex 6.57242 2.71137 9
    endloop
  endfacet
  facet normal 0.684541 0.728975 0
    outer loop
      vertex 6.34356 2.92628 9
      vertex 6.57242 2.71137 0
      vertex 6.34356 2.92628 0
    endloop
  endfacet
  facet normal 0.248699 0.968581 -0
    outer loop
      vertex 5.52254 3.37764 0
      vertex 5.21845 3.45572 9
      vertex 5.52254 3.37764 9
    endloop
  endfacet
  facet normal 0.248699 0.968581 0
    outer loop
      vertex 5.21845 3.45572 9
      vertex 5.52254 3.37764 0
      vertex 5.21845 3.45572 0
    endloop
  endfacet
  facet normal 0.36811 0.929782 -0
    outer loop
      vertex 5.81445 3.26207 0
      vertex 5.52254 3.37764 9
      vertex 5.81445 3.26207 9
    endloop
  endfacet
  facet normal 0.36811 0.929782 0
    outer loop
      vertex 5.52254 3.37764 9
      vertex 5.81445 3.26207 0
      vertex 5.52254 3.37764 0
    endloop
  endfacet
  facet normal 0.982286 -0.187386 0
    outer loop
      vertex 7.17146 -1.62172 9
      vertex 7.23029 -1.31333 0
      vertex 7.23029 -1.31333 9
    endloop
  endfacet
  facet normal 0.982286 -0.187386 0
    outer loop
      vertex 7.23029 -1.31333 0
      vertex 7.17146 -1.62172 9
      vertex 7.17146 -1.62172 0
    endloop
  endfacet
  facet normal -0.951054 -0.309023 0
    outer loop
      vertex -7.07444 -1.92031 0
      vertex -7.17146 -1.62172 9
      vertex -7.17146 -1.62172 0
    endloop
  endfacet
  facet normal -0.951054 -0.309023 0
    outer loop
      vertex -7.17146 -1.62172 9
      vertex -7.07444 -1.92031 0
      vertex -7.07444 -1.92031 9
    endloop
  endfacet
  facet normal -0.481757 -0.876305 0
    outer loop
      vertex -6.08957 -3.11082 0
      vertex -5.81445 -3.26207 9
      vertex -6.08957 -3.11082 9
    endloop
  endfacet
  facet normal -0.481757 -0.876305 -0
    outer loop
      vertex -5.81445 -3.26207 9
      vertex -6.08957 -3.11082 0
      vertex -5.81445 -3.26207 0
    endloop
  endfacet
  facet normal 0.770522 -0.637414 0
    outer loop
      vertex 6.57242 -2.71137 9
      vertex 6.77254 -2.46946 0
      vertex 6.77254 -2.46946 9
    endloop
  endfacet
  facet normal 0.770522 -0.637414 0
    outer loop
      vertex 6.77254 -2.46946 0
      vertex 6.57242 -2.71137 9
      vertex 6.57242 -2.71137 0
    endloop
  endfacet
  facet normal 0.36811 -0.929782 0
    outer loop
      vertex 5.52254 -3.37764 0
      vertex 5.81445 -3.26207 9
      vertex 5.52254 -3.37764 9
    endloop
  endfacet
  facet normal 0.36811 -0.929782 0
    outer loop
      vertex 5.81445 -3.26207 9
      vertex 5.52254 -3.37764 0
      vertex 5.81445 -3.26207 0
    endloop
  endfacet
  facet normal 0.587797 -0.809009 0
    outer loop
      vertex 6.08957 -3.11082 0
      vertex 6.34356 -2.92628 9
      vertex 6.08957 -3.11082 9
    endloop
  endfacet
  facet normal 0.587797 -0.809009 0
    outer loop
      vertex 6.34356 -2.92628 9
      vertex 6.08957 -3.11082 0
      vertex 6.34356 -2.92628 0
    endloop
  endfacet
  facet normal 0.587797 0.809009 -0
    outer loop
      vertex 6.34356 2.92628 0
      vertex 6.08957 3.11082 9
      vertex 6.34356 2.92628 9
    endloop
  endfacet
  facet normal 0.587797 0.809009 0
    outer loop
      vertex 6.08957 3.11082 9
      vertex 6.34356 2.92628 0
      vertex 6.08957 3.11082 0
    endloop
  endfacet
  facet normal 0.982286 0.187386 0
    outer loop
      vertex 7.23029 1.31333 9
      vertex 7.17146 1.62172 0
      vertex 7.17146 1.62172 9
    endloop
  endfacet
  facet normal 0.982286 0.187386 0
    outer loop
      vertex 7.17146 1.62172 0
      vertex 7.23029 1.31333 9
      vertex 7.23029 1.31333 0
    endloop
  endfacet
  facet normal 0.904831 0.425771 0
    outer loop
      vertex 7.07444 1.92031 9
      vertex 6.94077 2.20438 0
      vertex 6.94077 2.20438 9
    endloop
  endfacet
  facet normal 0.904831 0.425771 0
    outer loop
      vertex 6.94077 2.20438 0
      vertex 7.07444 1.92031 9
      vertex 7.07444 1.92031 0
    endloop
  endfacet
  facet normal 0.770522 0.637414 0
    outer loop
      vertex 6.77254 2.46946 9
      vertex 6.57242 2.71137 0
      vertex 6.57242 2.71137 9
    endloop
  endfacet
  facet normal 0.770522 0.637414 0
    outer loop
      vertex 6.57242 2.71137 0
      vertex 6.77254 2.46946 9
      vertex 6.77254 2.46946 0
    endloop
  endfacet
  facet normal 0.998027 0.0627808 0
    outer loop
      vertex 7.25 1 9
      vertex 7.23029 1.31333 0
      vertex 7.23029 1.31333 9
    endloop
  endfacet
  facet normal 0.998027 0.0627808 0
    outer loop
      vertex 7.23029 1.31333 0
      vertex 7.25 1 9
      vertex 7.25 1 0
    endloop
  endfacet
  facet normal -0.248699 -0.968581 0
    outer loop
      vertex -5.52254 -3.37764 0
      vertex -5.21845 -3.45572 9
      vertex -5.52254 -3.37764 9
    endloop
  endfacet
  facet normal -0.248699 -0.968581 -0
    outer loop
      vertex -5.21845 -3.45572 9
      vertex -5.52254 -3.37764 0
      vertex -5.21845 -3.45572 0
    endloop
  endfacet
  facet normal 0.844321 0.535838 0
    outer loop
      vertex 6.94077 2.20438 9
      vertex 6.77254 2.46946 0
      vertex 6.77254 2.46946 9
    endloop
  endfacet
  facet normal 0.844321 0.535838 0
    outer loop
      vertex 6.77254 2.46946 0
      vertex 6.94077 2.20438 9
      vertex 6.94077 2.20438 0
    endloop
  endfacet
endsolid OpenSCAD_Model
