<?xml version="1.0" standalone="no"?>
<!DOCTYPE svg PUBLIC "-//W3C//DTD SVG 1.1//EN" "http://www.w3.org/Graphics/SVG/1.1/DTD/svg11.dtd">
<svg width="44mm" height="260mm" viewBox="-22 -508 44 260" xmlns="http://www.w3.org/2000/svg" version="1.1">
<title>OpenSCAD Model</title>
<path d="
M 17.9369,-464.089 L 18.5451,-464.245 L 19.1289,-464.476 L 19.6791,-464.778 L 20.1871,-465.147 L 20.6448,-465.577
 L 21.0451,-466.061 L 21.3815,-466.591 L 21.6489,-467.159 L 21.8429,-467.757 L 21.9606,-468.373 L 22,-469
 L 22,-503 L 21.9606,-503.627 L 21.8429,-504.243 L 21.6489,-504.841 L 21.3815,-505.409 L 21.0451,-505.939
 L 20.6448,-506.423 L 20.1871,-506.853 L 19.6791,-507.222 L 19.1289,-507.524 L 18.5451,-507.755 L 17.9369,-507.911
 L 17.3139,-507.99 L -17.3139,-507.99 L -17.9369,-507.911 L -18.5451,-507.755 L -19.1289,-507.524 L -19.6791,-507.222
 L -20.1871,-506.853 L -20.6448,-506.423 L -21.0451,-505.939 L -21.3815,-505.409 L -21.6489,-504.841 L -21.8429,-504.243
 L -21.9606,-503.627 L -22,-503 L -22,-469 L -21.9606,-468.373 L -21.8429,-467.757 L -21.6489,-467.159
 L -21.3815,-466.591 L -21.0451,-466.061 L -20.6448,-465.577 L -20.1871,-465.147 L -19.6791,-464.778 L -19.1289,-464.476
 L -18.5451,-464.245 L -17.9369,-464.089 L -17.3139,-464.01 L 17.3139,-464.01 z
M -17.2512,-465.008 L -17.7495,-465.071 L -18.2361,-465.196 L -18.7031,-465.381 L -19.1433,-465.623 L -19.5497,-465.918
 L -19.9159,-466.262 L -20.2361,-466.649 L -20.5052,-467.073 L -20.7191,-467.528 L -20.8743,-468.005 L -20.9684,-468.499
 L -21,-469 L -21,-503 L -20.9684,-503.501 L -20.8743,-503.995 L -20.7191,-504.472 L -20.5052,-504.927
 L -20.2361,-505.351 L -19.9159,-505.738 L -19.5497,-506.082 L -19.1433,-506.377 L -18.7031,-506.619 L -18.2361,-506.804
 L -17.7495,-506.929 L -17.2512,-506.992 L 17.2512,-506.992 L 17.7495,-506.929 L 18.2361,-506.804 L 18.7031,-506.619
 L 19.1433,-506.377 L 19.5497,-506.082 L 19.9159,-505.738 L 20.2361,-505.351 L 20.5052,-504.927 L 20.7191,-504.472
 L 20.8743,-503.995 L 20.9684,-503.501 L 21,-503 L 21,-469 L 20.9684,-468.499 L 20.8743,-468.005
 L 20.7191,-467.528 L 20.5052,-467.073 L 20.2361,-466.649 L 19.9159,-466.262 L 19.5497,-465.918 L 19.1433,-465.623
 L 18.7031,-465.381 L 18.2361,-465.196 L 17.7495,-465.071 L 17.2512,-465.008 z
M 17.9369,-410.089 L 18.5451,-410.245 L 19.1289,-410.476 L 19.6791,-410.778 L 20.1871,-411.147 L 20.6448,-411.577
 L 21.0451,-412.061 L 21.3815,-412.591 L 21.6489,-413.159 L 21.8429,-413.757 L 21.9606,-414.373 L 22,-415
 L 22,-449 L 21.9606,-449.627 L 21.8429,-450.243 L 21.6489,-450.841 L 21.3815,-451.409 L 21.0451,-451.939
 L 20.6448,-452.423 L 20.1871,-452.853 L 19.6791,-453.222 L 19.1289,-453.524 L 18.5451,-453.755 L 17.9369,-453.911
 L 17.3139,-453.99 L -17.3139,-453.99 L -17.9369,-453.911 L -18.5451,-453.755 L -19.1289,-453.524 L -19.6791,-453.222
 L -20.1871,-452.853 L -20.6448,-452.423 L -21.0451,-451.939 L -21.3815,-451.409 L -21.6489,-450.841 L -21.8429,-450.243
 L -21.9606,-449.627 L -22,-449 L -22,-415 L -21.9606,-414.373 L -21.8429,-413.757 L -21.6489,-413.159
 L -21.3815,-412.591 L -21.0451,-412.061 L -20.6448,-411.577 L -20.1871,-411.147 L -19.6791,-410.778 L -19.1289,-410.476
 L -18.5451,-410.245 L -17.9369,-410.089 L -17.3139,-410.01 L 17.3139,-410.01 z
M -17.2512,-411.008 L -17.7495,-411.071 L -18.2361,-411.196 L -18.7031,-411.381 L -19.1433,-411.623 L -19.5497,-411.918
 L -19.9159,-412.262 L -20.2361,-412.649 L -20.5052,-413.073 L -20.7191,-413.528 L -20.8743,-414.005 L -20.9684,-414.499
 L -21,-415 L -21,-449 L -20.9684,-449.501 L -20.8743,-449.995 L -20.7191,-450.472 L -20.5052,-450.927
 L -20.2361,-451.351 L -19.9159,-451.738 L -19.5497,-452.082 L -19.1433,-452.377 L -18.7031,-452.619 L -18.2361,-452.804
 L -17.7495,-452.929 L -17.2512,-452.992 L 17.2512,-452.992 L 17.7495,-452.929 L 18.2361,-452.804 L 18.7031,-452.619
 L 19.1433,-452.377 L 19.5497,-452.082 L 19.9159,-451.738 L 20.2361,-451.351 L 20.5052,-450.927 L 20.7191,-450.472
 L 20.8743,-449.995 L 20.9684,-449.501 L 21,-449 L 21,-415 L 20.9684,-414.499 L 20.8743,-414.005
 L 20.7191,-413.528 L 20.5052,-413.073 L 20.2361,-412.649 L 19.9159,-412.262 L 19.5497,-411.918 L 19.1433,-411.623
 L 18.7031,-411.381 L 18.2361,-411.196 L 17.7495,-411.071 L 17.2512,-411.008 z
M 17.9369,-356.089 L 18.5451,-356.245 L 19.1289,-356.476 L 19.6791,-356.778 L 20.1871,-357.147 L 20.6448,-357.577
 L 21.0451,-358.061 L 21.3815,-358.591 L 21.6489,-359.159 L 21.8429,-359.757 L 21.9606,-360.373 L 22,-361
 L 22,-395 L 21.9606,-395.627 L 21.8429,-396.243 L 21.6489,-396.841 L 21.3815,-397.409 L 21.0451,-397.939
 L 20.6448,-398.423 L 20.1871,-398.853 L 19.6791,-399.222 L 19.1289,-399.524 L 18.5451,-399.755 L 17.9369,-399.911
 L 17.3139,-399.99 L -17.3139,-399.99 L -17.9369,-399.911 L -18.5451,-399.755 L -19.1289,-399.524 L -19.6791,-399.222
 L -20.1871,-398.853 L -20.6448,-398.423 L -21.0451,-397.939 L -21.3815,-397.409 L -21.6489,-396.841 L -21.8429,-396.243
 L -21.9606,-395.627 L -22,-395 L -22,-361 L -21.9606,-360.373 L -21.8429,-359.757 L -21.6489,-359.159
 L -21.3815,-358.591 L -21.0451,-358.061 L -20.6448,-357.577 L -20.1871,-357.147 L -19.6791,-356.778 L -19.1289,-356.476
 L -18.5451,-356.245 L -17.9369,-356.089 L -17.3139,-356.01 L 17.3139,-356.01 z
M -17.2512,-357.008 L -17.7495,-357.071 L -18.2361,-357.196 L -18.7031,-357.381 L -19.1433,-357.623 L -19.5497,-357.918
 L -19.9159,-358.262 L -20.2361,-358.649 L -20.5052,-359.073 L -20.7191,-359.528 L -20.8743,-360.005 L -20.9684,-360.499
 L -21,-361 L -21,-395 L -20.9684,-395.501 L -20.8743,-395.995 L -20.7191,-396.472 L -20.5052,-396.927
 L -20.2361,-397.351 L -19.9159,-397.738 L -19.5497,-398.082 L -19.1433,-398.377 L -18.7031,-398.619 L -18.2361,-398.804
 L -17.7495,-398.929 L -17.2512,-398.992 L 17.2512,-398.992 L 17.7495,-398.929 L 18.2361,-398.804 L 18.7031,-398.619
 L 19.1433,-398.377 L 19.5497,-398.082 L 19.9159,-397.738 L 20.2361,-397.351 L 20.5052,-396.927 L 20.7191,-396.472
 L 20.8743,-395.995 L 20.9684,-395.501 L 21,-395 L 21,-361 L 20.9684,-360.499 L 20.8743,-360.005
 L 20.7191,-359.528 L 20.5052,-359.073 L 20.2361,-358.649 L 19.9159,-358.262 L 19.5497,-357.918 L 19.1433,-357.623
 L 18.7031,-357.381 L 18.2361,-357.196 L 17.7495,-357.071 L 17.2512,-357.008 z
M 17.9369,-302.089 L 18.5451,-302.245 L 19.1289,-302.476 L 19.6791,-302.778 L 20.1871,-303.147 L 20.6448,-303.577
 L 21.0451,-304.061 L 21.3815,-304.591 L 21.6489,-305.159 L 21.8429,-305.757 L 21.9606,-306.373 L 22,-307
 L 22,-341 L 21.9606,-341.627 L 21.8429,-342.243 L 21.6489,-342.841 L 21.3815,-343.409 L 21.0451,-343.939
 L 20.6448,-344.423 L 20.1871,-344.853 L 19.6791,-345.222 L 19.1289,-345.524 L 18.5451,-345.755 L 17.9369,-345.911
 L 17.3139,-345.99 L -17.3139,-345.99 L -17.9369,-345.911 L -18.5451,-345.755 L -19.1289,-345.524 L -19.6791,-345.222
 L -20.1871,-344.853 L -20.6448,-344.423 L -21.0451,-343.939 L -21.3815,-343.409 L -21.6489,-342.841 L -21.8429,-342.243
 L -21.9606,-341.627 L -22,-341 L -22,-307 L -21.9606,-306.373 L -21.8429,-305.757 L -21.6489,-305.159
 L -21.3815,-304.591 L -21.0451,-304.061 L -20.6448,-303.577 L -20.1871,-303.147 L -19.6791,-302.778 L -19.1289,-302.476
 L -18.5451,-302.245 L -17.9369,-302.089 L -17.3139,-302.01 L 17.3139,-302.01 z
M -17.1954,-303.893 L -17.5833,-303.942 L -17.9619,-304.039 L -18.3254,-304.183 L -18.668,-304.372 L -18.9842,-304.601
 L -19.2692,-304.869 L -19.5184,-305.17 L -19.7279,-305.5 L -19.8943,-305.854 L -20.0151,-306.226 L -20.0884,-306.61
 L -20.1129,-307 L -20.1129,-341 L -20.0884,-341.39 L -20.0151,-341.774 L -19.8943,-342.146 L -19.7279,-342.5
 L -19.5184,-342.83 L -19.2692,-343.131 L -18.9842,-343.399 L -18.668,-343.628 L -18.3254,-343.817 L -17.9619,-343.961
 L -17.5833,-344.058 L -17.1954,-344.107 L 17.1954,-344.107 L 17.5833,-344.058 L 17.9619,-343.961 L 18.3254,-343.817
 L 18.668,-343.628 L 18.9842,-343.399 L 19.2692,-343.131 L 19.5184,-342.83 L 19.7279,-342.5 L 19.8943,-342.146
 L 20.0151,-341.774 L 20.0884,-341.39 L 20.1129,-341 L 20.1129,-307 L 20.0884,-306.61 L 20.0151,-306.226
 L 19.8943,-305.854 L 19.7279,-305.5 L 19.5184,-305.17 L 19.2692,-304.869 L 18.9842,-304.601 L 18.668,-304.372
 L 18.3254,-304.183 L 17.9619,-304.039 L 17.5833,-303.942 L 17.1954,-303.893 z
M 17.9369,-248.089 L 18.5451,-248.245 L 19.1289,-248.476 L 19.6791,-248.778 L 20.1871,-249.147 L 20.6448,-249.577
 L 21.0451,-250.061 L 21.3815,-250.591 L 21.6489,-251.159 L 21.8429,-251.757 L 21.9606,-252.373 L 22,-253
 L 22,-287 L 21.9606,-287.627 L 21.8429,-288.243 L 21.6489,-288.841 L 21.3815,-289.409 L 21.0451,-289.939
 L 20.6448,-290.423 L 20.1871,-290.853 L 19.6791,-291.222 L 19.1289,-291.524 L 18.5451,-291.755 L 17.9369,-291.911
 L 17.3139,-291.99 L -17.3139,-291.99 L -17.9369,-291.911 L -18.5451,-291.755 L -19.1289,-291.524 L -19.6791,-291.222
 L -20.1871,-290.853 L -20.6448,-290.423 L -21.0451,-289.939 L -21.3815,-289.409 L -21.6489,-288.841 L -21.8429,-288.243
 L -21.9606,-287.627 L -22,-287 L -22,-253 L -21.9606,-252.373 L -21.8429,-251.757 L -21.6489,-251.159
 L -21.3815,-250.591 L -21.0451,-250.061 L -20.6448,-249.577 L -20.1871,-249.147 L -19.6791,-248.778 L -19.1289,-248.476
 L -18.5451,-248.245 L -17.9369,-248.089 L -17.3139,-248.01 L 17.3139,-248.01 z
M 14.8493,-282.605 L 14.5503,-282.643 L 14.2583,-282.717 L 13.9781,-282.828 L 13.714,-282.974 L 13.4702,-283.151
 L 13.2505,-283.357 L 13.0583,-283.589 L 12.8969,-283.844 L 12.7685,-284.117 L 12.6754,-284.403 L 12.6189,-284.699
 L 12.6,-285 L 12.6189,-285.301 L 12.6754,-285.597 L 12.7685,-285.883 L 12.8969,-286.156 L 13.0583,-286.411
 L 13.2505,-286.643 L 13.4702,-286.849 L 13.714,-287.026 L 13.9781,-287.172 L 14.2583,-287.283 L 14.5503,-287.357
 L 14.8493,-287.395 L 15.1507,-287.395 L 15.4497,-287.357 L 15.7416,-287.283 L 16.0219,-287.172 L 16.286,-287.026
 L 16.5298,-286.849 L 16.7495,-286.643 L 16.9416,-286.411 L 17.1031,-286.156 L 17.2315,-285.883 L 17.3246,-285.597
 L 17.3811,-285.301 L 17.4,-285 L 17.3811,-284.699 L 17.3246,-284.403 L 17.2315,-284.117 L 17.1031,-283.844
 L 16.9416,-283.589 L 16.7495,-283.357 L 16.5298,-283.151 L 16.286,-282.974 L 16.0219,-282.828 L 15.7416,-282.717
 L 15.4497,-282.643 L 15.1507,-282.605 z
M -15.1507,-282.605 L -15.4497,-282.643 L -15.7416,-282.717 L -16.0219,-282.828 L -16.286,-282.974 L -16.5298,-283.151
 L -16.7495,-283.357 L -16.9416,-283.589 L -17.1031,-283.844 L -17.2315,-284.117 L -17.3246,-284.403 L -17.3811,-284.699
 L -17.4,-285 L -17.3811,-285.301 L -17.3246,-285.597 L -17.2315,-285.883 L -17.1031,-286.156 L -16.9416,-286.411
 L -16.7495,-286.643 L -16.5298,-286.849 L -16.286,-287.026 L -16.0219,-287.172 L -15.7416,-287.283 L -15.4497,-287.357
 L -15.1507,-287.395 L -14.8493,-287.395 L -14.5503,-287.357 L -14.2583,-287.283 L -13.9781,-287.172 L -13.714,-287.026
 L -13.4702,-286.849 L -13.2505,-286.643 L -13.0583,-286.411 L -12.8969,-286.156 L -12.7685,-285.883 L -12.6754,-285.597
 L -12.6189,-285.301 L -12.6,-285 L -12.6189,-284.699 L -12.6754,-284.403 L -12.7685,-284.117 L -12.8969,-283.844
 L -13.0583,-283.589 L -13.2505,-283.357 L -13.4702,-283.151 L -13.714,-282.974 L -13.9781,-282.828 L -14.2583,-282.717
 L -14.5503,-282.643 L -14.8493,-282.605 z
M -15.1507,-252.605 L -15.4497,-252.643 L -15.7416,-252.717 L -16.0219,-252.828 L -16.286,-252.974 L -16.5298,-253.151
 L -16.7495,-253.357 L -16.9416,-253.589 L -17.1031,-253.844 L -17.2315,-254.117 L -17.3246,-254.403 L -17.3811,-254.699
 L -17.4,-255 L -17.3811,-255.301 L -17.3246,-255.597 L -17.2315,-255.883 L -17.1031,-256.156 L -16.9416,-256.411
 L -16.7495,-256.643 L -16.5298,-256.849 L -16.286,-257.026 L -16.0219,-257.172 L -15.7416,-257.283 L -15.4497,-257.357
 L -15.1507,-257.395 L -14.8493,-257.395 L -14.5503,-257.357 L -14.2583,-257.283 L -13.9781,-257.172 L -13.714,-257.026
 L -13.4702,-256.849 L -13.2505,-256.643 L -13.0583,-256.411 L -12.8969,-256.156 L -12.7685,-255.883 L -12.6754,-255.597
 L -12.6189,-255.301 L -12.6,-255 L -12.6189,-254.699 L -12.6754,-254.403 L -12.7685,-254.117 L -12.8969,-253.844
 L -13.0583,-253.589 L -13.2505,-253.357 L -13.4702,-253.151 L -13.714,-252.974 L -13.9781,-252.828 L -14.2583,-252.717
 L -14.5503,-252.643 L -14.8493,-252.605 z
M 14.8493,-252.605 L 14.5503,-252.643 L 14.2583,-252.717 L 13.9781,-252.828 L 13.714,-252.974 L 13.4702,-253.151
 L 13.2505,-253.357 L 13.0583,-253.589 L 12.8969,-253.844 L 12.7685,-254.117 L 12.6754,-254.403 L 12.6189,-254.699
 L 12.6,-255 L 12.6189,-255.301 L 12.6754,-255.597 L 12.7685,-255.883 L 12.8969,-256.156 L 13.0583,-256.411
 L 13.2505,-256.643 L 13.4702,-256.849 L 13.714,-257.026 L 13.9781,-257.172 L 14.2583,-257.283 L 14.5503,-257.357
 L 14.8493,-257.395 L 15.1507,-257.395 L 15.4497,-257.357 L 15.7416,-257.283 L 16.0219,-257.172 L 16.286,-257.026
 L 16.5298,-256.849 L 16.7495,-256.643 L 16.9416,-256.411 L 17.1031,-256.156 L 17.2315,-255.883 L 17.3246,-255.597
 L 17.3811,-255.301 L 17.4,-255 L 17.3811,-254.699 L 17.3246,-254.403 L 17.2315,-254.117 L 17.1031,-253.844
 L 16.9416,-253.589 L 16.7495,-253.357 L 16.5298,-253.151 L 16.286,-252.974 L 16.0219,-252.828 L 15.7416,-252.717
 L 15.4497,-252.643 L 15.1507,-252.605 z
" stroke="black" fill="lightgray" stroke-width="0.5"/>
</svg>
