<?xml version="1.0" standalone="no"?>
<!DOCTYPE svg PUBLIC "-//W3C//DTD SVG 1.1//EN" "http://www.w3.org/Graphics/SVG/1.1/DTD/svg11.dtd">
<svg width="24mm" height="262mm" viewBox="-12 -455 24 262" xmlns="http://www.w3.org/2000/svg" version="1.1">
<title>OpenSCAD Model</title>
<path d="
M 7.1869,-409.589 L 7.79507,-409.745 L 8.37889,-409.976 L 8.92912,-410.278 L 9.43712,-410.647 L 9.89484,-411.077
 L 10.2951,-411.561 L 10.6315,-412.091 L 10.8989,-412.659 L 11.0929,-413.257 L 11.2106,-413.873 L 11.25,-414.5
 L 11.25,-449.5 L 11.2106,-450.127 L 11.0929,-450.743 L 10.8989,-451.341 L 10.6315,-451.909 L 10.2951,-452.439
 L 9.89484,-452.923 L 9.43712,-453.353 L 8.92912,-453.722 L 8.37889,-454.024 L 7.79507,-454.255 L 7.1869,-454.411
 L 6.56395,-454.49 L -6.56395,-454.49 L -7.1869,-454.411 L -7.79507,-454.255 L -8.37889,-454.024 L -8.92912,-453.722
 L -9.43712,-453.353 L -9.89484,-452.923 L -10.2951,-452.439 L -10.6315,-451.909 L -10.8989,-451.341 L -11.0929,-450.743
 L -11.2106,-450.127 L -11.25,-449.5 L -11.25,-414.5 L -11.2106,-413.873 L -11.0929,-413.257 L -10.8989,-412.659
 L -10.6315,-412.091 L -10.2951,-411.561 L -9.89484,-411.077 L -9.43712,-410.647 L -8.92912,-410.278 L -8.37889,-409.976
 L -7.79507,-409.745 L -7.1869,-409.589 L -6.56395,-409.51 L 6.56395,-409.51 z
M -1.06104,-410.009 L -0.570862,-410.278 L -0.0628662,-410.647 L 0.394836,-411.077 L 0.795074,-411.561 L 1.13153,-412.091
 L 1.39888,-412.659 L 1.59291,-413.257 L 1.71057,-413.873 L 1.75,-414.5 L 1.75,-417.5 L 1.71057,-418.127
 L 1.59291,-418.743 L 1.39888,-419.341 L 1.13153,-419.909 L 0.795074,-420.439 L 0.394836,-420.923 L -0.0628662,-421.353
 L -0.570862,-421.722 L -1.12109,-422.024 L -1.70491,-422.255 L -2.31308,-422.411 L -2.93604,-422.49 L -6.56395,-422.49
 L -7.1869,-422.411 L -7.79507,-422.255 L -8.37889,-422.024 L -8.92912,-421.722 L -9.43712,-421.353 L -9.89484,-420.923
 L -10.2951,-420.439 L -10.6315,-419.909 L -10.75,-419.657 L -10.75,-449.5 L -10.7145,-450.064 L -10.6086,-450.619
 L -10.434,-451.157 L -10.1934,-451.668 L -9.89056,-452.145 L -9.53035,-452.58 L -9.11839,-452.967 L -8.66121,-453.299
 L -8.166,-453.572 L -7.64056,-453.78 L -7.0932,-453.92 L -6.53255,-453.991 L 6.53255,-453.991 L 7.0932,-453.92
 L 7.64056,-453.78 L 8.166,-453.572 L 8.66121,-453.299 L 9.11839,-452.967 L 9.53035,-452.58 L 9.89056,-452.145
 L 10.1934,-451.668 L 10.434,-451.157 L 10.6086,-450.619 L 10.7145,-450.064 L 10.75,-449.5 L 10.75,-414.5
 L 10.7145,-413.936 L 10.6086,-413.381 L 10.434,-412.843 L 10.1934,-412.332 L 9.89056,-411.855 L 9.53035,-411.42
 L 9.11839,-411.033 L 8.66121,-410.701 L 8.166,-410.428 L 7.64056,-410.22 L 7.0932,-410.08 L 6.53255,-410.009
 z
M 4.21844,-444.544 L 4.52254,-444.622 L 4.81444,-444.738 L 5.08955,-444.889 L 5.34355,-445.074 L 5.57242,-445.289
 L 5.77254,-445.531 L 5.94077,-445.796 L 6.07443,-446.08 L 6.17145,-446.378 L 6.23029,-446.687 L 6.25,-447
 L 6.23029,-447.313 L 6.17145,-447.622 L 6.07443,-447.92 L 5.94077,-448.204 L 5.77254,-448.469 L 5.57242,-448.711
 L 5.34355,-448.926 L 5.08955,-449.111 L 4.81444,-449.262 L 4.52254,-449.378 L 4.21844,-449.456 L 3.90697,-449.495
 L 3.59302,-449.495 L 3.28154,-449.456 L 2.97745,-449.378 L 2.68555,-449.262 L 2.41043,-449.111 L 2.15643,-448.926
 L 1.92757,-448.711 L 1.72745,-448.469 L 1.55922,-448.204 L 1.42555,-447.92 L 1.32854,-447.622 L 1.2697,-447.313
 L 1.25,-447 L 1.2697,-446.687 L 1.32854,-446.378 L 1.42555,-446.08 L 1.55922,-445.796 L 1.72745,-445.531
 L 1.92757,-445.289 L 2.15643,-445.074 L 2.41043,-444.889 L 2.68555,-444.738 L 2.97745,-444.622 L 3.28154,-444.544
 L 3.59302,-444.505 L 3.90697,-444.505 z
M 3.65581,-445.503 L 3.46892,-445.527 L 3.28647,-445.573 L 3.11133,-445.643 L 2.94626,-445.734 L 2.79385,-445.844
 L 2.65654,-445.973 L 2.53647,-446.118 L 2.43553,-446.277 L 2.35533,-446.448 L 2.29712,-446.627 L 2.26183,-446.812
 L 2.25,-447 L 2.26183,-447.188 L 2.29712,-447.373 L 2.35533,-447.552 L 2.43553,-447.723 L 2.53647,-447.882
 L 2.65654,-448.027 L 2.79385,-448.156 L 2.94626,-448.266 L 3.11133,-448.357 L 3.28647,-448.427 L 3.46892,-448.473
 L 3.65581,-448.497 L 3.84418,-448.497 L 4.03107,-448.473 L 4.21352,-448.427 L 4.38866,-448.357 L 4.55373,-448.266
 L 4.70613,-448.156 L 4.84344,-448.027 L 4.96352,-447.882 L 5.06445,-447.723 L 5.14465,-447.552 L 5.20287,-447.373
 L 5.23816,-447.188 L 5.25,-447 L 5.23816,-446.812 L 5.20287,-446.627 L 5.14465,-446.448 L 5.06445,-446.277
 L 4.96352,-446.118 L 4.84344,-445.973 L 4.70613,-445.844 L 4.55373,-445.734 L 4.38866,-445.643 L 4.21352,-445.573
 L 4.03107,-445.527 L 3.84418,-445.503 z
M -3.84418,-415.503 L -4.03107,-415.527 L -4.21352,-415.573 L -4.38866,-415.643 L -4.55373,-415.734 L -4.70613,-415.844
 L -4.84344,-415.973 L -4.96352,-416.118 L -5.06445,-416.277 L -5.14465,-416.448 L -5.20287,-416.627 L -5.23816,-416.812
 L -5.25,-417 L -5.23816,-417.188 L -5.20287,-417.373 L -5.14465,-417.552 L -5.06445,-417.723 L -4.96352,-417.882
 L -4.84344,-418.027 L -4.70613,-418.156 L -4.55373,-418.266 L -4.38866,-418.357 L -4.21352,-418.427 L -4.03107,-418.473
 L -3.84418,-418.497 L -3.65581,-418.497 L -3.46892,-418.473 L -3.28647,-418.427 L -3.11133,-418.357 L -2.94626,-418.266
 L -2.79385,-418.156 L -2.65654,-418.027 L -2.53647,-417.882 L -2.43553,-417.723 L -2.35533,-417.552 L -2.29712,-417.373
 L -2.26183,-417.188 L -2.25,-417 L -2.26183,-416.812 L -2.29712,-416.627 L -2.35533,-416.448 L -2.43553,-416.277
 L -2.53647,-416.118 L -2.65654,-415.973 L -2.79385,-415.844 L -2.94626,-415.734 L -3.11133,-415.643 L -3.28647,-415.573
 L -3.46892,-415.527 L -3.65581,-415.503 z
M 7.1869,-355.589 L 7.79507,-355.745 L 8.37889,-355.976 L 8.92912,-356.278 L 9.43712,-356.647 L 9.89484,-357.077
 L 10.2951,-357.561 L 10.6315,-358.091 L 10.8989,-358.659 L 11.0929,-359.257 L 11.2106,-359.873 L 11.25,-360.5
 L 11.25,-395.5 L 11.2106,-396.127 L 11.0929,-396.743 L 10.8989,-397.341 L 10.6315,-397.909 L 10.2951,-398.439
 L 9.89484,-398.923 L 9.43712,-399.353 L 8.92912,-399.722 L 8.37889,-400.024 L 7.79507,-400.255 L 7.1869,-400.411
 L 6.56395,-400.49 L -6.56395,-400.49 L -7.1869,-400.411 L -7.79507,-400.255 L -8.37889,-400.024 L -8.92912,-399.722
 L -9.43712,-399.353 L -9.89484,-398.923 L -10.2951,-398.439 L -10.6315,-397.909 L -10.8989,-397.341 L -11.0929,-396.743
 L -11.2106,-396.127 L -11.25,-395.5 L -11.25,-360.5 L -11.2106,-359.873 L -11.0929,-359.257 L -10.8989,-358.659
 L -10.6315,-358.091 L -10.2951,-357.561 L -9.89484,-357.077 L -9.43712,-356.647 L -8.92912,-356.278 L -8.37889,-355.976
 L -7.79507,-355.745 L -7.1869,-355.589 L -6.56395,-355.51 L 6.56395,-355.51 z
M -1.06104,-356.009 L -0.570862,-356.278 L -0.0628662,-356.647 L 0.394836,-357.077 L 0.795074,-357.561 L 1.13153,-358.091
 L 1.39888,-358.659 L 1.59291,-359.257 L 1.71057,-359.873 L 1.75,-360.5 L 1.75,-363.5 L 1.71057,-364.127
 L 1.59291,-364.743 L 1.39888,-365.341 L 1.13153,-365.909 L 0.795074,-366.439 L 0.394836,-366.923 L -0.0628662,-367.353
 L -0.570862,-367.722 L -1.12109,-368.024 L -1.70491,-368.255 L -2.31308,-368.411 L -2.93604,-368.49 L -6.56395,-368.49
 L -7.1869,-368.411 L -7.79507,-368.255 L -8.37889,-368.024 L -8.92912,-367.722 L -9.43712,-367.353 L -9.89484,-366.923
 L -10.2951,-366.439 L -10.6315,-365.909 L -10.75,-365.657 L -10.75,-395.5 L -10.7145,-396.064 L -10.6086,-396.619
 L -10.434,-397.157 L -10.1934,-397.668 L -9.89056,-398.145 L -9.53035,-398.58 L -9.11839,-398.967 L -8.66121,-399.299
 L -8.166,-399.572 L -7.64056,-399.78 L -7.0932,-399.92 L -6.53255,-399.991 L 6.53255,-399.991 L 7.0932,-399.92
 L 7.64056,-399.78 L 8.166,-399.572 L 8.66121,-399.299 L 9.11839,-398.967 L 9.53035,-398.58 L 9.89056,-398.145
 L 10.1934,-397.668 L 10.434,-397.157 L 10.6086,-396.619 L 10.7145,-396.064 L 10.75,-395.5 L 10.75,-360.5
 L 10.7145,-359.936 L 10.6086,-359.381 L 10.434,-358.843 L 10.1934,-358.332 L 9.89056,-357.855 L 9.53035,-357.42
 L 9.11839,-357.033 L 8.66121,-356.701 L 8.166,-356.428 L 7.64056,-356.22 L 7.0932,-356.08 L 6.53255,-356.009
 z
M 4.21844,-390.544 L 4.52254,-390.622 L 4.81444,-390.738 L 5.08955,-390.889 L 5.34355,-391.074 L 5.57242,-391.289
 L 5.77254,-391.531 L 5.94077,-391.796 L 6.07443,-392.08 L 6.17145,-392.378 L 6.23029,-392.687 L 6.25,-393
 L 6.23029,-393.313 L 6.17145,-393.622 L 6.07443,-393.92 L 5.94077,-394.204 L 5.77254,-394.469 L 5.57242,-394.711
 L 5.34355,-394.926 L 5.08955,-395.111 L 4.81444,-395.262 L 4.52254,-395.378 L 4.21844,-395.456 L 3.90697,-395.495
 L 3.59302,-395.495 L 3.28154,-395.456 L 2.97745,-395.378 L 2.68555,-395.262 L 2.41043,-395.111 L 2.15643,-394.926
 L 1.92757,-394.711 L 1.72745,-394.469 L 1.55922,-394.204 L 1.42555,-393.92 L 1.32854,-393.622 L 1.2697,-393.313
 L 1.25,-393 L 1.2697,-392.687 L 1.32854,-392.378 L 1.42555,-392.08 L 1.55922,-391.796 L 1.72745,-391.531
 L 1.92757,-391.289 L 2.15643,-391.074 L 2.41043,-390.889 L 2.68555,-390.738 L 2.97745,-390.622 L 3.28154,-390.544
 L 3.59302,-390.505 L 3.90697,-390.505 z
M 3.65581,-391.503 L 3.46892,-391.527 L 3.28647,-391.573 L 3.11133,-391.643 L 2.94626,-391.734 L 2.79385,-391.844
 L 2.65654,-391.973 L 2.53647,-392.118 L 2.43553,-392.277 L 2.35533,-392.448 L 2.29712,-392.627 L 2.26183,-392.812
 L 2.25,-393 L 2.26183,-393.188 L 2.29712,-393.373 L 2.35533,-393.552 L 2.43553,-393.723 L 2.53647,-393.882
 L 2.65654,-394.027 L 2.79385,-394.156 L 2.94626,-394.266 L 3.11133,-394.357 L 3.28647,-394.427 L 3.46892,-394.473
 L 3.65581,-394.497 L 3.84418,-394.497 L 4.03107,-394.473 L 4.21352,-394.427 L 4.38866,-394.357 L 4.55373,-394.266
 L 4.70613,-394.156 L 4.84344,-394.027 L 4.96352,-393.882 L 5.06445,-393.723 L 5.14465,-393.552 L 5.20287,-393.373
 L 5.23816,-393.188 L 5.25,-393 L 5.23816,-392.812 L 5.20287,-392.627 L 5.14465,-392.448 L 5.06445,-392.277
 L 4.96352,-392.118 L 4.84344,-391.973 L 4.70613,-391.844 L 4.55373,-391.734 L 4.38866,-391.643 L 4.21352,-391.573
 L 4.03107,-391.527 L 3.84418,-391.503 z
M -3.84418,-361.503 L -4.03107,-361.527 L -4.21352,-361.573 L -4.38866,-361.643 L -4.55373,-361.734 L -4.70613,-361.844
 L -4.84344,-361.973 L -4.96352,-362.118 L -5.06445,-362.277 L -5.14465,-362.448 L -5.20287,-362.627 L -5.23816,-362.812
 L -5.25,-363 L -5.23816,-363.188 L -5.20287,-363.373 L -5.14465,-363.552 L -5.06445,-363.723 L -4.96352,-363.882
 L -4.84344,-364.027 L -4.70613,-364.156 L -4.55373,-364.266 L -4.38866,-364.357 L -4.21352,-364.427 L -4.03107,-364.473
 L -3.84418,-364.497 L -3.65581,-364.497 L -3.46892,-364.473 L -3.28647,-364.427 L -3.11133,-364.357 L -2.94626,-364.266
 L -2.79385,-364.156 L -2.65654,-364.027 L -2.53647,-363.882 L -2.43553,-363.723 L -2.35533,-363.552 L -2.29712,-363.373
 L -2.26183,-363.188 L -2.25,-363 L -2.26183,-362.812 L -2.29712,-362.627 L -2.35533,-362.448 L -2.43553,-362.277
 L -2.53647,-362.118 L -2.65654,-361.973 L -2.79385,-361.844 L -2.94626,-361.734 L -3.11133,-361.643 L -3.28647,-361.573
 L -3.46892,-361.527 L -3.65581,-361.503 z
M 7.1869,-301.589 L 7.79507,-301.745 L 8.37889,-301.976 L 8.92912,-302.278 L 9.43712,-302.647 L 9.89484,-303.077
 L 10.2951,-303.561 L 10.6315,-304.091 L 10.8989,-304.659 L 11.0929,-305.257 L 11.2106,-305.873 L 11.25,-306.5
 L 11.25,-341.5 L 11.2106,-342.127 L 11.0929,-342.743 L 10.8989,-343.341 L 10.6315,-343.909 L 10.2951,-344.439
 L 9.89484,-344.923 L 9.43712,-345.353 L 8.92912,-345.722 L 8.37889,-346.024 L 7.79507,-346.255 L 7.1869,-346.411
 L 6.56395,-346.49 L -6.56395,-346.49 L -7.1869,-346.411 L -7.79507,-346.255 L -8.37889,-346.024 L -8.92912,-345.722
 L -9.43712,-345.353 L -9.89484,-344.923 L -10.2951,-344.439 L -10.6315,-343.909 L -10.8989,-343.341 L -11.0929,-342.743
 L -11.2106,-342.127 L -11.25,-341.5 L -11.25,-306.5 L -11.2106,-305.873 L -11.0929,-305.257 L -10.8989,-304.659
 L -10.6315,-304.091 L -10.2951,-303.561 L -9.89484,-303.077 L -9.43712,-302.647 L -8.92912,-302.278 L -8.37889,-301.976
 L -7.79507,-301.745 L -7.1869,-301.589 L -6.56395,-301.51 L 6.56395,-301.51 z
M -1.06104,-302.009 L -0.570862,-302.278 L -0.0628662,-302.647 L 0.394836,-303.077 L 0.795074,-303.561 L 1.13153,-304.091
 L 1.39888,-304.659 L 1.59291,-305.257 L 1.71057,-305.873 L 1.75,-306.5 L 1.75,-309.5 L 1.71057,-310.127
 L 1.59291,-310.743 L 1.39888,-311.341 L 1.13153,-311.909 L 0.795074,-312.439 L 0.394836,-312.923 L -0.0628662,-313.353
 L -0.570862,-313.722 L -1.12109,-314.024 L -1.70491,-314.255 L -2.31308,-314.411 L -2.93604,-314.49 L -6.56395,-314.49
 L -7.1869,-314.411 L -7.79507,-314.255 L -8.37889,-314.024 L -8.92912,-313.722 L -9.43712,-313.353 L -9.89484,-312.923
 L -10.2951,-312.439 L -10.6315,-311.909 L -10.75,-311.657 L -10.75,-341.5 L -10.7145,-342.064 L -10.6086,-342.619
 L -10.434,-343.157 L -10.1934,-343.668 L -9.89056,-344.145 L -9.53035,-344.58 L -9.11839,-344.967 L -8.66121,-345.299
 L -8.166,-345.572 L -7.64056,-345.78 L -7.0932,-345.92 L -6.53255,-345.991 L 6.53255,-345.991 L 7.0932,-345.92
 L 7.64056,-345.78 L 8.166,-345.572 L 8.66121,-345.299 L 9.11839,-344.967 L 9.53035,-344.58 L 9.89056,-344.145
 L 10.1934,-343.668 L 10.434,-343.157 L 10.6086,-342.619 L 10.7145,-342.064 L 10.75,-341.5 L 10.75,-306.5
 L 10.7145,-305.936 L 10.6086,-305.381 L 10.434,-304.843 L 10.1934,-304.332 L 9.89056,-303.855 L 9.53035,-303.42
 L 9.11839,-303.033 L 8.66121,-302.701 L 8.166,-302.428 L 7.64056,-302.22 L 7.0932,-302.08 L 6.53255,-302.009
 z
M 4.21844,-336.544 L 4.52254,-336.622 L 4.81444,-336.738 L 5.08955,-336.889 L 5.34355,-337.074 L 5.57242,-337.289
 L 5.77254,-337.531 L 5.94077,-337.796 L 6.07443,-338.08 L 6.17145,-338.378 L 6.23029,-338.687 L 6.25,-339
 L 6.23029,-339.313 L 6.17145,-339.622 L 6.07443,-339.92 L 5.94077,-340.204 L 5.77254,-340.469 L 5.57242,-340.711
 L 5.34355,-340.926 L 5.08955,-341.111 L 4.81444,-341.262 L 4.52254,-341.378 L 4.21844,-341.456 L 3.90697,-341.495
 L 3.59302,-341.495 L 3.28154,-341.456 L 2.97745,-341.378 L 2.68555,-341.262 L 2.41043,-341.111 L 2.15643,-340.926
 L 1.92757,-340.711 L 1.72745,-340.469 L 1.55922,-340.204 L 1.42555,-339.92 L 1.32854,-339.622 L 1.2697,-339.313
 L 1.25,-339 L 1.2697,-338.687 L 1.32854,-338.378 L 1.42555,-338.08 L 1.55922,-337.796 L 1.72745,-337.531
 L 1.92757,-337.289 L 2.15643,-337.074 L 2.41043,-336.889 L 2.68555,-336.738 L 2.97745,-336.622 L 3.28154,-336.544
 L 3.59302,-336.505 L 3.90697,-336.505 z
M 3.65581,-337.503 L 3.46892,-337.527 L 3.28647,-337.573 L 3.11133,-337.643 L 2.94626,-337.734 L 2.79385,-337.844
 L 2.65654,-337.973 L 2.53647,-338.118 L 2.43553,-338.277 L 2.35533,-338.448 L 2.29712,-338.627 L 2.26183,-338.812
 L 2.25,-339 L 2.26183,-339.188 L 2.29712,-339.373 L 2.35533,-339.552 L 2.43553,-339.723 L 2.53647,-339.882
 L 2.65654,-340.027 L 2.79385,-340.156 L 2.94626,-340.266 L 3.11133,-340.357 L 3.28647,-340.427 L 3.46892,-340.473
 L 3.65581,-340.497 L 3.84418,-340.497 L 4.03107,-340.473 L 4.21352,-340.427 L 4.38866,-340.357 L 4.55373,-340.266
 L 4.70613,-340.156 L 4.84344,-340.027 L 4.96352,-339.882 L 5.06445,-339.723 L 5.14465,-339.552 L 5.20287,-339.373
 L 5.23816,-339.188 L 5.25,-339 L 5.23816,-338.812 L 5.20287,-338.627 L 5.14465,-338.448 L 5.06445,-338.277
 L 4.96352,-338.118 L 4.84344,-337.973 L 4.70613,-337.844 L 4.55373,-337.734 L 4.38866,-337.643 L 4.21352,-337.573
 L 4.03107,-337.527 L 3.84418,-337.503 z
M -3.84418,-307.503 L -4.03107,-307.527 L -4.21352,-307.573 L -4.38866,-307.643 L -4.55373,-307.734 L -4.70613,-307.844
 L -4.84344,-307.973 L -4.96352,-308.118 L -5.06445,-308.277 L -5.14465,-308.448 L -5.20287,-308.627 L -5.23816,-308.812
 L -5.25,-309 L -5.23816,-309.188 L -5.20287,-309.373 L -5.14465,-309.552 L -5.06445,-309.723 L -4.96352,-309.882
 L -4.84344,-310.027 L -4.70613,-310.156 L -4.55373,-310.266 L -4.38866,-310.357 L -4.21352,-310.427 L -4.03107,-310.473
 L -3.84418,-310.497 L -3.65581,-310.497 L -3.46892,-310.473 L -3.28647,-310.427 L -3.11133,-310.357 L -2.94626,-310.266
 L -2.79385,-310.156 L -2.65654,-310.027 L -2.53647,-309.882 L -2.43553,-309.723 L -2.35533,-309.552 L -2.29712,-309.373
 L -2.26183,-309.188 L -2.25,-309 L -2.26183,-308.812 L -2.29712,-308.627 L -2.35533,-308.448 L -2.43553,-308.277
 L -2.53647,-308.118 L -2.65654,-307.973 L -2.79385,-307.844 L -2.94626,-307.734 L -3.11133,-307.643 L -3.28647,-307.573
 L -3.46892,-307.527 L -3.65581,-307.503 z
M 7.1869,-247.589 L 7.79507,-247.745 L 8.37889,-247.976 L 8.92912,-248.278 L 9.43712,-248.647 L 9.89484,-249.077
 L 10.2951,-249.561 L 10.6315,-250.091 L 10.8989,-250.659 L 11.0929,-251.257 L 11.2106,-251.873 L 11.25,-252.5
 L 11.25,-287.5 L 11.2106,-288.127 L 11.0929,-288.743 L 10.8989,-289.341 L 10.6315,-289.909 L 10.2951,-290.439
 L 9.89484,-290.923 L 9.43712,-291.353 L 8.92912,-291.722 L 8.37889,-292.024 L 7.79507,-292.255 L 7.1869,-292.411
 L 6.56395,-292.49 L -6.56395,-292.49 L -7.1869,-292.411 L -7.79507,-292.255 L -8.37889,-292.024 L -8.92912,-291.722
 L -9.43712,-291.353 L -9.89484,-290.923 L -10.2951,-290.439 L -10.6315,-289.909 L -10.8989,-289.341 L -11.0929,-288.743
 L -11.2106,-288.127 L -11.25,-287.5 L -11.25,-252.5 L -11.2106,-251.873 L -11.0929,-251.257 L -10.8989,-250.659
 L -10.6315,-250.091 L -10.2951,-249.561 L -9.89484,-249.077 L -9.43712,-248.647 L -8.92912,-248.278 L -8.37889,-247.976
 L -7.79507,-247.745 L -7.1869,-247.589 L -6.56395,-247.51 L 6.56395,-247.51 z
M -0.285675,-248.486 L -0.0628662,-248.647 L 0.394836,-249.077 L 0.795074,-249.561 L 1.13153,-250.091 L 1.39888,-250.659
 L 1.59291,-251.257 L 1.71057,-251.873 L 1.75,-252.5 L 1.75,-255.5 L 1.71057,-256.127 L 1.59291,-256.743
 L 1.39888,-257.341 L 1.13153,-257.909 L 0.795074,-258.439 L 0.394836,-258.923 L -0.0628662,-259.353 L -0.570862,-259.722
 L -1.12109,-260.024 L -1.70491,-260.255 L -2.31308,-260.411 L -2.93604,-260.49 L -6.56395,-260.49 L -7.1869,-260.411
 L -7.79507,-260.255 L -8.37889,-260.024 L -8.92912,-259.722 L -9.43712,-259.353 L -9.89484,-258.923 L -10.2724,-258.466
 L -10.2724,-287.5 L -10.2407,-288.004 L -10.146,-288.5 L -9.98991,-288.981 L -9.77484,-289.438 L -9.50417,-289.864
 L -9.18219,-290.254 L -8.81395,-290.599 L -8.40529,-290.896 L -7.96265,-291.14 L -7.49298,-291.326 L -7.00371,-291.451
 L -6.50256,-291.514 L 0.285675,-291.514 L 0.0628662,-291.353 L -0.394836,-290.923 L -0.795074,-290.439 L -1.13153,-289.909
 L -1.39888,-289.341 L -1.59291,-288.743 L -1.71057,-288.127 L -1.75,-287.5 L -1.75,-284.5 L -1.71057,-283.873
 L -1.59291,-283.257 L -1.39888,-282.659 L -1.13153,-282.091 L -0.795074,-281.561 L -0.394836,-281.077 L 0.0628662,-280.647
 L 0.570862,-280.278 L 1.12109,-279.976 L 1.70491,-279.745 L 2.31308,-279.589 L 2.93604,-279.51 L 6.56395,-279.51
 L 7.1869,-279.589 L 7.79507,-279.745 L 8.37889,-279.976 L 8.92912,-280.278 L 9.43712,-280.647 L 9.89484,-281.077
 L 10.2724,-281.534 L 10.2724,-252.5 L 10.2407,-251.996 L 10.146,-251.5 L 9.98991,-251.019 L 9.77484,-250.562
 L 9.50417,-250.136 L 9.18219,-249.746 L 8.81395,-249.401 L 8.40529,-249.104 L 7.96265,-248.86 L 7.49298,-248.674
 L 7.00371,-248.549 L 6.50256,-248.486 z
M 3.65581,-283.503 L 3.46892,-283.527 L 3.28647,-283.573 L 3.11133,-283.643 L 2.94626,-283.734 L 2.79385,-283.844
 L 2.65654,-283.973 L 2.53647,-284.118 L 2.43553,-284.277 L 2.35533,-284.448 L 2.29712,-284.627 L 2.26183,-284.812
 L 2.25,-285 L 2.26183,-285.188 L 2.29712,-285.373 L 2.35533,-285.552 L 2.43553,-285.723 L 2.53647,-285.882
 L 2.65654,-286.027 L 2.79385,-286.156 L 2.94626,-286.266 L 3.11133,-286.357 L 3.28647,-286.427 L 3.46892,-286.473
 L 3.65581,-286.497 L 3.84418,-286.497 L 4.03107,-286.473 L 4.21352,-286.427 L 4.38866,-286.357 L 4.55373,-286.266
 L 4.70613,-286.156 L 4.84344,-286.027 L 4.96352,-285.882 L 5.06445,-285.723 L 5.14465,-285.552 L 5.20287,-285.373
 L 5.23816,-285.188 L 5.25,-285 L 5.23816,-284.812 L 5.20287,-284.627 L 5.14465,-284.448 L 5.06445,-284.277
 L 4.96352,-284.118 L 4.84344,-283.973 L 4.70613,-283.844 L 4.55373,-283.734 L 4.38866,-283.643 L 4.21352,-283.573
 L 4.03107,-283.527 L 3.84418,-283.503 z
M -3.84418,-253.503 L -4.03107,-253.527 L -4.21352,-253.573 L -4.38866,-253.643 L -4.55373,-253.734 L -4.70613,-253.844
 L -4.84344,-253.973 L -4.96352,-254.118 L -5.06445,-254.277 L -5.14465,-254.448 L -5.20287,-254.627 L -5.23816,-254.812
 L -5.25,-255 L -5.23816,-255.188 L -5.20287,-255.373 L -5.14465,-255.552 L -5.06445,-255.723 L -4.96352,-255.882
 L -4.84344,-256.027 L -4.70613,-256.156 L -4.55373,-256.266 L -4.38866,-256.357 L -4.21352,-256.427 L -4.03107,-256.473
 L -3.84418,-256.497 L -3.65581,-256.497 L -3.46892,-256.473 L -3.28647,-256.427 L -3.11133,-256.357 L -2.94626,-256.266
 L -2.79385,-256.156 L -2.65654,-256.027 L -2.53647,-255.882 L -2.43553,-255.723 L -2.35533,-255.552 L -2.29712,-255.373
 L -2.26183,-255.188 L -2.25,-255 L -2.26183,-254.812 L -2.29712,-254.627 L -2.35533,-254.448 L -2.43553,-254.277
 L -2.53647,-254.118 L -2.65654,-253.973 L -2.79385,-253.844 L -2.94626,-253.734 L -3.11133,-253.643 L -3.28647,-253.573
 L -3.46892,-253.527 L -3.65581,-253.503 z
M 7.1869,-193.589 L 7.79507,-193.745 L 8.37889,-193.976 L 8.92912,-194.278 L 9.43712,-194.647 L 9.89484,-195.077
 L 10.2951,-195.561 L 10.6315,-196.091 L 10.8989,-196.659 L 11.0929,-197.257 L 11.2106,-197.873 L 11.25,-198.5
 L 11.25,-233.5 L 11.2106,-234.127 L 11.0929,-234.743 L 10.8989,-235.341 L 10.6315,-235.909 L 10.2951,-236.439
 L 9.89484,-236.923 L 9.43712,-237.353 L 8.92912,-237.722 L 8.37889,-238.024 L 7.79507,-238.255 L 7.1869,-238.411
 L 6.56395,-238.49 L -6.56395,-238.49 L -7.1869,-238.411 L -7.79507,-238.255 L -8.37889,-238.024 L -8.92912,-237.722
 L -9.43712,-237.353 L -9.89484,-236.923 L -10.2951,-236.439 L -10.6315,-235.909 L -10.8989,-235.341 L -11.0929,-234.743
 L -11.2106,-234.127 L -11.25,-233.5 L -11.25,-198.5 L -11.2106,-197.873 L -11.0929,-197.257 L -10.8989,-196.659
 L -10.6315,-196.091 L -10.2951,-195.561 L -9.89484,-195.077 L -9.43712,-194.647 L -8.92912,-194.278 L -8.37889,-193.976
 L -7.79507,-193.745 L -7.1869,-193.589 L -6.56395,-193.51 L 6.56395,-193.51 z
M 3.59929,-228.605 L 3.30028,-228.643 L 3.00835,-228.717 L 2.72812,-228.828 L 2.464,-228.974 L 2.22017,-229.151
 L 2.00047,-229.357 L 1.80835,-229.589 L 1.64685,-229.844 L 1.51852,-230.117 L 1.4254,-230.403 L 1.36891,-230.699
 L 1.34999,-231 L 1.36891,-231.301 L 1.4254,-231.597 L 1.51852,-231.883 L 1.64685,-232.156 L 1.80835,-232.411
 L 2.00047,-232.643 L 2.22017,-232.849 L 2.464,-233.026 L 2.72812,-233.172 L 3.00835,-233.283 L 3.30028,-233.357
 L 3.59929,-233.395 L 3.9007,-233.395 L 4.19971,-233.357 L 4.49164,-233.283 L 4.77187,-233.172 L 5.03598,-233.026
 L 5.27982,-232.849 L 5.49951,-232.643 L 5.69164,-232.411 L 5.85313,-232.156 L 5.98146,-231.883 L 6.07458,-231.597
 L 6.13107,-231.301 L 6.14999,-231 L 6.13107,-230.699 L 6.07458,-230.403 L 5.98146,-230.117 L 5.85313,-229.844
 L 5.69164,-229.589 L 5.49951,-229.357 L 5.27982,-229.151 L 5.03598,-228.974 L 4.77187,-228.828 L 4.49164,-228.717
 L 4.19971,-228.643 L 3.9007,-228.605 z
M -3.84418,-229.503 L -4.03107,-229.527 L -4.21352,-229.573 L -4.38866,-229.643 L -4.55373,-229.734 L -4.70613,-229.844
 L -4.84344,-229.973 L -4.96352,-230.118 L -5.06445,-230.277 L -5.14465,-230.448 L -5.20287,-230.627 L -5.23816,-230.812
 L -5.25,-231 L -5.23816,-231.188 L -5.20287,-231.373 L -5.14465,-231.552 L -5.06445,-231.723 L -4.96352,-231.882
 L -4.84344,-232.027 L -4.70613,-232.156 L -4.55373,-232.266 L -4.38866,-232.357 L -4.21352,-232.427 L -4.03107,-232.473
 L -3.84418,-232.497 L -3.65581,-232.497 L -3.46892,-232.473 L -3.28647,-232.427 L -3.11133,-232.357 L -2.94626,-232.266
 L -2.79385,-232.156 L -2.65654,-232.027 L -2.53647,-231.882 L -2.43553,-231.723 L -2.35533,-231.552 L -2.29712,-231.373
 L -2.26183,-231.188 L -2.25,-231 L -2.26183,-230.812 L -2.29712,-230.627 L -2.35533,-230.448 L -2.43553,-230.277
 L -2.53647,-230.118 L -2.65654,-229.973 L -2.79385,-229.844 L -2.94626,-229.734 L -3.11133,-229.643 L -3.28647,-229.573
 L -3.46892,-229.527 L -3.65581,-229.503 z
M -3.9007,-198.605 L -4.19971,-198.643 L -4.49164,-198.717 L -4.77187,-198.828 L -5.03598,-198.974 L -5.27982,-199.151
 L -5.49951,-199.357 L -5.69164,-199.589 L -5.85313,-199.844 L -5.98146,-200.117 L -6.07458,-200.403 L -6.13107,-200.699
 L -6.14999,-201 L -6.13107,-201.301 L -6.07458,-201.597 L -5.98146,-201.883 L -5.85313,-202.156 L -5.69164,-202.411
 L -5.49951,-202.643 L -5.27982,-202.849 L -5.03598,-203.026 L -4.77187,-203.172 L -4.49164,-203.283 L -4.19971,-203.357
 L -3.9007,-203.395 L -3.59929,-203.395 L -3.30028,-203.357 L -3.00835,-203.283 L -2.72812,-203.172 L -2.464,-203.026
 L -2.22017,-202.849 L -2.00047,-202.643 L -1.80835,-202.411 L -1.64685,-202.156 L -1.51852,-201.883 L -1.4254,-201.597
 L -1.36891,-201.301 L -1.34999,-201 L -1.36891,-200.699 L -1.4254,-200.403 L -1.51852,-200.117 L -1.64685,-199.844
 L -1.80835,-199.589 L -2.00047,-199.357 L -2.22017,-199.151 L -2.464,-198.974 L -2.72812,-198.828 L -3.00835,-198.717
 L -3.30028,-198.643 L -3.59929,-198.605 z
M 3.65581,-199.503 L 3.46892,-199.527 L 3.28647,-199.573 L 3.11133,-199.643 L 2.94626,-199.734 L 2.79385,-199.844
 L 2.65654,-199.973 L 2.53647,-200.118 L 2.43553,-200.277 L 2.35533,-200.448 L 2.29712,-200.627 L 2.26183,-200.812
 L 2.25,-201 L 2.26183,-201.188 L 2.29712,-201.373 L 2.35533,-201.552 L 2.43553,-201.723 L 2.53647,-201.882
 L 2.65654,-202.027 L 2.79385,-202.156 L 2.94626,-202.266 L 3.11133,-202.357 L 3.28647,-202.427 L 3.46892,-202.473
 L 3.65581,-202.497 L 3.84418,-202.497 L 4.03107,-202.473 L 4.21352,-202.427 L 4.38866,-202.357 L 4.55373,-202.266
 L 4.70613,-202.156 L 4.84344,-202.027 L 4.96352,-201.882 L 5.06445,-201.723 L 5.14465,-201.552 L 5.20287,-201.373
 L 5.23816,-201.188 L 5.25,-201 L 5.23816,-200.812 L 5.20287,-200.627 L 5.14465,-200.448 L 5.06445,-200.277
 L 4.96352,-200.118 L 4.84344,-199.973 L 4.70613,-199.844 L 4.55373,-199.734 L 4.38866,-199.643 L 4.21352,-199.573
 L 4.03107,-199.527 L 3.84418,-199.503 z
" stroke="black" fill="lightgray" stroke-width="0.5"/>
</svg>
