<?xml version="1.0" standalone="no"?>
<!DOCTYPE svg PUBLIC "-//W3C//DTD SVG 1.1//EN" "http://www.w3.org/Graphics/SVG/1.1/DTD/svg11.dtd">
<svg width="8mm" height="18mm" viewBox="-4 -32 8 18" xmlns="http://www.w3.org/2000/svg" version="1.1">
<title>OpenSCAD Model</title>
<path d="
M 3.17349,-28.75 L 1.58675,-31.4983 L -1.58675,-31.4983 L -3.17349,-28.75 L -1.58675,-26.0017 L 1.58675,-26.0017
 z
M -0.0941772,-27.253 L -0.281067,-27.2766 L -0.463516,-27.3234 L -0.638657,-27.3928 L -0.803726,-27.4835 L -0.956131,-27.5942
 L -1.09344,-27.7232 L -1.21352,-27.8683 L -1.31445,-28.0274 L -1.39465,-28.1978 L -1.45287,-28.377 L -1.48816,-28.562
 L -1.5,-28.75 L -1.48816,-28.938 L -1.45287,-29.123 L -1.39465,-29.3022 L -1.31445,-29.4726 L -1.21352,-29.6317
 L -1.09344,-29.7768 L -0.956131,-29.9058 L -0.803726,-30.0165 L -0.638657,-30.1072 L -0.463516,-30.1766 L -0.281067,-30.2234
 L -0.0941772,-30.247 L 0.0941772,-30.247 L 0.281067,-30.2234 L 0.463516,-30.1766 L 0.638657,-30.1072 L 0.803726,-30.0165
 L 0.956131,-29.9058 L 1.09344,-29.7768 L 1.21352,-29.6317 L 1.31445,-29.4726 L 1.39465,-29.3022 L 1.45287,-29.123
 L 1.48816,-28.938 L 1.5,-28.75 L 1.48816,-28.562 L 1.45287,-28.377 L 1.39465,-28.1978 L 1.31445,-28.0274
 L 1.21352,-27.8683 L 1.09344,-27.7232 L 0.956131,-27.5942 L 0.803726,-27.4835 L 0.638657,-27.3928 L 0.463516,-27.3234
 L 0.281067,-27.2766 L 0.0941772,-27.253 z
M 3.17349,-23 L 1.58675,-25.7483 L -1.58675,-25.7483 L -3.17349,-23 L -1.58675,-20.2517 L 1.58675,-20.2517
 z
M -0.0941772,-21.503 L -0.281067,-21.5266 L -0.463516,-21.5734 L -0.638657,-21.6428 L -0.803726,-21.7335 L -0.956131,-21.8442
 L -1.09344,-21.9732 L -1.21352,-22.1183 L -1.31445,-22.2774 L -1.39465,-22.4478 L -1.45287,-22.627 L -1.48816,-22.812
 L -1.5,-23 L -1.48816,-23.188 L -1.45287,-23.373 L -1.39465,-23.5522 L -1.31445,-23.7226 L -1.21352,-23.8817
 L -1.09344,-24.0268 L -0.956131,-24.1558 L -0.803726,-24.2665 L -0.638657,-24.3572 L -0.463516,-24.4266 L -0.281067,-24.4734
 L -0.0941772,-24.497 L 0.0941772,-24.497 L 0.281067,-24.4734 L 0.463516,-24.4266 L 0.638657,-24.3572 L 0.803726,-24.2665
 L 0.956131,-24.1558 L 1.09344,-24.0268 L 1.21352,-23.8817 L 1.31445,-23.7226 L 1.39465,-23.5522 L 1.45287,-23.373
 L 1.48816,-23.188 L 1.5,-23 L 1.48816,-22.812 L 1.45287,-22.627 L 1.39465,-22.4478 L 1.31445,-22.2774
 L 1.21352,-22.1183 L 1.09344,-21.9732 L 0.956131,-21.8442 L 0.803726,-21.7335 L 0.638657,-21.6428 L 0.463516,-21.5734
 L 0.281067,-21.5266 L 0.0941772,-21.503 z
M 3.17349,-17.25 L 1.58675,-19.9983 L -1.58675,-19.9983 L -3.17349,-17.25 L -1.58675,-14.5017 L 1.58675,-14.5017
 z
M -0.0941772,-15.753 L -0.281067,-15.7766 L -0.463516,-15.8234 L -0.638657,-15.8928 L -0.803726,-15.9835 L -0.956131,-16.0942
 L -1.09344,-16.2232 L -1.21352,-16.3683 L -1.31445,-16.5274 L -1.39465,-16.6978 L -1.45287,-16.877 L -1.48816,-17.062
 L -1.5,-17.25 L -1.48816,-17.438 L -1.45287,-17.623 L -1.39465,-17.8022 L -1.31445,-17.9726 L -1.21352,-18.1317
 L -1.09344,-18.2768 L -0.956131,-18.4058 L -0.803726,-18.5165 L -0.638657,-18.6072 L -0.463516,-18.6766 L -0.281067,-18.7234
 L -0.0941772,-18.747 L 0.0941772,-18.747 L 0.281067,-18.7234 L 0.463516,-18.6766 L 0.638657,-18.6072 L 0.803726,-18.5165
 L 0.956131,-18.4058 L 1.09344,-18.2768 L 1.21352,-18.1317 L 1.31445,-17.9726 L 1.39465,-17.8022 L 1.45287,-17.623
 L 1.48816,-17.438 L 1.5,-17.25 L 1.48816,-17.062 L 1.45287,-16.877 L 1.39465,-16.6978 L 1.31445,-16.5274
 L 1.21352,-16.3683 L 1.09344,-16.2232 L 0.956131,-16.0942 L 0.803726,-15.9835 L 0.638657,-15.8928 L 0.463516,-15.8234
 L 0.281067,-15.7766 L 0.0941772,-15.753 z
" stroke="black" fill="lightgray" stroke-width="0.5"/>
</svg>
