<?xml version="1.0" standalone="no"?>
<!DOCTYPE svg PUBLIC "-//W3C//DTD SVG 1.1//EN" "http://www.w3.org/Graphics/SVG/1.1/DTD/svg11.dtd">
<svg width="45mm" height="98mm" viewBox="0 -184 45 98" xmlns="http://www.w3.org/2000/svg" version="1.1">
<title>OpenSCAD Model</title>
<path d="
M 40.4369,-140.089 L 41.0451,-140.245 L 41.6289,-140.476 L 42.1791,-140.778 L 42.6871,-141.147 L 43.1448,-141.577
 L 43.5451,-142.061 L 43.8815,-142.591 L 44.1489,-143.159 L 44.3429,-143.757 L 44.4606,-144.373 L 44.5,-145
 L 44.5,-179 L 44.4606,-179.627 L 44.3429,-180.243 L 44.1489,-180.841 L 43.8815,-181.409 L 43.5451,-181.939
 L 43.1448,-182.423 L 42.6871,-182.853 L 42.1791,-183.222 L 41.6289,-183.524 L 41.0451,-183.755 L 40.4369,-183.911
 L 39.8139,-183.99 L 5.18604,-183.99 L 4.56308,-183.911 L 3.95491,-183.755 L 3.37109,-183.524 L 2.82086,-183.222
 L 2.31287,-182.853 L 1.85515,-182.423 L 1.45491,-181.939 L 1.11845,-181.409 L 0.851105,-180.841 L 0.657074,-180.243
 L 0.539413,-179.627 L 0.5,-179 L 0.5,-145 L 0.539413,-144.373 L 0.657074,-143.757 L 0.851105,-143.159
 L 1.11845,-142.591 L 1.45491,-142.061 L 1.85515,-141.577 L 2.31287,-141.147 L 2.82086,-140.778 L 3.37109,-140.476
 L 3.95491,-140.245 L 4.56308,-140.089 L 5.18604,-140.01 L 39.8139,-140.01 z
M 7.31161,-174.006 L 6.93785,-174.053 L 6.57294,-174.147 L 6.22266,-174.286 L 5.89252,-174.467 L 5.58772,-174.688
 L 5.31308,-174.946 L 5.07294,-175.237 L 4.87108,-175.555 L 4.71066,-175.896 L 4.59424,-176.254 L 4.52365,-176.624
 L 4.5,-177 L 4.52365,-177.376 L 4.59424,-177.746 L 4.71066,-178.104 L 4.87108,-178.445 L 5.07294,-178.763
 L 5.31308,-179.054 L 5.58772,-179.312 L 5.89252,-179.533 L 6.22266,-179.714 L 6.57294,-179.853 L 6.93785,-179.947
 L 7.31161,-179.994 L 7.68837,-179.994 L 8.06213,-179.947 L 8.42705,-179.853 L 8.77733,-179.714 L 9.10747,-179.533
 L 9.41226,-179.312 L 9.6869,-179.054 L 9.92705,-178.763 L 10.1289,-178.445 L 10.2893,-178.104 L 10.4057,-177.746
 L 10.4763,-177.376 L 10.5,-177 L 10.4763,-176.624 L 10.4057,-176.254 L 10.2893,-175.896 L 10.1289,-175.555
 L 9.92705,-175.237 L 9.6869,-174.946 L 9.41226,-174.688 L 9.10747,-174.467 L 8.77733,-174.286 L 8.42705,-174.147
 L 8.06213,-174.053 L 7.68837,-174.006 z
M 37.3116,-174.006 L 36.9379,-174.053 L 36.5729,-174.147 L 36.2227,-174.286 L 35.8925,-174.467 L 35.5877,-174.688
 L 35.3131,-174.946 L 35.0729,-175.237 L 34.8711,-175.555 L 34.7107,-175.896 L 34.5942,-176.254 L 34.5237,-176.624
 L 34.5,-177 L 34.5237,-177.376 L 34.5942,-177.746 L 34.7107,-178.104 L 34.8711,-178.445 L 35.0729,-178.763
 L 35.3131,-179.054 L 35.5877,-179.312 L 35.8925,-179.533 L 36.2227,-179.714 L 36.5729,-179.853 L 36.9379,-179.947
 L 37.3116,-179.994 L 37.6884,-179.994 L 38.0621,-179.947 L 38.427,-179.853 L 38.7773,-179.714 L 39.1075,-179.533
 L 39.4123,-179.312 L 39.6869,-179.054 L 39.927,-178.763 L 40.1289,-178.445 L 40.2893,-178.104 L 40.4057,-177.746
 L 40.4763,-177.376 L 40.5,-177 L 40.4763,-176.624 L 40.4057,-176.254 L 40.2893,-175.896 L 40.1289,-175.555
 L 39.927,-175.237 L 39.6869,-174.946 L 39.4123,-174.688 L 39.1075,-174.467 L 38.7773,-174.286 L 38.427,-174.147
 L 38.0621,-174.053 L 37.6884,-174.006 z
M 20.8267,-174.102 L 19.1534,-177 L 20.8267,-179.898 L 24.1733,-179.898 L 25.8466,-177 L 24.1733,-174.102
 z
M 29.9058,-175.503 L 29.7189,-175.527 L 29.5365,-175.573 L 29.3613,-175.643 L 29.1963,-175.734 L 29.0439,-175.844
 L 28.9065,-175.973 L 28.7865,-176.118 L 28.6855,-176.277 L 28.6053,-176.448 L 28.5471,-176.627 L 28.5118,-176.812
 L 28.5,-177 L 28.5118,-177.188 L 28.5471,-177.373 L 28.6053,-177.552 L 28.6855,-177.723 L 28.7865,-177.882
 L 28.9065,-178.027 L 29.0439,-178.156 L 29.1963,-178.266 L 29.3613,-178.357 L 29.5365,-178.427 L 29.7189,-178.473
 L 29.9058,-178.497 L 30.0942,-178.497 L 30.2811,-178.473 L 30.4635,-178.427 L 30.6387,-178.357 L 30.8037,-178.266
 L 30.9561,-178.156 L 31.0934,-178.027 L 31.2135,-177.882 L 31.3145,-177.723 L 31.3947,-177.552 L 31.4529,-177.373
 L 31.4882,-177.188 L 31.5,-177 L 31.4882,-176.812 L 31.4529,-176.627 L 31.3947,-176.448 L 31.3145,-176.277
 L 31.2135,-176.118 L 31.0934,-175.973 L 30.9561,-175.844 L 30.8037,-175.734 L 30.6387,-175.643 L 30.4635,-175.573
 L 30.2811,-175.527 L 30.0942,-175.503 z
M 14.9058,-175.503 L 14.7189,-175.527 L 14.5365,-175.573 L 14.3613,-175.643 L 14.1963,-175.734 L 14.0439,-175.844
 L 13.9065,-175.973 L 13.7865,-176.118 L 13.6855,-176.277 L 13.6053,-176.448 L 13.5471,-176.627 L 13.5118,-176.812
 L 13.5,-177 L 13.5118,-177.188 L 13.5471,-177.373 L 13.6053,-177.552 L 13.6855,-177.723 L 13.7865,-177.882
 L 13.9065,-178.027 L 14.0439,-178.156 L 14.1963,-178.266 L 14.3613,-178.357 L 14.5365,-178.427 L 14.7189,-178.473
 L 14.9058,-178.497 L 15.0942,-178.497 L 15.2811,-178.473 L 15.4635,-178.427 L 15.6387,-178.357 L 15.8037,-178.266
 L 15.9561,-178.156 L 16.0934,-178.027 L 16.2135,-177.882 L 16.3145,-177.723 L 16.3947,-177.552 L 16.4529,-177.373
 L 16.4882,-177.188 L 16.5,-177 L 16.4882,-176.812 L 16.4529,-176.627 L 16.3947,-176.448 L 16.3145,-176.277
 L 16.2135,-176.118 L 16.0934,-175.973 L 15.9561,-175.844 L 15.8037,-175.734 L 15.6387,-175.643 L 15.4635,-175.573
 L 15.2811,-175.527 L 15.0942,-175.503 z
M 13.4133,-166.752 L 11.8265,-169.5 L 13.4133,-172.248 L 16.5867,-172.248 L 18.1735,-169.5 L 16.5867,-166.752
 z
M 37.4058,-168.003 L 37.2189,-168.027 L 37.0365,-168.073 L 36.8613,-168.143 L 36.6963,-168.234 L 36.5439,-168.344
 L 36.4065,-168.473 L 36.2865,-168.618 L 36.1855,-168.777 L 36.1053,-168.948 L 36.0471,-169.127 L 36.0118,-169.312
 L 36,-169.5 L 36.0118,-169.688 L 36.0471,-169.873 L 36.1053,-170.052 L 36.1855,-170.223 L 36.2865,-170.382
 L 36.4065,-170.527 L 36.5439,-170.656 L 36.6963,-170.766 L 36.8613,-170.857 L 37.0365,-170.927 L 37.2189,-170.973
 L 37.4058,-170.997 L 37.5942,-170.997 L 37.7811,-170.973 L 37.9635,-170.927 L 38.1387,-170.857 L 38.3037,-170.766
 L 38.4561,-170.656 L 38.5934,-170.527 L 38.7135,-170.382 L 38.8145,-170.223 L 38.8947,-170.052 L 38.9529,-169.873
 L 38.9882,-169.688 L 39,-169.5 L 38.9882,-169.312 L 38.9529,-169.127 L 38.8947,-168.948 L 38.8145,-168.777
 L 38.7135,-168.618 L 38.5934,-168.473 L 38.4561,-168.344 L 38.3037,-168.234 L 38.1387,-168.143 L 37.9635,-168.073
 L 37.7811,-168.027 L 37.5942,-168.003 z
M 25.044,-157 L 25.044,-167 L 32.044,-167 L 32.044,-157 z
M 37.3116,-159.006 L 36.9379,-159.053 L 36.5729,-159.147 L 36.2227,-159.286 L 35.8925,-159.467 L 35.5877,-159.688
 L 35.3131,-159.946 L 35.0729,-160.237 L 34.8711,-160.555 L 34.7107,-160.896 L 34.5942,-161.254 L 34.5237,-161.624
 L 34.5,-162 L 34.5237,-162.376 L 34.5942,-162.746 L 34.7107,-163.104 L 34.8711,-163.445 L 35.0729,-163.763
 L 35.3131,-164.054 L 35.5877,-164.312 L 35.8925,-164.533 L 36.2227,-164.714 L 36.5729,-164.853 L 36.9379,-164.947
 L 37.3116,-164.994 L 37.6884,-164.994 L 38.0621,-164.947 L 38.427,-164.853 L 38.7773,-164.714 L 39.1075,-164.533
 L 39.4123,-164.312 L 39.6869,-164.054 L 39.927,-163.763 L 40.1289,-163.445 L 40.2893,-163.104 L 40.4057,-162.746
 L 40.4763,-162.376 L 40.5,-162 L 40.4763,-161.624 L 40.4057,-161.254 L 40.2893,-160.896 L 40.1289,-160.555
 L 39.927,-160.237 L 39.6869,-159.946 L 39.4123,-159.688 L 39.1075,-159.467 L 38.7773,-159.286 L 38.427,-159.147
 L 38.0621,-159.053 L 37.6884,-159.006 z
M 13.4133,-151.752 L 11.8265,-154.5 L 13.4133,-157.248 L 16.5867,-157.248 L 18.1735,-154.5 L 16.5867,-151.752
 z
M 37.4058,-153.003 L 37.2189,-153.027 L 37.0365,-153.073 L 36.8613,-153.143 L 36.6963,-153.234 L 36.5439,-153.344
 L 36.4065,-153.473 L 36.2865,-153.618 L 36.1855,-153.777 L 36.1053,-153.948 L 36.0471,-154.127 L 36.0118,-154.312
 L 36,-154.5 L 36.0118,-154.688 L 36.0471,-154.873 L 36.1053,-155.052 L 36.1855,-155.223 L 36.2865,-155.382
 L 36.4065,-155.527 L 36.5439,-155.656 L 36.6963,-155.766 L 36.8613,-155.857 L 37.0365,-155.927 L 37.2189,-155.973
 L 37.4058,-155.997 L 37.5942,-155.997 L 37.7811,-155.973 L 37.9635,-155.927 L 38.1387,-155.857 L 38.3037,-155.766
 L 38.4561,-155.656 L 38.5934,-155.527 L 38.7135,-155.382 L 38.8145,-155.223 L 38.8947,-155.052 L 38.9529,-154.873
 L 38.9882,-154.688 L 39,-154.5 L 38.9882,-154.312 L 38.9529,-154.127 L 38.8947,-153.948 L 38.8145,-153.777
 L 38.7135,-153.618 L 38.5934,-153.473 L 38.4561,-153.344 L 38.3037,-153.234 L 38.1387,-153.143 L 37.9635,-153.073
 L 37.7811,-153.027 L 37.5942,-153.003 z
M 7.31161,-144.006 L 6.93785,-144.053 L 6.57294,-144.147 L 6.22266,-144.286 L 5.89252,-144.467 L 5.58772,-144.688
 L 5.31308,-144.946 L 5.07294,-145.237 L 4.87108,-145.555 L 4.71066,-145.896 L 4.59424,-146.254 L 4.52365,-146.624
 L 4.5,-147 L 4.52365,-147.376 L 4.59424,-147.746 L 4.71066,-148.104 L 4.87108,-148.445 L 5.07294,-148.763
 L 5.31308,-149.054 L 5.58772,-149.312 L 5.89252,-149.533 L 6.22266,-149.714 L 6.57294,-149.853 L 6.93785,-149.947
 L 7.31161,-149.994 L 7.68837,-149.994 L 8.06213,-149.947 L 8.42705,-149.853 L 8.77733,-149.714 L 9.10747,-149.533
 L 9.41226,-149.312 L 9.6869,-149.054 L 9.92705,-148.763 L 10.1289,-148.445 L 10.2893,-148.104 L 10.4057,-147.746
 L 10.4763,-147.376 L 10.5,-147 L 10.4763,-146.624 L 10.4057,-146.254 L 10.2893,-145.896 L 10.1289,-145.555
 L 9.92705,-145.237 L 9.6869,-144.946 L 9.41226,-144.688 L 9.10747,-144.467 L 8.77733,-144.286 L 8.42705,-144.147
 L 8.06213,-144.053 L 7.68837,-144.006 z
M 37.3116,-144.006 L 36.9379,-144.053 L 36.5729,-144.147 L 36.2227,-144.286 L 35.8925,-144.467 L 35.5877,-144.688
 L 35.3131,-144.946 L 35.0729,-145.237 L 34.8711,-145.555 L 34.7107,-145.896 L 34.5942,-146.254 L 34.5237,-146.624
 L 34.5,-147 L 34.5237,-147.376 L 34.5942,-147.746 L 34.7107,-148.104 L 34.8711,-148.445 L 35.0729,-148.763
 L 35.3131,-149.054 L 35.5877,-149.312 L 35.8925,-149.533 L 36.2227,-149.714 L 36.5729,-149.853 L 36.9379,-149.947
 L 37.3116,-149.994 L 37.6884,-149.994 L 38.0621,-149.947 L 38.427,-149.853 L 38.7773,-149.714 L 39.1075,-149.533
 L 39.4123,-149.312 L 39.6869,-149.054 L 39.927,-148.763 L 40.1289,-148.445 L 40.2893,-148.104 L 40.4057,-147.746
 L 40.4763,-147.376 L 40.5,-147 L 40.4763,-146.624 L 40.4057,-146.254 L 40.2893,-145.896 L 40.1289,-145.555
 L 39.927,-145.237 L 39.6869,-144.946 L 39.4123,-144.688 L 39.1075,-144.467 L 38.7773,-144.286 L 38.427,-144.147
 L 38.0621,-144.053 L 37.6884,-144.006 z
M 20.8267,-144.102 L 19.1534,-147 L 20.8267,-149.898 L 24.1733,-149.898 L 25.8466,-147 L 24.1733,-144.102
 z
M 14.9058,-145.503 L 14.7189,-145.527 L 14.5365,-145.573 L 14.3613,-145.643 L 14.1963,-145.734 L 14.0439,-145.844
 L 13.9065,-145.973 L 13.7865,-146.118 L 13.6855,-146.277 L 13.6053,-146.448 L 13.5471,-146.627 L 13.5118,-146.812
 L 13.5,-147 L 13.5118,-147.188 L 13.5471,-147.373 L 13.6053,-147.552 L 13.6855,-147.723 L 13.7865,-147.882
 L 13.9065,-148.027 L 14.0439,-148.156 L 14.1963,-148.266 L 14.3613,-148.357 L 14.5365,-148.427 L 14.7189,-148.473
 L 14.9058,-148.497 L 15.0942,-148.497 L 15.2811,-148.473 L 15.4635,-148.427 L 15.6387,-148.357 L 15.8037,-148.266
 L 15.9561,-148.156 L 16.0934,-148.027 L 16.2135,-147.882 L 16.3145,-147.723 L 16.3947,-147.552 L 16.4529,-147.373
 L 16.4882,-147.188 L 16.5,-147 L 16.4882,-146.812 L 16.4529,-146.627 L 16.3947,-146.448 L 16.3145,-146.277
 L 16.2135,-146.118 L 16.0934,-145.973 L 15.9561,-145.844 L 15.8037,-145.734 L 15.6387,-145.643 L 15.4635,-145.573
 L 15.2811,-145.527 L 15.0942,-145.503 z
M 29.9058,-145.503 L 29.7189,-145.527 L 29.5365,-145.573 L 29.3613,-145.643 L 29.1963,-145.734 L 29.0439,-145.844
 L 28.9065,-145.973 L 28.7865,-146.118 L 28.6855,-146.277 L 28.6053,-146.448 L 28.5471,-146.627 L 28.5118,-146.812
 L 28.5,-147 L 28.5118,-147.188 L 28.5471,-147.373 L 28.6053,-147.552 L 28.6855,-147.723 L 28.7865,-147.882
 L 28.9065,-148.027 L 29.0439,-148.156 L 29.1963,-148.266 L 29.3613,-148.357 L 29.5365,-148.427 L 29.7189,-148.473
 L 29.9058,-148.497 L 30.0942,-148.497 L 30.2811,-148.473 L 30.4635,-148.427 L 30.6387,-148.357 L 30.8037,-148.266
 L 30.9561,-148.156 L 31.0934,-148.027 L 31.2135,-147.882 L 31.3145,-147.723 L 31.3947,-147.552 L 31.4529,-147.373
 L 31.4882,-147.188 L 31.5,-147 L 31.4882,-146.812 L 31.4529,-146.627 L 31.3947,-146.448 L 31.3145,-146.277
 L 31.2135,-146.118 L 31.0934,-145.973 L 30.9561,-145.844 L 30.8037,-145.734 L 30.6387,-145.643 L 30.4635,-145.573
 L 30.2811,-145.527 L 30.0942,-145.503 z
M 40.4369,-86.0886 L 41.0451,-86.2447 L 41.6289,-86.4759 L 42.1791,-86.7784 L 42.6871,-87.1474 L 43.1448,-87.5773
 L 43.5451,-88.0611 L 43.8815,-88.5912 L 44.1489,-89.1594 L 44.3429,-89.7566 L 44.4606,-90.3733 L 44.5,-91
 L 44.5,-125 L 44.4606,-125.627 L 44.3429,-126.243 L 44.1489,-126.841 L 43.8815,-127.409 L 43.5451,-127.939
 L 43.1448,-128.423 L 42.6871,-128.853 L 42.1791,-129.222 L 41.6289,-129.524 L 41.0451,-129.755 L 40.4369,-129.911
 L 39.8139,-129.99 L 5.18604,-129.99 L 4.56308,-129.911 L 3.95491,-129.755 L 3.37109,-129.524 L 2.82086,-129.222
 L 2.31287,-128.853 L 1.85515,-128.423 L 1.45491,-127.939 L 1.11845,-127.409 L 0.851105,-126.841 L 0.657074,-126.243
 L 0.539413,-125.627 L 0.5,-125 L 0.5,-91 L 0.539413,-90.3733 L 0.657074,-89.7566 L 0.851105,-89.1594
 L 1.11845,-88.5912 L 1.45491,-88.0611 L 1.85515,-87.5773 L 2.31287,-87.1474 L 2.82086,-86.7784 L 3.37109,-86.4759
 L 3.95491,-86.2447 L 4.56308,-86.0886 L 5.18604,-86.0099 L 39.8139,-86.0099 z
M 37.3116,-120.006 L 36.9379,-120.053 L 36.5729,-120.147 L 36.2227,-120.286 L 35.8925,-120.467 L 35.5877,-120.688
 L 35.3131,-120.946 L 35.0729,-121.237 L 34.8711,-121.555 L 34.7107,-121.896 L 34.5942,-122.254 L 34.5237,-122.624
 L 34.5,-123 L 34.5237,-123.376 L 34.5942,-123.746 L 34.7107,-124.104 L 34.8711,-124.445 L 35.0729,-124.763
 L 35.3131,-125.054 L 35.5877,-125.312 L 35.8925,-125.533 L 36.2227,-125.714 L 36.5729,-125.853 L 36.9379,-125.947
 L 37.3116,-125.994 L 37.6884,-125.994 L 38.0621,-125.947 L 38.427,-125.853 L 38.7773,-125.714 L 39.1075,-125.533
 L 39.4123,-125.312 L 39.6869,-125.054 L 39.927,-124.763 L 40.1289,-124.445 L 40.2893,-124.104 L 40.4057,-123.746
 L 40.4763,-123.376 L 40.5,-123 L 40.4763,-122.624 L 40.4057,-122.254 L 40.2893,-121.896 L 40.1289,-121.555
 L 39.927,-121.237 L 39.6869,-120.946 L 39.4123,-120.688 L 39.1075,-120.467 L 38.7773,-120.286 L 38.427,-120.147
 L 38.0621,-120.053 L 37.6884,-120.006 z
M 7.31161,-120.006 L 6.93785,-120.053 L 6.57294,-120.147 L 6.22266,-120.286 L 5.89252,-120.467 L 5.58772,-120.688
 L 5.31308,-120.946 L 5.07294,-121.237 L 4.87108,-121.555 L 4.71066,-121.896 L 4.59424,-122.254 L 4.52365,-122.624
 L 4.5,-123 L 4.52365,-123.376 L 4.59424,-123.746 L 4.71066,-124.104 L 4.87108,-124.445 L 5.07294,-124.763
 L 5.31308,-125.054 L 5.58772,-125.312 L 5.89252,-125.533 L 6.22266,-125.714 L 6.57294,-125.853 L 6.93785,-125.947
 L 7.31161,-125.994 L 7.68837,-125.994 L 8.06213,-125.947 L 8.42705,-125.853 L 8.77733,-125.714 L 9.10747,-125.533
 L 9.41226,-125.312 L 9.6869,-125.054 L 9.92705,-124.763 L 10.1289,-124.445 L 10.2893,-124.104 L 10.4057,-123.746
 L 10.4763,-123.376 L 10.5,-123 L 10.4763,-122.624 L 10.4057,-122.254 L 10.2893,-121.896 L 10.1289,-121.555
 L 9.92705,-121.237 L 9.6869,-120.946 L 9.41226,-120.688 L 9.10747,-120.467 L 8.77733,-120.286 L 8.42705,-120.147
 L 8.06213,-120.053 L 7.68837,-120.006 z
M 20.8267,-120.102 L 19.1534,-123 L 20.8267,-125.898 L 24.1733,-125.898 L 25.8466,-123 L 24.1733,-120.102
 z
M 14.9058,-121.503 L 14.7189,-121.527 L 14.5365,-121.573 L 14.3613,-121.643 L 14.1963,-121.734 L 14.0439,-121.844
 L 13.9065,-121.973 L 13.7865,-122.118 L 13.6855,-122.277 L 13.6053,-122.448 L 13.5471,-122.627 L 13.5118,-122.812
 L 13.5,-123 L 13.5118,-123.188 L 13.5471,-123.373 L 13.6053,-123.552 L 13.6855,-123.723 L 13.7865,-123.882
 L 13.9065,-124.027 L 14.0439,-124.156 L 14.1963,-124.266 L 14.3613,-124.357 L 14.5365,-124.427 L 14.7189,-124.473
 L 14.9058,-124.497 L 15.0942,-124.497 L 15.2811,-124.473 L 15.4635,-124.427 L 15.6387,-124.357 L 15.8037,-124.266
 L 15.9561,-124.156 L 16.0934,-124.027 L 16.2135,-123.882 L 16.3145,-123.723 L 16.3947,-123.552 L 16.4529,-123.373
 L 16.4882,-123.188 L 16.5,-123 L 16.4882,-122.812 L 16.4529,-122.627 L 16.3947,-122.448 L 16.3145,-122.277
 L 16.2135,-122.118 L 16.0934,-121.973 L 15.9561,-121.844 L 15.8037,-121.734 L 15.6387,-121.643 L 15.4635,-121.573
 L 15.2811,-121.527 L 15.0942,-121.503 z
M 29.9058,-121.503 L 29.7189,-121.527 L 29.5365,-121.573 L 29.3613,-121.643 L 29.1963,-121.734 L 29.0439,-121.844
 L 28.9065,-121.973 L 28.7865,-122.118 L 28.6855,-122.277 L 28.6053,-122.448 L 28.5471,-122.627 L 28.5118,-122.812
 L 28.5,-123 L 28.5118,-123.188 L 28.5471,-123.373 L 28.6053,-123.552 L 28.6855,-123.723 L 28.7865,-123.882
 L 28.9065,-124.027 L 29.0439,-124.156 L 29.1963,-124.266 L 29.3613,-124.357 L 29.5365,-124.427 L 29.7189,-124.473
 L 29.9058,-124.497 L 30.0942,-124.497 L 30.2811,-124.473 L 30.4635,-124.427 L 30.6387,-124.357 L 30.8037,-124.266
 L 30.9561,-124.156 L 31.0934,-124.027 L 31.2135,-123.882 L 31.3145,-123.723 L 31.3947,-123.552 L 31.4529,-123.373
 L 31.4882,-123.188 L 31.5,-123 L 31.4882,-122.812 L 31.4529,-122.627 L 31.3947,-122.448 L 31.3145,-122.277
 L 31.2135,-122.118 L 31.0934,-121.973 L 30.9561,-121.844 L 30.8037,-121.734 L 30.6387,-121.643 L 30.4635,-121.573
 L 30.2811,-121.527 L 30.0942,-121.503 z
M 14.186,-96.0099 L 13.5631,-96.0886 L 12.9549,-96.2447 L 12.3711,-96.4759 L 11.8209,-96.7784 L 11.3129,-97.1474
 L 10.8551,-97.5773 L 10.4549,-98.0611 L 10.1185,-98.5912 L 9.8511,-99.1594 L 9.65707,-99.7566 L 9.53941,-100.373
 L 9.5,-101 L 9.5,-115 L 9.53941,-115.627 L 9.65707,-116.243 L 9.8511,-116.841 L 10.1185,-117.409
 L 10.4549,-117.939 L 10.8551,-118.423 L 11.3129,-118.853 L 11.8209,-119.222 L 12.3711,-119.524 L 12.9549,-119.755
 L 13.5631,-119.911 L 14.186,-119.99 L 28.8139,-119.99 L 29.4369,-119.911 L 30.0451,-119.755 L 30.6289,-119.524
 L 31.1791,-119.222 L 31.6871,-118.853 L 32.1448,-118.423 L 32.5451,-117.939 L 32.8815,-117.409 L 33.1489,-116.841
 L 33.3429,-116.243 L 33.4606,-115.627 L 33.5,-115 L 33.5,-101 L 33.4606,-100.373 L 33.3429,-99.7566
 L 33.1489,-99.1594 L 32.8815,-98.5912 L 32.5451,-98.0611 L 32.1448,-97.5773 L 31.6871,-97.1474 L 31.1791,-96.7784
 L 30.6289,-96.4759 L 30.0451,-96.2447 L 29.4369,-96.0886 L 28.8139,-96.0099 z
M 37.4058,-114.003 L 37.2189,-114.027 L 37.0365,-114.073 L 36.8613,-114.143 L 36.6963,-114.234 L 36.5439,-114.344
 L 36.4065,-114.473 L 36.2865,-114.618 L 36.1855,-114.777 L 36.1053,-114.948 L 36.0471,-115.127 L 36.0118,-115.312
 L 36,-115.5 L 36.0118,-115.688 L 36.0471,-115.873 L 36.1053,-116.052 L 36.1855,-116.223 L 36.2865,-116.382
 L 36.4065,-116.527 L 36.5439,-116.656 L 36.6963,-116.766 L 36.8613,-116.857 L 37.0365,-116.927 L 37.2189,-116.973
 L 37.4058,-116.997 L 37.5942,-116.997 L 37.7811,-116.973 L 37.9635,-116.927 L 38.1387,-116.857 L 38.3037,-116.766
 L 38.4561,-116.656 L 38.5934,-116.527 L 38.7135,-116.382 L 38.8145,-116.223 L 38.8947,-116.052 L 38.9529,-115.873
 L 38.9882,-115.688 L 39,-115.5 L 38.9882,-115.312 L 38.9529,-115.127 L 38.8947,-114.948 L 38.8145,-114.777
 L 38.7135,-114.618 L 38.5934,-114.473 L 38.4561,-114.344 L 38.3037,-114.234 L 38.1387,-114.143 L 37.9635,-114.073
 L 37.7811,-114.027 L 37.5942,-114.003 z
M 37.3116,-105.006 L 36.9379,-105.053 L 36.5729,-105.147 L 36.2227,-105.286 L 35.8925,-105.467 L 35.5877,-105.688
 L 35.3131,-105.946 L 35.0729,-106.237 L 34.8711,-106.555 L 34.7107,-106.896 L 34.5942,-107.254 L 34.5237,-107.624
 L 34.5,-108 L 34.5237,-108.376 L 34.5942,-108.746 L 34.7107,-109.104 L 34.8711,-109.445 L 35.0729,-109.763
 L 35.3131,-110.054 L 35.5877,-110.312 L 35.8925,-110.533 L 36.2227,-110.714 L 36.5729,-110.853 L 36.9379,-110.947
 L 37.3116,-110.994 L 37.6884,-110.994 L 38.0621,-110.947 L 38.427,-110.853 L 38.7773,-110.714 L 39.1075,-110.533
 L 39.4123,-110.312 L 39.6869,-110.054 L 39.927,-109.763 L 40.1289,-109.445 L 40.2893,-109.104 L 40.4057,-108.746
 L 40.4763,-108.376 L 40.5,-108 L 40.4763,-107.624 L 40.4057,-107.254 L 40.2893,-106.896 L 40.1289,-106.555
 L 39.927,-106.237 L 39.6869,-105.946 L 39.4123,-105.688 L 39.1075,-105.467 L 38.7773,-105.286 L 38.427,-105.147
 L 38.0621,-105.053 L 37.6884,-105.006 z
M 37.4058,-99.003 L 37.2189,-99.0266 L 37.0365,-99.0734 L 36.8613,-99.1428 L 36.6963,-99.2335 L 36.5439,-99.3442
 L 36.4065,-99.4732 L 36.2865,-99.6183 L 36.1855,-99.7774 L 36.1053,-99.9478 L 36.0471,-100.127 L 36.0118,-100.312
 L 36,-100.5 L 36.0118,-100.688 L 36.0471,-100.873 L 36.1053,-101.052 L 36.1855,-101.223 L 36.2865,-101.382
 L 36.4065,-101.527 L 36.5439,-101.656 L 36.6963,-101.766 L 36.8613,-101.857 L 37.0365,-101.927 L 37.2189,-101.973
 L 37.4058,-101.997 L 37.5942,-101.997 L 37.7811,-101.973 L 37.9635,-101.927 L 38.1387,-101.857 L 38.3037,-101.766
 L 38.4561,-101.656 L 38.5934,-101.527 L 38.7135,-101.382 L 38.8145,-101.223 L 38.8947,-101.052 L 38.9529,-100.873
 L 38.9882,-100.688 L 39,-100.5 L 38.9882,-100.312 L 38.9529,-100.127 L 38.8947,-99.9478 L 38.8145,-99.7774
 L 38.7135,-99.6183 L 38.5934,-99.4732 L 38.4561,-99.3442 L 38.3037,-99.2335 L 38.1387,-99.1428 L 37.9635,-99.0734
 L 37.7811,-99.0266 L 37.5942,-99.003 z
M 7.31161,-90.0059 L 6.93785,-90.0531 L 6.57294,-90.1468 L 6.22266,-90.2855 L 5.89252,-90.467 L 5.58772,-90.6885
 L 5.31308,-90.9464 L 5.07294,-91.2366 L 4.87108,-91.5547 L 4.71066,-91.8956 L 4.59424,-92.2539 L 4.52365,-92.624
 L 4.5,-93 L 4.52365,-93.376 L 4.59424,-93.7461 L 4.71066,-94.1044 L 4.87108,-94.4453 L 5.07294,-94.7634
 L 5.31308,-95.0536 L 5.58772,-95.3116 L 5.89252,-95.533 L 6.22266,-95.7145 L 6.57294,-95.8532 L 6.93785,-95.9469
 L 7.31161,-95.9941 L 7.68837,-95.9941 L 8.06213,-95.9469 L 8.42705,-95.8532 L 8.77733,-95.7145 L 9.10747,-95.533
 L 9.41226,-95.3116 L 9.6869,-95.0536 L 9.92705,-94.7634 L 10.1289,-94.4453 L 10.2893,-94.1044 L 10.4057,-93.7461
 L 10.4763,-93.376 L 10.5,-93 L 10.4763,-92.624 L 10.4057,-92.2539 L 10.2893,-91.8956 L 10.1289,-91.5547
 L 9.92705,-91.2366 L 9.6869,-90.9464 L 9.41226,-90.6885 L 9.10747,-90.467 L 8.77733,-90.2855 L 8.42705,-90.1468
 L 8.06213,-90.0531 L 7.68837,-90.0059 z
M 37.3116,-90.0059 L 36.9379,-90.0531 L 36.5729,-90.1468 L 36.2227,-90.2855 L 35.8925,-90.467 L 35.5877,-90.6885
 L 35.3131,-90.9464 L 35.0729,-91.2366 L 34.8711,-91.5547 L 34.7107,-91.8956 L 34.5942,-92.2539 L 34.5237,-92.624
 L 34.5,-93 L 34.5237,-93.376 L 34.5942,-93.7461 L 34.7107,-94.1044 L 34.8711,-94.4453 L 35.0729,-94.7634
 L 35.3131,-95.0536 L 35.5877,-95.3116 L 35.8925,-95.533 L 36.2227,-95.7145 L 36.5729,-95.8532 L 36.9379,-95.9469
 L 37.3116,-95.9941 L 37.6884,-95.9941 L 38.0621,-95.9469 L 38.427,-95.8532 L 38.7773,-95.7145 L 39.1075,-95.533
 L 39.4123,-95.3116 L 39.6869,-95.0536 L 39.927,-94.7634 L 40.1289,-94.4453 L 40.2893,-94.1044 L 40.4057,-93.7461
 L 40.4763,-93.376 L 40.5,-93 L 40.4763,-92.624 L 40.4057,-92.2539 L 40.2893,-91.8956 L 40.1289,-91.5547
 L 39.927,-91.2366 L 39.6869,-90.9464 L 39.4123,-90.6885 L 39.1075,-90.467 L 38.7773,-90.2855 L 38.427,-90.1468
 L 38.0621,-90.0531 L 37.6884,-90.0059 z
M 20.8267,-90.1018 L 19.1534,-93 L 20.8267,-95.8982 L 24.1733,-95.8982 L 25.8466,-93 L 24.1733,-90.1018
 z
M 29.9058,-91.503 L 29.7189,-91.5266 L 29.5365,-91.5734 L 29.3613,-91.6428 L 29.1963,-91.7335 L 29.0439,-91.8442
 L 28.9065,-91.9732 L 28.7865,-92.1183 L 28.6855,-92.2774 L 28.6053,-92.4478 L 28.5471,-92.627 L 28.5118,-92.812
 L 28.5,-93 L 28.5118,-93.188 L 28.5471,-93.373 L 28.6053,-93.5522 L 28.6855,-93.7226 L 28.7865,-93.8817
 L 28.9065,-94.0268 L 29.0439,-94.1558 L 29.1963,-94.2665 L 29.3613,-94.3573 L 29.5365,-94.4266 L 29.7189,-94.4734
 L 29.9058,-94.4971 L 30.0942,-94.4971 L 30.2811,-94.4734 L 30.4635,-94.4266 L 30.6387,-94.3573 L 30.8037,-94.2665
 L 30.9561,-94.1558 L 31.0934,-94.0268 L 31.2135,-93.8817 L 31.3145,-93.7226 L 31.3947,-93.5522 L 31.4529,-93.373
 L 31.4882,-93.188 L 31.5,-93 L 31.4882,-92.812 L 31.4529,-92.627 L 31.3947,-92.4478 L 31.3145,-92.2774
 L 31.2135,-92.1183 L 31.0934,-91.9732 L 30.9561,-91.8442 L 30.8037,-91.7335 L 30.6387,-91.6428 L 30.4635,-91.5734
 L 30.2811,-91.5266 L 30.0942,-91.503 z
M 14.9058,-91.503 L 14.7189,-91.5266 L 14.5365,-91.5734 L 14.3613,-91.6428 L 14.1963,-91.7335 L 14.0439,-91.8442
 L 13.9065,-91.9732 L 13.7865,-92.1183 L 13.6855,-92.2774 L 13.6053,-92.4478 L 13.5471,-92.627 L 13.5118,-92.812
 L 13.5,-93 L 13.5118,-93.188 L 13.5471,-93.373 L 13.6053,-93.5522 L 13.6855,-93.7226 L 13.7865,-93.8817
 L 13.9065,-94.0268 L 14.0439,-94.1558 L 14.1963,-94.2665 L 14.3613,-94.3573 L 14.5365,-94.4266 L 14.7189,-94.4734
 L 14.9058,-94.4971 L 15.0942,-94.4971 L 15.2811,-94.4734 L 15.4635,-94.4266 L 15.6387,-94.3573 L 15.8037,-94.2665
 L 15.9561,-94.1558 L 16.0934,-94.0268 L 16.2135,-93.8817 L 16.3145,-93.7226 L 16.3947,-93.5522 L 16.4529,-93.373
 L 16.4882,-93.188 L 16.5,-93 L 16.4882,-92.812 L 16.4529,-92.627 L 16.3947,-92.4478 L 16.3145,-92.2774
 L 16.2135,-92.1183 L 16.0934,-91.9732 L 15.9561,-91.8442 L 15.8037,-91.7335 L 15.6387,-91.6428 L 15.4635,-91.5734
 L 15.2811,-91.5266 L 15.0942,-91.503 z
" stroke="black" fill="lightgray" stroke-width="0.5"/>
</svg>
