<?xml version="1.0" standalone="no"?>
<!DOCTYPE svg PUBLIC "-//W3C//DTD SVG 1.1//EN" "http://www.w3.org/Graphics/SVG/1.1/DTD/svg11.dtd">
<svg width="30mm" height="130mm" viewBox="-15 -251 30 130" xmlns="http://www.w3.org/2000/svg" version="1.1">
<title>OpenSCAD Model</title>
<path d="
M 10.4369,-214.339 L 11.0451,-214.495 L 11.6289,-214.726 L 12.1791,-215.028 L 12.6871,-215.397 L 13.1448,-215.827
 L 13.5451,-216.311 L 13.8815,-216.841 L 14.1489,-217.409 L 14.3429,-218.007 L 14.4606,-218.623 L 14.5,-219.25
 L 14.5,-245.75 L 14.4606,-246.377 L 14.3429,-246.993 L 14.1489,-247.591 L 13.8815,-248.159 L 13.5451,-248.689
 L 13.1448,-249.173 L 12.6871,-249.603 L 12.1791,-249.972 L 11.6289,-250.274 L 11.0451,-250.505 L 10.4369,-250.661
 L 9.81395,-250.74 L -9.81395,-250.74 L -10.4369,-250.661 L -11.0451,-250.505 L -11.6289,-250.274 L -12.1791,-249.972
 L -12.6871,-249.603 L -13.1448,-249.173 L -13.5451,-248.689 L -13.8815,-248.159 L -14.1489,-247.591 L -14.3429,-246.993
 L -14.4606,-246.377 L -14.5,-245.75 L -14.5,-219.25 L -14.4606,-218.623 L -14.3429,-218.007 L -14.1489,-217.409
 L -13.8815,-216.841 L -13.5451,-216.311 L -13.1448,-215.827 L -12.6871,-215.397 L -12.1791,-215.028 L -11.6289,-214.726
 L -11.0451,-214.495 L -10.4369,-214.339 L -9.81395,-214.26 L 9.81395,-214.26 z
M -9.75116,-215.258 L -10.2495,-215.321 L -10.7361,-215.446 L -11.2031,-215.631 L -11.6433,-215.873 L -12.0497,-216.168
 L -12.4159,-216.512 L -12.7361,-216.899 L -13.0052,-217.323 L -13.2191,-217.778 L -13.3743,-218.255 L -13.4684,-218.749
 L -13.5,-219.25 L -13.5,-245.75 L -13.4684,-246.251 L -13.3743,-246.745 L -13.2191,-247.222 L -13.0052,-247.677
 L -12.7361,-248.101 L -12.4159,-248.488 L -12.0497,-248.832 L -11.6433,-249.127 L -11.2031,-249.369 L -10.7361,-249.554
 L -10.2495,-249.679 L -9.75116,-249.742 L 9.75116,-249.742 L 10.2495,-249.679 L 10.7361,-249.554 L 11.2031,-249.369
 L 11.6433,-249.127 L 12.0497,-248.832 L 12.4159,-248.488 L 12.7361,-248.101 L 13.0052,-247.677 L 13.2191,-247.222
 L 13.3743,-246.745 L 13.4684,-246.251 L 13.5,-245.75 L 13.5,-219.25 L 13.4684,-218.749 L 13.3743,-218.255
 L 13.2191,-217.778 L 13.0052,-217.323 L 12.7361,-216.899 L 12.4159,-216.512 L 12.0497,-216.168 L 11.6433,-215.873
 L 11.2031,-215.631 L 10.7361,-215.446 L 10.2495,-215.321 L 9.75116,-215.258 z
M 10.4369,-167.839 L 11.0451,-167.995 L 11.6289,-168.226 L 12.1791,-168.528 L 12.6871,-168.897 L 13.1448,-169.327
 L 13.5451,-169.811 L 13.8815,-170.341 L 14.1489,-170.909 L 14.3429,-171.507 L 14.4606,-172.123 L 14.5,-172.75
 L 14.5,-199.25 L 14.4606,-199.877 L 14.3429,-200.493 L 14.1489,-201.091 L 13.8815,-201.659 L 13.5451,-202.189
 L 13.1448,-202.673 L 12.6871,-203.103 L 12.1791,-203.472 L 11.6289,-203.774 L 11.0451,-204.005 L 10.4369,-204.161
 L 9.81395,-204.24 L -9.81395,-204.24 L -10.4369,-204.161 L -11.0451,-204.005 L -11.6289,-203.774 L -12.1791,-203.472
 L -12.6871,-203.103 L -13.1448,-202.673 L -13.5451,-202.189 L -13.8815,-201.659 L -14.1489,-201.091 L -14.3429,-200.493
 L -14.4606,-199.877 L -14.5,-199.25 L -14.5,-172.75 L -14.4606,-172.123 L -14.3429,-171.507 L -14.1489,-170.909
 L -13.8815,-170.341 L -13.5451,-169.811 L -13.1448,-169.327 L -12.6871,-168.897 L -12.1791,-168.528 L -11.6289,-168.226
 L -11.0451,-167.995 L -10.4369,-167.839 L -9.81395,-167.76 L 9.81395,-167.76 z
M -9.69545,-169.643 L -10.0833,-169.692 L -10.4619,-169.789 L -10.8254,-169.933 L -11.168,-170.122 L -11.4842,-170.351
 L -11.7692,-170.619 L -12.0184,-170.92 L -12.2279,-171.25 L -12.3943,-171.604 L -12.5151,-171.976 L -12.5884,-172.36
 L -12.6129,-172.75 L -12.6129,-199.25 L -12.5884,-199.64 L -12.5151,-200.024 L -12.3943,-200.396 L -12.2279,-200.75
 L -12.0184,-201.08 L -11.7692,-201.381 L -11.4842,-201.649 L -11.168,-201.878 L -10.8254,-202.067 L -10.4619,-202.211
 L -10.0833,-202.308 L -9.69545,-202.357 L 9.69545,-202.357 L 10.0833,-202.308 L 10.4619,-202.211 L 10.8254,-202.067
 L 11.168,-201.878 L 11.4842,-201.649 L 11.7692,-201.381 L 12.0184,-201.08 L 12.2279,-200.75 L 12.3943,-200.396
 L 12.5151,-200.024 L 12.5884,-199.64 L 12.6129,-199.25 L 12.6129,-172.75 L 12.5884,-172.36 L 12.5151,-171.976
 L 12.3943,-171.604 L 12.2279,-171.25 L 12.0184,-170.92 L 11.7692,-170.619 L 11.4842,-170.351 L 11.168,-170.122
 L 10.8254,-169.933 L 10.4619,-169.789 L 10.0833,-169.692 L 9.69545,-169.643 z
M 10.4369,-121.339 L 11.0451,-121.495 L 11.6289,-121.726 L 12.1791,-122.028 L 12.6871,-122.397 L 13.1448,-122.827
 L 13.5451,-123.311 L 13.8815,-123.841 L 14.1489,-124.409 L 14.3429,-125.007 L 14.4606,-125.623 L 14.5,-126.25
 L 14.5,-152.75 L 14.4606,-153.377 L 14.3429,-153.993 L 14.1489,-154.591 L 13.8815,-155.159 L 13.5451,-155.689
 L 13.1448,-156.173 L 12.6871,-156.603 L 12.1791,-156.972 L 11.6289,-157.274 L 11.0451,-157.505 L 10.4369,-157.661
 L 9.81395,-157.74 L -9.81395,-157.74 L -10.4369,-157.661 L -11.0451,-157.505 L -11.6289,-157.274 L -12.1791,-156.972
 L -12.6871,-156.603 L -13.1448,-156.173 L -13.5451,-155.689 L -13.8815,-155.159 L -14.1489,-154.591 L -14.3429,-153.993
 L -14.4606,-153.377 L -14.5,-152.75 L -14.5,-126.25 L -14.4606,-125.623 L -14.3429,-125.007 L -14.1489,-124.409
 L -13.8815,-123.841 L -13.5451,-123.311 L -13.1448,-122.827 L -12.6871,-122.397 L -12.1791,-122.028 L -11.6289,-121.726
 L -11.0451,-121.495 L -10.4369,-121.339 L -9.81395,-121.26 L 9.81395,-121.26 z
M 7.34929,-148.355 L 7.05028,-148.393 L 6.75835,-148.467 L 6.47812,-148.578 L 6.214,-148.724 L 5.97017,-148.901
 L 5.75047,-149.107 L 5.55835,-149.339 L 5.39685,-149.594 L 5.26852,-149.867 L 5.1754,-150.153 L 5.11891,-150.449
 L 5.09999,-150.75 L 5.11891,-151.051 L 5.1754,-151.347 L 5.26852,-151.633 L 5.39685,-151.906 L 5.55835,-152.161
 L 5.75047,-152.393 L 5.97017,-152.599 L 6.214,-152.776 L 6.47812,-152.922 L 6.75835,-153.033 L 7.05028,-153.107
 L 7.34929,-153.145 L 7.6507,-153.145 L 7.94971,-153.107 L 8.24164,-153.033 L 8.52187,-152.922 L 8.78598,-152.776
 L 9.02982,-152.599 L 9.24951,-152.393 L 9.44164,-152.161 L 9.60313,-151.906 L 9.73146,-151.633 L 9.82458,-151.347
 L 9.88107,-151.051 L 9.89999,-150.75 L 9.88107,-150.449 L 9.82458,-150.153 L 9.73146,-149.867 L 9.60313,-149.594
 L 9.44164,-149.339 L 9.24951,-149.107 L 9.02982,-148.901 L 8.78598,-148.724 L 8.52187,-148.578 L 8.24164,-148.467
 L 7.94971,-148.393 L 7.6507,-148.355 z
M -7.6507,-148.355 L -7.94971,-148.393 L -8.24164,-148.467 L -8.52187,-148.578 L -8.78598,-148.724 L -9.02982,-148.901
 L -9.24951,-149.107 L -9.44164,-149.339 L -9.60313,-149.594 L -9.73146,-149.867 L -9.82458,-150.153 L -9.88107,-150.449
 L -9.89999,-150.75 L -9.88107,-151.051 L -9.82458,-151.347 L -9.73146,-151.633 L -9.60313,-151.906 L -9.44164,-152.161
 L -9.24951,-152.393 L -9.02982,-152.599 L -8.78598,-152.776 L -8.52187,-152.922 L -8.24164,-153.033 L -7.94971,-153.107
 L -7.6507,-153.145 L -7.34929,-153.145 L -7.05028,-153.107 L -6.75835,-153.033 L -6.47812,-152.922 L -6.214,-152.776
 L -5.97017,-152.599 L -5.75047,-152.393 L -5.55835,-152.161 L -5.39685,-151.906 L -5.26852,-151.633 L -5.1754,-151.347
 L -5.11891,-151.051 L -5.09999,-150.75 L -5.11891,-150.449 L -5.1754,-150.153 L -5.26852,-149.867 L -5.39685,-149.594
 L -5.55835,-149.339 L -5.75047,-149.107 L -5.97017,-148.901 L -6.214,-148.724 L -6.47812,-148.578 L -6.75835,-148.467
 L -7.05028,-148.393 L -7.34929,-148.355 z
M 7.34929,-125.855 L 7.05028,-125.893 L 6.75835,-125.967 L 6.47812,-126.078 L 6.214,-126.224 L 5.97017,-126.401
 L 5.75047,-126.607 L 5.55835,-126.839 L 5.39685,-127.094 L 5.26852,-127.367 L 5.1754,-127.653 L 5.11891,-127.949
 L 5.09999,-128.25 L 5.11891,-128.551 L 5.1754,-128.847 L 5.26852,-129.133 L 5.39685,-129.406 L 5.55835,-129.661
 L 5.75047,-129.893 L 5.97017,-130.099 L 6.214,-130.276 L 6.47812,-130.422 L 6.75835,-130.533 L 7.05028,-130.607
 L 7.34929,-130.645 L 7.6507,-130.645 L 7.94971,-130.607 L 8.24164,-130.533 L 8.52187,-130.422 L 8.78598,-130.276
 L 9.02982,-130.099 L 9.24951,-129.893 L 9.44164,-129.661 L 9.60313,-129.406 L 9.73146,-129.133 L 9.82458,-128.847
 L 9.88107,-128.551 L 9.89999,-128.25 L 9.88107,-127.949 L 9.82458,-127.653 L 9.73146,-127.367 L 9.60313,-127.094
 L 9.44164,-126.839 L 9.24951,-126.607 L 9.02982,-126.401 L 8.78598,-126.224 L 8.52187,-126.078 L 8.24164,-125.967
 L 7.94971,-125.893 L 7.6507,-125.855 z
M -7.6507,-125.855 L -7.94971,-125.893 L -8.24164,-125.967 L -8.52187,-126.078 L -8.78598,-126.224 L -9.02982,-126.401
 L -9.24951,-126.607 L -9.44164,-126.839 L -9.60313,-127.094 L -9.73146,-127.367 L -9.82458,-127.653 L -9.88107,-127.949
 L -9.89999,-128.25 L -9.88107,-128.551 L -9.82458,-128.847 L -9.73146,-129.133 L -9.60313,-129.406 L -9.44164,-129.661
 L -9.24951,-129.893 L -9.02982,-130.099 L -8.78598,-130.276 L -8.52187,-130.422 L -8.24164,-130.533 L -7.94971,-130.607
 L -7.6507,-130.645 L -7.34929,-130.645 L -7.05028,-130.607 L -6.75835,-130.533 L -6.47812,-130.422 L -6.214,-130.276
 L -5.97017,-130.099 L -5.75047,-129.893 L -5.55835,-129.661 L -5.39685,-129.406 L -5.26852,-129.133 L -5.1754,-128.847
 L -5.11891,-128.551 L -5.09999,-128.25 L -5.11891,-127.949 L -5.1754,-127.653 L -5.26852,-127.367 L -5.39685,-127.094
 L -5.55835,-126.839 L -5.75047,-126.607 L -5.97017,-126.401 L -6.214,-126.224 L -6.47812,-126.078 L -6.75835,-125.967
 L -7.05028,-125.893 L -7.34929,-125.855 z
" stroke="black" fill="lightgray" stroke-width="0.5"/>
</svg>
